<?xml version="1.0" encoding="UTF-8" standalone="no"?>
<!DOCTYPE svg PUBLIC "-//W3C//DTD SVG 1.1//EN"
 "http://www.w3.org/Graphics/SVG/1.1/DTD/svg11.dtd">
<!-- Generated by graphviz version 2.40.1 (20161225.0304)
 -->
<!-- Title: oneDegreeRelationshipsDiagramImplied Pages: 1 -->
<svg width="552pt" height="539pt"
 viewBox="0.00 0.00 552.00 539.20" xmlns="http://www.w3.org/2000/svg" xmlns:xlink="http://www.w3.org/1999/xlink">
<g id="graph0" class="graph" transform="scale(1 1) rotate(0) translate(4 535.2)">
<title>oneDegreeRelationshipsDiagramImplied</title>
<polygon fill="#ffffff" stroke="transparent" points="-4,4 -4,-535.2 548,-535.2 548,4 -4,4"/>
<text text-anchor="middle" x="72.4936" y="-7.3" font-family="Helvetica,sans-Serif" font-size="11.00" fill="#000000">Generated by SchemaSpy</text>
<!-- document_template_audit -->
<g id="node1" class="node">
<title>document_template_audit</title>
<g id="a_node1"><a xlink:href="../../tables/document_template_audit.html" xlink:title="document_template_audit" target="_top">
<polygon fill="#ffffff" stroke="transparent" points="291.5,-378.2 291.5,-527.2 505.5,-527.2 505.5,-378.2 291.5,-378.2"/>
<polygon fill="#f5f5f5" stroke="transparent" points="291.5,-503.7 291.5,-526.7 505.5,-526.7 505.5,-503.7 291.5,-503.7"/>
<polygon fill="none" stroke="#000000" points="291.5,-503.7 291.5,-526.7 505.5,-526.7 505.5,-503.7 291.5,-503.7"/>
<text text-anchor="start" x="296.5" y="-512.3" font-family="Helvetica,sans-Serif" font-weight="bold" font-size="11.00" fill="#000000">document_template_audit</text>
<text text-anchor="start" x="471.0219" y="-511.8" font-family="Helvetica,sans-Serif" font-size="11.00" fill="#000000">[table]</text>
<polygon fill="none" stroke="#000000" points="291.5,-481.7 291.5,-503.7 505.5,-503.7 505.5,-481.7 291.5,-481.7"/>
<image xlink:href="../../images/primaryKeys.png" width="11px" height="12px" preserveAspectRatio="xMinYMin meet" x="296.5" y="-498.7"/>
<text text-anchor="start" x="320.5" y="-488.8" font-family="Helvetica,sans-Serif" font-size="11.00" fill="#000000">rev_id</text>
<polygon fill="none" stroke="#000000" points="291.5,-459.7 291.5,-481.7 505.5,-481.7 505.5,-459.7 291.5,-459.7"/>
<image xlink:href="../../images/primaryKeys.png" width="11px" height="12px" preserveAspectRatio="xMinYMin meet" x="296.5" y="-476.7"/>
<text text-anchor="start" x="320.5" y="-466.8" font-family="Helvetica,sans-Serif" font-size="11.00" fill="#000000">id</text>
<polygon fill="none" stroke="#000000" points="291.5,-437.7 291.5,-459.7 505.5,-459.7 505.5,-437.7 291.5,-437.7"/>
<image xlink:href="../../images/foreignKeys.png" width="11px" height="12px" preserveAspectRatio="xMinYMin meet" x="296.5" y="-454.7"/>
<text text-anchor="start" x="320.5" y="-444.8" font-family="Helvetica,sans-Serif" font-size="11.00" fill="#000000">code</text>
<polygon fill="#ffffff" stroke="transparent" points="291.5,-415.7 291.5,-437.7 505.5,-437.7 505.5,-415.7 291.5,-415.7"/>
<polygon fill="none" stroke="#000000" points="291.5,-415.7 291.5,-437.7 505.5,-437.7 505.5,-415.7 291.5,-415.7"/>
<text text-anchor="start" x="320.5" y="-422.8" font-family="Helvetica,sans-Serif" font-size="11.00" fill="#000000">external_reference</text>
<polygon fill="none" stroke="#000000" points="291.5,-396.7 291.5,-415.7 505.5,-415.7 505.5,-396.7 291.5,-396.7"/>
<text text-anchor="start" x="294.5" y="-402.8" font-family="Helvetica,sans-Serif" font-size="11.00" fill="#000000">...</text>
<polygon fill="#ffffff" stroke="transparent" points="291.5,-377.7 291.5,-396.7 396.5,-396.7 396.5,-377.7 291.5,-377.7"/>
<polygon fill="none" stroke="#000000" points="291.5,-377.7 291.5,-396.7 396.5,-396.7 396.5,-377.7 291.5,-377.7"/>
<text text-anchor="start" x="294.5" y="-383.8" font-family="Helvetica,sans-Serif" font-size="11.00" fill="#000000">&lt; 1</text>
<polygon fill="#ffffff" stroke="transparent" points="396.5,-377.7 396.5,-396.7 450.5,-396.7 450.5,-377.7 396.5,-377.7"/>
<polygon fill="none" stroke="#000000" points="396.5,-377.7 396.5,-396.7 450.5,-396.7 450.5,-377.7 396.5,-377.7"/>
<text text-anchor="start" x="441.3862" y="-383.8" font-family="Helvetica,sans-Serif" font-size="11.00" fill="#000000"> &#160;</text>
<polygon fill="#ffffff" stroke="transparent" points="450.5,-377.7 450.5,-396.7 505.5,-396.7 505.5,-377.7 450.5,-377.7"/>
<polygon fill="none" stroke="#000000" points="450.5,-377.7 450.5,-396.7 505.5,-396.7 505.5,-377.7 450.5,-377.7"/>
<text text-anchor="start" x="496.3862" y="-383.8" font-family="Helvetica,sans-Serif" font-size="11.00" fill="#000000"> &#160;</text>
</a>
</g>
</g>
<!-- audit_revision -->
<g id="node2" class="node">
<title>audit_revision</title>
<g id="a_node2"><a xlink:href="../../tables/audit_revision.html" xlink:title="audit_revision" target="_top">
<polygon fill="#ffffff" stroke="transparent" points="8,-246.7 8,-358.7 212,-358.7 212,-246.7 8,-246.7"/>
<polygon fill="#f5f5f5" stroke="transparent" points="10,-333.7 10,-356.7 210,-356.7 210,-333.7 10,-333.7"/>
<polygon fill="none" stroke="#000000" points="10,-333.7 10,-356.7 210,-356.7 210,-333.7 10,-333.7"/>
<text text-anchor="start" x="15" y="-342.3" font-family="Helvetica,sans-Serif" font-weight="bold" font-size="11.00" fill="#000000">audit_revision</text>
<text text-anchor="start" x="175.0437" y="-341.8" font-family="Helvetica,sans-Serif" font-size="11.00" fill="#000000">[table]</text>
<polygon fill="none" stroke="#000000" points="10,-311.7 10,-333.7 126,-333.7 126,-311.7 10,-311.7"/>
<image xlink:href="../../images/primaryKeys.png" width="11px" height="12px" preserveAspectRatio="xMinYMin meet" x="15" y="-328.7"/>
<text text-anchor="start" x="30" y="-318.8" font-family="Helvetica,sans-Serif" font-size="11.00" fill="#000000">id</text>
<polygon fill="none" stroke="#000000" points="126,-311.7 126,-333.7 210,-333.7 210,-311.7 126,-311.7"/>
<text text-anchor="start" x="129" y="-319.4" font-family="Helvetica,sans-Serif" font-size="11.00" fill="#000000">bigserial[19]</text>
<polygon fill="none" stroke="#000000" points="10,-289.7 10,-311.7 126,-311.7 126,-289.7 10,-289.7"/>
<text text-anchor="start" x="30" y="-296.8" font-family="Helvetica,sans-Serif" font-size="11.00" fill="#000000">timestamp</text>
<polygon fill="none" stroke="#000000" points="126,-289.7 126,-311.7 210,-311.7 210,-289.7 126,-289.7"/>
<text text-anchor="start" x="128.8807" y="-297.4" font-family="Helvetica,sans-Serif" font-size="11.00" fill="#000000">timestamp[29,6]</text>
<polygon fill="none" stroke="#000000" points="10,-267.7 10,-289.7 126,-289.7 126,-267.7 10,-267.7"/>
<text text-anchor="start" x="30" y="-274.8" font-family="Helvetica,sans-Serif" font-size="11.00" fill="#000000">username</text>
<polygon fill="none" stroke="#000000" points="126,-267.7 126,-289.7 210,-289.7 210,-267.7 126,-267.7"/>
<text text-anchor="start" x="129" y="-275.4" font-family="Helvetica,sans-Serif" font-size="11.00" fill="#000000">varchar[64]</text>
<polygon fill="#ffffff" stroke="transparent" points="10,-248.7 10,-267.7 72,-267.7 72,-248.7 10,-248.7"/>
<polygon fill="none" stroke="#000000" points="10,-248.7 10,-267.7 72,-267.7 72,-248.7 10,-248.7"/>
<text text-anchor="start" x="13" y="-254.8" font-family="Helvetica,sans-Serif" font-size="11.00" fill="#000000">&lt; 0</text>
<polygon fill="#ffffff" stroke="transparent" points="72,-248.7 72,-267.7 126,-267.7 126,-248.7 72,-248.7"/>
<polygon fill="none" stroke="#000000" points="72,-248.7 72,-267.7 126,-267.7 126,-248.7 72,-248.7"/>
<text text-anchor="start" x="116.8862" y="-254.8" font-family="Helvetica,sans-Serif" font-size="11.00" fill="#000000"> &#160;</text>
<polygon fill="#ffffff" stroke="transparent" points="126,-248.7 126,-267.7 210,-267.7 210,-248.7 126,-248.7"/>
<polygon fill="none" stroke="#000000" points="126,-248.7 126,-267.7 210,-267.7 210,-248.7 126,-248.7"/>
<text text-anchor="start" x="191.4053" y="-254.8" font-family="Helvetica,sans-Serif" font-size="11.00" fill="#000000">3 &gt;</text>
<polygon fill="none" stroke="#000000" stroke-width="2" points="9,-247.7 9,-357.7 211,-357.7 211,-247.7 9,-247.7"/>
</a>
</g>
</g>
<!-- document_template_audit&#45;&gt;audit_revision -->
<g id="edge1" class="edge">
<title>document_template_audit:w&#45;&gt;audit_revision:e</title>
<path fill="none" stroke="#000000" d="M276.9553,-490.5506C218.3937,-470.8715 288.2254,-322.7 210,-322.7"/>
<polygon fill="#000000" stroke="#000000" points="283.586,-491.5304 290.9737,-496.2613 287.543,-492.1152 291.5,-492.7 291.5,-492.7 291.5,-492.7 287.543,-492.1152 292.0263,-489.1387 283.586,-491.5304 283.586,-491.5304"/>
<ellipse fill="none" stroke="#000000" cx="280.4203" cy="-491.0626" rx="3.2" ry="3.2"/>
</g>
<!-- document_template_group_audit -->
<g id="node3" class="node">
<title>document_template_group_audit</title>
<g id="a_node3"><a xlink:href="../../tables/document_template_group_audit.html" xlink:title="document_template_group_audit" target="_top">
<polygon fill="#ffffff" stroke="transparent" points="268.5,-208.2 268.5,-357.2 528.5,-357.2 528.5,-208.2 268.5,-208.2"/>
<polygon fill="#f5f5f5" stroke="transparent" points="268.5,-333.7 268.5,-356.7 528.5,-356.7 528.5,-333.7 268.5,-333.7"/>
<polygon fill="none" stroke="#000000" points="268.5,-333.7 268.5,-356.7 528.5,-356.7 528.5,-333.7 268.5,-333.7"/>
<text text-anchor="start" x="273.5" y="-342.3" font-family="Helvetica,sans-Serif" font-weight="bold" font-size="11.00" fill="#000000">document_template_group_audit</text>
<text text-anchor="start" x="494.0219" y="-341.8" font-family="Helvetica,sans-Serif" font-size="11.00" fill="#000000">[table]</text>
<polygon fill="none" stroke="#000000" points="268.5,-311.7 268.5,-333.7 528.5,-333.7 528.5,-311.7 268.5,-311.7"/>
<image xlink:href="../../images/primaryKeys.png" width="11px" height="12px" preserveAspectRatio="xMinYMin meet" x="273.5" y="-328.7"/>
<text text-anchor="start" x="297.5" y="-318.8" font-family="Helvetica,sans-Serif" font-size="11.00" fill="#000000">rev_id</text>
<polygon fill="none" stroke="#000000" points="268.5,-289.7 268.5,-311.7 528.5,-311.7 528.5,-289.7 268.5,-289.7"/>
<image xlink:href="../../images/primaryKeys.png" width="11px" height="12px" preserveAspectRatio="xMinYMin meet" x="273.5" y="-306.7"/>
<text text-anchor="start" x="297.5" y="-296.8" font-family="Helvetica,sans-Serif" font-size="11.00" fill="#000000">id</text>
<polygon fill="#ffffff" stroke="transparent" points="268.5,-267.7 268.5,-289.7 528.5,-289.7 528.5,-267.7 268.5,-267.7"/>
<polygon fill="none" stroke="#000000" points="268.5,-267.7 268.5,-289.7 528.5,-289.7 528.5,-267.7 268.5,-267.7"/>
<text text-anchor="start" x="297.5" y="-274.8" font-family="Helvetica,sans-Serif" font-size="11.00" fill="#000000">template_id</text>
<polygon fill="#ffffff" stroke="transparent" points="268.5,-245.7 268.5,-267.7 528.5,-267.7 528.5,-245.7 268.5,-245.7"/>
<polygon fill="none" stroke="#000000" points="268.5,-245.7 268.5,-267.7 528.5,-267.7 528.5,-245.7 268.5,-245.7"/>
<text text-anchor="start" x="297.5" y="-252.8" font-family="Helvetica,sans-Serif" font-size="11.00" fill="#000000">template_group_id</text>
<polygon fill="none" stroke="#000000" points="268.5,-226.7 268.5,-245.7 528.5,-245.7 528.5,-226.7 268.5,-226.7"/>
<text text-anchor="start" x="271.5" y="-232.8" font-family="Helvetica,sans-Serif" font-size="11.00" fill="#000000">...</text>
<polygon fill="#ffffff" stroke="transparent" points="268.5,-207.7 268.5,-226.7 396.5,-226.7 396.5,-207.7 268.5,-207.7"/>
<polygon fill="none" stroke="#000000" points="268.5,-207.7 268.5,-226.7 396.5,-226.7 396.5,-207.7 268.5,-207.7"/>
<text text-anchor="start" x="271.5" y="-213.8" font-family="Helvetica,sans-Serif" font-size="11.00" fill="#000000">&lt; 1</text>
<polygon fill="#ffffff" stroke="transparent" points="396.5,-207.7 396.5,-226.7 462.5,-226.7 462.5,-207.7 396.5,-207.7"/>
<polygon fill="none" stroke="#000000" points="396.5,-207.7 396.5,-226.7 462.5,-226.7 462.5,-207.7 396.5,-207.7"/>
<text text-anchor="start" x="453.3862" y="-213.8" font-family="Helvetica,sans-Serif" font-size="11.00" fill="#000000"> &#160;</text>
<polygon fill="#ffffff" stroke="transparent" points="462.5,-207.7 462.5,-226.7 528.5,-226.7 528.5,-207.7 462.5,-207.7"/>
<polygon fill="none" stroke="#000000" points="462.5,-207.7 462.5,-226.7 528.5,-226.7 528.5,-207.7 462.5,-207.7"/>
<text text-anchor="start" x="519.3862" y="-213.8" font-family="Helvetica,sans-Serif" font-size="11.00" fill="#000000"> &#160;</text>
</a>
</g>
</g>
<!-- document_template_group_audit&#45;&gt;audit_revision -->
<g id="edge2" class="edge">
<title>document_template_group_audit:w&#45;&gt;audit_revision:e</title>
<path fill="none" stroke="#000000" d="M253.8286,-322.7C238.7231,-322.7 230.3125,-322.7 210,-322.7"/>
<polygon fill="#000000" stroke="#000000" points="260.5,-322.7001 268.5,-326.3 264.5,-322.7 268.5,-322.7 268.5,-322.7 268.5,-322.7 264.5,-322.7 268.5,-319.1 260.5,-322.7001 260.5,-322.7001"/>
<ellipse fill="none" stroke="#000000" cx="257.3" cy="-322.7001" rx="3.2" ry="3.2"/>
</g>
<!-- document_template_variable_audit -->
<g id="node4" class="node">
<title>document_template_variable_audit</title>
<g id="a_node4"><a xlink:href="../../tables/document_template_variable_audit.html" xlink:title="document_template_variable_audit" target="_top">
<polygon fill="#ffffff" stroke="transparent" points="261,-38.2 261,-187.2 536,-187.2 536,-38.2 261,-38.2"/>
<polygon fill="#f5f5f5" stroke="transparent" points="261.5,-163.7 261.5,-186.7 536.5,-186.7 536.5,-163.7 261.5,-163.7"/>
<polygon fill="none" stroke="#000000" points="261.5,-163.7 261.5,-186.7 536.5,-186.7 536.5,-163.7 261.5,-163.7"/>
<text text-anchor="start" x="266.5" y="-172.3" font-family="Helvetica,sans-Serif" font-weight="bold" font-size="11.00" fill="#000000">document_template_variable_audit</text>
<text text-anchor="start" x="502.0219" y="-171.8" font-family="Helvetica,sans-Serif" font-size="11.00" fill="#000000">[table]</text>
<polygon fill="none" stroke="#000000" points="261.5,-141.7 261.5,-163.7 536.5,-163.7 536.5,-141.7 261.5,-141.7"/>
<image xlink:href="../../images/primaryKeys.png" width="11px" height="12px" preserveAspectRatio="xMinYMin meet" x="266.5" y="-158.7"/>
<text text-anchor="start" x="290.5" y="-148.8" font-family="Helvetica,sans-Serif" font-size="11.00" fill="#000000">rev_id</text>
<polygon fill="none" stroke="#000000" points="261.5,-119.7 261.5,-141.7 536.5,-141.7 536.5,-119.7 261.5,-119.7"/>
<image xlink:href="../../images/primaryKeys.png" width="11px" height="12px" preserveAspectRatio="xMinYMin meet" x="266.5" y="-136.7"/>
<text text-anchor="start" x="290.5" y="-126.8" font-family="Helvetica,sans-Serif" font-size="11.00" fill="#000000">id</text>
<polygon fill="#ffffff" stroke="transparent" points="261.5,-97.7 261.5,-119.7 536.5,-119.7 536.5,-97.7 261.5,-97.7"/>
<polygon fill="none" stroke="#000000" points="261.5,-97.7 261.5,-119.7 536.5,-119.7 536.5,-97.7 261.5,-97.7"/>
<text text-anchor="start" x="290.5" y="-104.8" font-family="Helvetica,sans-Serif" font-size="11.00" fill="#000000">template_id</text>
<polygon fill="#ffffff" stroke="transparent" points="261.5,-75.7 261.5,-97.7 536.5,-97.7 536.5,-75.7 261.5,-75.7"/>
<polygon fill="none" stroke="#000000" points="261.5,-75.7 261.5,-97.7 536.5,-97.7 536.5,-75.7 261.5,-75.7"/>
<text text-anchor="start" x="290.5" y="-82.8" font-family="Helvetica,sans-Serif" font-size="11.00" fill="#000000">variable_id</text>
<polygon fill="none" stroke="#000000" points="261.5,-56.7 261.5,-75.7 536.5,-75.7 536.5,-56.7 261.5,-56.7"/>
<text text-anchor="start" x="264.5" y="-62.8" font-family="Helvetica,sans-Serif" font-size="11.00" fill="#000000">...</text>
<polygon fill="#ffffff" stroke="transparent" points="261.5,-37.7 261.5,-56.7 397.5,-56.7 397.5,-37.7 261.5,-37.7"/>
<polygon fill="none" stroke="#000000" points="261.5,-37.7 261.5,-56.7 397.5,-56.7 397.5,-37.7 261.5,-37.7"/>
<text text-anchor="start" x="264.5" y="-43.8" font-family="Helvetica,sans-Serif" font-size="11.00" fill="#000000">&lt; 1</text>
<polygon fill="#ffffff" stroke="transparent" points="397.5,-37.7 397.5,-56.7 466.5,-56.7 466.5,-37.7 397.5,-37.7"/>
<polygon fill="none" stroke="#000000" points="397.5,-37.7 397.5,-56.7 466.5,-56.7 466.5,-37.7 397.5,-37.7"/>
<text text-anchor="start" x="457.3862" y="-43.8" font-family="Helvetica,sans-Serif" font-size="11.00" fill="#000000"> &#160;</text>
<polygon fill="#ffffff" stroke="transparent" points="466.5,-37.7 466.5,-56.7 536.5,-56.7 536.5,-37.7 466.5,-37.7"/>
<polygon fill="none" stroke="#000000" points="466.5,-37.7 466.5,-56.7 536.5,-56.7 536.5,-37.7 466.5,-37.7"/>
<text text-anchor="start" x="527.3862" y="-43.8" font-family="Helvetica,sans-Serif" font-size="11.00" fill="#000000"> &#160;</text>
</a>
</g>
</g>
<!-- document_template_variable_audit&#45;&gt;audit_revision -->
<g id="edge3" class="edge">
<title>document_template_variable_audit:w&#45;&gt;audit_revision:e</title>
<path fill="none" stroke="#000000" d="M247.1485,-155.2351C196.9627,-176.3825 283.2413,-322.7 210,-322.7"/>
<polygon fill="#000000" stroke="#000000" points="253.622,-154.0916 262.1262,-156.2451 257.561,-153.3958 261.5,-152.7 261.5,-152.7 261.5,-152.7 257.561,-153.3958 260.8738,-149.1549 253.622,-154.0916 253.622,-154.0916"/>
<ellipse fill="none" stroke="#000000" cx="250.4707" cy="-154.6483" rx="3.2" ry="3.2"/>
</g>
</g>
</svg>
