<?xml version="1.0" encoding="UTF-8" standalone="no"?>
<!DOCTYPE svg PUBLIC "-//W3C//DTD SVG 1.1//EN"
 "http://www.w3.org/Graphics/SVG/1.1/DTD/svg11.dtd">
<!-- Generated by graphviz version 2.40.1 (20161225.0304)
 -->
<!-- Title: oneDegreeRelationshipsDiagramImplied Pages: 1 -->
<svg width="568pt" height="665pt"
 viewBox="0.00 0.00 568.00 665.20" xmlns="http://www.w3.org/2000/svg" xmlns:xlink="http://www.w3.org/1999/xlink">
<g id="graph0" class="graph" transform="scale(1 1) rotate(0) translate(4 661.2)">
<title>oneDegreeRelationshipsDiagramImplied</title>
<polygon fill="#ffffff" stroke="transparent" points="-4,4 -4,-661.2 564,-661.2 564,4 -4,4"/>
<text text-anchor="middle" x="72.4936" y="-7.3" font-family="Helvetica,sans-Serif" font-size="11.00" fill="#000000">Generated by SchemaSpy</text>
<!-- document_generation_request_audit -->
<g id="node1" class="node">
<title>document_generation_request_audit</title>
<g id="a_node1"><a xlink:href="../../tables/document_generation_request_audit.html" xlink:title="document_generation_request_audit" target="_top">
<polygon fill="#ffffff" stroke="transparent" points="267,-548.2 267,-653.2 552,-653.2 552,-548.2 267,-548.2"/>
<polygon fill="#f5f5f5" stroke="transparent" points="267.5,-629.7 267.5,-652.7 552.5,-652.7 552.5,-629.7 267.5,-629.7"/>
<polygon fill="none" stroke="#000000" points="267.5,-629.7 267.5,-652.7 552.5,-652.7 552.5,-629.7 267.5,-629.7"/>
<text text-anchor="start" x="272.5" y="-638.3" font-family="Helvetica,sans-Serif" font-weight="bold" font-size="11.00" fill="#000000">document_generation_request_audit</text>
<text text-anchor="start" x="518.0219" y="-637.8" font-family="Helvetica,sans-Serif" font-size="11.00" fill="#000000">[table]</text>
<polygon fill="none" stroke="#000000" points="267.5,-607.7 267.5,-629.7 552.5,-629.7 552.5,-607.7 267.5,-607.7"/>
<image xlink:href="../../images/primaryKeys.png" width="11px" height="12px" preserveAspectRatio="xMinYMin meet" x="272.5" y="-624.7"/>
<text text-anchor="start" x="296.5" y="-614.8" font-family="Helvetica,sans-Serif" font-size="11.00" fill="#000000">rev_id</text>
<polygon fill="none" stroke="#000000" points="267.5,-585.7 267.5,-607.7 552.5,-607.7 552.5,-585.7 267.5,-585.7"/>
<image xlink:href="../../images/primaryKeys.png" width="11px" height="12px" preserveAspectRatio="xMinYMin meet" x="272.5" y="-602.7"/>
<text text-anchor="start" x="296.5" y="-592.8" font-family="Helvetica,sans-Serif" font-size="11.00" fill="#000000">id</text>
<polygon fill="none" stroke="#000000" points="267.5,-566.7 267.5,-585.7 552.5,-585.7 552.5,-566.7 267.5,-566.7"/>
<text text-anchor="start" x="270.5" y="-572.8" font-family="Helvetica,sans-Serif" font-size="11.00" fill="#000000">...</text>
<polygon fill="#ffffff" stroke="transparent" points="267.5,-547.7 267.5,-566.7 408.5,-566.7 408.5,-547.7 267.5,-547.7"/>
<polygon fill="none" stroke="#000000" points="267.5,-547.7 267.5,-566.7 408.5,-566.7 408.5,-547.7 267.5,-547.7"/>
<text text-anchor="start" x="270.5" y="-553.8" font-family="Helvetica,sans-Serif" font-size="11.00" fill="#000000">&lt; 1</text>
<polygon fill="#ffffff" stroke="transparent" points="408.5,-547.7 408.5,-566.7 480.5,-566.7 480.5,-547.7 408.5,-547.7"/>
<polygon fill="none" stroke="#000000" points="408.5,-547.7 408.5,-566.7 480.5,-566.7 480.5,-547.7 408.5,-547.7"/>
<text text-anchor="start" x="471.3862" y="-553.8" font-family="Helvetica,sans-Serif" font-size="11.00" fill="#000000"> &#160;</text>
<polygon fill="#ffffff" stroke="transparent" points="480.5,-547.7 480.5,-566.7 552.5,-566.7 552.5,-547.7 480.5,-547.7"/>
<polygon fill="none" stroke="#000000" points="480.5,-547.7 480.5,-566.7 552.5,-566.7 552.5,-547.7 480.5,-547.7"/>
<text text-anchor="start" x="543.3862" y="-553.8" font-family="Helvetica,sans-Serif" font-size="11.00" fill="#000000"> &#160;</text>
</a>
</g>
</g>
<!-- audit_revision -->
<g id="node2" class="node">
<title>audit_revision</title>
<g id="a_node2"><a xlink:href="../../tables/audit_revision.html" xlink:title="audit_revision" target="_top">
<polygon fill="#ffffff" stroke="transparent" points="8,-309.7 8,-443.7 218,-443.7 218,-309.7 8,-309.7"/>
<polygon fill="#f5f5f5" stroke="transparent" points="10,-418.7 10,-441.7 216,-441.7 216,-418.7 10,-418.7"/>
<polygon fill="none" stroke="#000000" points="10,-418.7 10,-441.7 216,-441.7 216,-418.7 10,-418.7"/>
<text text-anchor="start" x="15" y="-427.3" font-family="Helvetica,sans-Serif" font-weight="bold" font-size="11.00" fill="#000000">audit_revision</text>
<text text-anchor="start" x="181.0437" y="-426.8" font-family="Helvetica,sans-Serif" font-size="11.00" fill="#000000">[table]</text>
<polygon fill="none" stroke="#000000" points="10,-396.7 10,-418.7 126,-418.7 126,-396.7 10,-396.7"/>
<image xlink:href="../../images/primaryKeys.png" width="11px" height="12px" preserveAspectRatio="xMinYMin meet" x="15" y="-413.7"/>
<text text-anchor="start" x="30" y="-403.8" font-family="Helvetica,sans-Serif" font-size="11.00" fill="#000000">id</text>
<polygon fill="none" stroke="#000000" points="126,-396.7 126,-418.7 216,-418.7 216,-396.7 126,-396.7"/>
<text text-anchor="start" x="129" y="-404.4" font-family="Helvetica,sans-Serif" font-size="11.00" fill="#000000">bigserial[19]</text>
<polygon fill="none" stroke="#000000" points="10,-374.7 10,-396.7 126,-396.7 126,-374.7 10,-374.7"/>
<text text-anchor="start" x="30" y="-381.8" font-family="Helvetica,sans-Serif" font-size="11.00" fill="#000000">timestamp</text>
<polygon fill="none" stroke="#000000" points="126,-374.7 126,-396.7 216,-396.7 216,-374.7 126,-374.7"/>
<text text-anchor="start" x="129" y="-382.4" font-family="Helvetica,sans-Serif" font-size="11.00" fill="#000000">timestamp[29,6]</text>
<polygon fill="none" stroke="#000000" points="10,-352.7 10,-374.7 126,-374.7 126,-352.7 10,-352.7"/>
<text text-anchor="start" x="30" y="-359.8" font-family="Helvetica,sans-Serif" font-size="11.00" fill="#000000">username</text>
<polygon fill="none" stroke="#000000" points="126,-352.7 126,-374.7 216,-374.7 216,-352.7 126,-352.7"/>
<text text-anchor="start" x="129" y="-360.4" font-family="Helvetica,sans-Serif" font-size="11.00" fill="#000000">varchar[64]</text>
<polygon fill="none" stroke="#000000" points="10,-330.7 10,-352.7 126,-352.7 126,-330.7 10,-330.7"/>
<text text-anchor="start" x="30" y="-337.8" font-family="Helvetica,sans-Serif" font-size="11.00" fill="#000000">caseload_id</text>
<polygon fill="none" stroke="#000000" points="126,-330.7 126,-352.7 216,-352.7 216,-330.7 126,-330.7"/>
<text text-anchor="start" x="128.5042" y="-338.4" font-family="Helvetica,sans-Serif" font-size="11.00" fill="#000000">text[2147483647]</text>
<polygon fill="#ffffff" stroke="transparent" points="10,-311.7 10,-330.7 72,-330.7 72,-311.7 10,-311.7"/>
<polygon fill="none" stroke="#000000" points="10,-311.7 10,-330.7 72,-330.7 72,-311.7 10,-311.7"/>
<text text-anchor="start" x="13" y="-317.8" font-family="Helvetica,sans-Serif" font-size="11.00" fill="#000000">&lt; 0</text>
<polygon fill="#ffffff" stroke="transparent" points="72,-311.7 72,-330.7 126,-330.7 126,-311.7 72,-311.7"/>
<polygon fill="none" stroke="#000000" points="72,-311.7 72,-330.7 126,-330.7 126,-311.7 72,-311.7"/>
<text text-anchor="start" x="116.8862" y="-317.8" font-family="Helvetica,sans-Serif" font-size="11.00" fill="#000000"> &#160;</text>
<polygon fill="#ffffff" stroke="transparent" points="126,-311.7 126,-330.7 216,-330.7 216,-311.7 126,-311.7"/>
<polygon fill="none" stroke="#000000" points="126,-311.7 126,-330.7 216,-330.7 216,-311.7 126,-311.7"/>
<text text-anchor="start" x="197.4053" y="-317.8" font-family="Helvetica,sans-Serif" font-size="11.00" fill="#000000">4 &gt;</text>
<polygon fill="none" stroke="#000000" stroke-width="2" points="9,-310.7 9,-442.7 217,-442.7 217,-310.7 9,-310.7"/>
</a>
</g>
</g>
<!-- document_generation_request_audit&#45;&gt;audit_revision -->
<g id="edge1" class="edge">
<title>document_generation_request_audit:w&#45;&gt;audit_revision:e</title>
<path fill="none" stroke="#000000" d="M252.8882,-616.6117C186.7411,-594.6978 306.8746,-407.7 216,-407.7"/>
<polygon fill="#000000" stroke="#000000" points="259.5805,-617.5681 266.9906,-622.2638 263.5402,-618.134 267.5,-618.7 267.5,-618.7 267.5,-618.7 263.5402,-618.134 268.0094,-615.1362 259.5805,-617.5681 259.5805,-617.5681"/>
<ellipse fill="none" stroke="#000000" cx="256.4127" cy="-617.1153" rx="3.2" ry="3.2"/>
</g>
<!-- document_template_audit -->
<g id="node3" class="node">
<title>document_template_audit</title>
<g id="a_node3"><a xlink:href="../../tables/document_template_audit.html" xlink:title="document_template_audit" target="_top">
<polygon fill="#ffffff" stroke="transparent" points="302.5,-378.2 302.5,-527.2 516.5,-527.2 516.5,-378.2 302.5,-378.2"/>
<polygon fill="#f5f5f5" stroke="transparent" points="302.5,-503.7 302.5,-526.7 516.5,-526.7 516.5,-503.7 302.5,-503.7"/>
<polygon fill="none" stroke="#000000" points="302.5,-503.7 302.5,-526.7 516.5,-526.7 516.5,-503.7 302.5,-503.7"/>
<text text-anchor="start" x="307.5" y="-512.3" font-family="Helvetica,sans-Serif" font-weight="bold" font-size="11.00" fill="#000000">document_template_audit</text>
<text text-anchor="start" x="482.0219" y="-511.8" font-family="Helvetica,sans-Serif" font-size="11.00" fill="#000000">[table]</text>
<polygon fill="none" stroke="#000000" points="302.5,-481.7 302.5,-503.7 516.5,-503.7 516.5,-481.7 302.5,-481.7"/>
<image xlink:href="../../images/primaryKeys.png" width="11px" height="12px" preserveAspectRatio="xMinYMin meet" x="307.5" y="-498.7"/>
<text text-anchor="start" x="331.5" y="-488.8" font-family="Helvetica,sans-Serif" font-size="11.00" fill="#000000">rev_id</text>
<polygon fill="none" stroke="#000000" points="302.5,-459.7 302.5,-481.7 516.5,-481.7 516.5,-459.7 302.5,-459.7"/>
<image xlink:href="../../images/primaryKeys.png" width="11px" height="12px" preserveAspectRatio="xMinYMin meet" x="307.5" y="-476.7"/>
<text text-anchor="start" x="331.5" y="-466.8" font-family="Helvetica,sans-Serif" font-size="11.00" fill="#000000">id</text>
<polygon fill="none" stroke="#000000" points="302.5,-437.7 302.5,-459.7 516.5,-459.7 516.5,-437.7 302.5,-437.7"/>
<image xlink:href="../../images/foreignKeys.png" width="11px" height="12px" preserveAspectRatio="xMinYMin meet" x="307.5" y="-454.7"/>
<text text-anchor="start" x="331.5" y="-444.8" font-family="Helvetica,sans-Serif" font-size="11.00" fill="#000000">code</text>
<polygon fill="#ffffff" stroke="transparent" points="302.5,-415.7 302.5,-437.7 516.5,-437.7 516.5,-415.7 302.5,-415.7"/>
<polygon fill="none" stroke="#000000" points="302.5,-415.7 302.5,-437.7 516.5,-437.7 516.5,-415.7 302.5,-415.7"/>
<text text-anchor="start" x="331.5" y="-422.8" font-family="Helvetica,sans-Serif" font-size="11.00" fill="#000000">external_reference</text>
<polygon fill="none" stroke="#000000" points="302.5,-396.7 302.5,-415.7 516.5,-415.7 516.5,-396.7 302.5,-396.7"/>
<text text-anchor="start" x="305.5" y="-402.8" font-family="Helvetica,sans-Serif" font-size="11.00" fill="#000000">...</text>
<polygon fill="#ffffff" stroke="transparent" points="302.5,-377.7 302.5,-396.7 407.5,-396.7 407.5,-377.7 302.5,-377.7"/>
<polygon fill="none" stroke="#000000" points="302.5,-377.7 302.5,-396.7 407.5,-396.7 407.5,-377.7 302.5,-377.7"/>
<text text-anchor="start" x="305.5" y="-383.8" font-family="Helvetica,sans-Serif" font-size="11.00" fill="#000000">&lt; 1</text>
<polygon fill="#ffffff" stroke="transparent" points="407.5,-377.7 407.5,-396.7 461.5,-396.7 461.5,-377.7 407.5,-377.7"/>
<polygon fill="none" stroke="#000000" points="407.5,-377.7 407.5,-396.7 461.5,-396.7 461.5,-377.7 407.5,-377.7"/>
<text text-anchor="start" x="452.3862" y="-383.8" font-family="Helvetica,sans-Serif" font-size="11.00" fill="#000000"> &#160;</text>
<polygon fill="#ffffff" stroke="transparent" points="461.5,-377.7 461.5,-396.7 516.5,-396.7 516.5,-377.7 461.5,-377.7"/>
<polygon fill="none" stroke="#000000" points="461.5,-377.7 461.5,-396.7 516.5,-396.7 516.5,-377.7 461.5,-377.7"/>
<text text-anchor="start" x="507.3862" y="-383.8" font-family="Helvetica,sans-Serif" font-size="11.00" fill="#000000"> &#160;</text>
</a>
</g>
</g>
<!-- document_template_audit&#45;&gt;audit_revision -->
<g id="edge2" class="edge">
<title>document_template_audit:w&#45;&gt;audit_revision:e</title>
<path fill="none" stroke="#000000" d="M288.247,-490.2478C252.1513,-476.3111 264.4252,-407.7 216,-407.7"/>
<polygon fill="#000000" stroke="#000000" points="294.6158,-491.3435 301.8896,-496.2479 298.5579,-492.0217 302.5,-492.7 302.5,-492.7 302.5,-492.7 298.5579,-492.0217 303.1104,-489.1521 294.6158,-491.3435 294.6158,-491.3435"/>
<ellipse fill="none" stroke="#000000" cx="291.4622" cy="-490.8009" rx="3.2" ry="3.2"/>
</g>
<!-- document_template_group_audit -->
<g id="node4" class="node">
<title>document_template_group_audit</title>
<g id="a_node4"><a xlink:href="../../tables/document_template_group_audit.html" xlink:title="document_template_group_audit" target="_top">
<polygon fill="#ffffff" stroke="transparent" points="279.5,-208.2 279.5,-357.2 539.5,-357.2 539.5,-208.2 279.5,-208.2"/>
<polygon fill="#f5f5f5" stroke="transparent" points="279.5,-333.7 279.5,-356.7 539.5,-356.7 539.5,-333.7 279.5,-333.7"/>
<polygon fill="none" stroke="#000000" points="279.5,-333.7 279.5,-356.7 539.5,-356.7 539.5,-333.7 279.5,-333.7"/>
<text text-anchor="start" x="284.5" y="-342.3" font-family="Helvetica,sans-Serif" font-weight="bold" font-size="11.00" fill="#000000">document_template_group_audit</text>
<text text-anchor="start" x="505.0219" y="-341.8" font-family="Helvetica,sans-Serif" font-size="11.00" fill="#000000">[table]</text>
<polygon fill="none" stroke="#000000" points="279.5,-311.7 279.5,-333.7 539.5,-333.7 539.5,-311.7 279.5,-311.7"/>
<image xlink:href="../../images/primaryKeys.png" width="11px" height="12px" preserveAspectRatio="xMinYMin meet" x="284.5" y="-328.7"/>
<text text-anchor="start" x="308.5" y="-318.8" font-family="Helvetica,sans-Serif" font-size="11.00" fill="#000000">rev_id</text>
<polygon fill="none" stroke="#000000" points="279.5,-289.7 279.5,-311.7 539.5,-311.7 539.5,-289.7 279.5,-289.7"/>
<image xlink:href="../../images/primaryKeys.png" width="11px" height="12px" preserveAspectRatio="xMinYMin meet" x="284.5" y="-306.7"/>
<text text-anchor="start" x="308.5" y="-296.8" font-family="Helvetica,sans-Serif" font-size="11.00" fill="#000000">id</text>
<polygon fill="#ffffff" stroke="transparent" points="279.5,-267.7 279.5,-289.7 539.5,-289.7 539.5,-267.7 279.5,-267.7"/>
<polygon fill="none" stroke="#000000" points="279.5,-267.7 279.5,-289.7 539.5,-289.7 539.5,-267.7 279.5,-267.7"/>
<text text-anchor="start" x="308.5" y="-274.8" font-family="Helvetica,sans-Serif" font-size="11.00" fill="#000000">template_id</text>
<polygon fill="#ffffff" stroke="transparent" points="279.5,-245.7 279.5,-267.7 539.5,-267.7 539.5,-245.7 279.5,-245.7"/>
<polygon fill="none" stroke="#000000" points="279.5,-245.7 279.5,-267.7 539.5,-267.7 539.5,-245.7 279.5,-245.7"/>
<text text-anchor="start" x="308.5" y="-252.8" font-family="Helvetica,sans-Serif" font-size="11.00" fill="#000000">template_group_id</text>
<polygon fill="none" stroke="#000000" points="279.5,-226.7 279.5,-245.7 539.5,-245.7 539.5,-226.7 279.5,-226.7"/>
<text text-anchor="start" x="282.5" y="-232.8" font-family="Helvetica,sans-Serif" font-size="11.00" fill="#000000">...</text>
<polygon fill="#ffffff" stroke="transparent" points="279.5,-207.7 279.5,-226.7 407.5,-226.7 407.5,-207.7 279.5,-207.7"/>
<polygon fill="none" stroke="#000000" points="279.5,-207.7 279.5,-226.7 407.5,-226.7 407.5,-207.7 279.5,-207.7"/>
<text text-anchor="start" x="282.5" y="-213.8" font-family="Helvetica,sans-Serif" font-size="11.00" fill="#000000">&lt; 1</text>
<polygon fill="#ffffff" stroke="transparent" points="407.5,-207.7 407.5,-226.7 473.5,-226.7 473.5,-207.7 407.5,-207.7"/>
<polygon fill="none" stroke="#000000" points="407.5,-207.7 407.5,-226.7 473.5,-226.7 473.5,-207.7 407.5,-207.7"/>
<text text-anchor="start" x="464.3862" y="-213.8" font-family="Helvetica,sans-Serif" font-size="11.00" fill="#000000"> &#160;</text>
<polygon fill="#ffffff" stroke="transparent" points="473.5,-207.7 473.5,-226.7 539.5,-226.7 539.5,-207.7 473.5,-207.7"/>
<polygon fill="none" stroke="#000000" points="473.5,-207.7 473.5,-226.7 539.5,-226.7 539.5,-207.7 473.5,-207.7"/>
<text text-anchor="start" x="530.3862" y="-213.8" font-family="Helvetica,sans-Serif" font-size="11.00" fill="#000000"> &#160;</text>
</a>
</g>
</g>
<!-- document_template_group_audit&#45;&gt;audit_revision -->
<g id="edge3" class="edge">
<title>document_template_group_audit:w&#45;&gt;audit_revision:e</title>
<path fill="none" stroke="#000000" d="M265.1668,-326.3523C238.8289,-342.6219 257.2612,-407.7 216,-407.7"/>
<polygon fill="#000000" stroke="#000000" points="271.7477,-324.6754 280.389,-326.1885 275.6239,-323.6877 279.5,-322.7 279.5,-322.7 279.5,-322.7 275.6239,-323.6877 278.611,-319.2115 271.7477,-324.6754 271.7477,-324.6754"/>
<ellipse fill="none" stroke="#000000" cx="268.6468" cy="-325.4656" rx="3.2" ry="3.2"/>
</g>
<!-- document_template_variable_audit -->
<g id="node5" class="node">
<title>document_template_variable_audit</title>
<g id="a_node5"><a xlink:href="../../tables/document_template_variable_audit.html" xlink:title="document_template_variable_audit" target="_top">
<polygon fill="#ffffff" stroke="transparent" points="272,-38.2 272,-187.2 547,-187.2 547,-38.2 272,-38.2"/>
<polygon fill="#f5f5f5" stroke="transparent" points="272.5,-163.7 272.5,-186.7 547.5,-186.7 547.5,-163.7 272.5,-163.7"/>
<polygon fill="none" stroke="#000000" points="272.5,-163.7 272.5,-186.7 547.5,-186.7 547.5,-163.7 272.5,-163.7"/>
<text text-anchor="start" x="277.5" y="-172.3" font-family="Helvetica,sans-Serif" font-weight="bold" font-size="11.00" fill="#000000">document_template_variable_audit</text>
<text text-anchor="start" x="513.0219" y="-171.8" font-family="Helvetica,sans-Serif" font-size="11.00" fill="#000000">[table]</text>
<polygon fill="none" stroke="#000000" points="272.5,-141.7 272.5,-163.7 547.5,-163.7 547.5,-141.7 272.5,-141.7"/>
<image xlink:href="../../images/primaryKeys.png" width="11px" height="12px" preserveAspectRatio="xMinYMin meet" x="277.5" y="-158.7"/>
<text text-anchor="start" x="301.5" y="-148.8" font-family="Helvetica,sans-Serif" font-size="11.00" fill="#000000">rev_id</text>
<polygon fill="none" stroke="#000000" points="272.5,-119.7 272.5,-141.7 547.5,-141.7 547.5,-119.7 272.5,-119.7"/>
<image xlink:href="../../images/primaryKeys.png" width="11px" height="12px" preserveAspectRatio="xMinYMin meet" x="277.5" y="-136.7"/>
<text text-anchor="start" x="301.5" y="-126.8" font-family="Helvetica,sans-Serif" font-size="11.00" fill="#000000">id</text>
<polygon fill="#ffffff" stroke="transparent" points="272.5,-97.7 272.5,-119.7 547.5,-119.7 547.5,-97.7 272.5,-97.7"/>
<polygon fill="none" stroke="#000000" points="272.5,-97.7 272.5,-119.7 547.5,-119.7 547.5,-97.7 272.5,-97.7"/>
<text text-anchor="start" x="301.5" y="-104.8" font-family="Helvetica,sans-Serif" font-size="11.00" fill="#000000">template_id</text>
<polygon fill="#ffffff" stroke="transparent" points="272.5,-75.7 272.5,-97.7 547.5,-97.7 547.5,-75.7 272.5,-75.7"/>
<polygon fill="none" stroke="#000000" points="272.5,-75.7 272.5,-97.7 547.5,-97.7 547.5,-75.7 272.5,-75.7"/>
<text text-anchor="start" x="301.5" y="-82.8" font-family="Helvetica,sans-Serif" font-size="11.00" fill="#000000">variable_id</text>
<polygon fill="none" stroke="#000000" points="272.5,-56.7 272.5,-75.7 547.5,-75.7 547.5,-56.7 272.5,-56.7"/>
<text text-anchor="start" x="275.5" y="-62.8" font-family="Helvetica,sans-Serif" font-size="11.00" fill="#000000">...</text>
<polygon fill="#ffffff" stroke="transparent" points="272.5,-37.7 272.5,-56.7 408.5,-56.7 408.5,-37.7 272.5,-37.7"/>
<polygon fill="none" stroke="#000000" points="272.5,-37.7 272.5,-56.7 408.5,-56.7 408.5,-37.7 272.5,-37.7"/>
<text text-anchor="start" x="275.5" y="-43.8" font-family="Helvetica,sans-Serif" font-size="11.00" fill="#000000">&lt; 1</text>
<polygon fill="#ffffff" stroke="transparent" points="408.5,-37.7 408.5,-56.7 477.5,-56.7 477.5,-37.7 408.5,-37.7"/>
<polygon fill="none" stroke="#000000" points="408.5,-37.7 408.5,-56.7 477.5,-56.7 477.5,-37.7 408.5,-37.7"/>
<text text-anchor="start" x="468.3862" y="-43.8" font-family="Helvetica,sans-Serif" font-size="11.00" fill="#000000"> &#160;</text>
<polygon fill="#ffffff" stroke="transparent" points="477.5,-37.7 477.5,-56.7 547.5,-56.7 547.5,-37.7 477.5,-37.7"/>
<polygon fill="none" stroke="#000000" points="477.5,-37.7 477.5,-56.7 547.5,-56.7 547.5,-37.7 477.5,-37.7"/>
<text text-anchor="start" x="538.3862" y="-43.8" font-family="Helvetica,sans-Serif" font-size="11.00" fill="#000000"> &#160;</text>
</a>
</g>
</g>
<!-- document_template_variable_audit&#45;&gt;audit_revision -->
<g id="edge4" class="edge">
<title>document_template_variable_audit:w&#45;&gt;audit_revision:e</title>
<path fill="none" stroke="#000000" d="M258.039,-154.3284C172.2455,-176.0459 326.6406,-407.7 216,-407.7"/>
<polygon fill="#000000" stroke="#000000" points="264.5502,-153.5952 272.9029,-156.2774 268.5251,-153.1476 272.5,-152.7 272.5,-152.7 272.5,-152.7 268.5251,-153.1476 272.0971,-149.1226 264.5502,-153.5952 264.5502,-153.5952"/>
<ellipse fill="none" stroke="#000000" cx="261.3703" cy="-153.9533" rx="3.2" ry="3.2"/>
</g>
</g>
</svg>
