<?xml version="1.0" encoding="UTF-8" standalone="no"?>
<!DOCTYPE svg PUBLIC "-//W3C//DTD SVG 1.1//EN"
 "http://www.w3.org/Graphics/SVG/1.1/DTD/svg11.dtd">
<!-- Generated by graphviz version 2.40.1 (20161225.0304)
 -->
<!-- Title: twoDegreesRelationshipsDiagramImplied Pages: 1 -->
<svg width="575pt" height="665pt"
 viewBox="0.00 0.00 575.00 665.20" xmlns="http://www.w3.org/2000/svg" xmlns:xlink="http://www.w3.org/1999/xlink">
<g id="graph0" class="graph" transform="scale(1 1) rotate(0) translate(4 661.2)">
<title>twoDegreesRelationshipsDiagramImplied</title>
<polygon fill="#ffffff" stroke="transparent" points="-4,4 -4,-661.2 571,-661.2 571,4 -4,4"/>
<text text-anchor="middle" x="72.4936" y="-7.3" font-family="Helvetica,sans-Serif" font-size="11.00" fill="#000000">Generated by SchemaSpy</text>
<!-- document_generation_request_audit -->
<g id="node1" class="node">
<title>document_generation_request_audit</title>
<g id="a_node1"><a xlink:href="../../tables/document_generation_request_audit.html" xlink:title="document_generation_request_audit" target="_top">
<polygon fill="#ffffff" stroke="transparent" points="274,-548.2 274,-653.2 559,-653.2 559,-548.2 274,-548.2"/>
<polygon fill="#f5f5f5" stroke="transparent" points="274.5,-629.7 274.5,-652.7 559.5,-652.7 559.5,-629.7 274.5,-629.7"/>
<polygon fill="none" stroke="#000000" points="274.5,-629.7 274.5,-652.7 559.5,-652.7 559.5,-629.7 274.5,-629.7"/>
<text text-anchor="start" x="279.5" y="-638.3" font-family="Helvetica,sans-Serif" font-weight="bold" font-size="11.00" fill="#000000">document_generation_request_audit</text>
<text text-anchor="start" x="525.0219" y="-637.8" font-family="Helvetica,sans-Serif" font-size="11.00" fill="#000000">[table]</text>
<polygon fill="none" stroke="#000000" points="274.5,-607.7 274.5,-629.7 559.5,-629.7 559.5,-607.7 274.5,-607.7"/>
<image xlink:href="../../images/primaryKeys.png" width="11px" height="12px" preserveAspectRatio="xMinYMin meet" x="279.5" y="-624.7"/>
<text text-anchor="start" x="303.5" y="-614.8" font-family="Helvetica,sans-Serif" font-size="11.00" fill="#000000">rev_id</text>
<polygon fill="none" stroke="#000000" points="274.5,-585.7 274.5,-607.7 559.5,-607.7 559.5,-585.7 274.5,-585.7"/>
<image xlink:href="../../images/primaryKeys.png" width="11px" height="12px" preserveAspectRatio="xMinYMin meet" x="279.5" y="-602.7"/>
<text text-anchor="start" x="303.5" y="-592.8" font-family="Helvetica,sans-Serif" font-size="11.00" fill="#000000">id</text>
<polygon fill="none" stroke="#000000" points="274.5,-566.7 274.5,-585.7 559.5,-585.7 559.5,-566.7 274.5,-566.7"/>
<text text-anchor="start" x="277.5" y="-572.8" font-family="Helvetica,sans-Serif" font-size="11.00" fill="#000000">...</text>
<polygon fill="#ffffff" stroke="transparent" points="274.5,-547.7 274.5,-566.7 415.5,-566.7 415.5,-547.7 274.5,-547.7"/>
<polygon fill="none" stroke="#000000" points="274.5,-547.7 274.5,-566.7 415.5,-566.7 415.5,-547.7 274.5,-547.7"/>
<text text-anchor="start" x="277.5" y="-553.8" font-family="Helvetica,sans-Serif" font-size="11.00" fill="#000000">&lt; 1</text>
<polygon fill="#ffffff" stroke="transparent" points="415.5,-547.7 415.5,-566.7 487.5,-566.7 487.5,-547.7 415.5,-547.7"/>
<polygon fill="none" stroke="#000000" points="415.5,-547.7 415.5,-566.7 487.5,-566.7 487.5,-547.7 415.5,-547.7"/>
<text text-anchor="start" x="478.3862" y="-553.8" font-family="Helvetica,sans-Serif" font-size="11.00" fill="#000000"> &#160;</text>
<polygon fill="#ffffff" stroke="transparent" points="487.5,-547.7 487.5,-566.7 559.5,-566.7 559.5,-547.7 487.5,-547.7"/>
<polygon fill="none" stroke="#000000" points="487.5,-547.7 487.5,-566.7 559.5,-566.7 559.5,-547.7 487.5,-547.7"/>
<text text-anchor="start" x="550.3862" y="-553.8" font-family="Helvetica,sans-Serif" font-size="11.00" fill="#000000"> &#160;</text>
</a>
</g>
</g>
<!-- audit_revision -->
<g id="node2" class="node">
<title>audit_revision</title>
<g id="a_node2"><a xlink:href="../../tables/audit_revision.html" xlink:title="audit_revision" target="_top">
<polygon fill="#ffffff" stroke="transparent" points="14.5,-331.7 14.5,-443.7 218.5,-443.7 218.5,-331.7 14.5,-331.7"/>
<polygon fill="#f5f5f5" stroke="transparent" points="16.5,-418.7 16.5,-441.7 216.5,-441.7 216.5,-418.7 16.5,-418.7"/>
<polygon fill="none" stroke="#000000" points="16.5,-418.7 16.5,-441.7 216.5,-441.7 216.5,-418.7 16.5,-418.7"/>
<text text-anchor="start" x="21.5" y="-427.3" font-family="Helvetica,sans-Serif" font-weight="bold" font-size="11.00" fill="#000000">audit_revision</text>
<text text-anchor="start" x="181.5437" y="-426.8" font-family="Helvetica,sans-Serif" font-size="11.00" fill="#000000">[table]</text>
<polygon fill="none" stroke="#000000" points="16.5,-396.7 16.5,-418.7 132.5,-418.7 132.5,-396.7 16.5,-396.7"/>
<image xlink:href="../../images/primaryKeys.png" width="11px" height="12px" preserveAspectRatio="xMinYMin meet" x="21.5" y="-413.7"/>
<text text-anchor="start" x="36.5" y="-403.8" font-family="Helvetica,sans-Serif" font-size="11.00" fill="#000000">id</text>
<polygon fill="none" stroke="#000000" points="132.5,-396.7 132.5,-418.7 216.5,-418.7 216.5,-396.7 132.5,-396.7"/>
<text text-anchor="start" x="135.5" y="-404.4" font-family="Helvetica,sans-Serif" font-size="11.00" fill="#000000">bigserial[19]</text>
<polygon fill="none" stroke="#000000" points="16.5,-374.7 16.5,-396.7 132.5,-396.7 132.5,-374.7 16.5,-374.7"/>
<text text-anchor="start" x="36.5" y="-381.8" font-family="Helvetica,sans-Serif" font-size="11.00" fill="#000000">timestamp</text>
<polygon fill="none" stroke="#000000" points="132.5,-374.7 132.5,-396.7 216.5,-396.7 216.5,-374.7 132.5,-374.7"/>
<text text-anchor="start" x="135.3807" y="-382.4" font-family="Helvetica,sans-Serif" font-size="11.00" fill="#000000">timestamp[29,6]</text>
<polygon fill="none" stroke="#000000" points="16.5,-352.7 16.5,-374.7 132.5,-374.7 132.5,-352.7 16.5,-352.7"/>
<text text-anchor="start" x="36.5" y="-359.8" font-family="Helvetica,sans-Serif" font-size="11.00" fill="#000000">username</text>
<polygon fill="none" stroke="#000000" points="132.5,-352.7 132.5,-374.7 216.5,-374.7 216.5,-352.7 132.5,-352.7"/>
<text text-anchor="start" x="135.5" y="-360.4" font-family="Helvetica,sans-Serif" font-size="11.00" fill="#000000">varchar[64]</text>
<polygon fill="#ffffff" stroke="transparent" points="16.5,-333.7 16.5,-352.7 78.5,-352.7 78.5,-333.7 16.5,-333.7"/>
<polygon fill="none" stroke="#000000" points="16.5,-333.7 16.5,-352.7 78.5,-352.7 78.5,-333.7 16.5,-333.7"/>
<text text-anchor="start" x="19.5" y="-339.8" font-family="Helvetica,sans-Serif" font-size="11.00" fill="#000000">&lt; 0</text>
<polygon fill="#ffffff" stroke="transparent" points="78.5,-333.7 78.5,-352.7 132.5,-352.7 132.5,-333.7 78.5,-333.7"/>
<polygon fill="none" stroke="#000000" points="78.5,-333.7 78.5,-352.7 132.5,-352.7 132.5,-333.7 78.5,-333.7"/>
<text text-anchor="start" x="123.3862" y="-339.8" font-family="Helvetica,sans-Serif" font-size="11.00" fill="#000000"> &#160;</text>
<polygon fill="#ffffff" stroke="transparent" points="132.5,-333.7 132.5,-352.7 216.5,-352.7 216.5,-333.7 132.5,-333.7"/>
<polygon fill="none" stroke="#000000" points="132.5,-333.7 132.5,-352.7 216.5,-352.7 216.5,-333.7 132.5,-333.7"/>
<text text-anchor="start" x="197.9053" y="-339.8" font-family="Helvetica,sans-Serif" font-size="11.00" fill="#000000">4 &gt;</text>
<polygon fill="none" stroke="#000000" stroke-width="2" points="15.5,-332.7 15.5,-442.7 217.5,-442.7 217.5,-332.7 15.5,-332.7"/>
</a>
</g>
</g>
<!-- document_generation_request_audit&#45;&gt;audit_revision -->
<g id="edge1" class="edge">
<title>document_generation_request_audit:w&#45;&gt;audit_revision:e</title>
<path fill="none" stroke="#000000" d="M260.139,-616.7459C191.9581,-595.4746 308.2475,-407.7 216.5,-407.7"/>
<polygon fill="#000000" stroke="#000000" points="266.573,-617.6213 274.0146,-622.2671 270.5365,-618.1607 274.5,-618.7 274.5,-618.7 274.5,-618.7 270.5365,-618.1607 274.9854,-615.1329 266.573,-617.6213 266.573,-617.6213"/>
<ellipse fill="none" stroke="#000000" cx="263.4023" cy="-617.1899" rx="3.2" ry="3.2"/>
</g>
<!-- document_template_audit -->
<g id="node3" class="node">
<title>document_template_audit</title>
<g id="a_node3"><a xlink:href="../../tables/document_template_audit.html" xlink:title="document_template_audit" target="_top">
<polygon fill="#ffffff" stroke="transparent" points="309.5,-38.2 309.5,-187.2 523.5,-187.2 523.5,-38.2 309.5,-38.2"/>
<polygon fill="#f5f5f5" stroke="transparent" points="309.5,-163.7 309.5,-186.7 523.5,-186.7 523.5,-163.7 309.5,-163.7"/>
<polygon fill="none" stroke="#000000" points="309.5,-163.7 309.5,-186.7 523.5,-186.7 523.5,-163.7 309.5,-163.7"/>
<text text-anchor="start" x="314.5" y="-172.3" font-family="Helvetica,sans-Serif" font-weight="bold" font-size="11.00" fill="#000000">document_template_audit</text>
<text text-anchor="start" x="489.0219" y="-171.8" font-family="Helvetica,sans-Serif" font-size="11.00" fill="#000000">[table]</text>
<polygon fill="none" stroke="#000000" points="309.5,-141.7 309.5,-163.7 523.5,-163.7 523.5,-141.7 309.5,-141.7"/>
<image xlink:href="../../images/primaryKeys.png" width="11px" height="12px" preserveAspectRatio="xMinYMin meet" x="314.5" y="-158.7"/>
<text text-anchor="start" x="338.5" y="-148.8" font-family="Helvetica,sans-Serif" font-size="11.00" fill="#000000">rev_id</text>
<polygon fill="none" stroke="#000000" points="309.5,-119.7 309.5,-141.7 523.5,-141.7 523.5,-119.7 309.5,-119.7"/>
<image xlink:href="../../images/primaryKeys.png" width="11px" height="12px" preserveAspectRatio="xMinYMin meet" x="314.5" y="-136.7"/>
<text text-anchor="start" x="338.5" y="-126.8" font-family="Helvetica,sans-Serif" font-size="11.00" fill="#000000">id</text>
<polygon fill="none" stroke="#000000" points="309.5,-97.7 309.5,-119.7 523.5,-119.7 523.5,-97.7 309.5,-97.7"/>
<image xlink:href="../../images/foreignKeys.png" width="11px" height="12px" preserveAspectRatio="xMinYMin meet" x="314.5" y="-114.7"/>
<text text-anchor="start" x="338.5" y="-104.8" font-family="Helvetica,sans-Serif" font-size="11.00" fill="#000000">code</text>
<polygon fill="#ffffff" stroke="transparent" points="309.5,-75.7 309.5,-97.7 523.5,-97.7 523.5,-75.7 309.5,-75.7"/>
<polygon fill="none" stroke="#000000" points="309.5,-75.7 309.5,-97.7 523.5,-97.7 523.5,-75.7 309.5,-75.7"/>
<text text-anchor="start" x="338.5" y="-82.8" font-family="Helvetica,sans-Serif" font-size="11.00" fill="#000000">external_reference</text>
<polygon fill="none" stroke="#000000" points="309.5,-56.7 309.5,-75.7 523.5,-75.7 523.5,-56.7 309.5,-56.7"/>
<text text-anchor="start" x="312.5" y="-62.8" font-family="Helvetica,sans-Serif" font-size="11.00" fill="#000000">...</text>
<polygon fill="#ffffff" stroke="transparent" points="309.5,-37.7 309.5,-56.7 414.5,-56.7 414.5,-37.7 309.5,-37.7"/>
<polygon fill="none" stroke="#000000" points="309.5,-37.7 309.5,-56.7 414.5,-56.7 414.5,-37.7 309.5,-37.7"/>
<text text-anchor="start" x="312.5" y="-43.8" font-family="Helvetica,sans-Serif" font-size="11.00" fill="#000000">&lt; 2</text>
<polygon fill="#ffffff" stroke="transparent" points="414.5,-37.7 414.5,-56.7 468.5,-56.7 468.5,-37.7 414.5,-37.7"/>
<polygon fill="none" stroke="#000000" points="414.5,-37.7 414.5,-56.7 468.5,-56.7 468.5,-37.7 414.5,-37.7"/>
<text text-anchor="start" x="459.3862" y="-43.8" font-family="Helvetica,sans-Serif" font-size="11.00" fill="#000000"> &#160;</text>
<polygon fill="#ffffff" stroke="transparent" points="468.5,-37.7 468.5,-56.7 523.5,-56.7 523.5,-37.7 468.5,-37.7"/>
<polygon fill="none" stroke="#000000" points="468.5,-37.7 468.5,-56.7 523.5,-56.7 523.5,-37.7 468.5,-37.7"/>
<text text-anchor="start" x="514.3862" y="-43.8" font-family="Helvetica,sans-Serif" font-size="11.00" fill="#000000"> &#160;</text>
</a>
</g>
</g>
<!-- document_template_audit&#45;&gt;audit_revision -->
<g id="edge3" class="edge">
<title>document_template_audit:w&#45;&gt;audit_revision:e</title>
<path fill="none" stroke="#000000" d="M294.9547,-155.2908C280.2038,-161.5557 276.5224,-178.4374 266,-197.7 220.0299,-281.8538 312.3911,-407.7 216.5,-407.7"/>
<polygon fill="#000000" stroke="#000000" points="301.624,-154.1029 310.1313,-156.2442 305.562,-153.4015 309.5,-152.7 309.5,-152.7 309.5,-152.7 305.562,-153.4015 308.8687,-149.1558 301.624,-154.1029 301.624,-154.1029"/>
<ellipse fill="none" stroke="#000000" cx="298.4736" cy="-154.6641" rx="3.2" ry="3.2"/>
</g>
<!-- template_variable_domain -->
<g id="node4" class="node">
<title>template_variable_domain</title>
<g id="a_node4"><a xlink:href="../../tables/template_variable_domain.html" xlink:title="template_variable_domain" target="_top">
<polygon fill="#ffffff" stroke="transparent" points="8,-81.2 8,-142.2 225,-142.2 225,-81.2 8,-81.2"/>
<polygon fill="#f5f5f5" stroke="transparent" points="8.5,-118.7 8.5,-141.7 225.5,-141.7 225.5,-118.7 8.5,-118.7"/>
<polygon fill="none" stroke="#000000" points="8.5,-118.7 8.5,-141.7 225.5,-141.7 225.5,-118.7 8.5,-118.7"/>
<text text-anchor="start" x="13.5" y="-127.3" font-family="Helvetica,sans-Serif" font-weight="bold" font-size="11.00" fill="#000000">template_variable_domain</text>
<text text-anchor="start" x="191.0219" y="-126.8" font-family="Helvetica,sans-Serif" font-size="11.00" fill="#000000">[table]</text>
<polygon fill="none" stroke="#000000" points="8.5,-99.7 8.5,-118.7 225.5,-118.7 225.5,-99.7 8.5,-99.7"/>
<text text-anchor="start" x="11.5" y="-105.8" font-family="Helvetica,sans-Serif" font-size="11.00" fill="#000000">...</text>
<polygon fill="#ffffff" stroke="transparent" points="8.5,-80.7 8.5,-99.7 106.5,-99.7 106.5,-80.7 8.5,-80.7"/>
<polygon fill="none" stroke="#000000" points="8.5,-80.7 8.5,-99.7 106.5,-99.7 106.5,-80.7 8.5,-80.7"/>
<text text-anchor="start" x="11.5" y="-86.8" font-family="Helvetica,sans-Serif" font-size="11.00" fill="#000000"> &#160;</text>
<polygon fill="#ffffff" stroke="transparent" points="106.5,-80.7 106.5,-99.7 161.5,-99.7 161.5,-80.7 106.5,-80.7"/>
<polygon fill="none" stroke="#000000" points="106.5,-80.7 106.5,-99.7 161.5,-99.7 161.5,-80.7 106.5,-80.7"/>
<text text-anchor="start" x="152.3862" y="-86.8" font-family="Helvetica,sans-Serif" font-size="11.00" fill="#000000"> &#160;</text>
<polygon fill="#ffffff" stroke="transparent" points="161.5,-80.7 161.5,-99.7 225.5,-99.7 225.5,-80.7 161.5,-80.7"/>
<polygon fill="none" stroke="#000000" points="161.5,-80.7 161.5,-99.7 225.5,-99.7 225.5,-80.7 161.5,-80.7"/>
<text text-anchor="start" x="206.9053" y="-86.8" font-family="Helvetica,sans-Serif" font-size="11.00" fill="#000000">5 &gt;</text>
</a>
</g>
</g>
<!-- document_template_audit&#45;&gt;template_variable_domain -->
<g id="edge2" class="edge">
<title>document_template_audit:w&#45;&gt;template_variable_domain:e</title>
<path fill="none" stroke="#000000" stroke-dasharray="5,2" d="M294.8981,-108.7C268.8839,-108.7 257.4375,-108.7 225.5,-108.7"/>
<polygon fill="#000000" stroke="#000000" points="301.5,-108.7001 309.5,-112.3 305.5,-108.7 309.5,-108.7 309.5,-108.7 309.5,-108.7 305.5,-108.7 309.5,-105.1 301.5,-108.7001 301.5,-108.7001"/>
<ellipse fill="none" stroke="#000000" cx="298.3" cy="-108.7001" rx="3.2" ry="3.2"/>
</g>
<!-- document_template_group_audit -->
<g id="node5" class="node">
<title>document_template_group_audit</title>
<g id="a_node5"><a xlink:href="../../tables/document_template_group_audit.html" xlink:title="document_template_group_audit" target="_top">
<polygon fill="#ffffff" stroke="transparent" points="286.5,-378.2 286.5,-527.2 546.5,-527.2 546.5,-378.2 286.5,-378.2"/>
<polygon fill="#f5f5f5" stroke="transparent" points="286.5,-503.7 286.5,-526.7 546.5,-526.7 546.5,-503.7 286.5,-503.7"/>
<polygon fill="none" stroke="#000000" points="286.5,-503.7 286.5,-526.7 546.5,-526.7 546.5,-503.7 286.5,-503.7"/>
<text text-anchor="start" x="291.5" y="-512.3" font-family="Helvetica,sans-Serif" font-weight="bold" font-size="11.00" fill="#000000">document_template_group_audit</text>
<text text-anchor="start" x="512.0219" y="-511.8" font-family="Helvetica,sans-Serif" font-size="11.00" fill="#000000">[table]</text>
<polygon fill="none" stroke="#000000" points="286.5,-481.7 286.5,-503.7 546.5,-503.7 546.5,-481.7 286.5,-481.7"/>
<image xlink:href="../../images/primaryKeys.png" width="11px" height="12px" preserveAspectRatio="xMinYMin meet" x="291.5" y="-498.7"/>
<text text-anchor="start" x="315.5" y="-488.8" font-family="Helvetica,sans-Serif" font-size="11.00" fill="#000000">rev_id</text>
<polygon fill="none" stroke="#000000" points="286.5,-459.7 286.5,-481.7 546.5,-481.7 546.5,-459.7 286.5,-459.7"/>
<image xlink:href="../../images/primaryKeys.png" width="11px" height="12px" preserveAspectRatio="xMinYMin meet" x="291.5" y="-476.7"/>
<text text-anchor="start" x="315.5" y="-466.8" font-family="Helvetica,sans-Serif" font-size="11.00" fill="#000000">id</text>
<polygon fill="#ffffff" stroke="transparent" points="286.5,-437.7 286.5,-459.7 546.5,-459.7 546.5,-437.7 286.5,-437.7"/>
<polygon fill="none" stroke="#000000" points="286.5,-437.7 286.5,-459.7 546.5,-459.7 546.5,-437.7 286.5,-437.7"/>
<text text-anchor="start" x="315.5" y="-444.8" font-family="Helvetica,sans-Serif" font-size="11.00" fill="#000000">template_id</text>
<polygon fill="#ffffff" stroke="transparent" points="286.5,-415.7 286.5,-437.7 546.5,-437.7 546.5,-415.7 286.5,-415.7"/>
<polygon fill="none" stroke="#000000" points="286.5,-415.7 286.5,-437.7 546.5,-437.7 546.5,-415.7 286.5,-415.7"/>
<text text-anchor="start" x="315.5" y="-422.8" font-family="Helvetica,sans-Serif" font-size="11.00" fill="#000000">template_group_id</text>
<polygon fill="none" stroke="#000000" points="286.5,-396.7 286.5,-415.7 546.5,-415.7 546.5,-396.7 286.5,-396.7"/>
<text text-anchor="start" x="289.5" y="-402.8" font-family="Helvetica,sans-Serif" font-size="11.00" fill="#000000">...</text>
<polygon fill="#ffffff" stroke="transparent" points="286.5,-377.7 286.5,-396.7 414.5,-396.7 414.5,-377.7 286.5,-377.7"/>
<polygon fill="none" stroke="#000000" points="286.5,-377.7 286.5,-396.7 414.5,-396.7 414.5,-377.7 286.5,-377.7"/>
<text text-anchor="start" x="289.5" y="-383.8" font-family="Helvetica,sans-Serif" font-size="11.00" fill="#000000">&lt; 1</text>
<polygon fill="#ffffff" stroke="transparent" points="414.5,-377.7 414.5,-396.7 480.5,-396.7 480.5,-377.7 414.5,-377.7"/>
<polygon fill="none" stroke="#000000" points="414.5,-377.7 414.5,-396.7 480.5,-396.7 480.5,-377.7 414.5,-377.7"/>
<text text-anchor="start" x="471.3862" y="-383.8" font-family="Helvetica,sans-Serif" font-size="11.00" fill="#000000"> &#160;</text>
<polygon fill="#ffffff" stroke="transparent" points="480.5,-377.7 480.5,-396.7 546.5,-396.7 546.5,-377.7 480.5,-377.7"/>
<polygon fill="none" stroke="#000000" points="480.5,-377.7 480.5,-396.7 546.5,-396.7 546.5,-377.7 480.5,-377.7"/>
<text text-anchor="start" x="537.3862" y="-383.8" font-family="Helvetica,sans-Serif" font-size="11.00" fill="#000000"> &#160;</text>
</a>
</g>
</g>
<!-- document_template_group_audit&#45;&gt;audit_revision -->
<g id="edge4" class="edge">
<title>document_template_group_audit:w&#45;&gt;audit_revision:e</title>
<path fill="none" stroke="#000000" d="M272.2123,-489.4717C243.0398,-473.9454 259.7043,-407.7 216.5,-407.7"/>
<polygon fill="#000000" stroke="#000000" points="278.6967,-490.9368 285.7066,-496.2115 282.5984,-491.8184 286.5,-492.7 286.5,-492.7 286.5,-492.7 282.5984,-491.8184 287.2934,-489.1885 278.6967,-490.9368 278.6967,-490.9368"/>
<ellipse fill="none" stroke="#000000" cx="275.5754" cy="-490.2315" rx="3.2" ry="3.2"/>
</g>
<!-- document_template_variable_audit -->
<g id="node6" class="node">
<title>document_template_variable_audit</title>
<g id="a_node6"><a xlink:href="../../tables/document_template_variable_audit.html" xlink:title="document_template_variable_audit" target="_top">
<polygon fill="#ffffff" stroke="transparent" points="279,-208.2 279,-357.2 554,-357.2 554,-208.2 279,-208.2"/>
<polygon fill="#f5f5f5" stroke="transparent" points="279.5,-333.7 279.5,-356.7 554.5,-356.7 554.5,-333.7 279.5,-333.7"/>
<polygon fill="none" stroke="#000000" points="279.5,-333.7 279.5,-356.7 554.5,-356.7 554.5,-333.7 279.5,-333.7"/>
<text text-anchor="start" x="284.5" y="-342.3" font-family="Helvetica,sans-Serif" font-weight="bold" font-size="11.00" fill="#000000">document_template_variable_audit</text>
<text text-anchor="start" x="520.0219" y="-341.8" font-family="Helvetica,sans-Serif" font-size="11.00" fill="#000000">[table]</text>
<polygon fill="none" stroke="#000000" points="279.5,-311.7 279.5,-333.7 554.5,-333.7 554.5,-311.7 279.5,-311.7"/>
<image xlink:href="../../images/primaryKeys.png" width="11px" height="12px" preserveAspectRatio="xMinYMin meet" x="284.5" y="-328.7"/>
<text text-anchor="start" x="308.5" y="-318.8" font-family="Helvetica,sans-Serif" font-size="11.00" fill="#000000">rev_id</text>
<polygon fill="none" stroke="#000000" points="279.5,-289.7 279.5,-311.7 554.5,-311.7 554.5,-289.7 279.5,-289.7"/>
<image xlink:href="../../images/primaryKeys.png" width="11px" height="12px" preserveAspectRatio="xMinYMin meet" x="284.5" y="-306.7"/>
<text text-anchor="start" x="308.5" y="-296.8" font-family="Helvetica,sans-Serif" font-size="11.00" fill="#000000">id</text>
<polygon fill="#ffffff" stroke="transparent" points="279.5,-267.7 279.5,-289.7 554.5,-289.7 554.5,-267.7 279.5,-267.7"/>
<polygon fill="none" stroke="#000000" points="279.5,-267.7 279.5,-289.7 554.5,-289.7 554.5,-267.7 279.5,-267.7"/>
<text text-anchor="start" x="308.5" y="-274.8" font-family="Helvetica,sans-Serif" font-size="11.00" fill="#000000">template_id</text>
<polygon fill="#ffffff" stroke="transparent" points="279.5,-245.7 279.5,-267.7 554.5,-267.7 554.5,-245.7 279.5,-245.7"/>
<polygon fill="none" stroke="#000000" points="279.5,-245.7 279.5,-267.7 554.5,-267.7 554.5,-245.7 279.5,-245.7"/>
<text text-anchor="start" x="308.5" y="-252.8" font-family="Helvetica,sans-Serif" font-size="11.00" fill="#000000">variable_id</text>
<polygon fill="none" stroke="#000000" points="279.5,-226.7 279.5,-245.7 554.5,-245.7 554.5,-226.7 279.5,-226.7"/>
<text text-anchor="start" x="282.5" y="-232.8" font-family="Helvetica,sans-Serif" font-size="11.00" fill="#000000">...</text>
<polygon fill="#ffffff" stroke="transparent" points="279.5,-207.7 279.5,-226.7 415.5,-226.7 415.5,-207.7 279.5,-207.7"/>
<polygon fill="none" stroke="#000000" points="279.5,-207.7 279.5,-226.7 415.5,-226.7 415.5,-207.7 279.5,-207.7"/>
<text text-anchor="start" x="282.5" y="-213.8" font-family="Helvetica,sans-Serif" font-size="11.00" fill="#000000">&lt; 1</text>
<polygon fill="#ffffff" stroke="transparent" points="415.5,-207.7 415.5,-226.7 484.5,-226.7 484.5,-207.7 415.5,-207.7"/>
<polygon fill="none" stroke="#000000" points="415.5,-207.7 415.5,-226.7 484.5,-226.7 484.5,-207.7 415.5,-207.7"/>
<text text-anchor="start" x="475.3862" y="-213.8" font-family="Helvetica,sans-Serif" font-size="11.00" fill="#000000"> &#160;</text>
<polygon fill="#ffffff" stroke="transparent" points="484.5,-207.7 484.5,-226.7 554.5,-226.7 554.5,-207.7 484.5,-207.7"/>
<polygon fill="none" stroke="#000000" points="484.5,-207.7 484.5,-226.7 554.5,-226.7 554.5,-207.7 484.5,-207.7"/>
<text text-anchor="start" x="545.3862" y="-213.8" font-family="Helvetica,sans-Serif" font-size="11.00" fill="#000000"> &#160;</text>
</a>
</g>
</g>
<!-- document_template_variable_audit&#45;&gt;audit_revision -->
<g id="edge5" class="edge">
<title>document_template_variable_audit:w&#45;&gt;audit_revision:e</title>
<path fill="none" stroke="#000000" d="M265.2209,-326.3523C239.0187,-342.6219 257.6451,-407.7 216.5,-407.7"/>
<polygon fill="#000000" stroke="#000000" points="271.7495,-324.6825 280.3921,-326.1877 275.6248,-323.6912 279.5,-322.7 279.5,-322.7 279.5,-322.7 275.6248,-323.6912 278.6079,-319.2123 271.7495,-324.6825 271.7495,-324.6825"/>
<ellipse fill="none" stroke="#000000" cx="268.6493" cy="-325.4755" rx="3.2" ry="3.2"/>
</g>
</g>
</svg>
