<?xml version="1.0" encoding="UTF-8" standalone="no"?>
<!DOCTYPE svg PUBLIC "-//W3C//DTD SVG 1.1//EN"
 "http://www.w3.org/Graphics/SVG/1.1/DTD/svg11.dtd">
<!-- Generated by graphviz version 2.40.1 (20161225.0304)
 -->
<!-- Title: oneDegreeRelationshipsDiagram Pages: 1 -->
<svg width="562pt" height="665pt"
 viewBox="0.00 0.00 562.00 665.20" xmlns="http://www.w3.org/2000/svg" xmlns:xlink="http://www.w3.org/1999/xlink">
<g id="graph0" class="graph" transform="scale(1 1) rotate(0) translate(4 661.2)">
<title>oneDegreeRelationshipsDiagram</title>
<polygon fill="#ffffff" stroke="transparent" points="-4,4 -4,-661.2 558,-661.2 558,4 -4,4"/>
<text text-anchor="middle" x="72.4936" y="-7.3" font-family="Helvetica,sans-Serif" font-size="11.00" fill="#000000">Generated by SchemaSpy</text>
<!-- document_generation_request_audit -->
<g id="node1" class="node">
<title>document_generation_request_audit</title>
<g id="a_node1"><a xlink:href="../../tables/document_generation_request_audit.html" xlink:title="document_generation_request_audit" target="_top">
<polygon fill="#ffffff" stroke="transparent" points="261,-548.2 261,-653.2 546,-653.2 546,-548.2 261,-548.2"/>
<polygon fill="#f5f5f5" stroke="transparent" points="261.5,-629.7 261.5,-652.7 546.5,-652.7 546.5,-629.7 261.5,-629.7"/>
<polygon fill="none" stroke="#000000" points="261.5,-629.7 261.5,-652.7 546.5,-652.7 546.5,-629.7 261.5,-629.7"/>
<text text-anchor="start" x="266.5" y="-638.3" font-family="Helvetica,sans-Serif" font-weight="bold" font-size="11.00" fill="#000000">document_generation_request_audit</text>
<text text-anchor="start" x="512.0219" y="-637.8" font-family="Helvetica,sans-Serif" font-size="11.00" fill="#000000">[table]</text>
<polygon fill="none" stroke="#000000" points="261.5,-607.7 261.5,-629.7 546.5,-629.7 546.5,-607.7 261.5,-607.7"/>
<image xlink:href="../../images/primaryKeys.png" width="11px" height="12px" preserveAspectRatio="xMinYMin meet" x="266.5" y="-624.7"/>
<text text-anchor="start" x="290.5" y="-614.8" font-family="Helvetica,sans-Serif" font-size="11.00" fill="#000000">rev_id</text>
<polygon fill="none" stroke="#000000" points="261.5,-585.7 261.5,-607.7 546.5,-607.7 546.5,-585.7 261.5,-585.7"/>
<image xlink:href="../../images/primaryKeys.png" width="11px" height="12px" preserveAspectRatio="xMinYMin meet" x="266.5" y="-602.7"/>
<text text-anchor="start" x="290.5" y="-592.8" font-family="Helvetica,sans-Serif" font-size="11.00" fill="#000000">id</text>
<polygon fill="none" stroke="#000000" points="261.5,-566.7 261.5,-585.7 546.5,-585.7 546.5,-566.7 261.5,-566.7"/>
<text text-anchor="start" x="264.5" y="-572.8" font-family="Helvetica,sans-Serif" font-size="11.00" fill="#000000">...</text>
<polygon fill="#ffffff" stroke="transparent" points="261.5,-547.7 261.5,-566.7 402.5,-566.7 402.5,-547.7 261.5,-547.7"/>
<polygon fill="none" stroke="#000000" points="261.5,-547.7 261.5,-566.7 402.5,-566.7 402.5,-547.7 261.5,-547.7"/>
<text text-anchor="start" x="264.5" y="-553.8" font-family="Helvetica,sans-Serif" font-size="11.00" fill="#000000">&lt; 1</text>
<polygon fill="#ffffff" stroke="transparent" points="402.5,-547.7 402.5,-566.7 474.5,-566.7 474.5,-547.7 402.5,-547.7"/>
<polygon fill="none" stroke="#000000" points="402.5,-547.7 402.5,-566.7 474.5,-566.7 474.5,-547.7 402.5,-547.7"/>
<text text-anchor="start" x="465.3862" y="-553.8" font-family="Helvetica,sans-Serif" font-size="11.00" fill="#000000"> &#160;</text>
<polygon fill="#ffffff" stroke="transparent" points="474.5,-547.7 474.5,-566.7 546.5,-566.7 546.5,-547.7 474.5,-547.7"/>
<polygon fill="none" stroke="#000000" points="474.5,-547.7 474.5,-566.7 546.5,-566.7 546.5,-547.7 474.5,-547.7"/>
<text text-anchor="start" x="537.3862" y="-553.8" font-family="Helvetica,sans-Serif" font-size="11.00" fill="#000000"> &#160;</text>
</a>
</g>
</g>
<!-- audit_revision -->
<g id="node2" class="node">
<title>audit_revision</title>
<g id="a_node2"><a xlink:href="../../tables/audit_revision.html" xlink:title="audit_revision" target="_top">
<polygon fill="#ffffff" stroke="transparent" points="8,-331.7 8,-443.7 212,-443.7 212,-331.7 8,-331.7"/>
<polygon fill="#f5f5f5" stroke="transparent" points="10,-418.7 10,-441.7 210,-441.7 210,-418.7 10,-418.7"/>
<polygon fill="none" stroke="#000000" points="10,-418.7 10,-441.7 210,-441.7 210,-418.7 10,-418.7"/>
<text text-anchor="start" x="15" y="-427.3" font-family="Helvetica,sans-Serif" font-weight="bold" font-size="11.00" fill="#000000">audit_revision</text>
<text text-anchor="start" x="175.0437" y="-426.8" font-family="Helvetica,sans-Serif" font-size="11.00" fill="#000000">[table]</text>
<polygon fill="none" stroke="#000000" points="10,-396.7 10,-418.7 126,-418.7 126,-396.7 10,-396.7"/>
<image xlink:href="../../images/primaryKeys.png" width="11px" height="12px" preserveAspectRatio="xMinYMin meet" x="15" y="-413.7"/>
<text text-anchor="start" x="30" y="-403.8" font-family="Helvetica,sans-Serif" font-size="11.00" fill="#000000">id</text>
<polygon fill="none" stroke="#000000" points="126,-396.7 126,-418.7 210,-418.7 210,-396.7 126,-396.7"/>
<text text-anchor="start" x="129" y="-404.4" font-family="Helvetica,sans-Serif" font-size="11.00" fill="#000000">bigserial[19]</text>
<polygon fill="none" stroke="#000000" points="10,-374.7 10,-396.7 126,-396.7 126,-374.7 10,-374.7"/>
<text text-anchor="start" x="30" y="-381.8" font-family="Helvetica,sans-Serif" font-size="11.00" fill="#000000">timestamp</text>
<polygon fill="none" stroke="#000000" points="126,-374.7 126,-396.7 210,-396.7 210,-374.7 126,-374.7"/>
<text text-anchor="start" x="128.8807" y="-382.4" font-family="Helvetica,sans-Serif" font-size="11.00" fill="#000000">timestamp[29,6]</text>
<polygon fill="none" stroke="#000000" points="10,-352.7 10,-374.7 126,-374.7 126,-352.7 10,-352.7"/>
<text text-anchor="start" x="30" y="-359.8" font-family="Helvetica,sans-Serif" font-size="11.00" fill="#000000">username</text>
<polygon fill="none" stroke="#000000" points="126,-352.7 126,-374.7 210,-374.7 210,-352.7 126,-352.7"/>
<text text-anchor="start" x="129" y="-360.4" font-family="Helvetica,sans-Serif" font-size="11.00" fill="#000000">varchar[64]</text>
<polygon fill="#ffffff" stroke="transparent" points="10,-333.7 10,-352.7 72,-352.7 72,-333.7 10,-333.7"/>
<polygon fill="none" stroke="#000000" points="10,-333.7 10,-352.7 72,-352.7 72,-333.7 10,-333.7"/>
<text text-anchor="start" x="13" y="-339.8" font-family="Helvetica,sans-Serif" font-size="11.00" fill="#000000">&lt; 0</text>
<polygon fill="#ffffff" stroke="transparent" points="72,-333.7 72,-352.7 126,-352.7 126,-333.7 72,-333.7"/>
<polygon fill="none" stroke="#000000" points="72,-333.7 72,-352.7 126,-352.7 126,-333.7 72,-333.7"/>
<text text-anchor="start" x="116.8862" y="-339.8" font-family="Helvetica,sans-Serif" font-size="11.00" fill="#000000"> &#160;</text>
<polygon fill="#ffffff" stroke="transparent" points="126,-333.7 126,-352.7 210,-352.7 210,-333.7 126,-333.7"/>
<polygon fill="none" stroke="#000000" points="126,-333.7 126,-352.7 210,-352.7 210,-333.7 126,-333.7"/>
<text text-anchor="start" x="191.4053" y="-339.8" font-family="Helvetica,sans-Serif" font-size="11.00" fill="#000000">4 &gt;</text>
<polygon fill="none" stroke="#000000" stroke-width="2" points="9,-332.7 9,-442.7 211,-442.7 211,-332.7 9,-332.7"/>
</a>
</g>
</g>
<!-- document_generation_request_audit&#45;&gt;audit_revision -->
<g id="edge1" class="edge">
<title>document_generation_request_audit:w&#45;&gt;audit_revision:e</title>
<path fill="none" stroke="#000000" d="M246.8882,-616.6117C180.7411,-594.6978 300.8746,-407.7 210,-407.7"/>
<polygon fill="#000000" stroke="#000000" points="253.5805,-617.5681 260.9906,-622.2638 257.5402,-618.134 261.5,-618.7 261.5,-618.7 261.5,-618.7 257.5402,-618.134 262.0094,-615.1362 253.5805,-617.5681 253.5805,-617.5681"/>
<ellipse fill="none" stroke="#000000" cx="250.4127" cy="-617.1153" rx="3.2" ry="3.2"/>
</g>
<!-- document_template_audit -->
<g id="node3" class="node">
<title>document_template_audit</title>
<g id="a_node3"><a xlink:href="../../tables/document_template_audit.html" xlink:title="document_template_audit" target="_top">
<polygon fill="#ffffff" stroke="transparent" points="296.5,-378.2 296.5,-527.2 510.5,-527.2 510.5,-378.2 296.5,-378.2"/>
<polygon fill="#f5f5f5" stroke="transparent" points="296.5,-503.7 296.5,-526.7 510.5,-526.7 510.5,-503.7 296.5,-503.7"/>
<polygon fill="none" stroke="#000000" points="296.5,-503.7 296.5,-526.7 510.5,-526.7 510.5,-503.7 296.5,-503.7"/>
<text text-anchor="start" x="301.5" y="-512.3" font-family="Helvetica,sans-Serif" font-weight="bold" font-size="11.00" fill="#000000">document_template_audit</text>
<text text-anchor="start" x="476.0219" y="-511.8" font-family="Helvetica,sans-Serif" font-size="11.00" fill="#000000">[table]</text>
<polygon fill="none" stroke="#000000" points="296.5,-481.7 296.5,-503.7 510.5,-503.7 510.5,-481.7 296.5,-481.7"/>
<image xlink:href="../../images/primaryKeys.png" width="11px" height="12px" preserveAspectRatio="xMinYMin meet" x="301.5" y="-498.7"/>
<text text-anchor="start" x="325.5" y="-488.8" font-family="Helvetica,sans-Serif" font-size="11.00" fill="#000000">rev_id</text>
<polygon fill="none" stroke="#000000" points="296.5,-459.7 296.5,-481.7 510.5,-481.7 510.5,-459.7 296.5,-459.7"/>
<image xlink:href="../../images/primaryKeys.png" width="11px" height="12px" preserveAspectRatio="xMinYMin meet" x="301.5" y="-476.7"/>
<text text-anchor="start" x="325.5" y="-466.8" font-family="Helvetica,sans-Serif" font-size="11.00" fill="#000000">id</text>
<polygon fill="none" stroke="#000000" points="296.5,-437.7 296.5,-459.7 510.5,-459.7 510.5,-437.7 296.5,-437.7"/>
<image xlink:href="../../images/foreignKeys.png" width="11px" height="12px" preserveAspectRatio="xMinYMin meet" x="301.5" y="-454.7"/>
<text text-anchor="start" x="325.5" y="-444.8" font-family="Helvetica,sans-Serif" font-size="11.00" fill="#000000">code</text>
<polygon fill="#ffffff" stroke="transparent" points="296.5,-415.7 296.5,-437.7 510.5,-437.7 510.5,-415.7 296.5,-415.7"/>
<polygon fill="none" stroke="#000000" points="296.5,-415.7 296.5,-437.7 510.5,-437.7 510.5,-415.7 296.5,-415.7"/>
<text text-anchor="start" x="325.5" y="-422.8" font-family="Helvetica,sans-Serif" font-size="11.00" fill="#000000">external_reference</text>
<polygon fill="none" stroke="#000000" points="296.5,-396.7 296.5,-415.7 510.5,-415.7 510.5,-396.7 296.5,-396.7"/>
<text text-anchor="start" x="299.5" y="-402.8" font-family="Helvetica,sans-Serif" font-size="11.00" fill="#000000">...</text>
<polygon fill="#ffffff" stroke="transparent" points="296.5,-377.7 296.5,-396.7 401.5,-396.7 401.5,-377.7 296.5,-377.7"/>
<polygon fill="none" stroke="#000000" points="296.5,-377.7 296.5,-396.7 401.5,-396.7 401.5,-377.7 296.5,-377.7"/>
<text text-anchor="start" x="299.5" y="-383.8" font-family="Helvetica,sans-Serif" font-size="11.00" fill="#000000">&lt; 1</text>
<polygon fill="#ffffff" stroke="transparent" points="401.5,-377.7 401.5,-396.7 455.5,-396.7 455.5,-377.7 401.5,-377.7"/>
<polygon fill="none" stroke="#000000" points="401.5,-377.7 401.5,-396.7 455.5,-396.7 455.5,-377.7 401.5,-377.7"/>
<text text-anchor="start" x="446.3862" y="-383.8" font-family="Helvetica,sans-Serif" font-size="11.00" fill="#000000"> &#160;</text>
<polygon fill="#ffffff" stroke="transparent" points="455.5,-377.7 455.5,-396.7 510.5,-396.7 510.5,-377.7 455.5,-377.7"/>
<polygon fill="none" stroke="#000000" points="455.5,-377.7 455.5,-396.7 510.5,-396.7 510.5,-377.7 455.5,-377.7"/>
<text text-anchor="start" x="501.3862" y="-383.8" font-family="Helvetica,sans-Serif" font-size="11.00" fill="#000000"> &#160;</text>
</a>
</g>
</g>
<!-- document_template_audit&#45;&gt;audit_revision -->
<g id="edge2" class="edge">
<title>document_template_audit:w&#45;&gt;audit_revision:e</title>
<path fill="none" stroke="#000000" d="M282.247,-490.2478C246.1513,-476.3111 258.4252,-407.7 210,-407.7"/>
<polygon fill="#000000" stroke="#000000" points="288.6158,-491.3435 295.8896,-496.2479 292.5579,-492.0217 296.5,-492.7 296.5,-492.7 296.5,-492.7 292.5579,-492.0217 297.1104,-489.1521 288.6158,-491.3435 288.6158,-491.3435"/>
<ellipse fill="none" stroke="#000000" cx="285.4622" cy="-490.8009" rx="3.2" ry="3.2"/>
</g>
<!-- document_template_group_audit -->
<g id="node4" class="node">
<title>document_template_group_audit</title>
<g id="a_node4"><a xlink:href="../../tables/document_template_group_audit.html" xlink:title="document_template_group_audit" target="_top">
<polygon fill="#ffffff" stroke="transparent" points="273.5,-208.2 273.5,-357.2 533.5,-357.2 533.5,-208.2 273.5,-208.2"/>
<polygon fill="#f5f5f5" stroke="transparent" points="273.5,-333.7 273.5,-356.7 533.5,-356.7 533.5,-333.7 273.5,-333.7"/>
<polygon fill="none" stroke="#000000" points="273.5,-333.7 273.5,-356.7 533.5,-356.7 533.5,-333.7 273.5,-333.7"/>
<text text-anchor="start" x="278.5" y="-342.3" font-family="Helvetica,sans-Serif" font-weight="bold" font-size="11.00" fill="#000000">document_template_group_audit</text>
<text text-anchor="start" x="499.0219" y="-341.8" font-family="Helvetica,sans-Serif" font-size="11.00" fill="#000000">[table]</text>
<polygon fill="none" stroke="#000000" points="273.5,-311.7 273.5,-333.7 533.5,-333.7 533.5,-311.7 273.5,-311.7"/>
<image xlink:href="../../images/primaryKeys.png" width="11px" height="12px" preserveAspectRatio="xMinYMin meet" x="278.5" y="-328.7"/>
<text text-anchor="start" x="302.5" y="-318.8" font-family="Helvetica,sans-Serif" font-size="11.00" fill="#000000">rev_id</text>
<polygon fill="none" stroke="#000000" points="273.5,-289.7 273.5,-311.7 533.5,-311.7 533.5,-289.7 273.5,-289.7"/>
<image xlink:href="../../images/primaryKeys.png" width="11px" height="12px" preserveAspectRatio="xMinYMin meet" x="278.5" y="-306.7"/>
<text text-anchor="start" x="302.5" y="-296.8" font-family="Helvetica,sans-Serif" font-size="11.00" fill="#000000">id</text>
<polygon fill="#ffffff" stroke="transparent" points="273.5,-267.7 273.5,-289.7 533.5,-289.7 533.5,-267.7 273.5,-267.7"/>
<polygon fill="none" stroke="#000000" points="273.5,-267.7 273.5,-289.7 533.5,-289.7 533.5,-267.7 273.5,-267.7"/>
<text text-anchor="start" x="302.5" y="-274.8" font-family="Helvetica,sans-Serif" font-size="11.00" fill="#000000">template_id</text>
<polygon fill="#ffffff" stroke="transparent" points="273.5,-245.7 273.5,-267.7 533.5,-267.7 533.5,-245.7 273.5,-245.7"/>
<polygon fill="none" stroke="#000000" points="273.5,-245.7 273.5,-267.7 533.5,-267.7 533.5,-245.7 273.5,-245.7"/>
<text text-anchor="start" x="302.5" y="-252.8" font-family="Helvetica,sans-Serif" font-size="11.00" fill="#000000">template_group_id</text>
<polygon fill="none" stroke="#000000" points="273.5,-226.7 273.5,-245.7 533.5,-245.7 533.5,-226.7 273.5,-226.7"/>
<text text-anchor="start" x="276.5" y="-232.8" font-family="Helvetica,sans-Serif" font-size="11.00" fill="#000000">...</text>
<polygon fill="#ffffff" stroke="transparent" points="273.5,-207.7 273.5,-226.7 401.5,-226.7 401.5,-207.7 273.5,-207.7"/>
<polygon fill="none" stroke="#000000" points="273.5,-207.7 273.5,-226.7 401.5,-226.7 401.5,-207.7 273.5,-207.7"/>
<text text-anchor="start" x="276.5" y="-213.8" font-family="Helvetica,sans-Serif" font-size="11.00" fill="#000000">&lt; 1</text>
<polygon fill="#ffffff" stroke="transparent" points="401.5,-207.7 401.5,-226.7 467.5,-226.7 467.5,-207.7 401.5,-207.7"/>
<polygon fill="none" stroke="#000000" points="401.5,-207.7 401.5,-226.7 467.5,-226.7 467.5,-207.7 401.5,-207.7"/>
<text text-anchor="start" x="458.3862" y="-213.8" font-family="Helvetica,sans-Serif" font-size="11.00" fill="#000000"> &#160;</text>
<polygon fill="#ffffff" stroke="transparent" points="467.5,-207.7 467.5,-226.7 533.5,-226.7 533.5,-207.7 467.5,-207.7"/>
<polygon fill="none" stroke="#000000" points="467.5,-207.7 467.5,-226.7 533.5,-226.7 533.5,-207.7 467.5,-207.7"/>
<text text-anchor="start" x="524.3862" y="-213.8" font-family="Helvetica,sans-Serif" font-size="11.00" fill="#000000"> &#160;</text>
</a>
</g>
</g>
<!-- document_template_group_audit&#45;&gt;audit_revision -->
<g id="edge3" class="edge">
<title>document_template_group_audit:w&#45;&gt;audit_revision:e</title>
<path fill="none" stroke="#000000" d="M259.1668,-326.3523C232.8289,-342.6219 251.2612,-407.7 210,-407.7"/>
<polygon fill="#000000" stroke="#000000" points="265.7477,-324.6754 274.389,-326.1885 269.6239,-323.6877 273.5,-322.7 273.5,-322.7 273.5,-322.7 269.6239,-323.6877 272.611,-319.2115 265.7477,-324.6754 265.7477,-324.6754"/>
<ellipse fill="none" stroke="#000000" cx="262.6468" cy="-325.4656" rx="3.2" ry="3.2"/>
</g>
<!-- document_template_variable_audit -->
<g id="node5" class="node">
<title>document_template_variable_audit</title>
<g id="a_node5"><a xlink:href="../../tables/document_template_variable_audit.html" xlink:title="document_template_variable_audit" target="_top">
<polygon fill="#ffffff" stroke="transparent" points="266,-38.2 266,-187.2 541,-187.2 541,-38.2 266,-38.2"/>
<polygon fill="#f5f5f5" stroke="transparent" points="266.5,-163.7 266.5,-186.7 541.5,-186.7 541.5,-163.7 266.5,-163.7"/>
<polygon fill="none" stroke="#000000" points="266.5,-163.7 266.5,-186.7 541.5,-186.7 541.5,-163.7 266.5,-163.7"/>
<text text-anchor="start" x="271.5" y="-172.3" font-family="Helvetica,sans-Serif" font-weight="bold" font-size="11.00" fill="#000000">document_template_variable_audit</text>
<text text-anchor="start" x="507.0219" y="-171.8" font-family="Helvetica,sans-Serif" font-size="11.00" fill="#000000">[table]</text>
<polygon fill="none" stroke="#000000" points="266.5,-141.7 266.5,-163.7 541.5,-163.7 541.5,-141.7 266.5,-141.7"/>
<image xlink:href="../../images/primaryKeys.png" width="11px" height="12px" preserveAspectRatio="xMinYMin meet" x="271.5" y="-158.7"/>
<text text-anchor="start" x="295.5" y="-148.8" font-family="Helvetica,sans-Serif" font-size="11.00" fill="#000000">rev_id</text>
<polygon fill="none" stroke="#000000" points="266.5,-119.7 266.5,-141.7 541.5,-141.7 541.5,-119.7 266.5,-119.7"/>
<image xlink:href="../../images/primaryKeys.png" width="11px" height="12px" preserveAspectRatio="xMinYMin meet" x="271.5" y="-136.7"/>
<text text-anchor="start" x="295.5" y="-126.8" font-family="Helvetica,sans-Serif" font-size="11.00" fill="#000000">id</text>
<polygon fill="#ffffff" stroke="transparent" points="266.5,-97.7 266.5,-119.7 541.5,-119.7 541.5,-97.7 266.5,-97.7"/>
<polygon fill="none" stroke="#000000" points="266.5,-97.7 266.5,-119.7 541.5,-119.7 541.5,-97.7 266.5,-97.7"/>
<text text-anchor="start" x="295.5" y="-104.8" font-family="Helvetica,sans-Serif" font-size="11.00" fill="#000000">template_id</text>
<polygon fill="#ffffff" stroke="transparent" points="266.5,-75.7 266.5,-97.7 541.5,-97.7 541.5,-75.7 266.5,-75.7"/>
<polygon fill="none" stroke="#000000" points="266.5,-75.7 266.5,-97.7 541.5,-97.7 541.5,-75.7 266.5,-75.7"/>
<text text-anchor="start" x="295.5" y="-82.8" font-family="Helvetica,sans-Serif" font-size="11.00" fill="#000000">variable_id</text>
<polygon fill="none" stroke="#000000" points="266.5,-56.7 266.5,-75.7 541.5,-75.7 541.5,-56.7 266.5,-56.7"/>
<text text-anchor="start" x="269.5" y="-62.8" font-family="Helvetica,sans-Serif" font-size="11.00" fill="#000000">...</text>
<polygon fill="#ffffff" stroke="transparent" points="266.5,-37.7 266.5,-56.7 402.5,-56.7 402.5,-37.7 266.5,-37.7"/>
<polygon fill="none" stroke="#000000" points="266.5,-37.7 266.5,-56.7 402.5,-56.7 402.5,-37.7 266.5,-37.7"/>
<text text-anchor="start" x="269.5" y="-43.8" font-family="Helvetica,sans-Serif" font-size="11.00" fill="#000000">&lt; 1</text>
<polygon fill="#ffffff" stroke="transparent" points="402.5,-37.7 402.5,-56.7 471.5,-56.7 471.5,-37.7 402.5,-37.7"/>
<polygon fill="none" stroke="#000000" points="402.5,-37.7 402.5,-56.7 471.5,-56.7 471.5,-37.7 402.5,-37.7"/>
<text text-anchor="start" x="462.3862" y="-43.8" font-family="Helvetica,sans-Serif" font-size="11.00" fill="#000000"> &#160;</text>
<polygon fill="#ffffff" stroke="transparent" points="471.5,-37.7 471.5,-56.7 541.5,-56.7 541.5,-37.7 471.5,-37.7"/>
<polygon fill="none" stroke="#000000" points="471.5,-37.7 471.5,-56.7 541.5,-56.7 541.5,-37.7 471.5,-37.7"/>
<text text-anchor="start" x="532.3862" y="-43.8" font-family="Helvetica,sans-Serif" font-size="11.00" fill="#000000"> &#160;</text>
</a>
</g>
</g>
<!-- document_template_variable_audit&#45;&gt;audit_revision -->
<g id="edge4" class="edge">
<title>document_template_variable_audit:w&#45;&gt;audit_revision:e</title>
<path fill="none" stroke="#000000" d="M252.039,-154.3284C166.2455,-176.0459 320.6406,-407.7 210,-407.7"/>
<polygon fill="#000000" stroke="#000000" points="258.5502,-153.5952 266.9029,-156.2774 262.5251,-153.1476 266.5,-152.7 266.5,-152.7 266.5,-152.7 262.5251,-153.1476 266.0971,-149.1226 258.5502,-153.5952 258.5502,-153.5952"/>
<ellipse fill="none" stroke="#000000" cx="255.3703" cy="-153.9533" rx="3.2" ry="3.2"/>
</g>
</g>
</svg>
