<?xml version="1.0" encoding="UTF-8" standalone="no"?>
<!DOCTYPE svg PUBLIC "-//W3C//DTD SVG 1.1//EN"
 "http://www.w3.org/Graphics/SVG/1.1/DTD/svg11.dtd">
<!-- Generated by graphviz version 2.40.1 (20161225.0304)
 -->
<!-- Title: twoDegreesRelationshipsDiagramImplied Pages: 1 -->
<svg width="565pt" height="539pt"
 viewBox="0.00 0.00 565.00 539.20" xmlns="http://www.w3.org/2000/svg" xmlns:xlink="http://www.w3.org/1999/xlink">
<g id="graph0" class="graph" transform="scale(1 1) rotate(0) translate(4 535.2)">
<title>twoDegreesRelationshipsDiagramImplied</title>
<polygon fill="#ffffff" stroke="transparent" points="-4,4 -4,-535.2 561,-535.2 561,4 -4,4"/>
<text text-anchor="middle" x="72.4936" y="-7.3" font-family="Helvetica,sans-Serif" font-size="11.00" fill="#000000">Generated by SchemaSpy</text>
<!-- document_template_audit -->
<g id="node1" class="node">
<title>document_template_audit</title>
<g id="a_node1"><a xlink:href="../../tables/document_template_audit.html" xlink:title="document_template_audit" target="_top">
<polygon fill="#ffffff" stroke="transparent" points="304.5,-378.2 304.5,-527.2 518.5,-527.2 518.5,-378.2 304.5,-378.2"/>
<polygon fill="#f5f5f5" stroke="transparent" points="304.5,-503.7 304.5,-526.7 518.5,-526.7 518.5,-503.7 304.5,-503.7"/>
<polygon fill="none" stroke="#000000" points="304.5,-503.7 304.5,-526.7 518.5,-526.7 518.5,-503.7 304.5,-503.7"/>
<text text-anchor="start" x="309.5" y="-512.3" font-family="Helvetica,sans-Serif" font-weight="bold" font-size="11.00" fill="#000000">document_template_audit</text>
<text text-anchor="start" x="484.0219" y="-511.8" font-family="Helvetica,sans-Serif" font-size="11.00" fill="#000000">[table]</text>
<polygon fill="none" stroke="#000000" points="304.5,-481.7 304.5,-503.7 518.5,-503.7 518.5,-481.7 304.5,-481.7"/>
<image xlink:href="../../images/primaryKeys.png" width="11px" height="12px" preserveAspectRatio="xMinYMin meet" x="309.5" y="-498.7"/>
<text text-anchor="start" x="333.5" y="-488.8" font-family="Helvetica,sans-Serif" font-size="11.00" fill="#000000">rev_id</text>
<polygon fill="none" stroke="#000000" points="304.5,-459.7 304.5,-481.7 518.5,-481.7 518.5,-459.7 304.5,-459.7"/>
<image xlink:href="../../images/primaryKeys.png" width="11px" height="12px" preserveAspectRatio="xMinYMin meet" x="309.5" y="-476.7"/>
<text text-anchor="start" x="333.5" y="-466.8" font-family="Helvetica,sans-Serif" font-size="11.00" fill="#000000">id</text>
<polygon fill="none" stroke="#000000" points="304.5,-437.7 304.5,-459.7 518.5,-459.7 518.5,-437.7 304.5,-437.7"/>
<image xlink:href="../../images/foreignKeys.png" width="11px" height="12px" preserveAspectRatio="xMinYMin meet" x="309.5" y="-454.7"/>
<text text-anchor="start" x="333.5" y="-444.8" font-family="Helvetica,sans-Serif" font-size="11.00" fill="#000000">code</text>
<polygon fill="#ffffff" stroke="transparent" points="304.5,-415.7 304.5,-437.7 518.5,-437.7 518.5,-415.7 304.5,-415.7"/>
<polygon fill="none" stroke="#000000" points="304.5,-415.7 304.5,-437.7 518.5,-437.7 518.5,-415.7 304.5,-415.7"/>
<text text-anchor="start" x="333.5" y="-422.8" font-family="Helvetica,sans-Serif" font-size="11.00" fill="#000000">external_reference</text>
<polygon fill="none" stroke="#000000" points="304.5,-396.7 304.5,-415.7 518.5,-415.7 518.5,-396.7 304.5,-396.7"/>
<text text-anchor="start" x="307.5" y="-402.8" font-family="Helvetica,sans-Serif" font-size="11.00" fill="#000000">...</text>
<polygon fill="#ffffff" stroke="transparent" points="304.5,-377.7 304.5,-396.7 409.5,-396.7 409.5,-377.7 304.5,-377.7"/>
<polygon fill="none" stroke="#000000" points="304.5,-377.7 304.5,-396.7 409.5,-396.7 409.5,-377.7 304.5,-377.7"/>
<text text-anchor="start" x="307.5" y="-383.8" font-family="Helvetica,sans-Serif" font-size="11.00" fill="#000000">&lt; 2</text>
<polygon fill="#ffffff" stroke="transparent" points="409.5,-377.7 409.5,-396.7 463.5,-396.7 463.5,-377.7 409.5,-377.7"/>
<polygon fill="none" stroke="#000000" points="409.5,-377.7 409.5,-396.7 463.5,-396.7 463.5,-377.7 409.5,-377.7"/>
<text text-anchor="start" x="454.3862" y="-383.8" font-family="Helvetica,sans-Serif" font-size="11.00" fill="#000000"> &#160;</text>
<polygon fill="#ffffff" stroke="transparent" points="463.5,-377.7 463.5,-396.7 518.5,-396.7 518.5,-377.7 463.5,-377.7"/>
<polygon fill="none" stroke="#000000" points="463.5,-377.7 463.5,-396.7 518.5,-396.7 518.5,-377.7 463.5,-377.7"/>
<text text-anchor="start" x="509.3862" y="-383.8" font-family="Helvetica,sans-Serif" font-size="11.00" fill="#000000"> &#160;</text>
</a>
</g>
</g>
<!-- template_variable_domain -->
<g id="node2" class="node">
<title>template_variable_domain</title>
<g id="a_node2"><a xlink:href="../../tables/template_variable_domain.html" xlink:title="template_variable_domain" target="_top">
<polygon fill="#ffffff" stroke="transparent" points="8,-421.2 8,-482.2 225,-482.2 225,-421.2 8,-421.2"/>
<polygon fill="#f5f5f5" stroke="transparent" points="8.5,-458.7 8.5,-481.7 225.5,-481.7 225.5,-458.7 8.5,-458.7"/>
<polygon fill="none" stroke="#000000" points="8.5,-458.7 8.5,-481.7 225.5,-481.7 225.5,-458.7 8.5,-458.7"/>
<text text-anchor="start" x="13.5" y="-467.3" font-family="Helvetica,sans-Serif" font-weight="bold" font-size="11.00" fill="#000000">template_variable_domain</text>
<text text-anchor="start" x="191.0219" y="-466.8" font-family="Helvetica,sans-Serif" font-size="11.00" fill="#000000">[table]</text>
<polygon fill="none" stroke="#000000" points="8.5,-439.7 8.5,-458.7 225.5,-458.7 225.5,-439.7 8.5,-439.7"/>
<text text-anchor="start" x="11.5" y="-445.8" font-family="Helvetica,sans-Serif" font-size="11.00" fill="#000000">...</text>
<polygon fill="#ffffff" stroke="transparent" points="8.5,-420.7 8.5,-439.7 106.5,-439.7 106.5,-420.7 8.5,-420.7"/>
<polygon fill="none" stroke="#000000" points="8.5,-420.7 8.5,-439.7 106.5,-439.7 106.5,-420.7 8.5,-420.7"/>
<text text-anchor="start" x="11.5" y="-426.8" font-family="Helvetica,sans-Serif" font-size="11.00" fill="#000000"> &#160;</text>
<polygon fill="#ffffff" stroke="transparent" points="106.5,-420.7 106.5,-439.7 161.5,-439.7 161.5,-420.7 106.5,-420.7"/>
<polygon fill="none" stroke="#000000" points="106.5,-420.7 106.5,-439.7 161.5,-439.7 161.5,-420.7 106.5,-420.7"/>
<text text-anchor="start" x="152.3862" y="-426.8" font-family="Helvetica,sans-Serif" font-size="11.00" fill="#000000"> &#160;</text>
<polygon fill="#ffffff" stroke="transparent" points="161.5,-420.7 161.5,-439.7 225.5,-439.7 225.5,-420.7 161.5,-420.7"/>
<polygon fill="none" stroke="#000000" points="161.5,-420.7 161.5,-439.7 225.5,-439.7 225.5,-420.7 161.5,-420.7"/>
<text text-anchor="start" x="206.9053" y="-426.8" font-family="Helvetica,sans-Serif" font-size="11.00" fill="#000000">5 &gt;</text>
</a>
</g>
</g>
<!-- document_template_audit&#45;&gt;template_variable_domain -->
<g id="edge1" class="edge">
<title>document_template_audit:w&#45;&gt;template_variable_domain:e</title>
<path fill="none" stroke="#000000" stroke-dasharray="5,2" d="M289.7695,-448.7C266.0029,-448.7 255.125,-448.7 225.5,-448.7"/>
<polygon fill="#000000" stroke="#000000" points="296.5,-448.7001 304.5,-452.3 300.5,-448.7 304.5,-448.7 304.5,-448.7 304.5,-448.7 300.5,-448.7 304.5,-445.1 296.5,-448.7001 296.5,-448.7001"/>
<ellipse fill="none" stroke="#000000" cx="293.3" cy="-448.7001" rx="3.2" ry="3.2"/>
</g>
<!-- audit_revision -->
<g id="node3" class="node">
<title>audit_revision</title>
<g id="a_node3"><a xlink:href="../../tables/audit_revision.html" xlink:title="audit_revision" target="_top">
<polygon fill="#ffffff" stroke="transparent" points="14.5,-246.7 14.5,-358.7 218.5,-358.7 218.5,-246.7 14.5,-246.7"/>
<polygon fill="#f5f5f5" stroke="transparent" points="16.5,-333.7 16.5,-356.7 216.5,-356.7 216.5,-333.7 16.5,-333.7"/>
<polygon fill="none" stroke="#000000" points="16.5,-333.7 16.5,-356.7 216.5,-356.7 216.5,-333.7 16.5,-333.7"/>
<text text-anchor="start" x="21.5" y="-342.3" font-family="Helvetica,sans-Serif" font-weight="bold" font-size="11.00" fill="#000000">audit_revision</text>
<text text-anchor="start" x="181.5437" y="-341.8" font-family="Helvetica,sans-Serif" font-size="11.00" fill="#000000">[table]</text>
<polygon fill="none" stroke="#000000" points="16.5,-311.7 16.5,-333.7 132.5,-333.7 132.5,-311.7 16.5,-311.7"/>
<image xlink:href="../../images/primaryKeys.png" width="11px" height="12px" preserveAspectRatio="xMinYMin meet" x="21.5" y="-328.7"/>
<text text-anchor="start" x="36.5" y="-318.8" font-family="Helvetica,sans-Serif" font-size="11.00" fill="#000000">id</text>
<polygon fill="none" stroke="#000000" points="132.5,-311.7 132.5,-333.7 216.5,-333.7 216.5,-311.7 132.5,-311.7"/>
<text text-anchor="start" x="135.5" y="-319.4" font-family="Helvetica,sans-Serif" font-size="11.00" fill="#000000">bigserial[19]</text>
<polygon fill="none" stroke="#000000" points="16.5,-289.7 16.5,-311.7 132.5,-311.7 132.5,-289.7 16.5,-289.7"/>
<text text-anchor="start" x="36.5" y="-296.8" font-family="Helvetica,sans-Serif" font-size="11.00" fill="#000000">timestamp</text>
<polygon fill="none" stroke="#000000" points="132.5,-289.7 132.5,-311.7 216.5,-311.7 216.5,-289.7 132.5,-289.7"/>
<text text-anchor="start" x="135.3807" y="-297.4" font-family="Helvetica,sans-Serif" font-size="11.00" fill="#000000">timestamp[29,6]</text>
<polygon fill="none" stroke="#000000" points="16.5,-267.7 16.5,-289.7 132.5,-289.7 132.5,-267.7 16.5,-267.7"/>
<text text-anchor="start" x="36.5" y="-274.8" font-family="Helvetica,sans-Serif" font-size="11.00" fill="#000000">username</text>
<polygon fill="none" stroke="#000000" points="132.5,-267.7 132.5,-289.7 216.5,-289.7 216.5,-267.7 132.5,-267.7"/>
<text text-anchor="start" x="135.5" y="-275.4" font-family="Helvetica,sans-Serif" font-size="11.00" fill="#000000">varchar[64]</text>
<polygon fill="#ffffff" stroke="transparent" points="16.5,-248.7 16.5,-267.7 78.5,-267.7 78.5,-248.7 16.5,-248.7"/>
<polygon fill="none" stroke="#000000" points="16.5,-248.7 16.5,-267.7 78.5,-267.7 78.5,-248.7 16.5,-248.7"/>
<text text-anchor="start" x="19.5" y="-254.8" font-family="Helvetica,sans-Serif" font-size="11.00" fill="#000000">&lt; 0</text>
<polygon fill="#ffffff" stroke="transparent" points="78.5,-248.7 78.5,-267.7 132.5,-267.7 132.5,-248.7 78.5,-248.7"/>
<polygon fill="none" stroke="#000000" points="78.5,-248.7 78.5,-267.7 132.5,-267.7 132.5,-248.7 78.5,-248.7"/>
<text text-anchor="start" x="123.3862" y="-254.8" font-family="Helvetica,sans-Serif" font-size="11.00" fill="#000000"> &#160;</text>
<polygon fill="#ffffff" stroke="transparent" points="132.5,-248.7 132.5,-267.7 216.5,-267.7 216.5,-248.7 132.5,-248.7"/>
<polygon fill="none" stroke="#000000" points="132.5,-248.7 132.5,-267.7 216.5,-267.7 216.5,-248.7 132.5,-248.7"/>
<text text-anchor="start" x="197.9053" y="-254.8" font-family="Helvetica,sans-Serif" font-size="11.00" fill="#000000">3 &gt;</text>
<polygon fill="none" stroke="#000000" stroke-width="2" points="15.5,-247.7 15.5,-357.7 217.5,-357.7 217.5,-247.7 15.5,-247.7"/>
</a>
</g>
</g>
<!-- document_template_audit&#45;&gt;audit_revision -->
<g id="edge2" class="edge">
<title>document_template_audit:w&#45;&gt;audit_revision:e</title>
<path fill="none" stroke="#000000" d="M290.0439,-490.6724C229.3175,-471.4922 296.0948,-322.7 216.5,-322.7"/>
<polygon fill="#000000" stroke="#000000" points="296.5775,-491.5887 303.9999,-496.2651 300.5388,-492.1444 304.5,-492.7 304.5,-492.7 304.5,-492.7 300.5388,-492.1444 305.0001,-489.1349 296.5775,-491.5887 296.5775,-491.5887"/>
<ellipse fill="none" stroke="#000000" cx="293.4086" cy="-491.1442" rx="3.2" ry="3.2"/>
</g>
<!-- document_template_group_audit -->
<g id="node4" class="node">
<title>document_template_group_audit</title>
<g id="a_node4"><a xlink:href="../../tables/document_template_group_audit.html" xlink:title="document_template_group_audit" target="_top">
<polygon fill="#ffffff" stroke="transparent" points="281.5,-38.2 281.5,-187.2 541.5,-187.2 541.5,-38.2 281.5,-38.2"/>
<polygon fill="#f5f5f5" stroke="transparent" points="281.5,-163.7 281.5,-186.7 541.5,-186.7 541.5,-163.7 281.5,-163.7"/>
<polygon fill="none" stroke="#000000" points="281.5,-163.7 281.5,-186.7 541.5,-186.7 541.5,-163.7 281.5,-163.7"/>
<text text-anchor="start" x="286.5" y="-172.3" font-family="Helvetica,sans-Serif" font-weight="bold" font-size="11.00" fill="#000000">document_template_group_audit</text>
<text text-anchor="start" x="507.0219" y="-171.8" font-family="Helvetica,sans-Serif" font-size="11.00" fill="#000000">[table]</text>
<polygon fill="none" stroke="#000000" points="281.5,-141.7 281.5,-163.7 541.5,-163.7 541.5,-141.7 281.5,-141.7"/>
<image xlink:href="../../images/primaryKeys.png" width="11px" height="12px" preserveAspectRatio="xMinYMin meet" x="286.5" y="-158.7"/>
<text text-anchor="start" x="310.5" y="-148.8" font-family="Helvetica,sans-Serif" font-size="11.00" fill="#000000">rev_id</text>
<polygon fill="none" stroke="#000000" points="281.5,-119.7 281.5,-141.7 541.5,-141.7 541.5,-119.7 281.5,-119.7"/>
<image xlink:href="../../images/primaryKeys.png" width="11px" height="12px" preserveAspectRatio="xMinYMin meet" x="286.5" y="-136.7"/>
<text text-anchor="start" x="310.5" y="-126.8" font-family="Helvetica,sans-Serif" font-size="11.00" fill="#000000">id</text>
<polygon fill="#ffffff" stroke="transparent" points="281.5,-97.7 281.5,-119.7 541.5,-119.7 541.5,-97.7 281.5,-97.7"/>
<polygon fill="none" stroke="#000000" points="281.5,-97.7 281.5,-119.7 541.5,-119.7 541.5,-97.7 281.5,-97.7"/>
<text text-anchor="start" x="310.5" y="-104.8" font-family="Helvetica,sans-Serif" font-size="11.00" fill="#000000">template_id</text>
<polygon fill="#ffffff" stroke="transparent" points="281.5,-75.7 281.5,-97.7 541.5,-97.7 541.5,-75.7 281.5,-75.7"/>
<polygon fill="none" stroke="#000000" points="281.5,-75.7 281.5,-97.7 541.5,-97.7 541.5,-75.7 281.5,-75.7"/>
<text text-anchor="start" x="310.5" y="-82.8" font-family="Helvetica,sans-Serif" font-size="11.00" fill="#000000">template_group_id</text>
<polygon fill="none" stroke="#000000" points="281.5,-56.7 281.5,-75.7 541.5,-75.7 541.5,-56.7 281.5,-56.7"/>
<text text-anchor="start" x="284.5" y="-62.8" font-family="Helvetica,sans-Serif" font-size="11.00" fill="#000000">...</text>
<polygon fill="#ffffff" stroke="transparent" points="281.5,-37.7 281.5,-56.7 409.5,-56.7 409.5,-37.7 281.5,-37.7"/>
<polygon fill="none" stroke="#000000" points="281.5,-37.7 281.5,-56.7 409.5,-56.7 409.5,-37.7 281.5,-37.7"/>
<text text-anchor="start" x="284.5" y="-43.8" font-family="Helvetica,sans-Serif" font-size="11.00" fill="#000000">&lt; 1</text>
<polygon fill="#ffffff" stroke="transparent" points="409.5,-37.7 409.5,-56.7 475.5,-56.7 475.5,-37.7 409.5,-37.7"/>
<polygon fill="none" stroke="#000000" points="409.5,-37.7 409.5,-56.7 475.5,-56.7 475.5,-37.7 409.5,-37.7"/>
<text text-anchor="start" x="466.3862" y="-43.8" font-family="Helvetica,sans-Serif" font-size="11.00" fill="#000000"> &#160;</text>
<polygon fill="#ffffff" stroke="transparent" points="475.5,-37.7 475.5,-56.7 541.5,-56.7 541.5,-37.7 475.5,-37.7"/>
<polygon fill="none" stroke="#000000" points="475.5,-37.7 475.5,-56.7 541.5,-56.7 541.5,-37.7 475.5,-37.7"/>
<text text-anchor="start" x="532.3862" y="-43.8" font-family="Helvetica,sans-Serif" font-size="11.00" fill="#000000"> &#160;</text>
</a>
</g>
</g>
<!-- document_template_group_audit&#45;&gt;audit_revision -->
<g id="edge3" class="edge">
<title>document_template_group_audit:w&#45;&gt;audit_revision:e</title>
<path fill="none" stroke="#000000" d="M266.9488,-155.1032C213.3412,-175.7658 291.7025,-322.7 216.5,-322.7"/>
<polygon fill="#000000" stroke="#000000" points="273.6069,-154.0036 282.0866,-156.2519 277.5535,-153.3518 281.5,-152.7 281.5,-152.7 281.5,-152.7 277.5535,-153.3518 280.9134,-149.1481 273.6069,-154.0036 273.6069,-154.0036"/>
<ellipse fill="none" stroke="#000000" cx="270.4497" cy="-154.5251" rx="3.2" ry="3.2"/>
</g>
<!-- document_template_variable_audit -->
<g id="node5" class="node">
<title>document_template_variable_audit</title>
<g id="a_node5"><a xlink:href="../../tables/document_template_variable_audit.html" xlink:title="document_template_variable_audit" target="_top">
<polygon fill="#ffffff" stroke="transparent" points="274,-208.2 274,-357.2 549,-357.2 549,-208.2 274,-208.2"/>
<polygon fill="#f5f5f5" stroke="transparent" points="274.5,-333.7 274.5,-356.7 549.5,-356.7 549.5,-333.7 274.5,-333.7"/>
<polygon fill="none" stroke="#000000" points="274.5,-333.7 274.5,-356.7 549.5,-356.7 549.5,-333.7 274.5,-333.7"/>
<text text-anchor="start" x="279.5" y="-342.3" font-family="Helvetica,sans-Serif" font-weight="bold" font-size="11.00" fill="#000000">document_template_variable_audit</text>
<text text-anchor="start" x="515.0219" y="-341.8" font-family="Helvetica,sans-Serif" font-size="11.00" fill="#000000">[table]</text>
<polygon fill="none" stroke="#000000" points="274.5,-311.7 274.5,-333.7 549.5,-333.7 549.5,-311.7 274.5,-311.7"/>
<image xlink:href="../../images/primaryKeys.png" width="11px" height="12px" preserveAspectRatio="xMinYMin meet" x="279.5" y="-328.7"/>
<text text-anchor="start" x="303.5" y="-318.8" font-family="Helvetica,sans-Serif" font-size="11.00" fill="#000000">rev_id</text>
<polygon fill="none" stroke="#000000" points="274.5,-289.7 274.5,-311.7 549.5,-311.7 549.5,-289.7 274.5,-289.7"/>
<image xlink:href="../../images/primaryKeys.png" width="11px" height="12px" preserveAspectRatio="xMinYMin meet" x="279.5" y="-306.7"/>
<text text-anchor="start" x="303.5" y="-296.8" font-family="Helvetica,sans-Serif" font-size="11.00" fill="#000000">id</text>
<polygon fill="#ffffff" stroke="transparent" points="274.5,-267.7 274.5,-289.7 549.5,-289.7 549.5,-267.7 274.5,-267.7"/>
<polygon fill="none" stroke="#000000" points="274.5,-267.7 274.5,-289.7 549.5,-289.7 549.5,-267.7 274.5,-267.7"/>
<text text-anchor="start" x="303.5" y="-274.8" font-family="Helvetica,sans-Serif" font-size="11.00" fill="#000000">template_id</text>
<polygon fill="#ffffff" stroke="transparent" points="274.5,-245.7 274.5,-267.7 549.5,-267.7 549.5,-245.7 274.5,-245.7"/>
<polygon fill="none" stroke="#000000" points="274.5,-245.7 274.5,-267.7 549.5,-267.7 549.5,-245.7 274.5,-245.7"/>
<text text-anchor="start" x="303.5" y="-252.8" font-family="Helvetica,sans-Serif" font-size="11.00" fill="#000000">variable_id</text>
<polygon fill="none" stroke="#000000" points="274.5,-226.7 274.5,-245.7 549.5,-245.7 549.5,-226.7 274.5,-226.7"/>
<text text-anchor="start" x="277.5" y="-232.8" font-family="Helvetica,sans-Serif" font-size="11.00" fill="#000000">...</text>
<polygon fill="#ffffff" stroke="transparent" points="274.5,-207.7 274.5,-226.7 410.5,-226.7 410.5,-207.7 274.5,-207.7"/>
<polygon fill="none" stroke="#000000" points="274.5,-207.7 274.5,-226.7 410.5,-226.7 410.5,-207.7 274.5,-207.7"/>
<text text-anchor="start" x="277.5" y="-213.8" font-family="Helvetica,sans-Serif" font-size="11.00" fill="#000000">&lt; 1</text>
<polygon fill="#ffffff" stroke="transparent" points="410.5,-207.7 410.5,-226.7 479.5,-226.7 479.5,-207.7 410.5,-207.7"/>
<polygon fill="none" stroke="#000000" points="410.5,-207.7 410.5,-226.7 479.5,-226.7 479.5,-207.7 410.5,-207.7"/>
<text text-anchor="start" x="470.3862" y="-213.8" font-family="Helvetica,sans-Serif" font-size="11.00" fill="#000000"> &#160;</text>
<polygon fill="#ffffff" stroke="transparent" points="479.5,-207.7 479.5,-226.7 549.5,-226.7 549.5,-207.7 479.5,-207.7"/>
<polygon fill="none" stroke="#000000" points="479.5,-207.7 479.5,-226.7 549.5,-226.7 549.5,-207.7 479.5,-207.7"/>
<text text-anchor="start" x="540.3862" y="-213.8" font-family="Helvetica,sans-Serif" font-size="11.00" fill="#000000"> &#160;</text>
</a>
</g>
</g>
<!-- document_template_variable_audit&#45;&gt;audit_revision -->
<g id="edge4" class="edge">
<title>document_template_variable_audit:w&#45;&gt;audit_revision:e</title>
<path fill="none" stroke="#000000" d="M259.954,-322.7C244.9776,-322.7 236.6389,-322.7 216.5,-322.7"/>
<polygon fill="#000000" stroke="#000000" points="266.5,-322.7001 274.5,-326.3 270.5,-322.7 274.5,-322.7 274.5,-322.7 274.5,-322.7 270.5,-322.7 274.5,-319.1 266.5,-322.7001 266.5,-322.7001"/>
<ellipse fill="none" stroke="#000000" cx="263.3" cy="-322.7001" rx="3.2" ry="3.2"/>
</g>
</g>
</svg>
