<?xml version="1.0" encoding="UTF-8" standalone="no"?>
<!DOCTYPE svg PUBLIC "-//W3C//DTD SVG 1.1//EN"
 "http://www.w3.org/Graphics/SVG/1.1/DTD/svg11.dtd">
<!-- Generated by graphviz version 2.40.1 (20161225.0304)
 -->
<!-- Title: twoDegreesRelationshipsDiagramImplied Pages: 1 -->
<svg width="826pt" height="347pt"
 viewBox="0.00 0.00 826.00 347.20" xmlns="http://www.w3.org/2000/svg" xmlns:xlink="http://www.w3.org/1999/xlink">
<g id="graph0" class="graph" transform="scale(1 1) rotate(0) translate(4 343.2)">
<title>twoDegreesRelationshipsDiagramImplied</title>
<polygon fill="#ffffff" stroke="transparent" points="-4,4 -4,-343.2 822,-343.2 822,4 -4,4"/>
<text text-anchor="middle" x="72.4936" y="-7.3" font-family="Helvetica,sans-Serif" font-size="11.00" fill="#000000">Generated by SchemaSpy</text>
<!-- document_template -->
<g id="node1" class="node">
<title>document_template</title>
<g id="a_node1"><a xlink:href="../../tables/document_template.html" xlink:title="document_template" target="_top">
<polygon fill="#ffffff" stroke="transparent" points="274,-208.2 274,-335.2 447,-335.2 447,-208.2 274,-208.2"/>
<polygon fill="#f5f5f5" stroke="transparent" points="274.5,-311.7 274.5,-334.7 447.5,-334.7 447.5,-311.7 274.5,-311.7"/>
<polygon fill="none" stroke="#000000" points="274.5,-311.7 274.5,-334.7 447.5,-334.7 447.5,-311.7 274.5,-311.7"/>
<text text-anchor="start" x="279.5" y="-320.3" font-family="Helvetica,sans-Serif" font-weight="bold" font-size="11.00" fill="#000000">document_template</text>
<text text-anchor="start" x="413.0219" y="-319.8" font-family="Helvetica,sans-Serif" font-size="11.00" fill="#000000">[table]</text>
<polygon fill="none" stroke="#000000" points="274.5,-289.7 274.5,-311.7 447.5,-311.7 447.5,-289.7 274.5,-289.7"/>
<image xlink:href="../../images/primaryKeys.png" width="11px" height="12px" preserveAspectRatio="xMinYMin meet" x="279.5" y="-306.7"/>
<text text-anchor="start" x="303.5" y="-296.8" font-family="Helvetica,sans-Serif" font-size="11.00" fill="#000000">id</text>
<polygon fill="#ffffff" stroke="transparent" points="274.5,-267.7 274.5,-289.7 447.5,-289.7 447.5,-267.7 274.5,-267.7"/>
<polygon fill="none" stroke="#000000" points="274.5,-267.7 274.5,-289.7 447.5,-289.7 447.5,-267.7 274.5,-267.7"/>
<image xlink:href="../../images/foreignKeys.png" width="11px" height="12px" preserveAspectRatio="xMinYMin meet" x="279.5" y="-284.7"/>
<text text-anchor="start" x="303.5" y="-274.8" font-family="Helvetica,sans-Serif" font-size="11.00" fill="#000000">code</text>
<polygon fill="#ffffff" stroke="transparent" points="274.5,-245.7 274.5,-267.7 447.5,-267.7 447.5,-245.7 274.5,-245.7"/>
<polygon fill="none" stroke="#000000" points="274.5,-245.7 274.5,-267.7 447.5,-267.7 447.5,-245.7 274.5,-245.7"/>
<text text-anchor="start" x="303.5" y="-252.8" font-family="Helvetica,sans-Serif" font-size="11.00" fill="#000000">external_reference</text>
<polygon fill="none" stroke="#000000" points="274.5,-226.7 274.5,-245.7 447.5,-245.7 447.5,-226.7 274.5,-226.7"/>
<text text-anchor="start" x="277.5" y="-232.8" font-family="Helvetica,sans-Serif" font-size="11.00" fill="#000000">...</text>
<polygon fill="#ffffff" stroke="transparent" points="274.5,-207.7 274.5,-226.7 354.5,-226.7 354.5,-207.7 274.5,-207.7"/>
<polygon fill="none" stroke="#000000" points="274.5,-207.7 274.5,-226.7 354.5,-226.7 354.5,-207.7 274.5,-207.7"/>
<text text-anchor="start" x="277.5" y="-213.8" font-family="Helvetica,sans-Serif" font-size="11.00" fill="#000000">&lt; 1</text>
<polygon fill="#ffffff" stroke="transparent" points="354.5,-207.7 354.5,-226.7 396.5,-226.7 396.5,-207.7 354.5,-207.7"/>
<polygon fill="none" stroke="#000000" points="354.5,-207.7 354.5,-226.7 396.5,-226.7 396.5,-207.7 354.5,-207.7"/>
<text text-anchor="start" x="387.3862" y="-213.8" font-family="Helvetica,sans-Serif" font-size="11.00" fill="#000000"> &#160;</text>
<polygon fill="#ffffff" stroke="transparent" points="396.5,-207.7 396.5,-226.7 447.5,-226.7 447.5,-207.7 396.5,-207.7"/>
<polygon fill="none" stroke="#000000" points="396.5,-207.7 396.5,-226.7 447.5,-226.7 447.5,-207.7 396.5,-207.7"/>
<text text-anchor="start" x="428.9053" y="-213.8" font-family="Helvetica,sans-Serif" font-size="11.00" fill="#000000">2 &gt;</text>
</a>
</g>
</g>
<!-- template_variable_domain -->
<g id="node2" class="node">
<title>template_variable_domain</title>
<g id="a_node2"><a xlink:href="../../tables/template_variable_domain.html" xlink:title="template_variable_domain" target="_top">
<polygon fill="#ffffff" stroke="transparent" points="8,-103.2 8,-164.2 225,-164.2 225,-103.2 8,-103.2"/>
<polygon fill="#f5f5f5" stroke="transparent" points="8.5,-140.7 8.5,-163.7 225.5,-163.7 225.5,-140.7 8.5,-140.7"/>
<polygon fill="none" stroke="#000000" points="8.5,-140.7 8.5,-163.7 225.5,-163.7 225.5,-140.7 8.5,-140.7"/>
<text text-anchor="start" x="13.5" y="-149.3" font-family="Helvetica,sans-Serif" font-weight="bold" font-size="11.00" fill="#000000">template_variable_domain</text>
<text text-anchor="start" x="191.0219" y="-148.8" font-family="Helvetica,sans-Serif" font-size="11.00" fill="#000000">[table]</text>
<polygon fill="none" stroke="#000000" points="8.5,-121.7 8.5,-140.7 225.5,-140.7 225.5,-121.7 8.5,-121.7"/>
<text text-anchor="start" x="11.5" y="-127.8" font-family="Helvetica,sans-Serif" font-size="11.00" fill="#000000">...</text>
<polygon fill="#ffffff" stroke="transparent" points="8.5,-102.7 8.5,-121.7 106.5,-121.7 106.5,-102.7 8.5,-102.7"/>
<polygon fill="none" stroke="#000000" points="8.5,-102.7 8.5,-121.7 106.5,-121.7 106.5,-102.7 8.5,-102.7"/>
<text text-anchor="start" x="11.5" y="-108.8" font-family="Helvetica,sans-Serif" font-size="11.00" fill="#000000"> &#160;</text>
<polygon fill="#ffffff" stroke="transparent" points="106.5,-102.7 106.5,-121.7 161.5,-121.7 161.5,-102.7 106.5,-102.7"/>
<polygon fill="none" stroke="#000000" points="106.5,-102.7 106.5,-121.7 161.5,-121.7 161.5,-102.7 106.5,-102.7"/>
<text text-anchor="start" x="152.3862" y="-108.8" font-family="Helvetica,sans-Serif" font-size="11.00" fill="#000000"> &#160;</text>
<polygon fill="#ffffff" stroke="transparent" points="161.5,-102.7 161.5,-121.7 225.5,-121.7 225.5,-102.7 161.5,-102.7"/>
<polygon fill="none" stroke="#000000" points="161.5,-102.7 161.5,-121.7 225.5,-121.7 225.5,-102.7 161.5,-102.7"/>
<text text-anchor="start" x="206.9053" y="-108.8" font-family="Helvetica,sans-Serif" font-size="11.00" fill="#000000">5 &gt;</text>
</a>
</g>
</g>
<!-- document_template&#45;&gt;template_variable_domain -->
<g id="edge1" class="edge">
<title>document_template:w&#45;&gt;template_variable_domain:e</title>
<path fill="none" stroke="#000000" stroke-dasharray="5,2" d="M263.8926,-277.2352C215.1629,-261.8644 290.7292,-130.7 225.5,-130.7"/>
<polygon fill="#000000" stroke="#000000" points="274.2547,-274.6282 273.1603,-282.553 271.5753,-282.3341 272.6698,-274.4093 274.2547,-274.6282"/>
<polyline fill="none" stroke="#000000" points="274.5,-278.7 270.5376,-278.1528 "/>
<ellipse fill="none" stroke="#000000" cx="267.3677" cy="-277.715" rx="3.2" ry="3.2"/>
</g>
<!-- document_template_group -->
<g id="node3" class="node">
<title>document_template_group</title>
<g id="a_node3"><a xlink:href="../../tables/document_template_group.html" xlink:title="document_template_group" target="_top">
<polygon fill="#ffffff" stroke="transparent" points="543.5,-273.2 543.5,-334.2 762.5,-334.2 762.5,-273.2 543.5,-273.2"/>
<polygon fill="#f5f5f5" stroke="transparent" points="544,-310.7 544,-333.7 763,-333.7 763,-310.7 544,-310.7"/>
<polygon fill="none" stroke="#000000" points="544,-310.7 544,-333.7 763,-333.7 763,-310.7 544,-310.7"/>
<text text-anchor="start" x="549" y="-319.3" font-family="Helvetica,sans-Serif" font-weight="bold" font-size="11.00" fill="#000000">document_template_group</text>
<text text-anchor="start" x="728.5219" y="-318.8" font-family="Helvetica,sans-Serif" font-size="11.00" fill="#000000">[table]</text>
<polygon fill="none" stroke="#000000" points="544,-291.7 544,-310.7 763,-310.7 763,-291.7 544,-291.7"/>
<text text-anchor="start" x="547" y="-297.8" font-family="Helvetica,sans-Serif" font-size="11.00" fill="#000000">...</text>
<polygon fill="#ffffff" stroke="transparent" points="544,-272.7 544,-291.7 652,-291.7 652,-272.7 544,-272.7"/>
<polygon fill="none" stroke="#000000" points="544,-272.7 544,-291.7 652,-291.7 652,-272.7 544,-272.7"/>
<text text-anchor="start" x="547" y="-278.8" font-family="Helvetica,sans-Serif" font-size="11.00" fill="#000000">&lt; 2</text>
<polygon fill="#ffffff" stroke="transparent" points="652,-272.7 652,-291.7 707,-291.7 707,-272.7 652,-272.7"/>
<polygon fill="none" stroke="#000000" points="652,-272.7 652,-291.7 707,-291.7 707,-272.7 652,-272.7"/>
<text text-anchor="start" x="697.8862" y="-278.8" font-family="Helvetica,sans-Serif" font-size="11.00" fill="#000000"> &#160;</text>
<polygon fill="#ffffff" stroke="transparent" points="707,-272.7 707,-291.7 763,-291.7 763,-272.7 707,-272.7"/>
<polygon fill="none" stroke="#000000" points="707,-272.7 707,-291.7 763,-291.7 763,-272.7 707,-272.7"/>
<text text-anchor="start" x="753.8862" y="-278.8" font-family="Helvetica,sans-Serif" font-size="11.00" fill="#000000"> &#160;</text>
</a>
</g>
</g>
<!-- document_template_group&#45;&gt;document_template -->
<g id="edge2" class="edge">
<title>document_template_group:w&#45;&gt;document_template:e</title>
<path fill="none" stroke="#000000" d="M529.2988,-300.7C497.928,-300.7 485.0278,-300.7 447.5,-300.7"/>
<polygon fill="#000000" stroke="#000000" points="536,-300.7001 544,-304.3 540,-300.7 544,-300.7 544,-300.7 544,-300.7 540,-300.7 544,-297.1 536,-300.7001 536,-300.7001"/>
<ellipse fill="none" stroke="#000000" cx="532.8" cy="-300.7001" rx="3.2" ry="3.2"/>
</g>
<!-- document_template_variable -->
<g id="node4" class="node">
<title>document_template_variable</title>
<g id="a_node4"><a xlink:href="../../tables/document_template_variable.html" xlink:title="document_template_variable" target="_top">
<polygon fill="#ffffff" stroke="transparent" points="496,-108.7 496,-242.7 810,-242.7 810,-108.7 496,-108.7"/>
<polygon fill="#f5f5f5" stroke="transparent" points="498,-217.7 498,-240.7 808,-240.7 808,-217.7 498,-217.7"/>
<polygon fill="none" stroke="#000000" points="498,-217.7 498,-240.7 808,-240.7 808,-217.7 498,-217.7"/>
<text text-anchor="start" x="503" y="-226.3" font-family="Helvetica,sans-Serif" font-weight="bold" font-size="11.00" fill="#000000">document_template_variable</text>
<text text-anchor="start" x="773.0437" y="-225.8" font-family="Helvetica,sans-Serif" font-size="11.00" fill="#000000">[table]</text>
<polygon fill="none" stroke="#000000" points="498,-195.7 498,-217.7 714,-217.7 714,-195.7 498,-195.7"/>
<image xlink:href="../../images/primaryKeys.png" width="11px" height="12px" preserveAspectRatio="xMinYMin meet" x="503" y="-212.7"/>
<text text-anchor="start" x="518" y="-202.8" font-family="Helvetica,sans-Serif" font-size="11.00" fill="#000000">id</text>
<polygon fill="none" stroke="#000000" points="714,-195.7 714,-217.7 808,-217.7 808,-195.7 714,-195.7"/>
<text text-anchor="start" x="716.9758" y="-203.4" font-family="Helvetica,sans-Serif" font-size="11.00" fill="#000000">uuid[2147483647]</text>
<polygon fill="#ffffff" stroke="transparent" points="498,-173.7 498,-195.7 714,-195.7 714,-173.7 498,-173.7"/>
<polygon fill="none" stroke="#000000" points="498,-173.7 498,-195.7 714,-195.7 714,-173.7 498,-173.7"/>
<image xlink:href="../../images/foreignKeys.png" width="11px" height="12px" preserveAspectRatio="xMinYMin meet" x="503" y="-190.7"/>
<text text-anchor="start" x="518" y="-180.8" font-family="Helvetica,sans-Serif" font-size="11.00" fill="#000000">template_id</text>
<polygon fill="none" stroke="#000000" points="714,-173.7 714,-195.7 808,-195.7 808,-173.7 714,-173.7"/>
<text text-anchor="start" x="716.9758" y="-181.4" font-family="Helvetica,sans-Serif" font-size="11.00" fill="#000000">uuid[2147483647]</text>
<polygon fill="#ffffff" stroke="transparent" points="498,-151.7 498,-173.7 714,-173.7 714,-151.7 498,-151.7"/>
<polygon fill="none" stroke="#000000" points="498,-151.7 498,-173.7 714,-173.7 714,-151.7 498,-151.7"/>
<image xlink:href="../../images/foreignKeys.png" width="11px" height="12px" preserveAspectRatio="xMinYMin meet" x="503" y="-168.7"/>
<text text-anchor="start" x="518" y="-158.8" font-family="Helvetica,sans-Serif" font-size="11.00" fill="#000000">variable_id</text>
<polygon fill="none" stroke="#000000" points="714,-151.7 714,-173.7 808,-173.7 808,-151.7 714,-151.7"/>
<text text-anchor="start" x="716.9758" y="-159.4" font-family="Helvetica,sans-Serif" font-size="11.00" fill="#000000">uuid[2147483647]</text>
<polygon fill="none" stroke="#000000" points="498,-129.7 498,-151.7 714,-151.7 714,-129.7 498,-129.7"/>
<text text-anchor="start" x="518" y="-136.8" font-family="Helvetica,sans-Serif" font-size="11.00" fill="#000000">mandatory</text>
<polygon fill="none" stroke="#000000" points="714,-129.7 714,-151.7 808,-151.7 808,-129.7 714,-129.7"/>
<text text-anchor="start" x="717" y="-137.4" font-family="Helvetica,sans-Serif" font-size="11.00" fill="#000000">bool[1]</text>
<polygon fill="#ffffff" stroke="transparent" points="498,-110.7 498,-129.7 610,-129.7 610,-110.7 498,-110.7"/>
<polygon fill="none" stroke="#000000" points="498,-110.7 498,-129.7 610,-129.7 610,-110.7 498,-110.7"/>
<text text-anchor="start" x="501" y="-116.8" font-family="Helvetica,sans-Serif" font-size="11.00" fill="#000000">&lt; 2</text>
<polygon fill="#ffffff" stroke="transparent" points="610,-110.7 610,-129.7 714,-129.7 714,-110.7 610,-110.7"/>
<polygon fill="none" stroke="#000000" points="610,-110.7 610,-129.7 714,-129.7 714,-110.7 610,-110.7"/>
<text text-anchor="start" x="704.8862" y="-116.8" font-family="Helvetica,sans-Serif" font-size="11.00" fill="#000000"> &#160;</text>
<polygon fill="#ffffff" stroke="transparent" points="714,-110.7 714,-129.7 808,-129.7 808,-110.7 714,-110.7"/>
<polygon fill="none" stroke="#000000" points="714,-110.7 714,-129.7 808,-129.7 808,-110.7 714,-110.7"/>
<text text-anchor="start" x="789.4053" y="-116.8" font-family="Helvetica,sans-Serif" font-size="11.00" fill="#000000">0 &gt;</text>
<polygon fill="none" stroke="#000000" stroke-width="2" points="497,-109.7 497,-241.7 809,-241.7 809,-109.7 497,-109.7"/>
</a>
</g>
</g>
<!-- document_template_variable&#45;&gt;document_template -->
<g id="edge3" class="edge">
<title>document_template_variable:w&#45;&gt;document_template:e</title>
<path fill="none" stroke="#000000" d="M483.8754,-188.2989C453.5254,-207.8784 497.7988,-300.7 447.5,-300.7"/>
<polygon fill="#000000" stroke="#000000" points="490.2477,-186.6753 498.8889,-188.1885 494.1238,-185.6876 498,-184.7 498,-184.7 498,-184.7 494.1238,-185.6876 497.1111,-181.2115 490.2477,-186.6753 490.2477,-186.6753"/>
<ellipse fill="none" stroke="#000000" cx="487.1468" cy="-187.4654" rx="3.2" ry="3.2"/>
</g>
<!-- template_variable -->
<g id="node5" class="node">
<title>template_variable</title>
<g id="a_node5"><a xlink:href="../../tables/template_variable.html" xlink:title="template_variable" target="_top">
<polygon fill="#ffffff" stroke="transparent" points="280.5,-38.2 280.5,-187.2 440.5,-187.2 440.5,-38.2 280.5,-38.2"/>
<polygon fill="#f5f5f5" stroke="transparent" points="280.5,-163.7 280.5,-186.7 440.5,-186.7 440.5,-163.7 280.5,-163.7"/>
<polygon fill="none" stroke="#000000" points="280.5,-163.7 280.5,-186.7 440.5,-186.7 440.5,-163.7 280.5,-163.7"/>
<text text-anchor="start" x="285.5" y="-172.3" font-family="Helvetica,sans-Serif" font-weight="bold" font-size="11.00" fill="#000000">template_variable</text>
<text text-anchor="start" x="406.0219" y="-171.8" font-family="Helvetica,sans-Serif" font-size="11.00" fill="#000000">[table]</text>
<polygon fill="none" stroke="#000000" points="280.5,-141.7 280.5,-163.7 440.5,-163.7 440.5,-141.7 280.5,-141.7"/>
<image xlink:href="../../images/primaryKeys.png" width="11px" height="12px" preserveAspectRatio="xMinYMin meet" x="285.5" y="-158.7"/>
<text text-anchor="start" x="309.5" y="-148.8" font-family="Helvetica,sans-Serif" font-size="11.00" fill="#000000">id</text>
<polygon fill="#ffffff" stroke="transparent" points="280.5,-119.7 280.5,-141.7 440.5,-141.7 440.5,-119.7 280.5,-119.7"/>
<polygon fill="none" stroke="#000000" points="280.5,-119.7 280.5,-141.7 440.5,-141.7 440.5,-119.7 280.5,-119.7"/>
<image xlink:href="../../images/foreignKeys.png" width="11px" height="12px" preserveAspectRatio="xMinYMin meet" x="285.5" y="-136.7"/>
<text text-anchor="start" x="309.5" y="-126.8" font-family="Helvetica,sans-Serif" font-size="11.00" fill="#000000">domain</text>
<polygon fill="#ffffff" stroke="transparent" points="280.5,-97.7 280.5,-119.7 440.5,-119.7 440.5,-97.7 280.5,-97.7"/>
<polygon fill="none" stroke="#000000" points="280.5,-97.7 280.5,-119.7 440.5,-119.7 440.5,-97.7 280.5,-97.7"/>
<image xlink:href="../../images/foreignKeys.png" width="11px" height="12px" preserveAspectRatio="xMinYMin meet" x="285.5" y="-114.7"/>
<text text-anchor="start" x="309.5" y="-104.8" font-family="Helvetica,sans-Serif" font-size="11.00" fill="#000000">code</text>
<polygon fill="#ffffff" stroke="transparent" points="280.5,-75.7 280.5,-97.7 440.5,-97.7 440.5,-75.7 280.5,-75.7"/>
<polygon fill="none" stroke="#000000" points="280.5,-75.7 280.5,-97.7 440.5,-97.7 440.5,-75.7 280.5,-75.7"/>
<text text-anchor="start" x="309.5" y="-82.8" font-family="Helvetica,sans-Serif" font-size="11.00" fill="#000000">sequence_number</text>
<polygon fill="none" stroke="#000000" points="280.5,-56.7 280.5,-75.7 440.5,-75.7 440.5,-56.7 280.5,-56.7"/>
<text text-anchor="start" x="283.5" y="-62.8" font-family="Helvetica,sans-Serif" font-size="11.00" fill="#000000">...</text>
<polygon fill="#ffffff" stroke="transparent" points="280.5,-37.7 280.5,-56.7 354.5,-56.7 354.5,-37.7 280.5,-37.7"/>
<polygon fill="none" stroke="#000000" points="280.5,-37.7 280.5,-56.7 354.5,-56.7 354.5,-37.7 280.5,-37.7"/>
<text text-anchor="start" x="283.5" y="-43.8" font-family="Helvetica,sans-Serif" font-size="11.00" fill="#000000">&lt; 2</text>
<polygon fill="#ffffff" stroke="transparent" points="354.5,-37.7 354.5,-56.7 392.5,-56.7 392.5,-37.7 354.5,-37.7"/>
<polygon fill="none" stroke="#000000" points="354.5,-37.7 354.5,-56.7 392.5,-56.7 392.5,-37.7 354.5,-37.7"/>
<text text-anchor="start" x="383.3862" y="-43.8" font-family="Helvetica,sans-Serif" font-size="11.00" fill="#000000"> &#160;</text>
<polygon fill="#ffffff" stroke="transparent" points="392.5,-37.7 392.5,-56.7 440.5,-56.7 440.5,-37.7 392.5,-37.7"/>
<polygon fill="none" stroke="#000000" points="392.5,-37.7 392.5,-56.7 440.5,-56.7 440.5,-37.7 392.5,-37.7"/>
<text text-anchor="start" x="421.9053" y="-43.8" font-family="Helvetica,sans-Serif" font-size="11.00" fill="#000000">1 &gt;</text>
</a>
</g>
</g>
<!-- document_template_variable&#45;&gt;template_variable -->
<g id="edge4" class="edge">
<title>document_template_variable:w&#45;&gt;template_variable:e</title>
<path fill="none" stroke="#000000" d="M483.4688,-161.4738C468.6291,-158.8035 460.765,-152.7 440.5,-152.7"/>
<polygon fill="#000000" stroke="#000000" points="490.0283,-162.0273 497.6973,-166.2873 494.0142,-162.3636 498,-162.7 498,-162.7 498,-162.7 494.0142,-162.3636 498.3027,-159.1127 490.0283,-162.0273 490.0283,-162.0273"/>
<ellipse fill="none" stroke="#000000" cx="486.8397" cy="-161.7582" rx="3.2" ry="3.2"/>
</g>
<!-- template_variable&#45;&gt;template_variable_domain -->
<g id="edge5" class="edge">
<title>template_variable:w&#45;&gt;template_variable_domain:e</title>
<path fill="none" stroke="#000000" stroke-dasharray="5,2" d="M269.7326,-110.1435C252.8542,-115.0379 247.7138,-130.7 225.5,-130.7"/>
<polygon fill="#000000" stroke="#000000" points="279.1756,-104.8418 280.2386,-112.7708 278.6528,-112.9834 277.5898,-105.0544 279.1756,-104.8418"/>
<polyline fill="none" stroke="#000000" points="280.5,-108.7 276.5355,-109.2315 "/>
<ellipse fill="none" stroke="#000000" cx="273.3638" cy="-109.6567" rx="3.2" ry="3.2"/>
</g>
<!-- template_variable&#45;&gt;template_variable_domain -->
<g id="edge6" class="edge">
<title>template_variable:w&#45;&gt;template_variable_domain:e</title>
<path fill="none" stroke="#000000" d="M265.8617,-130.7C252.1839,-130.7 244.2153,-130.7 225.5,-130.7"/>
<polygon fill="#000000" stroke="#000000" points="272.5,-130.7001 280.5,-134.3 276.5,-130.7 280.5,-130.7 280.5,-130.7 280.5,-130.7 276.5,-130.7 280.5,-127.1 272.5,-130.7001 272.5,-130.7001"/>
<ellipse fill="none" stroke="#000000" cx="269.3" cy="-130.7001" rx="3.2" ry="3.2"/>
</g>
</g>
</svg>
