<?xml version="1.0" encoding="UTF-8" standalone="no"?>
<!DOCTYPE svg PUBLIC "-//W3C//DTD SVG 1.1//EN"
 "http://www.w3.org/Graphics/SVG/1.1/DTD/svg11.dtd">
<!-- Generated by graphviz version 2.40.1 (20161225.0304)
 -->
<!-- Title: oneDegreeRelationshipsDiagramImplied Pages: 1 -->
<svg width="584pt" height="290pt"
 viewBox="0.00 0.00 584.00 289.70" xmlns="http://www.w3.org/2000/svg" xmlns:xlink="http://www.w3.org/1999/xlink">
<g id="graph0" class="graph" transform="scale(1 1) rotate(0) translate(4 285.7)">
<title>oneDegreeRelationshipsDiagramImplied</title>
<polygon fill="#ffffff" stroke="transparent" points="-4,4 -4,-285.7 580,-285.7 580,4 -4,4"/>
<text text-anchor="middle" x="72.4936" y="-7.3" font-family="Helvetica,sans-Serif" font-size="11.00" fill="#000000">Generated by SchemaSpy</text>
<!-- document_template_audit -->
<g id="node1" class="node">
<title>document_template_audit</title>
<g id="a_node1"><a xlink:href="../../tables/document_template_audit.html" xlink:title="document_template_audit" target="_top">
<polygon fill="#ffffff" stroke="transparent" points="274,-38.2 274,-260.2 568,-260.2 568,-38.2 274,-38.2"/>
<polygon fill="#f5f5f5" stroke="transparent" points="276,-235.2 276,-258.2 566,-258.2 566,-235.2 276,-235.2"/>
<polygon fill="none" stroke="#000000" points="276,-235.2 276,-258.2 566,-258.2 566,-235.2 276,-235.2"/>
<text text-anchor="start" x="281" y="-243.8" font-family="Helvetica,sans-Serif" font-weight="bold" font-size="11.00" fill="#000000">document_template_audit</text>
<text text-anchor="start" x="531.0437" y="-243.3" font-family="Helvetica,sans-Serif" font-size="11.00" fill="#000000">[table]</text>
<polygon fill="none" stroke="#000000" points="276,-213.2 276,-235.2 472,-235.2 472,-213.2 276,-213.2"/>
<image xlink:href="../../images/primaryKeys.png" width="11px" height="12px" preserveAspectRatio="xMinYMin meet" x="281" y="-230.2"/>
<text text-anchor="start" x="296" y="-220.3" font-family="Helvetica,sans-Serif" font-size="11.00" fill="#000000">rev_id</text>
<polygon fill="none" stroke="#000000" points="472,-213.2 472,-235.2 566,-235.2 566,-213.2 472,-213.2"/>
<text text-anchor="start" x="475" y="-220.9" font-family="Helvetica,sans-Serif" font-size="11.00" fill="#000000">int8[19]</text>
<polygon fill="none" stroke="#000000" points="276,-191.2 276,-213.2 472,-213.2 472,-191.2 276,-191.2"/>
<text text-anchor="start" x="296" y="-198.3" font-family="Helvetica,sans-Serif" font-size="11.00" fill="#000000">rev_type</text>
<polygon fill="none" stroke="#000000" points="472,-191.2 472,-213.2 566,-213.2 566,-191.2 472,-191.2"/>
<text text-anchor="start" x="475" y="-198.9" font-family="Helvetica,sans-Serif" font-size="11.00" fill="#000000">int2[5]</text>
<polygon fill="none" stroke="#000000" points="276,-169.2 276,-191.2 472,-191.2 472,-169.2 276,-169.2"/>
<image xlink:href="../../images/primaryKeys.png" width="11px" height="12px" preserveAspectRatio="xMinYMin meet" x="281" y="-186.2"/>
<text text-anchor="start" x="296" y="-176.3" font-family="Helvetica,sans-Serif" font-size="11.00" fill="#000000">id</text>
<polygon fill="none" stroke="#000000" points="472,-169.2 472,-191.2 566,-191.2 566,-169.2 472,-169.2"/>
<text text-anchor="start" x="474.9758" y="-176.9" font-family="Helvetica,sans-Serif" font-size="11.00" fill="#000000">uuid[2147483647]</text>
<polygon fill="none" stroke="#000000" points="276,-147.2 276,-169.2 472,-169.2 472,-147.2 276,-147.2"/>
<image xlink:href="../../images/foreignKeys.png" width="11px" height="12px" preserveAspectRatio="xMinYMin meet" x="281" y="-164.2"/>
<text text-anchor="start" x="296" y="-154.3" font-family="Helvetica,sans-Serif" font-size="11.00" fill="#000000">code</text>
<polygon fill="none" stroke="#000000" points="472,-147.2 472,-169.2 566,-169.2 566,-147.2 472,-147.2"/>
<text text-anchor="start" x="475" y="-154.9" font-family="Helvetica,sans-Serif" font-size="11.00" fill="#000000">text[2147483647]</text>
<polygon fill="none" stroke="#000000" points="276,-125.2 276,-147.2 472,-147.2 472,-125.2 276,-125.2"/>
<text text-anchor="start" x="296" y="-132.3" font-family="Helvetica,sans-Serif" font-size="11.00" fill="#000000">name</text>
<polygon fill="none" stroke="#000000" points="472,-125.2 472,-147.2 566,-147.2 566,-125.2 472,-125.2"/>
<text text-anchor="start" x="475" y="-132.9" font-family="Helvetica,sans-Serif" font-size="11.00" fill="#000000">text[2147483647]</text>
<polygon fill="none" stroke="#000000" points="276,-103.2 276,-125.2 472,-125.2 472,-103.2 276,-103.2"/>
<text text-anchor="start" x="296" y="-110.3" font-family="Helvetica,sans-Serif" font-size="11.00" fill="#000000">description</text>
<polygon fill="none" stroke="#000000" points="472,-103.2 472,-125.2 566,-125.2 566,-103.2 472,-103.2"/>
<text text-anchor="start" x="475" y="-110.9" font-family="Helvetica,sans-Serif" font-size="11.00" fill="#000000">text[2147483647]</text>
<polygon fill="none" stroke="#000000" points="276,-81.2 276,-103.2 472,-103.2 472,-81.2 276,-81.2"/>
<text text-anchor="start" x="296" y="-88.3" font-family="Helvetica,sans-Serif" font-size="11.00" fill="#000000">version</text>
<polygon fill="none" stroke="#000000" points="472,-81.2 472,-103.2 566,-103.2 566,-81.2 472,-81.2"/>
<text text-anchor="start" x="475" y="-88.9" font-family="Helvetica,sans-Serif" font-size="11.00" fill="#000000">int4[10]</text>
<polygon fill="#ffffff" stroke="transparent" points="276,-59.2 276,-81.2 472,-81.2 472,-59.2 276,-59.2"/>
<polygon fill="none" stroke="#000000" points="276,-59.2 276,-81.2 472,-81.2 472,-59.2 276,-59.2"/>
<text text-anchor="start" x="296" y="-66.3" font-family="Helvetica,sans-Serif" font-size="11.00" fill="#000000">external_reference</text>
<polygon fill="none" stroke="#000000" points="472,-59.2 472,-81.2 566,-81.2 566,-59.2 472,-59.2"/>
<text text-anchor="start" x="474.9758" y="-66.9" font-family="Helvetica,sans-Serif" font-size="11.00" fill="#000000">uuid[2147483647]</text>
<polygon fill="#ffffff" stroke="transparent" points="276,-40.2 276,-59.2 378,-59.2 378,-40.2 276,-40.2"/>
<polygon fill="none" stroke="#000000" points="276,-40.2 276,-59.2 378,-59.2 378,-40.2 276,-40.2"/>
<text text-anchor="start" x="279" y="-46.3" font-family="Helvetica,sans-Serif" font-size="11.00" fill="#000000">&lt; 2</text>
<polygon fill="#ffffff" stroke="transparent" points="378,-40.2 378,-59.2 472,-59.2 472,-40.2 378,-40.2"/>
<polygon fill="none" stroke="#000000" points="378,-40.2 378,-59.2 472,-59.2 472,-40.2 378,-40.2"/>
<text text-anchor="start" x="462.8862" y="-46.3" font-family="Helvetica,sans-Serif" font-size="11.00" fill="#000000"> &#160;</text>
<polygon fill="#ffffff" stroke="transparent" points="472,-40.2 472,-59.2 566,-59.2 566,-40.2 472,-40.2"/>
<polygon fill="none" stroke="#000000" points="472,-40.2 472,-59.2 566,-59.2 566,-40.2 472,-40.2"/>
<text text-anchor="start" x="547.4053" y="-46.3" font-family="Helvetica,sans-Serif" font-size="11.00" fill="#000000">0 &gt;</text>
<polygon fill="none" stroke="#000000" stroke-width="2" points="275,-39.2 275,-259.2 567,-259.2 567,-39.2 275,-39.2"/>
</a>
</g>
</g>
<!-- template_variable_domain -->
<g id="node2" class="node">
<title>template_variable_domain</title>
<g id="a_node2"><a xlink:href="../../tables/template_variable_domain.html" xlink:title="template_variable_domain" target="_top">
<polygon fill="#ffffff" stroke="transparent" points="8,-68.7 8,-173.7 225,-173.7 225,-68.7 8,-68.7"/>
<polygon fill="#f5f5f5" stroke="transparent" points="8.5,-150.2 8.5,-173.2 225.5,-173.2 225.5,-150.2 8.5,-150.2"/>
<polygon fill="none" stroke="#000000" points="8.5,-150.2 8.5,-173.2 225.5,-173.2 225.5,-150.2 8.5,-150.2"/>
<text text-anchor="start" x="13.5" y="-158.8" font-family="Helvetica,sans-Serif" font-weight="bold" font-size="11.00" fill="#000000">template_variable_domain</text>
<text text-anchor="start" x="191.0219" y="-158.3" font-family="Helvetica,sans-Serif" font-size="11.00" fill="#000000">[table]</text>
<polygon fill="none" stroke="#000000" points="8.5,-128.2 8.5,-150.2 225.5,-150.2 225.5,-128.2 8.5,-128.2"/>
<image xlink:href="../../images/primaryKeys.png" width="11px" height="12px" preserveAspectRatio="xMinYMin meet" x="13.5" y="-145.2"/>
<text text-anchor="start" x="37.5" y="-135.3" font-family="Helvetica,sans-Serif" font-size="11.00" fill="#000000">code</text>
<polygon fill="#ffffff" stroke="transparent" points="8.5,-106.2 8.5,-128.2 225.5,-128.2 225.5,-106.2 8.5,-106.2"/>
<polygon fill="none" stroke="#000000" points="8.5,-106.2 8.5,-128.2 225.5,-128.2 225.5,-106.2 8.5,-106.2"/>
<text text-anchor="start" x="37.5" y="-113.3" font-family="Helvetica,sans-Serif" font-size="11.00" fill="#000000">sequence_number</text>
<polygon fill="none" stroke="#000000" points="8.5,-87.2 8.5,-106.2 225.5,-106.2 225.5,-87.2 8.5,-87.2"/>
<text text-anchor="start" x="11.5" y="-93.3" font-family="Helvetica,sans-Serif" font-size="11.00" fill="#000000">...</text>
<polygon fill="#ffffff" stroke="transparent" points="8.5,-68.2 8.5,-87.2 106.5,-87.2 106.5,-68.2 8.5,-68.2"/>
<polygon fill="none" stroke="#000000" points="8.5,-68.2 8.5,-87.2 106.5,-87.2 106.5,-68.2 8.5,-68.2"/>
<text text-anchor="start" x="11.5" y="-74.3" font-family="Helvetica,sans-Serif" font-size="11.00" fill="#000000"> &#160;</text>
<polygon fill="#ffffff" stroke="transparent" points="106.5,-68.2 106.5,-87.2 161.5,-87.2 161.5,-68.2 106.5,-68.2"/>
<polygon fill="none" stroke="#000000" points="106.5,-68.2 106.5,-87.2 161.5,-87.2 161.5,-68.2 106.5,-68.2"/>
<text text-anchor="start" x="152.3862" y="-74.3" font-family="Helvetica,sans-Serif" font-size="11.00" fill="#000000"> &#160;</text>
<polygon fill="#ffffff" stroke="transparent" points="161.5,-68.2 161.5,-87.2 225.5,-87.2 225.5,-68.2 161.5,-68.2"/>
<polygon fill="none" stroke="#000000" points="161.5,-68.2 161.5,-87.2 225.5,-87.2 225.5,-68.2 161.5,-68.2"/>
<text text-anchor="start" x="206.9053" y="-74.3" font-family="Helvetica,sans-Serif" font-size="11.00" fill="#000000">5 &gt;</text>
</a>
</g>
</g>
<!-- document_template_audit&#45;&gt;template_variable_domain -->
<g id="edge1" class="edge">
<title>document_template_audit:w&#45;&gt;template_variable_domain:e</title>
<path fill="none" stroke="#000000" stroke-dasharray="5,2" d="M261.7405,-155.3965C249.532,-150.1113 243.6727,-139.2 225.5,-139.2"/>
<polygon fill="#000000" stroke="#000000" points="268.1503,-156.6567 275.3055,-161.7324 272.0751,-157.4283 276,-158.2 276,-158.2 276,-158.2 272.0751,-157.4283 276.6945,-154.6676 268.1503,-156.6567 268.1503,-156.6567"/>
<ellipse fill="none" stroke="#000000" cx="265.0104" cy="-156.0393" rx="3.2" ry="3.2"/>
</g>
<!-- audit_revision -->
<g id="node3" class="node">
<title>audit_revision</title>
<g id="a_node3"><a xlink:href="../../tables/audit_revision.html" xlink:title="audit_revision" target="_top">
<polygon fill="#ffffff" stroke="transparent" points="49.5,-194.7 49.5,-277.7 183.5,-277.7 183.5,-194.7 49.5,-194.7"/>
<polygon fill="#f5f5f5" stroke="transparent" points="49.5,-254.2 49.5,-277.2 183.5,-277.2 183.5,-254.2 49.5,-254.2"/>
<polygon fill="none" stroke="#000000" points="49.5,-254.2 49.5,-277.2 183.5,-277.2 183.5,-254.2 49.5,-254.2"/>
<text text-anchor="start" x="54.5" y="-262.8" font-family="Helvetica,sans-Serif" font-weight="bold" font-size="11.00" fill="#000000">audit_revision</text>
<text text-anchor="start" x="149.0219" y="-262.3" font-family="Helvetica,sans-Serif" font-size="11.00" fill="#000000">[table]</text>
<polygon fill="none" stroke="#000000" points="49.5,-232.2 49.5,-254.2 183.5,-254.2 183.5,-232.2 49.5,-232.2"/>
<image xlink:href="../../images/primaryKeys.png" width="11px" height="12px" preserveAspectRatio="xMinYMin meet" x="54.5" y="-249.2"/>
<text text-anchor="start" x="78.5" y="-239.3" font-family="Helvetica,sans-Serif" font-size="11.00" fill="#000000">id</text>
<polygon fill="none" stroke="#000000" points="49.5,-213.2 49.5,-232.2 183.5,-232.2 183.5,-213.2 49.5,-213.2"/>
<text text-anchor="start" x="52.5" y="-219.3" font-family="Helvetica,sans-Serif" font-size="11.00" fill="#000000">...</text>
<polygon fill="#ffffff" stroke="transparent" points="49.5,-194.2 49.5,-213.2 105.5,-213.2 105.5,-194.2 49.5,-194.2"/>
<polygon fill="none" stroke="#000000" points="49.5,-194.2 49.5,-213.2 105.5,-213.2 105.5,-194.2 49.5,-194.2"/>
<text text-anchor="start" x="52.5" y="-200.3" font-family="Helvetica,sans-Serif" font-size="11.00" fill="#000000"> &#160;</text>
<polygon fill="#ffffff" stroke="transparent" points="105.5,-194.2 105.5,-213.2 139.5,-213.2 139.5,-194.2 105.5,-194.2"/>
<polygon fill="none" stroke="#000000" points="105.5,-194.2 105.5,-213.2 139.5,-213.2 139.5,-194.2 105.5,-194.2"/>
<text text-anchor="start" x="130.3862" y="-200.3" font-family="Helvetica,sans-Serif" font-size="11.00" fill="#000000"> &#160;</text>
<polygon fill="#ffffff" stroke="transparent" points="139.5,-194.2 139.5,-213.2 183.5,-213.2 183.5,-194.2 139.5,-194.2"/>
<polygon fill="none" stroke="#000000" points="139.5,-194.2 139.5,-213.2 183.5,-213.2 183.5,-194.2 139.5,-194.2"/>
<text text-anchor="start" x="164.9053" y="-200.3" font-family="Helvetica,sans-Serif" font-size="11.00" fill="#000000">3 &gt;</text>
</a>
</g>
</g>
<!-- document_template_audit&#45;&gt;audit_revision -->
<g id="edge2" class="edge">
<title>document_template_audit:w&#45;&gt;audit_revision:e</title>
<path fill="none" stroke="#000000" d="M261.2919,-225.0658C231.2683,-228.7827 220.0593,-243.2 183.5,-243.2"/>
<polygon fill="#000000" stroke="#000000" points="268.0138,-224.6701 276.2116,-227.7938 272.0069,-224.4351 276,-224.2 276,-224.2 276,-224.2 272.0069,-224.4351 275.7884,-220.6062 268.0138,-224.6701 268.0138,-224.6701"/>
<ellipse fill="none" stroke="#000000" cx="264.8194" cy="-224.8582" rx="3.2" ry="3.2"/>
</g>
</g>
</svg>
