<?xml version="1.0" encoding="UTF-8" standalone="no"?>
<!DOCTYPE svg PUBLIC "-//W3C//DTD SVG 1.1//EN"
 "http://www.w3.org/Graphics/SVG/1.1/DTD/svg11.dtd">
<!-- Generated by graphviz version 2.40.1 (20161225.0304)
 -->
<!-- Title: oneDegreeRelationshipsDiagram Pages: 1 -->
<svg width="545pt" height="303pt"
 viewBox="0.00 0.00 545.00 303.20" xmlns="http://www.w3.org/2000/svg" xmlns:xlink="http://www.w3.org/1999/xlink">
<g id="graph0" class="graph" transform="scale(1 1) rotate(0) translate(4 299.2)">
<title>oneDegreeRelationshipsDiagram</title>
<polygon fill="#ffffff" stroke="transparent" points="-4,4 -4,-299.2 541,-299.2 541,4 -4,4"/>
<text text-anchor="middle" x="72.4936" y="-7.3" font-family="Helvetica,sans-Serif" font-size="11.00" fill="#000000">Generated by SchemaSpy</text>
<!-- document_template_group -->
<g id="node1" class="node">
<title>document_template_group</title>
<g id="a_node1"><a xlink:href="../../tables/document_template_group.html" xlink:title="document_template_group" target="_top">
<polygon fill="#ffffff" stroke="transparent" points="230,-139.7 230,-251.7 529,-251.7 529,-139.7 230,-139.7"/>
<polygon fill="#f5f5f5" stroke="transparent" points="232.5,-226.7 232.5,-249.7 527.5,-249.7 527.5,-226.7 232.5,-226.7"/>
<polygon fill="none" stroke="#000000" points="232.5,-226.7 232.5,-249.7 527.5,-249.7 527.5,-226.7 232.5,-226.7"/>
<text text-anchor="start" x="237.5" y="-235.3" font-family="Helvetica,sans-Serif" font-weight="bold" font-size="11.00" fill="#000000">document_template_group</text>
<text text-anchor="start" x="492.5437" y="-234.8" font-family="Helvetica,sans-Serif" font-size="11.00" fill="#000000">[table]</text>
<polygon fill="none" stroke="#000000" points="232.5,-204.7 232.5,-226.7 433.5,-226.7 433.5,-204.7 232.5,-204.7"/>
<image xlink:href="../../images/primaryKeys.png" width="11px" height="12px" preserveAspectRatio="xMinYMin meet" x="237.5" y="-221.7"/>
<text text-anchor="start" x="252.5" y="-211.8" font-family="Helvetica,sans-Serif" font-size="11.00" fill="#000000">id</text>
<polygon fill="none" stroke="#000000" points="433.5,-204.7 433.5,-226.7 527.5,-226.7 527.5,-204.7 433.5,-204.7"/>
<text text-anchor="start" x="436.4758" y="-212.4" font-family="Helvetica,sans-Serif" font-size="11.00" fill="#000000">uuid[2147483647]</text>
<polygon fill="#ffffff" stroke="transparent" points="232.5,-182.7 232.5,-204.7 433.5,-204.7 433.5,-182.7 232.5,-182.7"/>
<polygon fill="none" stroke="#000000" points="232.5,-182.7 232.5,-204.7 433.5,-204.7 433.5,-182.7 232.5,-182.7"/>
<image xlink:href="../../images/foreignKeys.png" width="11px" height="12px" preserveAspectRatio="xMinYMin meet" x="237.5" y="-199.7"/>
<text text-anchor="start" x="252.5" y="-189.8" font-family="Helvetica,sans-Serif" font-size="11.00" fill="#000000">template_id</text>
<polygon fill="none" stroke="#000000" points="433.5,-182.7 433.5,-204.7 527.5,-204.7 527.5,-182.7 433.5,-182.7"/>
<text text-anchor="start" x="436.4758" y="-190.4" font-family="Helvetica,sans-Serif" font-size="11.00" fill="#000000">uuid[2147483647]</text>
<polygon fill="#ffffff" stroke="transparent" points="232.5,-160.7 232.5,-182.7 433.5,-182.7 433.5,-160.7 232.5,-160.7"/>
<polygon fill="none" stroke="#000000" points="232.5,-160.7 232.5,-182.7 433.5,-182.7 433.5,-160.7 232.5,-160.7"/>
<image xlink:href="../../images/foreignKeys.png" width="11px" height="12px" preserveAspectRatio="xMinYMin meet" x="237.5" y="-177.7"/>
<text text-anchor="start" x="252.5" y="-167.8" font-family="Helvetica,sans-Serif" font-size="11.00" fill="#000000">template_group_id</text>
<polygon fill="none" stroke="#000000" points="433.5,-160.7 433.5,-182.7 527.5,-182.7 527.5,-160.7 433.5,-160.7"/>
<text text-anchor="start" x="436.4758" y="-168.4" font-family="Helvetica,sans-Serif" font-size="11.00" fill="#000000">uuid[2147483647]</text>
<polygon fill="#ffffff" stroke="transparent" points="232.5,-141.7 232.5,-160.7 337.5,-160.7 337.5,-141.7 232.5,-141.7"/>
<polygon fill="none" stroke="#000000" points="232.5,-141.7 232.5,-160.7 337.5,-160.7 337.5,-141.7 232.5,-141.7"/>
<text text-anchor="start" x="235.5" y="-147.8" font-family="Helvetica,sans-Serif" font-size="11.00" fill="#000000">&lt; 2</text>
<polygon fill="#ffffff" stroke="transparent" points="337.5,-141.7 337.5,-160.7 433.5,-160.7 433.5,-141.7 337.5,-141.7"/>
<polygon fill="none" stroke="#000000" points="337.5,-141.7 337.5,-160.7 433.5,-160.7 433.5,-141.7 337.5,-141.7"/>
<text text-anchor="start" x="424.3862" y="-147.8" font-family="Helvetica,sans-Serif" font-size="11.00" fill="#000000"> &#160;</text>
<polygon fill="#ffffff" stroke="transparent" points="433.5,-141.7 433.5,-160.7 527.5,-160.7 527.5,-141.7 433.5,-141.7"/>
<polygon fill="none" stroke="#000000" points="433.5,-141.7 433.5,-160.7 527.5,-160.7 527.5,-141.7 433.5,-141.7"/>
<text text-anchor="start" x="508.9053" y="-147.8" font-family="Helvetica,sans-Serif" font-size="11.00" fill="#000000">0 &gt;</text>
<polygon fill="none" stroke="#000000" stroke-width="2" points="231,-140.7 231,-250.7 528,-250.7 528,-140.7 231,-140.7"/>
</a>
</g>
</g>
<!-- template_group -->
<g id="node2" class="node">
<title>template_group</title>
<g id="a_node2"><a xlink:href="../../tables/template_group.html" xlink:title="template_group" target="_top">
<polygon fill="#ffffff" stroke="transparent" points="22,-38.2 22,-143.2 167,-143.2 167,-38.2 22,-38.2"/>
<polygon fill="#f5f5f5" stroke="transparent" points="22.5,-119.7 22.5,-142.7 167.5,-142.7 167.5,-119.7 22.5,-119.7"/>
<polygon fill="none" stroke="#000000" points="22.5,-119.7 22.5,-142.7 167.5,-142.7 167.5,-119.7 22.5,-119.7"/>
<text text-anchor="start" x="27.5" y="-128.3" font-family="Helvetica,sans-Serif" font-weight="bold" font-size="11.00" fill="#000000">template_group</text>
<text text-anchor="start" x="133.0219" y="-127.8" font-family="Helvetica,sans-Serif" font-size="11.00" fill="#000000">[table]</text>
<polygon fill="none" stroke="#000000" points="22.5,-97.7 22.5,-119.7 167.5,-119.7 167.5,-97.7 22.5,-97.7"/>
<image xlink:href="../../images/primaryKeys.png" width="11px" height="12px" preserveAspectRatio="xMinYMin meet" x="27.5" y="-114.7"/>
<text text-anchor="start" x="51.5" y="-104.8" font-family="Helvetica,sans-Serif" font-size="11.00" fill="#000000">id</text>
<polygon fill="#ffffff" stroke="transparent" points="22.5,-75.7 22.5,-97.7 167.5,-97.7 167.5,-75.7 22.5,-75.7"/>
<polygon fill="none" stroke="#000000" points="22.5,-75.7 22.5,-97.7 167.5,-97.7 167.5,-75.7 22.5,-75.7"/>
<image xlink:href="../../images/foreignKeys.png" width="11px" height="12px" preserveAspectRatio="xMinYMin meet" x="27.5" y="-92.7"/>
<text text-anchor="start" x="51.5" y="-82.8" font-family="Helvetica,sans-Serif" font-size="11.00" fill="#000000">code</text>
<polygon fill="none" stroke="#000000" points="22.5,-56.7 22.5,-75.7 167.5,-75.7 167.5,-56.7 22.5,-56.7"/>
<text text-anchor="start" x="25.5" y="-62.8" font-family="Helvetica,sans-Serif" font-size="11.00" fill="#000000">...</text>
<polygon fill="#ffffff" stroke="transparent" points="22.5,-37.7 22.5,-56.7 84.5,-56.7 84.5,-37.7 22.5,-37.7"/>
<polygon fill="none" stroke="#000000" points="22.5,-37.7 22.5,-56.7 84.5,-56.7 84.5,-37.7 22.5,-37.7"/>
<text text-anchor="start" x="25.5" y="-43.8" font-family="Helvetica,sans-Serif" font-size="11.00" fill="#000000"> &#160;</text>
<polygon fill="#ffffff" stroke="transparent" points="84.5,-37.7 84.5,-56.7 121.5,-56.7 121.5,-37.7 84.5,-37.7"/>
<polygon fill="none" stroke="#000000" points="84.5,-37.7 84.5,-56.7 121.5,-56.7 121.5,-37.7 84.5,-37.7"/>
<text text-anchor="start" x="112.3862" y="-43.8" font-family="Helvetica,sans-Serif" font-size="11.00" fill="#000000"> &#160;</text>
<polygon fill="#ffffff" stroke="transparent" points="121.5,-37.7 121.5,-56.7 167.5,-56.7 167.5,-37.7 121.5,-37.7"/>
<polygon fill="none" stroke="#000000" points="121.5,-37.7 121.5,-56.7 167.5,-56.7 167.5,-37.7 121.5,-37.7"/>
<text text-anchor="start" x="148.9053" y="-43.8" font-family="Helvetica,sans-Serif" font-size="11.00" fill="#000000">1 &gt;</text>
</a>
</g>
</g>
<!-- document_template_group&#45;&gt;template_group -->
<g id="edge1" class="edge">
<title>document_template_group:w&#45;&gt;template_group:e</title>
<path fill="none" stroke="#000000" d="M218.2098,-168.1323C195.5749,-154.8051 201.9167,-108.7 167.5,-108.7"/>
<polygon fill="#000000" stroke="#000000" points="224.7382,-169.7622 231.628,-175.1928 228.6191,-170.7311 232.5,-171.7 232.5,-171.7 232.5,-171.7 228.6191,-170.7311 233.372,-168.2072 224.7382,-169.7622 224.7382,-169.7622"/>
<ellipse fill="none" stroke="#000000" cx="221.6335" cy="-168.987" rx="3.2" ry="3.2"/>
</g>
<!-- document_template -->
<g id="node3" class="node">
<title>document_template</title>
<g id="a_node3"><a xlink:href="../../tables/document_template.html" xlink:title="document_template" target="_top">
<polygon fill="#ffffff" stroke="transparent" points="8,-164.2 8,-291.2 181,-291.2 181,-164.2 8,-164.2"/>
<polygon fill="#f5f5f5" stroke="transparent" points="8.5,-267.7 8.5,-290.7 181.5,-290.7 181.5,-267.7 8.5,-267.7"/>
<polygon fill="none" stroke="#000000" points="8.5,-267.7 8.5,-290.7 181.5,-290.7 181.5,-267.7 8.5,-267.7"/>
<text text-anchor="start" x="13.5" y="-276.3" font-family="Helvetica,sans-Serif" font-weight="bold" font-size="11.00" fill="#000000">document_template</text>
<text text-anchor="start" x="147.0219" y="-275.8" font-family="Helvetica,sans-Serif" font-size="11.00" fill="#000000">[table]</text>
<polygon fill="none" stroke="#000000" points="8.5,-245.7 8.5,-267.7 181.5,-267.7 181.5,-245.7 8.5,-245.7"/>
<image xlink:href="../../images/primaryKeys.png" width="11px" height="12px" preserveAspectRatio="xMinYMin meet" x="13.5" y="-262.7"/>
<text text-anchor="start" x="37.5" y="-252.8" font-family="Helvetica,sans-Serif" font-size="11.00" fill="#000000">id</text>
<polygon fill="#ffffff" stroke="transparent" points="8.5,-223.7 8.5,-245.7 181.5,-245.7 181.5,-223.7 8.5,-223.7"/>
<polygon fill="none" stroke="#000000" points="8.5,-223.7 8.5,-245.7 181.5,-245.7 181.5,-223.7 8.5,-223.7"/>
<image xlink:href="../../images/foreignKeys.png" width="11px" height="12px" preserveAspectRatio="xMinYMin meet" x="13.5" y="-240.7"/>
<text text-anchor="start" x="37.5" y="-230.8" font-family="Helvetica,sans-Serif" font-size="11.00" fill="#000000">code</text>
<polygon fill="#ffffff" stroke="transparent" points="8.5,-201.7 8.5,-223.7 181.5,-223.7 181.5,-201.7 8.5,-201.7"/>
<polygon fill="none" stroke="#000000" points="8.5,-201.7 8.5,-223.7 181.5,-223.7 181.5,-201.7 8.5,-201.7"/>
<text text-anchor="start" x="37.5" y="-208.8" font-family="Helvetica,sans-Serif" font-size="11.00" fill="#000000">external_reference</text>
<polygon fill="none" stroke="#000000" points="8.5,-182.7 8.5,-201.7 181.5,-201.7 181.5,-182.7 8.5,-182.7"/>
<text text-anchor="start" x="11.5" y="-188.8" font-family="Helvetica,sans-Serif" font-size="11.00" fill="#000000">...</text>
<polygon fill="#ffffff" stroke="transparent" points="8.5,-163.7 8.5,-182.7 84.5,-182.7 84.5,-163.7 8.5,-163.7"/>
<polygon fill="none" stroke="#000000" points="8.5,-163.7 8.5,-182.7 84.5,-182.7 84.5,-163.7 8.5,-163.7"/>
<text text-anchor="start" x="11.5" y="-169.8" font-family="Helvetica,sans-Serif" font-size="11.00" fill="#000000"> &#160;</text>
<polygon fill="#ffffff" stroke="transparent" points="84.5,-163.7 84.5,-182.7 128.5,-182.7 128.5,-163.7 84.5,-163.7"/>
<polygon fill="none" stroke="#000000" points="84.5,-163.7 84.5,-182.7 128.5,-182.7 128.5,-163.7 84.5,-163.7"/>
<text text-anchor="start" x="119.3862" y="-169.8" font-family="Helvetica,sans-Serif" font-size="11.00" fill="#000000"> &#160;</text>
<polygon fill="#ffffff" stroke="transparent" points="128.5,-163.7 128.5,-182.7 181.5,-182.7 181.5,-163.7 128.5,-163.7"/>
<polygon fill="none" stroke="#000000" points="128.5,-163.7 128.5,-182.7 181.5,-182.7 181.5,-163.7 128.5,-163.7"/>
<text text-anchor="start" x="162.9053" y="-169.8" font-family="Helvetica,sans-Serif" font-size="11.00" fill="#000000">2 &gt;</text>
</a>
</g>
</g>
<!-- document_template_group&#45;&gt;document_template -->
<g id="edge2" class="edge">
<title>document_template_group:w&#45;&gt;document_template:e</title>
<path fill="none" stroke="#000000" d="M218.4033,-198.6435C202.025,-213.4952 211.3329,-256.7 181.5,-256.7"/>
<polygon fill="#000000" stroke="#000000" points="224.9507,-196.3474 233.6913,-197.0972 228.7254,-195.0237 232.5,-193.7 232.5,-193.7 232.5,-193.7 228.7254,-195.0237 231.3087,-190.3028 224.9507,-196.3474 224.9507,-196.3474"/>
<ellipse fill="none" stroke="#000000" cx="221.931" cy="-197.4064" rx="3.2" ry="3.2"/>
</g>
</g>
</svg>
