<?xml version="1.0" encoding="UTF-8" standalone="no"?>
<!DOCTYPE svg PUBLIC "-//W3C//DTD SVG 1.1//EN"
 "http://www.w3.org/Graphics/SVG/1.1/DTD/svg11.dtd">
<!-- Generated by graphviz version 2.40.1 (20161225.0304)
 -->
<!-- Title: twoDegreesRelationshipsDiagram Pages: 1 -->
<svg width="577pt" height="453pt"
 viewBox="0.00 0.00 577.00 452.70" xmlns="http://www.w3.org/2000/svg" xmlns:xlink="http://www.w3.org/1999/xlink">
<g id="graph0" class="graph" transform="scale(1 1) rotate(0) translate(4 448.7)">
<title>twoDegreesRelationshipsDiagram</title>
<polygon fill="#ffffff" stroke="transparent" points="-4,4 -4,-448.7 573,-448.7 573,4 -4,4"/>
<text text-anchor="middle" x="72.4936" y="-7.3" font-family="Helvetica,sans-Serif" font-size="11.00" fill="#000000">Generated by SchemaSpy</text>
<!-- document_generation_request_audit -->
<g id="node1" class="node">
<title>document_generation_request_audit</title>
<g id="a_node1"><a xlink:href="../../tables/document_generation_request_audit.html" xlink:title="document_generation_request_audit" target="_top">
<polygon fill="#ffffff" stroke="transparent" points="191,-284.7 191,-440.7 561,-440.7 561,-284.7 191,-284.7"/>
<polygon fill="#f5f5f5" stroke="transparent" points="193,-415.7 193,-438.7 559,-438.7 559,-415.7 193,-415.7"/>
<polygon fill="none" stroke="#000000" points="193,-415.7 193,-438.7 559,-438.7 559,-415.7 193,-415.7"/>
<text text-anchor="start" x="198" y="-424.3" font-family="Helvetica,sans-Serif" font-weight="bold" font-size="11.00" fill="#000000">document_generation_request_audit</text>
<text text-anchor="start" x="524.0437" y="-423.8" font-family="Helvetica,sans-Serif" font-size="11.00" fill="#000000">[table]</text>
<polygon fill="none" stroke="#000000" points="193,-393.7 193,-415.7 460,-415.7 460,-393.7 193,-393.7"/>
<image xlink:href="../../images/primaryKeys.png" width="11px" height="12px" preserveAspectRatio="xMinYMin meet" x="198" y="-410.7"/>
<text text-anchor="start" x="213" y="-400.8" font-family="Helvetica,sans-Serif" font-size="11.00" fill="#000000">rev_id</text>
<polygon fill="none" stroke="#000000" points="460,-393.7 460,-415.7 559,-415.7 559,-393.7 460,-393.7"/>
<text text-anchor="start" x="463" y="-401.4" font-family="Helvetica,sans-Serif" font-size="11.00" fill="#000000">int8[19]</text>
<polygon fill="none" stroke="#000000" points="193,-371.7 193,-393.7 460,-393.7 460,-371.7 193,-371.7"/>
<text text-anchor="start" x="213" y="-378.8" font-family="Helvetica,sans-Serif" font-size="11.00" fill="#000000">rev_type</text>
<polygon fill="none" stroke="#000000" points="460,-371.7 460,-393.7 559,-393.7 559,-371.7 460,-371.7"/>
<text text-anchor="start" x="463" y="-379.4" font-family="Helvetica,sans-Serif" font-size="11.00" fill="#000000">int2[5]</text>
<polygon fill="none" stroke="#000000" points="193,-349.7 193,-371.7 460,-371.7 460,-349.7 193,-349.7"/>
<image xlink:href="../../images/primaryKeys.png" width="11px" height="12px" preserveAspectRatio="xMinYMin meet" x="198" y="-366.7"/>
<text text-anchor="start" x="213" y="-356.8" font-family="Helvetica,sans-Serif" font-size="11.00" fill="#000000">id</text>
<polygon fill="none" stroke="#000000" points="460,-349.7 460,-371.7 559,-371.7 559,-349.7 460,-349.7"/>
<text text-anchor="start" x="463" y="-357.4" font-family="Helvetica,sans-Serif" font-size="11.00" fill="#000000">uuid[2147483647]</text>
<polygon fill="none" stroke="#000000" points="193,-327.7 193,-349.7 460,-349.7 460,-327.7 193,-327.7"/>
<text text-anchor="start" x="213" y="-334.8" font-family="Helvetica,sans-Serif" font-size="11.00" fill="#000000">template_id</text>
<polygon fill="none" stroke="#000000" points="460,-327.7 460,-349.7 559,-349.7 559,-327.7 460,-327.7"/>
<text text-anchor="start" x="463" y="-335.4" font-family="Helvetica,sans-Serif" font-size="11.00" fill="#000000">uuid[2147483647]</text>
<polygon fill="none" stroke="#000000" points="193,-305.7 193,-327.7 460,-327.7 460,-305.7 193,-305.7"/>
<text text-anchor="start" x="213" y="-312.8" font-family="Helvetica,sans-Serif" font-size="11.00" fill="#000000">request</text>
<polygon fill="none" stroke="#000000" points="460,-305.7 460,-327.7 559,-327.7 559,-305.7 460,-305.7"/>
<text text-anchor="start" x="462.7258" y="-313.4" font-family="Helvetica,sans-Serif" font-size="11.00" fill="#000000">jsonb[2147483647]</text>
<polygon fill="#ffffff" stroke="transparent" points="193,-286.7 193,-305.7 331,-305.7 331,-286.7 193,-286.7"/>
<polygon fill="none" stroke="#000000" points="193,-286.7 193,-305.7 331,-305.7 331,-286.7 193,-286.7"/>
<text text-anchor="start" x="196" y="-292.8" font-family="Helvetica,sans-Serif" font-size="11.00" fill="#000000">&lt; 1</text>
<polygon fill="#ffffff" stroke="transparent" points="331,-286.7 331,-305.7 460,-305.7 460,-286.7 331,-286.7"/>
<polygon fill="none" stroke="#000000" points="331,-286.7 331,-305.7 460,-305.7 460,-286.7 331,-286.7"/>
<text text-anchor="start" x="450.8862" y="-292.8" font-family="Helvetica,sans-Serif" font-size="11.00" fill="#000000"> &#160;</text>
<polygon fill="#ffffff" stroke="transparent" points="460,-286.7 460,-305.7 559,-305.7 559,-286.7 460,-286.7"/>
<polygon fill="none" stroke="#000000" points="460,-286.7 460,-305.7 559,-305.7 559,-286.7 460,-286.7"/>
<text text-anchor="start" x="540.4053" y="-292.8" font-family="Helvetica,sans-Serif" font-size="11.00" fill="#000000">0 &gt;</text>
<polygon fill="none" stroke="#000000" stroke-width="2" points="192,-285.7 192,-439.7 560,-439.7 560,-285.7 192,-285.7"/>
</a>
</g>
</g>
<!-- audit_revision -->
<g id="node2" class="node">
<title>audit_revision</title>
<g id="a_node2"><a xlink:href="../../tables/audit_revision.html" xlink:title="audit_revision" target="_top">
<polygon fill="#ffffff" stroke="transparent" points="8,-140.2 8,-223.2 142,-223.2 142,-140.2 8,-140.2"/>
<polygon fill="#f5f5f5" stroke="transparent" points="8,-199.7 8,-222.7 142,-222.7 142,-199.7 8,-199.7"/>
<polygon fill="none" stroke="#000000" points="8,-199.7 8,-222.7 142,-222.7 142,-199.7 8,-199.7"/>
<text text-anchor="start" x="13" y="-208.3" font-family="Helvetica,sans-Serif" font-weight="bold" font-size="11.00" fill="#000000">audit_revision</text>
<text text-anchor="start" x="107.5219" y="-207.8" font-family="Helvetica,sans-Serif" font-size="11.00" fill="#000000">[table]</text>
<polygon fill="none" stroke="#000000" points="8,-177.7 8,-199.7 142,-199.7 142,-177.7 8,-177.7"/>
<image xlink:href="../../images/primaryKeys.png" width="11px" height="12px" preserveAspectRatio="xMinYMin meet" x="13" y="-194.7"/>
<text text-anchor="start" x="37" y="-184.8" font-family="Helvetica,sans-Serif" font-size="11.00" fill="#000000">id</text>
<polygon fill="none" stroke="#000000" points="8,-158.7 8,-177.7 142,-177.7 142,-158.7 8,-158.7"/>
<text text-anchor="start" x="11" y="-164.8" font-family="Helvetica,sans-Serif" font-size="11.00" fill="#000000">...</text>
<polygon fill="#ffffff" stroke="transparent" points="8,-139.7 8,-158.7 64,-158.7 64,-139.7 8,-139.7"/>
<polygon fill="none" stroke="#000000" points="8,-139.7 8,-158.7 64,-158.7 64,-139.7 8,-139.7"/>
<text text-anchor="start" x="11" y="-145.8" font-family="Helvetica,sans-Serif" font-size="11.00" fill="#000000"> &#160;</text>
<polygon fill="#ffffff" stroke="transparent" points="64,-139.7 64,-158.7 98,-158.7 98,-139.7 64,-139.7"/>
<polygon fill="none" stroke="#000000" points="64,-139.7 64,-158.7 98,-158.7 98,-139.7 64,-139.7"/>
<text text-anchor="start" x="88.8862" y="-145.8" font-family="Helvetica,sans-Serif" font-size="11.00" fill="#000000"> &#160;</text>
<polygon fill="#ffffff" stroke="transparent" points="98,-139.7 98,-158.7 142,-158.7 142,-139.7 98,-139.7"/>
<polygon fill="none" stroke="#000000" points="98,-139.7 98,-158.7 142,-158.7 142,-139.7 98,-139.7"/>
<text text-anchor="start" x="123.4053" y="-145.8" font-family="Helvetica,sans-Serif" font-size="11.00" fill="#000000">4 &gt;</text>
</a>
</g>
</g>
<!-- document_generation_request_audit&#45;&gt;audit_revision -->
<g id="edge1" class="edge">
<title>document_generation_request_audit:w&#45;&gt;audit_revision:e</title>
<path fill="none" stroke="#000000" d="M178.5072,-402.6996C110.1453,-380.9242 235.0526,-188.7 142,-188.7"/>
<polygon fill="#000000" stroke="#000000" points="185.0751,-403.6061 192.5078,-408.2662 189.0376,-404.1531 193,-404.7 193,-404.7 193,-404.7 189.0376,-404.1531 193.4922,-401.1338 185.0751,-403.6061 185.0751,-403.6061"/>
<ellipse fill="none" stroke="#000000" cx="181.9052" cy="-403.1686" rx="3.2" ry="3.2"/>
</g>
<!-- document_template_audit -->
<g id="node3" class="node">
<title>document_template_audit</title>
<g id="a_node3"><a xlink:href="../../tables/document_template_audit.html" xlink:title="document_template_audit" target="_top">
<polygon fill="#ffffff" stroke="transparent" points="269,-202.2 269,-263.2 483,-263.2 483,-202.2 269,-202.2"/>
<polygon fill="#f5f5f5" stroke="transparent" points="269,-239.7 269,-262.7 483,-262.7 483,-239.7 269,-239.7"/>
<polygon fill="none" stroke="#000000" points="269,-239.7 269,-262.7 483,-262.7 483,-239.7 269,-239.7"/>
<text text-anchor="start" x="274" y="-248.3" font-family="Helvetica,sans-Serif" font-weight="bold" font-size="11.00" fill="#000000">document_template_audit</text>
<text text-anchor="start" x="448.5219" y="-247.8" font-family="Helvetica,sans-Serif" font-size="11.00" fill="#000000">[table]</text>
<polygon fill="none" stroke="#000000" points="269,-220.7 269,-239.7 483,-239.7 483,-220.7 269,-220.7"/>
<text text-anchor="start" x="272" y="-226.8" font-family="Helvetica,sans-Serif" font-size="11.00" fill="#000000">...</text>
<polygon fill="#ffffff" stroke="transparent" points="269,-201.7 269,-220.7 374,-220.7 374,-201.7 269,-201.7"/>
<polygon fill="none" stroke="#000000" points="269,-201.7 269,-220.7 374,-220.7 374,-201.7 269,-201.7"/>
<text text-anchor="start" x="272" y="-207.8" font-family="Helvetica,sans-Serif" font-size="11.00" fill="#000000">&lt; 1</text>
<polygon fill="#ffffff" stroke="transparent" points="374,-201.7 374,-220.7 428,-220.7 428,-201.7 374,-201.7"/>
<polygon fill="none" stroke="#000000" points="374,-201.7 374,-220.7 428,-220.7 428,-201.7 374,-201.7"/>
<text text-anchor="start" x="418.8862" y="-207.8" font-family="Helvetica,sans-Serif" font-size="11.00" fill="#000000"> &#160;</text>
<polygon fill="#ffffff" stroke="transparent" points="428,-201.7 428,-220.7 483,-220.7 483,-201.7 428,-201.7"/>
<polygon fill="none" stroke="#000000" points="428,-201.7 428,-220.7 483,-220.7 483,-201.7 428,-201.7"/>
<text text-anchor="start" x="473.8862" y="-207.8" font-family="Helvetica,sans-Serif" font-size="11.00" fill="#000000"> &#160;</text>
</a>
</g>
</g>
<!-- document_template_audit&#45;&gt;audit_revision -->
<g id="edge2" class="edge">
<title>document_template_audit:w&#45;&gt;audit_revision:e</title>
<path fill="none" stroke="#000000" d="M254.4721,-228.8055C207.8216,-222.8097 196.0999,-188.7 142,-188.7"/>
<polygon fill="#000000" stroke="#000000" points="261.0151,-229.2083 268.7787,-233.2932 265.0076,-229.4542 269,-229.7 269,-229.7 269,-229.7 265.0076,-229.4542 269.2213,-226.1068 261.0151,-229.2083 261.0151,-229.2083"/>
<ellipse fill="none" stroke="#000000" cx="257.8212" cy="-229.0117" rx="3.2" ry="3.2"/>
</g>
<!-- document_template_group_audit -->
<g id="node4" class="node">
<title>document_template_group_audit</title>
<g id="a_node4"><a xlink:href="../../tables/document_template_group_audit.html" xlink:title="document_template_group_audit" target="_top">
<polygon fill="#ffffff" stroke="transparent" points="246,-120.2 246,-181.2 506,-181.2 506,-120.2 246,-120.2"/>
<polygon fill="#f5f5f5" stroke="transparent" points="246,-157.7 246,-180.7 506,-180.7 506,-157.7 246,-157.7"/>
<polygon fill="none" stroke="#000000" points="246,-157.7 246,-180.7 506,-180.7 506,-157.7 246,-157.7"/>
<text text-anchor="start" x="251" y="-166.3" font-family="Helvetica,sans-Serif" font-weight="bold" font-size="11.00" fill="#000000">document_template_group_audit</text>
<text text-anchor="start" x="471.5219" y="-165.8" font-family="Helvetica,sans-Serif" font-size="11.00" fill="#000000">[table]</text>
<polygon fill="none" stroke="#000000" points="246,-138.7 246,-157.7 506,-157.7 506,-138.7 246,-138.7"/>
<text text-anchor="start" x="249" y="-144.8" font-family="Helvetica,sans-Serif" font-size="11.00" fill="#000000">...</text>
<polygon fill="#ffffff" stroke="transparent" points="246,-119.7 246,-138.7 374,-138.7 374,-119.7 246,-119.7"/>
<polygon fill="none" stroke="#000000" points="246,-119.7 246,-138.7 374,-138.7 374,-119.7 246,-119.7"/>
<text text-anchor="start" x="249" y="-125.8" font-family="Helvetica,sans-Serif" font-size="11.00" fill="#000000">&lt; 1</text>
<polygon fill="#ffffff" stroke="transparent" points="374,-119.7 374,-138.7 440,-138.7 440,-119.7 374,-119.7"/>
<polygon fill="none" stroke="#000000" points="374,-119.7 374,-138.7 440,-138.7 440,-119.7 374,-119.7"/>
<text text-anchor="start" x="430.8862" y="-125.8" font-family="Helvetica,sans-Serif" font-size="11.00" fill="#000000"> &#160;</text>
<polygon fill="#ffffff" stroke="transparent" points="440,-119.7 440,-138.7 506,-138.7 506,-119.7 440,-119.7"/>
<polygon fill="none" stroke="#000000" points="440,-119.7 440,-138.7 506,-138.7 506,-119.7 440,-119.7"/>
<text text-anchor="start" x="496.8862" y="-125.8" font-family="Helvetica,sans-Serif" font-size="11.00" fill="#000000"> &#160;</text>
</a>
</g>
</g>
<!-- document_template_group_audit&#45;&gt;audit_revision -->
<g id="edge3" class="edge">
<title>document_template_group_audit:w&#45;&gt;audit_revision:e</title>
<path fill="none" stroke="#000000" d="M231.1963,-149.0641C194.7635,-156.1783 186.2502,-188.7 142,-188.7"/>
<polygon fill="#000000" stroke="#000000" points="238.0338,-148.4341 246.3304,-151.2848 242.0169,-148.0671 246,-147.7 246,-147.7 246,-147.7 242.0169,-148.0671 245.6696,-144.1152 238.0338,-148.4341 238.0338,-148.4341"/>
<ellipse fill="none" stroke="#000000" cx="234.8473" cy="-148.7278" rx="3.2" ry="3.2"/>
</g>
<!-- document_template_variable_audit -->
<g id="node5" class="node">
<title>document_template_variable_audit</title>
<g id="a_node5"><a xlink:href="../../tables/document_template_variable_audit.html" xlink:title="document_template_variable_audit" target="_top">
<polygon fill="#ffffff" stroke="transparent" points="238.5,-38.2 238.5,-99.2 513.5,-99.2 513.5,-38.2 238.5,-38.2"/>
<polygon fill="#f5f5f5" stroke="transparent" points="239,-75.7 239,-98.7 514,-98.7 514,-75.7 239,-75.7"/>
<polygon fill="none" stroke="#000000" points="239,-75.7 239,-98.7 514,-98.7 514,-75.7 239,-75.7"/>
<text text-anchor="start" x="244" y="-84.3" font-family="Helvetica,sans-Serif" font-weight="bold" font-size="11.00" fill="#000000">document_template_variable_audit</text>
<text text-anchor="start" x="479.5219" y="-83.8" font-family="Helvetica,sans-Serif" font-size="11.00" fill="#000000">[table]</text>
<polygon fill="none" stroke="#000000" points="239,-56.7 239,-75.7 514,-75.7 514,-56.7 239,-56.7"/>
<text text-anchor="start" x="242" y="-62.8" font-family="Helvetica,sans-Serif" font-size="11.00" fill="#000000">...</text>
<polygon fill="#ffffff" stroke="transparent" points="239,-37.7 239,-56.7 375,-56.7 375,-37.7 239,-37.7"/>
<polygon fill="none" stroke="#000000" points="239,-37.7 239,-56.7 375,-56.7 375,-37.7 239,-37.7"/>
<text text-anchor="start" x="242" y="-43.8" font-family="Helvetica,sans-Serif" font-size="11.00" fill="#000000">&lt; 1</text>
<polygon fill="#ffffff" stroke="transparent" points="375,-37.7 375,-56.7 444,-56.7 444,-37.7 375,-37.7"/>
<polygon fill="none" stroke="#000000" points="375,-37.7 375,-56.7 444,-56.7 444,-37.7 375,-37.7"/>
<text text-anchor="start" x="434.8862" y="-43.8" font-family="Helvetica,sans-Serif" font-size="11.00" fill="#000000"> &#160;</text>
<polygon fill="#ffffff" stroke="transparent" points="444,-37.7 444,-56.7 514,-56.7 514,-37.7 444,-37.7"/>
<polygon fill="none" stroke="#000000" points="444,-37.7 444,-56.7 514,-56.7 514,-37.7 444,-37.7"/>
<text text-anchor="start" x="504.8862" y="-43.8" font-family="Helvetica,sans-Serif" font-size="11.00" fill="#000000"> &#160;</text>
</a>
</g>
</g>
<!-- document_template_variable_audit&#45;&gt;audit_revision -->
<g id="edge4" class="edge">
<title>document_template_variable_audit:w&#45;&gt;audit_revision:e</title>
<path fill="none" stroke="#000000" d="M224.6207,-67.4383C205.3909,-72.7459 199.642,-89.6088 183,-109.7 157.7657,-140.1643 181.5581,-188.7 142,-188.7"/>
<polygon fill="#000000" stroke="#000000" points="231.0578,-66.6602 239.4321,-69.274 235.0289,-66.1801 239,-65.7 239,-65.7 239,-65.7 235.0289,-66.1801 238.5679,-62.126 231.0578,-66.6602 231.0578,-66.6602"/>
<ellipse fill="none" stroke="#000000" cx="227.881" cy="-67.0442" rx="3.2" ry="3.2"/>
</g>
</g>
</svg>
