<?xml version="1.0" encoding="UTF-8" standalone="no"?>
<!DOCTYPE svg PUBLIC "-//W3C//DTD SVG 1.1//EN"
 "http://www.w3.org/Graphics/SVG/1.1/DTD/svg11.dtd">
<!-- Generated by graphviz version 2.40.1 (20161225.0304)
 -->
<!-- Title: twoDegreesRelationshipsDiagram Pages: 1 -->
<svg width="562pt" height="393pt"
 viewBox="0.00 0.00 562.00 392.70" xmlns="http://www.w3.org/2000/svg" xmlns:xlink="http://www.w3.org/1999/xlink">
<g id="graph0" class="graph" transform="scale(1 1) rotate(0) translate(4 388.7)">
<title>twoDegreesRelationshipsDiagram</title>
<polygon fill="#ffffff" stroke="transparent" points="-4,4 -4,-388.7 558,-388.7 558,4 -4,4"/>
<text text-anchor="middle" x="72.4936" y="-7.3" font-family="Helvetica,sans-Serif" font-size="11.00" fill="#000000">Generated by SchemaSpy</text>
<!-- document_template_audit -->
<g id="node1" class="node">
<title>document_template_audit</title>
<g id="a_node1"><a xlink:href="../../tables/document_template_audit.html" xlink:title="document_template_audit" target="_top">
<polygon fill="#ffffff" stroke="transparent" points="261.5,-319.7 261.5,-380.7 475.5,-380.7 475.5,-319.7 261.5,-319.7"/>
<polygon fill="#f5f5f5" stroke="transparent" points="261.5,-357.2 261.5,-380.2 475.5,-380.2 475.5,-357.2 261.5,-357.2"/>
<polygon fill="none" stroke="#000000" points="261.5,-357.2 261.5,-380.2 475.5,-380.2 475.5,-357.2 261.5,-357.2"/>
<text text-anchor="start" x="266.5" y="-365.8" font-family="Helvetica,sans-Serif" font-weight="bold" font-size="11.00" fill="#000000">document_template_audit</text>
<text text-anchor="start" x="441.0219" y="-365.3" font-family="Helvetica,sans-Serif" font-size="11.00" fill="#000000">[table]</text>
<polygon fill="none" stroke="#000000" points="261.5,-338.2 261.5,-357.2 475.5,-357.2 475.5,-338.2 261.5,-338.2"/>
<text text-anchor="start" x="264.5" y="-344.3" font-family="Helvetica,sans-Serif" font-size="11.00" fill="#000000">...</text>
<polygon fill="#ffffff" stroke="transparent" points="261.5,-319.2 261.5,-338.2 366.5,-338.2 366.5,-319.2 261.5,-319.2"/>
<polygon fill="none" stroke="#000000" points="261.5,-319.2 261.5,-338.2 366.5,-338.2 366.5,-319.2 261.5,-319.2"/>
<text text-anchor="start" x="264.5" y="-325.3" font-family="Helvetica,sans-Serif" font-size="11.00" fill="#000000">&lt; 1</text>
<polygon fill="#ffffff" stroke="transparent" points="366.5,-319.2 366.5,-338.2 420.5,-338.2 420.5,-319.2 366.5,-319.2"/>
<polygon fill="none" stroke="#000000" points="366.5,-319.2 366.5,-338.2 420.5,-338.2 420.5,-319.2 366.5,-319.2"/>
<text text-anchor="start" x="411.3862" y="-325.3" font-family="Helvetica,sans-Serif" font-size="11.00" fill="#000000"> &#160;</text>
<polygon fill="#ffffff" stroke="transparent" points="420.5,-319.2 420.5,-338.2 475.5,-338.2 475.5,-319.2 420.5,-319.2"/>
<polygon fill="none" stroke="#000000" points="420.5,-319.2 420.5,-338.2 475.5,-338.2 475.5,-319.2 420.5,-319.2"/>
<text text-anchor="start" x="466.3862" y="-325.3" font-family="Helvetica,sans-Serif" font-size="11.00" fill="#000000"> &#160;</text>
</a>
</g>
</g>
<!-- audit_revision -->
<g id="node2" class="node">
<title>audit_revision</title>
<g id="a_node2"><a xlink:href="../../tables/audit_revision.html" xlink:title="audit_revision" target="_top">
<polygon fill="#ffffff" stroke="transparent" points="8,-216.7 8,-299.7 142,-299.7 142,-216.7 8,-216.7"/>
<polygon fill="#f5f5f5" stroke="transparent" points="8,-276.2 8,-299.2 142,-299.2 142,-276.2 8,-276.2"/>
<polygon fill="none" stroke="#000000" points="8,-276.2 8,-299.2 142,-299.2 142,-276.2 8,-276.2"/>
<text text-anchor="start" x="13" y="-284.8" font-family="Helvetica,sans-Serif" font-weight="bold" font-size="11.00" fill="#000000">audit_revision</text>
<text text-anchor="start" x="107.5219" y="-284.3" font-family="Helvetica,sans-Serif" font-size="11.00" fill="#000000">[table]</text>
<polygon fill="none" stroke="#000000" points="8,-254.2 8,-276.2 142,-276.2 142,-254.2 8,-254.2"/>
<image xlink:href="../../images/primaryKeys.png" width="11px" height="12px" preserveAspectRatio="xMinYMin meet" x="13" y="-271.2"/>
<text text-anchor="start" x="37" y="-261.3" font-family="Helvetica,sans-Serif" font-size="11.00" fill="#000000">id</text>
<polygon fill="none" stroke="#000000" points="8,-235.2 8,-254.2 142,-254.2 142,-235.2 8,-235.2"/>
<text text-anchor="start" x="11" y="-241.3" font-family="Helvetica,sans-Serif" font-size="11.00" fill="#000000">...</text>
<polygon fill="#ffffff" stroke="transparent" points="8,-216.2 8,-235.2 64,-235.2 64,-216.2 8,-216.2"/>
<polygon fill="none" stroke="#000000" points="8,-216.2 8,-235.2 64,-235.2 64,-216.2 8,-216.2"/>
<text text-anchor="start" x="11" y="-222.3" font-family="Helvetica,sans-Serif" font-size="11.00" fill="#000000"> &#160;</text>
<polygon fill="#ffffff" stroke="transparent" points="64,-216.2 64,-235.2 98,-235.2 98,-216.2 64,-216.2"/>
<polygon fill="none" stroke="#000000" points="64,-216.2 64,-235.2 98,-235.2 98,-216.2 64,-216.2"/>
<text text-anchor="start" x="88.8862" y="-222.3" font-family="Helvetica,sans-Serif" font-size="11.00" fill="#000000"> &#160;</text>
<polygon fill="#ffffff" stroke="transparent" points="98,-216.2 98,-235.2 142,-235.2 142,-216.2 98,-216.2"/>
<polygon fill="none" stroke="#000000" points="98,-216.2 98,-235.2 142,-235.2 142,-216.2 98,-216.2"/>
<text text-anchor="start" x="123.4053" y="-222.3" font-family="Helvetica,sans-Serif" font-size="11.00" fill="#000000">3 &gt;</text>
</a>
</g>
</g>
<!-- document_template_audit&#45;&gt;audit_revision -->
<g id="edge1" class="edge">
<title>document_template_audit:w&#45;&gt;audit_revision:e</title>
<path fill="none" stroke="#000000" d="M246.7928,-346.3304C219.886,-342.8269 209.8027,-328.9794 183,-309.2 161.4927,-293.3284 168.7296,-265.2 142,-265.2"/>
<polygon fill="#000000" stroke="#000000" points="253.5139,-346.7277 261.2875,-350.7937 257.507,-346.9639 261.5,-347.2 261.5,-347.2 261.5,-347.2 257.507,-346.9639 261.7125,-343.6063 253.5139,-346.7277 253.5139,-346.7277"/>
<ellipse fill="none" stroke="#000000" cx="250.3195" cy="-346.5388" rx="3.2" ry="3.2"/>
</g>
<!-- document_template_group_audit -->
<g id="node3" class="node">
<title>document_template_group_audit</title>
<g id="a_node3"><a xlink:href="../../tables/document_template_group_audit.html" xlink:title="document_template_group_audit" target="_top">
<polygon fill="#ffffff" stroke="transparent" points="238.5,-237.7 238.5,-298.7 498.5,-298.7 498.5,-237.7 238.5,-237.7"/>
<polygon fill="#f5f5f5" stroke="transparent" points="238.5,-275.2 238.5,-298.2 498.5,-298.2 498.5,-275.2 238.5,-275.2"/>
<polygon fill="none" stroke="#000000" points="238.5,-275.2 238.5,-298.2 498.5,-298.2 498.5,-275.2 238.5,-275.2"/>
<text text-anchor="start" x="243.5" y="-283.8" font-family="Helvetica,sans-Serif" font-weight="bold" font-size="11.00" fill="#000000">document_template_group_audit</text>
<text text-anchor="start" x="464.0219" y="-283.3" font-family="Helvetica,sans-Serif" font-size="11.00" fill="#000000">[table]</text>
<polygon fill="none" stroke="#000000" points="238.5,-256.2 238.5,-275.2 498.5,-275.2 498.5,-256.2 238.5,-256.2"/>
<text text-anchor="start" x="241.5" y="-262.3" font-family="Helvetica,sans-Serif" font-size="11.00" fill="#000000">...</text>
<polygon fill="#ffffff" stroke="transparent" points="238.5,-237.2 238.5,-256.2 366.5,-256.2 366.5,-237.2 238.5,-237.2"/>
<polygon fill="none" stroke="#000000" points="238.5,-237.2 238.5,-256.2 366.5,-256.2 366.5,-237.2 238.5,-237.2"/>
<text text-anchor="start" x="241.5" y="-243.3" font-family="Helvetica,sans-Serif" font-size="11.00" fill="#000000">&lt; 1</text>
<polygon fill="#ffffff" stroke="transparent" points="366.5,-237.2 366.5,-256.2 432.5,-256.2 432.5,-237.2 366.5,-237.2"/>
<polygon fill="none" stroke="#000000" points="366.5,-237.2 366.5,-256.2 432.5,-256.2 432.5,-237.2 366.5,-237.2"/>
<text text-anchor="start" x="423.3862" y="-243.3" font-family="Helvetica,sans-Serif" font-size="11.00" fill="#000000"> &#160;</text>
<polygon fill="#ffffff" stroke="transparent" points="432.5,-237.2 432.5,-256.2 498.5,-256.2 498.5,-237.2 432.5,-237.2"/>
<polygon fill="none" stroke="#000000" points="432.5,-237.2 432.5,-256.2 498.5,-256.2 498.5,-237.2 432.5,-237.2"/>
<text text-anchor="start" x="489.3862" y="-243.3" font-family="Helvetica,sans-Serif" font-size="11.00" fill="#000000"> &#160;</text>
</a>
</g>
</g>
<!-- document_template_group_audit&#45;&gt;audit_revision -->
<g id="edge2" class="edge">
<title>document_template_group_audit:w&#45;&gt;audit_revision:e</title>
<path fill="none" stroke="#000000" d="M223.7988,-265.2C192.428,-265.2 179.5278,-265.2 142,-265.2"/>
<polygon fill="#000000" stroke="#000000" points="230.5,-265.2001 238.5,-268.8 234.5,-265.2 238.5,-265.2 238.5,-265.2 238.5,-265.2 234.5,-265.2 238.5,-261.6 230.5,-265.2001 230.5,-265.2001"/>
<ellipse fill="none" stroke="#000000" cx="227.3" cy="-265.2001" rx="3.2" ry="3.2"/>
</g>
<!-- document_template_variable_audit -->
<g id="node4" class="node">
<title>document_template_variable_audit</title>
<g id="a_node4"><a xlink:href="../../tables/document_template_variable_audit.html" xlink:title="document_template_variable_audit" target="_top">
<polygon fill="#ffffff" stroke="transparent" points="191,-38.2 191,-216.2 546,-216.2 546,-38.2 191,-38.2"/>
<polygon fill="#f5f5f5" stroke="transparent" points="193.5,-191.2 193.5,-214.2 544.5,-214.2 544.5,-191.2 193.5,-191.2"/>
<polygon fill="none" stroke="#000000" points="193.5,-191.2 193.5,-214.2 544.5,-214.2 544.5,-191.2 193.5,-191.2"/>
<text text-anchor="start" x="198.5" y="-199.8" font-family="Helvetica,sans-Serif" font-weight="bold" font-size="11.00" fill="#000000">document_template_variable_audit</text>
<text text-anchor="start" x="509.5437" y="-199.3" font-family="Helvetica,sans-Serif" font-size="11.00" fill="#000000">[table]</text>
<polygon fill="none" stroke="#000000" points="193.5,-169.2 193.5,-191.2 450.5,-191.2 450.5,-169.2 193.5,-169.2"/>
<image xlink:href="../../images/primaryKeys.png" width="11px" height="12px" preserveAspectRatio="xMinYMin meet" x="198.5" y="-186.2"/>
<text text-anchor="start" x="213.5" y="-176.3" font-family="Helvetica,sans-Serif" font-size="11.00" fill="#000000">rev_id</text>
<polygon fill="none" stroke="#000000" points="450.5,-169.2 450.5,-191.2 544.5,-191.2 544.5,-169.2 450.5,-169.2"/>
<text text-anchor="start" x="453.5" y="-176.9" font-family="Helvetica,sans-Serif" font-size="11.00" fill="#000000">int8[19]</text>
<polygon fill="none" stroke="#000000" points="193.5,-147.2 193.5,-169.2 450.5,-169.2 450.5,-147.2 193.5,-147.2"/>
<text text-anchor="start" x="213.5" y="-154.3" font-family="Helvetica,sans-Serif" font-size="11.00" fill="#000000">rev_type</text>
<polygon fill="none" stroke="#000000" points="450.5,-147.2 450.5,-169.2 544.5,-169.2 544.5,-147.2 450.5,-147.2"/>
<text text-anchor="start" x="453.5" y="-154.9" font-family="Helvetica,sans-Serif" font-size="11.00" fill="#000000">int2[5]</text>
<polygon fill="none" stroke="#000000" points="193.5,-125.2 193.5,-147.2 450.5,-147.2 450.5,-125.2 193.5,-125.2"/>
<image xlink:href="../../images/primaryKeys.png" width="11px" height="12px" preserveAspectRatio="xMinYMin meet" x="198.5" y="-142.2"/>
<text text-anchor="start" x="213.5" y="-132.3" font-family="Helvetica,sans-Serif" font-size="11.00" fill="#000000">id</text>
<polygon fill="none" stroke="#000000" points="450.5,-125.2 450.5,-147.2 544.5,-147.2 544.5,-125.2 450.5,-125.2"/>
<text text-anchor="start" x="453.4758" y="-132.9" font-family="Helvetica,sans-Serif" font-size="11.00" fill="#000000">uuid[2147483647]</text>
<polygon fill="#ffffff" stroke="transparent" points="193.5,-103.2 193.5,-125.2 450.5,-125.2 450.5,-103.2 193.5,-103.2"/>
<polygon fill="none" stroke="#000000" points="193.5,-103.2 193.5,-125.2 450.5,-125.2 450.5,-103.2 193.5,-103.2"/>
<text text-anchor="start" x="213.5" y="-110.3" font-family="Helvetica,sans-Serif" font-size="11.00" fill="#000000">template_id</text>
<polygon fill="none" stroke="#000000" points="450.5,-103.2 450.5,-125.2 544.5,-125.2 544.5,-103.2 450.5,-103.2"/>
<text text-anchor="start" x="453.4758" y="-110.9" font-family="Helvetica,sans-Serif" font-size="11.00" fill="#000000">uuid[2147483647]</text>
<polygon fill="#ffffff" stroke="transparent" points="193.5,-81.2 193.5,-103.2 450.5,-103.2 450.5,-81.2 193.5,-81.2"/>
<polygon fill="none" stroke="#000000" points="193.5,-81.2 193.5,-103.2 450.5,-103.2 450.5,-81.2 193.5,-81.2"/>
<text text-anchor="start" x="213.5" y="-88.3" font-family="Helvetica,sans-Serif" font-size="11.00" fill="#000000">variable_id</text>
<polygon fill="none" stroke="#000000" points="450.5,-81.2 450.5,-103.2 544.5,-103.2 544.5,-81.2 450.5,-81.2"/>
<text text-anchor="start" x="453.4758" y="-88.9" font-family="Helvetica,sans-Serif" font-size="11.00" fill="#000000">uuid[2147483647]</text>
<polygon fill="none" stroke="#000000" points="193.5,-59.2 193.5,-81.2 450.5,-81.2 450.5,-59.2 193.5,-59.2"/>
<text text-anchor="start" x="213.5" y="-66.3" font-family="Helvetica,sans-Serif" font-size="11.00" fill="#000000">mandatory</text>
<polygon fill="none" stroke="#000000" points="450.5,-59.2 450.5,-81.2 544.5,-81.2 544.5,-59.2 450.5,-59.2"/>
<text text-anchor="start" x="453.5" y="-66.9" font-family="Helvetica,sans-Serif" font-size="11.00" fill="#000000">bool[1]</text>
<polygon fill="#ffffff" stroke="transparent" points="193.5,-40.2 193.5,-59.2 326.5,-59.2 326.5,-40.2 193.5,-40.2"/>
<polygon fill="none" stroke="#000000" points="193.5,-40.2 193.5,-59.2 326.5,-59.2 326.5,-40.2 193.5,-40.2"/>
<text text-anchor="start" x="196.5" y="-46.3" font-family="Helvetica,sans-Serif" font-size="11.00" fill="#000000">&lt; 1</text>
<polygon fill="#ffffff" stroke="transparent" points="326.5,-40.2 326.5,-59.2 450.5,-59.2 450.5,-40.2 326.5,-40.2"/>
<polygon fill="none" stroke="#000000" points="326.5,-40.2 326.5,-59.2 450.5,-59.2 450.5,-40.2 326.5,-40.2"/>
<text text-anchor="start" x="441.3862" y="-46.3" font-family="Helvetica,sans-Serif" font-size="11.00" fill="#000000"> &#160;</text>
<polygon fill="#ffffff" stroke="transparent" points="450.5,-40.2 450.5,-59.2 544.5,-59.2 544.5,-40.2 450.5,-40.2"/>
<polygon fill="none" stroke="#000000" points="450.5,-40.2 450.5,-59.2 544.5,-59.2 544.5,-40.2 450.5,-40.2"/>
<text text-anchor="start" x="525.9053" y="-46.3" font-family="Helvetica,sans-Serif" font-size="11.00" fill="#000000">0 &gt;</text>
<polygon fill="none" stroke="#000000" stroke-width="2" points="192,-39.2 192,-215.2 545,-215.2 545,-39.2 192,-39.2"/>
</a>
</g>
</g>
<!-- document_template_variable_audit&#45;&gt;audit_revision -->
<g id="edge3" class="edge">
<title>document_template_variable_audit:w&#45;&gt;audit_revision:e</title>
<path fill="none" stroke="#000000" d="M179.5119,-184.532C157.8888,-201.8534 180.1318,-265.2 142,-265.2"/>
<polygon fill="#000000" stroke="#000000" points="185.8581,-182.5667 194.565,-183.6389 189.679,-181.3833 193.5,-180.2 193.5,-180.2 193.5,-180.2 189.679,-181.3833 192.435,-176.7611 185.8581,-182.5667 185.8581,-182.5667"/>
<ellipse fill="none" stroke="#000000" cx="182.8013" cy="-183.5134" rx="3.2" ry="3.2"/>
</g>
</g>
</svg>
