<?xml version="1.0" encoding="UTF-8" standalone="no"?>
<!DOCTYPE svg PUBLIC "-//W3C//DTD SVG 1.1//EN"
 "http://www.w3.org/Graphics/SVG/1.1/DTD/svg11.dtd">
<!-- Generated by graphviz version 2.40.1 (20161225.0304)
 -->
<!-- Title: twoDegreesRelationshipsDiagramImplied Pages: 1 -->
<svg width="826pt" height="475pt"
 viewBox="0.00 0.00 826.00 475.20" xmlns="http://www.w3.org/2000/svg" xmlns:xlink="http://www.w3.org/1999/xlink">
<g id="graph0" class="graph" transform="scale(1 1) rotate(0) translate(4 471.2)">
<title>twoDegreesRelationshipsDiagramImplied</title>
<polygon fill="#ffffff" stroke="transparent" points="-4,4 -4,-471.2 822,-471.2 822,4 -4,4"/>
<text text-anchor="middle" x="72.4936" y="-7.3" font-family="Helvetica,sans-Serif" font-size="11.00" fill="#000000">Generated by SchemaSpy</text>
<!-- document_template -->
<g id="node1" class="node">
<title>document_template</title>
<g id="a_node1"><a xlink:href="../../tables/document_template.html" xlink:title="document_template" target="_top">
<polygon fill="#ffffff" stroke="transparent" points="274,-120.7 274,-298.7 527,-298.7 527,-120.7 274,-120.7"/>
<polygon fill="#f5f5f5" stroke="transparent" points="276.5,-273.7 276.5,-296.7 525.5,-296.7 525.5,-273.7 276.5,-273.7"/>
<polygon fill="none" stroke="#000000" points="276.5,-273.7 276.5,-296.7 525.5,-296.7 525.5,-273.7 276.5,-273.7"/>
<text text-anchor="start" x="281.5" y="-282.3" font-family="Helvetica,sans-Serif" font-weight="bold" font-size="11.00" fill="#000000">document_template</text>
<text text-anchor="start" x="490.5437" y="-281.8" font-family="Helvetica,sans-Serif" font-size="11.00" fill="#000000">[table]</text>
<polygon fill="none" stroke="#000000" points="276.5,-251.7 276.5,-273.7 431.5,-273.7 431.5,-251.7 276.5,-251.7"/>
<image xlink:href="../../images/primaryKeys.png" width="11px" height="12px" preserveAspectRatio="xMinYMin meet" x="281.5" y="-268.7"/>
<text text-anchor="start" x="296.5" y="-258.8" font-family="Helvetica,sans-Serif" font-size="11.00" fill="#000000">id</text>
<polygon fill="none" stroke="#000000" points="431.5,-251.7 431.5,-273.7 525.5,-273.7 525.5,-251.7 431.5,-251.7"/>
<text text-anchor="start" x="434.4758" y="-259.4" font-family="Helvetica,sans-Serif" font-size="11.00" fill="#000000">uuid[2147483647]</text>
<polygon fill="#ffffff" stroke="transparent" points="276.5,-229.7 276.5,-251.7 431.5,-251.7 431.5,-229.7 276.5,-229.7"/>
<polygon fill="none" stroke="#000000" points="276.5,-229.7 276.5,-251.7 431.5,-251.7 431.5,-229.7 276.5,-229.7"/>
<image xlink:href="../../images/foreignKeys.png" width="11px" height="12px" preserveAspectRatio="xMinYMin meet" x="281.5" y="-246.7"/>
<text text-anchor="start" x="296.5" y="-236.8" font-family="Helvetica,sans-Serif" font-size="11.00" fill="#000000">code</text>
<polygon fill="none" stroke="#000000" points="431.5,-229.7 431.5,-251.7 525.5,-251.7 525.5,-229.7 431.5,-229.7"/>
<text text-anchor="start" x="434.5" y="-237.4" font-family="Helvetica,sans-Serif" font-size="11.00" fill="#000000">text[2147483647]</text>
<polygon fill="none" stroke="#000000" points="276.5,-207.7 276.5,-229.7 431.5,-229.7 431.5,-207.7 276.5,-207.7"/>
<text text-anchor="start" x="296.5" y="-214.8" font-family="Helvetica,sans-Serif" font-size="11.00" fill="#000000">name</text>
<polygon fill="none" stroke="#000000" points="431.5,-207.7 431.5,-229.7 525.5,-229.7 525.5,-207.7 431.5,-207.7"/>
<text text-anchor="start" x="434.5" y="-215.4" font-family="Helvetica,sans-Serif" font-size="11.00" fill="#000000">text[2147483647]</text>
<polygon fill="none" stroke="#000000" points="276.5,-185.7 276.5,-207.7 431.5,-207.7 431.5,-185.7 276.5,-185.7"/>
<text text-anchor="start" x="296.5" y="-192.8" font-family="Helvetica,sans-Serif" font-size="11.00" fill="#000000">description</text>
<polygon fill="none" stroke="#000000" points="431.5,-185.7 431.5,-207.7 525.5,-207.7 525.5,-185.7 431.5,-185.7"/>
<text text-anchor="start" x="434.5" y="-193.4" font-family="Helvetica,sans-Serif" font-size="11.00" fill="#000000">text[2147483647]</text>
<polygon fill="none" stroke="#000000" points="276.5,-163.7 276.5,-185.7 431.5,-185.7 431.5,-163.7 276.5,-163.7"/>
<text text-anchor="start" x="296.5" y="-170.8" font-family="Helvetica,sans-Serif" font-size="11.00" fill="#000000">version</text>
<polygon fill="none" stroke="#000000" points="431.5,-163.7 431.5,-185.7 525.5,-185.7 525.5,-163.7 431.5,-163.7"/>
<text text-anchor="start" x="434.5" y="-171.4" font-family="Helvetica,sans-Serif" font-size="11.00" fill="#000000">int4[10]</text>
<polygon fill="#ffffff" stroke="transparent" points="276.5,-141.7 276.5,-163.7 431.5,-163.7 431.5,-141.7 276.5,-141.7"/>
<polygon fill="none" stroke="#000000" points="276.5,-141.7 276.5,-163.7 431.5,-163.7 431.5,-141.7 276.5,-141.7"/>
<text text-anchor="start" x="296.5" y="-148.8" font-family="Helvetica,sans-Serif" font-size="11.00" fill="#000000">external_reference</text>
<polygon fill="none" stroke="#000000" points="431.5,-141.7 431.5,-163.7 525.5,-163.7 525.5,-141.7 431.5,-141.7"/>
<text text-anchor="start" x="434.4758" y="-149.4" font-family="Helvetica,sans-Serif" font-size="11.00" fill="#000000">uuid[2147483647]</text>
<polygon fill="#ffffff" stroke="transparent" points="276.5,-122.7 276.5,-141.7 358.5,-141.7 358.5,-122.7 276.5,-122.7"/>
<polygon fill="none" stroke="#000000" points="276.5,-122.7 276.5,-141.7 358.5,-141.7 358.5,-122.7 276.5,-122.7"/>
<text text-anchor="start" x="279.5" y="-128.8" font-family="Helvetica,sans-Serif" font-size="11.00" fill="#000000">&lt; 1</text>
<polygon fill="#ffffff" stroke="transparent" points="358.5,-122.7 358.5,-141.7 431.5,-141.7 431.5,-122.7 358.5,-122.7"/>
<polygon fill="none" stroke="#000000" points="358.5,-122.7 358.5,-141.7 431.5,-141.7 431.5,-122.7 358.5,-122.7"/>
<text text-anchor="start" x="422.3862" y="-128.8" font-family="Helvetica,sans-Serif" font-size="11.00" fill="#000000"> &#160;</text>
<polygon fill="#ffffff" stroke="transparent" points="431.5,-122.7 431.5,-141.7 525.5,-141.7 525.5,-122.7 431.5,-122.7"/>
<polygon fill="none" stroke="#000000" points="431.5,-122.7 431.5,-141.7 525.5,-141.7 525.5,-122.7 431.5,-122.7"/>
<text text-anchor="start" x="506.9053" y="-128.8" font-family="Helvetica,sans-Serif" font-size="11.00" fill="#000000">2 &gt;</text>
<polygon fill="none" stroke="#000000" stroke-width="2" points="275,-121.7 275,-297.7 526,-297.7 526,-121.7 275,-121.7"/>
</a>
</g>
</g>
<!-- template_variable_domain -->
<g id="node2" class="node">
<title>template_variable_domain</title>
<g id="a_node2"><a xlink:href="../../tables/template_variable_domain.html" xlink:title="template_variable_domain" target="_top">
<polygon fill="#ffffff" stroke="transparent" points="8,-170.2 8,-275.2 225,-275.2 225,-170.2 8,-170.2"/>
<polygon fill="#f5f5f5" stroke="transparent" points="8.5,-251.7 8.5,-274.7 225.5,-274.7 225.5,-251.7 8.5,-251.7"/>
<polygon fill="none" stroke="#000000" points="8.5,-251.7 8.5,-274.7 225.5,-274.7 225.5,-251.7 8.5,-251.7"/>
<text text-anchor="start" x="13.5" y="-260.3" font-family="Helvetica,sans-Serif" font-weight="bold" font-size="11.00" fill="#000000">template_variable_domain</text>
<text text-anchor="start" x="191.0219" y="-259.8" font-family="Helvetica,sans-Serif" font-size="11.00" fill="#000000">[table]</text>
<polygon fill="none" stroke="#000000" points="8.5,-229.7 8.5,-251.7 225.5,-251.7 225.5,-229.7 8.5,-229.7"/>
<image xlink:href="../../images/primaryKeys.png" width="11px" height="12px" preserveAspectRatio="xMinYMin meet" x="13.5" y="-246.7"/>
<text text-anchor="start" x="37.5" y="-236.8" font-family="Helvetica,sans-Serif" font-size="11.00" fill="#000000">code</text>
<polygon fill="#ffffff" stroke="transparent" points="8.5,-207.7 8.5,-229.7 225.5,-229.7 225.5,-207.7 8.5,-207.7"/>
<polygon fill="none" stroke="#000000" points="8.5,-207.7 8.5,-229.7 225.5,-229.7 225.5,-207.7 8.5,-207.7"/>
<text text-anchor="start" x="37.5" y="-214.8" font-family="Helvetica,sans-Serif" font-size="11.00" fill="#000000">sequence_number</text>
<polygon fill="none" stroke="#000000" points="8.5,-188.7 8.5,-207.7 225.5,-207.7 225.5,-188.7 8.5,-188.7"/>
<text text-anchor="start" x="11.5" y="-194.8" font-family="Helvetica,sans-Serif" font-size="11.00" fill="#000000">...</text>
<polygon fill="#ffffff" stroke="transparent" points="8.5,-169.7 8.5,-188.7 106.5,-188.7 106.5,-169.7 8.5,-169.7"/>
<polygon fill="none" stroke="#000000" points="8.5,-169.7 8.5,-188.7 106.5,-188.7 106.5,-169.7 8.5,-169.7"/>
<text text-anchor="start" x="11.5" y="-175.8" font-family="Helvetica,sans-Serif" font-size="11.00" fill="#000000"> &#160;</text>
<polygon fill="#ffffff" stroke="transparent" points="106.5,-169.7 106.5,-188.7 161.5,-188.7 161.5,-169.7 106.5,-169.7"/>
<polygon fill="none" stroke="#000000" points="106.5,-169.7 106.5,-188.7 161.5,-188.7 161.5,-169.7 106.5,-169.7"/>
<text text-anchor="start" x="152.3862" y="-175.8" font-family="Helvetica,sans-Serif" font-size="11.00" fill="#000000"> &#160;</text>
<polygon fill="#ffffff" stroke="transparent" points="161.5,-169.7 161.5,-188.7 225.5,-188.7 225.5,-169.7 161.5,-169.7"/>
<polygon fill="none" stroke="#000000" points="161.5,-169.7 161.5,-188.7 225.5,-188.7 225.5,-169.7 161.5,-169.7"/>
<text text-anchor="start" x="206.9053" y="-175.8" font-family="Helvetica,sans-Serif" font-size="11.00" fill="#000000">5 &gt;</text>
</a>
</g>
</g>
<!-- document_template&#45;&gt;template_variable_domain -->
<g id="edge1" class="edge">
<title>document_template:w&#45;&gt;template_variable_domain:e</title>
<path fill="none" stroke="#000000" stroke-dasharray="5,2" d="M265.7307,-240.7C251.248,-240.7 244.0938,-240.7 225.5,-240.7"/>
<polygon fill="#000000" stroke="#000000" points="275.7,-236.7 275.7,-244.7 274.1,-244.7 274.1,-236.7 275.7,-236.7"/>
<polyline fill="none" stroke="#000000" points="276.5,-240.7 272.5,-240.7 "/>
<ellipse fill="none" stroke="#000000" cx="269.3" cy="-240.7001" rx="3.2" ry="3.2"/>
</g>
<!-- document_template_audit -->
<g id="node3" class="node">
<title>document_template_audit</title>
<g id="a_node3"><a xlink:href="../../tables/document_template_audit.html" xlink:title="document_template_audit" target="_top">
<polygon fill="#ffffff" stroke="transparent" points="293.5,-320.2 293.5,-381.2 507.5,-381.2 507.5,-320.2 293.5,-320.2"/>
<polygon fill="#f5f5f5" stroke="transparent" points="293.5,-357.7 293.5,-380.7 507.5,-380.7 507.5,-357.7 293.5,-357.7"/>
<polygon fill="none" stroke="#000000" points="293.5,-357.7 293.5,-380.7 507.5,-380.7 507.5,-357.7 293.5,-357.7"/>
<text text-anchor="start" x="298.5" y="-366.3" font-family="Helvetica,sans-Serif" font-weight="bold" font-size="11.00" fill="#000000">document_template_audit</text>
<text text-anchor="start" x="473.0219" y="-365.8" font-family="Helvetica,sans-Serif" font-size="11.00" fill="#000000">[table]</text>
<polygon fill="none" stroke="#000000" points="293.5,-338.7 293.5,-357.7 507.5,-357.7 507.5,-338.7 293.5,-338.7"/>
<text text-anchor="start" x="296.5" y="-344.8" font-family="Helvetica,sans-Serif" font-size="11.00" fill="#000000">...</text>
<polygon fill="#ffffff" stroke="transparent" points="293.5,-319.7 293.5,-338.7 398.5,-338.7 398.5,-319.7 293.5,-319.7"/>
<polygon fill="none" stroke="#000000" points="293.5,-319.7 293.5,-338.7 398.5,-338.7 398.5,-319.7 293.5,-319.7"/>
<text text-anchor="start" x="296.5" y="-325.8" font-family="Helvetica,sans-Serif" font-size="11.00" fill="#000000">&lt; 2</text>
<polygon fill="#ffffff" stroke="transparent" points="398.5,-319.7 398.5,-338.7 452.5,-338.7 452.5,-319.7 398.5,-319.7"/>
<polygon fill="none" stroke="#000000" points="398.5,-319.7 398.5,-338.7 452.5,-338.7 452.5,-319.7 398.5,-319.7"/>
<text text-anchor="start" x="443.3862" y="-325.8" font-family="Helvetica,sans-Serif" font-size="11.00" fill="#000000"> &#160;</text>
<polygon fill="#ffffff" stroke="transparent" points="452.5,-319.7 452.5,-338.7 507.5,-338.7 507.5,-319.7 452.5,-319.7"/>
<polygon fill="none" stroke="#000000" points="452.5,-319.7 452.5,-338.7 507.5,-338.7 507.5,-319.7 452.5,-319.7"/>
<text text-anchor="start" x="498.3862" y="-325.8" font-family="Helvetica,sans-Serif" font-size="11.00" fill="#000000"> &#160;</text>
</a>
</g>
</g>
<!-- document_template_audit&#45;&gt;template_variable_domain -->
<g id="edge2" class="edge">
<title>document_template_audit:w&#45;&gt;template_variable_domain:e</title>
<path fill="none" stroke="#000000" stroke-dasharray="5,2" d="M279.2469,-344.6131C245.1896,-327.0693 276.1237,-240.7 225.5,-240.7"/>
<polygon fill="#000000" stroke="#000000" points="285.6813,-346.0066 292.738,-351.2184 289.5906,-346.8533 293.5,-347.7 293.5,-347.7 293.5,-347.7 289.5906,-346.8533 294.262,-344.1816 285.6813,-346.0066 285.6813,-346.0066"/>
<ellipse fill="none" stroke="#000000" cx="282.5538" cy="-345.3292" rx="3.2" ry="3.2"/>
</g>
<!-- document_template_group -->
<g id="node4" class="node">
<title>document_template_group</title>
<g id="a_node4"><a xlink:href="../../tables/document_template_group.html" xlink:title="document_template_group" target="_top">
<polygon fill="#ffffff" stroke="transparent" points="583.5,-304.7 583.5,-412.7 802.5,-412.7 802.5,-304.7 583.5,-304.7"/>
<polygon fill="#f5f5f5" stroke="transparent" points="584,-389.7 584,-412.7 803,-412.7 803,-389.7 584,-389.7"/>
<polygon fill="none" stroke="#000000" points="584,-389.7 584,-412.7 803,-412.7 803,-389.7 584,-389.7"/>
<text text-anchor="start" x="589" y="-398.3" font-family="Helvetica,sans-Serif" font-weight="bold" font-size="11.00" fill="#000000">document_template_group</text>
<text text-anchor="start" x="768.5219" y="-397.8" font-family="Helvetica,sans-Serif" font-size="11.00" fill="#000000">[table]</text>
<polygon fill="none" stroke="#000000" points="584,-367.7 584,-389.7 803,-389.7 803,-367.7 584,-367.7"/>
<image xlink:href="../../images/primaryKeys.png" width="11px" height="12px" preserveAspectRatio="xMinYMin meet" x="589" y="-384.7"/>
<text text-anchor="start" x="613" y="-374.8" font-family="Helvetica,sans-Serif" font-size="11.00" fill="#000000">id</text>
<polygon fill="#ffffff" stroke="transparent" points="584,-345.7 584,-367.7 803,-367.7 803,-345.7 584,-345.7"/>
<polygon fill="none" stroke="#000000" points="584,-345.7 584,-367.7 803,-367.7 803,-345.7 584,-345.7"/>
<image xlink:href="../../images/foreignKeys.png" width="11px" height="12px" preserveAspectRatio="xMinYMin meet" x="589" y="-362.7"/>
<text text-anchor="start" x="613" y="-352.8" font-family="Helvetica,sans-Serif" font-size="11.00" fill="#000000">template_id</text>
<polygon fill="#ffffff" stroke="transparent" points="584,-323.7 584,-345.7 803,-345.7 803,-323.7 584,-323.7"/>
<polygon fill="none" stroke="#000000" points="584,-323.7 584,-345.7 803,-345.7 803,-323.7 584,-323.7"/>
<image xlink:href="../../images/foreignKeys.png" width="11px" height="12px" preserveAspectRatio="xMinYMin meet" x="589" y="-340.7"/>
<text text-anchor="start" x="613" y="-330.8" font-family="Helvetica,sans-Serif" font-size="11.00" fill="#000000">template_group_id</text>
<polygon fill="#ffffff" stroke="transparent" points="584,-304.7 584,-323.7 692,-323.7 692,-304.7 584,-304.7"/>
<polygon fill="none" stroke="#000000" points="584,-304.7 584,-323.7 692,-323.7 692,-304.7 584,-304.7"/>
<text text-anchor="start" x="587" y="-310.8" font-family="Helvetica,sans-Serif" font-size="11.00" fill="#000000">&lt; 2</text>
<polygon fill="#ffffff" stroke="transparent" points="692,-304.7 692,-323.7 747,-323.7 747,-304.7 692,-304.7"/>
<polygon fill="none" stroke="#000000" points="692,-304.7 692,-323.7 747,-323.7 747,-304.7 692,-304.7"/>
<text text-anchor="start" x="737.8862" y="-310.8" font-family="Helvetica,sans-Serif" font-size="11.00" fill="#000000"> &#160;</text>
<polygon fill="#ffffff" stroke="transparent" points="747,-304.7 747,-323.7 803,-323.7 803,-304.7 747,-304.7"/>
<polygon fill="none" stroke="#000000" points="747,-304.7 747,-323.7 803,-323.7 803,-304.7 747,-304.7"/>
<text text-anchor="start" x="793.8862" y="-310.8" font-family="Helvetica,sans-Serif" font-size="11.00" fill="#000000"> &#160;</text>
</a>
</g>
</g>
<!-- document_template_group&#45;&gt;document_template -->
<g id="edge4" class="edge">
<title>document_template_group:w&#45;&gt;document_template:e</title>
<path fill="none" stroke="#000000" d="M569.7279,-352.8987C543.1525,-335.3128 568.7488,-262.7 525.5,-262.7"/>
<polygon fill="#000000" stroke="#000000" points="576.2695,-354.641 583.0734,-360.1787 580.1348,-355.6705 584,-356.7 584,-356.7 584,-356.7 580.1348,-355.6705 584.9266,-353.2213 576.2695,-354.641 576.2695,-354.641"/>
<ellipse fill="none" stroke="#000000" cx="573.1773" cy="-353.8173" rx="3.2" ry="3.2"/>
</g>
<!-- template_group -->
<g id="node5" class="node">
<title>template_group</title>
<g id="a_node5"><a xlink:href="../../tables/template_group.html" xlink:title="template_group" target="_top">
<polygon fill="#ffffff" stroke="transparent" points="328,-402.2 328,-463.2 473,-463.2 473,-402.2 328,-402.2"/>
<polygon fill="#f5f5f5" stroke="transparent" points="328.5,-439.7 328.5,-462.7 473.5,-462.7 473.5,-439.7 328.5,-439.7"/>
<polygon fill="none" stroke="#000000" points="328.5,-439.7 328.5,-462.7 473.5,-462.7 473.5,-439.7 328.5,-439.7"/>
<text text-anchor="start" x="333.5" y="-448.3" font-family="Helvetica,sans-Serif" font-weight="bold" font-size="11.00" fill="#000000">template_group</text>
<text text-anchor="start" x="439.0219" y="-447.8" font-family="Helvetica,sans-Serif" font-size="11.00" fill="#000000">[table]</text>
<polygon fill="none" stroke="#000000" points="328.5,-420.7 328.5,-439.7 473.5,-439.7 473.5,-420.7 328.5,-420.7"/>
<text text-anchor="start" x="331.5" y="-426.8" font-family="Helvetica,sans-Serif" font-size="11.00" fill="#000000">...</text>
<polygon fill="#ffffff" stroke="transparent" points="328.5,-401.7 328.5,-420.7 394.5,-420.7 394.5,-401.7 328.5,-401.7"/>
<polygon fill="none" stroke="#000000" points="328.5,-401.7 328.5,-420.7 394.5,-420.7 394.5,-401.7 328.5,-401.7"/>
<text text-anchor="start" x="331.5" y="-407.8" font-family="Helvetica,sans-Serif" font-size="11.00" fill="#000000">&lt; 1</text>
<polygon fill="#ffffff" stroke="transparent" points="394.5,-401.7 394.5,-420.7 429.5,-420.7 429.5,-401.7 394.5,-401.7"/>
<polygon fill="none" stroke="#000000" points="394.5,-401.7 394.5,-420.7 429.5,-420.7 429.5,-401.7 394.5,-401.7"/>
<text text-anchor="start" x="420.3862" y="-407.8" font-family="Helvetica,sans-Serif" font-size="11.00" fill="#000000"> &#160;</text>
<polygon fill="#ffffff" stroke="transparent" points="429.5,-401.7 429.5,-420.7 473.5,-420.7 473.5,-401.7 429.5,-401.7"/>
<polygon fill="none" stroke="#000000" points="429.5,-401.7 429.5,-420.7 473.5,-420.7 473.5,-401.7 429.5,-401.7"/>
<text text-anchor="start" x="454.9053" y="-407.8" font-family="Helvetica,sans-Serif" font-size="11.00" fill="#000000">1 &gt;</text>
</a>
</g>
</g>
<!-- document_template_group&#45;&gt;template_group -->
<g id="edge3" class="edge">
<title>document_template_group:w&#45;&gt;template_group:e</title>
<path fill="none" stroke="#000000" d="M569.7221,-337.8354C552.9798,-346.9461 555.8343,-373.8973 535,-391.7 510.573,-412.5727 505.6301,-429.7 473.5,-429.7"/>
<polygon fill="#000000" stroke="#000000" points="576.1862,-336.4159 584.7722,-338.2162 580.0931,-335.558 584,-334.7 584,-334.7 584,-334.7 580.0931,-335.558 583.2278,-331.1838 576.1862,-336.4159 576.1862,-336.4159"/>
<ellipse fill="none" stroke="#000000" cx="573.0607" cy="-337.1023" rx="3.2" ry="3.2"/>
</g>
<!-- template_group&#45;&gt;template_variable_domain -->
<g id="edge7" class="edge">
<title>template_group:w&#45;&gt;template_variable_domain:e</title>
<path fill="none" stroke="#000000" stroke-dasharray="5,2" d="M317.9282,-429.2028C293.4083,-426.6976 283.2146,-414.6633 266,-391.7 224.3224,-336.1043 294.9831,-240.7 225.5,-240.7"/>
<polygon fill="#000000" stroke="#000000" points="327.8888,-425.6668 327.5129,-433.658 325.9147,-433.5828 326.2906,-425.5916 327.8888,-425.6668"/>
<polyline fill="none" stroke="#000000" points="328.5,-429.7 324.5044,-429.5121 "/>
<ellipse fill="none" stroke="#000000" cx="321.3079" cy="-429.3617" rx="3.2" ry="3.2"/>
</g>
<!-- document_template_variable -->
<g id="node6" class="node">
<title>document_template_variable</title>
<g id="a_node6"><a xlink:href="../../tables/document_template_variable.html" xlink:title="document_template_variable" target="_top">
<polygon fill="#ffffff" stroke="transparent" points="576,-86.2 576,-213.2 810,-213.2 810,-86.2 576,-86.2"/>
<polygon fill="#f5f5f5" stroke="transparent" points="576,-189.7 576,-212.7 810,-212.7 810,-189.7 576,-189.7"/>
<polygon fill="none" stroke="#000000" points="576,-189.7 576,-212.7 810,-212.7 810,-189.7 576,-189.7"/>
<text text-anchor="start" x="581" y="-198.3" font-family="Helvetica,sans-Serif" font-weight="bold" font-size="11.00" fill="#000000">document_template_variable</text>
<text text-anchor="start" x="775.5219" y="-197.8" font-family="Helvetica,sans-Serif" font-size="11.00" fill="#000000">[table]</text>
<polygon fill="none" stroke="#000000" points="576,-167.7 576,-189.7 810,-189.7 810,-167.7 576,-167.7"/>
<image xlink:href="../../images/primaryKeys.png" width="11px" height="12px" preserveAspectRatio="xMinYMin meet" x="581" y="-184.7"/>
<text text-anchor="start" x="605" y="-174.8" font-family="Helvetica,sans-Serif" font-size="11.00" fill="#000000">id</text>
<polygon fill="#ffffff" stroke="transparent" points="576,-145.7 576,-167.7 810,-167.7 810,-145.7 576,-145.7"/>
<polygon fill="none" stroke="#000000" points="576,-145.7 576,-167.7 810,-167.7 810,-145.7 576,-145.7"/>
<image xlink:href="../../images/foreignKeys.png" width="11px" height="12px" preserveAspectRatio="xMinYMin meet" x="581" y="-162.7"/>
<text text-anchor="start" x="605" y="-152.8" font-family="Helvetica,sans-Serif" font-size="11.00" fill="#000000">template_id</text>
<polygon fill="#ffffff" stroke="transparent" points="576,-123.7 576,-145.7 810,-145.7 810,-123.7 576,-123.7"/>
<polygon fill="none" stroke="#000000" points="576,-123.7 576,-145.7 810,-145.7 810,-123.7 576,-123.7"/>
<image xlink:href="../../images/foreignKeys.png" width="11px" height="12px" preserveAspectRatio="xMinYMin meet" x="581" y="-140.7"/>
<text text-anchor="start" x="605" y="-130.8" font-family="Helvetica,sans-Serif" font-size="11.00" fill="#000000">variable_id</text>
<polygon fill="none" stroke="#000000" points="576,-104.7 576,-123.7 810,-123.7 810,-104.7 576,-104.7"/>
<text text-anchor="start" x="579" y="-110.8" font-family="Helvetica,sans-Serif" font-size="11.00" fill="#000000">...</text>
<polygon fill="#ffffff" stroke="transparent" points="576,-85.7 576,-104.7 691,-104.7 691,-85.7 576,-85.7"/>
<polygon fill="none" stroke="#000000" points="576,-85.7 576,-104.7 691,-104.7 691,-85.7 576,-85.7"/>
<text text-anchor="start" x="579" y="-91.8" font-family="Helvetica,sans-Serif" font-size="11.00" fill="#000000">&lt; 2</text>
<polygon fill="#ffffff" stroke="transparent" points="691,-85.7 691,-104.7 750,-104.7 750,-85.7 691,-85.7"/>
<polygon fill="none" stroke="#000000" points="691,-85.7 691,-104.7 750,-104.7 750,-85.7 691,-85.7"/>
<text text-anchor="start" x="740.8862" y="-91.8" font-family="Helvetica,sans-Serif" font-size="11.00" fill="#000000"> &#160;</text>
<polygon fill="#ffffff" stroke="transparent" points="750,-85.7 750,-104.7 810,-104.7 810,-85.7 750,-85.7"/>
<polygon fill="none" stroke="#000000" points="750,-85.7 750,-104.7 810,-104.7 810,-85.7 750,-85.7"/>
<text text-anchor="start" x="800.8862" y="-91.8" font-family="Helvetica,sans-Serif" font-size="11.00" fill="#000000"> &#160;</text>
</a>
</g>
</g>
<!-- document_template_variable&#45;&gt;document_template -->
<g id="edge5" class="edge">
<title>document_template_variable:w&#45;&gt;document_template:e</title>
<path fill="none" stroke="#000000" d="M562.04,-160.4726C534.6593,-179.3554 571.7729,-262.7 525.5,-262.7"/>
<polygon fill="#000000" stroke="#000000" points="568.277,-158.7871 576.9392,-160.1753 572.1385,-157.7436 576,-156.7 576,-156.7 576,-156.7 572.1385,-157.7436 575.0608,-153.2247 568.277,-158.7871 568.277,-158.7871"/>
<ellipse fill="none" stroke="#000000" cx="565.1879" cy="-159.622" rx="3.2" ry="3.2"/>
</g>
<!-- template_variable -->
<g id="node7" class="node">
<title>template_variable</title>
<g id="a_node7"><a xlink:href="../../tables/template_variable.html" xlink:title="template_variable" target="_top">
<polygon fill="#ffffff" stroke="transparent" points="320.5,-38.2 320.5,-99.2 480.5,-99.2 480.5,-38.2 320.5,-38.2"/>
<polygon fill="#f5f5f5" stroke="transparent" points="320.5,-75.7 320.5,-98.7 480.5,-98.7 480.5,-75.7 320.5,-75.7"/>
<polygon fill="none" stroke="#000000" points="320.5,-75.7 320.5,-98.7 480.5,-98.7 480.5,-75.7 320.5,-75.7"/>
<text text-anchor="start" x="325.5" y="-84.3" font-family="Helvetica,sans-Serif" font-weight="bold" font-size="11.00" fill="#000000">template_variable</text>
<text text-anchor="start" x="446.0219" y="-83.8" font-family="Helvetica,sans-Serif" font-size="11.00" fill="#000000">[table]</text>
<polygon fill="none" stroke="#000000" points="320.5,-56.7 320.5,-75.7 480.5,-75.7 480.5,-56.7 320.5,-56.7"/>
<text text-anchor="start" x="323.5" y="-62.8" font-family="Helvetica,sans-Serif" font-size="11.00" fill="#000000">...</text>
<polygon fill="#ffffff" stroke="transparent" points="320.5,-37.7 320.5,-56.7 394.5,-56.7 394.5,-37.7 320.5,-37.7"/>
<polygon fill="none" stroke="#000000" points="320.5,-37.7 320.5,-56.7 394.5,-56.7 394.5,-37.7 320.5,-37.7"/>
<text text-anchor="start" x="323.5" y="-43.8" font-family="Helvetica,sans-Serif" font-size="11.00" fill="#000000">&lt; 2</text>
<polygon fill="#ffffff" stroke="transparent" points="394.5,-37.7 394.5,-56.7 432.5,-56.7 432.5,-37.7 394.5,-37.7"/>
<polygon fill="none" stroke="#000000" points="394.5,-37.7 394.5,-56.7 432.5,-56.7 432.5,-37.7 394.5,-37.7"/>
<text text-anchor="start" x="423.3862" y="-43.8" font-family="Helvetica,sans-Serif" font-size="11.00" fill="#000000"> &#160;</text>
<polygon fill="#ffffff" stroke="transparent" points="432.5,-37.7 432.5,-56.7 480.5,-56.7 480.5,-37.7 432.5,-37.7"/>
<polygon fill="none" stroke="#000000" points="432.5,-37.7 432.5,-56.7 480.5,-56.7 480.5,-37.7 432.5,-37.7"/>
<text text-anchor="start" x="461.9053" y="-43.8" font-family="Helvetica,sans-Serif" font-size="11.00" fill="#000000">1 &gt;</text>
</a>
</g>
</g>
<!-- document_template_variable&#45;&gt;template_variable -->
<g id="edge6" class="edge">
<title>document_template_variable:w&#45;&gt;template_variable:e</title>
<path fill="none" stroke="#000000" d="M561.3426,-132.5593C524.8975,-120.9128 527.3411,-65.7 480.5,-65.7"/>
<polygon fill="#000000" stroke="#000000" points="568.084,-133.5438 575.4797,-138.2622 572.042,-134.1219 576,-134.7 576,-134.7 576,-134.7 572.042,-134.1219 576.5203,-131.1378 568.084,-133.5438 568.084,-133.5438"/>
<ellipse fill="none" stroke="#000000" cx="564.9176" cy="-133.0814" rx="3.2" ry="3.2"/>
</g>
<!-- template_variable&#45;&gt;template_variable_domain -->
<g id="edge8" class="edge">
<title>template_variable:w&#45;&gt;template_variable_domain:e</title>
<path fill="none" stroke="#000000" stroke-dasharray="5,2" d="M310.158,-64.5851C287.5621,-64.3874 281.3899,-81.7791 266,-104.7 232.2656,-154.9421 286.0167,-234.7 225.5,-240.7"/>
<polygon fill="#000000" stroke="#000000" points="320.1334,-61.6373 319.2758,-69.5912 317.6851,-69.4197 318.5426,-61.4658 320.1334,-61.6373"/>
<polyline fill="none" stroke="#000000" points="320.5,-65.7 316.523,-65.2712 "/>
<ellipse fill="none" stroke="#000000" cx="313.3415" cy="-64.9282" rx="3.2" ry="3.2"/>
</g>
<!-- template_variable&#45;&gt;template_variable_domain -->
<g id="edge9" class="edge">
<title>template_variable:w&#45;&gt;template_variable_domain:e</title>
<path fill="none" stroke="#000000" d="M306.6789,-70.2138C286.8776,-79.2583 280.5691,-96.0016 266,-117.7 232.2656,-167.9421 286.0167,-247.7 225.5,-240.7"/>
<polygon fill="#000000" stroke="#000000" points="312.8953,-68.1836 321.6176,-69.1221 316.6976,-66.9418 320.5,-65.7 320.5,-65.7 320.5,-65.7 316.6976,-66.9418 319.3824,-62.2779 312.8953,-68.1836 312.8953,-68.1836"/>
<ellipse fill="none" stroke="#000000" cx="309.8534" cy="-69.1771" rx="3.2" ry="3.2"/>
</g>
</g>
</svg>
