<?xml version="1.0" encoding="UTF-8" standalone="no"?>
<!DOCTYPE svg PUBLIC "-//W3C//DTD SVG 1.1//EN"
 "http://www.w3.org/Graphics/SVG/1.1/DTD/svg11.dtd">
<!-- Generated by graphviz version 2.40.1 (20161225.0304)
 -->
<!-- Title: oneDegreeRelationshipsDiagramImplied Pages: 1 -->
<svg width="575pt" height="201pt"
 viewBox="0.00 0.00 575.00 200.70" xmlns="http://www.w3.org/2000/svg" xmlns:xlink="http://www.w3.org/1999/xlink">
<g id="graph0" class="graph" transform="scale(1 1) rotate(0) translate(4 196.7)">
<title>oneDegreeRelationshipsDiagramImplied</title>
<polygon fill="#ffffff" stroke="transparent" points="-4,4 -4,-196.7 571,-196.7 571,4 -4,4"/>
<text text-anchor="middle" x="72.4936" y="-7.3" font-family="Helvetica,sans-Serif" font-size="11.00" fill="#000000">Generated by SchemaSpy</text>
<!-- document_generation_request -->
<g id="node1" class="node">
<title>document_generation_request</title>
<g id="a_node1"><a xlink:href="../../tables/document_generation_request.html" xlink:title="document_generation_request" target="_top">
<polygon fill="#ffffff" stroke="transparent" points="230,-76.7 230,-188.7 559,-188.7 559,-76.7 230,-76.7"/>
<polygon fill="#f5f5f5" stroke="transparent" points="232.5,-163.7 232.5,-186.7 557.5,-186.7 557.5,-163.7 232.5,-163.7"/>
<polygon fill="none" stroke="#000000" points="232.5,-163.7 232.5,-186.7 557.5,-186.7 557.5,-163.7 232.5,-163.7"/>
<text text-anchor="start" x="237.5" y="-172.3" font-family="Helvetica,sans-Serif" font-weight="bold" font-size="11.00" fill="#000000">document_generation_request</text>
<text text-anchor="start" x="522.5437" y="-171.8" font-family="Helvetica,sans-Serif" font-size="11.00" fill="#000000">[table]</text>
<polygon fill="none" stroke="#000000" points="232.5,-141.7 232.5,-163.7 458.5,-163.7 458.5,-141.7 232.5,-141.7"/>
<image xlink:href="../../images/primaryKeys.png" width="11px" height="12px" preserveAspectRatio="xMinYMin meet" x="237.5" y="-158.7"/>
<text text-anchor="start" x="252.5" y="-148.8" font-family="Helvetica,sans-Serif" font-size="11.00" fill="#000000">id</text>
<polygon fill="none" stroke="#000000" points="458.5,-141.7 458.5,-163.7 557.5,-163.7 557.5,-141.7 458.5,-141.7"/>
<text text-anchor="start" x="461.5" y="-149.4" font-family="Helvetica,sans-Serif" font-size="11.00" fill="#000000">uuid[2147483647]</text>
<polygon fill="none" stroke="#000000" points="232.5,-119.7 232.5,-141.7 458.5,-141.7 458.5,-119.7 232.5,-119.7"/>
<image xlink:href="../../images/foreignKeys.png" width="11px" height="12px" preserveAspectRatio="xMinYMin meet" x="237.5" y="-136.7"/>
<text text-anchor="start" x="252.5" y="-126.8" font-family="Helvetica,sans-Serif" font-size="11.00" fill="#000000">template_id</text>
<polygon fill="none" stroke="#000000" points="458.5,-119.7 458.5,-141.7 557.5,-141.7 557.5,-119.7 458.5,-119.7"/>
<text text-anchor="start" x="461.5" y="-127.4" font-family="Helvetica,sans-Serif" font-size="11.00" fill="#000000">uuid[2147483647]</text>
<polygon fill="none" stroke="#000000" points="232.5,-97.7 232.5,-119.7 458.5,-119.7 458.5,-97.7 232.5,-97.7"/>
<text text-anchor="start" x="252.5" y="-104.8" font-family="Helvetica,sans-Serif" font-size="11.00" fill="#000000">request</text>
<polygon fill="none" stroke="#000000" points="458.5,-97.7 458.5,-119.7 557.5,-119.7 557.5,-97.7 458.5,-97.7"/>
<text text-anchor="start" x="461.2258" y="-105.4" font-family="Helvetica,sans-Serif" font-size="11.00" fill="#000000">jsonb[2147483647]</text>
<polygon fill="#ffffff" stroke="transparent" points="232.5,-78.7 232.5,-97.7 349.5,-97.7 349.5,-78.7 232.5,-78.7"/>
<polygon fill="none" stroke="#000000" points="232.5,-78.7 232.5,-97.7 349.5,-97.7 349.5,-78.7 232.5,-78.7"/>
<text text-anchor="start" x="235.5" y="-84.8" font-family="Helvetica,sans-Serif" font-size="11.00" fill="#000000">&lt; 1</text>
<polygon fill="#ffffff" stroke="transparent" points="349.5,-78.7 349.5,-97.7 458.5,-97.7 458.5,-78.7 349.5,-78.7"/>
<polygon fill="none" stroke="#000000" points="349.5,-78.7 349.5,-97.7 458.5,-97.7 458.5,-78.7 349.5,-78.7"/>
<text text-anchor="start" x="449.3862" y="-84.8" font-family="Helvetica,sans-Serif" font-size="11.00" fill="#000000"> &#160;</text>
<polygon fill="#ffffff" stroke="transparent" points="458.5,-78.7 458.5,-97.7 557.5,-97.7 557.5,-78.7 458.5,-78.7"/>
<polygon fill="none" stroke="#000000" points="458.5,-78.7 458.5,-97.7 557.5,-97.7 557.5,-78.7 458.5,-78.7"/>
<text text-anchor="start" x="538.9053" y="-84.8" font-family="Helvetica,sans-Serif" font-size="11.00" fill="#000000">0 &gt;</text>
<polygon fill="none" stroke="#000000" stroke-width="2" points="231,-77.7 231,-187.7 558,-187.7 558,-77.7 231,-77.7"/>
</a>
</g>
</g>
<!-- document_template -->
<g id="node2" class="node">
<title>document_template</title>
<g id="a_node2"><a xlink:href="../../tables/document_template.html" xlink:title="document_template" target="_top">
<polygon fill="#ffffff" stroke="transparent" points="8,-38.2 8,-165.2 181,-165.2 181,-38.2 8,-38.2"/>
<polygon fill="#f5f5f5" stroke="transparent" points="8.5,-141.7 8.5,-164.7 181.5,-164.7 181.5,-141.7 8.5,-141.7"/>
<polygon fill="none" stroke="#000000" points="8.5,-141.7 8.5,-164.7 181.5,-164.7 181.5,-141.7 8.5,-141.7"/>
<text text-anchor="start" x="13.5" y="-150.3" font-family="Helvetica,sans-Serif" font-weight="bold" font-size="11.00" fill="#000000">document_template</text>
<text text-anchor="start" x="147.0219" y="-149.8" font-family="Helvetica,sans-Serif" font-size="11.00" fill="#000000">[table]</text>
<polygon fill="none" stroke="#000000" points="8.5,-119.7 8.5,-141.7 181.5,-141.7 181.5,-119.7 8.5,-119.7"/>
<image xlink:href="../../images/primaryKeys.png" width="11px" height="12px" preserveAspectRatio="xMinYMin meet" x="13.5" y="-136.7"/>
<text text-anchor="start" x="37.5" y="-126.8" font-family="Helvetica,sans-Serif" font-size="11.00" fill="#000000">id</text>
<polygon fill="#ffffff" stroke="transparent" points="8.5,-97.7 8.5,-119.7 181.5,-119.7 181.5,-97.7 8.5,-97.7"/>
<polygon fill="none" stroke="#000000" points="8.5,-97.7 8.5,-119.7 181.5,-119.7 181.5,-97.7 8.5,-97.7"/>
<image xlink:href="../../images/foreignKeys.png" width="11px" height="12px" preserveAspectRatio="xMinYMin meet" x="13.5" y="-114.7"/>
<text text-anchor="start" x="37.5" y="-104.8" font-family="Helvetica,sans-Serif" font-size="11.00" fill="#000000">code</text>
<polygon fill="#ffffff" stroke="transparent" points="8.5,-75.7 8.5,-97.7 181.5,-97.7 181.5,-75.7 8.5,-75.7"/>
<polygon fill="none" stroke="#000000" points="8.5,-75.7 8.5,-97.7 181.5,-97.7 181.5,-75.7 8.5,-75.7"/>
<text text-anchor="start" x="37.5" y="-82.8" font-family="Helvetica,sans-Serif" font-size="11.00" fill="#000000">external_reference</text>
<polygon fill="none" stroke="#000000" points="8.5,-56.7 8.5,-75.7 181.5,-75.7 181.5,-56.7 8.5,-56.7"/>
<text text-anchor="start" x="11.5" y="-62.8" font-family="Helvetica,sans-Serif" font-size="11.00" fill="#000000">...</text>
<polygon fill="#ffffff" stroke="transparent" points="8.5,-37.7 8.5,-56.7 84.5,-56.7 84.5,-37.7 8.5,-37.7"/>
<polygon fill="none" stroke="#000000" points="8.5,-37.7 8.5,-56.7 84.5,-56.7 84.5,-37.7 8.5,-37.7"/>
<text text-anchor="start" x="11.5" y="-43.8" font-family="Helvetica,sans-Serif" font-size="11.00" fill="#000000"> &#160;</text>
<polygon fill="#ffffff" stroke="transparent" points="84.5,-37.7 84.5,-56.7 128.5,-56.7 128.5,-37.7 84.5,-37.7"/>
<polygon fill="none" stroke="#000000" points="84.5,-37.7 84.5,-56.7 128.5,-56.7 128.5,-37.7 84.5,-37.7"/>
<text text-anchor="start" x="119.3862" y="-43.8" font-family="Helvetica,sans-Serif" font-size="11.00" fill="#000000"> &#160;</text>
<polygon fill="#ffffff" stroke="transparent" points="128.5,-37.7 128.5,-56.7 181.5,-56.7 181.5,-37.7 128.5,-37.7"/>
<polygon fill="none" stroke="#000000" points="128.5,-37.7 128.5,-56.7 181.5,-56.7 181.5,-37.7 128.5,-37.7"/>
<text text-anchor="start" x="162.9053" y="-43.8" font-family="Helvetica,sans-Serif" font-size="11.00" fill="#000000">3 &gt;</text>
</a>
</g>
</g>
<!-- document_generation_request&#45;&gt;document_template -->
<g id="edge1" class="edge">
<title>document_generation_request:w&#45;&gt;document_template:e</title>
<path fill="none" stroke="#000000" d="M217.776,-130.7C205.7815,-130.7 198.3229,-130.7 181.5,-130.7"/>
<polygon fill="#000000" stroke="#000000" points="224.5,-130.7001 232.5,-134.3 228.5,-130.7 232.5,-130.7 232.5,-130.7 232.5,-130.7 228.5,-130.7 232.5,-127.1 224.5,-130.7001 224.5,-130.7001"/>
<ellipse fill="none" stroke="#000000" cx="221.3" cy="-130.7001" rx="3.2" ry="3.2"/>
</g>
</g>
</svg>
