<?xml version="1.0" encoding="UTF-8" standalone="no"?>
<!DOCTYPE svg PUBLIC "-//W3C//DTD SVG 1.1//EN"
 "http://www.w3.org/Graphics/SVG/1.1/DTD/svg11.dtd">
<!-- Generated by graphviz version 2.40.1 (20161225.0304)
 -->
<!-- Title: twoDegreesRelationshipsDiagram Pages: 1 -->
<svg width="501pt" height="519pt"
 viewBox="0.00 0.00 501.00 519.20" xmlns="http://www.w3.org/2000/svg" xmlns:xlink="http://www.w3.org/1999/xlink">
<g id="graph0" class="graph" transform="scale(1 1) rotate(0) translate(4 515.2)">
<title>twoDegreesRelationshipsDiagram</title>
<polygon fill="#ffffff" stroke="transparent" points="-4,4 -4,-515.2 497,-515.2 497,4 -4,4"/>
<text text-anchor="middle" x="72.4936" y="-7.3" font-family="Helvetica,sans-Serif" font-size="11.00" fill="#000000">Generated by SchemaSpy</text>
<!-- document_generation_request_audit -->
<g id="node1" class="node">
<title>document_generation_request_audit</title>
<g id="a_node1"><a xlink:href="../../tables/document_generation_request_audit.html" xlink:title="document_generation_request_audit" target="_top">
<polygon fill="#ffffff" stroke="transparent" points="195.5,-446.2 195.5,-507.2 480.5,-507.2 480.5,-446.2 195.5,-446.2"/>
<polygon fill="#f5f5f5" stroke="transparent" points="196,-483.7 196,-506.7 481,-506.7 481,-483.7 196,-483.7"/>
<polygon fill="none" stroke="#000000" points="196,-483.7 196,-506.7 481,-506.7 481,-483.7 196,-483.7"/>
<text text-anchor="start" x="201" y="-492.3" font-family="Helvetica,sans-Serif" font-weight="bold" font-size="11.00" fill="#000000">document_generation_request_audit</text>
<text text-anchor="start" x="446.5219" y="-491.8" font-family="Helvetica,sans-Serif" font-size="11.00" fill="#000000">[table]</text>
<polygon fill="none" stroke="#000000" points="196,-464.7 196,-483.7 481,-483.7 481,-464.7 196,-464.7"/>
<text text-anchor="start" x="199" y="-470.8" font-family="Helvetica,sans-Serif" font-size="11.00" fill="#000000">...</text>
<polygon fill="#ffffff" stroke="transparent" points="196,-445.7 196,-464.7 337,-464.7 337,-445.7 196,-445.7"/>
<polygon fill="none" stroke="#000000" points="196,-445.7 196,-464.7 337,-464.7 337,-445.7 196,-445.7"/>
<text text-anchor="start" x="199" y="-451.8" font-family="Helvetica,sans-Serif" font-size="11.00" fill="#000000">&lt; 1</text>
<polygon fill="#ffffff" stroke="transparent" points="337,-445.7 337,-464.7 409,-464.7 409,-445.7 337,-445.7"/>
<polygon fill="none" stroke="#000000" points="337,-445.7 337,-464.7 409,-464.7 409,-445.7 337,-445.7"/>
<text text-anchor="start" x="399.8862" y="-451.8" font-family="Helvetica,sans-Serif" font-size="11.00" fill="#000000"> &#160;</text>
<polygon fill="#ffffff" stroke="transparent" points="409,-445.7 409,-464.7 481,-464.7 481,-445.7 409,-445.7"/>
<polygon fill="none" stroke="#000000" points="409,-445.7 409,-464.7 481,-464.7 481,-445.7 409,-445.7"/>
<text text-anchor="start" x="471.8862" y="-451.8" font-family="Helvetica,sans-Serif" font-size="11.00" fill="#000000"> &#160;</text>
</a>
</g>
</g>
<!-- audit_revision -->
<g id="node2" class="node">
<title>audit_revision</title>
<g id="a_node2"><a xlink:href="../../tables/audit_revision.html" xlink:title="audit_revision" target="_top">
<polygon fill="#ffffff" stroke="transparent" points="8,-219.2 8,-302.2 142,-302.2 142,-219.2 8,-219.2"/>
<polygon fill="#f5f5f5" stroke="transparent" points="8,-278.7 8,-301.7 142,-301.7 142,-278.7 8,-278.7"/>
<polygon fill="none" stroke="#000000" points="8,-278.7 8,-301.7 142,-301.7 142,-278.7 8,-278.7"/>
<text text-anchor="start" x="13" y="-287.3" font-family="Helvetica,sans-Serif" font-weight="bold" font-size="11.00" fill="#000000">audit_revision</text>
<text text-anchor="start" x="107.5219" y="-286.8" font-family="Helvetica,sans-Serif" font-size="11.00" fill="#000000">[table]</text>
<polygon fill="none" stroke="#000000" points="8,-256.7 8,-278.7 142,-278.7 142,-256.7 8,-256.7"/>
<image xlink:href="../../images/primaryKeys.png" width="11px" height="12px" preserveAspectRatio="xMinYMin meet" x="13" y="-273.7"/>
<text text-anchor="start" x="37" y="-263.8" font-family="Helvetica,sans-Serif" font-size="11.00" fill="#000000">id</text>
<polygon fill="none" stroke="#000000" points="8,-237.7 8,-256.7 142,-256.7 142,-237.7 8,-237.7"/>
<text text-anchor="start" x="11" y="-243.8" font-family="Helvetica,sans-Serif" font-size="11.00" fill="#000000">...</text>
<polygon fill="#ffffff" stroke="transparent" points="8,-218.7 8,-237.7 64,-237.7 64,-218.7 8,-218.7"/>
<polygon fill="none" stroke="#000000" points="8,-218.7 8,-237.7 64,-237.7 64,-218.7 8,-218.7"/>
<text text-anchor="start" x="11" y="-224.8" font-family="Helvetica,sans-Serif" font-size="11.00" fill="#000000"> &#160;</text>
<polygon fill="#ffffff" stroke="transparent" points="64,-218.7 64,-237.7 98,-237.7 98,-218.7 64,-218.7"/>
<polygon fill="none" stroke="#000000" points="64,-218.7 64,-237.7 98,-237.7 98,-218.7 64,-218.7"/>
<text text-anchor="start" x="88.8862" y="-224.8" font-family="Helvetica,sans-Serif" font-size="11.00" fill="#000000"> &#160;</text>
<polygon fill="#ffffff" stroke="transparent" points="98,-218.7 98,-237.7 142,-237.7 142,-218.7 98,-218.7"/>
<polygon fill="none" stroke="#000000" points="98,-218.7 98,-237.7 142,-237.7 142,-218.7 98,-218.7"/>
<text text-anchor="start" x="123.4053" y="-224.8" font-family="Helvetica,sans-Serif" font-size="11.00" fill="#000000">4 &gt;</text>
</a>
</g>
</g>
<!-- document_generation_request_audit&#45;&gt;audit_revision -->
<g id="edge1" class="edge">
<title>document_generation_request_audit:w&#45;&gt;audit_revision:e</title>
<path fill="none" stroke="#000000" d="M181.6384,-471.6611C116.4168,-450.2666 231.1031,-267.7 142,-267.7"/>
<polygon fill="#000000" stroke="#000000" points="188.0794,-472.5755 195.494,-477.2643 192.0397,-473.1378 196,-473.7 196,-473.7 196,-473.7 192.0397,-473.1378 196.506,-470.1357 188.0794,-472.5755 188.0794,-472.5755"/>
<ellipse fill="none" stroke="#000000" cx="184.9112" cy="-472.1257" rx="3.2" ry="3.2"/>
</g>
<!-- document_template_audit -->
<g id="node3" class="node">
<title>document_template_audit</title>
<g id="a_node3"><a xlink:href="../../tables/document_template_audit.html" xlink:title="document_template_audit" target="_top">
<polygon fill="#ffffff" stroke="transparent" points="191,-202.7 191,-424.7 485,-424.7 485,-202.7 191,-202.7"/>
<polygon fill="#f5f5f5" stroke="transparent" points="193,-399.7 193,-422.7 483,-422.7 483,-399.7 193,-399.7"/>
<polygon fill="none" stroke="#000000" points="193,-399.7 193,-422.7 483,-422.7 483,-399.7 193,-399.7"/>
<text text-anchor="start" x="198" y="-408.3" font-family="Helvetica,sans-Serif" font-weight="bold" font-size="11.00" fill="#000000">document_template_audit</text>
<text text-anchor="start" x="448.0437" y="-407.8" font-family="Helvetica,sans-Serif" font-size="11.00" fill="#000000">[table]</text>
<polygon fill="none" stroke="#000000" points="193,-377.7 193,-399.7 389,-399.7 389,-377.7 193,-377.7"/>
<image xlink:href="../../images/primaryKeys.png" width="11px" height="12px" preserveAspectRatio="xMinYMin meet" x="198" y="-394.7"/>
<text text-anchor="start" x="213" y="-384.8" font-family="Helvetica,sans-Serif" font-size="11.00" fill="#000000">rev_id</text>
<polygon fill="none" stroke="#000000" points="389,-377.7 389,-399.7 483,-399.7 483,-377.7 389,-377.7"/>
<text text-anchor="start" x="392" y="-385.4" font-family="Helvetica,sans-Serif" font-size="11.00" fill="#000000">int8[19]</text>
<polygon fill="none" stroke="#000000" points="193,-355.7 193,-377.7 389,-377.7 389,-355.7 193,-355.7"/>
<text text-anchor="start" x="213" y="-362.8" font-family="Helvetica,sans-Serif" font-size="11.00" fill="#000000">rev_type</text>
<polygon fill="none" stroke="#000000" points="389,-355.7 389,-377.7 483,-377.7 483,-355.7 389,-355.7"/>
<text text-anchor="start" x="392" y="-363.4" font-family="Helvetica,sans-Serif" font-size="11.00" fill="#000000">int2[5]</text>
<polygon fill="none" stroke="#000000" points="193,-333.7 193,-355.7 389,-355.7 389,-333.7 193,-333.7"/>
<image xlink:href="../../images/primaryKeys.png" width="11px" height="12px" preserveAspectRatio="xMinYMin meet" x="198" y="-350.7"/>
<text text-anchor="start" x="213" y="-340.8" font-family="Helvetica,sans-Serif" font-size="11.00" fill="#000000">id</text>
<polygon fill="none" stroke="#000000" points="389,-333.7 389,-355.7 483,-355.7 483,-333.7 389,-333.7"/>
<text text-anchor="start" x="391.9758" y="-341.4" font-family="Helvetica,sans-Serif" font-size="11.00" fill="#000000">uuid[2147483647]</text>
<polygon fill="none" stroke="#000000" points="193,-311.7 193,-333.7 389,-333.7 389,-311.7 193,-311.7"/>
<image xlink:href="../../images/foreignKeys.png" width="11px" height="12px" preserveAspectRatio="xMinYMin meet" x="198" y="-328.7"/>
<text text-anchor="start" x="213" y="-318.8" font-family="Helvetica,sans-Serif" font-size="11.00" fill="#000000">code</text>
<polygon fill="none" stroke="#000000" points="389,-311.7 389,-333.7 483,-333.7 483,-311.7 389,-311.7"/>
<text text-anchor="start" x="392" y="-319.4" font-family="Helvetica,sans-Serif" font-size="11.00" fill="#000000">text[2147483647]</text>
<polygon fill="none" stroke="#000000" points="193,-289.7 193,-311.7 389,-311.7 389,-289.7 193,-289.7"/>
<text text-anchor="start" x="213" y="-296.8" font-family="Helvetica,sans-Serif" font-size="11.00" fill="#000000">name</text>
<polygon fill="none" stroke="#000000" points="389,-289.7 389,-311.7 483,-311.7 483,-289.7 389,-289.7"/>
<text text-anchor="start" x="392" y="-297.4" font-family="Helvetica,sans-Serif" font-size="11.00" fill="#000000">text[2147483647]</text>
<polygon fill="none" stroke="#000000" points="193,-267.7 193,-289.7 389,-289.7 389,-267.7 193,-267.7"/>
<text text-anchor="start" x="213" y="-274.8" font-family="Helvetica,sans-Serif" font-size="11.00" fill="#000000">description</text>
<polygon fill="none" stroke="#000000" points="389,-267.7 389,-289.7 483,-289.7 483,-267.7 389,-267.7"/>
<text text-anchor="start" x="392" y="-275.4" font-family="Helvetica,sans-Serif" font-size="11.00" fill="#000000">text[2147483647]</text>
<polygon fill="none" stroke="#000000" points="193,-245.7 193,-267.7 389,-267.7 389,-245.7 193,-245.7"/>
<text text-anchor="start" x="213" y="-252.8" font-family="Helvetica,sans-Serif" font-size="11.00" fill="#000000">version</text>
<polygon fill="none" stroke="#000000" points="389,-245.7 389,-267.7 483,-267.7 483,-245.7 389,-245.7"/>
<text text-anchor="start" x="392" y="-253.4" font-family="Helvetica,sans-Serif" font-size="11.00" fill="#000000">int4[10]</text>
<polygon fill="#ffffff" stroke="transparent" points="193,-223.7 193,-245.7 389,-245.7 389,-223.7 193,-223.7"/>
<polygon fill="none" stroke="#000000" points="193,-223.7 193,-245.7 389,-245.7 389,-223.7 193,-223.7"/>
<text text-anchor="start" x="213" y="-230.8" font-family="Helvetica,sans-Serif" font-size="11.00" fill="#000000">external_reference</text>
<polygon fill="none" stroke="#000000" points="389,-223.7 389,-245.7 483,-245.7 483,-223.7 389,-223.7"/>
<text text-anchor="start" x="391.9758" y="-231.4" font-family="Helvetica,sans-Serif" font-size="11.00" fill="#000000">uuid[2147483647]</text>
<polygon fill="#ffffff" stroke="transparent" points="193,-204.7 193,-223.7 295,-223.7 295,-204.7 193,-204.7"/>
<polygon fill="none" stroke="#000000" points="193,-204.7 193,-223.7 295,-223.7 295,-204.7 193,-204.7"/>
<text text-anchor="start" x="196" y="-210.8" font-family="Helvetica,sans-Serif" font-size="11.00" fill="#000000">&lt; 1</text>
<polygon fill="#ffffff" stroke="transparent" points="295,-204.7 295,-223.7 389,-223.7 389,-204.7 295,-204.7"/>
<polygon fill="none" stroke="#000000" points="295,-204.7 295,-223.7 389,-223.7 389,-204.7 295,-204.7"/>
<text text-anchor="start" x="379.8862" y="-210.8" font-family="Helvetica,sans-Serif" font-size="11.00" fill="#000000"> &#160;</text>
<polygon fill="#ffffff" stroke="transparent" points="389,-204.7 389,-223.7 483,-223.7 483,-204.7 389,-204.7"/>
<polygon fill="none" stroke="#000000" points="389,-204.7 389,-223.7 483,-223.7 483,-204.7 389,-204.7"/>
<text text-anchor="start" x="464.4053" y="-210.8" font-family="Helvetica,sans-Serif" font-size="11.00" fill="#000000">0 &gt;</text>
<polygon fill="none" stroke="#000000" stroke-width="2" points="192,-203.7 192,-423.7 484,-423.7 484,-203.7 192,-203.7"/>
</a>
</g>
</g>
<!-- document_template_audit&#45;&gt;audit_revision -->
<g id="edge2" class="edge">
<title>document_template_audit:w&#45;&gt;audit_revision:e</title>
<path fill="none" stroke="#000000" d="M178.7982,-385.2092C146.7098,-365.37 194.4323,-267.7 142,-267.7"/>
<polygon fill="#000000" stroke="#000000" points="185.2312,-386.7904 192.1407,-392.1959 189.1156,-387.7452 193,-388.7 193,-388.7 193,-388.7 189.1156,-387.7452 193.8593,-385.2041 185.2312,-386.7904 185.2312,-386.7904"/>
<ellipse fill="none" stroke="#000000" cx="182.1237" cy="-386.0266" rx="3.2" ry="3.2"/>
</g>
<!-- document_template_group_audit -->
<g id="node4" class="node">
<title>document_template_group_audit</title>
<g id="a_node4"><a xlink:href="../../tables/document_template_group_audit.html" xlink:title="document_template_group_audit" target="_top">
<polygon fill="#ffffff" stroke="transparent" points="208,-120.2 208,-181.2 468,-181.2 468,-120.2 208,-120.2"/>
<polygon fill="#f5f5f5" stroke="transparent" points="208,-157.7 208,-180.7 468,-180.7 468,-157.7 208,-157.7"/>
<polygon fill="none" stroke="#000000" points="208,-157.7 208,-180.7 468,-180.7 468,-157.7 208,-157.7"/>
<text text-anchor="start" x="213" y="-166.3" font-family="Helvetica,sans-Serif" font-weight="bold" font-size="11.00" fill="#000000">document_template_group_audit</text>
<text text-anchor="start" x="433.5219" y="-165.8" font-family="Helvetica,sans-Serif" font-size="11.00" fill="#000000">[table]</text>
<polygon fill="none" stroke="#000000" points="208,-138.7 208,-157.7 468,-157.7 468,-138.7 208,-138.7"/>
<text text-anchor="start" x="211" y="-144.8" font-family="Helvetica,sans-Serif" font-size="11.00" fill="#000000">...</text>
<polygon fill="#ffffff" stroke="transparent" points="208,-119.7 208,-138.7 336,-138.7 336,-119.7 208,-119.7"/>
<polygon fill="none" stroke="#000000" points="208,-119.7 208,-138.7 336,-138.7 336,-119.7 208,-119.7"/>
<text text-anchor="start" x="211" y="-125.8" font-family="Helvetica,sans-Serif" font-size="11.00" fill="#000000">&lt; 1</text>
<polygon fill="#ffffff" stroke="transparent" points="336,-119.7 336,-138.7 402,-138.7 402,-119.7 336,-119.7"/>
<polygon fill="none" stroke="#000000" points="336,-119.7 336,-138.7 402,-138.7 402,-119.7 336,-119.7"/>
<text text-anchor="start" x="392.8862" y="-125.8" font-family="Helvetica,sans-Serif" font-size="11.00" fill="#000000"> &#160;</text>
<polygon fill="#ffffff" stroke="transparent" points="402,-119.7 402,-138.7 468,-138.7 468,-119.7 402,-119.7"/>
<polygon fill="none" stroke="#000000" points="402,-119.7 402,-138.7 468,-138.7 468,-119.7 402,-119.7"/>
<text text-anchor="start" x="458.8862" y="-125.8" font-family="Helvetica,sans-Serif" font-size="11.00" fill="#000000"> &#160;</text>
</a>
</g>
</g>
<!-- document_template_group_audit&#45;&gt;audit_revision -->
<g id="edge3" class="edge">
<title>document_template_group_audit:w&#45;&gt;audit_revision:e</title>
<path fill="none" stroke="#000000" d="M193.7633,-150.6663C156.5578,-169.1453 197.1614,-267.7 142,-267.7"/>
<polygon fill="#000000" stroke="#000000" points="200.1682,-149.3318 208.7343,-151.2243 204.0841,-148.5159 208,-147.7 208,-147.7 208,-147.7 204.0841,-148.5159 207.2657,-144.1757 200.1682,-149.3318 200.1682,-149.3318"/>
<ellipse fill="none" stroke="#000000" cx="197.0355" cy="-149.9846" rx="3.2" ry="3.2"/>
</g>
<!-- document_template_variable_audit -->
<g id="node5" class="node">
<title>document_template_variable_audit</title>
<g id="a_node5"><a xlink:href="../../tables/document_template_variable_audit.html" xlink:title="document_template_variable_audit" target="_top">
<polygon fill="#ffffff" stroke="transparent" points="200.5,-38.2 200.5,-99.2 475.5,-99.2 475.5,-38.2 200.5,-38.2"/>
<polygon fill="#f5f5f5" stroke="transparent" points="201,-75.7 201,-98.7 476,-98.7 476,-75.7 201,-75.7"/>
<polygon fill="none" stroke="#000000" points="201,-75.7 201,-98.7 476,-98.7 476,-75.7 201,-75.7"/>
<text text-anchor="start" x="206" y="-84.3" font-family="Helvetica,sans-Serif" font-weight="bold" font-size="11.00" fill="#000000">document_template_variable_audit</text>
<text text-anchor="start" x="441.5219" y="-83.8" font-family="Helvetica,sans-Serif" font-size="11.00" fill="#000000">[table]</text>
<polygon fill="none" stroke="#000000" points="201,-56.7 201,-75.7 476,-75.7 476,-56.7 201,-56.7"/>
<text text-anchor="start" x="204" y="-62.8" font-family="Helvetica,sans-Serif" font-size="11.00" fill="#000000">...</text>
<polygon fill="#ffffff" stroke="transparent" points="201,-37.7 201,-56.7 337,-56.7 337,-37.7 201,-37.7"/>
<polygon fill="none" stroke="#000000" points="201,-37.7 201,-56.7 337,-56.7 337,-37.7 201,-37.7"/>
<text text-anchor="start" x="204" y="-43.8" font-family="Helvetica,sans-Serif" font-size="11.00" fill="#000000">&lt; 1</text>
<polygon fill="#ffffff" stroke="transparent" points="337,-37.7 337,-56.7 406,-56.7 406,-37.7 337,-37.7"/>
<polygon fill="none" stroke="#000000" points="337,-37.7 337,-56.7 406,-56.7 406,-37.7 337,-37.7"/>
<text text-anchor="start" x="396.8862" y="-43.8" font-family="Helvetica,sans-Serif" font-size="11.00" fill="#000000"> &#160;</text>
<polygon fill="#ffffff" stroke="transparent" points="406,-37.7 406,-56.7 476,-56.7 476,-37.7 406,-37.7"/>
<polygon fill="none" stroke="#000000" points="406,-37.7 406,-56.7 476,-56.7 476,-37.7 406,-37.7"/>
<text text-anchor="start" x="466.8862" y="-43.8" font-family="Helvetica,sans-Serif" font-size="11.00" fill="#000000"> &#160;</text>
</a>
</g>
</g>
<!-- document_template_variable_audit&#45;&gt;audit_revision -->
<g id="edge4" class="edge">
<title>document_template_variable_audit:w&#45;&gt;audit_revision:e</title>
<path fill="none" stroke="#000000" d="M186.3499,-67.8319C122.1658,-89.4204 229.866,-267.7 142,-267.7"/>
<polygon fill="#000000" stroke="#000000" points="193.0834,-66.8521 201.5184,-69.2625 197.0417,-66.276 201,-65.7 201,-65.7 201,-65.7 197.0417,-66.276 200.4816,-62.1375 193.0834,-66.8521 193.0834,-66.8521"/>
<ellipse fill="none" stroke="#000000" cx="189.9167" cy="-67.3129" rx="3.2" ry="3.2"/>
</g>
</g>
</svg>
