<?xml version="1.0" encoding="UTF-8" standalone="no"?>
<!DOCTYPE svg PUBLIC "-//W3C//DTD SVG 1.1//EN"
 "http://www.w3.org/Graphics/SVG/1.1/DTD/svg11.dtd">
<!-- Generated by graphviz version 2.40.1 (20161225.0304)
 -->
<!-- Title: twoDegreesRelationshipsDiagramImplied Pages: 1 -->
<svg width="584pt" height="683pt"
 viewBox="0.00 0.00 584.00 683.20" xmlns="http://www.w3.org/2000/svg" xmlns:xlink="http://www.w3.org/1999/xlink">
<g id="graph0" class="graph" transform="scale(1 1) rotate(0) translate(4 679.2)">
<title>twoDegreesRelationshipsDiagramImplied</title>
<polygon fill="#ffffff" stroke="transparent" points="-4,4 -4,-679.2 580,-679.2 580,4 -4,4"/>
<text text-anchor="middle" x="72.4936" y="-7.3" font-family="Helvetica,sans-Serif" font-size="11.00" fill="#000000">Generated by SchemaSpy</text>
<!-- document_template -->
<g id="node1" class="node">
<title>document_template</title>
<g id="a_node1"><a xlink:href="../../tables/document_template.html" xlink:title="document_template" target="_top">
<polygon fill="#ffffff" stroke="transparent" points="334.5,-610.2 334.5,-671.2 507.5,-671.2 507.5,-610.2 334.5,-610.2"/>
<polygon fill="#f5f5f5" stroke="transparent" points="335,-647.7 335,-670.7 508,-670.7 508,-647.7 335,-647.7"/>
<polygon fill="none" stroke="#000000" points="335,-647.7 335,-670.7 508,-670.7 508,-647.7 335,-647.7"/>
<text text-anchor="start" x="340" y="-656.3" font-family="Helvetica,sans-Serif" font-weight="bold" font-size="11.00" fill="#000000">document_template</text>
<text text-anchor="start" x="473.5219" y="-655.8" font-family="Helvetica,sans-Serif" font-size="11.00" fill="#000000">[table]</text>
<polygon fill="none" stroke="#000000" points="335,-628.7 335,-647.7 508,-647.7 508,-628.7 335,-628.7"/>
<text text-anchor="start" x="338" y="-634.8" font-family="Helvetica,sans-Serif" font-size="11.00" fill="#000000">...</text>
<polygon fill="#ffffff" stroke="transparent" points="335,-609.7 335,-628.7 415,-628.7 415,-609.7 335,-609.7"/>
<polygon fill="none" stroke="#000000" points="335,-609.7 335,-628.7 415,-628.7 415,-609.7 335,-609.7"/>
<text text-anchor="start" x="338" y="-615.8" font-family="Helvetica,sans-Serif" font-size="11.00" fill="#000000">&lt; 1</text>
<polygon fill="#ffffff" stroke="transparent" points="415,-609.7 415,-628.7 457,-628.7 457,-609.7 415,-609.7"/>
<polygon fill="none" stroke="#000000" points="415,-609.7 415,-628.7 457,-628.7 457,-609.7 415,-609.7"/>
<text text-anchor="start" x="447.8862" y="-615.8" font-family="Helvetica,sans-Serif" font-size="11.00" fill="#000000"> &#160;</text>
<polygon fill="#ffffff" stroke="transparent" points="457,-609.7 457,-628.7 508,-628.7 508,-609.7 457,-609.7"/>
<polygon fill="none" stroke="#000000" points="457,-609.7 457,-628.7 508,-628.7 508,-609.7 457,-609.7"/>
<text text-anchor="start" x="489.4053" y="-615.8" font-family="Helvetica,sans-Serif" font-size="11.00" fill="#000000">2 &gt;</text>
</a>
</g>
</g>
<!-- template_variable_domain -->
<g id="node2" class="node">
<title>template_variable_domain</title>
<g id="a_node2"><a xlink:href="../../tables/template_variable_domain.html" xlink:title="template_variable_domain" target="_top">
<polygon fill="#ffffff" stroke="transparent" points="8,-403.2 8,-508.2 225,-508.2 225,-403.2 8,-403.2"/>
<polygon fill="#f5f5f5" stroke="transparent" points="8.5,-484.7 8.5,-507.7 225.5,-507.7 225.5,-484.7 8.5,-484.7"/>
<polygon fill="none" stroke="#000000" points="8.5,-484.7 8.5,-507.7 225.5,-507.7 225.5,-484.7 8.5,-484.7"/>
<text text-anchor="start" x="13.5" y="-493.3" font-family="Helvetica,sans-Serif" font-weight="bold" font-size="11.00" fill="#000000">template_variable_domain</text>
<text text-anchor="start" x="191.0219" y="-492.8" font-family="Helvetica,sans-Serif" font-size="11.00" fill="#000000">[table]</text>
<polygon fill="none" stroke="#000000" points="8.5,-462.7 8.5,-484.7 225.5,-484.7 225.5,-462.7 8.5,-462.7"/>
<image xlink:href="../../images/primaryKeys.png" width="11px" height="12px" preserveAspectRatio="xMinYMin meet" x="13.5" y="-479.7"/>
<text text-anchor="start" x="37.5" y="-469.8" font-family="Helvetica,sans-Serif" font-size="11.00" fill="#000000">code</text>
<polygon fill="#ffffff" stroke="transparent" points="8.5,-440.7 8.5,-462.7 225.5,-462.7 225.5,-440.7 8.5,-440.7"/>
<polygon fill="none" stroke="#000000" points="8.5,-440.7 8.5,-462.7 225.5,-462.7 225.5,-440.7 8.5,-440.7"/>
<text text-anchor="start" x="37.5" y="-447.8" font-family="Helvetica,sans-Serif" font-size="11.00" fill="#000000">sequence_number</text>
<polygon fill="none" stroke="#000000" points="8.5,-421.7 8.5,-440.7 225.5,-440.7 225.5,-421.7 8.5,-421.7"/>
<text text-anchor="start" x="11.5" y="-427.8" font-family="Helvetica,sans-Serif" font-size="11.00" fill="#000000">...</text>
<polygon fill="#ffffff" stroke="transparent" points="8.5,-402.7 8.5,-421.7 106.5,-421.7 106.5,-402.7 8.5,-402.7"/>
<polygon fill="none" stroke="#000000" points="8.5,-402.7 8.5,-421.7 106.5,-421.7 106.5,-402.7 8.5,-402.7"/>
<text text-anchor="start" x="11.5" y="-408.8" font-family="Helvetica,sans-Serif" font-size="11.00" fill="#000000"> &#160;</text>
<polygon fill="#ffffff" stroke="transparent" points="106.5,-402.7 106.5,-421.7 161.5,-421.7 161.5,-402.7 106.5,-402.7"/>
<polygon fill="none" stroke="#000000" points="106.5,-402.7 106.5,-421.7 161.5,-421.7 161.5,-402.7 106.5,-402.7"/>
<text text-anchor="start" x="152.3862" y="-408.8" font-family="Helvetica,sans-Serif" font-size="11.00" fill="#000000"> &#160;</text>
<polygon fill="#ffffff" stroke="transparent" points="161.5,-402.7 161.5,-421.7 225.5,-421.7 225.5,-402.7 161.5,-402.7"/>
<polygon fill="none" stroke="#000000" points="161.5,-402.7 161.5,-421.7 225.5,-421.7 225.5,-402.7 161.5,-402.7"/>
<text text-anchor="start" x="206.9053" y="-408.8" font-family="Helvetica,sans-Serif" font-size="11.00" fill="#000000">5 &gt;</text>
</a>
</g>
</g>
<!-- document_template&#45;&gt;template_variable_domain -->
<g id="edge1" class="edge">
<title>document_template:w&#45;&gt;template_variable_domain:e</title>
<path fill="none" stroke="#000000" stroke-dasharray="5,2" d="M324.3038,-637.2993C297.299,-635.106 285.8283,-623.7638 266,-599.7 228.5942,-554.3039 284.3218,-473.7 225.5,-473.7"/>
<polygon fill="#000000" stroke="#000000" points="334.3503,-633.6728 334.0508,-641.6672 332.4519,-641.6073 332.7515,-633.6129 334.3503,-633.6728"/>
<polyline fill="none" stroke="#000000" points="335,-637.7 331.0028,-637.5502 "/>
<ellipse fill="none" stroke="#000000" cx="327.805" cy="-637.4304" rx="3.2" ry="3.2"/>
</g>
<!-- document_template_audit -->
<g id="node3" class="node">
<title>document_template_audit</title>
<g id="a_node3"><a xlink:href="../../tables/document_template_audit.html" xlink:title="document_template_audit" target="_top">
<polygon fill="#ffffff" stroke="transparent" points="274,-202.7 274,-424.7 568,-424.7 568,-202.7 274,-202.7"/>
<polygon fill="#f5f5f5" stroke="transparent" points="276,-399.7 276,-422.7 566,-422.7 566,-399.7 276,-399.7"/>
<polygon fill="none" stroke="#000000" points="276,-399.7 276,-422.7 566,-422.7 566,-399.7 276,-399.7"/>
<text text-anchor="start" x="281" y="-408.3" font-family="Helvetica,sans-Serif" font-weight="bold" font-size="11.00" fill="#000000">document_template_audit</text>
<text text-anchor="start" x="531.0437" y="-407.8" font-family="Helvetica,sans-Serif" font-size="11.00" fill="#000000">[table]</text>
<polygon fill="none" stroke="#000000" points="276,-377.7 276,-399.7 472,-399.7 472,-377.7 276,-377.7"/>
<image xlink:href="../../images/primaryKeys.png" width="11px" height="12px" preserveAspectRatio="xMinYMin meet" x="281" y="-394.7"/>
<text text-anchor="start" x="296" y="-384.8" font-family="Helvetica,sans-Serif" font-size="11.00" fill="#000000">rev_id</text>
<polygon fill="none" stroke="#000000" points="472,-377.7 472,-399.7 566,-399.7 566,-377.7 472,-377.7"/>
<text text-anchor="start" x="475" y="-385.4" font-family="Helvetica,sans-Serif" font-size="11.00" fill="#000000">int8[19]</text>
<polygon fill="none" stroke="#000000" points="276,-355.7 276,-377.7 472,-377.7 472,-355.7 276,-355.7"/>
<text text-anchor="start" x="296" y="-362.8" font-family="Helvetica,sans-Serif" font-size="11.00" fill="#000000">rev_type</text>
<polygon fill="none" stroke="#000000" points="472,-355.7 472,-377.7 566,-377.7 566,-355.7 472,-355.7"/>
<text text-anchor="start" x="475" y="-363.4" font-family="Helvetica,sans-Serif" font-size="11.00" fill="#000000">int2[5]</text>
<polygon fill="none" stroke="#000000" points="276,-333.7 276,-355.7 472,-355.7 472,-333.7 276,-333.7"/>
<image xlink:href="../../images/primaryKeys.png" width="11px" height="12px" preserveAspectRatio="xMinYMin meet" x="281" y="-350.7"/>
<text text-anchor="start" x="296" y="-340.8" font-family="Helvetica,sans-Serif" font-size="11.00" fill="#000000">id</text>
<polygon fill="none" stroke="#000000" points="472,-333.7 472,-355.7 566,-355.7 566,-333.7 472,-333.7"/>
<text text-anchor="start" x="474.9758" y="-341.4" font-family="Helvetica,sans-Serif" font-size="11.00" fill="#000000">uuid[2147483647]</text>
<polygon fill="none" stroke="#000000" points="276,-311.7 276,-333.7 472,-333.7 472,-311.7 276,-311.7"/>
<image xlink:href="../../images/foreignKeys.png" width="11px" height="12px" preserveAspectRatio="xMinYMin meet" x="281" y="-328.7"/>
<text text-anchor="start" x="296" y="-318.8" font-family="Helvetica,sans-Serif" font-size="11.00" fill="#000000">code</text>
<polygon fill="none" stroke="#000000" points="472,-311.7 472,-333.7 566,-333.7 566,-311.7 472,-311.7"/>
<text text-anchor="start" x="475" y="-319.4" font-family="Helvetica,sans-Serif" font-size="11.00" fill="#000000">text[2147483647]</text>
<polygon fill="none" stroke="#000000" points="276,-289.7 276,-311.7 472,-311.7 472,-289.7 276,-289.7"/>
<text text-anchor="start" x="296" y="-296.8" font-family="Helvetica,sans-Serif" font-size="11.00" fill="#000000">name</text>
<polygon fill="none" stroke="#000000" points="472,-289.7 472,-311.7 566,-311.7 566,-289.7 472,-289.7"/>
<text text-anchor="start" x="475" y="-297.4" font-family="Helvetica,sans-Serif" font-size="11.00" fill="#000000">text[2147483647]</text>
<polygon fill="none" stroke="#000000" points="276,-267.7 276,-289.7 472,-289.7 472,-267.7 276,-267.7"/>
<text text-anchor="start" x="296" y="-274.8" font-family="Helvetica,sans-Serif" font-size="11.00" fill="#000000">description</text>
<polygon fill="none" stroke="#000000" points="472,-267.7 472,-289.7 566,-289.7 566,-267.7 472,-267.7"/>
<text text-anchor="start" x="475" y="-275.4" font-family="Helvetica,sans-Serif" font-size="11.00" fill="#000000">text[2147483647]</text>
<polygon fill="none" stroke="#000000" points="276,-245.7 276,-267.7 472,-267.7 472,-245.7 276,-245.7"/>
<text text-anchor="start" x="296" y="-252.8" font-family="Helvetica,sans-Serif" font-size="11.00" fill="#000000">version</text>
<polygon fill="none" stroke="#000000" points="472,-245.7 472,-267.7 566,-267.7 566,-245.7 472,-245.7"/>
<text text-anchor="start" x="475" y="-253.4" font-family="Helvetica,sans-Serif" font-size="11.00" fill="#000000">int4[10]</text>
<polygon fill="#ffffff" stroke="transparent" points="276,-223.7 276,-245.7 472,-245.7 472,-223.7 276,-223.7"/>
<polygon fill="none" stroke="#000000" points="276,-223.7 276,-245.7 472,-245.7 472,-223.7 276,-223.7"/>
<text text-anchor="start" x="296" y="-230.8" font-family="Helvetica,sans-Serif" font-size="11.00" fill="#000000">external_reference</text>
<polygon fill="none" stroke="#000000" points="472,-223.7 472,-245.7 566,-245.7 566,-223.7 472,-223.7"/>
<text text-anchor="start" x="474.9758" y="-231.4" font-family="Helvetica,sans-Serif" font-size="11.00" fill="#000000">uuid[2147483647]</text>
<polygon fill="#ffffff" stroke="transparent" points="276,-204.7 276,-223.7 378,-223.7 378,-204.7 276,-204.7"/>
<polygon fill="none" stroke="#000000" points="276,-204.7 276,-223.7 378,-223.7 378,-204.7 276,-204.7"/>
<text text-anchor="start" x="279" y="-210.8" font-family="Helvetica,sans-Serif" font-size="11.00" fill="#000000">&lt; 2</text>
<polygon fill="#ffffff" stroke="transparent" points="378,-204.7 378,-223.7 472,-223.7 472,-204.7 378,-204.7"/>
<polygon fill="none" stroke="#000000" points="378,-204.7 378,-223.7 472,-223.7 472,-204.7 378,-204.7"/>
<text text-anchor="start" x="462.8862" y="-210.8" font-family="Helvetica,sans-Serif" font-size="11.00" fill="#000000"> &#160;</text>
<polygon fill="#ffffff" stroke="transparent" points="472,-204.7 472,-223.7 566,-223.7 566,-204.7 472,-204.7"/>
<polygon fill="none" stroke="#000000" points="472,-204.7 472,-223.7 566,-223.7 566,-204.7 472,-204.7"/>
<text text-anchor="start" x="547.4053" y="-210.8" font-family="Helvetica,sans-Serif" font-size="11.00" fill="#000000">0 &gt;</text>
<polygon fill="none" stroke="#000000" stroke-width="2" points="275,-203.7 275,-423.7 567,-423.7 567,-203.7 275,-203.7"/>
</a>
</g>
</g>
<!-- document_template_audit&#45;&gt;template_variable_domain -->
<g id="edge2" class="edge">
<title>document_template_audit:w&#45;&gt;template_variable_domain:e</title>
<path fill="none" stroke="#000000" stroke-dasharray="5,2" d="M261.6728,-325.5816C219.081,-346.4573 290.4599,-473.7 225.5,-473.7"/>
<polygon fill="#000000" stroke="#000000" points="268.1571,-324.2775 276.7099,-326.2293 272.0785,-323.4887 276,-322.7 276,-322.7 276,-322.7 272.0785,-323.4887 275.2901,-319.1707 268.1571,-324.2775 268.1571,-324.2775"/>
<ellipse fill="none" stroke="#000000" cx="265.0199" cy="-324.9085" rx="3.2" ry="3.2"/>
</g>
<!-- audit_revision -->
<g id="node4" class="node">
<title>audit_revision</title>
<g id="a_node4"><a xlink:href="../../tables/audit_revision.html" xlink:title="audit_revision" target="_top">
<polygon fill="#ffffff" stroke="transparent" points="49.5,-99.2 49.5,-182.2 183.5,-182.2 183.5,-99.2 49.5,-99.2"/>
<polygon fill="#f5f5f5" stroke="transparent" points="49.5,-158.7 49.5,-181.7 183.5,-181.7 183.5,-158.7 49.5,-158.7"/>
<polygon fill="none" stroke="#000000" points="49.5,-158.7 49.5,-181.7 183.5,-181.7 183.5,-158.7 49.5,-158.7"/>
<text text-anchor="start" x="54.5" y="-167.3" font-family="Helvetica,sans-Serif" font-weight="bold" font-size="11.00" fill="#000000">audit_revision</text>
<text text-anchor="start" x="149.0219" y="-166.8" font-family="Helvetica,sans-Serif" font-size="11.00" fill="#000000">[table]</text>
<polygon fill="none" stroke="#000000" points="49.5,-136.7 49.5,-158.7 183.5,-158.7 183.5,-136.7 49.5,-136.7"/>
<image xlink:href="../../images/primaryKeys.png" width="11px" height="12px" preserveAspectRatio="xMinYMin meet" x="54.5" y="-153.7"/>
<text text-anchor="start" x="78.5" y="-143.8" font-family="Helvetica,sans-Serif" font-size="11.00" fill="#000000">id</text>
<polygon fill="none" stroke="#000000" points="49.5,-117.7 49.5,-136.7 183.5,-136.7 183.5,-117.7 49.5,-117.7"/>
<text text-anchor="start" x="52.5" y="-123.8" font-family="Helvetica,sans-Serif" font-size="11.00" fill="#000000">...</text>
<polygon fill="#ffffff" stroke="transparent" points="49.5,-98.7 49.5,-117.7 105.5,-117.7 105.5,-98.7 49.5,-98.7"/>
<polygon fill="none" stroke="#000000" points="49.5,-98.7 49.5,-117.7 105.5,-117.7 105.5,-98.7 49.5,-98.7"/>
<text text-anchor="start" x="52.5" y="-104.8" font-family="Helvetica,sans-Serif" font-size="11.00" fill="#000000"> &#160;</text>
<polygon fill="#ffffff" stroke="transparent" points="105.5,-98.7 105.5,-117.7 139.5,-117.7 139.5,-98.7 105.5,-98.7"/>
<polygon fill="none" stroke="#000000" points="105.5,-98.7 105.5,-117.7 139.5,-117.7 139.5,-98.7 105.5,-98.7"/>
<text text-anchor="start" x="130.3862" y="-104.8" font-family="Helvetica,sans-Serif" font-size="11.00" fill="#000000"> &#160;</text>
<polygon fill="#ffffff" stroke="transparent" points="139.5,-98.7 139.5,-117.7 183.5,-117.7 183.5,-98.7 139.5,-98.7"/>
<polygon fill="none" stroke="#000000" points="139.5,-98.7 139.5,-117.7 183.5,-117.7 183.5,-98.7 139.5,-98.7"/>
<text text-anchor="start" x="164.9053" y="-104.8" font-family="Helvetica,sans-Serif" font-size="11.00" fill="#000000">3 &gt;</text>
</a>
</g>
</g>
<!-- document_template_audit&#45;&gt;audit_revision -->
<g id="edge3" class="edge">
<title>document_template_audit:w&#45;&gt;audit_revision:e</title>
<path fill="none" stroke="#000000" d="M261.4734,-387.161C173.5572,-366.6358 292.8518,-147.7 183.5,-147.7"/>
<polygon fill="#000000" stroke="#000000" points="268.0445,-387.8571 275.6207,-392.28 272.0223,-388.2786 276,-388.7 276,-388.7 276,-388.7 272.0223,-388.2786 276.3793,-385.12 268.0445,-387.8571 268.0445,-387.8571"/>
<ellipse fill="none" stroke="#000000" cx="264.8623" cy="-387.52" rx="3.2" ry="3.2"/>
</g>
<!-- document_template_group_audit -->
<g id="node5" class="node">
<title>document_template_group_audit</title>
<g id="a_node5"><a xlink:href="../../tables/document_template_group_audit.html" xlink:title="document_template_group_audit" target="_top">
<polygon fill="#ffffff" stroke="transparent" points="291,-120.2 291,-181.2 551,-181.2 551,-120.2 291,-120.2"/>
<polygon fill="#f5f5f5" stroke="transparent" points="291,-157.7 291,-180.7 551,-180.7 551,-157.7 291,-157.7"/>
<polygon fill="none" stroke="#000000" points="291,-157.7 291,-180.7 551,-180.7 551,-157.7 291,-157.7"/>
<text text-anchor="start" x="296" y="-166.3" font-family="Helvetica,sans-Serif" font-weight="bold" font-size="11.00" fill="#000000">document_template_group_audit</text>
<text text-anchor="start" x="516.5219" y="-165.8" font-family="Helvetica,sans-Serif" font-size="11.00" fill="#000000">[table]</text>
<polygon fill="none" stroke="#000000" points="291,-138.7 291,-157.7 551,-157.7 551,-138.7 291,-138.7"/>
<text text-anchor="start" x="294" y="-144.8" font-family="Helvetica,sans-Serif" font-size="11.00" fill="#000000">...</text>
<polygon fill="#ffffff" stroke="transparent" points="291,-119.7 291,-138.7 419,-138.7 419,-119.7 291,-119.7"/>
<polygon fill="none" stroke="#000000" points="291,-119.7 291,-138.7 419,-138.7 419,-119.7 291,-119.7"/>
<text text-anchor="start" x="294" y="-125.8" font-family="Helvetica,sans-Serif" font-size="11.00" fill="#000000">&lt; 1</text>
<polygon fill="#ffffff" stroke="transparent" points="419,-119.7 419,-138.7 485,-138.7 485,-119.7 419,-119.7"/>
<polygon fill="none" stroke="#000000" points="419,-119.7 419,-138.7 485,-138.7 485,-119.7 419,-119.7"/>
<text text-anchor="start" x="475.8862" y="-125.8" font-family="Helvetica,sans-Serif" font-size="11.00" fill="#000000"> &#160;</text>
<polygon fill="#ffffff" stroke="transparent" points="485,-119.7 485,-138.7 551,-138.7 551,-119.7 485,-119.7"/>
<polygon fill="none" stroke="#000000" points="485,-119.7 485,-138.7 551,-138.7 551,-119.7 485,-119.7"/>
<text text-anchor="start" x="541.8862" y="-125.8" font-family="Helvetica,sans-Serif" font-size="11.00" fill="#000000"> &#160;</text>
</a>
</g>
</g>
<!-- document_template_group_audit&#45;&gt;audit_revision -->
<g id="edge4" class="edge">
<title>document_template_group_audit:w&#45;&gt;audit_revision:e</title>
<path fill="none" stroke="#000000" d="M276.5152,-147.7C240.1807,-147.7 226.0521,-147.7 183.5,-147.7"/>
<polygon fill="#000000" stroke="#000000" points="283,-147.7001 291,-151.3 287,-147.7 291,-147.7 291,-147.7 291,-147.7 287,-147.7 291,-144.1 283,-147.7001 283,-147.7001"/>
<ellipse fill="none" stroke="#000000" cx="279.8" cy="-147.7001" rx="3.2" ry="3.2"/>
</g>
<!-- document_template_variable_audit -->
<g id="node6" class="node">
<title>document_template_variable_audit</title>
<g id="a_node6"><a xlink:href="../../tables/document_template_variable_audit.html" xlink:title="document_template_variable_audit" target="_top">
<polygon fill="#ffffff" stroke="transparent" points="283.5,-38.2 283.5,-99.2 558.5,-99.2 558.5,-38.2 283.5,-38.2"/>
<polygon fill="#f5f5f5" stroke="transparent" points="284,-75.7 284,-98.7 559,-98.7 559,-75.7 284,-75.7"/>
<polygon fill="none" stroke="#000000" points="284,-75.7 284,-98.7 559,-98.7 559,-75.7 284,-75.7"/>
<text text-anchor="start" x="289" y="-84.3" font-family="Helvetica,sans-Serif" font-weight="bold" font-size="11.00" fill="#000000">document_template_variable_audit</text>
<text text-anchor="start" x="524.5219" y="-83.8" font-family="Helvetica,sans-Serif" font-size="11.00" fill="#000000">[table]</text>
<polygon fill="none" stroke="#000000" points="284,-56.7 284,-75.7 559,-75.7 559,-56.7 284,-56.7"/>
<text text-anchor="start" x="287" y="-62.8" font-family="Helvetica,sans-Serif" font-size="11.00" fill="#000000">...</text>
<polygon fill="#ffffff" stroke="transparent" points="284,-37.7 284,-56.7 420,-56.7 420,-37.7 284,-37.7"/>
<polygon fill="none" stroke="#000000" points="284,-37.7 284,-56.7 420,-56.7 420,-37.7 284,-37.7"/>
<text text-anchor="start" x="287" y="-43.8" font-family="Helvetica,sans-Serif" font-size="11.00" fill="#000000">&lt; 1</text>
<polygon fill="#ffffff" stroke="transparent" points="420,-37.7 420,-56.7 489,-56.7 489,-37.7 420,-37.7"/>
<polygon fill="none" stroke="#000000" points="420,-37.7 420,-56.7 489,-56.7 489,-37.7 420,-37.7"/>
<text text-anchor="start" x="479.8862" y="-43.8" font-family="Helvetica,sans-Serif" font-size="11.00" fill="#000000"> &#160;</text>
<polygon fill="#ffffff" stroke="transparent" points="489,-37.7 489,-56.7 559,-56.7 559,-37.7 489,-37.7"/>
<polygon fill="none" stroke="#000000" points="489,-37.7 489,-56.7 559,-56.7 559,-37.7 489,-37.7"/>
<text text-anchor="start" x="549.8862" y="-43.8" font-family="Helvetica,sans-Serif" font-size="11.00" fill="#000000"> &#160;</text>
</a>
</g>
</g>
<!-- document_template_variable_audit&#45;&gt;audit_revision -->
<g id="edge5" class="edge">
<title>document_template_variable_audit:w&#45;&gt;audit_revision:e</title>
<path fill="none" stroke="#000000" d="M269.5772,-67.727C228.4894,-80.3543 235.7436,-147.7 183.5,-147.7"/>
<polygon fill="#000000" stroke="#000000" points="276.0779,-66.8134 284.501,-69.265 280.0389,-66.2567 284,-65.7 284,-65.7 284,-65.7 280.0389,-66.2567 283.499,-62.135 276.0779,-66.8134 276.0779,-66.8134"/>
<ellipse fill="none" stroke="#000000" cx="272.909" cy="-67.2588" rx="3.2" ry="3.2"/>
</g>
<!-- template_group -->
<g id="node7" class="node">
<title>template_group</title>
<g id="a_node7"><a xlink:href="../../tables/template_group.html" xlink:title="template_group" target="_top">
<polygon fill="#ffffff" stroke="transparent" points="348.5,-528.2 348.5,-589.2 493.5,-589.2 493.5,-528.2 348.5,-528.2"/>
<polygon fill="#f5f5f5" stroke="transparent" points="349,-565.7 349,-588.7 494,-588.7 494,-565.7 349,-565.7"/>
<polygon fill="none" stroke="#000000" points="349,-565.7 349,-588.7 494,-588.7 494,-565.7 349,-565.7"/>
<text text-anchor="start" x="354" y="-574.3" font-family="Helvetica,sans-Serif" font-weight="bold" font-size="11.00" fill="#000000">template_group</text>
<text text-anchor="start" x="459.5219" y="-573.8" font-family="Helvetica,sans-Serif" font-size="11.00" fill="#000000">[table]</text>
<polygon fill="none" stroke="#000000" points="349,-546.7 349,-565.7 494,-565.7 494,-546.7 349,-546.7"/>
<text text-anchor="start" x="352" y="-552.8" font-family="Helvetica,sans-Serif" font-size="11.00" fill="#000000">...</text>
<polygon fill="#ffffff" stroke="transparent" points="349,-527.7 349,-546.7 415,-546.7 415,-527.7 349,-527.7"/>
<polygon fill="none" stroke="#000000" points="349,-527.7 349,-546.7 415,-546.7 415,-527.7 349,-527.7"/>
<text text-anchor="start" x="352" y="-533.8" font-family="Helvetica,sans-Serif" font-size="11.00" fill="#000000">&lt; 1</text>
<polygon fill="#ffffff" stroke="transparent" points="415,-527.7 415,-546.7 450,-546.7 450,-527.7 415,-527.7"/>
<polygon fill="none" stroke="#000000" points="415,-527.7 415,-546.7 450,-546.7 450,-527.7 415,-527.7"/>
<text text-anchor="start" x="440.8862" y="-533.8" font-family="Helvetica,sans-Serif" font-size="11.00" fill="#000000"> &#160;</text>
<polygon fill="#ffffff" stroke="transparent" points="450,-527.7 450,-546.7 494,-546.7 494,-527.7 450,-527.7"/>
<polygon fill="none" stroke="#000000" points="450,-527.7 450,-546.7 494,-546.7 494,-527.7 450,-527.7"/>
<text text-anchor="start" x="475.4053" y="-533.8" font-family="Helvetica,sans-Serif" font-size="11.00" fill="#000000">1 &gt;</text>
</a>
</g>
</g>
<!-- template_group&#45;&gt;template_variable_domain -->
<g id="edge6" class="edge">
<title>template_group:w&#45;&gt;template_variable_domain:e</title>
<path fill="none" stroke="#000000" stroke-dasharray="5,2" d="M338.3613,-555.3303C306.4246,-552.9598 295.751,-539.3041 266,-517.7 244.4936,-502.0828 252.0786,-473.7 225.5,-473.7"/>
<polygon fill="#000000" stroke="#000000" points="348.3394,-551.6746 348.0615,-559.6698 346.4625,-559.6142 346.7404,-551.619 348.3394,-551.6746"/>
<polyline fill="none" stroke="#000000" points="349,-555.7 345.0024,-555.561 "/>
<ellipse fill="none" stroke="#000000" cx="341.8043" cy="-555.4499" rx="3.2" ry="3.2"/>
</g>
<!-- template_variable -->
<g id="node8" class="node">
<title>template_variable</title>
<g id="a_node8"><a xlink:href="../../tables/template_variable.html" xlink:title="template_variable" target="_top">
<polygon fill="#ffffff" stroke="transparent" points="341,-446.2 341,-507.2 501,-507.2 501,-446.2 341,-446.2"/>
<polygon fill="#f5f5f5" stroke="transparent" points="341,-483.7 341,-506.7 501,-506.7 501,-483.7 341,-483.7"/>
<polygon fill="none" stroke="#000000" points="341,-483.7 341,-506.7 501,-506.7 501,-483.7 341,-483.7"/>
<text text-anchor="start" x="346" y="-492.3" font-family="Helvetica,sans-Serif" font-weight="bold" font-size="11.00" fill="#000000">template_variable</text>
<text text-anchor="start" x="466.5219" y="-491.8" font-family="Helvetica,sans-Serif" font-size="11.00" fill="#000000">[table]</text>
<polygon fill="none" stroke="#000000" points="341,-464.7 341,-483.7 501,-483.7 501,-464.7 341,-464.7"/>
<text text-anchor="start" x="344" y="-470.8" font-family="Helvetica,sans-Serif" font-size="11.00" fill="#000000">...</text>
<polygon fill="#ffffff" stroke="transparent" points="341,-445.7 341,-464.7 415,-464.7 415,-445.7 341,-445.7"/>
<polygon fill="none" stroke="#000000" points="341,-445.7 341,-464.7 415,-464.7 415,-445.7 341,-445.7"/>
<text text-anchor="start" x="344" y="-451.8" font-family="Helvetica,sans-Serif" font-size="11.00" fill="#000000">&lt; 2</text>
<polygon fill="#ffffff" stroke="transparent" points="415,-445.7 415,-464.7 453,-464.7 453,-445.7 415,-445.7"/>
<polygon fill="none" stroke="#000000" points="415,-445.7 415,-464.7 453,-464.7 453,-445.7 415,-445.7"/>
<text text-anchor="start" x="443.8862" y="-451.8" font-family="Helvetica,sans-Serif" font-size="11.00" fill="#000000"> &#160;</text>
<polygon fill="#ffffff" stroke="transparent" points="453,-445.7 453,-464.7 501,-464.7 501,-445.7 453,-445.7"/>
<polygon fill="none" stroke="#000000" points="453,-445.7 453,-464.7 501,-464.7 501,-445.7 453,-445.7"/>
<text text-anchor="start" x="482.4053" y="-451.8" font-family="Helvetica,sans-Serif" font-size="11.00" fill="#000000">1 &gt;</text>
</a>
</g>
</g>
<!-- template_variable&#45;&gt;template_variable_domain -->
<g id="edge7" class="edge">
<title>template_variable:w&#45;&gt;template_variable_domain:e</title>
<path fill="none" stroke="#000000" stroke-dasharray="5,2" d="M330.4452,-472.4932C287.6108,-467.7313 273.1237,-468.1336 225.5,-473.7"/>
<polygon fill="#000000" stroke="#000000" points="340.6596,-469.635 339.7508,-477.5832 338.1611,-477.4015 339.0699,-469.4532 340.6596,-469.635"/>
<polyline fill="none" stroke="#000000" points="341,-473.7 337.0259,-473.2456 "/>
<ellipse fill="none" stroke="#000000" cx="333.8466" cy="-472.8821" rx="3.2" ry="3.2"/>
</g>
<!-- template_variable&#45;&gt;template_variable_domain -->
<g id="edge8" class="edge">
<title>template_variable:w&#45;&gt;template_variable_domain:e</title>
<path fill="none" stroke="#000000" d="M326.4701,-475.6162C286.6628,-480.6278 271.6198,-479.9891 225.5,-473.7"/>
<polygon fill="#000000" stroke="#000000" points="333.0687,-474.746 341.4707,-477.2691 337.0343,-474.223 341,-473.7 341,-473.7 341,-473.7 337.0343,-474.223 340.5293,-470.1309 333.0687,-474.746 333.0687,-474.746"/>
<ellipse fill="none" stroke="#000000" cx="329.8961" cy="-475.1644" rx="3.2" ry="3.2"/>
</g>
</g>
</svg>
