<?xml version="1.0" encoding="UTF-8" standalone="no"?>
<!DOCTYPE svg PUBLIC "-//W3C//DTD SVG 1.1//EN"
 "http://www.w3.org/Graphics/SVG/1.1/DTD/svg11.dtd">
<!-- Generated by graphviz version 2.40.1 (20161225.0304)
 -->
<!-- Title: twoDegreesRelationshipsDiagram Pages: 1 -->
<svg width="575pt" height="327pt"
 viewBox="0.00 0.00 575.00 326.70" xmlns="http://www.w3.org/2000/svg" xmlns:xlink="http://www.w3.org/1999/xlink">
<g id="graph0" class="graph" transform="scale(1 1) rotate(0) translate(4 322.7)">
<title>twoDegreesRelationshipsDiagram</title>
<polygon fill="#ffffff" stroke="transparent" points="-4,4 -4,-322.7 571,-322.7 571,4 -4,4"/>
<text text-anchor="middle" x="72.4936" y="-7.3" font-family="Helvetica,sans-Serif" font-size="11.00" fill="#000000">Generated by SchemaSpy</text>
<!-- document_generation_request -->
<g id="node1" class="node">
<title>document_generation_request</title>
<g id="a_node1"><a xlink:href="../../tables/document_generation_request.html" xlink:title="document_generation_request" target="_top">
<polygon fill="#ffffff" stroke="transparent" points="230,-202.7 230,-314.7 559,-314.7 559,-202.7 230,-202.7"/>
<polygon fill="#f5f5f5" stroke="transparent" points="232.5,-289.7 232.5,-312.7 557.5,-312.7 557.5,-289.7 232.5,-289.7"/>
<polygon fill="none" stroke="#000000" points="232.5,-289.7 232.5,-312.7 557.5,-312.7 557.5,-289.7 232.5,-289.7"/>
<text text-anchor="start" x="237.5" y="-298.3" font-family="Helvetica,sans-Serif" font-weight="bold" font-size="11.00" fill="#000000">document_generation_request</text>
<text text-anchor="start" x="522.5437" y="-297.8" font-family="Helvetica,sans-Serif" font-size="11.00" fill="#000000">[table]</text>
<polygon fill="none" stroke="#000000" points="232.5,-267.7 232.5,-289.7 458.5,-289.7 458.5,-267.7 232.5,-267.7"/>
<image xlink:href="../../images/primaryKeys.png" width="11px" height="12px" preserveAspectRatio="xMinYMin meet" x="237.5" y="-284.7"/>
<text text-anchor="start" x="252.5" y="-274.8" font-family="Helvetica,sans-Serif" font-size="11.00" fill="#000000">id</text>
<polygon fill="none" stroke="#000000" points="458.5,-267.7 458.5,-289.7 557.5,-289.7 557.5,-267.7 458.5,-267.7"/>
<text text-anchor="start" x="461.5" y="-275.4" font-family="Helvetica,sans-Serif" font-size="11.00" fill="#000000">uuid[2147483647]</text>
<polygon fill="none" stroke="#000000" points="232.5,-245.7 232.5,-267.7 458.5,-267.7 458.5,-245.7 232.5,-245.7"/>
<image xlink:href="../../images/foreignKeys.png" width="11px" height="12px" preserveAspectRatio="xMinYMin meet" x="237.5" y="-262.7"/>
<text text-anchor="start" x="252.5" y="-252.8" font-family="Helvetica,sans-Serif" font-size="11.00" fill="#000000">template_id</text>
<polygon fill="none" stroke="#000000" points="458.5,-245.7 458.5,-267.7 557.5,-267.7 557.5,-245.7 458.5,-245.7"/>
<text text-anchor="start" x="461.5" y="-253.4" font-family="Helvetica,sans-Serif" font-size="11.00" fill="#000000">uuid[2147483647]</text>
<polygon fill="none" stroke="#000000" points="232.5,-223.7 232.5,-245.7 458.5,-245.7 458.5,-223.7 232.5,-223.7"/>
<text text-anchor="start" x="252.5" y="-230.8" font-family="Helvetica,sans-Serif" font-size="11.00" fill="#000000">request</text>
<polygon fill="none" stroke="#000000" points="458.5,-223.7 458.5,-245.7 557.5,-245.7 557.5,-223.7 458.5,-223.7"/>
<text text-anchor="start" x="461.2258" y="-231.4" font-family="Helvetica,sans-Serif" font-size="11.00" fill="#000000">jsonb[2147483647]</text>
<polygon fill="#ffffff" stroke="transparent" points="232.5,-204.7 232.5,-223.7 349.5,-223.7 349.5,-204.7 232.5,-204.7"/>
<polygon fill="none" stroke="#000000" points="232.5,-204.7 232.5,-223.7 349.5,-223.7 349.5,-204.7 232.5,-204.7"/>
<text text-anchor="start" x="235.5" y="-210.8" font-family="Helvetica,sans-Serif" font-size="11.00" fill="#000000">&lt; 1</text>
<polygon fill="#ffffff" stroke="transparent" points="349.5,-204.7 349.5,-223.7 458.5,-223.7 458.5,-204.7 349.5,-204.7"/>
<polygon fill="none" stroke="#000000" points="349.5,-204.7 349.5,-223.7 458.5,-223.7 458.5,-204.7 349.5,-204.7"/>
<text text-anchor="start" x="449.3862" y="-210.8" font-family="Helvetica,sans-Serif" font-size="11.00" fill="#000000"> &#160;</text>
<polygon fill="#ffffff" stroke="transparent" points="458.5,-204.7 458.5,-223.7 557.5,-223.7 557.5,-204.7 458.5,-204.7"/>
<polygon fill="none" stroke="#000000" points="458.5,-204.7 458.5,-223.7 557.5,-223.7 557.5,-204.7 458.5,-204.7"/>
<text text-anchor="start" x="538.9053" y="-210.8" font-family="Helvetica,sans-Serif" font-size="11.00" fill="#000000">0 &gt;</text>
<polygon fill="none" stroke="#000000" stroke-width="2" points="231,-203.7 231,-313.7 558,-313.7 558,-203.7 231,-203.7"/>
</a>
</g>
</g>
<!-- document_template -->
<g id="node2" class="node">
<title>document_template</title>
<g id="a_node2"><a xlink:href="../../tables/document_template.html" xlink:title="document_template" target="_top">
<polygon fill="#ffffff" stroke="transparent" points="8,-55.2 8,-182.2 181,-182.2 181,-55.2 8,-55.2"/>
<polygon fill="#f5f5f5" stroke="transparent" points="8.5,-158.7 8.5,-181.7 181.5,-181.7 181.5,-158.7 8.5,-158.7"/>
<polygon fill="none" stroke="#000000" points="8.5,-158.7 8.5,-181.7 181.5,-181.7 181.5,-158.7 8.5,-158.7"/>
<text text-anchor="start" x="13.5" y="-167.3" font-family="Helvetica,sans-Serif" font-weight="bold" font-size="11.00" fill="#000000">document_template</text>
<text text-anchor="start" x="147.0219" y="-166.8" font-family="Helvetica,sans-Serif" font-size="11.00" fill="#000000">[table]</text>
<polygon fill="none" stroke="#000000" points="8.5,-136.7 8.5,-158.7 181.5,-158.7 181.5,-136.7 8.5,-136.7"/>
<image xlink:href="../../images/primaryKeys.png" width="11px" height="12px" preserveAspectRatio="xMinYMin meet" x="13.5" y="-153.7"/>
<text text-anchor="start" x="37.5" y="-143.8" font-family="Helvetica,sans-Serif" font-size="11.00" fill="#000000">id</text>
<polygon fill="#ffffff" stroke="transparent" points="8.5,-114.7 8.5,-136.7 181.5,-136.7 181.5,-114.7 8.5,-114.7"/>
<polygon fill="none" stroke="#000000" points="8.5,-114.7 8.5,-136.7 181.5,-136.7 181.5,-114.7 8.5,-114.7"/>
<image xlink:href="../../images/foreignKeys.png" width="11px" height="12px" preserveAspectRatio="xMinYMin meet" x="13.5" y="-131.7"/>
<text text-anchor="start" x="37.5" y="-121.8" font-family="Helvetica,sans-Serif" font-size="11.00" fill="#000000">code</text>
<polygon fill="#ffffff" stroke="transparent" points="8.5,-92.7 8.5,-114.7 181.5,-114.7 181.5,-92.7 8.5,-92.7"/>
<polygon fill="none" stroke="#000000" points="8.5,-92.7 8.5,-114.7 181.5,-114.7 181.5,-92.7 8.5,-92.7"/>
<text text-anchor="start" x="37.5" y="-99.8" font-family="Helvetica,sans-Serif" font-size="11.00" fill="#000000">external_reference</text>
<polygon fill="none" stroke="#000000" points="8.5,-73.7 8.5,-92.7 181.5,-92.7 181.5,-73.7 8.5,-73.7"/>
<text text-anchor="start" x="11.5" y="-79.8" font-family="Helvetica,sans-Serif" font-size="11.00" fill="#000000">...</text>
<polygon fill="#ffffff" stroke="transparent" points="8.5,-54.7 8.5,-73.7 84.5,-73.7 84.5,-54.7 8.5,-54.7"/>
<polygon fill="none" stroke="#000000" points="8.5,-54.7 8.5,-73.7 84.5,-73.7 84.5,-54.7 8.5,-54.7"/>
<text text-anchor="start" x="11.5" y="-60.8" font-family="Helvetica,sans-Serif" font-size="11.00" fill="#000000"> &#160;</text>
<polygon fill="#ffffff" stroke="transparent" points="84.5,-54.7 84.5,-73.7 128.5,-73.7 128.5,-54.7 84.5,-54.7"/>
<polygon fill="none" stroke="#000000" points="84.5,-54.7 84.5,-73.7 128.5,-73.7 128.5,-54.7 84.5,-54.7"/>
<text text-anchor="start" x="119.3862" y="-60.8" font-family="Helvetica,sans-Serif" font-size="11.00" fill="#000000"> &#160;</text>
<polygon fill="#ffffff" stroke="transparent" points="128.5,-54.7 128.5,-73.7 181.5,-73.7 181.5,-54.7 128.5,-54.7"/>
<polygon fill="none" stroke="#000000" points="128.5,-54.7 128.5,-73.7 181.5,-73.7 181.5,-54.7 128.5,-54.7"/>
<text text-anchor="start" x="162.9053" y="-60.8" font-family="Helvetica,sans-Serif" font-size="11.00" fill="#000000">3 &gt;</text>
</a>
</g>
</g>
<!-- document_generation_request&#45;&gt;document_template -->
<g id="edge1" class="edge">
<title>document_generation_request:w&#45;&gt;document_template:e</title>
<path fill="none" stroke="#000000" d="M218.219,-252.8206C190.2911,-233.4034 228.9261,-147.7 181.5,-147.7"/>
<polygon fill="#000000" stroke="#000000" points="224.7798,-254.6028 231.5563,-260.1741 228.6399,-255.6514 232.5,-256.7 232.5,-256.7 232.5,-256.7 228.6399,-255.6514 233.4437,-253.2259 224.7798,-254.6028 224.7798,-254.6028"/>
<ellipse fill="none" stroke="#000000" cx="221.6917" cy="-253.7639" rx="3.2" ry="3.2"/>
</g>
<!-- document_template_group -->
<g id="node3" class="node">
<title>document_template_group</title>
<g id="a_node3"><a xlink:href="../../tables/document_template_group.html" xlink:title="document_template_group" target="_top">
<polygon fill="#ffffff" stroke="transparent" points="285,-120.2 285,-181.2 504,-181.2 504,-120.2 285,-120.2"/>
<polygon fill="#f5f5f5" stroke="transparent" points="285.5,-157.7 285.5,-180.7 504.5,-180.7 504.5,-157.7 285.5,-157.7"/>
<polygon fill="none" stroke="#000000" points="285.5,-157.7 285.5,-180.7 504.5,-180.7 504.5,-157.7 285.5,-157.7"/>
<text text-anchor="start" x="290.5" y="-166.3" font-family="Helvetica,sans-Serif" font-weight="bold" font-size="11.00" fill="#000000">document_template_group</text>
<text text-anchor="start" x="470.0219" y="-165.8" font-family="Helvetica,sans-Serif" font-size="11.00" fill="#000000">[table]</text>
<polygon fill="none" stroke="#000000" points="285.5,-138.7 285.5,-157.7 504.5,-157.7 504.5,-138.7 285.5,-138.7"/>
<text text-anchor="start" x="288.5" y="-144.8" font-family="Helvetica,sans-Serif" font-size="11.00" fill="#000000">...</text>
<polygon fill="#ffffff" stroke="transparent" points="285.5,-119.7 285.5,-138.7 393.5,-138.7 393.5,-119.7 285.5,-119.7"/>
<polygon fill="none" stroke="#000000" points="285.5,-119.7 285.5,-138.7 393.5,-138.7 393.5,-119.7 285.5,-119.7"/>
<text text-anchor="start" x="288.5" y="-125.8" font-family="Helvetica,sans-Serif" font-size="11.00" fill="#000000">&lt; 2</text>
<polygon fill="#ffffff" stroke="transparent" points="393.5,-119.7 393.5,-138.7 448.5,-138.7 448.5,-119.7 393.5,-119.7"/>
<polygon fill="none" stroke="#000000" points="393.5,-119.7 393.5,-138.7 448.5,-138.7 448.5,-119.7 393.5,-119.7"/>
<text text-anchor="start" x="439.3862" y="-125.8" font-family="Helvetica,sans-Serif" font-size="11.00" fill="#000000"> &#160;</text>
<polygon fill="#ffffff" stroke="transparent" points="448.5,-119.7 448.5,-138.7 504.5,-138.7 504.5,-119.7 448.5,-119.7"/>
<polygon fill="none" stroke="#000000" points="448.5,-119.7 448.5,-138.7 504.5,-138.7 504.5,-119.7 448.5,-119.7"/>
<text text-anchor="start" x="495.3862" y="-125.8" font-family="Helvetica,sans-Serif" font-size="11.00" fill="#000000"> &#160;</text>
</a>
</g>
</g>
<!-- document_template_group&#45;&gt;document_template -->
<g id="edge2" class="edge">
<title>document_template_group:w&#45;&gt;document_template:e</title>
<path fill="none" stroke="#000000" d="M271.0255,-147.7C236.2149,-147.7 222.4861,-147.7 181.5,-147.7"/>
<polygon fill="#000000" stroke="#000000" points="277.5,-147.7001 285.5,-151.3 281.5,-147.7 285.5,-147.7 285.5,-147.7 285.5,-147.7 281.5,-147.7 285.5,-144.1 277.5,-147.7001 277.5,-147.7001"/>
<ellipse fill="none" stroke="#000000" cx="274.3" cy="-147.7001" rx="3.2" ry="3.2"/>
</g>
<!-- document_template_variable -->
<g id="node4" class="node">
<title>document_template_variable</title>
<g id="a_node4"><a xlink:href="../../tables/document_template_variable.html" xlink:title="document_template_variable" target="_top">
<polygon fill="#ffffff" stroke="transparent" points="277.5,-38.2 277.5,-99.2 511.5,-99.2 511.5,-38.2 277.5,-38.2"/>
<polygon fill="#f5f5f5" stroke="transparent" points="277.5,-75.7 277.5,-98.7 511.5,-98.7 511.5,-75.7 277.5,-75.7"/>
<polygon fill="none" stroke="#000000" points="277.5,-75.7 277.5,-98.7 511.5,-98.7 511.5,-75.7 277.5,-75.7"/>
<text text-anchor="start" x="282.5" y="-84.3" font-family="Helvetica,sans-Serif" font-weight="bold" font-size="11.00" fill="#000000">document_template_variable</text>
<text text-anchor="start" x="477.0219" y="-83.8" font-family="Helvetica,sans-Serif" font-size="11.00" fill="#000000">[table]</text>
<polygon fill="none" stroke="#000000" points="277.5,-56.7 277.5,-75.7 511.5,-75.7 511.5,-56.7 277.5,-56.7"/>
<text text-anchor="start" x="280.5" y="-62.8" font-family="Helvetica,sans-Serif" font-size="11.00" fill="#000000">...</text>
<polygon fill="#ffffff" stroke="transparent" points="277.5,-37.7 277.5,-56.7 392.5,-56.7 392.5,-37.7 277.5,-37.7"/>
<polygon fill="none" stroke="#000000" points="277.5,-37.7 277.5,-56.7 392.5,-56.7 392.5,-37.7 277.5,-37.7"/>
<text text-anchor="start" x="280.5" y="-43.8" font-family="Helvetica,sans-Serif" font-size="11.00" fill="#000000">&lt; 2</text>
<polygon fill="#ffffff" stroke="transparent" points="392.5,-37.7 392.5,-56.7 451.5,-56.7 451.5,-37.7 392.5,-37.7"/>
<polygon fill="none" stroke="#000000" points="392.5,-37.7 392.5,-56.7 451.5,-56.7 451.5,-37.7 392.5,-37.7"/>
<text text-anchor="start" x="442.3862" y="-43.8" font-family="Helvetica,sans-Serif" font-size="11.00" fill="#000000"> &#160;</text>
<polygon fill="#ffffff" stroke="transparent" points="451.5,-37.7 451.5,-56.7 511.5,-56.7 511.5,-37.7 451.5,-37.7"/>
<polygon fill="none" stroke="#000000" points="451.5,-37.7 451.5,-56.7 511.5,-56.7 511.5,-37.7 451.5,-37.7"/>
<text text-anchor="start" x="502.3862" y="-43.8" font-family="Helvetica,sans-Serif" font-size="11.00" fill="#000000"> &#160;</text>
</a>
</g>
</g>
<!-- document_template_variable&#45;&gt;document_template -->
<g id="edge3" class="edge">
<title>document_template_variable:w&#45;&gt;document_template:e</title>
<path fill="none" stroke="#000000" d="M263.2433,-67.8174C245.1903,-74.0293 241.5495,-92.8304 222,-109.7 203.3129,-125.8254 206.1827,-147.7 181.5,-147.7"/>
<polygon fill="#000000" stroke="#000000" points="269.5868,-66.8753 278.0289,-69.2609 273.5434,-66.2877 277.5,-65.7 277.5,-65.7 277.5,-65.7 273.5434,-66.2877 276.9711,-62.1391 269.5868,-66.8753 269.5868,-66.8753"/>
<ellipse fill="none" stroke="#000000" cx="266.4215" cy="-67.3454" rx="3.2" ry="3.2"/>
</g>
</g>
</svg>
