<?xml version="1.0" encoding="UTF-8" standalone="no"?>
<!DOCTYPE svg PUBLIC "-//W3C//DTD SVG 1.1//EN"
 "http://www.w3.org/Graphics/SVG/1.1/DTD/svg11.dtd">
<!-- Generated by graphviz version 2.40.1 (20161225.0304)
 -->
<!-- Title: oneDegreeRelationshipsDiagram Pages: 1 -->
<svg width="570pt" height="433pt"
 viewBox="0.00 0.00 570.00 433.20" xmlns="http://www.w3.org/2000/svg" xmlns:xlink="http://www.w3.org/1999/xlink">
<g id="graph0" class="graph" transform="scale(1 1) rotate(0) translate(4 429.2)">
<title>oneDegreeRelationshipsDiagram</title>
<polygon fill="#ffffff" stroke="transparent" points="-4,4 -4,-429.2 566,-429.2 566,4 -4,4"/>
<text text-anchor="middle" x="72.4936" y="-7.3" font-family="Helvetica,sans-Serif" font-size="11.00" fill="#000000">Generated by SchemaSpy</text>
<!-- document_generation_request -->
<g id="node1" class="node">
<title>document_generation_request</title>
<g id="a_node1"><a xlink:href="../../tables/document_generation_request.html" xlink:title="document_generation_request" target="_top">
<polygon fill="#ffffff" stroke="transparent" points="310,-316.2 310,-421.2 554,-421.2 554,-316.2 310,-316.2"/>
<polygon fill="#f5f5f5" stroke="transparent" points="310,-397.7 310,-420.7 554,-420.7 554,-397.7 310,-397.7"/>
<polygon fill="none" stroke="#000000" points="310,-397.7 310,-420.7 554,-420.7 554,-397.7 310,-397.7"/>
<text text-anchor="start" x="315" y="-406.3" font-family="Helvetica,sans-Serif" font-weight="bold" font-size="11.00" fill="#000000">document_generation_request</text>
<text text-anchor="start" x="519.5219" y="-405.8" font-family="Helvetica,sans-Serif" font-size="11.00" fill="#000000">[table]</text>
<polygon fill="none" stroke="#000000" points="310,-375.7 310,-397.7 554,-397.7 554,-375.7 310,-375.7"/>
<image xlink:href="../../images/primaryKeys.png" width="11px" height="12px" preserveAspectRatio="xMinYMin meet" x="315" y="-392.7"/>
<text text-anchor="start" x="339" y="-382.8" font-family="Helvetica,sans-Serif" font-size="11.00" fill="#000000">id</text>
<polygon fill="none" stroke="#000000" points="310,-353.7 310,-375.7 554,-375.7 554,-353.7 310,-353.7"/>
<image xlink:href="../../images/foreignKeys.png" width="11px" height="12px" preserveAspectRatio="xMinYMin meet" x="315" y="-370.7"/>
<text text-anchor="start" x="339" y="-360.8" font-family="Helvetica,sans-Serif" font-size="11.00" fill="#000000">template_id</text>
<polygon fill="none" stroke="#000000" points="310,-334.7 310,-353.7 554,-353.7 554,-334.7 310,-334.7"/>
<text text-anchor="start" x="313" y="-340.8" font-family="Helvetica,sans-Serif" font-size="11.00" fill="#000000">...</text>
<polygon fill="#ffffff" stroke="transparent" points="310,-315.7 310,-334.7 430,-334.7 430,-315.7 310,-315.7"/>
<polygon fill="none" stroke="#000000" points="310,-315.7 310,-334.7 430,-334.7 430,-315.7 310,-315.7"/>
<text text-anchor="start" x="313" y="-321.8" font-family="Helvetica,sans-Serif" font-size="11.00" fill="#000000">&lt; 1</text>
<polygon fill="#ffffff" stroke="transparent" points="430,-315.7 430,-334.7 492,-334.7 492,-315.7 430,-315.7"/>
<polygon fill="none" stroke="#000000" points="430,-315.7 430,-334.7 492,-334.7 492,-315.7 430,-315.7"/>
<text text-anchor="start" x="482.8862" y="-321.8" font-family="Helvetica,sans-Serif" font-size="11.00" fill="#000000"> &#160;</text>
<polygon fill="#ffffff" stroke="transparent" points="492,-315.7 492,-334.7 554,-334.7 554,-315.7 492,-315.7"/>
<polygon fill="none" stroke="#000000" points="492,-315.7 492,-334.7 554,-334.7 554,-315.7 492,-315.7"/>
<text text-anchor="start" x="544.8862" y="-321.8" font-family="Helvetica,sans-Serif" font-size="11.00" fill="#000000"> &#160;</text>
</a>
</g>
</g>
<!-- document_template -->
<g id="node2" class="node">
<title>document_template</title>
<g id="a_node2"><a xlink:href="../../tables/document_template.html" xlink:title="document_template" target="_top">
<polygon fill="#ffffff" stroke="transparent" points="8,-74.7 8,-274.7 261,-274.7 261,-74.7 8,-74.7"/>
<polygon fill="#f5f5f5" stroke="transparent" points="10.5,-249.7 10.5,-272.7 259.5,-272.7 259.5,-249.7 10.5,-249.7"/>
<polygon fill="none" stroke="#000000" points="10.5,-249.7 10.5,-272.7 259.5,-272.7 259.5,-249.7 10.5,-249.7"/>
<text text-anchor="start" x="15.5" y="-258.3" font-family="Helvetica,sans-Serif" font-weight="bold" font-size="11.00" fill="#000000">document_template</text>
<text text-anchor="start" x="224.5437" y="-257.8" font-family="Helvetica,sans-Serif" font-size="11.00" fill="#000000">[table]</text>
<polygon fill="none" stroke="#000000" points="10.5,-227.7 10.5,-249.7 165.5,-249.7 165.5,-227.7 10.5,-227.7"/>
<image xlink:href="../../images/primaryKeys.png" width="11px" height="12px" preserveAspectRatio="xMinYMin meet" x="15.5" y="-244.7"/>
<text text-anchor="start" x="30.5" y="-234.8" font-family="Helvetica,sans-Serif" font-size="11.00" fill="#000000">id</text>
<polygon fill="none" stroke="#000000" points="165.5,-227.7 165.5,-249.7 259.5,-249.7 259.5,-227.7 165.5,-227.7"/>
<text text-anchor="start" x="168.4758" y="-235.4" font-family="Helvetica,sans-Serif" font-size="11.00" fill="#000000">uuid[2147483647]</text>
<polygon fill="#ffffff" stroke="transparent" points="10.5,-205.7 10.5,-227.7 165.5,-227.7 165.5,-205.7 10.5,-205.7"/>
<polygon fill="none" stroke="#000000" points="10.5,-205.7 10.5,-227.7 165.5,-227.7 165.5,-205.7 10.5,-205.7"/>
<image xlink:href="../../images/foreignKeys.png" width="11px" height="12px" preserveAspectRatio="xMinYMin meet" x="15.5" y="-222.7"/>
<text text-anchor="start" x="30.5" y="-212.8" font-family="Helvetica,sans-Serif" font-size="11.00" fill="#000000">code</text>
<polygon fill="none" stroke="#000000" points="165.5,-205.7 165.5,-227.7 259.5,-227.7 259.5,-205.7 165.5,-205.7"/>
<text text-anchor="start" x="168.5" y="-213.4" font-family="Helvetica,sans-Serif" font-size="11.00" fill="#000000">text[2147483647]</text>
<polygon fill="none" stroke="#000000" points="10.5,-183.7 10.5,-205.7 165.5,-205.7 165.5,-183.7 10.5,-183.7"/>
<text text-anchor="start" x="30.5" y="-190.8" font-family="Helvetica,sans-Serif" font-size="11.00" fill="#000000">name</text>
<polygon fill="none" stroke="#000000" points="165.5,-183.7 165.5,-205.7 259.5,-205.7 259.5,-183.7 165.5,-183.7"/>
<text text-anchor="start" x="168.5" y="-191.4" font-family="Helvetica,sans-Serif" font-size="11.00" fill="#000000">text[2147483647]</text>
<polygon fill="none" stroke="#000000" points="10.5,-161.7 10.5,-183.7 165.5,-183.7 165.5,-161.7 10.5,-161.7"/>
<text text-anchor="start" x="30.5" y="-168.8" font-family="Helvetica,sans-Serif" font-size="11.00" fill="#000000">description</text>
<polygon fill="none" stroke="#000000" points="165.5,-161.7 165.5,-183.7 259.5,-183.7 259.5,-161.7 165.5,-161.7"/>
<text text-anchor="start" x="168.5" y="-169.4" font-family="Helvetica,sans-Serif" font-size="11.00" fill="#000000">text[2147483647]</text>
<polygon fill="none" stroke="#000000" points="10.5,-139.7 10.5,-161.7 165.5,-161.7 165.5,-139.7 10.5,-139.7"/>
<text text-anchor="start" x="30.5" y="-146.8" font-family="Helvetica,sans-Serif" font-size="11.00" fill="#000000">version</text>
<polygon fill="none" stroke="#000000" points="165.5,-139.7 165.5,-161.7 259.5,-161.7 259.5,-139.7 165.5,-139.7"/>
<text text-anchor="start" x="168.5" y="-147.4" font-family="Helvetica,sans-Serif" font-size="11.00" fill="#000000">int4[10]</text>
<polygon fill="#ffffff" stroke="transparent" points="10.5,-117.7 10.5,-139.7 165.5,-139.7 165.5,-117.7 10.5,-117.7"/>
<polygon fill="none" stroke="#000000" points="10.5,-117.7 10.5,-139.7 165.5,-139.7 165.5,-117.7 10.5,-117.7"/>
<text text-anchor="start" x="30.5" y="-124.8" font-family="Helvetica,sans-Serif" font-size="11.00" fill="#000000">external_reference</text>
<polygon fill="none" stroke="#000000" points="165.5,-117.7 165.5,-139.7 259.5,-139.7 259.5,-117.7 165.5,-117.7"/>
<text text-anchor="start" x="168.4758" y="-125.4" font-family="Helvetica,sans-Serif" font-size="11.00" fill="#000000">uuid[2147483647]</text>
<polygon fill="none" stroke="#000000" points="10.5,-95.7 10.5,-117.7 165.5,-117.7 165.5,-95.7 10.5,-95.7"/>
<text text-anchor="start" x="30.5" y="-102.8" font-family="Helvetica,sans-Serif" font-size="11.00" fill="#000000">instruction_text</text>
<polygon fill="none" stroke="#000000" points="165.5,-95.7 165.5,-117.7 259.5,-117.7 259.5,-95.7 165.5,-95.7"/>
<text text-anchor="start" x="168.5" y="-103.4" font-family="Helvetica,sans-Serif" font-size="11.00" fill="#000000">text[2147483647]</text>
<polygon fill="#ffffff" stroke="transparent" points="10.5,-76.7 10.5,-95.7 92.5,-95.7 92.5,-76.7 10.5,-76.7"/>
<polygon fill="none" stroke="#000000" points="10.5,-76.7 10.5,-95.7 92.5,-95.7 92.5,-76.7 10.5,-76.7"/>
<text text-anchor="start" x="13.5" y="-82.8" font-family="Helvetica,sans-Serif" font-size="11.00" fill="#000000">&lt; 0</text>
<polygon fill="#ffffff" stroke="transparent" points="92.5,-76.7 92.5,-95.7 165.5,-95.7 165.5,-76.7 92.5,-76.7"/>
<polygon fill="none" stroke="#000000" points="92.5,-76.7 92.5,-95.7 165.5,-95.7 165.5,-76.7 92.5,-76.7"/>
<text text-anchor="start" x="156.3862" y="-82.8" font-family="Helvetica,sans-Serif" font-size="11.00" fill="#000000"> &#160;</text>
<polygon fill="#ffffff" stroke="transparent" points="165.5,-76.7 165.5,-95.7 259.5,-95.7 259.5,-76.7 165.5,-76.7"/>
<polygon fill="none" stroke="#000000" points="165.5,-76.7 165.5,-95.7 259.5,-95.7 259.5,-76.7 165.5,-76.7"/>
<text text-anchor="start" x="240.9053" y="-82.8" font-family="Helvetica,sans-Serif" font-size="11.00" fill="#000000">3 &gt;</text>
<polygon fill="none" stroke="#000000" stroke-width="2" points="9,-75.7 9,-273.7 260,-273.7 260,-75.7 9,-75.7"/>
</a>
</g>
</g>
<!-- document_generation_request&#45;&gt;document_template -->
<g id="edge1" class="edge">
<title>document_generation_request:w&#45;&gt;document_template:e</title>
<path fill="none" stroke="#000000" d="M295.8154,-361.3298C262.1284,-341.2923 313.9387,-238.7 259.5,-238.7"/>
<polygon fill="#000000" stroke="#000000" points="302.2167,-362.8507 309.1678,-368.2025 306.1083,-363.7753 310,-364.7 310,-364.7 310,-364.7 306.1083,-363.7753 310.8322,-361.1975 302.2167,-362.8507 302.2167,-362.8507"/>
<ellipse fill="none" stroke="#000000" cx="299.1033" cy="-362.1109" rx="3.2" ry="3.2"/>
</g>
<!-- document_template_group -->
<g id="node3" class="node">
<title>document_template_group</title>
<g id="a_node3"><a xlink:href="../../tables/document_template_group.html" xlink:title="document_template_group" target="_top">
<polygon fill="#ffffff" stroke="transparent" points="322.5,-186.7 322.5,-294.7 541.5,-294.7 541.5,-186.7 322.5,-186.7"/>
<polygon fill="#f5f5f5" stroke="transparent" points="323,-271.7 323,-294.7 542,-294.7 542,-271.7 323,-271.7"/>
<polygon fill="none" stroke="#000000" points="323,-271.7 323,-294.7 542,-294.7 542,-271.7 323,-271.7"/>
<text text-anchor="start" x="328" y="-280.3" font-family="Helvetica,sans-Serif" font-weight="bold" font-size="11.00" fill="#000000">document_template_group</text>
<text text-anchor="start" x="507.5219" y="-279.8" font-family="Helvetica,sans-Serif" font-size="11.00" fill="#000000">[table]</text>
<polygon fill="none" stroke="#000000" points="323,-249.7 323,-271.7 542,-271.7 542,-249.7 323,-249.7"/>
<image xlink:href="../../images/primaryKeys.png" width="11px" height="12px" preserveAspectRatio="xMinYMin meet" x="328" y="-266.7"/>
<text text-anchor="start" x="352" y="-256.8" font-family="Helvetica,sans-Serif" font-size="11.00" fill="#000000">id</text>
<polygon fill="#ffffff" stroke="transparent" points="323,-227.7 323,-249.7 542,-249.7 542,-227.7 323,-227.7"/>
<polygon fill="none" stroke="#000000" points="323,-227.7 323,-249.7 542,-249.7 542,-227.7 323,-227.7"/>
<image xlink:href="../../images/foreignKeys.png" width="11px" height="12px" preserveAspectRatio="xMinYMin meet" x="328" y="-244.7"/>
<text text-anchor="start" x="352" y="-234.8" font-family="Helvetica,sans-Serif" font-size="11.00" fill="#000000">template_id</text>
<polygon fill="#ffffff" stroke="transparent" points="323,-205.7 323,-227.7 542,-227.7 542,-205.7 323,-205.7"/>
<polygon fill="none" stroke="#000000" points="323,-205.7 323,-227.7 542,-227.7 542,-205.7 323,-205.7"/>
<image xlink:href="../../images/foreignKeys.png" width="11px" height="12px" preserveAspectRatio="xMinYMin meet" x="328" y="-222.7"/>
<text text-anchor="start" x="352" y="-212.8" font-family="Helvetica,sans-Serif" font-size="11.00" fill="#000000">template_group_id</text>
<polygon fill="#ffffff" stroke="transparent" points="323,-186.7 323,-205.7 431,-205.7 431,-186.7 323,-186.7"/>
<polygon fill="none" stroke="#000000" points="323,-186.7 323,-205.7 431,-205.7 431,-186.7 323,-186.7"/>
<text text-anchor="start" x="326" y="-192.8" font-family="Helvetica,sans-Serif" font-size="11.00" fill="#000000">&lt; 2</text>
<polygon fill="#ffffff" stroke="transparent" points="431,-186.7 431,-205.7 486,-205.7 486,-186.7 431,-186.7"/>
<polygon fill="none" stroke="#000000" points="431,-186.7 431,-205.7 486,-205.7 486,-186.7 431,-186.7"/>
<text text-anchor="start" x="476.8862" y="-192.8" font-family="Helvetica,sans-Serif" font-size="11.00" fill="#000000"> &#160;</text>
<polygon fill="#ffffff" stroke="transparent" points="486,-186.7 486,-205.7 542,-205.7 542,-186.7 486,-186.7"/>
<polygon fill="none" stroke="#000000" points="486,-186.7 486,-205.7 542,-205.7 542,-186.7 486,-186.7"/>
<text text-anchor="start" x="532.8862" y="-192.8" font-family="Helvetica,sans-Serif" font-size="11.00" fill="#000000"> &#160;</text>
</a>
</g>
</g>
<!-- document_template_group&#45;&gt;document_template -->
<g id="edge2" class="edge">
<title>document_template_group:w&#45;&gt;document_template:e</title>
<path fill="none" stroke="#000000" d="M308.5705,-238.7C291.2143,-238.7 282.2101,-238.7 259.5,-238.7"/>
<polygon fill="#000000" stroke="#000000" points="315,-238.7001 323,-242.3 319,-238.7 323,-238.7 323,-238.7 323,-238.7 319,-238.7 323,-235.1 315,-238.7001 315,-238.7001"/>
<ellipse fill="none" stroke="#000000" cx="311.8" cy="-238.7001" rx="3.2" ry="3.2"/>
</g>
<!-- document_template_variable -->
<g id="node4" class="node">
<title>document_template_variable</title>
<g id="a_node4"><a xlink:href="../../tables/document_template_variable.html" xlink:title="document_template_variable" target="_top">
<polygon fill="#ffffff" stroke="transparent" points="315,-38.2 315,-165.2 549,-165.2 549,-38.2 315,-38.2"/>
<polygon fill="#f5f5f5" stroke="transparent" points="315,-141.7 315,-164.7 549,-164.7 549,-141.7 315,-141.7"/>
<polygon fill="none" stroke="#000000" points="315,-141.7 315,-164.7 549,-164.7 549,-141.7 315,-141.7"/>
<text text-anchor="start" x="320" y="-150.3" font-family="Helvetica,sans-Serif" font-weight="bold" font-size="11.00" fill="#000000">document_template_variable</text>
<text text-anchor="start" x="514.5219" y="-149.8" font-family="Helvetica,sans-Serif" font-size="11.00" fill="#000000">[table]</text>
<polygon fill="none" stroke="#000000" points="315,-119.7 315,-141.7 549,-141.7 549,-119.7 315,-119.7"/>
<image xlink:href="../../images/primaryKeys.png" width="11px" height="12px" preserveAspectRatio="xMinYMin meet" x="320" y="-136.7"/>
<text text-anchor="start" x="344" y="-126.8" font-family="Helvetica,sans-Serif" font-size="11.00" fill="#000000">id</text>
<polygon fill="#ffffff" stroke="transparent" points="315,-97.7 315,-119.7 549,-119.7 549,-97.7 315,-97.7"/>
<polygon fill="none" stroke="#000000" points="315,-97.7 315,-119.7 549,-119.7 549,-97.7 315,-97.7"/>
<image xlink:href="../../images/foreignKeys.png" width="11px" height="12px" preserveAspectRatio="xMinYMin meet" x="320" y="-114.7"/>
<text text-anchor="start" x="344" y="-104.8" font-family="Helvetica,sans-Serif" font-size="11.00" fill="#000000">template_id</text>
<polygon fill="#ffffff" stroke="transparent" points="315,-75.7 315,-97.7 549,-97.7 549,-75.7 315,-75.7"/>
<polygon fill="none" stroke="#000000" points="315,-75.7 315,-97.7 549,-97.7 549,-75.7 315,-75.7"/>
<image xlink:href="../../images/foreignKeys.png" width="11px" height="12px" preserveAspectRatio="xMinYMin meet" x="320" y="-92.7"/>
<text text-anchor="start" x="344" y="-82.8" font-family="Helvetica,sans-Serif" font-size="11.00" fill="#000000">variable_id</text>
<polygon fill="none" stroke="#000000" points="315,-56.7 315,-75.7 549,-75.7 549,-56.7 315,-56.7"/>
<text text-anchor="start" x="318" y="-62.8" font-family="Helvetica,sans-Serif" font-size="11.00" fill="#000000">...</text>
<polygon fill="#ffffff" stroke="transparent" points="315,-37.7 315,-56.7 430,-56.7 430,-37.7 315,-37.7"/>
<polygon fill="none" stroke="#000000" points="315,-37.7 315,-56.7 430,-56.7 430,-37.7 315,-37.7"/>
<text text-anchor="start" x="318" y="-43.8" font-family="Helvetica,sans-Serif" font-size="11.00" fill="#000000">&lt; 2</text>
<polygon fill="#ffffff" stroke="transparent" points="430,-37.7 430,-56.7 489,-56.7 489,-37.7 430,-37.7"/>
<polygon fill="none" stroke="#000000" points="430,-37.7 430,-56.7 489,-56.7 489,-37.7 430,-37.7"/>
<text text-anchor="start" x="479.8862" y="-43.8" font-family="Helvetica,sans-Serif" font-size="11.00" fill="#000000"> &#160;</text>
<polygon fill="#ffffff" stroke="transparent" points="489,-37.7 489,-56.7 549,-56.7 549,-37.7 489,-37.7"/>
<polygon fill="none" stroke="#000000" points="489,-37.7 489,-56.7 549,-56.7 549,-37.7 489,-37.7"/>
<text text-anchor="start" x="539.8862" y="-43.8" font-family="Helvetica,sans-Serif" font-size="11.00" fill="#000000"> &#160;</text>
</a>
</g>
</g>
<!-- document_template_variable&#45;&gt;document_template -->
<g id="edge3" class="edge">
<title>document_template_variable:w&#45;&gt;document_template:e</title>
<path fill="none" stroke="#000000" d="M300.6179,-111.9135C264.1608,-131.9324 316.4332,-238.7 259.5,-238.7"/>
<polygon fill="#000000" stroke="#000000" points="307.1925,-110.4445 315.785,-112.2134 311.0963,-109.5723 315,-108.7 315,-108.7 315,-108.7 311.0963,-109.5723 314.215,-105.1866 307.1925,-110.4445 307.1925,-110.4445"/>
<ellipse fill="none" stroke="#000000" cx="304.0695" cy="-111.1423" rx="3.2" ry="3.2"/>
</g>
</g>
</svg>
