<?xml version="1.0" encoding="UTF-8" standalone="no"?>
<!DOCTYPE svg PUBLIC "-//W3C//DTD SVG 1.1//EN"
 "http://www.w3.org/Graphics/SVG/1.1/DTD/svg11.dtd">
<!-- Generated by graphviz version 2.40.1 (20161225.0304)
 -->
<!-- Title: oneDegreeRelationshipsDiagramImplied Pages: 1 -->
<svg width="836pt" height="433pt"
 viewBox="0.00 0.00 836.00 433.20" xmlns="http://www.w3.org/2000/svg" xmlns:xlink="http://www.w3.org/1999/xlink">
<g id="graph0" class="graph" transform="scale(1 1) rotate(0) translate(4 429.2)">
<title>oneDegreeRelationshipsDiagramImplied</title>
<polygon fill="#ffffff" stroke="transparent" points="-4,4 -4,-429.2 832,-429.2 832,4 -4,4"/>
<text text-anchor="middle" x="72.4936" y="-7.3" font-family="Helvetica,sans-Serif" font-size="11.00" fill="#000000">Generated by SchemaSpy</text>
<!-- document_generation_request -->
<g id="node1" class="node">
<title>document_generation_request</title>
<g id="a_node1"><a xlink:href="../../tables/document_generation_request.html" xlink:title="document_generation_request" target="_top">
<polygon fill="#ffffff" stroke="transparent" points="576,-316.2 576,-421.2 820,-421.2 820,-316.2 576,-316.2"/>
<polygon fill="#f5f5f5" stroke="transparent" points="576,-397.7 576,-420.7 820,-420.7 820,-397.7 576,-397.7"/>
<polygon fill="none" stroke="#000000" points="576,-397.7 576,-420.7 820,-420.7 820,-397.7 576,-397.7"/>
<text text-anchor="start" x="581" y="-406.3" font-family="Helvetica,sans-Serif" font-weight="bold" font-size="11.00" fill="#000000">document_generation_request</text>
<text text-anchor="start" x="785.5219" y="-405.8" font-family="Helvetica,sans-Serif" font-size="11.00" fill="#000000">[table]</text>
<polygon fill="none" stroke="#000000" points="576,-375.7 576,-397.7 820,-397.7 820,-375.7 576,-375.7"/>
<image xlink:href="../../images/primaryKeys.png" width="11px" height="12px" preserveAspectRatio="xMinYMin meet" x="581" y="-392.7"/>
<text text-anchor="start" x="605" y="-382.8" font-family="Helvetica,sans-Serif" font-size="11.00" fill="#000000">id</text>
<polygon fill="none" stroke="#000000" points="576,-353.7 576,-375.7 820,-375.7 820,-353.7 576,-353.7"/>
<image xlink:href="../../images/foreignKeys.png" width="11px" height="12px" preserveAspectRatio="xMinYMin meet" x="581" y="-370.7"/>
<text text-anchor="start" x="605" y="-360.8" font-family="Helvetica,sans-Serif" font-size="11.00" fill="#000000">template_id</text>
<polygon fill="none" stroke="#000000" points="576,-334.7 576,-353.7 820,-353.7 820,-334.7 576,-334.7"/>
<text text-anchor="start" x="579" y="-340.8" font-family="Helvetica,sans-Serif" font-size="11.00" fill="#000000">...</text>
<polygon fill="#ffffff" stroke="transparent" points="576,-315.7 576,-334.7 696,-334.7 696,-315.7 576,-315.7"/>
<polygon fill="none" stroke="#000000" points="576,-315.7 576,-334.7 696,-334.7 696,-315.7 576,-315.7"/>
<text text-anchor="start" x="579" y="-321.8" font-family="Helvetica,sans-Serif" font-size="11.00" fill="#000000">&lt; 1</text>
<polygon fill="#ffffff" stroke="transparent" points="696,-315.7 696,-334.7 758,-334.7 758,-315.7 696,-315.7"/>
<polygon fill="none" stroke="#000000" points="696,-315.7 696,-334.7 758,-334.7 758,-315.7 696,-315.7"/>
<text text-anchor="start" x="748.8862" y="-321.8" font-family="Helvetica,sans-Serif" font-size="11.00" fill="#000000"> &#160;</text>
<polygon fill="#ffffff" stroke="transparent" points="758,-315.7 758,-334.7 820,-334.7 820,-315.7 758,-315.7"/>
<polygon fill="none" stroke="#000000" points="758,-315.7 758,-334.7 820,-334.7 820,-315.7 758,-315.7"/>
<text text-anchor="start" x="810.8862" y="-321.8" font-family="Helvetica,sans-Serif" font-size="11.00" fill="#000000"> &#160;</text>
</a>
</g>
</g>
<!-- document_template -->
<g id="node2" class="node">
<title>document_template</title>
<g id="a_node2"><a xlink:href="../../tables/document_template.html" xlink:title="document_template" target="_top">
<polygon fill="#ffffff" stroke="transparent" points="274,-74.7 274,-274.7 527,-274.7 527,-74.7 274,-74.7"/>
<polygon fill="#f5f5f5" stroke="transparent" points="276.5,-249.7 276.5,-272.7 525.5,-272.7 525.5,-249.7 276.5,-249.7"/>
<polygon fill="none" stroke="#000000" points="276.5,-249.7 276.5,-272.7 525.5,-272.7 525.5,-249.7 276.5,-249.7"/>
<text text-anchor="start" x="281.5" y="-258.3" font-family="Helvetica,sans-Serif" font-weight="bold" font-size="11.00" fill="#000000">document_template</text>
<text text-anchor="start" x="490.5437" y="-257.8" font-family="Helvetica,sans-Serif" font-size="11.00" fill="#000000">[table]</text>
<polygon fill="none" stroke="#000000" points="276.5,-227.7 276.5,-249.7 431.5,-249.7 431.5,-227.7 276.5,-227.7"/>
<image xlink:href="../../images/primaryKeys.png" width="11px" height="12px" preserveAspectRatio="xMinYMin meet" x="281.5" y="-244.7"/>
<text text-anchor="start" x="296.5" y="-234.8" font-family="Helvetica,sans-Serif" font-size="11.00" fill="#000000">id</text>
<polygon fill="none" stroke="#000000" points="431.5,-227.7 431.5,-249.7 525.5,-249.7 525.5,-227.7 431.5,-227.7"/>
<text text-anchor="start" x="434.4758" y="-235.4" font-family="Helvetica,sans-Serif" font-size="11.00" fill="#000000">uuid[2147483647]</text>
<polygon fill="#ffffff" stroke="transparent" points="276.5,-205.7 276.5,-227.7 431.5,-227.7 431.5,-205.7 276.5,-205.7"/>
<polygon fill="none" stroke="#000000" points="276.5,-205.7 276.5,-227.7 431.5,-227.7 431.5,-205.7 276.5,-205.7"/>
<image xlink:href="../../images/foreignKeys.png" width="11px" height="12px" preserveAspectRatio="xMinYMin meet" x="281.5" y="-222.7"/>
<text text-anchor="start" x="296.5" y="-212.8" font-family="Helvetica,sans-Serif" font-size="11.00" fill="#000000">code</text>
<polygon fill="none" stroke="#000000" points="431.5,-205.7 431.5,-227.7 525.5,-227.7 525.5,-205.7 431.5,-205.7"/>
<text text-anchor="start" x="434.5" y="-213.4" font-family="Helvetica,sans-Serif" font-size="11.00" fill="#000000">text[2147483647]</text>
<polygon fill="none" stroke="#000000" points="276.5,-183.7 276.5,-205.7 431.5,-205.7 431.5,-183.7 276.5,-183.7"/>
<text text-anchor="start" x="296.5" y="-190.8" font-family="Helvetica,sans-Serif" font-size="11.00" fill="#000000">name</text>
<polygon fill="none" stroke="#000000" points="431.5,-183.7 431.5,-205.7 525.5,-205.7 525.5,-183.7 431.5,-183.7"/>
<text text-anchor="start" x="434.5" y="-191.4" font-family="Helvetica,sans-Serif" font-size="11.00" fill="#000000">text[2147483647]</text>
<polygon fill="none" stroke="#000000" points="276.5,-161.7 276.5,-183.7 431.5,-183.7 431.5,-161.7 276.5,-161.7"/>
<text text-anchor="start" x="296.5" y="-168.8" font-family="Helvetica,sans-Serif" font-size="11.00" fill="#000000">description</text>
<polygon fill="none" stroke="#000000" points="431.5,-161.7 431.5,-183.7 525.5,-183.7 525.5,-161.7 431.5,-161.7"/>
<text text-anchor="start" x="434.5" y="-169.4" font-family="Helvetica,sans-Serif" font-size="11.00" fill="#000000">text[2147483647]</text>
<polygon fill="none" stroke="#000000" points="276.5,-139.7 276.5,-161.7 431.5,-161.7 431.5,-139.7 276.5,-139.7"/>
<text text-anchor="start" x="296.5" y="-146.8" font-family="Helvetica,sans-Serif" font-size="11.00" fill="#000000">version</text>
<polygon fill="none" stroke="#000000" points="431.5,-139.7 431.5,-161.7 525.5,-161.7 525.5,-139.7 431.5,-139.7"/>
<text text-anchor="start" x="434.5" y="-147.4" font-family="Helvetica,sans-Serif" font-size="11.00" fill="#000000">int4[10]</text>
<polygon fill="#ffffff" stroke="transparent" points="276.5,-117.7 276.5,-139.7 431.5,-139.7 431.5,-117.7 276.5,-117.7"/>
<polygon fill="none" stroke="#000000" points="276.5,-117.7 276.5,-139.7 431.5,-139.7 431.5,-117.7 276.5,-117.7"/>
<text text-anchor="start" x="296.5" y="-124.8" font-family="Helvetica,sans-Serif" font-size="11.00" fill="#000000">external_reference</text>
<polygon fill="none" stroke="#000000" points="431.5,-117.7 431.5,-139.7 525.5,-139.7 525.5,-117.7 431.5,-117.7"/>
<text text-anchor="start" x="434.4758" y="-125.4" font-family="Helvetica,sans-Serif" font-size="11.00" fill="#000000">uuid[2147483647]</text>
<polygon fill="none" stroke="#000000" points="276.5,-95.7 276.5,-117.7 431.5,-117.7 431.5,-95.7 276.5,-95.7"/>
<text text-anchor="start" x="296.5" y="-102.8" font-family="Helvetica,sans-Serif" font-size="11.00" fill="#000000">instruction_text</text>
<polygon fill="none" stroke="#000000" points="431.5,-95.7 431.5,-117.7 525.5,-117.7 525.5,-95.7 431.5,-95.7"/>
<text text-anchor="start" x="434.5" y="-103.4" font-family="Helvetica,sans-Serif" font-size="11.00" fill="#000000">text[2147483647]</text>
<polygon fill="#ffffff" stroke="transparent" points="276.5,-76.7 276.5,-95.7 358.5,-95.7 358.5,-76.7 276.5,-76.7"/>
<polygon fill="none" stroke="#000000" points="276.5,-76.7 276.5,-95.7 358.5,-95.7 358.5,-76.7 276.5,-76.7"/>
<text text-anchor="start" x="279.5" y="-82.8" font-family="Helvetica,sans-Serif" font-size="11.00" fill="#000000">&lt; 1</text>
<polygon fill="#ffffff" stroke="transparent" points="358.5,-76.7 358.5,-95.7 431.5,-95.7 431.5,-76.7 358.5,-76.7"/>
<polygon fill="none" stroke="#000000" points="358.5,-76.7 358.5,-95.7 431.5,-95.7 431.5,-76.7 358.5,-76.7"/>
<text text-anchor="start" x="422.3862" y="-82.8" font-family="Helvetica,sans-Serif" font-size="11.00" fill="#000000"> &#160;</text>
<polygon fill="#ffffff" stroke="transparent" points="431.5,-76.7 431.5,-95.7 525.5,-95.7 525.5,-76.7 431.5,-76.7"/>
<polygon fill="none" stroke="#000000" points="431.5,-76.7 431.5,-95.7 525.5,-95.7 525.5,-76.7 431.5,-76.7"/>
<text text-anchor="start" x="506.9053" y="-82.8" font-family="Helvetica,sans-Serif" font-size="11.00" fill="#000000">3 &gt;</text>
<polygon fill="none" stroke="#000000" stroke-width="2" points="275,-75.7 275,-273.7 526,-273.7 526,-75.7 275,-75.7"/>
</a>
</g>
</g>
<!-- document_generation_request&#45;&gt;document_template -->
<g id="edge1" class="edge">
<title>document_generation_request:w&#45;&gt;document_template:e</title>
<path fill="none" stroke="#000000" d="M561.8154,-361.3298C528.1284,-341.2923 579.9387,-238.7 525.5,-238.7"/>
<polygon fill="#000000" stroke="#000000" points="568.2167,-362.8507 575.1678,-368.2025 572.1083,-363.7753 576,-364.7 576,-364.7 576,-364.7 572.1083,-363.7753 576.8322,-361.1975 568.2167,-362.8507 568.2167,-362.8507"/>
<ellipse fill="none" stroke="#000000" cx="565.1033" cy="-362.1109" rx="3.2" ry="3.2"/>
</g>
<!-- template_variable_domain -->
<g id="node3" class="node">
<title>template_variable_domain</title>
<g id="a_node3"><a xlink:href="../../tables/template_variable_domain.html" xlink:title="template_variable_domain" target="_top">
<polygon fill="#ffffff" stroke="transparent" points="8,-146.2 8,-251.2 225,-251.2 225,-146.2 8,-146.2"/>
<polygon fill="#f5f5f5" stroke="transparent" points="8.5,-227.7 8.5,-250.7 225.5,-250.7 225.5,-227.7 8.5,-227.7"/>
<polygon fill="none" stroke="#000000" points="8.5,-227.7 8.5,-250.7 225.5,-250.7 225.5,-227.7 8.5,-227.7"/>
<text text-anchor="start" x="13.5" y="-236.3" font-family="Helvetica,sans-Serif" font-weight="bold" font-size="11.00" fill="#000000">template_variable_domain</text>
<text text-anchor="start" x="191.0219" y="-235.8" font-family="Helvetica,sans-Serif" font-size="11.00" fill="#000000">[table]</text>
<polygon fill="none" stroke="#000000" points="8.5,-205.7 8.5,-227.7 225.5,-227.7 225.5,-205.7 8.5,-205.7"/>
<image xlink:href="../../images/primaryKeys.png" width="11px" height="12px" preserveAspectRatio="xMinYMin meet" x="13.5" y="-222.7"/>
<text text-anchor="start" x="37.5" y="-212.8" font-family="Helvetica,sans-Serif" font-size="11.00" fill="#000000">code</text>
<polygon fill="#ffffff" stroke="transparent" points="8.5,-183.7 8.5,-205.7 225.5,-205.7 225.5,-183.7 8.5,-183.7"/>
<polygon fill="none" stroke="#000000" points="8.5,-183.7 8.5,-205.7 225.5,-205.7 225.5,-183.7 8.5,-183.7"/>
<text text-anchor="start" x="37.5" y="-190.8" font-family="Helvetica,sans-Serif" font-size="11.00" fill="#000000">sequence_number</text>
<polygon fill="none" stroke="#000000" points="8.5,-164.7 8.5,-183.7 225.5,-183.7 225.5,-164.7 8.5,-164.7"/>
<text text-anchor="start" x="11.5" y="-170.8" font-family="Helvetica,sans-Serif" font-size="11.00" fill="#000000">...</text>
<polygon fill="#ffffff" stroke="transparent" points="8.5,-145.7 8.5,-164.7 106.5,-164.7 106.5,-145.7 8.5,-145.7"/>
<polygon fill="none" stroke="#000000" points="8.5,-145.7 8.5,-164.7 106.5,-164.7 106.5,-145.7 8.5,-145.7"/>
<text text-anchor="start" x="11.5" y="-151.8" font-family="Helvetica,sans-Serif" font-size="11.00" fill="#000000"> &#160;</text>
<polygon fill="#ffffff" stroke="transparent" points="106.5,-145.7 106.5,-164.7 161.5,-164.7 161.5,-145.7 106.5,-145.7"/>
<polygon fill="none" stroke="#000000" points="106.5,-145.7 106.5,-164.7 161.5,-164.7 161.5,-145.7 106.5,-145.7"/>
<text text-anchor="start" x="152.3862" y="-151.8" font-family="Helvetica,sans-Serif" font-size="11.00" fill="#000000"> &#160;</text>
<polygon fill="#ffffff" stroke="transparent" points="161.5,-145.7 161.5,-164.7 225.5,-164.7 225.5,-145.7 161.5,-145.7"/>
<polygon fill="none" stroke="#000000" points="161.5,-145.7 161.5,-164.7 225.5,-164.7 225.5,-145.7 161.5,-145.7"/>
<text text-anchor="start" x="206.9053" y="-151.8" font-family="Helvetica,sans-Serif" font-size="11.00" fill="#000000">4 &gt;</text>
</a>
</g>
</g>
<!-- document_template&#45;&gt;template_variable_domain -->
<g id="edge2" class="edge">
<title>document_template:w&#45;&gt;template_variable_domain:e</title>
<path fill="none" stroke="#000000" stroke-dasharray="5,2" d="M265.7307,-216.7C251.248,-216.7 244.0938,-216.7 225.5,-216.7"/>
<polygon fill="#000000" stroke="#000000" points="275.7,-212.7 275.7,-220.7 274.1,-220.7 274.1,-212.7 275.7,-212.7"/>
<polyline fill="none" stroke="#000000" points="276.5,-216.7 272.5,-216.7 "/>
<ellipse fill="none" stroke="#000000" cx="269.3" cy="-216.7001" rx="3.2" ry="3.2"/>
</g>
<!-- document_template_group -->
<g id="node4" class="node">
<title>document_template_group</title>
<g id="a_node4"><a xlink:href="../../tables/document_template_group.html" xlink:title="document_template_group" target="_top">
<polygon fill="#ffffff" stroke="transparent" points="588.5,-186.7 588.5,-294.7 807.5,-294.7 807.5,-186.7 588.5,-186.7"/>
<polygon fill="#f5f5f5" stroke="transparent" points="589,-271.7 589,-294.7 808,-294.7 808,-271.7 589,-271.7"/>
<polygon fill="none" stroke="#000000" points="589,-271.7 589,-294.7 808,-294.7 808,-271.7 589,-271.7"/>
<text text-anchor="start" x="594" y="-280.3" font-family="Helvetica,sans-Serif" font-weight="bold" font-size="11.00" fill="#000000">document_template_group</text>
<text text-anchor="start" x="773.5219" y="-279.8" font-family="Helvetica,sans-Serif" font-size="11.00" fill="#000000">[table]</text>
<polygon fill="none" stroke="#000000" points="589,-249.7 589,-271.7 808,-271.7 808,-249.7 589,-249.7"/>
<image xlink:href="../../images/primaryKeys.png" width="11px" height="12px" preserveAspectRatio="xMinYMin meet" x="594" y="-266.7"/>
<text text-anchor="start" x="618" y="-256.8" font-family="Helvetica,sans-Serif" font-size="11.00" fill="#000000">id</text>
<polygon fill="#ffffff" stroke="transparent" points="589,-227.7 589,-249.7 808,-249.7 808,-227.7 589,-227.7"/>
<polygon fill="none" stroke="#000000" points="589,-227.7 589,-249.7 808,-249.7 808,-227.7 589,-227.7"/>
<image xlink:href="../../images/foreignKeys.png" width="11px" height="12px" preserveAspectRatio="xMinYMin meet" x="594" y="-244.7"/>
<text text-anchor="start" x="618" y="-234.8" font-family="Helvetica,sans-Serif" font-size="11.00" fill="#000000">template_id</text>
<polygon fill="#ffffff" stroke="transparent" points="589,-205.7 589,-227.7 808,-227.7 808,-205.7 589,-205.7"/>
<polygon fill="none" stroke="#000000" points="589,-205.7 589,-227.7 808,-227.7 808,-205.7 589,-205.7"/>
<image xlink:href="../../images/foreignKeys.png" width="11px" height="12px" preserveAspectRatio="xMinYMin meet" x="594" y="-222.7"/>
<text text-anchor="start" x="618" y="-212.8" font-family="Helvetica,sans-Serif" font-size="11.00" fill="#000000">template_group_id</text>
<polygon fill="#ffffff" stroke="transparent" points="589,-186.7 589,-205.7 697,-205.7 697,-186.7 589,-186.7"/>
<polygon fill="none" stroke="#000000" points="589,-186.7 589,-205.7 697,-205.7 697,-186.7 589,-186.7"/>
<text text-anchor="start" x="592" y="-192.8" font-family="Helvetica,sans-Serif" font-size="11.00" fill="#000000">&lt; 2</text>
<polygon fill="#ffffff" stroke="transparent" points="697,-186.7 697,-205.7 752,-205.7 752,-186.7 697,-186.7"/>
<polygon fill="none" stroke="#000000" points="697,-186.7 697,-205.7 752,-205.7 752,-186.7 697,-186.7"/>
<text text-anchor="start" x="742.8862" y="-192.8" font-family="Helvetica,sans-Serif" font-size="11.00" fill="#000000"> &#160;</text>
<polygon fill="#ffffff" stroke="transparent" points="752,-186.7 752,-205.7 808,-205.7 808,-186.7 752,-186.7"/>
<polygon fill="none" stroke="#000000" points="752,-186.7 752,-205.7 808,-205.7 808,-186.7 752,-186.7"/>
<text text-anchor="start" x="798.8862" y="-192.8" font-family="Helvetica,sans-Serif" font-size="11.00" fill="#000000"> &#160;</text>
</a>
</g>
</g>
<!-- document_template_group&#45;&gt;document_template -->
<g id="edge3" class="edge">
<title>document_template_group:w&#45;&gt;document_template:e</title>
<path fill="none" stroke="#000000" d="M574.5705,-238.7C557.2143,-238.7 548.2101,-238.7 525.5,-238.7"/>
<polygon fill="#000000" stroke="#000000" points="581,-238.7001 589,-242.3 585,-238.7 589,-238.7 589,-238.7 589,-238.7 585,-238.7 589,-235.1 581,-238.7001 581,-238.7001"/>
<ellipse fill="none" stroke="#000000" cx="577.8" cy="-238.7001" rx="3.2" ry="3.2"/>
</g>
<!-- document_template_variable -->
<g id="node5" class="node">
<title>document_template_variable</title>
<g id="a_node5"><a xlink:href="../../tables/document_template_variable.html" xlink:title="document_template_variable" target="_top">
<polygon fill="#ffffff" stroke="transparent" points="581,-38.2 581,-165.2 815,-165.2 815,-38.2 581,-38.2"/>
<polygon fill="#f5f5f5" stroke="transparent" points="581,-141.7 581,-164.7 815,-164.7 815,-141.7 581,-141.7"/>
<polygon fill="none" stroke="#000000" points="581,-141.7 581,-164.7 815,-164.7 815,-141.7 581,-141.7"/>
<text text-anchor="start" x="586" y="-150.3" font-family="Helvetica,sans-Serif" font-weight="bold" font-size="11.00" fill="#000000">document_template_variable</text>
<text text-anchor="start" x="780.5219" y="-149.8" font-family="Helvetica,sans-Serif" font-size="11.00" fill="#000000">[table]</text>
<polygon fill="none" stroke="#000000" points="581,-119.7 581,-141.7 815,-141.7 815,-119.7 581,-119.7"/>
<image xlink:href="../../images/primaryKeys.png" width="11px" height="12px" preserveAspectRatio="xMinYMin meet" x="586" y="-136.7"/>
<text text-anchor="start" x="610" y="-126.8" font-family="Helvetica,sans-Serif" font-size="11.00" fill="#000000">id</text>
<polygon fill="#ffffff" stroke="transparent" points="581,-97.7 581,-119.7 815,-119.7 815,-97.7 581,-97.7"/>
<polygon fill="none" stroke="#000000" points="581,-97.7 581,-119.7 815,-119.7 815,-97.7 581,-97.7"/>
<image xlink:href="../../images/foreignKeys.png" width="11px" height="12px" preserveAspectRatio="xMinYMin meet" x="586" y="-114.7"/>
<text text-anchor="start" x="610" y="-104.8" font-family="Helvetica,sans-Serif" font-size="11.00" fill="#000000">template_id</text>
<polygon fill="#ffffff" stroke="transparent" points="581,-75.7 581,-97.7 815,-97.7 815,-75.7 581,-75.7"/>
<polygon fill="none" stroke="#000000" points="581,-75.7 581,-97.7 815,-97.7 815,-75.7 581,-75.7"/>
<image xlink:href="../../images/foreignKeys.png" width="11px" height="12px" preserveAspectRatio="xMinYMin meet" x="586" y="-92.7"/>
<text text-anchor="start" x="610" y="-82.8" font-family="Helvetica,sans-Serif" font-size="11.00" fill="#000000">variable_id</text>
<polygon fill="none" stroke="#000000" points="581,-56.7 581,-75.7 815,-75.7 815,-56.7 581,-56.7"/>
<text text-anchor="start" x="584" y="-62.8" font-family="Helvetica,sans-Serif" font-size="11.00" fill="#000000">...</text>
<polygon fill="#ffffff" stroke="transparent" points="581,-37.7 581,-56.7 696,-56.7 696,-37.7 581,-37.7"/>
<polygon fill="none" stroke="#000000" points="581,-37.7 581,-56.7 696,-56.7 696,-37.7 581,-37.7"/>
<text text-anchor="start" x="584" y="-43.8" font-family="Helvetica,sans-Serif" font-size="11.00" fill="#000000">&lt; 2</text>
<polygon fill="#ffffff" stroke="transparent" points="696,-37.7 696,-56.7 755,-56.7 755,-37.7 696,-37.7"/>
<polygon fill="none" stroke="#000000" points="696,-37.7 696,-56.7 755,-56.7 755,-37.7 696,-37.7"/>
<text text-anchor="start" x="745.8862" y="-43.8" font-family="Helvetica,sans-Serif" font-size="11.00" fill="#000000"> &#160;</text>
<polygon fill="#ffffff" stroke="transparent" points="755,-37.7 755,-56.7 815,-56.7 815,-37.7 755,-37.7"/>
<polygon fill="none" stroke="#000000" points="755,-37.7 755,-56.7 815,-56.7 815,-37.7 755,-37.7"/>
<text text-anchor="start" x="805.8862" y="-43.8" font-family="Helvetica,sans-Serif" font-size="11.00" fill="#000000"> &#160;</text>
</a>
</g>
</g>
<!-- document_template_variable&#45;&gt;document_template -->
<g id="edge4" class="edge">
<title>document_template_variable:w&#45;&gt;document_template:e</title>
<path fill="none" stroke="#000000" d="M566.6179,-111.9135C530.1608,-131.9324 582.4332,-238.7 525.5,-238.7"/>
<polygon fill="#000000" stroke="#000000" points="573.1925,-110.4445 581.785,-112.2134 577.0963,-109.5723 581,-108.7 581,-108.7 581,-108.7 577.0963,-109.5723 580.215,-105.1866 573.1925,-110.4445 573.1925,-110.4445"/>
<ellipse fill="none" stroke="#000000" cx="570.0695" cy="-111.1423" rx="3.2" ry="3.2"/>
</g>
</g>
</svg>
