<?xml version="1.0" encoding="UTF-8" standalone="no"?>
<!DOCTYPE svg PUBLIC "-//W3C//DTD SVG 1.1//EN"
 "http://www.w3.org/Graphics/SVG/1.1/DTD/svg11.dtd">
<!-- Generated by graphviz version 2.40.1 (20161225.0304)
 -->
<!-- Title: twoDegreesRelationshipsDiagram Pages: 1 -->
<svg width="545pt" height="303pt"
 viewBox="0.00 0.00 545.00 303.20" xmlns="http://www.w3.org/2000/svg" xmlns:xlink="http://www.w3.org/1999/xlink">
<g id="graph0" class="graph" transform="scale(1 1) rotate(0) translate(4 299.2)">
<title>twoDegreesRelationshipsDiagram</title>
<polygon fill="#ffffff" stroke="transparent" points="-4,4 -4,-299.2 541,-299.2 541,4 -4,4"/>
<text text-anchor="middle" x="72.4936" y="-7.3" font-family="Helvetica,sans-Serif" font-size="11.00" fill="#000000">Generated by SchemaSpy</text>
<!-- document_template_group -->
<g id="node1" class="node">
<title>document_template_group</title>
<g id="a_node1"><a xlink:href="../../tables/document_template_group.html" xlink:title="document_template_group" target="_top">
<polygon fill="#ffffff" stroke="transparent" points="230,-86.7 230,-198.7 529,-198.7 529,-86.7 230,-86.7"/>
<polygon fill="#f5f5f5" stroke="transparent" points="232.5,-173.7 232.5,-196.7 527.5,-196.7 527.5,-173.7 232.5,-173.7"/>
<polygon fill="none" stroke="#000000" points="232.5,-173.7 232.5,-196.7 527.5,-196.7 527.5,-173.7 232.5,-173.7"/>
<text text-anchor="start" x="237.5" y="-182.3" font-family="Helvetica,sans-Serif" font-weight="bold" font-size="11.00" fill="#000000">document_template_group</text>
<text text-anchor="start" x="492.5437" y="-181.8" font-family="Helvetica,sans-Serif" font-size="11.00" fill="#000000">[table]</text>
<polygon fill="none" stroke="#000000" points="232.5,-151.7 232.5,-173.7 433.5,-173.7 433.5,-151.7 232.5,-151.7"/>
<image xlink:href="../../images/primaryKeys.png" width="11px" height="12px" preserveAspectRatio="xMinYMin meet" x="237.5" y="-168.7"/>
<text text-anchor="start" x="252.5" y="-158.8" font-family="Helvetica,sans-Serif" font-size="11.00" fill="#000000">id</text>
<polygon fill="none" stroke="#000000" points="433.5,-151.7 433.5,-173.7 527.5,-173.7 527.5,-151.7 433.5,-151.7"/>
<text text-anchor="start" x="436.4758" y="-159.4" font-family="Helvetica,sans-Serif" font-size="11.00" fill="#000000">uuid[2147483647]</text>
<polygon fill="#ffffff" stroke="transparent" points="232.5,-129.7 232.5,-151.7 433.5,-151.7 433.5,-129.7 232.5,-129.7"/>
<polygon fill="none" stroke="#000000" points="232.5,-129.7 232.5,-151.7 433.5,-151.7 433.5,-129.7 232.5,-129.7"/>
<image xlink:href="../../images/foreignKeys.png" width="11px" height="12px" preserveAspectRatio="xMinYMin meet" x="237.5" y="-146.7"/>
<text text-anchor="start" x="252.5" y="-136.8" font-family="Helvetica,sans-Serif" font-size="11.00" fill="#000000">template_id</text>
<polygon fill="none" stroke="#000000" points="433.5,-129.7 433.5,-151.7 527.5,-151.7 527.5,-129.7 433.5,-129.7"/>
<text text-anchor="start" x="436.4758" y="-137.4" font-family="Helvetica,sans-Serif" font-size="11.00" fill="#000000">uuid[2147483647]</text>
<polygon fill="#ffffff" stroke="transparent" points="232.5,-107.7 232.5,-129.7 433.5,-129.7 433.5,-107.7 232.5,-107.7"/>
<polygon fill="none" stroke="#000000" points="232.5,-107.7 232.5,-129.7 433.5,-129.7 433.5,-107.7 232.5,-107.7"/>
<image xlink:href="../../images/foreignKeys.png" width="11px" height="12px" preserveAspectRatio="xMinYMin meet" x="237.5" y="-124.7"/>
<text text-anchor="start" x="252.5" y="-114.8" font-family="Helvetica,sans-Serif" font-size="11.00" fill="#000000">template_group_id</text>
<polygon fill="none" stroke="#000000" points="433.5,-107.7 433.5,-129.7 527.5,-129.7 527.5,-107.7 433.5,-107.7"/>
<text text-anchor="start" x="436.4758" y="-115.4" font-family="Helvetica,sans-Serif" font-size="11.00" fill="#000000">uuid[2147483647]</text>
<polygon fill="#ffffff" stroke="transparent" points="232.5,-88.7 232.5,-107.7 337.5,-107.7 337.5,-88.7 232.5,-88.7"/>
<polygon fill="none" stroke="#000000" points="232.5,-88.7 232.5,-107.7 337.5,-107.7 337.5,-88.7 232.5,-88.7"/>
<text text-anchor="start" x="235.5" y="-94.8" font-family="Helvetica,sans-Serif" font-size="11.00" fill="#000000">&lt; 2</text>
<polygon fill="#ffffff" stroke="transparent" points="337.5,-88.7 337.5,-107.7 433.5,-107.7 433.5,-88.7 337.5,-88.7"/>
<polygon fill="none" stroke="#000000" points="337.5,-88.7 337.5,-107.7 433.5,-107.7 433.5,-88.7 337.5,-88.7"/>
<text text-anchor="start" x="424.3862" y="-94.8" font-family="Helvetica,sans-Serif" font-size="11.00" fill="#000000"> &#160;</text>
<polygon fill="#ffffff" stroke="transparent" points="433.5,-88.7 433.5,-107.7 527.5,-107.7 527.5,-88.7 433.5,-88.7"/>
<polygon fill="none" stroke="#000000" points="433.5,-88.7 433.5,-107.7 527.5,-107.7 527.5,-88.7 433.5,-88.7"/>
<text text-anchor="start" x="508.9053" y="-94.8" font-family="Helvetica,sans-Serif" font-size="11.00" fill="#000000">0 &gt;</text>
<polygon fill="none" stroke="#000000" stroke-width="2" points="231,-87.7 231,-197.7 528,-197.7 528,-87.7 231,-87.7"/>
</a>
</g>
</g>
<!-- template_group -->
<g id="node2" class="node">
<title>template_group</title>
<g id="a_node2"><a xlink:href="../../tables/template_group.html" xlink:title="template_group" target="_top">
<polygon fill="#ffffff" stroke="transparent" points="22,-38.2 22,-143.2 167,-143.2 167,-38.2 22,-38.2"/>
<polygon fill="#f5f5f5" stroke="transparent" points="22.5,-119.7 22.5,-142.7 167.5,-142.7 167.5,-119.7 22.5,-119.7"/>
<polygon fill="none" stroke="#000000" points="22.5,-119.7 22.5,-142.7 167.5,-142.7 167.5,-119.7 22.5,-119.7"/>
<text text-anchor="start" x="27.5" y="-128.3" font-family="Helvetica,sans-Serif" font-weight="bold" font-size="11.00" fill="#000000">template_group</text>
<text text-anchor="start" x="133.0219" y="-127.8" font-family="Helvetica,sans-Serif" font-size="11.00" fill="#000000">[table]</text>
<polygon fill="none" stroke="#000000" points="22.5,-97.7 22.5,-119.7 167.5,-119.7 167.5,-97.7 22.5,-97.7"/>
<image xlink:href="../../images/primaryKeys.png" width="11px" height="12px" preserveAspectRatio="xMinYMin meet" x="27.5" y="-114.7"/>
<text text-anchor="start" x="51.5" y="-104.8" font-family="Helvetica,sans-Serif" font-size="11.00" fill="#000000">id</text>
<polygon fill="#ffffff" stroke="transparent" points="22.5,-75.7 22.5,-97.7 167.5,-97.7 167.5,-75.7 22.5,-75.7"/>
<polygon fill="none" stroke="#000000" points="22.5,-75.7 22.5,-97.7 167.5,-97.7 167.5,-75.7 22.5,-75.7"/>
<image xlink:href="../../images/foreignKeys.png" width="11px" height="12px" preserveAspectRatio="xMinYMin meet" x="27.5" y="-92.7"/>
<text text-anchor="start" x="51.5" y="-82.8" font-family="Helvetica,sans-Serif" font-size="11.00" fill="#000000">code</text>
<polygon fill="none" stroke="#000000" points="22.5,-56.7 22.5,-75.7 167.5,-75.7 167.5,-56.7 22.5,-56.7"/>
<text text-anchor="start" x="25.5" y="-62.8" font-family="Helvetica,sans-Serif" font-size="11.00" fill="#000000">...</text>
<polygon fill="#ffffff" stroke="transparent" points="22.5,-37.7 22.5,-56.7 84.5,-56.7 84.5,-37.7 22.5,-37.7"/>
<polygon fill="none" stroke="#000000" points="22.5,-37.7 22.5,-56.7 84.5,-56.7 84.5,-37.7 22.5,-37.7"/>
<text text-anchor="start" x="25.5" y="-43.8" font-family="Helvetica,sans-Serif" font-size="11.00" fill="#000000"> &#160;</text>
<polygon fill="#ffffff" stroke="transparent" points="84.5,-37.7 84.5,-56.7 121.5,-56.7 121.5,-37.7 84.5,-37.7"/>
<polygon fill="none" stroke="#000000" points="84.5,-37.7 84.5,-56.7 121.5,-56.7 121.5,-37.7 84.5,-37.7"/>
<text text-anchor="start" x="112.3862" y="-43.8" font-family="Helvetica,sans-Serif" font-size="11.00" fill="#000000"> &#160;</text>
<polygon fill="#ffffff" stroke="transparent" points="121.5,-37.7 121.5,-56.7 167.5,-56.7 167.5,-37.7 121.5,-37.7"/>
<polygon fill="none" stroke="#000000" points="121.5,-37.7 121.5,-56.7 167.5,-56.7 167.5,-37.7 121.5,-37.7"/>
<text text-anchor="start" x="148.9053" y="-43.8" font-family="Helvetica,sans-Serif" font-size="11.00" fill="#000000">1 &gt;</text>
</a>
</g>
</g>
<!-- document_template_group&#45;&gt;template_group -->
<g id="edge1" class="edge">
<title>document_template_group:w&#45;&gt;template_group:e</title>
<path fill="none" stroke="#000000" d="M217.8916,-117.7412C199.9356,-115.2382 191.1342,-108.7 167.5,-108.7"/>
<polygon fill="#000000" stroke="#000000" points="224.5172,-118.176 232.2642,-122.2923 228.5086,-118.438 232.5,-118.7 232.5,-118.7 232.5,-118.7 228.5086,-118.438 232.7358,-115.1077 224.5172,-118.176 224.5172,-118.176"/>
<ellipse fill="none" stroke="#000000" cx="221.324" cy="-117.9664" rx="3.2" ry="3.2"/>
</g>
<!-- document_template -->
<g id="node3" class="node">
<title>document_template</title>
<g id="a_node3"><a xlink:href="../../tables/document_template.html" xlink:title="document_template" target="_top">
<polygon fill="#ffffff" stroke="transparent" points="8,-164.2 8,-291.2 181,-291.2 181,-164.2 8,-164.2"/>
<polygon fill="#f5f5f5" stroke="transparent" points="8.5,-267.7 8.5,-290.7 181.5,-290.7 181.5,-267.7 8.5,-267.7"/>
<polygon fill="none" stroke="#000000" points="8.5,-267.7 8.5,-290.7 181.5,-290.7 181.5,-267.7 8.5,-267.7"/>
<text text-anchor="start" x="13.5" y="-276.3" font-family="Helvetica,sans-Serif" font-weight="bold" font-size="11.00" fill="#000000">document_template</text>
<text text-anchor="start" x="147.0219" y="-275.8" font-family="Helvetica,sans-Serif" font-size="11.00" fill="#000000">[table]</text>
<polygon fill="none" stroke="#000000" points="8.5,-245.7 8.5,-267.7 181.5,-267.7 181.5,-245.7 8.5,-245.7"/>
<image xlink:href="../../images/primaryKeys.png" width="11px" height="12px" preserveAspectRatio="xMinYMin meet" x="13.5" y="-262.7"/>
<text text-anchor="start" x="37.5" y="-252.8" font-family="Helvetica,sans-Serif" font-size="11.00" fill="#000000">id</text>
<polygon fill="#ffffff" stroke="transparent" points="8.5,-223.7 8.5,-245.7 181.5,-245.7 181.5,-223.7 8.5,-223.7"/>
<polygon fill="none" stroke="#000000" points="8.5,-223.7 8.5,-245.7 181.5,-245.7 181.5,-223.7 8.5,-223.7"/>
<image xlink:href="../../images/foreignKeys.png" width="11px" height="12px" preserveAspectRatio="xMinYMin meet" x="13.5" y="-240.7"/>
<text text-anchor="start" x="37.5" y="-230.8" font-family="Helvetica,sans-Serif" font-size="11.00" fill="#000000">code</text>
<polygon fill="#ffffff" stroke="transparent" points="8.5,-201.7 8.5,-223.7 181.5,-223.7 181.5,-201.7 8.5,-201.7"/>
<polygon fill="none" stroke="#000000" points="8.5,-201.7 8.5,-223.7 181.5,-223.7 181.5,-201.7 8.5,-201.7"/>
<text text-anchor="start" x="37.5" y="-208.8" font-family="Helvetica,sans-Serif" font-size="11.00" fill="#000000">external_reference</text>
<polygon fill="none" stroke="#000000" points="8.5,-182.7 8.5,-201.7 181.5,-201.7 181.5,-182.7 8.5,-182.7"/>
<text text-anchor="start" x="11.5" y="-188.8" font-family="Helvetica,sans-Serif" font-size="11.00" fill="#000000">...</text>
<polygon fill="#ffffff" stroke="transparent" points="8.5,-163.7 8.5,-182.7 84.5,-182.7 84.5,-163.7 8.5,-163.7"/>
<polygon fill="none" stroke="#000000" points="8.5,-163.7 8.5,-182.7 84.5,-182.7 84.5,-163.7 8.5,-163.7"/>
<text text-anchor="start" x="11.5" y="-169.8" font-family="Helvetica,sans-Serif" font-size="11.00" fill="#000000"> &#160;</text>
<polygon fill="#ffffff" stroke="transparent" points="84.5,-163.7 84.5,-182.7 128.5,-182.7 128.5,-163.7 84.5,-163.7"/>
<polygon fill="none" stroke="#000000" points="84.5,-163.7 84.5,-182.7 128.5,-182.7 128.5,-163.7 84.5,-163.7"/>
<text text-anchor="start" x="119.3862" y="-169.8" font-family="Helvetica,sans-Serif" font-size="11.00" fill="#000000"> &#160;</text>
<polygon fill="#ffffff" stroke="transparent" points="128.5,-163.7 128.5,-182.7 181.5,-182.7 181.5,-163.7 128.5,-163.7"/>
<polygon fill="none" stroke="#000000" points="128.5,-163.7 128.5,-182.7 181.5,-182.7 181.5,-163.7 128.5,-163.7"/>
<text text-anchor="start" x="162.9053" y="-169.8" font-family="Helvetica,sans-Serif" font-size="11.00" fill="#000000">2 &gt;</text>
</a>
</g>
</g>
<!-- document_template_group&#45;&gt;document_template -->
<g id="edge2" class="edge">
<title>document_template_group:w&#45;&gt;document_template:e</title>
<path fill="none" stroke="#000000" d="M218.34,-144.2989C187.8711,-163.8784 231.8785,-256.7 181.5,-256.7"/>
<polygon fill="#000000" stroke="#000000" points="224.7465,-142.6706 233.3868,-144.1891 228.6233,-141.6853 232.5,-140.7 232.5,-140.7 232.5,-140.7 228.6233,-141.6853 231.6132,-137.2109 224.7465,-142.6706 224.7465,-142.6706"/>
<ellipse fill="none" stroke="#000000" cx="221.6451" cy="-143.4589" rx="3.2" ry="3.2"/>
</g>
<!-- document_template_variable -->
<g id="node4" class="node">
<title>document_template_variable</title>
<g id="a_node4"><a xlink:href="../../tables/document_template_variable.html" xlink:title="document_template_variable" target="_top">
<polygon fill="#ffffff" stroke="transparent" points="262.5,-229.2 262.5,-290.2 496.5,-290.2 496.5,-229.2 262.5,-229.2"/>
<polygon fill="#f5f5f5" stroke="transparent" points="262.5,-266.7 262.5,-289.7 496.5,-289.7 496.5,-266.7 262.5,-266.7"/>
<polygon fill="none" stroke="#000000" points="262.5,-266.7 262.5,-289.7 496.5,-289.7 496.5,-266.7 262.5,-266.7"/>
<text text-anchor="start" x="267.5" y="-275.3" font-family="Helvetica,sans-Serif" font-weight="bold" font-size="11.00" fill="#000000">document_template_variable</text>
<text text-anchor="start" x="462.0219" y="-274.8" font-family="Helvetica,sans-Serif" font-size="11.00" fill="#000000">[table]</text>
<polygon fill="none" stroke="#000000" points="262.5,-247.7 262.5,-266.7 496.5,-266.7 496.5,-247.7 262.5,-247.7"/>
<text text-anchor="start" x="265.5" y="-253.8" font-family="Helvetica,sans-Serif" font-size="11.00" fill="#000000">...</text>
<polygon fill="#ffffff" stroke="transparent" points="262.5,-228.7 262.5,-247.7 377.5,-247.7 377.5,-228.7 262.5,-228.7"/>
<polygon fill="none" stroke="#000000" points="262.5,-228.7 262.5,-247.7 377.5,-247.7 377.5,-228.7 262.5,-228.7"/>
<text text-anchor="start" x="265.5" y="-234.8" font-family="Helvetica,sans-Serif" font-size="11.00" fill="#000000">&lt; 2</text>
<polygon fill="#ffffff" stroke="transparent" points="377.5,-228.7 377.5,-247.7 436.5,-247.7 436.5,-228.7 377.5,-228.7"/>
<polygon fill="none" stroke="#000000" points="377.5,-228.7 377.5,-247.7 436.5,-247.7 436.5,-228.7 377.5,-228.7"/>
<text text-anchor="start" x="427.3862" y="-234.8" font-family="Helvetica,sans-Serif" font-size="11.00" fill="#000000"> &#160;</text>
<polygon fill="#ffffff" stroke="transparent" points="436.5,-228.7 436.5,-247.7 496.5,-247.7 496.5,-228.7 436.5,-228.7"/>
<polygon fill="none" stroke="#000000" points="436.5,-228.7 436.5,-247.7 496.5,-247.7 496.5,-228.7 436.5,-228.7"/>
<text text-anchor="start" x="487.3862" y="-234.8" font-family="Helvetica,sans-Serif" font-size="11.00" fill="#000000"> &#160;</text>
</a>
</g>
</g>
<!-- document_template_variable&#45;&gt;document_template -->
<g id="edge3" class="edge">
<title>document_template_variable:w&#45;&gt;document_template:e</title>
<path fill="none" stroke="#000000" d="M248.0769,-256.7C223.2332,-256.7 212.1563,-256.7 181.5,-256.7"/>
<polygon fill="#000000" stroke="#000000" points="254.5,-256.7001 262.5,-260.3 258.5,-256.7 262.5,-256.7 262.5,-256.7 262.5,-256.7 258.5,-256.7 262.5,-253.1 254.5,-256.7001 254.5,-256.7001"/>
<ellipse fill="none" stroke="#000000" cx="251.3" cy="-256.7001" rx="3.2" ry="3.2"/>
</g>
</g>
</svg>
