<?xml version="1.0" encoding="UTF-8" standalone="no"?>
<!DOCTYPE svg PUBLIC "-//W3C//DTD SVG 1.1//EN"
 "http://www.w3.org/Graphics/SVG/1.1/DTD/svg11.dtd">
<!-- Generated by graphviz version 2.40.1 (20161225.0304)
 -->
<!-- Title: oneDegreeRelationshipsDiagram Pages: 1 -->
<svg width="501pt" height="272pt"
 viewBox="0.00 0.00 501.00 272.20" xmlns="http://www.w3.org/2000/svg" xmlns:xlink="http://www.w3.org/1999/xlink">
<g id="graph0" class="graph" transform="scale(1 1) rotate(0) translate(4 268.2)">
<title>oneDegreeRelationshipsDiagram</title>
<polygon fill="#ffffff" stroke="transparent" points="-4,4 -4,-268.2 497,-268.2 497,4 -4,4"/>
<text text-anchor="middle" x="72.4936" y="-7.3" font-family="Helvetica,sans-Serif" font-size="11.00" fill="#000000">Generated by SchemaSpy</text>
<!-- document_template_audit -->
<g id="node1" class="node">
<title>document_template_audit</title>
<g id="a_node1"><a xlink:href="../../tables/document_template_audit.html" xlink:title="document_template_audit" target="_top">
<polygon fill="#ffffff" stroke="transparent" points="191,-38.2 191,-260.2 485,-260.2 485,-38.2 191,-38.2"/>
<polygon fill="#f5f5f5" stroke="transparent" points="193,-235.2 193,-258.2 483,-258.2 483,-235.2 193,-235.2"/>
<polygon fill="none" stroke="#000000" points="193,-235.2 193,-258.2 483,-258.2 483,-235.2 193,-235.2"/>
<text text-anchor="start" x="198" y="-243.8" font-family="Helvetica,sans-Serif" font-weight="bold" font-size="11.00" fill="#000000">document_template_audit</text>
<text text-anchor="start" x="448.0437" y="-243.3" font-family="Helvetica,sans-Serif" font-size="11.00" fill="#000000">[table]</text>
<polygon fill="none" stroke="#000000" points="193,-213.2 193,-235.2 389,-235.2 389,-213.2 193,-213.2"/>
<image xlink:href="../../images/primaryKeys.png" width="11px" height="12px" preserveAspectRatio="xMinYMin meet" x="198" y="-230.2"/>
<text text-anchor="start" x="213" y="-220.3" font-family="Helvetica,sans-Serif" font-size="11.00" fill="#000000">rev_id</text>
<polygon fill="none" stroke="#000000" points="389,-213.2 389,-235.2 483,-235.2 483,-213.2 389,-213.2"/>
<text text-anchor="start" x="392" y="-220.9" font-family="Helvetica,sans-Serif" font-size="11.00" fill="#000000">int8[19]</text>
<polygon fill="none" stroke="#000000" points="193,-191.2 193,-213.2 389,-213.2 389,-191.2 193,-191.2"/>
<text text-anchor="start" x="213" y="-198.3" font-family="Helvetica,sans-Serif" font-size="11.00" fill="#000000">rev_type</text>
<polygon fill="none" stroke="#000000" points="389,-191.2 389,-213.2 483,-213.2 483,-191.2 389,-191.2"/>
<text text-anchor="start" x="392" y="-198.9" font-family="Helvetica,sans-Serif" font-size="11.00" fill="#000000">int2[5]</text>
<polygon fill="none" stroke="#000000" points="193,-169.2 193,-191.2 389,-191.2 389,-169.2 193,-169.2"/>
<image xlink:href="../../images/primaryKeys.png" width="11px" height="12px" preserveAspectRatio="xMinYMin meet" x="198" y="-186.2"/>
<text text-anchor="start" x="213" y="-176.3" font-family="Helvetica,sans-Serif" font-size="11.00" fill="#000000">id</text>
<polygon fill="none" stroke="#000000" points="389,-169.2 389,-191.2 483,-191.2 483,-169.2 389,-169.2"/>
<text text-anchor="start" x="391.9758" y="-176.9" font-family="Helvetica,sans-Serif" font-size="11.00" fill="#000000">uuid[2147483647]</text>
<polygon fill="none" stroke="#000000" points="193,-147.2 193,-169.2 389,-169.2 389,-147.2 193,-147.2"/>
<image xlink:href="../../images/foreignKeys.png" width="11px" height="12px" preserveAspectRatio="xMinYMin meet" x="198" y="-164.2"/>
<text text-anchor="start" x="213" y="-154.3" font-family="Helvetica,sans-Serif" font-size="11.00" fill="#000000">code</text>
<polygon fill="none" stroke="#000000" points="389,-147.2 389,-169.2 483,-169.2 483,-147.2 389,-147.2"/>
<text text-anchor="start" x="392" y="-154.9" font-family="Helvetica,sans-Serif" font-size="11.00" fill="#000000">text[2147483647]</text>
<polygon fill="none" stroke="#000000" points="193,-125.2 193,-147.2 389,-147.2 389,-125.2 193,-125.2"/>
<text text-anchor="start" x="213" y="-132.3" font-family="Helvetica,sans-Serif" font-size="11.00" fill="#000000">name</text>
<polygon fill="none" stroke="#000000" points="389,-125.2 389,-147.2 483,-147.2 483,-125.2 389,-125.2"/>
<text text-anchor="start" x="392" y="-132.9" font-family="Helvetica,sans-Serif" font-size="11.00" fill="#000000">text[2147483647]</text>
<polygon fill="none" stroke="#000000" points="193,-103.2 193,-125.2 389,-125.2 389,-103.2 193,-103.2"/>
<text text-anchor="start" x="213" y="-110.3" font-family="Helvetica,sans-Serif" font-size="11.00" fill="#000000">description</text>
<polygon fill="none" stroke="#000000" points="389,-103.2 389,-125.2 483,-125.2 483,-103.2 389,-103.2"/>
<text text-anchor="start" x="392" y="-110.9" font-family="Helvetica,sans-Serif" font-size="11.00" fill="#000000">text[2147483647]</text>
<polygon fill="none" stroke="#000000" points="193,-81.2 193,-103.2 389,-103.2 389,-81.2 193,-81.2"/>
<text text-anchor="start" x="213" y="-88.3" font-family="Helvetica,sans-Serif" font-size="11.00" fill="#000000">version</text>
<polygon fill="none" stroke="#000000" points="389,-81.2 389,-103.2 483,-103.2 483,-81.2 389,-81.2"/>
<text text-anchor="start" x="392" y="-88.9" font-family="Helvetica,sans-Serif" font-size="11.00" fill="#000000">int4[10]</text>
<polygon fill="#ffffff" stroke="transparent" points="193,-59.2 193,-81.2 389,-81.2 389,-59.2 193,-59.2"/>
<polygon fill="none" stroke="#000000" points="193,-59.2 193,-81.2 389,-81.2 389,-59.2 193,-59.2"/>
<text text-anchor="start" x="213" y="-66.3" font-family="Helvetica,sans-Serif" font-size="11.00" fill="#000000">external_reference</text>
<polygon fill="none" stroke="#000000" points="389,-59.2 389,-81.2 483,-81.2 483,-59.2 389,-59.2"/>
<text text-anchor="start" x="391.9758" y="-66.9" font-family="Helvetica,sans-Serif" font-size="11.00" fill="#000000">uuid[2147483647]</text>
<polygon fill="#ffffff" stroke="transparent" points="193,-40.2 193,-59.2 295,-59.2 295,-40.2 193,-40.2"/>
<polygon fill="none" stroke="#000000" points="193,-40.2 193,-59.2 295,-59.2 295,-40.2 193,-40.2"/>
<text text-anchor="start" x="196" y="-46.3" font-family="Helvetica,sans-Serif" font-size="11.00" fill="#000000">&lt; 1</text>
<polygon fill="#ffffff" stroke="transparent" points="295,-40.2 295,-59.2 389,-59.2 389,-40.2 295,-40.2"/>
<polygon fill="none" stroke="#000000" points="295,-40.2 295,-59.2 389,-59.2 389,-40.2 295,-40.2"/>
<text text-anchor="start" x="379.8862" y="-46.3" font-family="Helvetica,sans-Serif" font-size="11.00" fill="#000000"> &#160;</text>
<polygon fill="#ffffff" stroke="transparent" points="389,-40.2 389,-59.2 483,-59.2 483,-40.2 389,-40.2"/>
<polygon fill="none" stroke="#000000" points="389,-40.2 389,-59.2 483,-59.2 483,-40.2 389,-40.2"/>
<text text-anchor="start" x="464.4053" y="-46.3" font-family="Helvetica,sans-Serif" font-size="11.00" fill="#000000">0 &gt;</text>
<polygon fill="none" stroke="#000000" stroke-width="2" points="192,-39.2 192,-259.2 484,-259.2 484,-39.2 192,-39.2"/>
</a>
</g>
</g>
<!-- audit_revision -->
<g id="node2" class="node">
<title>audit_revision</title>
<g id="a_node2"><a xlink:href="../../tables/audit_revision.html" xlink:title="audit_revision" target="_top">
<polygon fill="#ffffff" stroke="transparent" points="8,-175.7 8,-258.7 142,-258.7 142,-175.7 8,-175.7"/>
<polygon fill="#f5f5f5" stroke="transparent" points="8,-235.2 8,-258.2 142,-258.2 142,-235.2 8,-235.2"/>
<polygon fill="none" stroke="#000000" points="8,-235.2 8,-258.2 142,-258.2 142,-235.2 8,-235.2"/>
<text text-anchor="start" x="13" y="-243.8" font-family="Helvetica,sans-Serif" font-weight="bold" font-size="11.00" fill="#000000">audit_revision</text>
<text text-anchor="start" x="107.5219" y="-243.3" font-family="Helvetica,sans-Serif" font-size="11.00" fill="#000000">[table]</text>
<polygon fill="none" stroke="#000000" points="8,-213.2 8,-235.2 142,-235.2 142,-213.2 8,-213.2"/>
<image xlink:href="../../images/primaryKeys.png" width="11px" height="12px" preserveAspectRatio="xMinYMin meet" x="13" y="-230.2"/>
<text text-anchor="start" x="37" y="-220.3" font-family="Helvetica,sans-Serif" font-size="11.00" fill="#000000">id</text>
<polygon fill="none" stroke="#000000" points="8,-194.2 8,-213.2 142,-213.2 142,-194.2 8,-194.2"/>
<text text-anchor="start" x="11" y="-200.3" font-family="Helvetica,sans-Serif" font-size="11.00" fill="#000000">...</text>
<polygon fill="#ffffff" stroke="transparent" points="8,-175.2 8,-194.2 64,-194.2 64,-175.2 8,-175.2"/>
<polygon fill="none" stroke="#000000" points="8,-175.2 8,-194.2 64,-194.2 64,-175.2 8,-175.2"/>
<text text-anchor="start" x="11" y="-181.3" font-family="Helvetica,sans-Serif" font-size="11.00" fill="#000000"> &#160;</text>
<polygon fill="#ffffff" stroke="transparent" points="64,-175.2 64,-194.2 98,-194.2 98,-175.2 64,-175.2"/>
<polygon fill="none" stroke="#000000" points="64,-175.2 64,-194.2 98,-194.2 98,-175.2 64,-175.2"/>
<text text-anchor="start" x="88.8862" y="-181.3" font-family="Helvetica,sans-Serif" font-size="11.00" fill="#000000"> &#160;</text>
<polygon fill="#ffffff" stroke="transparent" points="98,-175.2 98,-194.2 142,-194.2 142,-175.2 98,-175.2"/>
<polygon fill="none" stroke="#000000" points="98,-175.2 98,-194.2 142,-194.2 142,-175.2 98,-175.2"/>
<text text-anchor="start" x="123.4053" y="-181.3" font-family="Helvetica,sans-Serif" font-size="11.00" fill="#000000">3 &gt;</text>
</a>
</g>
</g>
<!-- document_template_audit&#45;&gt;audit_revision -->
<g id="edge1" class="edge">
<title>document_template_audit:w&#45;&gt;audit_revision:e</title>
<path fill="none" stroke="#000000" d="M178.276,-224.2C166.2815,-224.2 158.8229,-224.2 142,-224.2"/>
<polygon fill="#000000" stroke="#000000" points="185,-224.2001 193,-227.8 189,-224.2 193,-224.2 193,-224.2 193,-224.2 189,-224.2 193,-220.6 185,-224.2001 185,-224.2001"/>
<ellipse fill="none" stroke="#000000" cx="181.8" cy="-224.2001" rx="3.2" ry="3.2"/>
</g>
</g>
</svg>
