<?xml version="1.0" encoding="UTF-8" standalone="no"?>
<!DOCTYPE svg PUBLIC "-//W3C//DTD SVG 1.1//EN"
 "http://www.w3.org/Graphics/SVG/1.1/DTD/svg11.dtd">
<!-- Generated by graphviz version 2.40.1 (20161225.0304)
 -->
<!-- Title: twoDegreesRelationshipsDiagramImplied Pages: 1 -->
<svg width="584pt" height="765pt"
 viewBox="0.00 0.00 584.00 765.20" xmlns="http://www.w3.org/2000/svg" xmlns:xlink="http://www.w3.org/1999/xlink">
<g id="graph0" class="graph" transform="scale(1 1) rotate(0) translate(4 761.2)">
<title>twoDegreesRelationshipsDiagramImplied</title>
<polygon fill="#ffffff" stroke="transparent" points="-4,4 -4,-761.2 580,-761.2 580,4 -4,4"/>
<text text-anchor="middle" x="72.4936" y="-7.3" font-family="Helvetica,sans-Serif" font-size="11.00" fill="#000000">Generated by SchemaSpy</text>
<!-- document_generation_request_audit -->
<g id="node1" class="node">
<title>document_generation_request_audit</title>
<g id="a_node1"><a xlink:href="../../tables/document_generation_request_audit.html" xlink:title="document_generation_request_audit" target="_top">
<polygon fill="#ffffff" stroke="transparent" points="278.5,-692.2 278.5,-753.2 563.5,-753.2 563.5,-692.2 278.5,-692.2"/>
<polygon fill="#f5f5f5" stroke="transparent" points="279,-729.7 279,-752.7 564,-752.7 564,-729.7 279,-729.7"/>
<polygon fill="none" stroke="#000000" points="279,-729.7 279,-752.7 564,-752.7 564,-729.7 279,-729.7"/>
<text text-anchor="start" x="284" y="-738.3" font-family="Helvetica,sans-Serif" font-weight="bold" font-size="11.00" fill="#000000">document_generation_request_audit</text>
<text text-anchor="start" x="529.5219" y="-737.8" font-family="Helvetica,sans-Serif" font-size="11.00" fill="#000000">[table]</text>
<polygon fill="none" stroke="#000000" points="279,-710.7 279,-729.7 564,-729.7 564,-710.7 279,-710.7"/>
<text text-anchor="start" x="282" y="-716.8" font-family="Helvetica,sans-Serif" font-size="11.00" fill="#000000">...</text>
<polygon fill="#ffffff" stroke="transparent" points="279,-691.7 279,-710.7 420,-710.7 420,-691.7 279,-691.7"/>
<polygon fill="none" stroke="#000000" points="279,-691.7 279,-710.7 420,-710.7 420,-691.7 279,-691.7"/>
<text text-anchor="start" x="282" y="-697.8" font-family="Helvetica,sans-Serif" font-size="11.00" fill="#000000">&lt; 1</text>
<polygon fill="#ffffff" stroke="transparent" points="420,-691.7 420,-710.7 492,-710.7 492,-691.7 420,-691.7"/>
<polygon fill="none" stroke="#000000" points="420,-691.7 420,-710.7 492,-710.7 492,-691.7 420,-691.7"/>
<text text-anchor="start" x="482.8862" y="-697.8" font-family="Helvetica,sans-Serif" font-size="11.00" fill="#000000"> &#160;</text>
<polygon fill="#ffffff" stroke="transparent" points="492,-691.7 492,-710.7 564,-710.7 564,-691.7 492,-691.7"/>
<polygon fill="none" stroke="#000000" points="492,-691.7 492,-710.7 564,-710.7 564,-691.7 492,-691.7"/>
<text text-anchor="start" x="554.8862" y="-697.8" font-family="Helvetica,sans-Serif" font-size="11.00" fill="#000000"> &#160;</text>
</a>
</g>
</g>
<!-- audit_revision -->
<g id="node2" class="node">
<title>audit_revision</title>
<g id="a_node2"><a xlink:href="../../tables/audit_revision.html" xlink:title="audit_revision" target="_top">
<polygon fill="#ffffff" stroke="transparent" points="49.5,-548.2 49.5,-631.2 183.5,-631.2 183.5,-548.2 49.5,-548.2"/>
<polygon fill="#f5f5f5" stroke="transparent" points="49.5,-607.7 49.5,-630.7 183.5,-630.7 183.5,-607.7 49.5,-607.7"/>
<polygon fill="none" stroke="#000000" points="49.5,-607.7 49.5,-630.7 183.5,-630.7 183.5,-607.7 49.5,-607.7"/>
<text text-anchor="start" x="54.5" y="-616.3" font-family="Helvetica,sans-Serif" font-weight="bold" font-size="11.00" fill="#000000">audit_revision</text>
<text text-anchor="start" x="149.0219" y="-615.8" font-family="Helvetica,sans-Serif" font-size="11.00" fill="#000000">[table]</text>
<polygon fill="none" stroke="#000000" points="49.5,-585.7 49.5,-607.7 183.5,-607.7 183.5,-585.7 49.5,-585.7"/>
<image xlink:href="../../images/primaryKeys.png" width="11px" height="12px" preserveAspectRatio="xMinYMin meet" x="54.5" y="-602.7"/>
<text text-anchor="start" x="78.5" y="-592.8" font-family="Helvetica,sans-Serif" font-size="11.00" fill="#000000">id</text>
<polygon fill="none" stroke="#000000" points="49.5,-566.7 49.5,-585.7 183.5,-585.7 183.5,-566.7 49.5,-566.7"/>
<text text-anchor="start" x="52.5" y="-572.8" font-family="Helvetica,sans-Serif" font-size="11.00" fill="#000000">...</text>
<polygon fill="#ffffff" stroke="transparent" points="49.5,-547.7 49.5,-566.7 105.5,-566.7 105.5,-547.7 49.5,-547.7"/>
<polygon fill="none" stroke="#000000" points="49.5,-547.7 49.5,-566.7 105.5,-566.7 105.5,-547.7 49.5,-547.7"/>
<text text-anchor="start" x="52.5" y="-553.8" font-family="Helvetica,sans-Serif" font-size="11.00" fill="#000000"> &#160;</text>
<polygon fill="#ffffff" stroke="transparent" points="105.5,-547.7 105.5,-566.7 139.5,-566.7 139.5,-547.7 105.5,-547.7"/>
<polygon fill="none" stroke="#000000" points="105.5,-547.7 105.5,-566.7 139.5,-566.7 139.5,-547.7 105.5,-547.7"/>
<text text-anchor="start" x="130.3862" y="-553.8" font-family="Helvetica,sans-Serif" font-size="11.00" fill="#000000"> &#160;</text>
<polygon fill="#ffffff" stroke="transparent" points="139.5,-547.7 139.5,-566.7 183.5,-566.7 183.5,-547.7 139.5,-547.7"/>
<polygon fill="none" stroke="#000000" points="139.5,-547.7 139.5,-566.7 183.5,-566.7 183.5,-547.7 139.5,-547.7"/>
<text text-anchor="start" x="164.9053" y="-553.8" font-family="Helvetica,sans-Serif" font-size="11.00" fill="#000000">4 &gt;</text>
</a>
</g>
</g>
<!-- document_generation_request_audit&#45;&gt;audit_revision -->
<g id="edge1" class="edge">
<title>document_generation_request_audit:w&#45;&gt;audit_revision:e</title>
<path fill="none" stroke="#000000" d="M264.7252,-717.5651C215.8121,-701.232 247.3026,-596.7 183.5,-596.7"/>
<polygon fill="#000000" stroke="#000000" points="271.088,-718.5167 278.4675,-723.2604 275.044,-719.1083 279,-719.7 279,-719.7 279,-719.7 275.044,-719.1083 279.5325,-716.1396 271.088,-718.5167 271.088,-718.5167"/>
<ellipse fill="none" stroke="#000000" cx="267.9232" cy="-718.0433" rx="3.2" ry="3.2"/>
</g>
<!-- document_template -->
<g id="node3" class="node">
<title>document_template</title>
<g id="a_node3"><a xlink:href="../../tables/document_template.html" xlink:title="document_template" target="_top">
<polygon fill="#ffffff" stroke="transparent" points="334.5,-202.2 334.5,-263.2 507.5,-263.2 507.5,-202.2 334.5,-202.2"/>
<polygon fill="#f5f5f5" stroke="transparent" points="335,-239.7 335,-262.7 508,-262.7 508,-239.7 335,-239.7"/>
<polygon fill="none" stroke="#000000" points="335,-239.7 335,-262.7 508,-262.7 508,-239.7 335,-239.7"/>
<text text-anchor="start" x="340" y="-248.3" font-family="Helvetica,sans-Serif" font-weight="bold" font-size="11.00" fill="#000000">document_template</text>
<text text-anchor="start" x="473.5219" y="-247.8" font-family="Helvetica,sans-Serif" font-size="11.00" fill="#000000">[table]</text>
<polygon fill="none" stroke="#000000" points="335,-220.7 335,-239.7 508,-239.7 508,-220.7 335,-220.7"/>
<text text-anchor="start" x="338" y="-226.8" font-family="Helvetica,sans-Serif" font-size="11.00" fill="#000000">...</text>
<polygon fill="#ffffff" stroke="transparent" points="335,-201.7 335,-220.7 415,-220.7 415,-201.7 335,-201.7"/>
<polygon fill="none" stroke="#000000" points="335,-201.7 335,-220.7 415,-220.7 415,-201.7 335,-201.7"/>
<text text-anchor="start" x="338" y="-207.8" font-family="Helvetica,sans-Serif" font-size="11.00" fill="#000000">&lt; 1</text>
<polygon fill="#ffffff" stroke="transparent" points="415,-201.7 415,-220.7 457,-220.7 457,-201.7 415,-201.7"/>
<polygon fill="none" stroke="#000000" points="415,-201.7 415,-220.7 457,-220.7 457,-201.7 415,-201.7"/>
<text text-anchor="start" x="447.8862" y="-207.8" font-family="Helvetica,sans-Serif" font-size="11.00" fill="#000000"> &#160;</text>
<polygon fill="#ffffff" stroke="transparent" points="457,-201.7 457,-220.7 508,-220.7 508,-201.7 457,-201.7"/>
<polygon fill="none" stroke="#000000" points="457,-201.7 457,-220.7 508,-220.7 508,-201.7 457,-201.7"/>
<text text-anchor="start" x="489.4053" y="-207.8" font-family="Helvetica,sans-Serif" font-size="11.00" fill="#000000">3 &gt;</text>
</a>
</g>
</g>
<!-- template_variable_domain -->
<g id="node4" class="node">
<title>template_variable_domain</title>
<g id="a_node4"><a xlink:href="../../tables/template_variable_domain.html" xlink:title="template_variable_domain" target="_top">
<polygon fill="#ffffff" stroke="transparent" points="8,-77.2 8,-182.2 225,-182.2 225,-77.2 8,-77.2"/>
<polygon fill="#f5f5f5" stroke="transparent" points="8.5,-158.7 8.5,-181.7 225.5,-181.7 225.5,-158.7 8.5,-158.7"/>
<polygon fill="none" stroke="#000000" points="8.5,-158.7 8.5,-181.7 225.5,-181.7 225.5,-158.7 8.5,-158.7"/>
<text text-anchor="start" x="13.5" y="-167.3" font-family="Helvetica,sans-Serif" font-weight="bold" font-size="11.00" fill="#000000">template_variable_domain</text>
<text text-anchor="start" x="191.0219" y="-166.8" font-family="Helvetica,sans-Serif" font-size="11.00" fill="#000000">[table]</text>
<polygon fill="none" stroke="#000000" points="8.5,-136.7 8.5,-158.7 225.5,-158.7 225.5,-136.7 8.5,-136.7"/>
<image xlink:href="../../images/primaryKeys.png" width="11px" height="12px" preserveAspectRatio="xMinYMin meet" x="13.5" y="-153.7"/>
<text text-anchor="start" x="37.5" y="-143.8" font-family="Helvetica,sans-Serif" font-size="11.00" fill="#000000">code</text>
<polygon fill="#ffffff" stroke="transparent" points="8.5,-114.7 8.5,-136.7 225.5,-136.7 225.5,-114.7 8.5,-114.7"/>
<polygon fill="none" stroke="#000000" points="8.5,-114.7 8.5,-136.7 225.5,-136.7 225.5,-114.7 8.5,-114.7"/>
<text text-anchor="start" x="37.5" y="-121.8" font-family="Helvetica,sans-Serif" font-size="11.00" fill="#000000">sequence_number</text>
<polygon fill="none" stroke="#000000" points="8.5,-95.7 8.5,-114.7 225.5,-114.7 225.5,-95.7 8.5,-95.7"/>
<text text-anchor="start" x="11.5" y="-101.8" font-family="Helvetica,sans-Serif" font-size="11.00" fill="#000000">...</text>
<polygon fill="#ffffff" stroke="transparent" points="8.5,-76.7 8.5,-95.7 106.5,-95.7 106.5,-76.7 8.5,-76.7"/>
<polygon fill="none" stroke="#000000" points="8.5,-76.7 8.5,-95.7 106.5,-95.7 106.5,-76.7 8.5,-76.7"/>
<text text-anchor="start" x="11.5" y="-82.8" font-family="Helvetica,sans-Serif" font-size="11.00" fill="#000000"> &#160;</text>
<polygon fill="#ffffff" stroke="transparent" points="106.5,-76.7 106.5,-95.7 161.5,-95.7 161.5,-76.7 106.5,-76.7"/>
<polygon fill="none" stroke="#000000" points="106.5,-76.7 106.5,-95.7 161.5,-95.7 161.5,-76.7 106.5,-76.7"/>
<text text-anchor="start" x="152.3862" y="-82.8" font-family="Helvetica,sans-Serif" font-size="11.00" fill="#000000"> &#160;</text>
<polygon fill="#ffffff" stroke="transparent" points="161.5,-76.7 161.5,-95.7 225.5,-95.7 225.5,-76.7 161.5,-76.7"/>
<polygon fill="none" stroke="#000000" points="161.5,-76.7 161.5,-95.7 225.5,-95.7 225.5,-76.7 161.5,-76.7"/>
<text text-anchor="start" x="206.9053" y="-82.8" font-family="Helvetica,sans-Serif" font-size="11.00" fill="#000000">5 &gt;</text>
</a>
</g>
</g>
<!-- document_template&#45;&gt;template_variable_domain -->
<g id="edge2" class="edge">
<title>document_template:w&#45;&gt;template_variable_domain:e</title>
<path fill="none" stroke="#000000" stroke-dasharray="5,2" d="M324.4727,-229.1263C298.3285,-226.0514 290.5346,-210.9426 266,-191.7 245.0865,-175.2974 252.0786,-147.7 225.5,-147.7"/>
<polygon fill="#000000" stroke="#000000" points="334.4189,-225.6624 333.9835,-233.6505 332.3858,-233.5634 332.8213,-225.5753 334.4189,-225.6624"/>
<polyline fill="none" stroke="#000000" points="335,-229.7 331.0059,-229.4823 "/>
<ellipse fill="none" stroke="#000000" cx="327.8107" cy="-229.3081" rx="3.2" ry="3.2"/>
</g>
<!-- document_template_audit -->
<g id="node5" class="node">
<title>document_template_audit</title>
<g id="a_node5"><a xlink:href="../../tables/document_template_audit.html" xlink:title="document_template_audit" target="_top">
<polygon fill="#ffffff" stroke="transparent" points="274,-284.7 274,-506.7 568,-506.7 568,-284.7 274,-284.7"/>
<polygon fill="#f5f5f5" stroke="transparent" points="276,-481.7 276,-504.7 566,-504.7 566,-481.7 276,-481.7"/>
<polygon fill="none" stroke="#000000" points="276,-481.7 276,-504.7 566,-504.7 566,-481.7 276,-481.7"/>
<text text-anchor="start" x="281" y="-490.3" font-family="Helvetica,sans-Serif" font-weight="bold" font-size="11.00" fill="#000000">document_template_audit</text>
<text text-anchor="start" x="531.0437" y="-489.8" font-family="Helvetica,sans-Serif" font-size="11.00" fill="#000000">[table]</text>
<polygon fill="none" stroke="#000000" points="276,-459.7 276,-481.7 472,-481.7 472,-459.7 276,-459.7"/>
<image xlink:href="../../images/primaryKeys.png" width="11px" height="12px" preserveAspectRatio="xMinYMin meet" x="281" y="-476.7"/>
<text text-anchor="start" x="296" y="-466.8" font-family="Helvetica,sans-Serif" font-size="11.00" fill="#000000">rev_id</text>
<polygon fill="none" stroke="#000000" points="472,-459.7 472,-481.7 566,-481.7 566,-459.7 472,-459.7"/>
<text text-anchor="start" x="475" y="-467.4" font-family="Helvetica,sans-Serif" font-size="11.00" fill="#000000">int8[19]</text>
<polygon fill="none" stroke="#000000" points="276,-437.7 276,-459.7 472,-459.7 472,-437.7 276,-437.7"/>
<text text-anchor="start" x="296" y="-444.8" font-family="Helvetica,sans-Serif" font-size="11.00" fill="#000000">rev_type</text>
<polygon fill="none" stroke="#000000" points="472,-437.7 472,-459.7 566,-459.7 566,-437.7 472,-437.7"/>
<text text-anchor="start" x="475" y="-445.4" font-family="Helvetica,sans-Serif" font-size="11.00" fill="#000000">int2[5]</text>
<polygon fill="none" stroke="#000000" points="276,-415.7 276,-437.7 472,-437.7 472,-415.7 276,-415.7"/>
<image xlink:href="../../images/primaryKeys.png" width="11px" height="12px" preserveAspectRatio="xMinYMin meet" x="281" y="-432.7"/>
<text text-anchor="start" x="296" y="-422.8" font-family="Helvetica,sans-Serif" font-size="11.00" fill="#000000">id</text>
<polygon fill="none" stroke="#000000" points="472,-415.7 472,-437.7 566,-437.7 566,-415.7 472,-415.7"/>
<text text-anchor="start" x="474.9758" y="-423.4" font-family="Helvetica,sans-Serif" font-size="11.00" fill="#000000">uuid[2147483647]</text>
<polygon fill="none" stroke="#000000" points="276,-393.7 276,-415.7 472,-415.7 472,-393.7 276,-393.7"/>
<image xlink:href="../../images/foreignKeys.png" width="11px" height="12px" preserveAspectRatio="xMinYMin meet" x="281" y="-410.7"/>
<text text-anchor="start" x="296" y="-400.8" font-family="Helvetica,sans-Serif" font-size="11.00" fill="#000000">code</text>
<polygon fill="none" stroke="#000000" points="472,-393.7 472,-415.7 566,-415.7 566,-393.7 472,-393.7"/>
<text text-anchor="start" x="475" y="-401.4" font-family="Helvetica,sans-Serif" font-size="11.00" fill="#000000">text[2147483647]</text>
<polygon fill="none" stroke="#000000" points="276,-371.7 276,-393.7 472,-393.7 472,-371.7 276,-371.7"/>
<text text-anchor="start" x="296" y="-378.8" font-family="Helvetica,sans-Serif" font-size="11.00" fill="#000000">name</text>
<polygon fill="none" stroke="#000000" points="472,-371.7 472,-393.7 566,-393.7 566,-371.7 472,-371.7"/>
<text text-anchor="start" x="475" y="-379.4" font-family="Helvetica,sans-Serif" font-size="11.00" fill="#000000">text[2147483647]</text>
<polygon fill="none" stroke="#000000" points="276,-349.7 276,-371.7 472,-371.7 472,-349.7 276,-349.7"/>
<text text-anchor="start" x="296" y="-356.8" font-family="Helvetica,sans-Serif" font-size="11.00" fill="#000000">description</text>
<polygon fill="none" stroke="#000000" points="472,-349.7 472,-371.7 566,-371.7 566,-349.7 472,-349.7"/>
<text text-anchor="start" x="475" y="-357.4" font-family="Helvetica,sans-Serif" font-size="11.00" fill="#000000">text[2147483647]</text>
<polygon fill="none" stroke="#000000" points="276,-327.7 276,-349.7 472,-349.7 472,-327.7 276,-327.7"/>
<text text-anchor="start" x="296" y="-334.8" font-family="Helvetica,sans-Serif" font-size="11.00" fill="#000000">version</text>
<polygon fill="none" stroke="#000000" points="472,-327.7 472,-349.7 566,-349.7 566,-327.7 472,-327.7"/>
<text text-anchor="start" x="475" y="-335.4" font-family="Helvetica,sans-Serif" font-size="11.00" fill="#000000">int4[10]</text>
<polygon fill="#ffffff" stroke="transparent" points="276,-305.7 276,-327.7 472,-327.7 472,-305.7 276,-305.7"/>
<polygon fill="none" stroke="#000000" points="276,-305.7 276,-327.7 472,-327.7 472,-305.7 276,-305.7"/>
<text text-anchor="start" x="296" y="-312.8" font-family="Helvetica,sans-Serif" font-size="11.00" fill="#000000">external_reference</text>
<polygon fill="none" stroke="#000000" points="472,-305.7 472,-327.7 566,-327.7 566,-305.7 472,-305.7"/>
<text text-anchor="start" x="474.9758" y="-313.4" font-family="Helvetica,sans-Serif" font-size="11.00" fill="#000000">uuid[2147483647]</text>
<polygon fill="#ffffff" stroke="transparent" points="276,-286.7 276,-305.7 378,-305.7 378,-286.7 276,-286.7"/>
<polygon fill="none" stroke="#000000" points="276,-286.7 276,-305.7 378,-305.7 378,-286.7 276,-286.7"/>
<text text-anchor="start" x="279" y="-292.8" font-family="Helvetica,sans-Serif" font-size="11.00" fill="#000000">&lt; 2</text>
<polygon fill="#ffffff" stroke="transparent" points="378,-286.7 378,-305.7 472,-305.7 472,-286.7 378,-286.7"/>
<polygon fill="none" stroke="#000000" points="378,-286.7 378,-305.7 472,-305.7 472,-286.7 378,-286.7"/>
<text text-anchor="start" x="462.8862" y="-292.8" font-family="Helvetica,sans-Serif" font-size="11.00" fill="#000000"> &#160;</text>
<polygon fill="#ffffff" stroke="transparent" points="472,-286.7 472,-305.7 566,-305.7 566,-286.7 472,-286.7"/>
<polygon fill="none" stroke="#000000" points="472,-286.7 472,-305.7 566,-305.7 566,-286.7 472,-286.7"/>
<text text-anchor="start" x="547.4053" y="-292.8" font-family="Helvetica,sans-Serif" font-size="11.00" fill="#000000">0 &gt;</text>
<polygon fill="none" stroke="#000000" stroke-width="2" points="275,-285.7 275,-505.7 567,-505.7 567,-285.7 275,-285.7"/>
</a>
</g>
</g>
<!-- document_template_audit&#45;&gt;audit_revision -->
<g id="edge4" class="edge">
<title>document_template_audit:w&#45;&gt;audit_revision:e</title>
<path fill="none" stroke="#000000" d="M261.7297,-472.887C213.0786,-489.6185 247.5429,-596.7 183.5,-596.7"/>
<polygon fill="#000000" stroke="#000000" points="268.0923,-471.9119 276.5454,-474.2585 272.0462,-471.306 276,-470.7 276,-470.7 276,-470.7 272.0462,-471.306 275.4546,-467.1415 268.0923,-471.9119 268.0923,-471.9119"/>
<ellipse fill="none" stroke="#000000" cx="264.9293" cy="-472.3967" rx="3.2" ry="3.2"/>
</g>
<!-- document_template_audit&#45;&gt;template_variable_domain -->
<g id="edge3" class="edge">
<title>document_template_audit:w&#45;&gt;template_variable_domain:e</title>
<path fill="none" stroke="#000000" stroke-dasharray="5,2" d="M262.6982,-398.3472C229.0634,-358.7713 278.2467,-147.7 225.5,-147.7"/>
<polygon fill="#000000" stroke="#000000" points="268.781,-401.2522 274.4485,-407.9485 272.3905,-402.9761 276,-404.7 276,-404.7 276,-404.7 272.3905,-402.9761 277.5515,-401.4515 268.781,-401.2522 268.781,-401.2522"/>
<ellipse fill="none" stroke="#000000" cx="265.8935" cy="-399.8731" rx="3.2" ry="3.2"/>
</g>
<!-- document_template_group_audit -->
<g id="node6" class="node">
<title>document_template_group_audit</title>
<g id="a_node6"><a xlink:href="../../tables/document_template_group_audit.html" xlink:title="document_template_group_audit" target="_top">
<polygon fill="#ffffff" stroke="transparent" points="291,-610.2 291,-671.2 551,-671.2 551,-610.2 291,-610.2"/>
<polygon fill="#f5f5f5" stroke="transparent" points="291,-647.7 291,-670.7 551,-670.7 551,-647.7 291,-647.7"/>
<polygon fill="none" stroke="#000000" points="291,-647.7 291,-670.7 551,-670.7 551,-647.7 291,-647.7"/>
<text text-anchor="start" x="296" y="-656.3" font-family="Helvetica,sans-Serif" font-weight="bold" font-size="11.00" fill="#000000">document_template_group_audit</text>
<text text-anchor="start" x="516.5219" y="-655.8" font-family="Helvetica,sans-Serif" font-size="11.00" fill="#000000">[table]</text>
<polygon fill="none" stroke="#000000" points="291,-628.7 291,-647.7 551,-647.7 551,-628.7 291,-628.7"/>
<text text-anchor="start" x="294" y="-634.8" font-family="Helvetica,sans-Serif" font-size="11.00" fill="#000000">...</text>
<polygon fill="#ffffff" stroke="transparent" points="291,-609.7 291,-628.7 419,-628.7 419,-609.7 291,-609.7"/>
<polygon fill="none" stroke="#000000" points="291,-609.7 291,-628.7 419,-628.7 419,-609.7 291,-609.7"/>
<text text-anchor="start" x="294" y="-615.8" font-family="Helvetica,sans-Serif" font-size="11.00" fill="#000000">&lt; 1</text>
<polygon fill="#ffffff" stroke="transparent" points="419,-609.7 419,-628.7 485,-628.7 485,-609.7 419,-609.7"/>
<polygon fill="none" stroke="#000000" points="419,-609.7 419,-628.7 485,-628.7 485,-609.7 419,-609.7"/>
<text text-anchor="start" x="475.8862" y="-615.8" font-family="Helvetica,sans-Serif" font-size="11.00" fill="#000000"> &#160;</text>
<polygon fill="#ffffff" stroke="transparent" points="485,-609.7 485,-628.7 551,-628.7 551,-609.7 485,-609.7"/>
<polygon fill="none" stroke="#000000" points="485,-609.7 485,-628.7 551,-628.7 551,-609.7 485,-609.7"/>
<text text-anchor="start" x="541.8862" y="-615.8" font-family="Helvetica,sans-Serif" font-size="11.00" fill="#000000"> &#160;</text>
</a>
</g>
</g>
<!-- document_template_group_audit&#45;&gt;audit_revision -->
<g id="edge5" class="edge">
<title>document_template_group_audit:w&#45;&gt;audit_revision:e</title>
<path fill="none" stroke="#000000" d="M276.2448,-636.428C238.2513,-629.5076 229.2417,-596.7 183.5,-596.7"/>
<polygon fill="#000000" stroke="#000000" points="283.0296,-637.0128 290.6908,-641.2867 287.0148,-637.3564 291,-637.7 291,-637.7 291,-637.7 287.0148,-637.3564 291.3092,-634.1133 283.0296,-637.0128 283.0296,-637.0128"/>
<ellipse fill="none" stroke="#000000" cx="279.8414" cy="-636.738" rx="3.2" ry="3.2"/>
</g>
<!-- document_template_variable_audit -->
<g id="node7" class="node">
<title>document_template_variable_audit</title>
<g id="a_node7"><a xlink:href="../../tables/document_template_variable_audit.html" xlink:title="document_template_variable_audit" target="_top">
<polygon fill="#ffffff" stroke="transparent" points="283.5,-528.2 283.5,-589.2 558.5,-589.2 558.5,-528.2 283.5,-528.2"/>
<polygon fill="#f5f5f5" stroke="transparent" points="284,-565.7 284,-588.7 559,-588.7 559,-565.7 284,-565.7"/>
<polygon fill="none" stroke="#000000" points="284,-565.7 284,-588.7 559,-588.7 559,-565.7 284,-565.7"/>
<text text-anchor="start" x="289" y="-574.3" font-family="Helvetica,sans-Serif" font-weight="bold" font-size="11.00" fill="#000000">document_template_variable_audit</text>
<text text-anchor="start" x="524.5219" y="-573.8" font-family="Helvetica,sans-Serif" font-size="11.00" fill="#000000">[table]</text>
<polygon fill="none" stroke="#000000" points="284,-546.7 284,-565.7 559,-565.7 559,-546.7 284,-546.7"/>
<text text-anchor="start" x="287" y="-552.8" font-family="Helvetica,sans-Serif" font-size="11.00" fill="#000000">...</text>
<polygon fill="#ffffff" stroke="transparent" points="284,-527.7 284,-546.7 420,-546.7 420,-527.7 284,-527.7"/>
<polygon fill="none" stroke="#000000" points="284,-527.7 284,-546.7 420,-546.7 420,-527.7 284,-527.7"/>
<text text-anchor="start" x="287" y="-533.8" font-family="Helvetica,sans-Serif" font-size="11.00" fill="#000000">&lt; 1</text>
<polygon fill="#ffffff" stroke="transparent" points="420,-527.7 420,-546.7 489,-546.7 489,-527.7 420,-527.7"/>
<polygon fill="none" stroke="#000000" points="420,-527.7 420,-546.7 489,-546.7 489,-527.7 420,-527.7"/>
<text text-anchor="start" x="479.8862" y="-533.8" font-family="Helvetica,sans-Serif" font-size="11.00" fill="#000000"> &#160;</text>
<polygon fill="#ffffff" stroke="transparent" points="489,-527.7 489,-546.7 559,-546.7 559,-527.7 489,-527.7"/>
<polygon fill="none" stroke="#000000" points="489,-527.7 489,-546.7 559,-546.7 559,-527.7 489,-527.7"/>
<text text-anchor="start" x="549.8862" y="-533.8" font-family="Helvetica,sans-Serif" font-size="11.00" fill="#000000"> &#160;</text>
</a>
</g>
</g>
<!-- document_template_variable_audit&#45;&gt;audit_revision -->
<g id="edge6" class="edge">
<title>document_template_variable_audit:w&#45;&gt;audit_revision:e</title>
<path fill="none" stroke="#000000" d="M269.6424,-557.0641C234.3512,-564.1783 226.4643,-596.7 183.5,-596.7"/>
<polygon fill="#000000" stroke="#000000" points="276.0359,-556.4567 284.3405,-559.2839 280.0179,-556.0784 284,-555.7 284,-555.7 284,-555.7 280.0179,-556.0784 283.6595,-552.1161 276.0359,-556.4567 276.0359,-556.4567"/>
<ellipse fill="none" stroke="#000000" cx="272.8502" cy="-556.7594" rx="3.2" ry="3.2"/>
</g>
<!-- template_group -->
<g id="node8" class="node">
<title>template_group</title>
<g id="a_node8"><a xlink:href="../../tables/template_group.html" xlink:title="template_group" target="_top">
<polygon fill="#ffffff" stroke="transparent" points="348.5,-120.2 348.5,-181.2 493.5,-181.2 493.5,-120.2 348.5,-120.2"/>
<polygon fill="#f5f5f5" stroke="transparent" points="349,-157.7 349,-180.7 494,-180.7 494,-157.7 349,-157.7"/>
<polygon fill="none" stroke="#000000" points="349,-157.7 349,-180.7 494,-180.7 494,-157.7 349,-157.7"/>
<text text-anchor="start" x="354" y="-166.3" font-family="Helvetica,sans-Serif" font-weight="bold" font-size="11.00" fill="#000000">template_group</text>
<text text-anchor="start" x="459.5219" y="-165.8" font-family="Helvetica,sans-Serif" font-size="11.00" fill="#000000">[table]</text>
<polygon fill="none" stroke="#000000" points="349,-138.7 349,-157.7 494,-157.7 494,-138.7 349,-138.7"/>
<text text-anchor="start" x="352" y="-144.8" font-family="Helvetica,sans-Serif" font-size="11.00" fill="#000000">...</text>
<polygon fill="#ffffff" stroke="transparent" points="349,-119.7 349,-138.7 415,-138.7 415,-119.7 349,-119.7"/>
<polygon fill="none" stroke="#000000" points="349,-119.7 349,-138.7 415,-138.7 415,-119.7 349,-119.7"/>
<text text-anchor="start" x="352" y="-125.8" font-family="Helvetica,sans-Serif" font-size="11.00" fill="#000000">&lt; 1</text>
<polygon fill="#ffffff" stroke="transparent" points="415,-119.7 415,-138.7 450,-138.7 450,-119.7 415,-119.7"/>
<polygon fill="none" stroke="#000000" points="415,-119.7 415,-138.7 450,-138.7 450,-119.7 415,-119.7"/>
<text text-anchor="start" x="440.8862" y="-125.8" font-family="Helvetica,sans-Serif" font-size="11.00" fill="#000000"> &#160;</text>
<polygon fill="#ffffff" stroke="transparent" points="450,-119.7 450,-138.7 494,-138.7 494,-119.7 450,-119.7"/>
<polygon fill="none" stroke="#000000" points="450,-119.7 450,-138.7 494,-138.7 494,-119.7 450,-119.7"/>
<text text-anchor="start" x="475.4053" y="-125.8" font-family="Helvetica,sans-Serif" font-size="11.00" fill="#000000">1 &gt;</text>
</a>
</g>
</g>
<!-- template_group&#45;&gt;template_variable_domain -->
<g id="edge7" class="edge">
<title>template_group:w&#45;&gt;template_variable_domain:e</title>
<path fill="none" stroke="#000000" stroke-dasharray="5,2" d="M338.5856,-147.7C292.1071,-147.7 276.7439,-147.7 225.5,-147.7"/>
<polygon fill="#000000" stroke="#000000" points="348.2,-143.7 348.2,-151.7 346.6,-151.7 346.6,-143.7 348.2,-143.7"/>
<polyline fill="none" stroke="#000000" points="349,-147.7 345,-147.7 "/>
<ellipse fill="none" stroke="#000000" cx="341.8" cy="-147.7001" rx="3.2" ry="3.2"/>
</g>
<!-- template_variable -->
<g id="node9" class="node">
<title>template_variable</title>
<g id="a_node9"><a xlink:href="../../tables/template_variable.html" xlink:title="template_variable" target="_top">
<polygon fill="#ffffff" stroke="transparent" points="341,-38.2 341,-99.2 501,-99.2 501,-38.2 341,-38.2"/>
<polygon fill="#f5f5f5" stroke="transparent" points="341,-75.7 341,-98.7 501,-98.7 501,-75.7 341,-75.7"/>
<polygon fill="none" stroke="#000000" points="341,-75.7 341,-98.7 501,-98.7 501,-75.7 341,-75.7"/>
<text text-anchor="start" x="346" y="-84.3" font-family="Helvetica,sans-Serif" font-weight="bold" font-size="11.00" fill="#000000">template_variable</text>
<text text-anchor="start" x="466.5219" y="-83.8" font-family="Helvetica,sans-Serif" font-size="11.00" fill="#000000">[table]</text>
<polygon fill="none" stroke="#000000" points="341,-56.7 341,-75.7 501,-75.7 501,-56.7 341,-56.7"/>
<text text-anchor="start" x="344" y="-62.8" font-family="Helvetica,sans-Serif" font-size="11.00" fill="#000000">...</text>
<polygon fill="#ffffff" stroke="transparent" points="341,-37.7 341,-56.7 415,-56.7 415,-37.7 341,-37.7"/>
<polygon fill="none" stroke="#000000" points="341,-37.7 341,-56.7 415,-56.7 415,-37.7 341,-37.7"/>
<text text-anchor="start" x="344" y="-43.8" font-family="Helvetica,sans-Serif" font-size="11.00" fill="#000000">&lt; 2</text>
<polygon fill="#ffffff" stroke="transparent" points="415,-37.7 415,-56.7 453,-56.7 453,-37.7 415,-37.7"/>
<polygon fill="none" stroke="#000000" points="415,-37.7 415,-56.7 453,-56.7 453,-37.7 415,-37.7"/>
<text text-anchor="start" x="443.8862" y="-43.8" font-family="Helvetica,sans-Serif" font-size="11.00" fill="#000000"> &#160;</text>
<polygon fill="#ffffff" stroke="transparent" points="453,-37.7 453,-56.7 501,-56.7 501,-37.7 453,-37.7"/>
<polygon fill="none" stroke="#000000" points="453,-37.7 453,-56.7 501,-56.7 501,-37.7 453,-37.7"/>
<text text-anchor="start" x="482.4053" y="-43.8" font-family="Helvetica,sans-Serif" font-size="11.00" fill="#000000">1 &gt;</text>
</a>
</g>
</g>
<!-- template_variable&#45;&gt;template_variable_domain -->
<g id="edge8" class="edge">
<title>template_variable:w&#45;&gt;template_variable_domain:e</title>
<path fill="none" stroke="#000000" stroke-dasharray="5,2" d="M330.5742,-64.6877C301.0548,-63.7954 293.9279,-82.8169 266,-103.7 246.2325,-118.4811 250.1827,-141.7 225.5,-147.7"/>
<polygon fill="#000000" stroke="#000000" points="340.5903,-61.6414 339.8171,-69.604 338.2246,-69.4493 338.9978,-61.4868 340.5903,-61.6414"/>
<polyline fill="none" stroke="#000000" points="341,-65.7 337.0187,-65.3134 "/>
<ellipse fill="none" stroke="#000000" cx="333.8337" cy="-65.0041" rx="3.2" ry="3.2"/>
</g>
<!-- template_variable&#45;&gt;template_variable_domain -->
<g id="edge9" class="edge">
<title>template_variable:w&#45;&gt;template_variable_domain:e</title>
<path fill="none" stroke="#000000" d="M326.8629,-69.3186C300.3988,-78.4458 292.7189,-96.721 266,-116.7 246.2325,-131.4811 250.1827,-154.7 225.5,-147.7"/>
<polygon fill="#000000" stroke="#000000" points="333.2499,-67.6838 341.8927,-69.1876 337.1249,-66.6919 341,-65.7 341,-65.7 341,-65.7 337.1249,-66.6919 340.1073,-62.2124 333.2499,-67.6838 333.2499,-67.6838"/>
<ellipse fill="none" stroke="#000000" cx="330.1498" cy="-68.4773" rx="3.2" ry="3.2"/>
</g>
</g>
</svg>
