<?xml version="1.0" encoding="UTF-8" standalone="no"?>
<!DOCTYPE svg PUBLIC "-//W3C//DTD SVG 1.1//EN"
 "http://www.w3.org/Graphics/SVG/1.1/DTD/svg11.dtd">
<!-- Generated by graphviz version 2.40.1 (20161225.0304)
 -->
<!-- Title: oneDegreeRelationshipsDiagram Pages: 1 -->
<svg width="560pt" height="313pt"
 viewBox="0.00 0.00 560.00 313.20" xmlns="http://www.w3.org/2000/svg" xmlns:xlink="http://www.w3.org/1999/xlink">
<g id="graph0" class="graph" transform="scale(1 1) rotate(0) translate(4 309.2)">
<title>oneDegreeRelationshipsDiagram</title>
<polygon fill="#ffffff" stroke="transparent" points="-4,4 -4,-309.2 556,-309.2 556,4 -4,4"/>
<text text-anchor="middle" x="72.4936" y="-7.3" font-family="Helvetica,sans-Serif" font-size="11.00" fill="#000000">Generated by SchemaSpy</text>
<!-- document_template_group -->
<g id="node1" class="node">
<title>document_template_group</title>
<g id="a_node1"><a xlink:href="../../tables/document_template_group.html" xlink:title="document_template_group" target="_top">
<polygon fill="#ffffff" stroke="transparent" points="317.5,-193.2 317.5,-301.2 536.5,-301.2 536.5,-193.2 317.5,-193.2"/>
<polygon fill="#f5f5f5" stroke="transparent" points="318,-278.2 318,-301.2 537,-301.2 537,-278.2 318,-278.2"/>
<polygon fill="none" stroke="#000000" points="318,-278.2 318,-301.2 537,-301.2 537,-278.2 318,-278.2"/>
<text text-anchor="start" x="323" y="-286.8" font-family="Helvetica,sans-Serif" font-weight="bold" font-size="11.00" fill="#000000">document_template_group</text>
<text text-anchor="start" x="502.5219" y="-286.3" font-family="Helvetica,sans-Serif" font-size="11.00" fill="#000000">[table]</text>
<polygon fill="none" stroke="#000000" points="318,-256.2 318,-278.2 537,-278.2 537,-256.2 318,-256.2"/>
<image xlink:href="../../images/primaryKeys.png" width="11px" height="12px" preserveAspectRatio="xMinYMin meet" x="323" y="-273.2"/>
<text text-anchor="start" x="347" y="-263.3" font-family="Helvetica,sans-Serif" font-size="11.00" fill="#000000">id</text>
<polygon fill="#ffffff" stroke="transparent" points="318,-234.2 318,-256.2 537,-256.2 537,-234.2 318,-234.2"/>
<polygon fill="none" stroke="#000000" points="318,-234.2 318,-256.2 537,-256.2 537,-234.2 318,-234.2"/>
<image xlink:href="../../images/foreignKeys.png" width="11px" height="12px" preserveAspectRatio="xMinYMin meet" x="323" y="-251.2"/>
<text text-anchor="start" x="347" y="-241.3" font-family="Helvetica,sans-Serif" font-size="11.00" fill="#000000">template_id</text>
<polygon fill="#ffffff" stroke="transparent" points="318,-212.2 318,-234.2 537,-234.2 537,-212.2 318,-212.2"/>
<polygon fill="none" stroke="#000000" points="318,-212.2 318,-234.2 537,-234.2 537,-212.2 318,-212.2"/>
<image xlink:href="../../images/foreignKeys.png" width="11px" height="12px" preserveAspectRatio="xMinYMin meet" x="323" y="-229.2"/>
<text text-anchor="start" x="347" y="-219.3" font-family="Helvetica,sans-Serif" font-size="11.00" fill="#000000">template_group_id</text>
<polygon fill="#ffffff" stroke="transparent" points="318,-193.2 318,-212.2 426,-212.2 426,-193.2 318,-193.2"/>
<polygon fill="none" stroke="#000000" points="318,-193.2 318,-212.2 426,-212.2 426,-193.2 318,-193.2"/>
<text text-anchor="start" x="321" y="-199.3" font-family="Helvetica,sans-Serif" font-size="11.00" fill="#000000">&lt; 2</text>
<polygon fill="#ffffff" stroke="transparent" points="426,-193.2 426,-212.2 481,-212.2 481,-193.2 426,-193.2"/>
<polygon fill="none" stroke="#000000" points="426,-193.2 426,-212.2 481,-212.2 481,-193.2 426,-193.2"/>
<text text-anchor="start" x="471.8862" y="-199.3" font-family="Helvetica,sans-Serif" font-size="11.00" fill="#000000"> &#160;</text>
<polygon fill="#ffffff" stroke="transparent" points="481,-193.2 481,-212.2 537,-212.2 537,-193.2 481,-193.2"/>
<polygon fill="none" stroke="#000000" points="481,-193.2 481,-212.2 537,-212.2 537,-193.2 481,-193.2"/>
<text text-anchor="start" x="527.8862" y="-199.3" font-family="Helvetica,sans-Serif" font-size="11.00" fill="#000000"> &#160;</text>
</a>
</g>
</g>
<!-- document_template -->
<g id="node2" class="node">
<title>document_template</title>
<g id="a_node2"><a xlink:href="../../tables/document_template.html" xlink:title="document_template" target="_top">
<polygon fill="#ffffff" stroke="transparent" points="8,-38.2 8,-216.2 261,-216.2 261,-38.2 8,-38.2"/>
<polygon fill="#f5f5f5" stroke="transparent" points="10.5,-191.2 10.5,-214.2 259.5,-214.2 259.5,-191.2 10.5,-191.2"/>
<polygon fill="none" stroke="#000000" points="10.5,-191.2 10.5,-214.2 259.5,-214.2 259.5,-191.2 10.5,-191.2"/>
<text text-anchor="start" x="15.5" y="-199.8" font-family="Helvetica,sans-Serif" font-weight="bold" font-size="11.00" fill="#000000">document_template</text>
<text text-anchor="start" x="224.5437" y="-199.3" font-family="Helvetica,sans-Serif" font-size="11.00" fill="#000000">[table]</text>
<polygon fill="none" stroke="#000000" points="10.5,-169.2 10.5,-191.2 165.5,-191.2 165.5,-169.2 10.5,-169.2"/>
<image xlink:href="../../images/primaryKeys.png" width="11px" height="12px" preserveAspectRatio="xMinYMin meet" x="15.5" y="-186.2"/>
<text text-anchor="start" x="30.5" y="-176.3" font-family="Helvetica,sans-Serif" font-size="11.00" fill="#000000">id</text>
<polygon fill="none" stroke="#000000" points="165.5,-169.2 165.5,-191.2 259.5,-191.2 259.5,-169.2 165.5,-169.2"/>
<text text-anchor="start" x="168.4758" y="-176.9" font-family="Helvetica,sans-Serif" font-size="11.00" fill="#000000">uuid[2147483647]</text>
<polygon fill="#ffffff" stroke="transparent" points="10.5,-147.2 10.5,-169.2 165.5,-169.2 165.5,-147.2 10.5,-147.2"/>
<polygon fill="none" stroke="#000000" points="10.5,-147.2 10.5,-169.2 165.5,-169.2 165.5,-147.2 10.5,-147.2"/>
<image xlink:href="../../images/foreignKeys.png" width="11px" height="12px" preserveAspectRatio="xMinYMin meet" x="15.5" y="-164.2"/>
<text text-anchor="start" x="30.5" y="-154.3" font-family="Helvetica,sans-Serif" font-size="11.00" fill="#000000">code</text>
<polygon fill="none" stroke="#000000" points="165.5,-147.2 165.5,-169.2 259.5,-169.2 259.5,-147.2 165.5,-147.2"/>
<text text-anchor="start" x="168.5" y="-154.9" font-family="Helvetica,sans-Serif" font-size="11.00" fill="#000000">text[2147483647]</text>
<polygon fill="none" stroke="#000000" points="10.5,-125.2 10.5,-147.2 165.5,-147.2 165.5,-125.2 10.5,-125.2"/>
<text text-anchor="start" x="30.5" y="-132.3" font-family="Helvetica,sans-Serif" font-size="11.00" fill="#000000">name</text>
<polygon fill="none" stroke="#000000" points="165.5,-125.2 165.5,-147.2 259.5,-147.2 259.5,-125.2 165.5,-125.2"/>
<text text-anchor="start" x="168.5" y="-132.9" font-family="Helvetica,sans-Serif" font-size="11.00" fill="#000000">text[2147483647]</text>
<polygon fill="none" stroke="#000000" points="10.5,-103.2 10.5,-125.2 165.5,-125.2 165.5,-103.2 10.5,-103.2"/>
<text text-anchor="start" x="30.5" y="-110.3" font-family="Helvetica,sans-Serif" font-size="11.00" fill="#000000">description</text>
<polygon fill="none" stroke="#000000" points="165.5,-103.2 165.5,-125.2 259.5,-125.2 259.5,-103.2 165.5,-103.2"/>
<text text-anchor="start" x="168.5" y="-110.9" font-family="Helvetica,sans-Serif" font-size="11.00" fill="#000000">text[2147483647]</text>
<polygon fill="none" stroke="#000000" points="10.5,-81.2 10.5,-103.2 165.5,-103.2 165.5,-81.2 10.5,-81.2"/>
<text text-anchor="start" x="30.5" y="-88.3" font-family="Helvetica,sans-Serif" font-size="11.00" fill="#000000">version</text>
<polygon fill="none" stroke="#000000" points="165.5,-81.2 165.5,-103.2 259.5,-103.2 259.5,-81.2 165.5,-81.2"/>
<text text-anchor="start" x="168.5" y="-88.9" font-family="Helvetica,sans-Serif" font-size="11.00" fill="#000000">int4[10]</text>
<polygon fill="#ffffff" stroke="transparent" points="10.5,-59.2 10.5,-81.2 165.5,-81.2 165.5,-59.2 10.5,-59.2"/>
<polygon fill="none" stroke="#000000" points="10.5,-59.2 10.5,-81.2 165.5,-81.2 165.5,-59.2 10.5,-59.2"/>
<text text-anchor="start" x="30.5" y="-66.3" font-family="Helvetica,sans-Serif" font-size="11.00" fill="#000000">external_reference</text>
<polygon fill="none" stroke="#000000" points="165.5,-59.2 165.5,-81.2 259.5,-81.2 259.5,-59.2 165.5,-59.2"/>
<text text-anchor="start" x="168.4758" y="-66.9" font-family="Helvetica,sans-Serif" font-size="11.00" fill="#000000">uuid[2147483647]</text>
<polygon fill="#ffffff" stroke="transparent" points="10.5,-40.2 10.5,-59.2 92.5,-59.2 92.5,-40.2 10.5,-40.2"/>
<polygon fill="none" stroke="#000000" points="10.5,-40.2 10.5,-59.2 92.5,-59.2 92.5,-40.2 10.5,-40.2"/>
<text text-anchor="start" x="13.5" y="-46.3" font-family="Helvetica,sans-Serif" font-size="11.00" fill="#000000">&lt; 0</text>
<polygon fill="#ffffff" stroke="transparent" points="92.5,-40.2 92.5,-59.2 165.5,-59.2 165.5,-40.2 92.5,-40.2"/>
<polygon fill="none" stroke="#000000" points="92.5,-40.2 92.5,-59.2 165.5,-59.2 165.5,-40.2 92.5,-40.2"/>
<text text-anchor="start" x="156.3862" y="-46.3" font-family="Helvetica,sans-Serif" font-size="11.00" fill="#000000"> &#160;</text>
<polygon fill="#ffffff" stroke="transparent" points="165.5,-40.2 165.5,-59.2 259.5,-59.2 259.5,-40.2 165.5,-40.2"/>
<polygon fill="none" stroke="#000000" points="165.5,-40.2 165.5,-59.2 259.5,-59.2 259.5,-40.2 165.5,-40.2"/>
<text text-anchor="start" x="240.9053" y="-46.3" font-family="Helvetica,sans-Serif" font-size="11.00" fill="#000000">2 &gt;</text>
<polygon fill="none" stroke="#000000" stroke-width="2" points="9,-39.2 9,-215.2 260,-215.2 260,-39.2 9,-39.2"/>
</a>
</g>
</g>
<!-- document_template_group&#45;&gt;document_template -->
<g id="edge1" class="edge">
<title>document_template_group:w&#45;&gt;document_template:e</title>
<path fill="none" stroke="#000000" d="M303.8713,-241.134C283.6454,-226.9039 292.445,-180.2 259.5,-180.2"/>
<polygon fill="#000000" stroke="#000000" points="310.312,-242.9875 317.0044,-248.6596 314.156,-244.0937 318,-245.2 318,-245.2 318,-245.2 314.156,-244.0937 318.9956,-241.7404 310.312,-242.9875 310.312,-242.9875"/>
<ellipse fill="none" stroke="#000000" cx="307.2368" cy="-242.1025" rx="3.2" ry="3.2"/>
</g>
<!-- document_template_variable -->
<g id="node3" class="node">
<title>document_template_variable</title>
<g id="a_node3"><a xlink:href="../../tables/document_template_variable.html" xlink:title="document_template_variable" target="_top">
<polygon fill="#ffffff" stroke="transparent" points="310,-44.7 310,-171.7 544,-171.7 544,-44.7 310,-44.7"/>
<polygon fill="#f5f5f5" stroke="transparent" points="310,-148.2 310,-171.2 544,-171.2 544,-148.2 310,-148.2"/>
<polygon fill="none" stroke="#000000" points="310,-148.2 310,-171.2 544,-171.2 544,-148.2 310,-148.2"/>
<text text-anchor="start" x="315" y="-156.8" font-family="Helvetica,sans-Serif" font-weight="bold" font-size="11.00" fill="#000000">document_template_variable</text>
<text text-anchor="start" x="509.5219" y="-156.3" font-family="Helvetica,sans-Serif" font-size="11.00" fill="#000000">[table]</text>
<polygon fill="none" stroke="#000000" points="310,-126.2 310,-148.2 544,-148.2 544,-126.2 310,-126.2"/>
<image xlink:href="../../images/primaryKeys.png" width="11px" height="12px" preserveAspectRatio="xMinYMin meet" x="315" y="-143.2"/>
<text text-anchor="start" x="339" y="-133.3" font-family="Helvetica,sans-Serif" font-size="11.00" fill="#000000">id</text>
<polygon fill="#ffffff" stroke="transparent" points="310,-104.2 310,-126.2 544,-126.2 544,-104.2 310,-104.2"/>
<polygon fill="none" stroke="#000000" points="310,-104.2 310,-126.2 544,-126.2 544,-104.2 310,-104.2"/>
<image xlink:href="../../images/foreignKeys.png" width="11px" height="12px" preserveAspectRatio="xMinYMin meet" x="315" y="-121.2"/>
<text text-anchor="start" x="339" y="-111.3" font-family="Helvetica,sans-Serif" font-size="11.00" fill="#000000">template_id</text>
<polygon fill="#ffffff" stroke="transparent" points="310,-82.2 310,-104.2 544,-104.2 544,-82.2 310,-82.2"/>
<polygon fill="none" stroke="#000000" points="310,-82.2 310,-104.2 544,-104.2 544,-82.2 310,-82.2"/>
<image xlink:href="../../images/foreignKeys.png" width="11px" height="12px" preserveAspectRatio="xMinYMin meet" x="315" y="-99.2"/>
<text text-anchor="start" x="339" y="-89.3" font-family="Helvetica,sans-Serif" font-size="11.00" fill="#000000">variable_id</text>
<polygon fill="none" stroke="#000000" points="310,-63.2 310,-82.2 544,-82.2 544,-63.2 310,-63.2"/>
<text text-anchor="start" x="313" y="-69.3" font-family="Helvetica,sans-Serif" font-size="11.00" fill="#000000">...</text>
<polygon fill="#ffffff" stroke="transparent" points="310,-44.2 310,-63.2 425,-63.2 425,-44.2 310,-44.2"/>
<polygon fill="none" stroke="#000000" points="310,-44.2 310,-63.2 425,-63.2 425,-44.2 310,-44.2"/>
<text text-anchor="start" x="313" y="-50.3" font-family="Helvetica,sans-Serif" font-size="11.00" fill="#000000">&lt; 2</text>
<polygon fill="#ffffff" stroke="transparent" points="425,-44.2 425,-63.2 484,-63.2 484,-44.2 425,-44.2"/>
<polygon fill="none" stroke="#000000" points="425,-44.2 425,-63.2 484,-63.2 484,-44.2 425,-44.2"/>
<text text-anchor="start" x="474.8862" y="-50.3" font-family="Helvetica,sans-Serif" font-size="11.00" fill="#000000"> &#160;</text>
<polygon fill="#ffffff" stroke="transparent" points="484,-44.2 484,-63.2 544,-63.2 544,-44.2 484,-44.2"/>
<polygon fill="none" stroke="#000000" points="484,-44.2 484,-63.2 544,-63.2 544,-44.2 484,-44.2"/>
<text text-anchor="start" x="534.8862" y="-50.3" font-family="Helvetica,sans-Serif" font-size="11.00" fill="#000000"> &#160;</text>
</a>
</g>
</g>
<!-- document_template_variable&#45;&gt;document_template -->
<g id="edge2" class="edge">
<title>document_template_variable:w&#45;&gt;document_template:e</title>
<path fill="none" stroke="#000000" d="M296.2553,-119.8746C279.2595,-134.7786 290.0812,-180.2 259.5,-180.2"/>
<polygon fill="#000000" stroke="#000000" points="302.4261,-117.776 311.1592,-118.6083 306.213,-116.488 310,-115.2 310,-115.2 310,-115.2 306.213,-116.488 308.8408,-111.7917 302.4261,-117.776 302.4261,-117.776"/>
<ellipse fill="none" stroke="#000000" cx="299.3965" cy="-118.8064" rx="3.2" ry="3.2"/>
</g>
</g>
</svg>
