<?xml version="1.0" encoding="UTF-8" standalone="no"?>
<!DOCTYPE svg PUBLIC "-//W3C//DTD SVG 1.1//EN"
 "http://www.w3.org/Graphics/SVG/1.1/DTD/svg11.dtd">
<!-- Generated by graphviz version 2.40.1 (20161225.0304)
 -->
<!-- Title: twoDegreesRelationshipsDiagramImplied Pages: 1 -->
<svg width="841pt" height="327pt"
 viewBox="0.00 0.00 841.00 326.70" xmlns="http://www.w3.org/2000/svg" xmlns:xlink="http://www.w3.org/1999/xlink">
<g id="graph0" class="graph" transform="scale(1 1) rotate(0) translate(4 322.7)">
<title>twoDegreesRelationshipsDiagramImplied</title>
<polygon fill="#ffffff" stroke="transparent" points="-4,4 -4,-322.7 837,-322.7 837,4 -4,4"/>
<text text-anchor="middle" x="72.4936" y="-7.3" font-family="Helvetica,sans-Serif" font-size="11.00" fill="#000000">Generated by SchemaSpy</text>
<!-- document_generation_request -->
<g id="node1" class="node">
<title>document_generation_request</title>
<g id="a_node1"><a xlink:href="../../tables/document_generation_request.html" xlink:title="document_generation_request" target="_top">
<polygon fill="#ffffff" stroke="transparent" points="496,-202.7 496,-314.7 825,-314.7 825,-202.7 496,-202.7"/>
<polygon fill="#f5f5f5" stroke="transparent" points="498.5,-289.7 498.5,-312.7 823.5,-312.7 823.5,-289.7 498.5,-289.7"/>
<polygon fill="none" stroke="#000000" points="498.5,-289.7 498.5,-312.7 823.5,-312.7 823.5,-289.7 498.5,-289.7"/>
<text text-anchor="start" x="503.5" y="-298.3" font-family="Helvetica,sans-Serif" font-weight="bold" font-size="11.00" fill="#000000">document_generation_request</text>
<text text-anchor="start" x="788.5437" y="-297.8" font-family="Helvetica,sans-Serif" font-size="11.00" fill="#000000">[table]</text>
<polygon fill="none" stroke="#000000" points="498.5,-267.7 498.5,-289.7 724.5,-289.7 724.5,-267.7 498.5,-267.7"/>
<image xlink:href="../../images/primaryKeys.png" width="11px" height="12px" preserveAspectRatio="xMinYMin meet" x="503.5" y="-284.7"/>
<text text-anchor="start" x="518.5" y="-274.8" font-family="Helvetica,sans-Serif" font-size="11.00" fill="#000000">id</text>
<polygon fill="none" stroke="#000000" points="724.5,-267.7 724.5,-289.7 823.5,-289.7 823.5,-267.7 724.5,-267.7"/>
<text text-anchor="start" x="727.5" y="-275.4" font-family="Helvetica,sans-Serif" font-size="11.00" fill="#000000">uuid[2147483647]</text>
<polygon fill="none" stroke="#000000" points="498.5,-245.7 498.5,-267.7 724.5,-267.7 724.5,-245.7 498.5,-245.7"/>
<image xlink:href="../../images/foreignKeys.png" width="11px" height="12px" preserveAspectRatio="xMinYMin meet" x="503.5" y="-262.7"/>
<text text-anchor="start" x="518.5" y="-252.8" font-family="Helvetica,sans-Serif" font-size="11.00" fill="#000000">template_id</text>
<polygon fill="none" stroke="#000000" points="724.5,-245.7 724.5,-267.7 823.5,-267.7 823.5,-245.7 724.5,-245.7"/>
<text text-anchor="start" x="727.5" y="-253.4" font-family="Helvetica,sans-Serif" font-size="11.00" fill="#000000">uuid[2147483647]</text>
<polygon fill="none" stroke="#000000" points="498.5,-223.7 498.5,-245.7 724.5,-245.7 724.5,-223.7 498.5,-223.7"/>
<text text-anchor="start" x="518.5" y="-230.8" font-family="Helvetica,sans-Serif" font-size="11.00" fill="#000000">request</text>
<polygon fill="none" stroke="#000000" points="724.5,-223.7 724.5,-245.7 823.5,-245.7 823.5,-223.7 724.5,-223.7"/>
<text text-anchor="start" x="727.2258" y="-231.4" font-family="Helvetica,sans-Serif" font-size="11.00" fill="#000000">jsonb[2147483647]</text>
<polygon fill="#ffffff" stroke="transparent" points="498.5,-204.7 498.5,-223.7 615.5,-223.7 615.5,-204.7 498.5,-204.7"/>
<polygon fill="none" stroke="#000000" points="498.5,-204.7 498.5,-223.7 615.5,-223.7 615.5,-204.7 498.5,-204.7"/>
<text text-anchor="start" x="501.5" y="-210.8" font-family="Helvetica,sans-Serif" font-size="11.00" fill="#000000">&lt; 1</text>
<polygon fill="#ffffff" stroke="transparent" points="615.5,-204.7 615.5,-223.7 724.5,-223.7 724.5,-204.7 615.5,-204.7"/>
<polygon fill="none" stroke="#000000" points="615.5,-204.7 615.5,-223.7 724.5,-223.7 724.5,-204.7 615.5,-204.7"/>
<text text-anchor="start" x="715.3862" y="-210.8" font-family="Helvetica,sans-Serif" font-size="11.00" fill="#000000"> &#160;</text>
<polygon fill="#ffffff" stroke="transparent" points="724.5,-204.7 724.5,-223.7 823.5,-223.7 823.5,-204.7 724.5,-204.7"/>
<polygon fill="none" stroke="#000000" points="724.5,-204.7 724.5,-223.7 823.5,-223.7 823.5,-204.7 724.5,-204.7"/>
<text text-anchor="start" x="804.9053" y="-210.8" font-family="Helvetica,sans-Serif" font-size="11.00" fill="#000000">0 &gt;</text>
<polygon fill="none" stroke="#000000" stroke-width="2" points="497,-203.7 497,-313.7 824,-313.7 824,-203.7 497,-203.7"/>
</a>
</g>
</g>
<!-- document_template -->
<g id="node2" class="node">
<title>document_template</title>
<g id="a_node2"><a xlink:href="../../tables/document_template.html" xlink:title="document_template" target="_top">
<polygon fill="#ffffff" stroke="transparent" points="274,-55.2 274,-182.2 447,-182.2 447,-55.2 274,-55.2"/>
<polygon fill="#f5f5f5" stroke="transparent" points="274.5,-158.7 274.5,-181.7 447.5,-181.7 447.5,-158.7 274.5,-158.7"/>
<polygon fill="none" stroke="#000000" points="274.5,-158.7 274.5,-181.7 447.5,-181.7 447.5,-158.7 274.5,-158.7"/>
<text text-anchor="start" x="279.5" y="-167.3" font-family="Helvetica,sans-Serif" font-weight="bold" font-size="11.00" fill="#000000">document_template</text>
<text text-anchor="start" x="413.0219" y="-166.8" font-family="Helvetica,sans-Serif" font-size="11.00" fill="#000000">[table]</text>
<polygon fill="none" stroke="#000000" points="274.5,-136.7 274.5,-158.7 447.5,-158.7 447.5,-136.7 274.5,-136.7"/>
<image xlink:href="../../images/primaryKeys.png" width="11px" height="12px" preserveAspectRatio="xMinYMin meet" x="279.5" y="-153.7"/>
<text text-anchor="start" x="303.5" y="-143.8" font-family="Helvetica,sans-Serif" font-size="11.00" fill="#000000">id</text>
<polygon fill="#ffffff" stroke="transparent" points="274.5,-114.7 274.5,-136.7 447.5,-136.7 447.5,-114.7 274.5,-114.7"/>
<polygon fill="none" stroke="#000000" points="274.5,-114.7 274.5,-136.7 447.5,-136.7 447.5,-114.7 274.5,-114.7"/>
<image xlink:href="../../images/foreignKeys.png" width="11px" height="12px" preserveAspectRatio="xMinYMin meet" x="279.5" y="-131.7"/>
<text text-anchor="start" x="303.5" y="-121.8" font-family="Helvetica,sans-Serif" font-size="11.00" fill="#000000">code</text>
<polygon fill="#ffffff" stroke="transparent" points="274.5,-92.7 274.5,-114.7 447.5,-114.7 447.5,-92.7 274.5,-92.7"/>
<polygon fill="none" stroke="#000000" points="274.5,-92.7 274.5,-114.7 447.5,-114.7 447.5,-92.7 274.5,-92.7"/>
<text text-anchor="start" x="303.5" y="-99.8" font-family="Helvetica,sans-Serif" font-size="11.00" fill="#000000">external_reference</text>
<polygon fill="none" stroke="#000000" points="274.5,-73.7 274.5,-92.7 447.5,-92.7 447.5,-73.7 274.5,-73.7"/>
<text text-anchor="start" x="277.5" y="-79.8" font-family="Helvetica,sans-Serif" font-size="11.00" fill="#000000">...</text>
<polygon fill="#ffffff" stroke="transparent" points="274.5,-54.7 274.5,-73.7 354.5,-73.7 354.5,-54.7 274.5,-54.7"/>
<polygon fill="none" stroke="#000000" points="274.5,-54.7 274.5,-73.7 354.5,-73.7 354.5,-54.7 274.5,-54.7"/>
<text text-anchor="start" x="277.5" y="-60.8" font-family="Helvetica,sans-Serif" font-size="11.00" fill="#000000">&lt; 1</text>
<polygon fill="#ffffff" stroke="transparent" points="354.5,-54.7 354.5,-73.7 396.5,-73.7 396.5,-54.7 354.5,-54.7"/>
<polygon fill="none" stroke="#000000" points="354.5,-54.7 354.5,-73.7 396.5,-73.7 396.5,-54.7 354.5,-54.7"/>
<text text-anchor="start" x="387.3862" y="-60.8" font-family="Helvetica,sans-Serif" font-size="11.00" fill="#000000"> &#160;</text>
<polygon fill="#ffffff" stroke="transparent" points="396.5,-54.7 396.5,-73.7 447.5,-73.7 447.5,-54.7 396.5,-54.7"/>
<polygon fill="none" stroke="#000000" points="396.5,-54.7 396.5,-73.7 447.5,-73.7 447.5,-54.7 396.5,-54.7"/>
<text text-anchor="start" x="428.9053" y="-60.8" font-family="Helvetica,sans-Serif" font-size="11.00" fill="#000000">3 &gt;</text>
</a>
</g>
</g>
<!-- document_generation_request&#45;&gt;document_template -->
<g id="edge1" class="edge">
<title>document_generation_request:w&#45;&gt;document_template:e</title>
<path fill="none" stroke="#000000" d="M484.219,-252.8206C456.2911,-233.4034 494.9261,-147.7 447.5,-147.7"/>
<polygon fill="#000000" stroke="#000000" points="490.7798,-254.6028 497.5563,-260.1741 494.6399,-255.6514 498.5,-256.7 498.5,-256.7 498.5,-256.7 494.6399,-255.6514 499.4437,-253.2259 490.7798,-254.6028 490.7798,-254.6028"/>
<ellipse fill="none" stroke="#000000" cx="487.6917" cy="-253.7639" rx="3.2" ry="3.2"/>
</g>
<!-- template_variable_domain -->
<g id="node3" class="node">
<title>template_variable_domain</title>
<g id="a_node3"><a xlink:href="../../tables/template_variable_domain.html" xlink:title="template_variable_domain" target="_top">
<polygon fill="#ffffff" stroke="transparent" points="8,-98.2 8,-159.2 225,-159.2 225,-98.2 8,-98.2"/>
<polygon fill="#f5f5f5" stroke="transparent" points="8.5,-135.7 8.5,-158.7 225.5,-158.7 225.5,-135.7 8.5,-135.7"/>
<polygon fill="none" stroke="#000000" points="8.5,-135.7 8.5,-158.7 225.5,-158.7 225.5,-135.7 8.5,-135.7"/>
<text text-anchor="start" x="13.5" y="-144.3" font-family="Helvetica,sans-Serif" font-weight="bold" font-size="11.00" fill="#000000">template_variable_domain</text>
<text text-anchor="start" x="191.0219" y="-143.8" font-family="Helvetica,sans-Serif" font-size="11.00" fill="#000000">[table]</text>
<polygon fill="none" stroke="#000000" points="8.5,-116.7 8.5,-135.7 225.5,-135.7 225.5,-116.7 8.5,-116.7"/>
<text text-anchor="start" x="11.5" y="-122.8" font-family="Helvetica,sans-Serif" font-size="11.00" fill="#000000">...</text>
<polygon fill="#ffffff" stroke="transparent" points="8.5,-97.7 8.5,-116.7 106.5,-116.7 106.5,-97.7 8.5,-97.7"/>
<polygon fill="none" stroke="#000000" points="8.5,-97.7 8.5,-116.7 106.5,-116.7 106.5,-97.7 8.5,-97.7"/>
<text text-anchor="start" x="11.5" y="-103.8" font-family="Helvetica,sans-Serif" font-size="11.00" fill="#000000"> &#160;</text>
<polygon fill="#ffffff" stroke="transparent" points="106.5,-97.7 106.5,-116.7 161.5,-116.7 161.5,-97.7 106.5,-97.7"/>
<polygon fill="none" stroke="#000000" points="106.5,-97.7 106.5,-116.7 161.5,-116.7 161.5,-97.7 106.5,-97.7"/>
<text text-anchor="start" x="152.3862" y="-103.8" font-family="Helvetica,sans-Serif" font-size="11.00" fill="#000000"> &#160;</text>
<polygon fill="#ffffff" stroke="transparent" points="161.5,-97.7 161.5,-116.7 225.5,-116.7 225.5,-97.7 161.5,-97.7"/>
<polygon fill="none" stroke="#000000" points="161.5,-97.7 161.5,-116.7 225.5,-116.7 225.5,-97.7 161.5,-97.7"/>
<text text-anchor="start" x="206.9053" y="-103.8" font-family="Helvetica,sans-Serif" font-size="11.00" fill="#000000">5 &gt;</text>
</a>
</g>
</g>
<!-- document_template&#45;&gt;template_variable_domain -->
<g id="edge2" class="edge">
<title>document_template:w&#45;&gt;template_variable_domain:e</title>
<path fill="none" stroke="#000000" stroke-dasharray="5,2" d="M263.7573,-125.7C250.1063,-125.7 243.1944,-125.7 225.5,-125.7"/>
<polygon fill="#000000" stroke="#000000" points="273.7,-121.7 273.7,-129.7 272.1,-129.7 272.1,-121.7 273.7,-121.7"/>
<polyline fill="none" stroke="#000000" points="274.5,-125.7 270.5,-125.7 "/>
<ellipse fill="none" stroke="#000000" cx="267.3" cy="-125.7001" rx="3.2" ry="3.2"/>
</g>
<!-- document_template_group -->
<g id="node4" class="node">
<title>document_template_group</title>
<g id="a_node4"><a xlink:href="../../tables/document_template_group.html" xlink:title="document_template_group" target="_top">
<polygon fill="#ffffff" stroke="transparent" points="551,-120.2 551,-181.2 770,-181.2 770,-120.2 551,-120.2"/>
<polygon fill="#f5f5f5" stroke="transparent" points="551.5,-157.7 551.5,-180.7 770.5,-180.7 770.5,-157.7 551.5,-157.7"/>
<polygon fill="none" stroke="#000000" points="551.5,-157.7 551.5,-180.7 770.5,-180.7 770.5,-157.7 551.5,-157.7"/>
<text text-anchor="start" x="556.5" y="-166.3" font-family="Helvetica,sans-Serif" font-weight="bold" font-size="11.00" fill="#000000">document_template_group</text>
<text text-anchor="start" x="736.0219" y="-165.8" font-family="Helvetica,sans-Serif" font-size="11.00" fill="#000000">[table]</text>
<polygon fill="none" stroke="#000000" points="551.5,-138.7 551.5,-157.7 770.5,-157.7 770.5,-138.7 551.5,-138.7"/>
<text text-anchor="start" x="554.5" y="-144.8" font-family="Helvetica,sans-Serif" font-size="11.00" fill="#000000">...</text>
<polygon fill="#ffffff" stroke="transparent" points="551.5,-119.7 551.5,-138.7 659.5,-138.7 659.5,-119.7 551.5,-119.7"/>
<polygon fill="none" stroke="#000000" points="551.5,-119.7 551.5,-138.7 659.5,-138.7 659.5,-119.7 551.5,-119.7"/>
<text text-anchor="start" x="554.5" y="-125.8" font-family="Helvetica,sans-Serif" font-size="11.00" fill="#000000">&lt; 2</text>
<polygon fill="#ffffff" stroke="transparent" points="659.5,-119.7 659.5,-138.7 714.5,-138.7 714.5,-119.7 659.5,-119.7"/>
<polygon fill="none" stroke="#000000" points="659.5,-119.7 659.5,-138.7 714.5,-138.7 714.5,-119.7 659.5,-119.7"/>
<text text-anchor="start" x="705.3862" y="-125.8" font-family="Helvetica,sans-Serif" font-size="11.00" fill="#000000"> &#160;</text>
<polygon fill="#ffffff" stroke="transparent" points="714.5,-119.7 714.5,-138.7 770.5,-138.7 770.5,-119.7 714.5,-119.7"/>
<polygon fill="none" stroke="#000000" points="714.5,-119.7 714.5,-138.7 770.5,-138.7 770.5,-119.7 714.5,-119.7"/>
<text text-anchor="start" x="761.3862" y="-125.8" font-family="Helvetica,sans-Serif" font-size="11.00" fill="#000000"> &#160;</text>
</a>
</g>
</g>
<!-- document_template_group&#45;&gt;document_template -->
<g id="edge3" class="edge">
<title>document_template_group:w&#45;&gt;document_template:e</title>
<path fill="none" stroke="#000000" d="M537.0255,-147.7C502.2149,-147.7 488.4861,-147.7 447.5,-147.7"/>
<polygon fill="#000000" stroke="#000000" points="543.5,-147.7001 551.5,-151.3 547.5,-147.7 551.5,-147.7 551.5,-147.7 551.5,-147.7 547.5,-147.7 551.5,-144.1 543.5,-147.7001 543.5,-147.7001"/>
<ellipse fill="none" stroke="#000000" cx="540.3" cy="-147.7001" rx="3.2" ry="3.2"/>
</g>
<!-- document_template_variable -->
<g id="node5" class="node">
<title>document_template_variable</title>
<g id="a_node5"><a xlink:href="../../tables/document_template_variable.html" xlink:title="document_template_variable" target="_top">
<polygon fill="#ffffff" stroke="transparent" points="543.5,-38.2 543.5,-99.2 777.5,-99.2 777.5,-38.2 543.5,-38.2"/>
<polygon fill="#f5f5f5" stroke="transparent" points="543.5,-75.7 543.5,-98.7 777.5,-98.7 777.5,-75.7 543.5,-75.7"/>
<polygon fill="none" stroke="#000000" points="543.5,-75.7 543.5,-98.7 777.5,-98.7 777.5,-75.7 543.5,-75.7"/>
<text text-anchor="start" x="548.5" y="-84.3" font-family="Helvetica,sans-Serif" font-weight="bold" font-size="11.00" fill="#000000">document_template_variable</text>
<text text-anchor="start" x="743.0219" y="-83.8" font-family="Helvetica,sans-Serif" font-size="11.00" fill="#000000">[table]</text>
<polygon fill="none" stroke="#000000" points="543.5,-56.7 543.5,-75.7 777.5,-75.7 777.5,-56.7 543.5,-56.7"/>
<text text-anchor="start" x="546.5" y="-62.8" font-family="Helvetica,sans-Serif" font-size="11.00" fill="#000000">...</text>
<polygon fill="#ffffff" stroke="transparent" points="543.5,-37.7 543.5,-56.7 658.5,-56.7 658.5,-37.7 543.5,-37.7"/>
<polygon fill="none" stroke="#000000" points="543.5,-37.7 543.5,-56.7 658.5,-56.7 658.5,-37.7 543.5,-37.7"/>
<text text-anchor="start" x="546.5" y="-43.8" font-family="Helvetica,sans-Serif" font-size="11.00" fill="#000000">&lt; 2</text>
<polygon fill="#ffffff" stroke="transparent" points="658.5,-37.7 658.5,-56.7 717.5,-56.7 717.5,-37.7 658.5,-37.7"/>
<polygon fill="none" stroke="#000000" points="658.5,-37.7 658.5,-56.7 717.5,-56.7 717.5,-37.7 658.5,-37.7"/>
<text text-anchor="start" x="708.3862" y="-43.8" font-family="Helvetica,sans-Serif" font-size="11.00" fill="#000000"> &#160;</text>
<polygon fill="#ffffff" stroke="transparent" points="717.5,-37.7 717.5,-56.7 777.5,-56.7 777.5,-37.7 717.5,-37.7"/>
<polygon fill="none" stroke="#000000" points="717.5,-37.7 717.5,-56.7 777.5,-56.7 777.5,-37.7 717.5,-37.7"/>
<text text-anchor="start" x="768.3862" y="-43.8" font-family="Helvetica,sans-Serif" font-size="11.00" fill="#000000"> &#160;</text>
</a>
</g>
</g>
<!-- document_template_variable&#45;&gt;document_template -->
<g id="edge4" class="edge">
<title>document_template_variable:w&#45;&gt;document_template:e</title>
<path fill="none" stroke="#000000" d="M529.2433,-67.8174C511.1903,-74.0293 507.5495,-92.8304 488,-109.7 469.3129,-125.8254 472.1827,-147.7 447.5,-147.7"/>
<polygon fill="#000000" stroke="#000000" points="535.5868,-66.8753 544.0289,-69.2609 539.5434,-66.2877 543.5,-65.7 543.5,-65.7 543.5,-65.7 539.5434,-66.2877 542.9711,-62.1391 535.5868,-66.8753 535.5868,-66.8753"/>
<ellipse fill="none" stroke="#000000" cx="532.4215" cy="-67.3454" rx="3.2" ry="3.2"/>
</g>
</g>
</svg>
