<?xml version="1.0" encoding="UTF-8" standalone="no"?>
<!DOCTYPE svg PUBLIC "-//W3C//DTD SVG 1.1//EN"
 "http://www.w3.org/Graphics/SVG/1.1/DTD/svg11.dtd">
<!-- Generated by graphviz version 2.40.1 (20161225.0304)
 -->
<!-- Title: twoDegreesRelationshipsDiagram Pages: 1 -->
<svg width="547pt" height="453pt"
 viewBox="0.00 0.00 547.00 453.20" xmlns="http://www.w3.org/2000/svg" xmlns:xlink="http://www.w3.org/1999/xlink">
<g id="graph0" class="graph" transform="scale(1 1) rotate(0) translate(4 449.2)">
<title>twoDegreesRelationshipsDiagram</title>
<polygon fill="#ffffff" stroke="transparent" points="-4,4 -4,-449.2 543,-449.2 543,4 -4,4"/>
<text text-anchor="middle" x="72.4936" y="-7.3" font-family="Helvetica,sans-Serif" font-size="11.00" fill="#000000">Generated by SchemaSpy</text>
<!-- document_generation_request_audit -->
<g id="node1" class="node">
<title>document_generation_request_audit</title>
<g id="a_node1"><a xlink:href="../../tables/document_generation_request_audit.html" xlink:title="document_generation_request_audit" target="_top">
<polygon fill="#ffffff" stroke="transparent" points="218.5,-380.2 218.5,-441.2 503.5,-441.2 503.5,-380.2 218.5,-380.2"/>
<polygon fill="#f5f5f5" stroke="transparent" points="219,-417.7 219,-440.7 504,-440.7 504,-417.7 219,-417.7"/>
<polygon fill="none" stroke="#000000" points="219,-417.7 219,-440.7 504,-440.7 504,-417.7 219,-417.7"/>
<text text-anchor="start" x="224" y="-426.3" font-family="Helvetica,sans-Serif" font-weight="bold" font-size="11.00" fill="#000000">document_generation_request_audit</text>
<text text-anchor="start" x="469.5219" y="-425.8" font-family="Helvetica,sans-Serif" font-size="11.00" fill="#000000">[table]</text>
<polygon fill="none" stroke="#000000" points="219,-398.7 219,-417.7 504,-417.7 504,-398.7 219,-398.7"/>
<text text-anchor="start" x="222" y="-404.8" font-family="Helvetica,sans-Serif" font-size="11.00" fill="#000000">...</text>
<polygon fill="#ffffff" stroke="transparent" points="219,-379.7 219,-398.7 360,-398.7 360,-379.7 219,-379.7"/>
<polygon fill="none" stroke="#000000" points="219,-379.7 219,-398.7 360,-398.7 360,-379.7 219,-379.7"/>
<text text-anchor="start" x="222" y="-385.8" font-family="Helvetica,sans-Serif" font-size="11.00" fill="#000000">&lt; 1</text>
<polygon fill="#ffffff" stroke="transparent" points="360,-379.7 360,-398.7 432,-398.7 432,-379.7 360,-379.7"/>
<polygon fill="none" stroke="#000000" points="360,-379.7 360,-398.7 432,-398.7 432,-379.7 360,-379.7"/>
<text text-anchor="start" x="422.8862" y="-385.8" font-family="Helvetica,sans-Serif" font-size="11.00" fill="#000000"> &#160;</text>
<polygon fill="#ffffff" stroke="transparent" points="432,-379.7 432,-398.7 504,-398.7 504,-379.7 432,-379.7"/>
<polygon fill="none" stroke="#000000" points="432,-379.7 432,-398.7 504,-398.7 504,-379.7 432,-379.7"/>
<text text-anchor="start" x="494.8862" y="-385.8" font-family="Helvetica,sans-Serif" font-size="11.00" fill="#000000"> &#160;</text>
</a>
</g>
</g>
<!-- audit_revision -->
<g id="node2" class="node">
<title>audit_revision</title>
<g id="a_node2"><a xlink:href="../../tables/audit_revision.html" xlink:title="audit_revision" target="_top">
<polygon fill="#ffffff" stroke="transparent" points="8,-234.2 8,-317.2 142,-317.2 142,-234.2 8,-234.2"/>
<polygon fill="#f5f5f5" stroke="transparent" points="8,-293.7 8,-316.7 142,-316.7 142,-293.7 8,-293.7"/>
<polygon fill="none" stroke="#000000" points="8,-293.7 8,-316.7 142,-316.7 142,-293.7 8,-293.7"/>
<text text-anchor="start" x="13" y="-302.3" font-family="Helvetica,sans-Serif" font-weight="bold" font-size="11.00" fill="#000000">audit_revision</text>
<text text-anchor="start" x="107.5219" y="-301.8" font-family="Helvetica,sans-Serif" font-size="11.00" fill="#000000">[table]</text>
<polygon fill="none" stroke="#000000" points="8,-271.7 8,-293.7 142,-293.7 142,-271.7 8,-271.7"/>
<image xlink:href="../../images/primaryKeys.png" width="11px" height="12px" preserveAspectRatio="xMinYMin meet" x="13" y="-288.7"/>
<text text-anchor="start" x="37" y="-278.8" font-family="Helvetica,sans-Serif" font-size="11.00" fill="#000000">id</text>
<polygon fill="none" stroke="#000000" points="8,-252.7 8,-271.7 142,-271.7 142,-252.7 8,-252.7"/>
<text text-anchor="start" x="11" y="-258.8" font-family="Helvetica,sans-Serif" font-size="11.00" fill="#000000">...</text>
<polygon fill="#ffffff" stroke="transparent" points="8,-233.7 8,-252.7 64,-252.7 64,-233.7 8,-233.7"/>
<polygon fill="none" stroke="#000000" points="8,-233.7 8,-252.7 64,-252.7 64,-233.7 8,-233.7"/>
<text text-anchor="start" x="11" y="-239.8" font-family="Helvetica,sans-Serif" font-size="11.00" fill="#000000"> &#160;</text>
<polygon fill="#ffffff" stroke="transparent" points="64,-233.7 64,-252.7 98,-252.7 98,-233.7 64,-233.7"/>
<polygon fill="none" stroke="#000000" points="64,-233.7 64,-252.7 98,-252.7 98,-233.7 64,-233.7"/>
<text text-anchor="start" x="88.8862" y="-239.8" font-family="Helvetica,sans-Serif" font-size="11.00" fill="#000000"> &#160;</text>
<polygon fill="#ffffff" stroke="transparent" points="98,-233.7 98,-252.7 142,-252.7 142,-233.7 98,-233.7"/>
<polygon fill="none" stroke="#000000" points="98,-233.7 98,-252.7 142,-252.7 142,-233.7 98,-233.7"/>
<text text-anchor="start" x="123.4053" y="-239.8" font-family="Helvetica,sans-Serif" font-size="11.00" fill="#000000">4 &gt;</text>
</a>
</g>
</g>
<!-- document_generation_request_audit&#45;&gt;audit_revision -->
<g id="edge1" class="edge">
<title>document_generation_request_audit:w&#45;&gt;audit_revision:e</title>
<path fill="none" stroke="#000000" d="M204.7713,-404.0669C194.9886,-397.6878 192.6382,-383.8066 183,-369.7 158.8858,-334.406 184.7453,-282.7 142,-282.7"/>
<polygon fill="#000000" stroke="#000000" points="211.2487,-405.7208 218.1093,-411.1881 215.1243,-406.7104 219,-407.7 219,-407.7 219,-407.7 215.1243,-406.7104 219.8907,-404.2119 211.2487,-405.7208 211.2487,-405.7208"/>
<ellipse fill="none" stroke="#000000" cx="208.1482" cy="-404.9291" rx="3.2" ry="3.2"/>
</g>
<!-- document_template_audit -->
<g id="node3" class="node">
<title>document_template_audit</title>
<g id="a_node3"><a xlink:href="../../tables/document_template_audit.html" xlink:title="document_template_audit" target="_top">
<polygon fill="#ffffff" stroke="transparent" points="254,-298.2 254,-359.2 468,-359.2 468,-298.2 254,-298.2"/>
<polygon fill="#f5f5f5" stroke="transparent" points="254,-335.7 254,-358.7 468,-358.7 468,-335.7 254,-335.7"/>
<polygon fill="none" stroke="#000000" points="254,-335.7 254,-358.7 468,-358.7 468,-335.7 254,-335.7"/>
<text text-anchor="start" x="259" y="-344.3" font-family="Helvetica,sans-Serif" font-weight="bold" font-size="11.00" fill="#000000">document_template_audit</text>
<text text-anchor="start" x="433.5219" y="-343.8" font-family="Helvetica,sans-Serif" font-size="11.00" fill="#000000">[table]</text>
<polygon fill="none" stroke="#000000" points="254,-316.7 254,-335.7 468,-335.7 468,-316.7 254,-316.7"/>
<text text-anchor="start" x="257" y="-322.8" font-family="Helvetica,sans-Serif" font-size="11.00" fill="#000000">...</text>
<polygon fill="#ffffff" stroke="transparent" points="254,-297.7 254,-316.7 359,-316.7 359,-297.7 254,-297.7"/>
<polygon fill="none" stroke="#000000" points="254,-297.7 254,-316.7 359,-316.7 359,-297.7 254,-297.7"/>
<text text-anchor="start" x="257" y="-303.8" font-family="Helvetica,sans-Serif" font-size="11.00" fill="#000000">&lt; 1</text>
<polygon fill="#ffffff" stroke="transparent" points="359,-297.7 359,-316.7 413,-316.7 413,-297.7 359,-297.7"/>
<polygon fill="none" stroke="#000000" points="359,-297.7 359,-316.7 413,-316.7 413,-297.7 359,-297.7"/>
<text text-anchor="start" x="403.8862" y="-303.8" font-family="Helvetica,sans-Serif" font-size="11.00" fill="#000000"> &#160;</text>
<polygon fill="#ffffff" stroke="transparent" points="413,-297.7 413,-316.7 468,-316.7 468,-297.7 413,-297.7"/>
<polygon fill="none" stroke="#000000" points="413,-297.7 413,-316.7 468,-316.7 468,-297.7 413,-297.7"/>
<text text-anchor="start" x="458.8862" y="-303.8" font-family="Helvetica,sans-Serif" font-size="11.00" fill="#000000"> &#160;</text>
</a>
</g>
</g>
<!-- document_template_audit&#45;&gt;audit_revision -->
<g id="edge2" class="edge">
<title>document_template_audit:w&#45;&gt;audit_revision:e</title>
<path fill="none" stroke="#000000" d="M239.3992,-324.5051C199.1361,-317.5602 190.0092,-282.7 142,-282.7"/>
<polygon fill="#000000" stroke="#000000" points="246.0267,-325.0474 253.7063,-329.288 250.0133,-325.3737 254,-325.7 254,-325.7 254,-325.7 250.0133,-325.3737 254.2937,-322.112 246.0267,-325.0474 246.0267,-325.0474"/>
<ellipse fill="none" stroke="#000000" cx="242.8373" cy="-324.7864" rx="3.2" ry="3.2"/>
</g>
<!-- document_template_group_audit -->
<g id="node4" class="node">
<title>document_template_group_audit</title>
<g id="a_node4"><a xlink:href="../../tables/document_template_group_audit.html" xlink:title="document_template_group_audit" target="_top">
<polygon fill="#ffffff" stroke="transparent" points="191,-120.7 191,-276.7 531,-276.7 531,-120.7 191,-120.7"/>
<polygon fill="#f5f5f5" stroke="transparent" points="193,-251.7 193,-274.7 529,-274.7 529,-251.7 193,-251.7"/>
<polygon fill="none" stroke="#000000" points="193,-251.7 193,-274.7 529,-274.7 529,-251.7 193,-251.7"/>
<text text-anchor="start" x="198" y="-260.3" font-family="Helvetica,sans-Serif" font-weight="bold" font-size="11.00" fill="#000000">document_template_group_audit</text>
<text text-anchor="start" x="494.0437" y="-259.8" font-family="Helvetica,sans-Serif" font-size="11.00" fill="#000000">[table]</text>
<polygon fill="none" stroke="#000000" points="193,-229.7 193,-251.7 435,-251.7 435,-229.7 193,-229.7"/>
<image xlink:href="../../images/primaryKeys.png" width="11px" height="12px" preserveAspectRatio="xMinYMin meet" x="198" y="-246.7"/>
<text text-anchor="start" x="213" y="-236.8" font-family="Helvetica,sans-Serif" font-size="11.00" fill="#000000">rev_id</text>
<polygon fill="none" stroke="#000000" points="435,-229.7 435,-251.7 529,-251.7 529,-229.7 435,-229.7"/>
<text text-anchor="start" x="438" y="-237.4" font-family="Helvetica,sans-Serif" font-size="11.00" fill="#000000">int8[19]</text>
<polygon fill="none" stroke="#000000" points="193,-207.7 193,-229.7 435,-229.7 435,-207.7 193,-207.7"/>
<text text-anchor="start" x="213" y="-214.8" font-family="Helvetica,sans-Serif" font-size="11.00" fill="#000000">rev_type</text>
<polygon fill="none" stroke="#000000" points="435,-207.7 435,-229.7 529,-229.7 529,-207.7 435,-207.7"/>
<text text-anchor="start" x="438" y="-215.4" font-family="Helvetica,sans-Serif" font-size="11.00" fill="#000000">int2[5]</text>
<polygon fill="none" stroke="#000000" points="193,-185.7 193,-207.7 435,-207.7 435,-185.7 193,-185.7"/>
<image xlink:href="../../images/primaryKeys.png" width="11px" height="12px" preserveAspectRatio="xMinYMin meet" x="198" y="-202.7"/>
<text text-anchor="start" x="213" y="-192.8" font-family="Helvetica,sans-Serif" font-size="11.00" fill="#000000">id</text>
<polygon fill="none" stroke="#000000" points="435,-185.7 435,-207.7 529,-207.7 529,-185.7 435,-185.7"/>
<text text-anchor="start" x="437.9758" y="-193.4" font-family="Helvetica,sans-Serif" font-size="11.00" fill="#000000">uuid[2147483647]</text>
<polygon fill="#ffffff" stroke="transparent" points="193,-163.7 193,-185.7 435,-185.7 435,-163.7 193,-163.7"/>
<polygon fill="none" stroke="#000000" points="193,-163.7 193,-185.7 435,-185.7 435,-163.7 193,-163.7"/>
<text text-anchor="start" x="213" y="-170.8" font-family="Helvetica,sans-Serif" font-size="11.00" fill="#000000">template_id</text>
<polygon fill="none" stroke="#000000" points="435,-163.7 435,-185.7 529,-185.7 529,-163.7 435,-163.7"/>
<text text-anchor="start" x="437.9758" y="-171.4" font-family="Helvetica,sans-Serif" font-size="11.00" fill="#000000">uuid[2147483647]</text>
<polygon fill="#ffffff" stroke="transparent" points="193,-141.7 193,-163.7 435,-163.7 435,-141.7 193,-141.7"/>
<polygon fill="none" stroke="#000000" points="193,-141.7 193,-163.7 435,-163.7 435,-141.7 193,-141.7"/>
<text text-anchor="start" x="213" y="-148.8" font-family="Helvetica,sans-Serif" font-size="11.00" fill="#000000">template_group_id</text>
<polygon fill="none" stroke="#000000" points="435,-141.7 435,-163.7 529,-163.7 529,-141.7 435,-141.7"/>
<text text-anchor="start" x="437.9758" y="-149.4" font-family="Helvetica,sans-Serif" font-size="11.00" fill="#000000">uuid[2147483647]</text>
<polygon fill="#ffffff" stroke="transparent" points="193,-122.7 193,-141.7 318,-141.7 318,-122.7 193,-122.7"/>
<polygon fill="none" stroke="#000000" points="193,-122.7 193,-141.7 318,-141.7 318,-122.7 193,-122.7"/>
<text text-anchor="start" x="196" y="-128.8" font-family="Helvetica,sans-Serif" font-size="11.00" fill="#000000">&lt; 1</text>
<polygon fill="#ffffff" stroke="transparent" points="318,-122.7 318,-141.7 435,-141.7 435,-122.7 318,-122.7"/>
<polygon fill="none" stroke="#000000" points="318,-122.7 318,-141.7 435,-141.7 435,-122.7 318,-122.7"/>
<text text-anchor="start" x="425.8862" y="-128.8" font-family="Helvetica,sans-Serif" font-size="11.00" fill="#000000"> &#160;</text>
<polygon fill="#ffffff" stroke="transparent" points="435,-122.7 435,-141.7 529,-141.7 529,-122.7 435,-122.7"/>
<polygon fill="none" stroke="#000000" points="435,-122.7 435,-141.7 529,-141.7 529,-122.7 435,-122.7"/>
<text text-anchor="start" x="510.4053" y="-128.8" font-family="Helvetica,sans-Serif" font-size="11.00" fill="#000000">0 &gt;</text>
<polygon fill="none" stroke="#000000" stroke-width="2" points="192,-121.7 192,-275.7 530,-275.7 530,-121.7 192,-121.7"/>
</a>
</g>
</g>
<!-- document_template_group_audit&#45;&gt;audit_revision -->
<g id="edge3" class="edge">
<title>document_template_group_audit:w&#45;&gt;audit_revision:e</title>
<path fill="none" stroke="#000000" d="M179.0759,-245.1947C165.2452,-256.0296 165.3991,-282.7 142,-282.7"/>
<polygon fill="#000000" stroke="#000000" points="185.3868,-243.1576 194.1059,-244.1259 189.1934,-241.9288 193,-240.7 193,-240.7 193,-240.7 189.1934,-241.9288 191.8941,-237.2741 185.3868,-243.1576 185.3868,-243.1576"/>
<ellipse fill="none" stroke="#000000" cx="182.3416" cy="-244.1406" rx="3.2" ry="3.2"/>
</g>
<!-- document_template_variable_audit -->
<g id="node5" class="node">
<title>document_template_variable_audit</title>
<g id="a_node5"><a xlink:href="../../tables/document_template_variable_audit.html" xlink:title="document_template_variable_audit" target="_top">
<polygon fill="#ffffff" stroke="transparent" points="223.5,-38.2 223.5,-99.2 498.5,-99.2 498.5,-38.2 223.5,-38.2"/>
<polygon fill="#f5f5f5" stroke="transparent" points="224,-75.7 224,-98.7 499,-98.7 499,-75.7 224,-75.7"/>
<polygon fill="none" stroke="#000000" points="224,-75.7 224,-98.7 499,-98.7 499,-75.7 224,-75.7"/>
<text text-anchor="start" x="229" y="-84.3" font-family="Helvetica,sans-Serif" font-weight="bold" font-size="11.00" fill="#000000">document_template_variable_audit</text>
<text text-anchor="start" x="464.5219" y="-83.8" font-family="Helvetica,sans-Serif" font-size="11.00" fill="#000000">[table]</text>
<polygon fill="none" stroke="#000000" points="224,-56.7 224,-75.7 499,-75.7 499,-56.7 224,-56.7"/>
<text text-anchor="start" x="227" y="-62.8" font-family="Helvetica,sans-Serif" font-size="11.00" fill="#000000">...</text>
<polygon fill="#ffffff" stroke="transparent" points="224,-37.7 224,-56.7 360,-56.7 360,-37.7 224,-37.7"/>
<polygon fill="none" stroke="#000000" points="224,-37.7 224,-56.7 360,-56.7 360,-37.7 224,-37.7"/>
<text text-anchor="start" x="227" y="-43.8" font-family="Helvetica,sans-Serif" font-size="11.00" fill="#000000">&lt; 1</text>
<polygon fill="#ffffff" stroke="transparent" points="360,-37.7 360,-56.7 429,-56.7 429,-37.7 360,-37.7"/>
<polygon fill="none" stroke="#000000" points="360,-37.7 360,-56.7 429,-56.7 429,-37.7 360,-37.7"/>
<text text-anchor="start" x="419.8862" y="-43.8" font-family="Helvetica,sans-Serif" font-size="11.00" fill="#000000"> &#160;</text>
<polygon fill="#ffffff" stroke="transparent" points="429,-37.7 429,-56.7 499,-56.7 499,-37.7 429,-37.7"/>
<polygon fill="none" stroke="#000000" points="429,-37.7 429,-56.7 499,-56.7 499,-37.7 429,-37.7"/>
<text text-anchor="start" x="489.8862" y="-43.8" font-family="Helvetica,sans-Serif" font-size="11.00" fill="#000000"> &#160;</text>
</a>
</g>
</g>
<!-- document_template_variable_audit&#45;&gt;audit_revision -->
<g id="edge4" class="edge">
<title>document_template_variable_audit:w&#45;&gt;audit_revision:e</title>
<path fill="none" stroke="#000000" d="M209.5539,-68.5355C195.8339,-75.0592 192.882,-92.0143 183,-110.7 146.2608,-180.1696 220.5863,-282.7 142,-282.7"/>
<polygon fill="#000000" stroke="#000000" points="216.1498,-67.2409 224.6934,-69.2326 220.0749,-66.4704 224,-65.7 224,-65.7 224,-65.7 220.0749,-66.4704 223.3066,-62.1674 216.1498,-67.2409 216.1498,-67.2409"/>
<ellipse fill="none" stroke="#000000" cx="213.0097" cy="-67.8572" rx="3.2" ry="3.2"/>
</g>
</g>
</svg>
