<?xml version="1.0" encoding="UTF-8" standalone="no"?>
<!DOCTYPE svg PUBLIC "-//W3C//DTD SVG 1.1//EN"
 "http://www.w3.org/Graphics/SVG/1.1/DTD/svg11.dtd">
<!-- Generated by graphviz version 2.40.1 (20161225.0304)
 -->
<!-- Title: oneDegreeRelationshipsDiagramImplied Pages: 1 -->
<svg width="826pt" height="313pt"
 viewBox="0.00 0.00 826.00 313.20" xmlns="http://www.w3.org/2000/svg" xmlns:xlink="http://www.w3.org/1999/xlink">
<g id="graph0" class="graph" transform="scale(1 1) rotate(0) translate(4 309.2)">
<title>oneDegreeRelationshipsDiagramImplied</title>
<polygon fill="#ffffff" stroke="transparent" points="-4,4 -4,-309.2 822,-309.2 822,4 -4,4"/>
<text text-anchor="middle" x="72.4936" y="-7.3" font-family="Helvetica,sans-Serif" font-size="11.00" fill="#000000">Generated by SchemaSpy</text>
<!-- document_template -->
<g id="node1" class="node">
<title>document_template</title>
<g id="a_node1"><a xlink:href="../../tables/document_template.html" xlink:title="document_template" target="_top">
<polygon fill="#ffffff" stroke="transparent" points="274,-38.2 274,-216.2 527,-216.2 527,-38.2 274,-38.2"/>
<polygon fill="#f5f5f5" stroke="transparent" points="276.5,-191.2 276.5,-214.2 525.5,-214.2 525.5,-191.2 276.5,-191.2"/>
<polygon fill="none" stroke="#000000" points="276.5,-191.2 276.5,-214.2 525.5,-214.2 525.5,-191.2 276.5,-191.2"/>
<text text-anchor="start" x="281.5" y="-199.8" font-family="Helvetica,sans-Serif" font-weight="bold" font-size="11.00" fill="#000000">document_template</text>
<text text-anchor="start" x="490.5437" y="-199.3" font-family="Helvetica,sans-Serif" font-size="11.00" fill="#000000">[table]</text>
<polygon fill="none" stroke="#000000" points="276.5,-169.2 276.5,-191.2 431.5,-191.2 431.5,-169.2 276.5,-169.2"/>
<image xlink:href="../../images/primaryKeys.png" width="11px" height="12px" preserveAspectRatio="xMinYMin meet" x="281.5" y="-186.2"/>
<text text-anchor="start" x="296.5" y="-176.3" font-family="Helvetica,sans-Serif" font-size="11.00" fill="#000000">id</text>
<polygon fill="none" stroke="#000000" points="431.5,-169.2 431.5,-191.2 525.5,-191.2 525.5,-169.2 431.5,-169.2"/>
<text text-anchor="start" x="434.4758" y="-176.9" font-family="Helvetica,sans-Serif" font-size="11.00" fill="#000000">uuid[2147483647]</text>
<polygon fill="#ffffff" stroke="transparent" points="276.5,-147.2 276.5,-169.2 431.5,-169.2 431.5,-147.2 276.5,-147.2"/>
<polygon fill="none" stroke="#000000" points="276.5,-147.2 276.5,-169.2 431.5,-169.2 431.5,-147.2 276.5,-147.2"/>
<image xlink:href="../../images/foreignKeys.png" width="11px" height="12px" preserveAspectRatio="xMinYMin meet" x="281.5" y="-164.2"/>
<text text-anchor="start" x="296.5" y="-154.3" font-family="Helvetica,sans-Serif" font-size="11.00" fill="#000000">code</text>
<polygon fill="none" stroke="#000000" points="431.5,-147.2 431.5,-169.2 525.5,-169.2 525.5,-147.2 431.5,-147.2"/>
<text text-anchor="start" x="434.5" y="-154.9" font-family="Helvetica,sans-Serif" font-size="11.00" fill="#000000">text[2147483647]</text>
<polygon fill="none" stroke="#000000" points="276.5,-125.2 276.5,-147.2 431.5,-147.2 431.5,-125.2 276.5,-125.2"/>
<text text-anchor="start" x="296.5" y="-132.3" font-family="Helvetica,sans-Serif" font-size="11.00" fill="#000000">name</text>
<polygon fill="none" stroke="#000000" points="431.5,-125.2 431.5,-147.2 525.5,-147.2 525.5,-125.2 431.5,-125.2"/>
<text text-anchor="start" x="434.5" y="-132.9" font-family="Helvetica,sans-Serif" font-size="11.00" fill="#000000">text[2147483647]</text>
<polygon fill="none" stroke="#000000" points="276.5,-103.2 276.5,-125.2 431.5,-125.2 431.5,-103.2 276.5,-103.2"/>
<text text-anchor="start" x="296.5" y="-110.3" font-family="Helvetica,sans-Serif" font-size="11.00" fill="#000000">description</text>
<polygon fill="none" stroke="#000000" points="431.5,-103.2 431.5,-125.2 525.5,-125.2 525.5,-103.2 431.5,-103.2"/>
<text text-anchor="start" x="434.5" y="-110.9" font-family="Helvetica,sans-Serif" font-size="11.00" fill="#000000">text[2147483647]</text>
<polygon fill="none" stroke="#000000" points="276.5,-81.2 276.5,-103.2 431.5,-103.2 431.5,-81.2 276.5,-81.2"/>
<text text-anchor="start" x="296.5" y="-88.3" font-family="Helvetica,sans-Serif" font-size="11.00" fill="#000000">version</text>
<polygon fill="none" stroke="#000000" points="431.5,-81.2 431.5,-103.2 525.5,-103.2 525.5,-81.2 431.5,-81.2"/>
<text text-anchor="start" x="434.5" y="-88.9" font-family="Helvetica,sans-Serif" font-size="11.00" fill="#000000">int4[10]</text>
<polygon fill="#ffffff" stroke="transparent" points="276.5,-59.2 276.5,-81.2 431.5,-81.2 431.5,-59.2 276.5,-59.2"/>
<polygon fill="none" stroke="#000000" points="276.5,-59.2 276.5,-81.2 431.5,-81.2 431.5,-59.2 276.5,-59.2"/>
<text text-anchor="start" x="296.5" y="-66.3" font-family="Helvetica,sans-Serif" font-size="11.00" fill="#000000">external_reference</text>
<polygon fill="none" stroke="#000000" points="431.5,-59.2 431.5,-81.2 525.5,-81.2 525.5,-59.2 431.5,-59.2"/>
<text text-anchor="start" x="434.4758" y="-66.9" font-family="Helvetica,sans-Serif" font-size="11.00" fill="#000000">uuid[2147483647]</text>
<polygon fill="#ffffff" stroke="transparent" points="276.5,-40.2 276.5,-59.2 358.5,-59.2 358.5,-40.2 276.5,-40.2"/>
<polygon fill="none" stroke="#000000" points="276.5,-40.2 276.5,-59.2 358.5,-59.2 358.5,-40.2 276.5,-40.2"/>
<text text-anchor="start" x="279.5" y="-46.3" font-family="Helvetica,sans-Serif" font-size="11.00" fill="#000000">&lt; 1</text>
<polygon fill="#ffffff" stroke="transparent" points="358.5,-40.2 358.5,-59.2 431.5,-59.2 431.5,-40.2 358.5,-40.2"/>
<polygon fill="none" stroke="#000000" points="358.5,-40.2 358.5,-59.2 431.5,-59.2 431.5,-40.2 358.5,-40.2"/>
<text text-anchor="start" x="422.3862" y="-46.3" font-family="Helvetica,sans-Serif" font-size="11.00" fill="#000000"> &#160;</text>
<polygon fill="#ffffff" stroke="transparent" points="431.5,-40.2 431.5,-59.2 525.5,-59.2 525.5,-40.2 431.5,-40.2"/>
<polygon fill="none" stroke="#000000" points="431.5,-40.2 431.5,-59.2 525.5,-59.2 525.5,-40.2 431.5,-40.2"/>
<text text-anchor="start" x="506.9053" y="-46.3" font-family="Helvetica,sans-Serif" font-size="11.00" fill="#000000">2 &gt;</text>
<polygon fill="none" stroke="#000000" stroke-width="2" points="275,-39.2 275,-215.2 526,-215.2 526,-39.2 275,-39.2"/>
</a>
</g>
</g>
<!-- template_variable_domain -->
<g id="node2" class="node">
<title>template_variable_domain</title>
<g id="a_node2"><a xlink:href="../../tables/template_variable_domain.html" xlink:title="template_variable_domain" target="_top">
<polygon fill="#ffffff" stroke="transparent" points="8,-87.7 8,-192.7 225,-192.7 225,-87.7 8,-87.7"/>
<polygon fill="#f5f5f5" stroke="transparent" points="8.5,-169.2 8.5,-192.2 225.5,-192.2 225.5,-169.2 8.5,-169.2"/>
<polygon fill="none" stroke="#000000" points="8.5,-169.2 8.5,-192.2 225.5,-192.2 225.5,-169.2 8.5,-169.2"/>
<text text-anchor="start" x="13.5" y="-177.8" font-family="Helvetica,sans-Serif" font-weight="bold" font-size="11.00" fill="#000000">template_variable_domain</text>
<text text-anchor="start" x="191.0219" y="-177.3" font-family="Helvetica,sans-Serif" font-size="11.00" fill="#000000">[table]</text>
<polygon fill="none" stroke="#000000" points="8.5,-147.2 8.5,-169.2 225.5,-169.2 225.5,-147.2 8.5,-147.2"/>
<image xlink:href="../../images/primaryKeys.png" width="11px" height="12px" preserveAspectRatio="xMinYMin meet" x="13.5" y="-164.2"/>
<text text-anchor="start" x="37.5" y="-154.3" font-family="Helvetica,sans-Serif" font-size="11.00" fill="#000000">code</text>
<polygon fill="#ffffff" stroke="transparent" points="8.5,-125.2 8.5,-147.2 225.5,-147.2 225.5,-125.2 8.5,-125.2"/>
<polygon fill="none" stroke="#000000" points="8.5,-125.2 8.5,-147.2 225.5,-147.2 225.5,-125.2 8.5,-125.2"/>
<text text-anchor="start" x="37.5" y="-132.3" font-family="Helvetica,sans-Serif" font-size="11.00" fill="#000000">sequence_number</text>
<polygon fill="none" stroke="#000000" points="8.5,-106.2 8.5,-125.2 225.5,-125.2 225.5,-106.2 8.5,-106.2"/>
<text text-anchor="start" x="11.5" y="-112.3" font-family="Helvetica,sans-Serif" font-size="11.00" fill="#000000">...</text>
<polygon fill="#ffffff" stroke="transparent" points="8.5,-87.2 8.5,-106.2 106.5,-106.2 106.5,-87.2 8.5,-87.2"/>
<polygon fill="none" stroke="#000000" points="8.5,-87.2 8.5,-106.2 106.5,-106.2 106.5,-87.2 8.5,-87.2"/>
<text text-anchor="start" x="11.5" y="-93.3" font-family="Helvetica,sans-Serif" font-size="11.00" fill="#000000"> &#160;</text>
<polygon fill="#ffffff" stroke="transparent" points="106.5,-87.2 106.5,-106.2 161.5,-106.2 161.5,-87.2 106.5,-87.2"/>
<polygon fill="none" stroke="#000000" points="106.5,-87.2 106.5,-106.2 161.5,-106.2 161.5,-87.2 106.5,-87.2"/>
<text text-anchor="start" x="152.3862" y="-93.3" font-family="Helvetica,sans-Serif" font-size="11.00" fill="#000000"> &#160;</text>
<polygon fill="#ffffff" stroke="transparent" points="161.5,-87.2 161.5,-106.2 225.5,-106.2 225.5,-87.2 161.5,-87.2"/>
<polygon fill="none" stroke="#000000" points="161.5,-87.2 161.5,-106.2 225.5,-106.2 225.5,-87.2 161.5,-87.2"/>
<text text-anchor="start" x="206.9053" y="-93.3" font-family="Helvetica,sans-Serif" font-size="11.00" fill="#000000">5 &gt;</text>
</a>
</g>
</g>
<!-- document_template&#45;&gt;template_variable_domain -->
<g id="edge1" class="edge">
<title>document_template:w&#45;&gt;template_variable_domain:e</title>
<path fill="none" stroke="#000000" stroke-dasharray="5,2" d="M265.7307,-158.2C251.248,-158.2 244.0938,-158.2 225.5,-158.2"/>
<polygon fill="#000000" stroke="#000000" points="275.7,-154.2 275.7,-162.2 274.1,-162.2 274.1,-154.2 275.7,-154.2"/>
<polyline fill="none" stroke="#000000" points="276.5,-158.2 272.5,-158.2 "/>
<ellipse fill="none" stroke="#000000" cx="269.3" cy="-158.2001" rx="3.2" ry="3.2"/>
</g>
<!-- document_template_group -->
<g id="node3" class="node">
<title>document_template_group</title>
<g id="a_node3"><a xlink:href="../../tables/document_template_group.html" xlink:title="document_template_group" target="_top">
<polygon fill="#ffffff" stroke="transparent" points="583.5,-193.2 583.5,-301.2 802.5,-301.2 802.5,-193.2 583.5,-193.2"/>
<polygon fill="#f5f5f5" stroke="transparent" points="584,-278.2 584,-301.2 803,-301.2 803,-278.2 584,-278.2"/>
<polygon fill="none" stroke="#000000" points="584,-278.2 584,-301.2 803,-301.2 803,-278.2 584,-278.2"/>
<text text-anchor="start" x="589" y="-286.8" font-family="Helvetica,sans-Serif" font-weight="bold" font-size="11.00" fill="#000000">document_template_group</text>
<text text-anchor="start" x="768.5219" y="-286.3" font-family="Helvetica,sans-Serif" font-size="11.00" fill="#000000">[table]</text>
<polygon fill="none" stroke="#000000" points="584,-256.2 584,-278.2 803,-278.2 803,-256.2 584,-256.2"/>
<image xlink:href="../../images/primaryKeys.png" width="11px" height="12px" preserveAspectRatio="xMinYMin meet" x="589" y="-273.2"/>
<text text-anchor="start" x="613" y="-263.3" font-family="Helvetica,sans-Serif" font-size="11.00" fill="#000000">id</text>
<polygon fill="#ffffff" stroke="transparent" points="584,-234.2 584,-256.2 803,-256.2 803,-234.2 584,-234.2"/>
<polygon fill="none" stroke="#000000" points="584,-234.2 584,-256.2 803,-256.2 803,-234.2 584,-234.2"/>
<image xlink:href="../../images/foreignKeys.png" width="11px" height="12px" preserveAspectRatio="xMinYMin meet" x="589" y="-251.2"/>
<text text-anchor="start" x="613" y="-241.3" font-family="Helvetica,sans-Serif" font-size="11.00" fill="#000000">template_id</text>
<polygon fill="#ffffff" stroke="transparent" points="584,-212.2 584,-234.2 803,-234.2 803,-212.2 584,-212.2"/>
<polygon fill="none" stroke="#000000" points="584,-212.2 584,-234.2 803,-234.2 803,-212.2 584,-212.2"/>
<image xlink:href="../../images/foreignKeys.png" width="11px" height="12px" preserveAspectRatio="xMinYMin meet" x="589" y="-229.2"/>
<text text-anchor="start" x="613" y="-219.3" font-family="Helvetica,sans-Serif" font-size="11.00" fill="#000000">template_group_id</text>
<polygon fill="#ffffff" stroke="transparent" points="584,-193.2 584,-212.2 692,-212.2 692,-193.2 584,-193.2"/>
<polygon fill="none" stroke="#000000" points="584,-193.2 584,-212.2 692,-212.2 692,-193.2 584,-193.2"/>
<text text-anchor="start" x="587" y="-199.3" font-family="Helvetica,sans-Serif" font-size="11.00" fill="#000000">&lt; 2</text>
<polygon fill="#ffffff" stroke="transparent" points="692,-193.2 692,-212.2 747,-212.2 747,-193.2 692,-193.2"/>
<polygon fill="none" stroke="#000000" points="692,-193.2 692,-212.2 747,-212.2 747,-193.2 692,-193.2"/>
<text text-anchor="start" x="737.8862" y="-199.3" font-family="Helvetica,sans-Serif" font-size="11.00" fill="#000000"> &#160;</text>
<polygon fill="#ffffff" stroke="transparent" points="747,-193.2 747,-212.2 803,-212.2 803,-193.2 747,-193.2"/>
<polygon fill="none" stroke="#000000" points="747,-193.2 747,-212.2 803,-212.2 803,-193.2 747,-193.2"/>
<text text-anchor="start" x="793.8862" y="-199.3" font-family="Helvetica,sans-Serif" font-size="11.00" fill="#000000"> &#160;</text>
</a>
</g>
</g>
<!-- document_template_group&#45;&gt;document_template -->
<g id="edge2" class="edge">
<title>document_template_group:w&#45;&gt;document_template:e</title>
<path fill="none" stroke="#000000" d="M569.8713,-241.134C549.6454,-226.9039 558.445,-180.2 525.5,-180.2"/>
<polygon fill="#000000" stroke="#000000" points="576.312,-242.9875 583.0044,-248.6596 580.156,-244.0937 584,-245.2 584,-245.2 584,-245.2 580.156,-244.0937 584.9956,-241.7404 576.312,-242.9875 576.312,-242.9875"/>
<ellipse fill="none" stroke="#000000" cx="573.2368" cy="-242.1025" rx="3.2" ry="3.2"/>
</g>
<!-- document_template_variable -->
<g id="node4" class="node">
<title>document_template_variable</title>
<g id="a_node4"><a xlink:href="../../tables/document_template_variable.html" xlink:title="document_template_variable" target="_top">
<polygon fill="#ffffff" stroke="transparent" points="576,-44.7 576,-171.7 810,-171.7 810,-44.7 576,-44.7"/>
<polygon fill="#f5f5f5" stroke="transparent" points="576,-148.2 576,-171.2 810,-171.2 810,-148.2 576,-148.2"/>
<polygon fill="none" stroke="#000000" points="576,-148.2 576,-171.2 810,-171.2 810,-148.2 576,-148.2"/>
<text text-anchor="start" x="581" y="-156.8" font-family="Helvetica,sans-Serif" font-weight="bold" font-size="11.00" fill="#000000">document_template_variable</text>
<text text-anchor="start" x="775.5219" y="-156.3" font-family="Helvetica,sans-Serif" font-size="11.00" fill="#000000">[table]</text>
<polygon fill="none" stroke="#000000" points="576,-126.2 576,-148.2 810,-148.2 810,-126.2 576,-126.2"/>
<image xlink:href="../../images/primaryKeys.png" width="11px" height="12px" preserveAspectRatio="xMinYMin meet" x="581" y="-143.2"/>
<text text-anchor="start" x="605" y="-133.3" font-family="Helvetica,sans-Serif" font-size="11.00" fill="#000000">id</text>
<polygon fill="#ffffff" stroke="transparent" points="576,-104.2 576,-126.2 810,-126.2 810,-104.2 576,-104.2"/>
<polygon fill="none" stroke="#000000" points="576,-104.2 576,-126.2 810,-126.2 810,-104.2 576,-104.2"/>
<image xlink:href="../../images/foreignKeys.png" width="11px" height="12px" preserveAspectRatio="xMinYMin meet" x="581" y="-121.2"/>
<text text-anchor="start" x="605" y="-111.3" font-family="Helvetica,sans-Serif" font-size="11.00" fill="#000000">template_id</text>
<polygon fill="#ffffff" stroke="transparent" points="576,-82.2 576,-104.2 810,-104.2 810,-82.2 576,-82.2"/>
<polygon fill="none" stroke="#000000" points="576,-82.2 576,-104.2 810,-104.2 810,-82.2 576,-82.2"/>
<image xlink:href="../../images/foreignKeys.png" width="11px" height="12px" preserveAspectRatio="xMinYMin meet" x="581" y="-99.2"/>
<text text-anchor="start" x="605" y="-89.3" font-family="Helvetica,sans-Serif" font-size="11.00" fill="#000000">variable_id</text>
<polygon fill="none" stroke="#000000" points="576,-63.2 576,-82.2 810,-82.2 810,-63.2 576,-63.2"/>
<text text-anchor="start" x="579" y="-69.3" font-family="Helvetica,sans-Serif" font-size="11.00" fill="#000000">...</text>
<polygon fill="#ffffff" stroke="transparent" points="576,-44.2 576,-63.2 691,-63.2 691,-44.2 576,-44.2"/>
<polygon fill="none" stroke="#000000" points="576,-44.2 576,-63.2 691,-63.2 691,-44.2 576,-44.2"/>
<text text-anchor="start" x="579" y="-50.3" font-family="Helvetica,sans-Serif" font-size="11.00" fill="#000000">&lt; 2</text>
<polygon fill="#ffffff" stroke="transparent" points="691,-44.2 691,-63.2 750,-63.2 750,-44.2 691,-44.2"/>
<polygon fill="none" stroke="#000000" points="691,-44.2 691,-63.2 750,-63.2 750,-44.2 691,-44.2"/>
<text text-anchor="start" x="740.8862" y="-50.3" font-family="Helvetica,sans-Serif" font-size="11.00" fill="#000000"> &#160;</text>
<polygon fill="#ffffff" stroke="transparent" points="750,-44.2 750,-63.2 810,-63.2 810,-44.2 750,-44.2"/>
<polygon fill="none" stroke="#000000" points="750,-44.2 750,-63.2 810,-63.2 810,-44.2 750,-44.2"/>
<text text-anchor="start" x="800.8862" y="-50.3" font-family="Helvetica,sans-Serif" font-size="11.00" fill="#000000"> &#160;</text>
</a>
</g>
</g>
<!-- document_template_variable&#45;&gt;document_template -->
<g id="edge3" class="edge">
<title>document_template_variable:w&#45;&gt;document_template:e</title>
<path fill="none" stroke="#000000" d="M562.2553,-119.8746C545.2595,-134.7786 556.0812,-180.2 525.5,-180.2"/>
<polygon fill="#000000" stroke="#000000" points="568.4261,-117.776 577.1592,-118.6083 572.213,-116.488 576,-115.2 576,-115.2 576,-115.2 572.213,-116.488 574.8408,-111.7917 568.4261,-117.776 568.4261,-117.776"/>
<ellipse fill="none" stroke="#000000" cx="565.3965" cy="-118.8064" rx="3.2" ry="3.2"/>
</g>
</g>
</svg>
