<?xml version="1.0" encoding="UTF-8" standalone="no"?>
<!DOCTYPE svg PUBLIC "-//W3C//DTD SVG 1.1//EN"
 "http://www.w3.org/Graphics/SVG/1.1/DTD/svg11.dtd">
<!-- Generated by graphviz version 2.40.1 (20161225.0304)
 -->
<!-- Title: twoDegreesRelationshipsDiagram Pages: 1 -->
<svg width="547pt" height="371pt"
 viewBox="0.00 0.00 547.00 371.20" xmlns="http://www.w3.org/2000/svg" xmlns:xlink="http://www.w3.org/1999/xlink">
<g id="graph0" class="graph" transform="scale(1 1) rotate(0) translate(4 367.2)">
<title>twoDegreesRelationshipsDiagram</title>
<polygon fill="#ffffff" stroke="transparent" points="-4,4 -4,-367.2 543,-367.2 543,4 -4,4"/>
<text text-anchor="middle" x="72.4936" y="-7.3" font-family="Helvetica,sans-Serif" font-size="11.00" fill="#000000">Generated by SchemaSpy</text>
<!-- document_template_audit -->
<g id="node1" class="node">
<title>document_template_audit</title>
<g id="a_node1"><a xlink:href="../../tables/document_template_audit.html" xlink:title="document_template_audit" target="_top">
<polygon fill="#ffffff" stroke="transparent" points="254,-298.2 254,-359.2 468,-359.2 468,-298.2 254,-298.2"/>
<polygon fill="#f5f5f5" stroke="transparent" points="254,-335.7 254,-358.7 468,-358.7 468,-335.7 254,-335.7"/>
<polygon fill="none" stroke="#000000" points="254,-335.7 254,-358.7 468,-358.7 468,-335.7 254,-335.7"/>
<text text-anchor="start" x="259" y="-344.3" font-family="Helvetica,sans-Serif" font-weight="bold" font-size="11.00" fill="#000000">document_template_audit</text>
<text text-anchor="start" x="433.5219" y="-343.8" font-family="Helvetica,sans-Serif" font-size="11.00" fill="#000000">[table]</text>
<polygon fill="none" stroke="#000000" points="254,-316.7 254,-335.7 468,-335.7 468,-316.7 254,-316.7"/>
<text text-anchor="start" x="257" y="-322.8" font-family="Helvetica,sans-Serif" font-size="11.00" fill="#000000">...</text>
<polygon fill="#ffffff" stroke="transparent" points="254,-297.7 254,-316.7 359,-316.7 359,-297.7 254,-297.7"/>
<polygon fill="none" stroke="#000000" points="254,-297.7 254,-316.7 359,-316.7 359,-297.7 254,-297.7"/>
<text text-anchor="start" x="257" y="-303.8" font-family="Helvetica,sans-Serif" font-size="11.00" fill="#000000">&lt; 1</text>
<polygon fill="#ffffff" stroke="transparent" points="359,-297.7 359,-316.7 413,-316.7 413,-297.7 359,-297.7"/>
<polygon fill="none" stroke="#000000" points="359,-297.7 359,-316.7 413,-316.7 413,-297.7 359,-297.7"/>
<text text-anchor="start" x="403.8862" y="-303.8" font-family="Helvetica,sans-Serif" font-size="11.00" fill="#000000"> &#160;</text>
<polygon fill="#ffffff" stroke="transparent" points="413,-297.7 413,-316.7 468,-316.7 468,-297.7 413,-297.7"/>
<polygon fill="none" stroke="#000000" points="413,-297.7 413,-316.7 468,-316.7 468,-297.7 413,-297.7"/>
<text text-anchor="start" x="458.8862" y="-303.8" font-family="Helvetica,sans-Serif" font-size="11.00" fill="#000000"> &#160;</text>
</a>
</g>
</g>
<!-- audit_revision -->
<g id="node2" class="node">
<title>audit_revision</title>
<g id="a_node2"><a xlink:href="../../tables/audit_revision.html" xlink:title="audit_revision" target="_top">
<polygon fill="#ffffff" stroke="transparent" points="8,-192.2 8,-275.2 142,-275.2 142,-192.2 8,-192.2"/>
<polygon fill="#f5f5f5" stroke="transparent" points="8,-251.7 8,-274.7 142,-274.7 142,-251.7 8,-251.7"/>
<polygon fill="none" stroke="#000000" points="8,-251.7 8,-274.7 142,-274.7 142,-251.7 8,-251.7"/>
<text text-anchor="start" x="13" y="-260.3" font-family="Helvetica,sans-Serif" font-weight="bold" font-size="11.00" fill="#000000">audit_revision</text>
<text text-anchor="start" x="107.5219" y="-259.8" font-family="Helvetica,sans-Serif" font-size="11.00" fill="#000000">[table]</text>
<polygon fill="none" stroke="#000000" points="8,-229.7 8,-251.7 142,-251.7 142,-229.7 8,-229.7"/>
<image xlink:href="../../images/primaryKeys.png" width="11px" height="12px" preserveAspectRatio="xMinYMin meet" x="13" y="-246.7"/>
<text text-anchor="start" x="37" y="-236.8" font-family="Helvetica,sans-Serif" font-size="11.00" fill="#000000">id</text>
<polygon fill="none" stroke="#000000" points="8,-210.7 8,-229.7 142,-229.7 142,-210.7 8,-210.7"/>
<text text-anchor="start" x="11" y="-216.8" font-family="Helvetica,sans-Serif" font-size="11.00" fill="#000000">...</text>
<polygon fill="#ffffff" stroke="transparent" points="8,-191.7 8,-210.7 64,-210.7 64,-191.7 8,-191.7"/>
<polygon fill="none" stroke="#000000" points="8,-191.7 8,-210.7 64,-210.7 64,-191.7 8,-191.7"/>
<text text-anchor="start" x="11" y="-197.8" font-family="Helvetica,sans-Serif" font-size="11.00" fill="#000000"> &#160;</text>
<polygon fill="#ffffff" stroke="transparent" points="64,-191.7 64,-210.7 98,-210.7 98,-191.7 64,-191.7"/>
<polygon fill="none" stroke="#000000" points="64,-191.7 64,-210.7 98,-210.7 98,-191.7 64,-191.7"/>
<text text-anchor="start" x="88.8862" y="-197.8" font-family="Helvetica,sans-Serif" font-size="11.00" fill="#000000"> &#160;</text>
<polygon fill="#ffffff" stroke="transparent" points="98,-191.7 98,-210.7 142,-210.7 142,-191.7 98,-191.7"/>
<polygon fill="none" stroke="#000000" points="98,-191.7 98,-210.7 142,-210.7 142,-191.7 98,-191.7"/>
<text text-anchor="start" x="123.4053" y="-197.8" font-family="Helvetica,sans-Serif" font-size="11.00" fill="#000000">3 &gt;</text>
</a>
</g>
</g>
<!-- document_template_audit&#45;&gt;audit_revision -->
<g id="edge1" class="edge">
<title>document_template_audit:w&#45;&gt;audit_revision:e</title>
<path fill="none" stroke="#000000" d="M239.4579,-324.6387C215.5299,-320.7617 206.7337,-306.5978 183,-287.7 161.3147,-270.4332 169.7199,-240.7 142,-240.7"/>
<polygon fill="#000000" stroke="#000000" points="246.0212,-325.1177 253.7379,-329.2905 250.0106,-325.4088 254,-325.7 254,-325.7 254,-325.7 250.0106,-325.4088 254.2621,-322.1095 246.0212,-325.1177 246.0212,-325.1177"/>
<ellipse fill="none" stroke="#000000" cx="242.8297" cy="-324.8847" rx="3.2" ry="3.2"/>
</g>
<!-- document_template_group_audit -->
<g id="node3" class="node">
<title>document_template_group_audit</title>
<g id="a_node3"><a xlink:href="../../tables/document_template_group_audit.html" xlink:title="document_template_group_audit" target="_top">
<polygon fill="#ffffff" stroke="transparent" points="191,-120.7 191,-276.7 531,-276.7 531,-120.7 191,-120.7"/>
<polygon fill="#f5f5f5" stroke="transparent" points="193,-251.7 193,-274.7 529,-274.7 529,-251.7 193,-251.7"/>
<polygon fill="none" stroke="#000000" points="193,-251.7 193,-274.7 529,-274.7 529,-251.7 193,-251.7"/>
<text text-anchor="start" x="198" y="-260.3" font-family="Helvetica,sans-Serif" font-weight="bold" font-size="11.00" fill="#000000">document_template_group_audit</text>
<text text-anchor="start" x="494.0437" y="-259.8" font-family="Helvetica,sans-Serif" font-size="11.00" fill="#000000">[table]</text>
<polygon fill="none" stroke="#000000" points="193,-229.7 193,-251.7 435,-251.7 435,-229.7 193,-229.7"/>
<image xlink:href="../../images/primaryKeys.png" width="11px" height="12px" preserveAspectRatio="xMinYMin meet" x="198" y="-246.7"/>
<text text-anchor="start" x="213" y="-236.8" font-family="Helvetica,sans-Serif" font-size="11.00" fill="#000000">rev_id</text>
<polygon fill="none" stroke="#000000" points="435,-229.7 435,-251.7 529,-251.7 529,-229.7 435,-229.7"/>
<text text-anchor="start" x="438" y="-237.4" font-family="Helvetica,sans-Serif" font-size="11.00" fill="#000000">int8[19]</text>
<polygon fill="none" stroke="#000000" points="193,-207.7 193,-229.7 435,-229.7 435,-207.7 193,-207.7"/>
<text text-anchor="start" x="213" y="-214.8" font-family="Helvetica,sans-Serif" font-size="11.00" fill="#000000">rev_type</text>
<polygon fill="none" stroke="#000000" points="435,-207.7 435,-229.7 529,-229.7 529,-207.7 435,-207.7"/>
<text text-anchor="start" x="438" y="-215.4" font-family="Helvetica,sans-Serif" font-size="11.00" fill="#000000">int2[5]</text>
<polygon fill="none" stroke="#000000" points="193,-185.7 193,-207.7 435,-207.7 435,-185.7 193,-185.7"/>
<image xlink:href="../../images/primaryKeys.png" width="11px" height="12px" preserveAspectRatio="xMinYMin meet" x="198" y="-202.7"/>
<text text-anchor="start" x="213" y="-192.8" font-family="Helvetica,sans-Serif" font-size="11.00" fill="#000000">id</text>
<polygon fill="none" stroke="#000000" points="435,-185.7 435,-207.7 529,-207.7 529,-185.7 435,-185.7"/>
<text text-anchor="start" x="437.9758" y="-193.4" font-family="Helvetica,sans-Serif" font-size="11.00" fill="#000000">uuid[2147483647]</text>
<polygon fill="#ffffff" stroke="transparent" points="193,-163.7 193,-185.7 435,-185.7 435,-163.7 193,-163.7"/>
<polygon fill="none" stroke="#000000" points="193,-163.7 193,-185.7 435,-185.7 435,-163.7 193,-163.7"/>
<text text-anchor="start" x="213" y="-170.8" font-family="Helvetica,sans-Serif" font-size="11.00" fill="#000000">template_id</text>
<polygon fill="none" stroke="#000000" points="435,-163.7 435,-185.7 529,-185.7 529,-163.7 435,-163.7"/>
<text text-anchor="start" x="437.9758" y="-171.4" font-family="Helvetica,sans-Serif" font-size="11.00" fill="#000000">uuid[2147483647]</text>
<polygon fill="#ffffff" stroke="transparent" points="193,-141.7 193,-163.7 435,-163.7 435,-141.7 193,-141.7"/>
<polygon fill="none" stroke="#000000" points="193,-141.7 193,-163.7 435,-163.7 435,-141.7 193,-141.7"/>
<text text-anchor="start" x="213" y="-148.8" font-family="Helvetica,sans-Serif" font-size="11.00" fill="#000000">template_group_id</text>
<polygon fill="none" stroke="#000000" points="435,-141.7 435,-163.7 529,-163.7 529,-141.7 435,-141.7"/>
<text text-anchor="start" x="437.9758" y="-149.4" font-family="Helvetica,sans-Serif" font-size="11.00" fill="#000000">uuid[2147483647]</text>
<polygon fill="#ffffff" stroke="transparent" points="193,-122.7 193,-141.7 318,-141.7 318,-122.7 193,-122.7"/>
<polygon fill="none" stroke="#000000" points="193,-122.7 193,-141.7 318,-141.7 318,-122.7 193,-122.7"/>
<text text-anchor="start" x="196" y="-128.8" font-family="Helvetica,sans-Serif" font-size="11.00" fill="#000000">&lt; 1</text>
<polygon fill="#ffffff" stroke="transparent" points="318,-122.7 318,-141.7 435,-141.7 435,-122.7 318,-122.7"/>
<polygon fill="none" stroke="#000000" points="318,-122.7 318,-141.7 435,-141.7 435,-122.7 318,-122.7"/>
<text text-anchor="start" x="425.8862" y="-128.8" font-family="Helvetica,sans-Serif" font-size="11.00" fill="#000000"> &#160;</text>
<polygon fill="#ffffff" stroke="transparent" points="435,-122.7 435,-141.7 529,-141.7 529,-122.7 435,-122.7"/>
<polygon fill="none" stroke="#000000" points="435,-122.7 435,-141.7 529,-141.7 529,-122.7 435,-122.7"/>
<text text-anchor="start" x="510.4053" y="-128.8" font-family="Helvetica,sans-Serif" font-size="11.00" fill="#000000">0 &gt;</text>
<polygon fill="none" stroke="#000000" stroke-width="2" points="192,-121.7 192,-275.7 530,-275.7 530,-121.7 192,-121.7"/>
</a>
</g>
</g>
<!-- document_template_group_audit&#45;&gt;audit_revision -->
<g id="edge2" class="edge">
<title>document_template_group_audit:w&#45;&gt;audit_revision:e</title>
<path fill="none" stroke="#000000" d="M178.276,-240.7C166.2815,-240.7 158.8229,-240.7 142,-240.7"/>
<polygon fill="#000000" stroke="#000000" points="185,-240.7001 193,-244.3 189,-240.7 193,-240.7 193,-240.7 193,-240.7 189,-240.7 193,-237.1 185,-240.7001 185,-240.7001"/>
<ellipse fill="none" stroke="#000000" cx="181.8" cy="-240.7001" rx="3.2" ry="3.2"/>
</g>
<!-- document_template_variable_audit -->
<g id="node4" class="node">
<title>document_template_variable_audit</title>
<g id="a_node4"><a xlink:href="../../tables/document_template_variable_audit.html" xlink:title="document_template_variable_audit" target="_top">
<polygon fill="#ffffff" stroke="transparent" points="223.5,-38.2 223.5,-99.2 498.5,-99.2 498.5,-38.2 223.5,-38.2"/>
<polygon fill="#f5f5f5" stroke="transparent" points="224,-75.7 224,-98.7 499,-98.7 499,-75.7 224,-75.7"/>
<polygon fill="none" stroke="#000000" points="224,-75.7 224,-98.7 499,-98.7 499,-75.7 224,-75.7"/>
<text text-anchor="start" x="229" y="-84.3" font-family="Helvetica,sans-Serif" font-weight="bold" font-size="11.00" fill="#000000">document_template_variable_audit</text>
<text text-anchor="start" x="464.5219" y="-83.8" font-family="Helvetica,sans-Serif" font-size="11.00" fill="#000000">[table]</text>
<polygon fill="none" stroke="#000000" points="224,-56.7 224,-75.7 499,-75.7 499,-56.7 224,-56.7"/>
<text text-anchor="start" x="227" y="-62.8" font-family="Helvetica,sans-Serif" font-size="11.00" fill="#000000">...</text>
<polygon fill="#ffffff" stroke="transparent" points="224,-37.7 224,-56.7 360,-56.7 360,-37.7 224,-37.7"/>
<polygon fill="none" stroke="#000000" points="224,-37.7 224,-56.7 360,-56.7 360,-37.7 224,-37.7"/>
<text text-anchor="start" x="227" y="-43.8" font-family="Helvetica,sans-Serif" font-size="11.00" fill="#000000">&lt; 1</text>
<polygon fill="#ffffff" stroke="transparent" points="360,-37.7 360,-56.7 429,-56.7 429,-37.7 360,-37.7"/>
<polygon fill="none" stroke="#000000" points="360,-37.7 360,-56.7 429,-56.7 429,-37.7 360,-37.7"/>
<text text-anchor="start" x="419.8862" y="-43.8" font-family="Helvetica,sans-Serif" font-size="11.00" fill="#000000"> &#160;</text>
<polygon fill="#ffffff" stroke="transparent" points="429,-37.7 429,-56.7 499,-56.7 499,-37.7 429,-37.7"/>
<polygon fill="none" stroke="#000000" points="429,-37.7 429,-56.7 499,-56.7 499,-37.7 429,-37.7"/>
<text text-anchor="start" x="489.8862" y="-43.8" font-family="Helvetica,sans-Serif" font-size="11.00" fill="#000000"> &#160;</text>
</a>
</g>
</g>
<!-- document_template_variable_audit&#45;&gt;audit_revision -->
<g id="edge3" class="edge">
<title>document_template_variable_audit:w&#45;&gt;audit_revision:e</title>
<path fill="none" stroke="#000000" d="M209.6489,-68.5879C196.1233,-75.219 193.5436,-92.3795 183,-110.7 152.781,-163.2084 202.5832,-240.7 142,-240.7"/>
<polygon fill="#000000" stroke="#000000" points="216.1572,-67.2783 224.7102,-69.2293 220.0786,-66.4891 224,-65.7 224,-65.7 224,-65.7 220.0786,-66.4891 223.2898,-62.1707 216.1572,-67.2783 216.1572,-67.2783"/>
<ellipse fill="none" stroke="#000000" cx="213.0201" cy="-67.9096" rx="3.2" ry="3.2"/>
</g>
</g>
</svg>
