<?xml version="1.0" encoding="UTF-8" standalone="no"?>
<!DOCTYPE svg PUBLIC "-//W3C//DTD SVG 1.1//EN"
 "http://www.w3.org/Graphics/SVG/1.1/DTD/svg11.dtd">
<!-- Generated by graphviz version 2.40.1 (20161225.0304)
 -->
<!-- Title: twoDegreesRelationshipsDiagram Pages: 1 -->
<svg width="545pt" height="379pt"
 viewBox="0.00 0.00 545.00 379.20" xmlns="http://www.w3.org/2000/svg" xmlns:xlink="http://www.w3.org/1999/xlink">
<g id="graph0" class="graph" transform="scale(1 1) rotate(0) translate(4 375.2)">
<title>twoDegreesRelationshipsDiagram</title>
<polygon fill="#ffffff" stroke="transparent" points="-4,4 -4,-375.2 541,-375.2 541,4 -4,4"/>
<text text-anchor="middle" x="72.4936" y="-7.3" font-family="Helvetica,sans-Serif" font-size="11.00" fill="#000000">Generated by SchemaSpy</text>
<!-- document_generation_request -->
<g id="node1" class="node">
<title>document_generation_request</title>
<g id="a_node1"><a xlink:href="../../tables/document_generation_request.html" xlink:title="document_generation_request" target="_top">
<polygon fill="#ffffff" stroke="transparent" points="257.5,-306.2 257.5,-367.2 501.5,-367.2 501.5,-306.2 257.5,-306.2"/>
<polygon fill="#f5f5f5" stroke="transparent" points="257.5,-343.7 257.5,-366.7 501.5,-366.7 501.5,-343.7 257.5,-343.7"/>
<polygon fill="none" stroke="#000000" points="257.5,-343.7 257.5,-366.7 501.5,-366.7 501.5,-343.7 257.5,-343.7"/>
<text text-anchor="start" x="262.5" y="-352.3" font-family="Helvetica,sans-Serif" font-weight="bold" font-size="11.00" fill="#000000">document_generation_request</text>
<text text-anchor="start" x="467.0219" y="-351.8" font-family="Helvetica,sans-Serif" font-size="11.00" fill="#000000">[table]</text>
<polygon fill="none" stroke="#000000" points="257.5,-324.7 257.5,-343.7 501.5,-343.7 501.5,-324.7 257.5,-324.7"/>
<text text-anchor="start" x="260.5" y="-330.8" font-family="Helvetica,sans-Serif" font-size="11.00" fill="#000000">...</text>
<polygon fill="#ffffff" stroke="transparent" points="257.5,-305.7 257.5,-324.7 377.5,-324.7 377.5,-305.7 257.5,-305.7"/>
<polygon fill="none" stroke="#000000" points="257.5,-305.7 257.5,-324.7 377.5,-324.7 377.5,-305.7 257.5,-305.7"/>
<text text-anchor="start" x="260.5" y="-311.8" font-family="Helvetica,sans-Serif" font-size="11.00" fill="#000000">&lt; 1</text>
<polygon fill="#ffffff" stroke="transparent" points="377.5,-305.7 377.5,-324.7 439.5,-324.7 439.5,-305.7 377.5,-305.7"/>
<polygon fill="none" stroke="#000000" points="377.5,-305.7 377.5,-324.7 439.5,-324.7 439.5,-305.7 377.5,-305.7"/>
<text text-anchor="start" x="430.3862" y="-311.8" font-family="Helvetica,sans-Serif" font-size="11.00" fill="#000000"> &#160;</text>
<polygon fill="#ffffff" stroke="transparent" points="439.5,-305.7 439.5,-324.7 501.5,-324.7 501.5,-305.7 439.5,-305.7"/>
<polygon fill="none" stroke="#000000" points="439.5,-305.7 439.5,-324.7 501.5,-324.7 501.5,-305.7 439.5,-305.7"/>
<text text-anchor="start" x="492.3862" y="-311.8" font-family="Helvetica,sans-Serif" font-size="11.00" fill="#000000"> &#160;</text>
</a>
</g>
</g>
<!-- document_template -->
<g id="node2" class="node">
<title>document_template</title>
<g id="a_node2"><a xlink:href="../../tables/document_template.html" xlink:title="document_template" target="_top">
<polygon fill="#ffffff" stroke="transparent" points="8,-164.2 8,-291.2 181,-291.2 181,-164.2 8,-164.2"/>
<polygon fill="#f5f5f5" stroke="transparent" points="8.5,-267.7 8.5,-290.7 181.5,-290.7 181.5,-267.7 8.5,-267.7"/>
<polygon fill="none" stroke="#000000" points="8.5,-267.7 8.5,-290.7 181.5,-290.7 181.5,-267.7 8.5,-267.7"/>
<text text-anchor="start" x="13.5" y="-276.3" font-family="Helvetica,sans-Serif" font-weight="bold" font-size="11.00" fill="#000000">document_template</text>
<text text-anchor="start" x="147.0219" y="-275.8" font-family="Helvetica,sans-Serif" font-size="11.00" fill="#000000">[table]</text>
<polygon fill="none" stroke="#000000" points="8.5,-245.7 8.5,-267.7 181.5,-267.7 181.5,-245.7 8.5,-245.7"/>
<image xlink:href="../../images/primaryKeys.png" width="11px" height="12px" preserveAspectRatio="xMinYMin meet" x="13.5" y="-262.7"/>
<text text-anchor="start" x="37.5" y="-252.8" font-family="Helvetica,sans-Serif" font-size="11.00" fill="#000000">id</text>
<polygon fill="#ffffff" stroke="transparent" points="8.5,-223.7 8.5,-245.7 181.5,-245.7 181.5,-223.7 8.5,-223.7"/>
<polygon fill="none" stroke="#000000" points="8.5,-223.7 8.5,-245.7 181.5,-245.7 181.5,-223.7 8.5,-223.7"/>
<image xlink:href="../../images/foreignKeys.png" width="11px" height="12px" preserveAspectRatio="xMinYMin meet" x="13.5" y="-240.7"/>
<text text-anchor="start" x="37.5" y="-230.8" font-family="Helvetica,sans-Serif" font-size="11.00" fill="#000000">code</text>
<polygon fill="#ffffff" stroke="transparent" points="8.5,-201.7 8.5,-223.7 181.5,-223.7 181.5,-201.7 8.5,-201.7"/>
<polygon fill="none" stroke="#000000" points="8.5,-201.7 8.5,-223.7 181.5,-223.7 181.5,-201.7 8.5,-201.7"/>
<text text-anchor="start" x="37.5" y="-208.8" font-family="Helvetica,sans-Serif" font-size="11.00" fill="#000000">external_reference</text>
<polygon fill="none" stroke="#000000" points="8.5,-182.7 8.5,-201.7 181.5,-201.7 181.5,-182.7 8.5,-182.7"/>
<text text-anchor="start" x="11.5" y="-188.8" font-family="Helvetica,sans-Serif" font-size="11.00" fill="#000000">...</text>
<polygon fill="#ffffff" stroke="transparent" points="8.5,-163.7 8.5,-182.7 84.5,-182.7 84.5,-163.7 8.5,-163.7"/>
<polygon fill="none" stroke="#000000" points="8.5,-163.7 8.5,-182.7 84.5,-182.7 84.5,-163.7 8.5,-163.7"/>
<text text-anchor="start" x="11.5" y="-169.8" font-family="Helvetica,sans-Serif" font-size="11.00" fill="#000000"> &#160;</text>
<polygon fill="#ffffff" stroke="transparent" points="84.5,-163.7 84.5,-182.7 128.5,-182.7 128.5,-163.7 84.5,-163.7"/>
<polygon fill="none" stroke="#000000" points="84.5,-163.7 84.5,-182.7 128.5,-182.7 128.5,-163.7 84.5,-163.7"/>
<text text-anchor="start" x="119.3862" y="-169.8" font-family="Helvetica,sans-Serif" font-size="11.00" fill="#000000"> &#160;</text>
<polygon fill="#ffffff" stroke="transparent" points="128.5,-163.7 128.5,-182.7 181.5,-182.7 181.5,-163.7 128.5,-163.7"/>
<polygon fill="none" stroke="#000000" points="128.5,-163.7 128.5,-182.7 181.5,-182.7 181.5,-163.7 128.5,-163.7"/>
<text text-anchor="start" x="162.9053" y="-169.8" font-family="Helvetica,sans-Serif" font-size="11.00" fill="#000000">3 &gt;</text>
</a>
</g>
</g>
<!-- document_generation_request&#45;&gt;document_template -->
<g id="edge1" class="edge">
<title>document_generation_request:w&#45;&gt;document_template:e</title>
<path fill="none" stroke="#000000" d="M243.1876,-330.7755C213.2054,-316.7106 223.9494,-256.7 181.5,-256.7"/>
<polygon fill="#000000" stroke="#000000" points="249.6619,-332.0984 256.7793,-337.2271 253.581,-332.8992 257.5,-333.7 257.5,-333.7 257.5,-333.7 253.581,-332.8992 258.2207,-330.1729 249.6619,-332.0984 249.6619,-332.0984"/>
<ellipse fill="none" stroke="#000000" cx="246.5267" cy="-331.4578" rx="3.2" ry="3.2"/>
</g>
<!-- document_template_group -->
<g id="node3" class="node">
<title>document_template_group</title>
<g id="a_node3"><a xlink:href="../../tables/document_template_group.html" xlink:title="document_template_group" target="_top">
<polygon fill="#ffffff" stroke="transparent" points="230,-85.7 230,-197.7 529,-197.7 529,-85.7 230,-85.7"/>
<polygon fill="#f5f5f5" stroke="transparent" points="232.5,-172.7 232.5,-195.7 527.5,-195.7 527.5,-172.7 232.5,-172.7"/>
<polygon fill="none" stroke="#000000" points="232.5,-172.7 232.5,-195.7 527.5,-195.7 527.5,-172.7 232.5,-172.7"/>
<text text-anchor="start" x="237.5" y="-181.3" font-family="Helvetica,sans-Serif" font-weight="bold" font-size="11.00" fill="#000000">document_template_group</text>
<text text-anchor="start" x="492.5437" y="-180.8" font-family="Helvetica,sans-Serif" font-size="11.00" fill="#000000">[table]</text>
<polygon fill="none" stroke="#000000" points="232.5,-150.7 232.5,-172.7 433.5,-172.7 433.5,-150.7 232.5,-150.7"/>
<image xlink:href="../../images/primaryKeys.png" width="11px" height="12px" preserveAspectRatio="xMinYMin meet" x="237.5" y="-167.7"/>
<text text-anchor="start" x="252.5" y="-157.8" font-family="Helvetica,sans-Serif" font-size="11.00" fill="#000000">id</text>
<polygon fill="none" stroke="#000000" points="433.5,-150.7 433.5,-172.7 527.5,-172.7 527.5,-150.7 433.5,-150.7"/>
<text text-anchor="start" x="436.4758" y="-158.4" font-family="Helvetica,sans-Serif" font-size="11.00" fill="#000000">uuid[2147483647]</text>
<polygon fill="#ffffff" stroke="transparent" points="232.5,-128.7 232.5,-150.7 433.5,-150.7 433.5,-128.7 232.5,-128.7"/>
<polygon fill="none" stroke="#000000" points="232.5,-128.7 232.5,-150.7 433.5,-150.7 433.5,-128.7 232.5,-128.7"/>
<image xlink:href="../../images/foreignKeys.png" width="11px" height="12px" preserveAspectRatio="xMinYMin meet" x="237.5" y="-145.7"/>
<text text-anchor="start" x="252.5" y="-135.8" font-family="Helvetica,sans-Serif" font-size="11.00" fill="#000000">template_id</text>
<polygon fill="none" stroke="#000000" points="433.5,-128.7 433.5,-150.7 527.5,-150.7 527.5,-128.7 433.5,-128.7"/>
<text text-anchor="start" x="436.4758" y="-136.4" font-family="Helvetica,sans-Serif" font-size="11.00" fill="#000000">uuid[2147483647]</text>
<polygon fill="#ffffff" stroke="transparent" points="232.5,-106.7 232.5,-128.7 433.5,-128.7 433.5,-106.7 232.5,-106.7"/>
<polygon fill="none" stroke="#000000" points="232.5,-106.7 232.5,-128.7 433.5,-128.7 433.5,-106.7 232.5,-106.7"/>
<image xlink:href="../../images/foreignKeys.png" width="11px" height="12px" preserveAspectRatio="xMinYMin meet" x="237.5" y="-123.7"/>
<text text-anchor="start" x="252.5" y="-113.8" font-family="Helvetica,sans-Serif" font-size="11.00" fill="#000000">template_group_id</text>
<polygon fill="none" stroke="#000000" points="433.5,-106.7 433.5,-128.7 527.5,-128.7 527.5,-106.7 433.5,-106.7"/>
<text text-anchor="start" x="436.4758" y="-114.4" font-family="Helvetica,sans-Serif" font-size="11.00" fill="#000000">uuid[2147483647]</text>
<polygon fill="#ffffff" stroke="transparent" points="232.5,-87.7 232.5,-106.7 337.5,-106.7 337.5,-87.7 232.5,-87.7"/>
<polygon fill="none" stroke="#000000" points="232.5,-87.7 232.5,-106.7 337.5,-106.7 337.5,-87.7 232.5,-87.7"/>
<text text-anchor="start" x="235.5" y="-93.8" font-family="Helvetica,sans-Serif" font-size="11.00" fill="#000000">&lt; 2</text>
<polygon fill="#ffffff" stroke="transparent" points="337.5,-87.7 337.5,-106.7 433.5,-106.7 433.5,-87.7 337.5,-87.7"/>
<polygon fill="none" stroke="#000000" points="337.5,-87.7 337.5,-106.7 433.5,-106.7 433.5,-87.7 337.5,-87.7"/>
<text text-anchor="start" x="424.3862" y="-93.8" font-family="Helvetica,sans-Serif" font-size="11.00" fill="#000000"> &#160;</text>
<polygon fill="#ffffff" stroke="transparent" points="433.5,-87.7 433.5,-106.7 527.5,-106.7 527.5,-87.7 433.5,-87.7"/>
<polygon fill="none" stroke="#000000" points="433.5,-87.7 433.5,-106.7 527.5,-106.7 527.5,-87.7 433.5,-87.7"/>
<text text-anchor="start" x="508.9053" y="-93.8" font-family="Helvetica,sans-Serif" font-size="11.00" fill="#000000">0 &gt;</text>
<polygon fill="none" stroke="#000000" stroke-width="2" points="231,-86.7 231,-196.7 528,-196.7 528,-86.7 231,-86.7"/>
</a>
</g>
</g>
<!-- document_template_group&#45;&gt;document_template -->
<g id="edge3" class="edge">
<title>document_template_group:w&#45;&gt;document_template:e</title>
<path fill="none" stroke="#000000" d="M218.2491,-143.3299C187.6221,-163.0782 232.2427,-256.7 181.5,-256.7"/>
<polygon fill="#000000" stroke="#000000" points="224.7475,-141.6747 233.3886,-143.1886 228.6238,-140.6873 232.5,-139.7 232.5,-139.7 232.5,-139.7 228.6238,-140.6873 231.6114,-136.2114 224.7475,-141.6747 224.7475,-141.6747"/>
<ellipse fill="none" stroke="#000000" cx="221.6465" cy="-142.4646" rx="3.2" ry="3.2"/>
</g>
<!-- template_group -->
<g id="node4" class="node">
<title>template_group</title>
<g id="a_node4"><a xlink:href="../../tables/template_group.html" xlink:title="template_group" target="_top">
<polygon fill="#ffffff" stroke="transparent" points="22,-38.2 22,-143.2 167,-143.2 167,-38.2 22,-38.2"/>
<polygon fill="#f5f5f5" stroke="transparent" points="22.5,-119.7 22.5,-142.7 167.5,-142.7 167.5,-119.7 22.5,-119.7"/>
<polygon fill="none" stroke="#000000" points="22.5,-119.7 22.5,-142.7 167.5,-142.7 167.5,-119.7 22.5,-119.7"/>
<text text-anchor="start" x="27.5" y="-128.3" font-family="Helvetica,sans-Serif" font-weight="bold" font-size="11.00" fill="#000000">template_group</text>
<text text-anchor="start" x="133.0219" y="-127.8" font-family="Helvetica,sans-Serif" font-size="11.00" fill="#000000">[table]</text>
<polygon fill="none" stroke="#000000" points="22.5,-97.7 22.5,-119.7 167.5,-119.7 167.5,-97.7 22.5,-97.7"/>
<image xlink:href="../../images/primaryKeys.png" width="11px" height="12px" preserveAspectRatio="xMinYMin meet" x="27.5" y="-114.7"/>
<text text-anchor="start" x="51.5" y="-104.8" font-family="Helvetica,sans-Serif" font-size="11.00" fill="#000000">id</text>
<polygon fill="#ffffff" stroke="transparent" points="22.5,-75.7 22.5,-97.7 167.5,-97.7 167.5,-75.7 22.5,-75.7"/>
<polygon fill="none" stroke="#000000" points="22.5,-75.7 22.5,-97.7 167.5,-97.7 167.5,-75.7 22.5,-75.7"/>
<image xlink:href="../../images/foreignKeys.png" width="11px" height="12px" preserveAspectRatio="xMinYMin meet" x="27.5" y="-92.7"/>
<text text-anchor="start" x="51.5" y="-82.8" font-family="Helvetica,sans-Serif" font-size="11.00" fill="#000000">code</text>
<polygon fill="none" stroke="#000000" points="22.5,-56.7 22.5,-75.7 167.5,-75.7 167.5,-56.7 22.5,-56.7"/>
<text text-anchor="start" x="25.5" y="-62.8" font-family="Helvetica,sans-Serif" font-size="11.00" fill="#000000">...</text>
<polygon fill="#ffffff" stroke="transparent" points="22.5,-37.7 22.5,-56.7 84.5,-56.7 84.5,-37.7 22.5,-37.7"/>
<polygon fill="none" stroke="#000000" points="22.5,-37.7 22.5,-56.7 84.5,-56.7 84.5,-37.7 22.5,-37.7"/>
<text text-anchor="start" x="25.5" y="-43.8" font-family="Helvetica,sans-Serif" font-size="11.00" fill="#000000"> &#160;</text>
<polygon fill="#ffffff" stroke="transparent" points="84.5,-37.7 84.5,-56.7 121.5,-56.7 121.5,-37.7 84.5,-37.7"/>
<polygon fill="none" stroke="#000000" points="84.5,-37.7 84.5,-56.7 121.5,-56.7 121.5,-37.7 84.5,-37.7"/>
<text text-anchor="start" x="112.3862" y="-43.8" font-family="Helvetica,sans-Serif" font-size="11.00" fill="#000000"> &#160;</text>
<polygon fill="#ffffff" stroke="transparent" points="121.5,-37.7 121.5,-56.7 167.5,-56.7 167.5,-37.7 121.5,-37.7"/>
<polygon fill="none" stroke="#000000" points="121.5,-37.7 121.5,-56.7 167.5,-56.7 167.5,-37.7 121.5,-37.7"/>
<text text-anchor="start" x="148.9053" y="-43.8" font-family="Helvetica,sans-Serif" font-size="11.00" fill="#000000">1 &gt;</text>
</a>
</g>
</g>
<!-- document_template_group&#45;&gt;template_group -->
<g id="edge2" class="edge">
<title>document_template_group:w&#45;&gt;template_group:e</title>
<path fill="none" stroke="#000000" d="M217.91,-116.837C199.9577,-114.5844 191.0822,-108.7 167.5,-108.7"/>
<polygon fill="#000000" stroke="#000000" points="224.514,-117.2276 232.2874,-121.2937 228.507,-117.4638 232.5,-117.7 232.5,-117.7 232.5,-117.7 228.507,-117.4638 232.7126,-114.1063 224.514,-117.2276 224.514,-117.2276"/>
<ellipse fill="none" stroke="#000000" cx="221.3195" cy="-117.0386" rx="3.2" ry="3.2"/>
</g>
<!-- document_template_variable -->
<g id="node5" class="node">
<title>document_template_variable</title>
<g id="a_node5"><a xlink:href="../../tables/document_template_variable.html" xlink:title="document_template_variable" target="_top">
<polygon fill="#ffffff" stroke="transparent" points="262.5,-224.2 262.5,-285.2 496.5,-285.2 496.5,-224.2 262.5,-224.2"/>
<polygon fill="#f5f5f5" stroke="transparent" points="262.5,-261.7 262.5,-284.7 496.5,-284.7 496.5,-261.7 262.5,-261.7"/>
<polygon fill="none" stroke="#000000" points="262.5,-261.7 262.5,-284.7 496.5,-284.7 496.5,-261.7 262.5,-261.7"/>
<text text-anchor="start" x="267.5" y="-270.3" font-family="Helvetica,sans-Serif" font-weight="bold" font-size="11.00" fill="#000000">document_template_variable</text>
<text text-anchor="start" x="462.0219" y="-269.8" font-family="Helvetica,sans-Serif" font-size="11.00" fill="#000000">[table]</text>
<polygon fill="none" stroke="#000000" points="262.5,-242.7 262.5,-261.7 496.5,-261.7 496.5,-242.7 262.5,-242.7"/>
<text text-anchor="start" x="265.5" y="-248.8" font-family="Helvetica,sans-Serif" font-size="11.00" fill="#000000">...</text>
<polygon fill="#ffffff" stroke="transparent" points="262.5,-223.7 262.5,-242.7 377.5,-242.7 377.5,-223.7 262.5,-223.7"/>
<polygon fill="none" stroke="#000000" points="262.5,-223.7 262.5,-242.7 377.5,-242.7 377.5,-223.7 262.5,-223.7"/>
<text text-anchor="start" x="265.5" y="-229.8" font-family="Helvetica,sans-Serif" font-size="11.00" fill="#000000">&lt; 2</text>
<polygon fill="#ffffff" stroke="transparent" points="377.5,-223.7 377.5,-242.7 436.5,-242.7 436.5,-223.7 377.5,-223.7"/>
<polygon fill="none" stroke="#000000" points="377.5,-223.7 377.5,-242.7 436.5,-242.7 436.5,-223.7 377.5,-223.7"/>
<text text-anchor="start" x="427.3862" y="-229.8" font-family="Helvetica,sans-Serif" font-size="11.00" fill="#000000"> &#160;</text>
<polygon fill="#ffffff" stroke="transparent" points="436.5,-223.7 436.5,-242.7 496.5,-242.7 496.5,-223.7 436.5,-223.7"/>
<polygon fill="none" stroke="#000000" points="436.5,-223.7 436.5,-242.7 496.5,-242.7 496.5,-223.7 436.5,-223.7"/>
<text text-anchor="start" x="487.3862" y="-229.8" font-family="Helvetica,sans-Serif" font-size="11.00" fill="#000000"> &#160;</text>
</a>
</g>
</g>
<!-- document_template_variable&#45;&gt;document_template -->
<g id="edge4" class="edge">
<title>document_template_variable:w&#45;&gt;document_template:e</title>
<path fill="none" stroke="#000000" d="M248.0586,-251.9978C223.2008,-253.0742 212.2146,-256.7 181.5,-256.7"/>
<polygon fill="#000000" stroke="#000000" points="254.5017,-251.865 262.5742,-255.2992 258.5009,-251.7825 262.5,-251.7 262.5,-251.7 262.5,-251.7 258.5009,-251.7825 262.4258,-248.1008 254.5017,-251.865 254.5017,-251.865"/>
<ellipse fill="none" stroke="#000000" cx="251.3024" cy="-251.931" rx="3.2" ry="3.2"/>
</g>
</g>
</svg>
