<?xml version="1.0" encoding="UTF-8" standalone="no"?>
<!DOCTYPE svg PUBLIC "-//W3C//DTD SVG 1.1//EN"
 "http://www.w3.org/Graphics/SVG/1.1/DTD/svg11.dtd">
<!-- Generated by graphviz version 2.40.1 (20161225.0304)
 -->
<!-- Title: twoDegreesRelationshipsDiagram Pages: 1 -->
<svg width="570pt" height="450pt"
 viewBox="0.00 0.00 570.00 450.20" xmlns="http://www.w3.org/2000/svg" xmlns:xlink="http://www.w3.org/1999/xlink">
<g id="graph0" class="graph" transform="scale(1 1) rotate(0) translate(4 446.2)">
<title>twoDegreesRelationshipsDiagram</title>
<polygon fill="#ffffff" stroke="transparent" points="-4,4 -4,-446.2 566,-446.2 566,4 -4,4"/>
<text text-anchor="middle" x="72.4936" y="-7.3" font-family="Helvetica,sans-Serif" font-size="11.00" fill="#000000">Generated by SchemaSpy</text>
<!-- document_generation_request -->
<g id="node1" class="node">
<title>document_generation_request</title>
<g id="a_node1"><a xlink:href="../../tables/document_generation_request.html" xlink:title="document_generation_request" target="_top">
<polygon fill="#ffffff" stroke="transparent" points="310,-333.2 310,-438.2 554,-438.2 554,-333.2 310,-333.2"/>
<polygon fill="#f5f5f5" stroke="transparent" points="310,-414.7 310,-437.7 554,-437.7 554,-414.7 310,-414.7"/>
<polygon fill="none" stroke="#000000" points="310,-414.7 310,-437.7 554,-437.7 554,-414.7 310,-414.7"/>
<text text-anchor="start" x="315" y="-423.3" font-family="Helvetica,sans-Serif" font-weight="bold" font-size="11.00" fill="#000000">document_generation_request</text>
<text text-anchor="start" x="519.5219" y="-422.8" font-family="Helvetica,sans-Serif" font-size="11.00" fill="#000000">[table]</text>
<polygon fill="none" stroke="#000000" points="310,-392.7 310,-414.7 554,-414.7 554,-392.7 310,-392.7"/>
<image xlink:href="../../images/primaryKeys.png" width="11px" height="12px" preserveAspectRatio="xMinYMin meet" x="315" y="-409.7"/>
<text text-anchor="start" x="339" y="-399.8" font-family="Helvetica,sans-Serif" font-size="11.00" fill="#000000">id</text>
<polygon fill="none" stroke="#000000" points="310,-370.7 310,-392.7 554,-392.7 554,-370.7 310,-370.7"/>
<image xlink:href="../../images/foreignKeys.png" width="11px" height="12px" preserveAspectRatio="xMinYMin meet" x="315" y="-387.7"/>
<text text-anchor="start" x="339" y="-377.8" font-family="Helvetica,sans-Serif" font-size="11.00" fill="#000000">template_id</text>
<polygon fill="none" stroke="#000000" points="310,-351.7 310,-370.7 554,-370.7 554,-351.7 310,-351.7"/>
<text text-anchor="start" x="313" y="-357.8" font-family="Helvetica,sans-Serif" font-size="11.00" fill="#000000">...</text>
<polygon fill="#ffffff" stroke="transparent" points="310,-332.7 310,-351.7 430,-351.7 430,-332.7 310,-332.7"/>
<polygon fill="none" stroke="#000000" points="310,-332.7 310,-351.7 430,-351.7 430,-332.7 310,-332.7"/>
<text text-anchor="start" x="313" y="-338.8" font-family="Helvetica,sans-Serif" font-size="11.00" fill="#000000">&lt; 1</text>
<polygon fill="#ffffff" stroke="transparent" points="430,-332.7 430,-351.7 492,-351.7 492,-332.7 430,-332.7"/>
<polygon fill="none" stroke="#000000" points="430,-332.7 430,-351.7 492,-351.7 492,-332.7 430,-332.7"/>
<text text-anchor="start" x="482.8862" y="-338.8" font-family="Helvetica,sans-Serif" font-size="11.00" fill="#000000"> &#160;</text>
<polygon fill="#ffffff" stroke="transparent" points="492,-332.7 492,-351.7 554,-351.7 554,-332.7 492,-332.7"/>
<polygon fill="none" stroke="#000000" points="492,-332.7 492,-351.7 554,-351.7 554,-332.7 492,-332.7"/>
<text text-anchor="start" x="544.8862" y="-338.8" font-family="Helvetica,sans-Serif" font-size="11.00" fill="#000000"> &#160;</text>
</a>
</g>
</g>
<!-- document_template -->
<g id="node2" class="node">
<title>document_template</title>
<g id="a_node2"><a xlink:href="../../tables/document_template.html" xlink:title="document_template" target="_top">
<polygon fill="#ffffff" stroke="transparent" points="8,-217.7 8,-417.7 261,-417.7 261,-217.7 8,-217.7"/>
<polygon fill="#f5f5f5" stroke="transparent" points="10.5,-392.7 10.5,-415.7 259.5,-415.7 259.5,-392.7 10.5,-392.7"/>
<polygon fill="none" stroke="#000000" points="10.5,-392.7 10.5,-415.7 259.5,-415.7 259.5,-392.7 10.5,-392.7"/>
<text text-anchor="start" x="15.5" y="-401.3" font-family="Helvetica,sans-Serif" font-weight="bold" font-size="11.00" fill="#000000">document_template</text>
<text text-anchor="start" x="224.5437" y="-400.8" font-family="Helvetica,sans-Serif" font-size="11.00" fill="#000000">[table]</text>
<polygon fill="none" stroke="#000000" points="10.5,-370.7 10.5,-392.7 165.5,-392.7 165.5,-370.7 10.5,-370.7"/>
<image xlink:href="../../images/primaryKeys.png" width="11px" height="12px" preserveAspectRatio="xMinYMin meet" x="15.5" y="-387.7"/>
<text text-anchor="start" x="30.5" y="-377.8" font-family="Helvetica,sans-Serif" font-size="11.00" fill="#000000">id</text>
<polygon fill="none" stroke="#000000" points="165.5,-370.7 165.5,-392.7 259.5,-392.7 259.5,-370.7 165.5,-370.7"/>
<text text-anchor="start" x="168.4758" y="-378.4" font-family="Helvetica,sans-Serif" font-size="11.00" fill="#000000">uuid[2147483647]</text>
<polygon fill="#ffffff" stroke="transparent" points="10.5,-348.7 10.5,-370.7 165.5,-370.7 165.5,-348.7 10.5,-348.7"/>
<polygon fill="none" stroke="#000000" points="10.5,-348.7 10.5,-370.7 165.5,-370.7 165.5,-348.7 10.5,-348.7"/>
<image xlink:href="../../images/foreignKeys.png" width="11px" height="12px" preserveAspectRatio="xMinYMin meet" x="15.5" y="-365.7"/>
<text text-anchor="start" x="30.5" y="-355.8" font-family="Helvetica,sans-Serif" font-size="11.00" fill="#000000">code</text>
<polygon fill="none" stroke="#000000" points="165.5,-348.7 165.5,-370.7 259.5,-370.7 259.5,-348.7 165.5,-348.7"/>
<text text-anchor="start" x="168.5" y="-356.4" font-family="Helvetica,sans-Serif" font-size="11.00" fill="#000000">text[2147483647]</text>
<polygon fill="none" stroke="#000000" points="10.5,-326.7 10.5,-348.7 165.5,-348.7 165.5,-326.7 10.5,-326.7"/>
<text text-anchor="start" x="30.5" y="-333.8" font-family="Helvetica,sans-Serif" font-size="11.00" fill="#000000">name</text>
<polygon fill="none" stroke="#000000" points="165.5,-326.7 165.5,-348.7 259.5,-348.7 259.5,-326.7 165.5,-326.7"/>
<text text-anchor="start" x="168.5" y="-334.4" font-family="Helvetica,sans-Serif" font-size="11.00" fill="#000000">text[2147483647]</text>
<polygon fill="none" stroke="#000000" points="10.5,-304.7 10.5,-326.7 165.5,-326.7 165.5,-304.7 10.5,-304.7"/>
<text text-anchor="start" x="30.5" y="-311.8" font-family="Helvetica,sans-Serif" font-size="11.00" fill="#000000">description</text>
<polygon fill="none" stroke="#000000" points="165.5,-304.7 165.5,-326.7 259.5,-326.7 259.5,-304.7 165.5,-304.7"/>
<text text-anchor="start" x="168.5" y="-312.4" font-family="Helvetica,sans-Serif" font-size="11.00" fill="#000000">text[2147483647]</text>
<polygon fill="none" stroke="#000000" points="10.5,-282.7 10.5,-304.7 165.5,-304.7 165.5,-282.7 10.5,-282.7"/>
<text text-anchor="start" x="30.5" y="-289.8" font-family="Helvetica,sans-Serif" font-size="11.00" fill="#000000">version</text>
<polygon fill="none" stroke="#000000" points="165.5,-282.7 165.5,-304.7 259.5,-304.7 259.5,-282.7 165.5,-282.7"/>
<text text-anchor="start" x="168.5" y="-290.4" font-family="Helvetica,sans-Serif" font-size="11.00" fill="#000000">int4[10]</text>
<polygon fill="#ffffff" stroke="transparent" points="10.5,-260.7 10.5,-282.7 165.5,-282.7 165.5,-260.7 10.5,-260.7"/>
<polygon fill="none" stroke="#000000" points="10.5,-260.7 10.5,-282.7 165.5,-282.7 165.5,-260.7 10.5,-260.7"/>
<text text-anchor="start" x="30.5" y="-267.8" font-family="Helvetica,sans-Serif" font-size="11.00" fill="#000000">external_reference</text>
<polygon fill="none" stroke="#000000" points="165.5,-260.7 165.5,-282.7 259.5,-282.7 259.5,-260.7 165.5,-260.7"/>
<text text-anchor="start" x="168.4758" y="-268.4" font-family="Helvetica,sans-Serif" font-size="11.00" fill="#000000">uuid[2147483647]</text>
<polygon fill="none" stroke="#000000" points="10.5,-238.7 10.5,-260.7 165.5,-260.7 165.5,-238.7 10.5,-238.7"/>
<text text-anchor="start" x="30.5" y="-245.8" font-family="Helvetica,sans-Serif" font-size="11.00" fill="#000000">instruction_text</text>
<polygon fill="none" stroke="#000000" points="165.5,-238.7 165.5,-260.7 259.5,-260.7 259.5,-238.7 165.5,-238.7"/>
<text text-anchor="start" x="168.5" y="-246.4" font-family="Helvetica,sans-Serif" font-size="11.00" fill="#000000">text[2147483647]</text>
<polygon fill="#ffffff" stroke="transparent" points="10.5,-219.7 10.5,-238.7 92.5,-238.7 92.5,-219.7 10.5,-219.7"/>
<polygon fill="none" stroke="#000000" points="10.5,-219.7 10.5,-238.7 92.5,-238.7 92.5,-219.7 10.5,-219.7"/>
<text text-anchor="start" x="13.5" y="-225.8" font-family="Helvetica,sans-Serif" font-size="11.00" fill="#000000">&lt; 0</text>
<polygon fill="#ffffff" stroke="transparent" points="92.5,-219.7 92.5,-238.7 165.5,-238.7 165.5,-219.7 92.5,-219.7"/>
<polygon fill="none" stroke="#000000" points="92.5,-219.7 92.5,-238.7 165.5,-238.7 165.5,-219.7 92.5,-219.7"/>
<text text-anchor="start" x="156.3862" y="-225.8" font-family="Helvetica,sans-Serif" font-size="11.00" fill="#000000"> &#160;</text>
<polygon fill="#ffffff" stroke="transparent" points="165.5,-219.7 165.5,-238.7 259.5,-238.7 259.5,-219.7 165.5,-219.7"/>
<polygon fill="none" stroke="#000000" points="165.5,-219.7 165.5,-238.7 259.5,-238.7 259.5,-219.7 165.5,-219.7"/>
<text text-anchor="start" x="240.9053" y="-225.8" font-family="Helvetica,sans-Serif" font-size="11.00" fill="#000000">3 &gt;</text>
<polygon fill="none" stroke="#000000" stroke-width="2" points="9,-218.7 9,-416.7 260,-416.7 260,-218.7 9,-218.7"/>
</a>
</g>
</g>
<!-- document_generation_request&#45;&gt;document_template -->
<g id="edge1" class="edge">
<title>document_generation_request:w&#45;&gt;document_template:e</title>
<path fill="none" stroke="#000000" d="M295.4203,-381.7C283.5435,-381.7 276.158,-381.7 259.5,-381.7"/>
<polygon fill="#000000" stroke="#000000" points="302,-381.7001 310,-385.3 306,-381.7 310,-381.7 310,-381.7 310,-381.7 306,-381.7 310,-378.1 302,-381.7001 302,-381.7001"/>
<ellipse fill="none" stroke="#000000" cx="298.8" cy="-381.7001" rx="3.2" ry="3.2"/>
</g>
<!-- document_template_group -->
<g id="node3" class="node">
<title>document_template_group</title>
<g id="a_node3"><a xlink:href="../../tables/document_template_group.html" xlink:title="document_template_group" target="_top">
<polygon fill="#ffffff" stroke="transparent" points="322.5,-197.7 322.5,-305.7 541.5,-305.7 541.5,-197.7 322.5,-197.7"/>
<polygon fill="#f5f5f5" stroke="transparent" points="323,-282.7 323,-305.7 542,-305.7 542,-282.7 323,-282.7"/>
<polygon fill="none" stroke="#000000" points="323,-282.7 323,-305.7 542,-305.7 542,-282.7 323,-282.7"/>
<text text-anchor="start" x="328" y="-291.3" font-family="Helvetica,sans-Serif" font-weight="bold" font-size="11.00" fill="#000000">document_template_group</text>
<text text-anchor="start" x="507.5219" y="-290.8" font-family="Helvetica,sans-Serif" font-size="11.00" fill="#000000">[table]</text>
<polygon fill="none" stroke="#000000" points="323,-260.7 323,-282.7 542,-282.7 542,-260.7 323,-260.7"/>
<image xlink:href="../../images/primaryKeys.png" width="11px" height="12px" preserveAspectRatio="xMinYMin meet" x="328" y="-277.7"/>
<text text-anchor="start" x="352" y="-267.8" font-family="Helvetica,sans-Serif" font-size="11.00" fill="#000000">id</text>
<polygon fill="#ffffff" stroke="transparent" points="323,-238.7 323,-260.7 542,-260.7 542,-238.7 323,-238.7"/>
<polygon fill="none" stroke="#000000" points="323,-238.7 323,-260.7 542,-260.7 542,-238.7 323,-238.7"/>
<image xlink:href="../../images/foreignKeys.png" width="11px" height="12px" preserveAspectRatio="xMinYMin meet" x="328" y="-255.7"/>
<text text-anchor="start" x="352" y="-245.8" font-family="Helvetica,sans-Serif" font-size="11.00" fill="#000000">template_id</text>
<polygon fill="#ffffff" stroke="transparent" points="323,-216.7 323,-238.7 542,-238.7 542,-216.7 323,-216.7"/>
<polygon fill="none" stroke="#000000" points="323,-216.7 323,-238.7 542,-238.7 542,-216.7 323,-216.7"/>
<image xlink:href="../../images/foreignKeys.png" width="11px" height="12px" preserveAspectRatio="xMinYMin meet" x="328" y="-233.7"/>
<text text-anchor="start" x="352" y="-223.8" font-family="Helvetica,sans-Serif" font-size="11.00" fill="#000000">template_group_id</text>
<polygon fill="#ffffff" stroke="transparent" points="323,-197.7 323,-216.7 431,-216.7 431,-197.7 323,-197.7"/>
<polygon fill="none" stroke="#000000" points="323,-197.7 323,-216.7 431,-216.7 431,-197.7 323,-197.7"/>
<text text-anchor="start" x="326" y="-203.8" font-family="Helvetica,sans-Serif" font-size="11.00" fill="#000000">&lt; 2</text>
<polygon fill="#ffffff" stroke="transparent" points="431,-197.7 431,-216.7 486,-216.7 486,-197.7 431,-197.7"/>
<polygon fill="none" stroke="#000000" points="431,-197.7 431,-216.7 486,-216.7 486,-197.7 431,-197.7"/>
<text text-anchor="start" x="476.8862" y="-203.8" font-family="Helvetica,sans-Serif" font-size="11.00" fill="#000000"> &#160;</text>
<polygon fill="#ffffff" stroke="transparent" points="486,-197.7 486,-216.7 542,-216.7 542,-197.7 486,-197.7"/>
<polygon fill="none" stroke="#000000" points="486,-197.7 486,-216.7 542,-216.7 542,-197.7 486,-197.7"/>
<text text-anchor="start" x="532.8862" y="-203.8" font-family="Helvetica,sans-Serif" font-size="11.00" fill="#000000"> &#160;</text>
</a>
</g>
</g>
<!-- document_template_group&#45;&gt;document_template -->
<g id="edge3" class="edge">
<title>document_template_group:w&#45;&gt;document_template:e</title>
<path fill="none" stroke="#000000" d="M308.71,-252.5798C268.6051,-271.8835 318.8802,-381.7 259.5,-381.7"/>
<polygon fill="#000000" stroke="#000000" points="315.1577,-251.2805 323.7112,-253.2291 319.0788,-250.4902 323,-249.7 323,-249.7 323,-249.7 319.0788,-250.4902 322.2888,-246.1709 315.1577,-251.2805 315.1577,-251.2805"/>
<ellipse fill="none" stroke="#000000" cx="312.0207" cy="-251.9126" rx="3.2" ry="3.2"/>
</g>
<!-- template_group -->
<g id="node4" class="node">
<title>template_group</title>
<g id="a_node4"><a xlink:href="../../tables/template_group.html" xlink:title="template_group" target="_top">
<polygon fill="#ffffff" stroke="transparent" points="62,-135.2 62,-196.2 207,-196.2 207,-135.2 62,-135.2"/>
<polygon fill="#f5f5f5" stroke="transparent" points="62.5,-172.7 62.5,-195.7 207.5,-195.7 207.5,-172.7 62.5,-172.7"/>
<polygon fill="none" stroke="#000000" points="62.5,-172.7 62.5,-195.7 207.5,-195.7 207.5,-172.7 62.5,-172.7"/>
<text text-anchor="start" x="67.5" y="-181.3" font-family="Helvetica,sans-Serif" font-weight="bold" font-size="11.00" fill="#000000">template_group</text>
<text text-anchor="start" x="173.0219" y="-180.8" font-family="Helvetica,sans-Serif" font-size="11.00" fill="#000000">[table]</text>
<polygon fill="none" stroke="#000000" points="62.5,-153.7 62.5,-172.7 207.5,-172.7 207.5,-153.7 62.5,-153.7"/>
<text text-anchor="start" x="65.5" y="-159.8" font-family="Helvetica,sans-Serif" font-size="11.00" fill="#000000">...</text>
<polygon fill="#ffffff" stroke="transparent" points="62.5,-134.7 62.5,-153.7 124.5,-153.7 124.5,-134.7 62.5,-134.7"/>
<polygon fill="none" stroke="#000000" points="62.5,-134.7 62.5,-153.7 124.5,-153.7 124.5,-134.7 62.5,-134.7"/>
<text text-anchor="start" x="65.5" y="-140.8" font-family="Helvetica,sans-Serif" font-size="11.00" fill="#000000"> &#160;</text>
<polygon fill="#ffffff" stroke="transparent" points="124.5,-134.7 124.5,-153.7 161.5,-153.7 161.5,-134.7 124.5,-134.7"/>
<polygon fill="none" stroke="#000000" points="124.5,-134.7 124.5,-153.7 161.5,-153.7 161.5,-134.7 124.5,-134.7"/>
<text text-anchor="start" x="152.3862" y="-140.8" font-family="Helvetica,sans-Serif" font-size="11.00" fill="#000000"> &#160;</text>
<polygon fill="#ffffff" stroke="transparent" points="161.5,-134.7 161.5,-153.7 207.5,-153.7 207.5,-134.7 161.5,-134.7"/>
<polygon fill="none" stroke="#000000" points="161.5,-134.7 161.5,-153.7 207.5,-153.7 207.5,-134.7 161.5,-134.7"/>
<text text-anchor="start" x="188.9053" y="-140.8" font-family="Helvetica,sans-Serif" font-size="11.00" fill="#000000">1 &gt;</text>
</a>
</g>
</g>
<!-- document_template_group&#45;&gt;template_group -->
<g id="edge2" class="edge">
<title>document_template_group:w&#45;&gt;template_group:e</title>
<path fill="none" stroke="#000000" d="M308.517,-226.2203C264.0166,-216.545 261.1118,-162.7 207.5,-162.7"/>
<polygon fill="#000000" stroke="#000000" points="315.0414,-226.8868 322.6341,-231.2814 319.0207,-227.2934 323,-227.7 323,-227.7 323,-227.7 319.0207,-227.2934 323.3659,-224.1186 315.0414,-226.8868 315.0414,-226.8868"/>
<ellipse fill="none" stroke="#000000" cx="311.858" cy="-226.5615" rx="3.2" ry="3.2"/>
</g>
<!-- document_template_variable -->
<g id="node5" class="node">
<title>document_template_variable</title>
<g id="a_node5"><a xlink:href="../../tables/document_template_variable.html" xlink:title="document_template_variable" target="_top">
<polygon fill="#ffffff" stroke="transparent" points="315,-38.2 315,-165.2 549,-165.2 549,-38.2 315,-38.2"/>
<polygon fill="#f5f5f5" stroke="transparent" points="315,-141.7 315,-164.7 549,-164.7 549,-141.7 315,-141.7"/>
<polygon fill="none" stroke="#000000" points="315,-141.7 315,-164.7 549,-164.7 549,-141.7 315,-141.7"/>
<text text-anchor="start" x="320" y="-150.3" font-family="Helvetica,sans-Serif" font-weight="bold" font-size="11.00" fill="#000000">document_template_variable</text>
<text text-anchor="start" x="514.5219" y="-149.8" font-family="Helvetica,sans-Serif" font-size="11.00" fill="#000000">[table]</text>
<polygon fill="none" stroke="#000000" points="315,-119.7 315,-141.7 549,-141.7 549,-119.7 315,-119.7"/>
<image xlink:href="../../images/primaryKeys.png" width="11px" height="12px" preserveAspectRatio="xMinYMin meet" x="320" y="-136.7"/>
<text text-anchor="start" x="344" y="-126.8" font-family="Helvetica,sans-Serif" font-size="11.00" fill="#000000">id</text>
<polygon fill="#ffffff" stroke="transparent" points="315,-97.7 315,-119.7 549,-119.7 549,-97.7 315,-97.7"/>
<polygon fill="none" stroke="#000000" points="315,-97.7 315,-119.7 549,-119.7 549,-97.7 315,-97.7"/>
<image xlink:href="../../images/foreignKeys.png" width="11px" height="12px" preserveAspectRatio="xMinYMin meet" x="320" y="-114.7"/>
<text text-anchor="start" x="344" y="-104.8" font-family="Helvetica,sans-Serif" font-size="11.00" fill="#000000">template_id</text>
<polygon fill="#ffffff" stroke="transparent" points="315,-75.7 315,-97.7 549,-97.7 549,-75.7 315,-75.7"/>
<polygon fill="none" stroke="#000000" points="315,-75.7 315,-97.7 549,-97.7 549,-75.7 315,-75.7"/>
<image xlink:href="../../images/foreignKeys.png" width="11px" height="12px" preserveAspectRatio="xMinYMin meet" x="320" y="-92.7"/>
<text text-anchor="start" x="344" y="-82.8" font-family="Helvetica,sans-Serif" font-size="11.00" fill="#000000">variable_id</text>
<polygon fill="none" stroke="#000000" points="315,-56.7 315,-75.7 549,-75.7 549,-56.7 315,-56.7"/>
<text text-anchor="start" x="318" y="-62.8" font-family="Helvetica,sans-Serif" font-size="11.00" fill="#000000">...</text>
<polygon fill="#ffffff" stroke="transparent" points="315,-37.7 315,-56.7 430,-56.7 430,-37.7 315,-37.7"/>
<polygon fill="none" stroke="#000000" points="315,-37.7 315,-56.7 430,-56.7 430,-37.7 315,-37.7"/>
<text text-anchor="start" x="318" y="-43.8" font-family="Helvetica,sans-Serif" font-size="11.00" fill="#000000">&lt; 2</text>
<polygon fill="#ffffff" stroke="transparent" points="430,-37.7 430,-56.7 489,-56.7 489,-37.7 430,-37.7"/>
<polygon fill="none" stroke="#000000" points="430,-37.7 430,-56.7 489,-56.7 489,-37.7 430,-37.7"/>
<text text-anchor="start" x="479.8862" y="-43.8" font-family="Helvetica,sans-Serif" font-size="11.00" fill="#000000"> &#160;</text>
<polygon fill="#ffffff" stroke="transparent" points="489,-37.7 489,-56.7 549,-56.7 549,-37.7 489,-37.7"/>
<polygon fill="none" stroke="#000000" points="489,-37.7 489,-56.7 549,-56.7 549,-37.7 489,-37.7"/>
<text text-anchor="start" x="539.8862" y="-43.8" font-family="Helvetica,sans-Serif" font-size="11.00" fill="#000000"> &#160;</text>
</a>
</g>
</g>
<!-- document_template_variable&#45;&gt;document_template -->
<g id="edge4" class="edge">
<title>document_template_variable:w&#45;&gt;document_template:e</title>
<path fill="none" stroke="#000000" d="M301.7593,-114.402C263.8723,-153.6057 316.0874,-381.7 259.5,-381.7"/>
<polygon fill="#000000" stroke="#000000" points="307.6524,-111.8642 316.4239,-112.0064 311.3262,-110.2821 315,-108.7 315,-108.7 315,-108.7 311.3262,-110.2821 313.5761,-105.3936 307.6524,-111.8642 307.6524,-111.8642"/>
<ellipse fill="none" stroke="#000000" cx="304.7133" cy="-113.1299" rx="3.2" ry="3.2"/>
</g>
<!-- template_variable -->
<g id="node6" class="node">
<title>template_variable</title>
<g id="a_node6"><a xlink:href="../../tables/template_variable.html" xlink:title="template_variable" target="_top">
<polygon fill="#ffffff" stroke="transparent" points="54.5,-53.2 54.5,-114.2 214.5,-114.2 214.5,-53.2 54.5,-53.2"/>
<polygon fill="#f5f5f5" stroke="transparent" points="54.5,-90.7 54.5,-113.7 214.5,-113.7 214.5,-90.7 54.5,-90.7"/>
<polygon fill="none" stroke="#000000" points="54.5,-90.7 54.5,-113.7 214.5,-113.7 214.5,-90.7 54.5,-90.7"/>
<text text-anchor="start" x="59.5" y="-99.3" font-family="Helvetica,sans-Serif" font-weight="bold" font-size="11.00" fill="#000000">template_variable</text>
<text text-anchor="start" x="180.0219" y="-98.8" font-family="Helvetica,sans-Serif" font-size="11.00" fill="#000000">[table]</text>
<polygon fill="none" stroke="#000000" points="54.5,-71.7 54.5,-90.7 214.5,-90.7 214.5,-71.7 54.5,-71.7"/>
<text text-anchor="start" x="57.5" y="-77.8" font-family="Helvetica,sans-Serif" font-size="11.00" fill="#000000">...</text>
<polygon fill="#ffffff" stroke="transparent" points="54.5,-52.7 54.5,-71.7 112.5,-71.7 112.5,-52.7 54.5,-52.7"/>
<polygon fill="none" stroke="#000000" points="54.5,-52.7 54.5,-71.7 112.5,-71.7 112.5,-52.7 54.5,-52.7"/>
<text text-anchor="start" x="57.5" y="-58.8" font-family="Helvetica,sans-Serif" font-size="11.00" fill="#000000">&lt; 1</text>
<polygon fill="#ffffff" stroke="transparent" points="112.5,-52.7 112.5,-71.7 174.5,-71.7 174.5,-52.7 112.5,-52.7"/>
<polygon fill="none" stroke="#000000" points="112.5,-52.7 112.5,-71.7 174.5,-71.7 174.5,-52.7 112.5,-52.7"/>
<text text-anchor="start" x="132.9956" y="-58.8" font-family="Helvetica,sans-Serif" font-size="11.00" fill="#000000">33 rows</text>
<polygon fill="#ffffff" stroke="transparent" points="174.5,-52.7 174.5,-71.7 214.5,-71.7 214.5,-52.7 174.5,-52.7"/>
<polygon fill="none" stroke="#000000" points="174.5,-52.7 174.5,-71.7 214.5,-71.7 214.5,-52.7 174.5,-52.7"/>
<text text-anchor="start" x="195.9053" y="-58.8" font-family="Helvetica,sans-Serif" font-size="11.00" fill="#000000">1 &gt;</text>
</a>
</g>
</g>
<!-- document_template_variable&#45;&gt;template_variable -->
<g id="edge5" class="edge">
<title>document_template_variable:w&#45;&gt;template_variable:e</title>
<path fill="none" stroke="#000000" d="M300.5503,-86.4721C267.2106,-85.3761 254.0025,-80.7 214.5,-80.7"/>
<polygon fill="#000000" stroke="#000000" points="307.001,-86.5738 314.9432,-90.2996 311.0005,-86.6369 315,-86.7 315,-86.7 315,-86.7 311.0005,-86.6369 315.0568,-83.1004 307.001,-86.5738 307.001,-86.5738"/>
<ellipse fill="none" stroke="#000000" cx="303.8014" cy="-86.5233" rx="3.2" ry="3.2"/>
</g>
</g>
</svg>
