<?xml version="1.0" encoding="UTF-8" standalone="no"?>
<!DOCTYPE svg PUBLIC "-//W3C//DTD SVG 1.1//EN"
 "http://www.w3.org/Graphics/SVG/1.1/DTD/svg11.dtd">
<!-- Generated by graphviz version 2.40.1 (20161225.0304)
 -->
<!-- Title: twoDegreesRelationshipsDiagramImplied Pages: 1 -->
<svg width="836pt" height="517pt"
 viewBox="0.00 0.00 836.00 517.20" xmlns="http://www.w3.org/2000/svg" xmlns:xlink="http://www.w3.org/1999/xlink">
<g id="graph0" class="graph" transform="scale(1 1) rotate(0) translate(4 513.2)">
<title>twoDegreesRelationshipsDiagramImplied</title>
<polygon fill="#ffffff" stroke="transparent" points="-4,4 -4,-513.2 832,-513.2 832,4 -4,4"/>
<text text-anchor="middle" x="72.4936" y="-7.3" font-family="Helvetica,sans-Serif" font-size="11.00" fill="#000000">Generated by SchemaSpy</text>
<!-- document_generation_request -->
<g id="node1" class="node">
<title>document_generation_request</title>
<g id="a_node1"><a xlink:href="../../tables/document_generation_request.html" xlink:title="document_generation_request" target="_top">
<polygon fill="#ffffff" stroke="transparent" points="576,-400.2 576,-505.2 820,-505.2 820,-400.2 576,-400.2"/>
<polygon fill="#f5f5f5" stroke="transparent" points="576,-481.7 576,-504.7 820,-504.7 820,-481.7 576,-481.7"/>
<polygon fill="none" stroke="#000000" points="576,-481.7 576,-504.7 820,-504.7 820,-481.7 576,-481.7"/>
<text text-anchor="start" x="581" y="-490.3" font-family="Helvetica,sans-Serif" font-weight="bold" font-size="11.00" fill="#000000">document_generation_request</text>
<text text-anchor="start" x="785.5219" y="-489.8" font-family="Helvetica,sans-Serif" font-size="11.00" fill="#000000">[table]</text>
<polygon fill="none" stroke="#000000" points="576,-459.7 576,-481.7 820,-481.7 820,-459.7 576,-459.7"/>
<image xlink:href="../../images/primaryKeys.png" width="11px" height="12px" preserveAspectRatio="xMinYMin meet" x="581" y="-476.7"/>
<text text-anchor="start" x="605" y="-466.8" font-family="Helvetica,sans-Serif" font-size="11.00" fill="#000000">id</text>
<polygon fill="none" stroke="#000000" points="576,-437.7 576,-459.7 820,-459.7 820,-437.7 576,-437.7"/>
<image xlink:href="../../images/foreignKeys.png" width="11px" height="12px" preserveAspectRatio="xMinYMin meet" x="581" y="-454.7"/>
<text text-anchor="start" x="605" y="-444.8" font-family="Helvetica,sans-Serif" font-size="11.00" fill="#000000">template_id</text>
<polygon fill="none" stroke="#000000" points="576,-418.7 576,-437.7 820,-437.7 820,-418.7 576,-418.7"/>
<text text-anchor="start" x="579" y="-424.8" font-family="Helvetica,sans-Serif" font-size="11.00" fill="#000000">...</text>
<polygon fill="#ffffff" stroke="transparent" points="576,-399.7 576,-418.7 696,-418.7 696,-399.7 576,-399.7"/>
<polygon fill="none" stroke="#000000" points="576,-399.7 576,-418.7 696,-418.7 696,-399.7 576,-399.7"/>
<text text-anchor="start" x="579" y="-405.8" font-family="Helvetica,sans-Serif" font-size="11.00" fill="#000000">&lt; 1</text>
<polygon fill="#ffffff" stroke="transparent" points="696,-399.7 696,-418.7 758,-418.7 758,-399.7 696,-399.7"/>
<polygon fill="none" stroke="#000000" points="696,-399.7 696,-418.7 758,-418.7 758,-399.7 696,-399.7"/>
<text text-anchor="start" x="748.8862" y="-405.8" font-family="Helvetica,sans-Serif" font-size="11.00" fill="#000000"> &#160;</text>
<polygon fill="#ffffff" stroke="transparent" points="758,-399.7 758,-418.7 820,-418.7 820,-399.7 758,-399.7"/>
<polygon fill="none" stroke="#000000" points="758,-399.7 758,-418.7 820,-418.7 820,-399.7 758,-399.7"/>
<text text-anchor="start" x="810.8862" y="-405.8" font-family="Helvetica,sans-Serif" font-size="11.00" fill="#000000"> &#160;</text>
</a>
</g>
</g>
<!-- document_template -->
<g id="node2" class="node">
<title>document_template</title>
<g id="a_node2"><a xlink:href="../../tables/document_template.html" xlink:title="document_template" target="_top">
<polygon fill="#ffffff" stroke="transparent" points="274,-284.7 274,-484.7 527,-484.7 527,-284.7 274,-284.7"/>
<polygon fill="#f5f5f5" stroke="transparent" points="276.5,-459.7 276.5,-482.7 525.5,-482.7 525.5,-459.7 276.5,-459.7"/>
<polygon fill="none" stroke="#000000" points="276.5,-459.7 276.5,-482.7 525.5,-482.7 525.5,-459.7 276.5,-459.7"/>
<text text-anchor="start" x="281.5" y="-468.3" font-family="Helvetica,sans-Serif" font-weight="bold" font-size="11.00" fill="#000000">document_template</text>
<text text-anchor="start" x="490.5437" y="-467.8" font-family="Helvetica,sans-Serif" font-size="11.00" fill="#000000">[table]</text>
<polygon fill="none" stroke="#000000" points="276.5,-437.7 276.5,-459.7 431.5,-459.7 431.5,-437.7 276.5,-437.7"/>
<image xlink:href="../../images/primaryKeys.png" width="11px" height="12px" preserveAspectRatio="xMinYMin meet" x="281.5" y="-454.7"/>
<text text-anchor="start" x="296.5" y="-444.8" font-family="Helvetica,sans-Serif" font-size="11.00" fill="#000000">id</text>
<polygon fill="none" stroke="#000000" points="431.5,-437.7 431.5,-459.7 525.5,-459.7 525.5,-437.7 431.5,-437.7"/>
<text text-anchor="start" x="434.4758" y="-445.4" font-family="Helvetica,sans-Serif" font-size="11.00" fill="#000000">uuid[2147483647]</text>
<polygon fill="#ffffff" stroke="transparent" points="276.5,-415.7 276.5,-437.7 431.5,-437.7 431.5,-415.7 276.5,-415.7"/>
<polygon fill="none" stroke="#000000" points="276.5,-415.7 276.5,-437.7 431.5,-437.7 431.5,-415.7 276.5,-415.7"/>
<image xlink:href="../../images/foreignKeys.png" width="11px" height="12px" preserveAspectRatio="xMinYMin meet" x="281.5" y="-432.7"/>
<text text-anchor="start" x="296.5" y="-422.8" font-family="Helvetica,sans-Serif" font-size="11.00" fill="#000000">code</text>
<polygon fill="none" stroke="#000000" points="431.5,-415.7 431.5,-437.7 525.5,-437.7 525.5,-415.7 431.5,-415.7"/>
<text text-anchor="start" x="434.5" y="-423.4" font-family="Helvetica,sans-Serif" font-size="11.00" fill="#000000">text[2147483647]</text>
<polygon fill="none" stroke="#000000" points="276.5,-393.7 276.5,-415.7 431.5,-415.7 431.5,-393.7 276.5,-393.7"/>
<text text-anchor="start" x="296.5" y="-400.8" font-family="Helvetica,sans-Serif" font-size="11.00" fill="#000000">name</text>
<polygon fill="none" stroke="#000000" points="431.5,-393.7 431.5,-415.7 525.5,-415.7 525.5,-393.7 431.5,-393.7"/>
<text text-anchor="start" x="434.5" y="-401.4" font-family="Helvetica,sans-Serif" font-size="11.00" fill="#000000">text[2147483647]</text>
<polygon fill="none" stroke="#000000" points="276.5,-371.7 276.5,-393.7 431.5,-393.7 431.5,-371.7 276.5,-371.7"/>
<text text-anchor="start" x="296.5" y="-378.8" font-family="Helvetica,sans-Serif" font-size="11.00" fill="#000000">description</text>
<polygon fill="none" stroke="#000000" points="431.5,-371.7 431.5,-393.7 525.5,-393.7 525.5,-371.7 431.5,-371.7"/>
<text text-anchor="start" x="434.5" y="-379.4" font-family="Helvetica,sans-Serif" font-size="11.00" fill="#000000">text[2147483647]</text>
<polygon fill="none" stroke="#000000" points="276.5,-349.7 276.5,-371.7 431.5,-371.7 431.5,-349.7 276.5,-349.7"/>
<text text-anchor="start" x="296.5" y="-356.8" font-family="Helvetica,sans-Serif" font-size="11.00" fill="#000000">version</text>
<polygon fill="none" stroke="#000000" points="431.5,-349.7 431.5,-371.7 525.5,-371.7 525.5,-349.7 431.5,-349.7"/>
<text text-anchor="start" x="434.5" y="-357.4" font-family="Helvetica,sans-Serif" font-size="11.00" fill="#000000">int4[10]</text>
<polygon fill="#ffffff" stroke="transparent" points="276.5,-327.7 276.5,-349.7 431.5,-349.7 431.5,-327.7 276.5,-327.7"/>
<polygon fill="none" stroke="#000000" points="276.5,-327.7 276.5,-349.7 431.5,-349.7 431.5,-327.7 276.5,-327.7"/>
<text text-anchor="start" x="296.5" y="-334.8" font-family="Helvetica,sans-Serif" font-size="11.00" fill="#000000">external_reference</text>
<polygon fill="none" stroke="#000000" points="431.5,-327.7 431.5,-349.7 525.5,-349.7 525.5,-327.7 431.5,-327.7"/>
<text text-anchor="start" x="434.4758" y="-335.4" font-family="Helvetica,sans-Serif" font-size="11.00" fill="#000000">uuid[2147483647]</text>
<polygon fill="none" stroke="#000000" points="276.5,-305.7 276.5,-327.7 431.5,-327.7 431.5,-305.7 276.5,-305.7"/>
<text text-anchor="start" x="296.5" y="-312.8" font-family="Helvetica,sans-Serif" font-size="11.00" fill="#000000">instruction_text</text>
<polygon fill="none" stroke="#000000" points="431.5,-305.7 431.5,-327.7 525.5,-327.7 525.5,-305.7 431.5,-305.7"/>
<text text-anchor="start" x="434.5" y="-313.4" font-family="Helvetica,sans-Serif" font-size="11.00" fill="#000000">text[2147483647]</text>
<polygon fill="#ffffff" stroke="transparent" points="276.5,-286.7 276.5,-305.7 358.5,-305.7 358.5,-286.7 276.5,-286.7"/>
<polygon fill="none" stroke="#000000" points="276.5,-286.7 276.5,-305.7 358.5,-305.7 358.5,-286.7 276.5,-286.7"/>
<text text-anchor="start" x="279.5" y="-292.8" font-family="Helvetica,sans-Serif" font-size="11.00" fill="#000000">&lt; 1</text>
<polygon fill="#ffffff" stroke="transparent" points="358.5,-286.7 358.5,-305.7 431.5,-305.7 431.5,-286.7 358.5,-286.7"/>
<polygon fill="none" stroke="#000000" points="358.5,-286.7 358.5,-305.7 431.5,-305.7 431.5,-286.7 358.5,-286.7"/>
<text text-anchor="start" x="422.3862" y="-292.8" font-family="Helvetica,sans-Serif" font-size="11.00" fill="#000000"> &#160;</text>
<polygon fill="#ffffff" stroke="transparent" points="431.5,-286.7 431.5,-305.7 525.5,-305.7 525.5,-286.7 431.5,-286.7"/>
<polygon fill="none" stroke="#000000" points="431.5,-286.7 431.5,-305.7 525.5,-305.7 525.5,-286.7 431.5,-286.7"/>
<text text-anchor="start" x="506.9053" y="-292.8" font-family="Helvetica,sans-Serif" font-size="11.00" fill="#000000">3 &gt;</text>
<polygon fill="none" stroke="#000000" stroke-width="2" points="275,-285.7 275,-483.7 526,-483.7 526,-285.7 275,-285.7"/>
</a>
</g>
</g>
<!-- document_generation_request&#45;&gt;document_template -->
<g id="edge1" class="edge">
<title>document_generation_request:w&#45;&gt;document_template:e</title>
<path fill="none" stroke="#000000" d="M561.4203,-448.7C549.5435,-448.7 542.158,-448.7 525.5,-448.7"/>
<polygon fill="#000000" stroke="#000000" points="568,-448.7001 576,-452.3 572,-448.7 576,-448.7 576,-448.7 576,-448.7 572,-448.7 576,-445.1 568,-448.7001 568,-448.7001"/>
<ellipse fill="none" stroke="#000000" cx="564.8" cy="-448.7001" rx="3.2" ry="3.2"/>
</g>
<!-- template_variable_domain -->
<g id="node3" class="node">
<title>template_variable_domain</title>
<g id="a_node3"><a xlink:href="../../tables/template_variable_domain.html" xlink:title="template_variable_domain" target="_top">
<polygon fill="#ffffff" stroke="transparent" points="8,-118.2 8,-223.2 225,-223.2 225,-118.2 8,-118.2"/>
<polygon fill="#f5f5f5" stroke="transparent" points="8.5,-199.7 8.5,-222.7 225.5,-222.7 225.5,-199.7 8.5,-199.7"/>
<polygon fill="none" stroke="#000000" points="8.5,-199.7 8.5,-222.7 225.5,-222.7 225.5,-199.7 8.5,-199.7"/>
<text text-anchor="start" x="13.5" y="-208.3" font-family="Helvetica,sans-Serif" font-weight="bold" font-size="11.00" fill="#000000">template_variable_domain</text>
<text text-anchor="start" x="191.0219" y="-207.8" font-family="Helvetica,sans-Serif" font-size="11.00" fill="#000000">[table]</text>
<polygon fill="none" stroke="#000000" points="8.5,-177.7 8.5,-199.7 225.5,-199.7 225.5,-177.7 8.5,-177.7"/>
<image xlink:href="../../images/primaryKeys.png" width="11px" height="12px" preserveAspectRatio="xMinYMin meet" x="13.5" y="-194.7"/>
<text text-anchor="start" x="37.5" y="-184.8" font-family="Helvetica,sans-Serif" font-size="11.00" fill="#000000">code</text>
<polygon fill="#ffffff" stroke="transparent" points="8.5,-155.7 8.5,-177.7 225.5,-177.7 225.5,-155.7 8.5,-155.7"/>
<polygon fill="none" stroke="#000000" points="8.5,-155.7 8.5,-177.7 225.5,-177.7 225.5,-155.7 8.5,-155.7"/>
<text text-anchor="start" x="37.5" y="-162.8" font-family="Helvetica,sans-Serif" font-size="11.00" fill="#000000">sequence_number</text>
<polygon fill="none" stroke="#000000" points="8.5,-136.7 8.5,-155.7 225.5,-155.7 225.5,-136.7 8.5,-136.7"/>
<text text-anchor="start" x="11.5" y="-142.8" font-family="Helvetica,sans-Serif" font-size="11.00" fill="#000000">...</text>
<polygon fill="#ffffff" stroke="transparent" points="8.5,-117.7 8.5,-136.7 106.5,-136.7 106.5,-117.7 8.5,-117.7"/>
<polygon fill="none" stroke="#000000" points="8.5,-117.7 8.5,-136.7 106.5,-136.7 106.5,-117.7 8.5,-117.7"/>
<text text-anchor="start" x="11.5" y="-123.8" font-family="Helvetica,sans-Serif" font-size="11.00" fill="#000000"> &#160;</text>
<polygon fill="#ffffff" stroke="transparent" points="106.5,-117.7 106.5,-136.7 161.5,-136.7 161.5,-117.7 106.5,-117.7"/>
<polygon fill="none" stroke="#000000" points="106.5,-117.7 106.5,-136.7 161.5,-136.7 161.5,-117.7 106.5,-117.7"/>
<text text-anchor="start" x="152.3862" y="-123.8" font-family="Helvetica,sans-Serif" font-size="11.00" fill="#000000"> &#160;</text>
<polygon fill="#ffffff" stroke="transparent" points="161.5,-117.7 161.5,-136.7 225.5,-136.7 225.5,-117.7 161.5,-117.7"/>
<polygon fill="none" stroke="#000000" points="161.5,-117.7 161.5,-136.7 225.5,-136.7 225.5,-117.7 161.5,-117.7"/>
<text text-anchor="start" x="206.9053" y="-123.8" font-family="Helvetica,sans-Serif" font-size="11.00" fill="#000000">4 &gt;</text>
</a>
</g>
</g>
<!-- document_template&#45;&gt;template_variable_domain -->
<g id="edge2" class="edge">
<title>document_template:w&#45;&gt;template_variable_domain:e</title>
<path fill="none" stroke="#000000" stroke-dasharray="5,2" d="M266.081,-425.8382C179.6096,-410.2598 329.8759,-188.7 225.5,-188.7"/>
<polygon fill="#000000" stroke="#000000" points="276.0325,-422.6477 275.373,-430.6204 273.7784,-430.4885 274.4379,-422.5158 276.0325,-422.6477"/>
<polyline fill="none" stroke="#000000" points="276.5,-426.7 272.5136,-426.3702 "/>
<ellipse fill="none" stroke="#000000" cx="269.3245" cy="-426.1064" rx="3.2" ry="3.2"/>
</g>
<!-- document_template_audit -->
<g id="node4" class="node">
<title>document_template_audit</title>
<g id="a_node4"><a xlink:href="../../tables/document_template_audit.html" xlink:title="document_template_audit" target="_top">
<polygon fill="#ffffff" stroke="transparent" points="293.5,-202.2 293.5,-263.2 507.5,-263.2 507.5,-202.2 293.5,-202.2"/>
<polygon fill="#f5f5f5" stroke="transparent" points="293.5,-239.7 293.5,-262.7 507.5,-262.7 507.5,-239.7 293.5,-239.7"/>
<polygon fill="none" stroke="#000000" points="293.5,-239.7 293.5,-262.7 507.5,-262.7 507.5,-239.7 293.5,-239.7"/>
<text text-anchor="start" x="298.5" y="-248.3" font-family="Helvetica,sans-Serif" font-weight="bold" font-size="11.00" fill="#000000">document_template_audit</text>
<text text-anchor="start" x="473.0219" y="-247.8" font-family="Helvetica,sans-Serif" font-size="11.00" fill="#000000">[table]</text>
<polygon fill="none" stroke="#000000" points="293.5,-220.7 293.5,-239.7 507.5,-239.7 507.5,-220.7 293.5,-220.7"/>
<text text-anchor="start" x="296.5" y="-226.8" font-family="Helvetica,sans-Serif" font-size="11.00" fill="#000000">...</text>
<polygon fill="#ffffff" stroke="transparent" points="293.5,-201.7 293.5,-220.7 398.5,-220.7 398.5,-201.7 293.5,-201.7"/>
<polygon fill="none" stroke="#000000" points="293.5,-201.7 293.5,-220.7 398.5,-220.7 398.5,-201.7 293.5,-201.7"/>
<text text-anchor="start" x="296.5" y="-207.8" font-family="Helvetica,sans-Serif" font-size="11.00" fill="#000000">&lt; 2</text>
<polygon fill="#ffffff" stroke="transparent" points="398.5,-201.7 398.5,-220.7 452.5,-220.7 452.5,-201.7 398.5,-201.7"/>
<polygon fill="none" stroke="#000000" points="398.5,-201.7 398.5,-220.7 452.5,-220.7 452.5,-201.7 398.5,-201.7"/>
<text text-anchor="start" x="443.3862" y="-207.8" font-family="Helvetica,sans-Serif" font-size="11.00" fill="#000000"> &#160;</text>
<polygon fill="#ffffff" stroke="transparent" points="452.5,-201.7 452.5,-220.7 507.5,-220.7 507.5,-201.7 452.5,-201.7"/>
<polygon fill="none" stroke="#000000" points="452.5,-201.7 452.5,-220.7 507.5,-220.7 507.5,-201.7 452.5,-201.7"/>
<text text-anchor="start" x="498.3862" y="-207.8" font-family="Helvetica,sans-Serif" font-size="11.00" fill="#000000"> &#160;</text>
</a>
</g>
</g>
<!-- document_template_audit&#45;&gt;template_variable_domain -->
<g id="edge3" class="edge">
<title>document_template_audit:w&#45;&gt;template_variable_domain:e</title>
<path fill="none" stroke="#000000" stroke-dasharray="5,2" d="M279.147,-226.8819C258.0647,-217.6188 255.1387,-188.7 225.5,-188.7"/>
<polygon fill="#000000" stroke="#000000" points="285.6499,-228.1586 292.8064,-233.2326 289.5749,-228.9293 293.5,-229.7 293.5,-229.7 293.5,-229.7 289.5749,-228.9293 294.1936,-226.1674 285.6499,-228.1586 285.6499,-228.1586"/>
<ellipse fill="none" stroke="#000000" cx="282.5098" cy="-227.5421" rx="3.2" ry="3.2"/>
</g>
<!-- document_template_group -->
<g id="node5" class="node">
<title>document_template_group</title>
<g id="a_node5"><a xlink:href="../../tables/document_template_group.html" xlink:title="document_template_group" target="_top">
<polygon fill="#ffffff" stroke="transparent" points="588.5,-218.7 588.5,-326.7 807.5,-326.7 807.5,-218.7 588.5,-218.7"/>
<polygon fill="#f5f5f5" stroke="transparent" points="589,-303.7 589,-326.7 808,-326.7 808,-303.7 589,-303.7"/>
<polygon fill="none" stroke="#000000" points="589,-303.7 589,-326.7 808,-326.7 808,-303.7 589,-303.7"/>
<text text-anchor="start" x="594" y="-312.3" font-family="Helvetica,sans-Serif" font-weight="bold" font-size="11.00" fill="#000000">document_template_group</text>
<text text-anchor="start" x="773.5219" y="-311.8" font-family="Helvetica,sans-Serif" font-size="11.00" fill="#000000">[table]</text>
<polygon fill="none" stroke="#000000" points="589,-281.7 589,-303.7 808,-303.7 808,-281.7 589,-281.7"/>
<image xlink:href="../../images/primaryKeys.png" width="11px" height="12px" preserveAspectRatio="xMinYMin meet" x="594" y="-298.7"/>
<text text-anchor="start" x="618" y="-288.8" font-family="Helvetica,sans-Serif" font-size="11.00" fill="#000000">id</text>
<polygon fill="#ffffff" stroke="transparent" points="589,-259.7 589,-281.7 808,-281.7 808,-259.7 589,-259.7"/>
<polygon fill="none" stroke="#000000" points="589,-259.7 589,-281.7 808,-281.7 808,-259.7 589,-259.7"/>
<image xlink:href="../../images/foreignKeys.png" width="11px" height="12px" preserveAspectRatio="xMinYMin meet" x="594" y="-276.7"/>
<text text-anchor="start" x="618" y="-266.8" font-family="Helvetica,sans-Serif" font-size="11.00" fill="#000000">template_id</text>
<polygon fill="#ffffff" stroke="transparent" points="589,-237.7 589,-259.7 808,-259.7 808,-237.7 589,-237.7"/>
<polygon fill="none" stroke="#000000" points="589,-237.7 589,-259.7 808,-259.7 808,-237.7 589,-237.7"/>
<image xlink:href="../../images/foreignKeys.png" width="11px" height="12px" preserveAspectRatio="xMinYMin meet" x="594" y="-254.7"/>
<text text-anchor="start" x="618" y="-244.8" font-family="Helvetica,sans-Serif" font-size="11.00" fill="#000000">template_group_id</text>
<polygon fill="#ffffff" stroke="transparent" points="589,-218.7 589,-237.7 697,-237.7 697,-218.7 589,-218.7"/>
<polygon fill="none" stroke="#000000" points="589,-218.7 589,-237.7 697,-237.7 697,-218.7 589,-218.7"/>
<text text-anchor="start" x="592" y="-224.8" font-family="Helvetica,sans-Serif" font-size="11.00" fill="#000000">&lt; 2</text>
<polygon fill="#ffffff" stroke="transparent" points="697,-218.7 697,-237.7 752,-237.7 752,-218.7 697,-218.7"/>
<polygon fill="none" stroke="#000000" points="697,-218.7 697,-237.7 752,-237.7 752,-218.7 697,-218.7"/>
<text text-anchor="start" x="742.8862" y="-224.8" font-family="Helvetica,sans-Serif" font-size="11.00" fill="#000000"> &#160;</text>
<polygon fill="#ffffff" stroke="transparent" points="752,-218.7 752,-237.7 808,-237.7 808,-218.7 752,-218.7"/>
<polygon fill="none" stroke="#000000" points="752,-218.7 752,-237.7 808,-237.7 808,-218.7 752,-218.7"/>
<text text-anchor="start" x="798.8862" y="-224.8" font-family="Helvetica,sans-Serif" font-size="11.00" fill="#000000"> &#160;</text>
</a>
</g>
</g>
<!-- document_template_group&#45;&gt;document_template -->
<g id="edge5" class="edge">
<title>document_template_group:w&#45;&gt;document_template:e</title>
<path fill="none" stroke="#000000" d="M574.6499,-272.9506C518.0518,-293.5557 603.9167,-448.7 525.5,-448.7"/>
<polygon fill="#000000" stroke="#000000" points="581.0966,-271.9396 589.5578,-274.2565 585.0483,-271.3198 589,-270.7 589,-270.7 589,-270.7 585.0483,-271.3198 588.4422,-267.1435 581.0966,-271.9396 581.0966,-271.9396"/>
<ellipse fill="none" stroke="#000000" cx="577.9353" cy="-272.4354" rx="3.2" ry="3.2"/>
</g>
<!-- template_group -->
<g id="node6" class="node">
<title>template_group</title>
<g id="a_node6"><a xlink:href="../../tables/template_group.html" xlink:title="template_group" target="_top">
<polygon fill="#ffffff" stroke="transparent" points="328,-120.2 328,-181.2 473,-181.2 473,-120.2 328,-120.2"/>
<polygon fill="#f5f5f5" stroke="transparent" points="328.5,-157.7 328.5,-180.7 473.5,-180.7 473.5,-157.7 328.5,-157.7"/>
<polygon fill="none" stroke="#000000" points="328.5,-157.7 328.5,-180.7 473.5,-180.7 473.5,-157.7 328.5,-157.7"/>
<text text-anchor="start" x="333.5" y="-166.3" font-family="Helvetica,sans-Serif" font-weight="bold" font-size="11.00" fill="#000000">template_group</text>
<text text-anchor="start" x="439.0219" y="-165.8" font-family="Helvetica,sans-Serif" font-size="11.00" fill="#000000">[table]</text>
<polygon fill="none" stroke="#000000" points="328.5,-138.7 328.5,-157.7 473.5,-157.7 473.5,-138.7 328.5,-138.7"/>
<text text-anchor="start" x="331.5" y="-144.8" font-family="Helvetica,sans-Serif" font-size="11.00" fill="#000000">...</text>
<polygon fill="#ffffff" stroke="transparent" points="328.5,-119.7 328.5,-138.7 394.5,-138.7 394.5,-119.7 328.5,-119.7"/>
<polygon fill="none" stroke="#000000" points="328.5,-119.7 328.5,-138.7 394.5,-138.7 394.5,-119.7 328.5,-119.7"/>
<text text-anchor="start" x="331.5" y="-125.8" font-family="Helvetica,sans-Serif" font-size="11.00" fill="#000000">&lt; 1</text>
<polygon fill="#ffffff" stroke="transparent" points="394.5,-119.7 394.5,-138.7 429.5,-138.7 429.5,-119.7 394.5,-119.7"/>
<polygon fill="none" stroke="#000000" points="394.5,-119.7 394.5,-138.7 429.5,-138.7 429.5,-119.7 394.5,-119.7"/>
<text text-anchor="start" x="420.3862" y="-125.8" font-family="Helvetica,sans-Serif" font-size="11.00" fill="#000000"> &#160;</text>
<polygon fill="#ffffff" stroke="transparent" points="429.5,-119.7 429.5,-138.7 473.5,-138.7 473.5,-119.7 429.5,-119.7"/>
<polygon fill="none" stroke="#000000" points="429.5,-119.7 429.5,-138.7 473.5,-138.7 473.5,-119.7 429.5,-119.7"/>
<text text-anchor="start" x="454.9053" y="-125.8" font-family="Helvetica,sans-Serif" font-size="11.00" fill="#000000">1 &gt;</text>
</a>
</g>
</g>
<!-- document_template_group&#45;&gt;template_group -->
<g id="edge4" class="edge">
<title>document_template_group:w&#45;&gt;template_group:e</title>
<path fill="none" stroke="#000000" d="M574.6207,-246.0301C555.5789,-237.5673 556.8915,-210.7736 535,-191.7 509.6604,-169.6221 507.1085,-147.7 473.5,-147.7"/>
<polygon fill="#000000" stroke="#000000" points="581.1344,-247.2395 588.3428,-252.2395 585.0672,-247.9698 589,-248.7 589,-248.7 589,-248.7 585.0672,-247.9698 589.6572,-245.1605 581.1344,-247.2395 581.1344,-247.2395"/>
<ellipse fill="none" stroke="#000000" cx="577.9882" cy="-246.6553" rx="3.2" ry="3.2"/>
</g>
<!-- template_group&#45;&gt;template_variable_domain -->
<g id="edge8" class="edge">
<title>template_group:w&#45;&gt;template_variable_domain:e</title>
<path fill="none" stroke="#000000" stroke-dasharray="5,2" d="M317.9812,-148.3774C278.2897,-153.7082 271.0182,-188.7 225.5,-188.7"/>
<polygon fill="#000000" stroke="#000000" points="327.4445,-143.7597 327.9588,-151.7432 326.3621,-151.846 325.8479,-143.8625 327.4445,-143.7597"/>
<polyline fill="none" stroke="#000000" points="328.5,-147.7 324.5083,-147.9571 "/>
<ellipse fill="none" stroke="#000000" cx="321.3149" cy="-148.1628" rx="3.2" ry="3.2"/>
</g>
<!-- document_template_variable -->
<g id="node7" class="node">
<title>document_template_variable</title>
<g id="a_node7"><a xlink:href="../../tables/document_template_variable.html" xlink:title="document_template_variable" target="_top">
<polygon fill="#ffffff" stroke="transparent" points="581,-43.2 581,-170.2 815,-170.2 815,-43.2 581,-43.2"/>
<polygon fill="#f5f5f5" stroke="transparent" points="581,-146.7 581,-169.7 815,-169.7 815,-146.7 581,-146.7"/>
<polygon fill="none" stroke="#000000" points="581,-146.7 581,-169.7 815,-169.7 815,-146.7 581,-146.7"/>
<text text-anchor="start" x="586" y="-155.3" font-family="Helvetica,sans-Serif" font-weight="bold" font-size="11.00" fill="#000000">document_template_variable</text>
<text text-anchor="start" x="780.5219" y="-154.8" font-family="Helvetica,sans-Serif" font-size="11.00" fill="#000000">[table]</text>
<polygon fill="none" stroke="#000000" points="581,-124.7 581,-146.7 815,-146.7 815,-124.7 581,-124.7"/>
<image xlink:href="../../images/primaryKeys.png" width="11px" height="12px" preserveAspectRatio="xMinYMin meet" x="586" y="-141.7"/>
<text text-anchor="start" x="610" y="-131.8" font-family="Helvetica,sans-Serif" font-size="11.00" fill="#000000">id</text>
<polygon fill="#ffffff" stroke="transparent" points="581,-102.7 581,-124.7 815,-124.7 815,-102.7 581,-102.7"/>
<polygon fill="none" stroke="#000000" points="581,-102.7 581,-124.7 815,-124.7 815,-102.7 581,-102.7"/>
<image xlink:href="../../images/foreignKeys.png" width="11px" height="12px" preserveAspectRatio="xMinYMin meet" x="586" y="-119.7"/>
<text text-anchor="start" x="610" y="-109.8" font-family="Helvetica,sans-Serif" font-size="11.00" fill="#000000">template_id</text>
<polygon fill="#ffffff" stroke="transparent" points="581,-80.7 581,-102.7 815,-102.7 815,-80.7 581,-80.7"/>
<polygon fill="none" stroke="#000000" points="581,-80.7 581,-102.7 815,-102.7 815,-80.7 581,-80.7"/>
<image xlink:href="../../images/foreignKeys.png" width="11px" height="12px" preserveAspectRatio="xMinYMin meet" x="586" y="-97.7"/>
<text text-anchor="start" x="610" y="-87.8" font-family="Helvetica,sans-Serif" font-size="11.00" fill="#000000">variable_id</text>
<polygon fill="none" stroke="#000000" points="581,-61.7 581,-80.7 815,-80.7 815,-61.7 581,-61.7"/>
<text text-anchor="start" x="584" y="-67.8" font-family="Helvetica,sans-Serif" font-size="11.00" fill="#000000">...</text>
<polygon fill="#ffffff" stroke="transparent" points="581,-42.7 581,-61.7 696,-61.7 696,-42.7 581,-42.7"/>
<polygon fill="none" stroke="#000000" points="581,-42.7 581,-61.7 696,-61.7 696,-42.7 581,-42.7"/>
<text text-anchor="start" x="584" y="-48.8" font-family="Helvetica,sans-Serif" font-size="11.00" fill="#000000">&lt; 2</text>
<polygon fill="#ffffff" stroke="transparent" points="696,-42.7 696,-61.7 755,-61.7 755,-42.7 696,-42.7"/>
<polygon fill="none" stroke="#000000" points="696,-42.7 696,-61.7 755,-61.7 755,-42.7 696,-42.7"/>
<text text-anchor="start" x="745.8862" y="-48.8" font-family="Helvetica,sans-Serif" font-size="11.00" fill="#000000"> &#160;</text>
<polygon fill="#ffffff" stroke="transparent" points="755,-42.7 755,-61.7 815,-61.7 815,-42.7 755,-42.7"/>
<polygon fill="none" stroke="#000000" points="755,-42.7 755,-61.7 815,-61.7 815,-42.7 755,-42.7"/>
<text text-anchor="start" x="805.8862" y="-48.8" font-family="Helvetica,sans-Serif" font-size="11.00" fill="#000000"> &#160;</text>
</a>
</g>
</g>
<!-- document_template_variable&#45;&gt;document_template -->
<g id="edge6" class="edge">
<title>document_template_variable:w&#45;&gt;document_template:e</title>
<path fill="none" stroke="#000000" d="M567.1888,-118.6956C518.4394,-160.3685 595.5061,-448.7 525.5,-448.7"/>
<polygon fill="#000000" stroke="#000000" points="573.477,-116.4212 582.2245,-117.0854 577.2385,-115.0606 581,-113.7 581,-113.7 581,-113.7 577.2385,-115.0606 579.7755,-110.3146 573.477,-116.4212 573.477,-116.4212"/>
<ellipse fill="none" stroke="#000000" cx="570.4678" cy="-117.5096" rx="3.2" ry="3.2"/>
</g>
<!-- template_variable -->
<g id="node8" class="node">
<title>template_variable</title>
<g id="a_node8"><a xlink:href="../../tables/template_variable.html" xlink:title="template_variable" target="_top">
<polygon fill="#ffffff" stroke="transparent" points="320.5,-38.2 320.5,-99.2 480.5,-99.2 480.5,-38.2 320.5,-38.2"/>
<polygon fill="#f5f5f5" stroke="transparent" points="320.5,-75.7 320.5,-98.7 480.5,-98.7 480.5,-75.7 320.5,-75.7"/>
<polygon fill="none" stroke="#000000" points="320.5,-75.7 320.5,-98.7 480.5,-98.7 480.5,-75.7 320.5,-75.7"/>
<text text-anchor="start" x="325.5" y="-84.3" font-family="Helvetica,sans-Serif" font-weight="bold" font-size="11.00" fill="#000000">template_variable</text>
<text text-anchor="start" x="446.0219" y="-83.8" font-family="Helvetica,sans-Serif" font-size="11.00" fill="#000000">[table]</text>
<polygon fill="none" stroke="#000000" points="320.5,-56.7 320.5,-75.7 480.5,-75.7 480.5,-56.7 320.5,-56.7"/>
<text text-anchor="start" x="323.5" y="-62.8" font-family="Helvetica,sans-Serif" font-size="11.00" fill="#000000">...</text>
<polygon fill="#ffffff" stroke="transparent" points="320.5,-37.7 320.5,-56.7 378.5,-56.7 378.5,-37.7 320.5,-37.7"/>
<polygon fill="none" stroke="#000000" points="320.5,-37.7 320.5,-56.7 378.5,-56.7 378.5,-37.7 320.5,-37.7"/>
<text text-anchor="start" x="323.5" y="-43.8" font-family="Helvetica,sans-Serif" font-size="11.00" fill="#000000">&lt; 1</text>
<polygon fill="#ffffff" stroke="transparent" points="378.5,-37.7 378.5,-56.7 440.5,-56.7 440.5,-37.7 378.5,-37.7"/>
<polygon fill="none" stroke="#000000" points="378.5,-37.7 378.5,-56.7 440.5,-56.7 440.5,-37.7 378.5,-37.7"/>
<text text-anchor="start" x="398.9956" y="-43.8" font-family="Helvetica,sans-Serif" font-size="11.00" fill="#000000">33 rows</text>
<polygon fill="#ffffff" stroke="transparent" points="440.5,-37.7 440.5,-56.7 480.5,-56.7 480.5,-37.7 440.5,-37.7"/>
<polygon fill="none" stroke="#000000" points="440.5,-37.7 440.5,-56.7 480.5,-56.7 480.5,-37.7 440.5,-37.7"/>
<text text-anchor="start" x="461.9053" y="-43.8" font-family="Helvetica,sans-Serif" font-size="11.00" fill="#000000">1 &gt;</text>
</a>
</g>
</g>
<!-- document_template_variable&#45;&gt;template_variable -->
<g id="edge7" class="edge">
<title>document_template_variable:w&#45;&gt;template_variable:e</title>
<path fill="none" stroke="#000000" d="M566.2198,-90.7125C532.4143,-85.9633 521.2305,-65.7 480.5,-65.7"/>
<polygon fill="#000000" stroke="#000000" points="573.0178,-91.1667 580.76,-95.292 577.0089,-91.4333 581,-91.7 581,-91.7 581,-91.7 577.0089,-91.4333 581.24,-88.108 573.0178,-91.1667 573.0178,-91.1667"/>
<ellipse fill="none" stroke="#000000" cx="569.8249" cy="-90.9533" rx="3.2" ry="3.2"/>
</g>
<!-- template_variable&#45;&gt;template_variable_domain -->
<g id="edge9" class="edge">
<title>template_variable:w&#45;&gt;template_variable_domain:e</title>
<path fill="none" stroke="#000000" d="M306.1213,-67.5322C287.515,-72.9711 282.1103,-89.8858 266,-109.7 241.1087,-140.314 264.9562,-188.7 225.5,-188.7"/>
<polygon fill="#000000" stroke="#000000" points="312.5642,-66.7112 320.9551,-69.2711 316.5321,-66.2056 320.5,-65.7 320.5,-65.7 320.5,-65.7 316.5321,-66.2056 320.0449,-62.1289 312.5642,-66.7112 312.5642,-66.7112"/>
<ellipse fill="none" stroke="#000000" cx="309.3898" cy="-67.1157" rx="3.2" ry="3.2"/>
</g>
</g>
</svg>
