<?xml version="1.0" encoding="UTF-8" standalone="no"?>
<!DOCTYPE svg PUBLIC "-//W3C//DTD SVG 1.1//EN"
 "http://www.w3.org/Graphics/SVG/1.1/DTD/svg11.dtd">
<!-- Generated by graphviz version 2.40.1 (20161225.0304)
 -->
<!-- Title: twoDegreesRelationshipsDiagram Pages: 1 -->
<svg width="560pt" height="393pt"
 viewBox="0.00 0.00 560.00 393.20" xmlns="http://www.w3.org/2000/svg" xmlns:xlink="http://www.w3.org/1999/xlink">
<g id="graph0" class="graph" transform="scale(1 1) rotate(0) translate(4 389.2)">
<title>twoDegreesRelationshipsDiagram</title>
<polygon fill="#ffffff" stroke="transparent" points="-4,4 -4,-389.2 556,-389.2 556,4 -4,4"/>
<text text-anchor="middle" x="72.4936" y="-7.3" font-family="Helvetica,sans-Serif" font-size="11.00" fill="#000000">Generated by SchemaSpy</text>
<!-- document_template_group -->
<g id="node1" class="node">
<title>document_template_group</title>
<g id="a_node1"><a xlink:href="../../tables/document_template_group.html" xlink:title="document_template_group" target="_top">
<polygon fill="#ffffff" stroke="transparent" points="317.5,-263.7 317.5,-371.7 536.5,-371.7 536.5,-263.7 317.5,-263.7"/>
<polygon fill="#f5f5f5" stroke="transparent" points="318,-348.7 318,-371.7 537,-371.7 537,-348.7 318,-348.7"/>
<polygon fill="none" stroke="#000000" points="318,-348.7 318,-371.7 537,-371.7 537,-348.7 318,-348.7"/>
<text text-anchor="start" x="323" y="-357.3" font-family="Helvetica,sans-Serif" font-weight="bold" font-size="11.00" fill="#000000">document_template_group</text>
<text text-anchor="start" x="502.5219" y="-356.8" font-family="Helvetica,sans-Serif" font-size="11.00" fill="#000000">[table]</text>
<polygon fill="none" stroke="#000000" points="318,-326.7 318,-348.7 537,-348.7 537,-326.7 318,-326.7"/>
<image xlink:href="../../images/primaryKeys.png" width="11px" height="12px" preserveAspectRatio="xMinYMin meet" x="323" y="-343.7"/>
<text text-anchor="start" x="347" y="-333.8" font-family="Helvetica,sans-Serif" font-size="11.00" fill="#000000">id</text>
<polygon fill="#ffffff" stroke="transparent" points="318,-304.7 318,-326.7 537,-326.7 537,-304.7 318,-304.7"/>
<polygon fill="none" stroke="#000000" points="318,-304.7 318,-326.7 537,-326.7 537,-304.7 318,-304.7"/>
<image xlink:href="../../images/foreignKeys.png" width="11px" height="12px" preserveAspectRatio="xMinYMin meet" x="323" y="-321.7"/>
<text text-anchor="start" x="347" y="-311.8" font-family="Helvetica,sans-Serif" font-size="11.00" fill="#000000">template_id</text>
<polygon fill="#ffffff" stroke="transparent" points="318,-282.7 318,-304.7 537,-304.7 537,-282.7 318,-282.7"/>
<polygon fill="none" stroke="#000000" points="318,-282.7 318,-304.7 537,-304.7 537,-282.7 318,-282.7"/>
<image xlink:href="../../images/foreignKeys.png" width="11px" height="12px" preserveAspectRatio="xMinYMin meet" x="323" y="-299.7"/>
<text text-anchor="start" x="347" y="-289.8" font-family="Helvetica,sans-Serif" font-size="11.00" fill="#000000">template_group_id</text>
<polygon fill="#ffffff" stroke="transparent" points="318,-263.7 318,-282.7 426,-282.7 426,-263.7 318,-263.7"/>
<polygon fill="none" stroke="#000000" points="318,-263.7 318,-282.7 426,-282.7 426,-263.7 318,-263.7"/>
<text text-anchor="start" x="321" y="-269.8" font-family="Helvetica,sans-Serif" font-size="11.00" fill="#000000">&lt; 2</text>
<polygon fill="#ffffff" stroke="transparent" points="426,-263.7 426,-282.7 481,-282.7 481,-263.7 426,-263.7"/>
<polygon fill="none" stroke="#000000" points="426,-263.7 426,-282.7 481,-282.7 481,-263.7 426,-263.7"/>
<text text-anchor="start" x="471.8862" y="-269.8" font-family="Helvetica,sans-Serif" font-size="11.00" fill="#000000"> &#160;</text>
<polygon fill="#ffffff" stroke="transparent" points="481,-263.7 481,-282.7 537,-282.7 537,-263.7 481,-263.7"/>
<polygon fill="none" stroke="#000000" points="481,-263.7 481,-282.7 537,-282.7 537,-263.7 481,-263.7"/>
<text text-anchor="start" x="527.8862" y="-269.8" font-family="Helvetica,sans-Serif" font-size="11.00" fill="#000000"> &#160;</text>
</a>
</g>
</g>
<!-- template_group -->
<g id="node2" class="node">
<title>template_group</title>
<g id="a_node2"><a xlink:href="../../tables/template_group.html" xlink:title="template_group" target="_top">
<polygon fill="#ffffff" stroke="transparent" points="62,-320.2 62,-381.2 207,-381.2 207,-320.2 62,-320.2"/>
<polygon fill="#f5f5f5" stroke="transparent" points="62.5,-357.7 62.5,-380.7 207.5,-380.7 207.5,-357.7 62.5,-357.7"/>
<polygon fill="none" stroke="#000000" points="62.5,-357.7 62.5,-380.7 207.5,-380.7 207.5,-357.7 62.5,-357.7"/>
<text text-anchor="start" x="67.5" y="-366.3" font-family="Helvetica,sans-Serif" font-weight="bold" font-size="11.00" fill="#000000">template_group</text>
<text text-anchor="start" x="173.0219" y="-365.8" font-family="Helvetica,sans-Serif" font-size="11.00" fill="#000000">[table]</text>
<polygon fill="none" stroke="#000000" points="62.5,-338.7 62.5,-357.7 207.5,-357.7 207.5,-338.7 62.5,-338.7"/>
<text text-anchor="start" x="65.5" y="-344.8" font-family="Helvetica,sans-Serif" font-size="11.00" fill="#000000">...</text>
<polygon fill="#ffffff" stroke="transparent" points="62.5,-319.7 62.5,-338.7 124.5,-338.7 124.5,-319.7 62.5,-319.7"/>
<polygon fill="none" stroke="#000000" points="62.5,-319.7 62.5,-338.7 124.5,-338.7 124.5,-319.7 62.5,-319.7"/>
<text text-anchor="start" x="65.5" y="-325.8" font-family="Helvetica,sans-Serif" font-size="11.00" fill="#000000"> &#160;</text>
<polygon fill="#ffffff" stroke="transparent" points="124.5,-319.7 124.5,-338.7 161.5,-338.7 161.5,-319.7 124.5,-319.7"/>
<polygon fill="none" stroke="#000000" points="124.5,-319.7 124.5,-338.7 161.5,-338.7 161.5,-319.7 124.5,-319.7"/>
<text text-anchor="start" x="152.3862" y="-325.8" font-family="Helvetica,sans-Serif" font-size="11.00" fill="#000000"> &#160;</text>
<polygon fill="#ffffff" stroke="transparent" points="161.5,-319.7 161.5,-338.7 207.5,-338.7 207.5,-319.7 161.5,-319.7"/>
<polygon fill="none" stroke="#000000" points="161.5,-319.7 161.5,-338.7 207.5,-338.7 207.5,-319.7 161.5,-319.7"/>
<text text-anchor="start" x="188.9053" y="-325.8" font-family="Helvetica,sans-Serif" font-size="11.00" fill="#000000">1 &gt;</text>
</a>
</g>
</g>
<!-- document_template_group&#45;&gt;template_group -->
<g id="edge1" class="edge">
<title>document_template_group:w&#45;&gt;template_group:e</title>
<path fill="none" stroke="#000000" d="M303.4164,-295.1444C262.5984,-303.7319 256.8236,-347.7 207.5,-347.7"/>
<polygon fill="#000000" stroke="#000000" points="310.0389,-294.4885 318.3548,-297.2825 314.0195,-294.0943 318,-293.7 318,-293.7 318,-293.7 314.0195,-294.0943 317.6452,-290.1175 310.0389,-294.4885 310.0389,-294.4885"/>
<ellipse fill="none" stroke="#000000" cx="306.8545" cy="-294.8039" rx="3.2" ry="3.2"/>
</g>
<!-- document_template -->
<g id="node3" class="node">
<title>document_template</title>
<g id="a_node3"><a xlink:href="../../tables/document_template.html" xlink:title="document_template" target="_top">
<polygon fill="#ffffff" stroke="transparent" points="8,-120.7 8,-298.7 261,-298.7 261,-120.7 8,-120.7"/>
<polygon fill="#f5f5f5" stroke="transparent" points="10.5,-273.7 10.5,-296.7 259.5,-296.7 259.5,-273.7 10.5,-273.7"/>
<polygon fill="none" stroke="#000000" points="10.5,-273.7 10.5,-296.7 259.5,-296.7 259.5,-273.7 10.5,-273.7"/>
<text text-anchor="start" x="15.5" y="-282.3" font-family="Helvetica,sans-Serif" font-weight="bold" font-size="11.00" fill="#000000">document_template</text>
<text text-anchor="start" x="224.5437" y="-281.8" font-family="Helvetica,sans-Serif" font-size="11.00" fill="#000000">[table]</text>
<polygon fill="none" stroke="#000000" points="10.5,-251.7 10.5,-273.7 165.5,-273.7 165.5,-251.7 10.5,-251.7"/>
<image xlink:href="../../images/primaryKeys.png" width="11px" height="12px" preserveAspectRatio="xMinYMin meet" x="15.5" y="-268.7"/>
<text text-anchor="start" x="30.5" y="-258.8" font-family="Helvetica,sans-Serif" font-size="11.00" fill="#000000">id</text>
<polygon fill="none" stroke="#000000" points="165.5,-251.7 165.5,-273.7 259.5,-273.7 259.5,-251.7 165.5,-251.7"/>
<text text-anchor="start" x="168.4758" y="-259.4" font-family="Helvetica,sans-Serif" font-size="11.00" fill="#000000">uuid[2147483647]</text>
<polygon fill="#ffffff" stroke="transparent" points="10.5,-229.7 10.5,-251.7 165.5,-251.7 165.5,-229.7 10.5,-229.7"/>
<polygon fill="none" stroke="#000000" points="10.5,-229.7 10.5,-251.7 165.5,-251.7 165.5,-229.7 10.5,-229.7"/>
<image xlink:href="../../images/foreignKeys.png" width="11px" height="12px" preserveAspectRatio="xMinYMin meet" x="15.5" y="-246.7"/>
<text text-anchor="start" x="30.5" y="-236.8" font-family="Helvetica,sans-Serif" font-size="11.00" fill="#000000">code</text>
<polygon fill="none" stroke="#000000" points="165.5,-229.7 165.5,-251.7 259.5,-251.7 259.5,-229.7 165.5,-229.7"/>
<text text-anchor="start" x="168.5" y="-237.4" font-family="Helvetica,sans-Serif" font-size="11.00" fill="#000000">text[2147483647]</text>
<polygon fill="none" stroke="#000000" points="10.5,-207.7 10.5,-229.7 165.5,-229.7 165.5,-207.7 10.5,-207.7"/>
<text text-anchor="start" x="30.5" y="-214.8" font-family="Helvetica,sans-Serif" font-size="11.00" fill="#000000">name</text>
<polygon fill="none" stroke="#000000" points="165.5,-207.7 165.5,-229.7 259.5,-229.7 259.5,-207.7 165.5,-207.7"/>
<text text-anchor="start" x="168.5" y="-215.4" font-family="Helvetica,sans-Serif" font-size="11.00" fill="#000000">text[2147483647]</text>
<polygon fill="none" stroke="#000000" points="10.5,-185.7 10.5,-207.7 165.5,-207.7 165.5,-185.7 10.5,-185.7"/>
<text text-anchor="start" x="30.5" y="-192.8" font-family="Helvetica,sans-Serif" font-size="11.00" fill="#000000">description</text>
<polygon fill="none" stroke="#000000" points="165.5,-185.7 165.5,-207.7 259.5,-207.7 259.5,-185.7 165.5,-185.7"/>
<text text-anchor="start" x="168.5" y="-193.4" font-family="Helvetica,sans-Serif" font-size="11.00" fill="#000000">text[2147483647]</text>
<polygon fill="none" stroke="#000000" points="10.5,-163.7 10.5,-185.7 165.5,-185.7 165.5,-163.7 10.5,-163.7"/>
<text text-anchor="start" x="30.5" y="-170.8" font-family="Helvetica,sans-Serif" font-size="11.00" fill="#000000">version</text>
<polygon fill="none" stroke="#000000" points="165.5,-163.7 165.5,-185.7 259.5,-185.7 259.5,-163.7 165.5,-163.7"/>
<text text-anchor="start" x="168.5" y="-171.4" font-family="Helvetica,sans-Serif" font-size="11.00" fill="#000000">int4[10]</text>
<polygon fill="#ffffff" stroke="transparent" points="10.5,-141.7 10.5,-163.7 165.5,-163.7 165.5,-141.7 10.5,-141.7"/>
<polygon fill="none" stroke="#000000" points="10.5,-141.7 10.5,-163.7 165.5,-163.7 165.5,-141.7 10.5,-141.7"/>
<text text-anchor="start" x="30.5" y="-148.8" font-family="Helvetica,sans-Serif" font-size="11.00" fill="#000000">external_reference</text>
<polygon fill="none" stroke="#000000" points="165.5,-141.7 165.5,-163.7 259.5,-163.7 259.5,-141.7 165.5,-141.7"/>
<text text-anchor="start" x="168.4758" y="-149.4" font-family="Helvetica,sans-Serif" font-size="11.00" fill="#000000">uuid[2147483647]</text>
<polygon fill="#ffffff" stroke="transparent" points="10.5,-122.7 10.5,-141.7 92.5,-141.7 92.5,-122.7 10.5,-122.7"/>
<polygon fill="none" stroke="#000000" points="10.5,-122.7 10.5,-141.7 92.5,-141.7 92.5,-122.7 10.5,-122.7"/>
<text text-anchor="start" x="13.5" y="-128.8" font-family="Helvetica,sans-Serif" font-size="11.00" fill="#000000">&lt; 0</text>
<polygon fill="#ffffff" stroke="transparent" points="92.5,-122.7 92.5,-141.7 165.5,-141.7 165.5,-122.7 92.5,-122.7"/>
<polygon fill="none" stroke="#000000" points="92.5,-122.7 92.5,-141.7 165.5,-141.7 165.5,-122.7 92.5,-122.7"/>
<text text-anchor="start" x="156.3862" y="-128.8" font-family="Helvetica,sans-Serif" font-size="11.00" fill="#000000"> &#160;</text>
<polygon fill="#ffffff" stroke="transparent" points="165.5,-122.7 165.5,-141.7 259.5,-141.7 259.5,-122.7 165.5,-122.7"/>
<polygon fill="none" stroke="#000000" points="165.5,-122.7 165.5,-141.7 259.5,-141.7 259.5,-122.7 165.5,-122.7"/>
<text text-anchor="start" x="240.9053" y="-128.8" font-family="Helvetica,sans-Serif" font-size="11.00" fill="#000000">2 &gt;</text>
<polygon fill="none" stroke="#000000" stroke-width="2" points="9,-121.7 9,-297.7 260,-297.7 260,-121.7 9,-121.7"/>
</a>
</g>
</g>
<!-- document_template_group&#45;&gt;document_template -->
<g id="edge2" class="edge">
<title>document_template_group:w&#45;&gt;document_template:e</title>
<path fill="none" stroke="#000000" d="M304.0945,-311.8884C285.4863,-299.7359 288.8278,-262.7 259.5,-262.7"/>
<polygon fill="#000000" stroke="#000000" points="310.2846,-313.5851 317.0483,-319.1719 314.1423,-314.6425 318,-315.7 318,-315.7 318,-315.7 314.1423,-314.6425 318.9517,-312.2281 310.2846,-313.5851 310.2846,-313.5851"/>
<ellipse fill="none" stroke="#000000" cx="307.1984" cy="-312.7391" rx="3.2" ry="3.2"/>
</g>
<!-- document_template_variable -->
<g id="node4" class="node">
<title>document_template_variable</title>
<g id="a_node4"><a xlink:href="../../tables/document_template_variable.html" xlink:title="document_template_variable" target="_top">
<polygon fill="#ffffff" stroke="transparent" points="310,-93.2 310,-220.2 544,-220.2 544,-93.2 310,-93.2"/>
<polygon fill="#f5f5f5" stroke="transparent" points="310,-196.7 310,-219.7 544,-219.7 544,-196.7 310,-196.7"/>
<polygon fill="none" stroke="#000000" points="310,-196.7 310,-219.7 544,-219.7 544,-196.7 310,-196.7"/>
<text text-anchor="start" x="315" y="-205.3" font-family="Helvetica,sans-Serif" font-weight="bold" font-size="11.00" fill="#000000">document_template_variable</text>
<text text-anchor="start" x="509.5219" y="-204.8" font-family="Helvetica,sans-Serif" font-size="11.00" fill="#000000">[table]</text>
<polygon fill="none" stroke="#000000" points="310,-174.7 310,-196.7 544,-196.7 544,-174.7 310,-174.7"/>
<image xlink:href="../../images/primaryKeys.png" width="11px" height="12px" preserveAspectRatio="xMinYMin meet" x="315" y="-191.7"/>
<text text-anchor="start" x="339" y="-181.8" font-family="Helvetica,sans-Serif" font-size="11.00" fill="#000000">id</text>
<polygon fill="#ffffff" stroke="transparent" points="310,-152.7 310,-174.7 544,-174.7 544,-152.7 310,-152.7"/>
<polygon fill="none" stroke="#000000" points="310,-152.7 310,-174.7 544,-174.7 544,-152.7 310,-152.7"/>
<image xlink:href="../../images/foreignKeys.png" width="11px" height="12px" preserveAspectRatio="xMinYMin meet" x="315" y="-169.7"/>
<text text-anchor="start" x="339" y="-159.8" font-family="Helvetica,sans-Serif" font-size="11.00" fill="#000000">template_id</text>
<polygon fill="#ffffff" stroke="transparent" points="310,-130.7 310,-152.7 544,-152.7 544,-130.7 310,-130.7"/>
<polygon fill="none" stroke="#000000" points="310,-130.7 310,-152.7 544,-152.7 544,-130.7 310,-130.7"/>
<image xlink:href="../../images/foreignKeys.png" width="11px" height="12px" preserveAspectRatio="xMinYMin meet" x="315" y="-147.7"/>
<text text-anchor="start" x="339" y="-137.8" font-family="Helvetica,sans-Serif" font-size="11.00" fill="#000000">variable_id</text>
<polygon fill="none" stroke="#000000" points="310,-111.7 310,-130.7 544,-130.7 544,-111.7 310,-111.7"/>
<text text-anchor="start" x="313" y="-117.8" font-family="Helvetica,sans-Serif" font-size="11.00" fill="#000000">...</text>
<polygon fill="#ffffff" stroke="transparent" points="310,-92.7 310,-111.7 425,-111.7 425,-92.7 310,-92.7"/>
<polygon fill="none" stroke="#000000" points="310,-92.7 310,-111.7 425,-111.7 425,-92.7 310,-92.7"/>
<text text-anchor="start" x="313" y="-98.8" font-family="Helvetica,sans-Serif" font-size="11.00" fill="#000000">&lt; 2</text>
<polygon fill="#ffffff" stroke="transparent" points="425,-92.7 425,-111.7 484,-111.7 484,-92.7 425,-92.7"/>
<polygon fill="none" stroke="#000000" points="425,-92.7 425,-111.7 484,-111.7 484,-92.7 425,-92.7"/>
<text text-anchor="start" x="474.8862" y="-98.8" font-family="Helvetica,sans-Serif" font-size="11.00" fill="#000000"> &#160;</text>
<polygon fill="#ffffff" stroke="transparent" points="484,-92.7 484,-111.7 544,-111.7 544,-92.7 484,-92.7"/>
<polygon fill="none" stroke="#000000" points="484,-92.7 484,-111.7 544,-111.7 544,-92.7 484,-92.7"/>
<text text-anchor="start" x="534.8862" y="-98.8" font-family="Helvetica,sans-Serif" font-size="11.00" fill="#000000"> &#160;</text>
</a>
</g>
</g>
<!-- document_template_variable&#45;&gt;document_template -->
<g id="edge3" class="edge">
<title>document_template_variable:w&#45;&gt;document_template:e</title>
<path fill="none" stroke="#000000" d="M296.0064,-167.7035C270.8685,-186.2249 302.9126,-262.7 259.5,-262.7"/>
<polygon fill="#000000" stroke="#000000" points="302.3086,-165.9005 310.9902,-167.1611 306.1543,-164.8003 310,-163.7 310,-163.7 310,-163.7 306.1543,-164.8003 309.0098,-160.2389 302.3086,-165.9005 302.3086,-165.9005"/>
<ellipse fill="none" stroke="#000000" cx="299.232" cy="-166.7807" rx="3.2" ry="3.2"/>
</g>
<!-- template_variable -->
<g id="node5" class="node">
<title>template_variable</title>
<g id="a_node5"><a xlink:href="../../tables/template_variable.html" xlink:title="template_variable" target="_top">
<polygon fill="#ffffff" stroke="transparent" points="54.5,-38.2 54.5,-99.2 214.5,-99.2 214.5,-38.2 54.5,-38.2"/>
<polygon fill="#f5f5f5" stroke="transparent" points="54.5,-75.7 54.5,-98.7 214.5,-98.7 214.5,-75.7 54.5,-75.7"/>
<polygon fill="none" stroke="#000000" points="54.5,-75.7 54.5,-98.7 214.5,-98.7 214.5,-75.7 54.5,-75.7"/>
<text text-anchor="start" x="59.5" y="-84.3" font-family="Helvetica,sans-Serif" font-weight="bold" font-size="11.00" fill="#000000">template_variable</text>
<text text-anchor="start" x="180.0219" y="-83.8" font-family="Helvetica,sans-Serif" font-size="11.00" fill="#000000">[table]</text>
<polygon fill="none" stroke="#000000" points="54.5,-56.7 54.5,-75.7 214.5,-75.7 214.5,-56.7 54.5,-56.7"/>
<text text-anchor="start" x="57.5" y="-62.8" font-family="Helvetica,sans-Serif" font-size="11.00" fill="#000000">...</text>
<polygon fill="#ffffff" stroke="transparent" points="54.5,-37.7 54.5,-56.7 128.5,-56.7 128.5,-37.7 54.5,-37.7"/>
<polygon fill="none" stroke="#000000" points="54.5,-37.7 54.5,-56.7 128.5,-56.7 128.5,-37.7 54.5,-37.7"/>
<text text-anchor="start" x="57.5" y="-43.8" font-family="Helvetica,sans-Serif" font-size="11.00" fill="#000000">&lt; 1</text>
<polygon fill="#ffffff" stroke="transparent" points="128.5,-37.7 128.5,-56.7 166.5,-56.7 166.5,-37.7 128.5,-37.7"/>
<polygon fill="none" stroke="#000000" points="128.5,-37.7 128.5,-56.7 166.5,-56.7 166.5,-37.7 128.5,-37.7"/>
<text text-anchor="start" x="157.3862" y="-43.8" font-family="Helvetica,sans-Serif" font-size="11.00" fill="#000000"> &#160;</text>
<polygon fill="#ffffff" stroke="transparent" points="166.5,-37.7 166.5,-56.7 214.5,-56.7 214.5,-37.7 166.5,-37.7"/>
<polygon fill="none" stroke="#000000" points="166.5,-37.7 166.5,-56.7 214.5,-56.7 214.5,-37.7 166.5,-37.7"/>
<text text-anchor="start" x="195.9053" y="-43.8" font-family="Helvetica,sans-Serif" font-size="11.00" fill="#000000">1 &gt;</text>
</a>
</g>
</g>
<!-- document_template_variable&#45;&gt;template_variable -->
<g id="edge4" class="edge">
<title>document_template_variable:w&#45;&gt;template_variable:e</title>
<path fill="none" stroke="#000000" d="M297.3131,-134.6863C272.7244,-115.8719 225.5184,-65.7 214.5,-65.7"/>
<polygon fill="#000000" stroke="#000000" points="302.9986,-137.8294 308.2582,-144.8506 306.4993,-139.7647 310,-141.7 310,-141.7 310,-141.7 306.4993,-139.7647 311.7418,-138.5494 302.9986,-137.8294 302.9986,-137.8294"/>
<ellipse fill="none" stroke="#000000" cx="300.1981" cy="-136.2812" rx="3.2" ry="3.2"/>
</g>
</g>
</svg>
