<?xml version="1.0" encoding="UTF-8" standalone="no"?>
<!DOCTYPE svg PUBLIC "-//W3C//DTD SVG 1.1//EN"
 "http://www.w3.org/Graphics/SVG/1.1/DTD/svg11.dtd">
<!-- Generated by graphviz version 2.40.1 (20161225.0304)
 -->
<!-- Title: oneDegreeRelationshipsDiagramImplied Pages: 1 -->
<svg width="584pt" height="312pt"
 viewBox="0.00 0.00 584.00 311.70" xmlns="http://www.w3.org/2000/svg" xmlns:xlink="http://www.w3.org/1999/xlink">
<g id="graph0" class="graph" transform="scale(1 1) rotate(0) translate(4 307.7)">
<title>oneDegreeRelationshipsDiagramImplied</title>
<polygon fill="#ffffff" stroke="transparent" points="-4,4 -4,-307.7 580,-307.7 580,4 -4,4"/>
<text text-anchor="middle" x="72.4936" y="-7.3" font-family="Helvetica,sans-Serif" font-size="11.00" fill="#000000">Generated by SchemaSpy</text>
<!-- document_template_audit -->
<g id="node1" class="node">
<title>document_template_audit</title>
<g id="a_node1"><a xlink:href="../../tables/document_template_audit.html" xlink:title="document_template_audit" target="_top">
<polygon fill="#ffffff" stroke="transparent" points="274,-38.2 274,-282.2 568,-282.2 568,-38.2 274,-38.2"/>
<polygon fill="#f5f5f5" stroke="transparent" points="276,-257.2 276,-280.2 566,-280.2 566,-257.2 276,-257.2"/>
<polygon fill="none" stroke="#000000" points="276,-257.2 276,-280.2 566,-280.2 566,-257.2 276,-257.2"/>
<text text-anchor="start" x="281" y="-265.8" font-family="Helvetica,sans-Serif" font-weight="bold" font-size="11.00" fill="#000000">document_template_audit</text>
<text text-anchor="start" x="531.0437" y="-265.3" font-family="Helvetica,sans-Serif" font-size="11.00" fill="#000000">[table]</text>
<polygon fill="none" stroke="#000000" points="276,-235.2 276,-257.2 472,-257.2 472,-235.2 276,-235.2"/>
<image xlink:href="../../images/primaryKeys.png" width="11px" height="12px" preserveAspectRatio="xMinYMin meet" x="281" y="-252.2"/>
<text text-anchor="start" x="296" y="-242.3" font-family="Helvetica,sans-Serif" font-size="11.00" fill="#000000">rev_id</text>
<polygon fill="none" stroke="#000000" points="472,-235.2 472,-257.2 566,-257.2 566,-235.2 472,-235.2"/>
<text text-anchor="start" x="475" y="-242.9" font-family="Helvetica,sans-Serif" font-size="11.00" fill="#000000">int8[19]</text>
<polygon fill="none" stroke="#000000" points="276,-213.2 276,-235.2 472,-235.2 472,-213.2 276,-213.2"/>
<text text-anchor="start" x="296" y="-220.3" font-family="Helvetica,sans-Serif" font-size="11.00" fill="#000000">rev_type</text>
<polygon fill="none" stroke="#000000" points="472,-213.2 472,-235.2 566,-235.2 566,-213.2 472,-213.2"/>
<text text-anchor="start" x="475" y="-220.9" font-family="Helvetica,sans-Serif" font-size="11.00" fill="#000000">int2[5]</text>
<polygon fill="none" stroke="#000000" points="276,-191.2 276,-213.2 472,-213.2 472,-191.2 276,-191.2"/>
<image xlink:href="../../images/primaryKeys.png" width="11px" height="12px" preserveAspectRatio="xMinYMin meet" x="281" y="-208.2"/>
<text text-anchor="start" x="296" y="-198.3" font-family="Helvetica,sans-Serif" font-size="11.00" fill="#000000">id</text>
<polygon fill="none" stroke="#000000" points="472,-191.2 472,-213.2 566,-213.2 566,-191.2 472,-191.2"/>
<text text-anchor="start" x="474.9758" y="-198.9" font-family="Helvetica,sans-Serif" font-size="11.00" fill="#000000">uuid[2147483647]</text>
<polygon fill="none" stroke="#000000" points="276,-169.2 276,-191.2 472,-191.2 472,-169.2 276,-169.2"/>
<image xlink:href="../../images/foreignKeys.png" width="11px" height="12px" preserveAspectRatio="xMinYMin meet" x="281" y="-186.2"/>
<text text-anchor="start" x="296" y="-176.3" font-family="Helvetica,sans-Serif" font-size="11.00" fill="#000000">code</text>
<polygon fill="none" stroke="#000000" points="472,-169.2 472,-191.2 566,-191.2 566,-169.2 472,-169.2"/>
<text text-anchor="start" x="475" y="-176.9" font-family="Helvetica,sans-Serif" font-size="11.00" fill="#000000">text[2147483647]</text>
<polygon fill="none" stroke="#000000" points="276,-147.2 276,-169.2 472,-169.2 472,-147.2 276,-147.2"/>
<text text-anchor="start" x="296" y="-154.3" font-family="Helvetica,sans-Serif" font-size="11.00" fill="#000000">name</text>
<polygon fill="none" stroke="#000000" points="472,-147.2 472,-169.2 566,-169.2 566,-147.2 472,-147.2"/>
<text text-anchor="start" x="475" y="-154.9" font-family="Helvetica,sans-Serif" font-size="11.00" fill="#000000">text[2147483647]</text>
<polygon fill="none" stroke="#000000" points="276,-125.2 276,-147.2 472,-147.2 472,-125.2 276,-125.2"/>
<text text-anchor="start" x="296" y="-132.3" font-family="Helvetica,sans-Serif" font-size="11.00" fill="#000000">description</text>
<polygon fill="none" stroke="#000000" points="472,-125.2 472,-147.2 566,-147.2 566,-125.2 472,-125.2"/>
<text text-anchor="start" x="475" y="-132.9" font-family="Helvetica,sans-Serif" font-size="11.00" fill="#000000">text[2147483647]</text>
<polygon fill="none" stroke="#000000" points="276,-103.2 276,-125.2 472,-125.2 472,-103.2 276,-103.2"/>
<text text-anchor="start" x="296" y="-110.3" font-family="Helvetica,sans-Serif" font-size="11.00" fill="#000000">version</text>
<polygon fill="none" stroke="#000000" points="472,-103.2 472,-125.2 566,-125.2 566,-103.2 472,-103.2"/>
<text text-anchor="start" x="475" y="-110.9" font-family="Helvetica,sans-Serif" font-size="11.00" fill="#000000">int4[10]</text>
<polygon fill="#ffffff" stroke="transparent" points="276,-81.2 276,-103.2 472,-103.2 472,-81.2 276,-81.2"/>
<polygon fill="none" stroke="#000000" points="276,-81.2 276,-103.2 472,-103.2 472,-81.2 276,-81.2"/>
<text text-anchor="start" x="296" y="-88.3" font-family="Helvetica,sans-Serif" font-size="11.00" fill="#000000">external_reference</text>
<polygon fill="none" stroke="#000000" points="472,-81.2 472,-103.2 566,-103.2 566,-81.2 472,-81.2"/>
<text text-anchor="start" x="474.9758" y="-88.9" font-family="Helvetica,sans-Serif" font-size="11.00" fill="#000000">uuid[2147483647]</text>
<polygon fill="none" stroke="#000000" points="276,-59.2 276,-81.2 472,-81.2 472,-59.2 276,-59.2"/>
<text text-anchor="start" x="296" y="-66.3" font-family="Helvetica,sans-Serif" font-size="11.00" fill="#000000">instruction_text</text>
<polygon fill="none" stroke="#000000" points="472,-59.2 472,-81.2 566,-81.2 566,-59.2 472,-59.2"/>
<text text-anchor="start" x="475" y="-66.9" font-family="Helvetica,sans-Serif" font-size="11.00" fill="#000000">text[2147483647]</text>
<polygon fill="#ffffff" stroke="transparent" points="276,-40.2 276,-59.2 378,-59.2 378,-40.2 276,-40.2"/>
<polygon fill="none" stroke="#000000" points="276,-40.2 276,-59.2 378,-59.2 378,-40.2 276,-40.2"/>
<text text-anchor="start" x="279" y="-46.3" font-family="Helvetica,sans-Serif" font-size="11.00" fill="#000000">&lt; 2</text>
<polygon fill="#ffffff" stroke="transparent" points="378,-40.2 378,-59.2 472,-59.2 472,-40.2 378,-40.2"/>
<polygon fill="none" stroke="#000000" points="378,-40.2 378,-59.2 472,-59.2 472,-40.2 378,-40.2"/>
<text text-anchor="start" x="462.8862" y="-46.3" font-family="Helvetica,sans-Serif" font-size="11.00" fill="#000000"> &#160;</text>
<polygon fill="#ffffff" stroke="transparent" points="472,-40.2 472,-59.2 566,-59.2 566,-40.2 472,-40.2"/>
<polygon fill="none" stroke="#000000" points="472,-40.2 472,-59.2 566,-59.2 566,-40.2 472,-40.2"/>
<text text-anchor="start" x="547.4053" y="-46.3" font-family="Helvetica,sans-Serif" font-size="11.00" fill="#000000">0 &gt;</text>
<polygon fill="none" stroke="#000000" stroke-width="2" points="275,-39.2 275,-281.2 567,-281.2 567,-39.2 275,-39.2"/>
</a>
</g>
</g>
<!-- template_variable_domain -->
<g id="node2" class="node">
<title>template_variable_domain</title>
<g id="a_node2"><a xlink:href="../../tables/template_variable_domain.html" xlink:title="template_variable_domain" target="_top">
<polygon fill="#ffffff" stroke="transparent" points="8,-90.7 8,-195.7 225,-195.7 225,-90.7 8,-90.7"/>
<polygon fill="#f5f5f5" stroke="transparent" points="8.5,-172.2 8.5,-195.2 225.5,-195.2 225.5,-172.2 8.5,-172.2"/>
<polygon fill="none" stroke="#000000" points="8.5,-172.2 8.5,-195.2 225.5,-195.2 225.5,-172.2 8.5,-172.2"/>
<text text-anchor="start" x="13.5" y="-180.8" font-family="Helvetica,sans-Serif" font-weight="bold" font-size="11.00" fill="#000000">template_variable_domain</text>
<text text-anchor="start" x="191.0219" y="-180.3" font-family="Helvetica,sans-Serif" font-size="11.00" fill="#000000">[table]</text>
<polygon fill="none" stroke="#000000" points="8.5,-150.2 8.5,-172.2 225.5,-172.2 225.5,-150.2 8.5,-150.2"/>
<image xlink:href="../../images/primaryKeys.png" width="11px" height="12px" preserveAspectRatio="xMinYMin meet" x="13.5" y="-167.2"/>
<text text-anchor="start" x="37.5" y="-157.3" font-family="Helvetica,sans-Serif" font-size="11.00" fill="#000000">code</text>
<polygon fill="#ffffff" stroke="transparent" points="8.5,-128.2 8.5,-150.2 225.5,-150.2 225.5,-128.2 8.5,-128.2"/>
<polygon fill="none" stroke="#000000" points="8.5,-128.2 8.5,-150.2 225.5,-150.2 225.5,-128.2 8.5,-128.2"/>
<text text-anchor="start" x="37.5" y="-135.3" font-family="Helvetica,sans-Serif" font-size="11.00" fill="#000000">sequence_number</text>
<polygon fill="none" stroke="#000000" points="8.5,-109.2 8.5,-128.2 225.5,-128.2 225.5,-109.2 8.5,-109.2"/>
<text text-anchor="start" x="11.5" y="-115.3" font-family="Helvetica,sans-Serif" font-size="11.00" fill="#000000">...</text>
<polygon fill="#ffffff" stroke="transparent" points="8.5,-90.2 8.5,-109.2 106.5,-109.2 106.5,-90.2 8.5,-90.2"/>
<polygon fill="none" stroke="#000000" points="8.5,-90.2 8.5,-109.2 106.5,-109.2 106.5,-90.2 8.5,-90.2"/>
<text text-anchor="start" x="11.5" y="-96.3" font-family="Helvetica,sans-Serif" font-size="11.00" fill="#000000"> &#160;</text>
<polygon fill="#ffffff" stroke="transparent" points="106.5,-90.2 106.5,-109.2 161.5,-109.2 161.5,-90.2 106.5,-90.2"/>
<polygon fill="none" stroke="#000000" points="106.5,-90.2 106.5,-109.2 161.5,-109.2 161.5,-90.2 106.5,-90.2"/>
<text text-anchor="start" x="152.3862" y="-96.3" font-family="Helvetica,sans-Serif" font-size="11.00" fill="#000000"> &#160;</text>
<polygon fill="#ffffff" stroke="transparent" points="161.5,-90.2 161.5,-109.2 225.5,-109.2 225.5,-90.2 161.5,-90.2"/>
<polygon fill="none" stroke="#000000" points="161.5,-90.2 161.5,-109.2 225.5,-109.2 225.5,-90.2 161.5,-90.2"/>
<text text-anchor="start" x="206.9053" y="-96.3" font-family="Helvetica,sans-Serif" font-size="11.00" fill="#000000">4 &gt;</text>
</a>
</g>
</g>
<!-- document_template_audit&#45;&gt;template_variable_domain -->
<g id="edge1" class="edge">
<title>document_template_audit:w&#45;&gt;template_variable_domain:e</title>
<path fill="none" stroke="#000000" stroke-dasharray="5,2" d="M261.7405,-177.3965C249.532,-172.1113 243.6727,-161.2 225.5,-161.2"/>
<polygon fill="#000000" stroke="#000000" points="268.1503,-178.6567 275.3055,-183.7324 272.0751,-179.4283 276,-180.2 276,-180.2 276,-180.2 272.0751,-179.4283 276.6945,-176.6676 268.1503,-178.6567 268.1503,-178.6567"/>
<ellipse fill="none" stroke="#000000" cx="265.0104" cy="-178.0393" rx="3.2" ry="3.2"/>
</g>
<!-- audit_revision -->
<g id="node3" class="node">
<title>audit_revision</title>
<g id="a_node3"><a xlink:href="../../tables/audit_revision.html" xlink:title="audit_revision" target="_top">
<polygon fill="#ffffff" stroke="transparent" points="49.5,-216.7 49.5,-299.7 183.5,-299.7 183.5,-216.7 49.5,-216.7"/>
<polygon fill="#f5f5f5" stroke="transparent" points="49.5,-276.2 49.5,-299.2 183.5,-299.2 183.5,-276.2 49.5,-276.2"/>
<polygon fill="none" stroke="#000000" points="49.5,-276.2 49.5,-299.2 183.5,-299.2 183.5,-276.2 49.5,-276.2"/>
<text text-anchor="start" x="54.5" y="-284.8" font-family="Helvetica,sans-Serif" font-weight="bold" font-size="11.00" fill="#000000">audit_revision</text>
<text text-anchor="start" x="149.0219" y="-284.3" font-family="Helvetica,sans-Serif" font-size="11.00" fill="#000000">[table]</text>
<polygon fill="none" stroke="#000000" points="49.5,-254.2 49.5,-276.2 183.5,-276.2 183.5,-254.2 49.5,-254.2"/>
<image xlink:href="../../images/primaryKeys.png" width="11px" height="12px" preserveAspectRatio="xMinYMin meet" x="54.5" y="-271.2"/>
<text text-anchor="start" x="78.5" y="-261.3" font-family="Helvetica,sans-Serif" font-size="11.00" fill="#000000">id</text>
<polygon fill="none" stroke="#000000" points="49.5,-235.2 49.5,-254.2 183.5,-254.2 183.5,-235.2 49.5,-235.2"/>
<text text-anchor="start" x="52.5" y="-241.3" font-family="Helvetica,sans-Serif" font-size="11.00" fill="#000000">...</text>
<polygon fill="#ffffff" stroke="transparent" points="49.5,-216.2 49.5,-235.2 105.5,-235.2 105.5,-216.2 49.5,-216.2"/>
<polygon fill="none" stroke="#000000" points="49.5,-216.2 49.5,-235.2 105.5,-235.2 105.5,-216.2 49.5,-216.2"/>
<text text-anchor="start" x="52.5" y="-222.3" font-family="Helvetica,sans-Serif" font-size="11.00" fill="#000000"> &#160;</text>
<polygon fill="#ffffff" stroke="transparent" points="105.5,-216.2 105.5,-235.2 139.5,-235.2 139.5,-216.2 105.5,-216.2"/>
<polygon fill="none" stroke="#000000" points="105.5,-216.2 105.5,-235.2 139.5,-235.2 139.5,-216.2 105.5,-216.2"/>
<text text-anchor="start" x="130.3862" y="-222.3" font-family="Helvetica,sans-Serif" font-size="11.00" fill="#000000"> &#160;</text>
<polygon fill="#ffffff" stroke="transparent" points="139.5,-216.2 139.5,-235.2 183.5,-235.2 183.5,-216.2 139.5,-216.2"/>
<polygon fill="none" stroke="#000000" points="139.5,-216.2 139.5,-235.2 183.5,-235.2 183.5,-216.2 139.5,-216.2"/>
<text text-anchor="start" x="164.9053" y="-222.3" font-family="Helvetica,sans-Serif" font-size="11.00" fill="#000000">4 &gt;</text>
</a>
</g>
</g>
<!-- document_template_audit&#45;&gt;audit_revision -->
<g id="edge2" class="edge">
<title>document_template_audit:w&#45;&gt;audit_revision:e</title>
<path fill="none" stroke="#000000" d="M261.2919,-247.0658C231.2683,-250.7827 220.0593,-265.2 183.5,-265.2"/>
<polygon fill="#000000" stroke="#000000" points="268.0138,-246.6701 276.2116,-249.7938 272.0069,-246.4351 276,-246.2 276,-246.2 276,-246.2 272.0069,-246.4351 275.7884,-242.6062 268.0138,-246.6701 268.0138,-246.6701"/>
<ellipse fill="none" stroke="#000000" cx="264.8194" cy="-246.8582" rx="3.2" ry="3.2"/>
</g>
</g>
</svg>
