<?xml version="1.0" encoding="UTF-8" standalone="no"?>
<!DOCTYPE svg PUBLIC "-//W3C//DTD SVG 1.1//EN"
 "http://www.w3.org/Graphics/SVG/1.1/DTD/svg11.dtd">
<!-- Generated by graphviz version 2.40.1 (20161225.0304)
 -->
<!-- Title: twoDegreesRelationshipsDiagramImplied Pages: 1 -->
<svg width="811pt" height="303pt"
 viewBox="0.00 0.00 811.00 303.20" xmlns="http://www.w3.org/2000/svg" xmlns:xlink="http://www.w3.org/1999/xlink">
<g id="graph0" class="graph" transform="scale(1 1) rotate(0) translate(4 299.2)">
<title>twoDegreesRelationshipsDiagramImplied</title>
<polygon fill="#ffffff" stroke="transparent" points="-4,4 -4,-299.2 807,-299.2 807,4 -4,4"/>
<text text-anchor="middle" x="72.4936" y="-7.3" font-family="Helvetica,sans-Serif" font-size="11.00" fill="#000000">Generated by SchemaSpy</text>
<!-- document_template -->
<g id="node1" class="node">
<title>document_template</title>
<g id="a_node1"><a xlink:href="../../tables/document_template.html" xlink:title="document_template" target="_top">
<polygon fill="#ffffff" stroke="transparent" points="274,-164.2 274,-291.2 447,-291.2 447,-164.2 274,-164.2"/>
<polygon fill="#f5f5f5" stroke="transparent" points="274.5,-267.7 274.5,-290.7 447.5,-290.7 447.5,-267.7 274.5,-267.7"/>
<polygon fill="none" stroke="#000000" points="274.5,-267.7 274.5,-290.7 447.5,-290.7 447.5,-267.7 274.5,-267.7"/>
<text text-anchor="start" x="279.5" y="-276.3" font-family="Helvetica,sans-Serif" font-weight="bold" font-size="11.00" fill="#000000">document_template</text>
<text text-anchor="start" x="413.0219" y="-275.8" font-family="Helvetica,sans-Serif" font-size="11.00" fill="#000000">[table]</text>
<polygon fill="none" stroke="#000000" points="274.5,-245.7 274.5,-267.7 447.5,-267.7 447.5,-245.7 274.5,-245.7"/>
<image xlink:href="../../images/primaryKeys.png" width="11px" height="12px" preserveAspectRatio="xMinYMin meet" x="279.5" y="-262.7"/>
<text text-anchor="start" x="303.5" y="-252.8" font-family="Helvetica,sans-Serif" font-size="11.00" fill="#000000">id</text>
<polygon fill="#ffffff" stroke="transparent" points="274.5,-223.7 274.5,-245.7 447.5,-245.7 447.5,-223.7 274.5,-223.7"/>
<polygon fill="none" stroke="#000000" points="274.5,-223.7 274.5,-245.7 447.5,-245.7 447.5,-223.7 274.5,-223.7"/>
<image xlink:href="../../images/foreignKeys.png" width="11px" height="12px" preserveAspectRatio="xMinYMin meet" x="279.5" y="-240.7"/>
<text text-anchor="start" x="303.5" y="-230.8" font-family="Helvetica,sans-Serif" font-size="11.00" fill="#000000">code</text>
<polygon fill="#ffffff" stroke="transparent" points="274.5,-201.7 274.5,-223.7 447.5,-223.7 447.5,-201.7 274.5,-201.7"/>
<polygon fill="none" stroke="#000000" points="274.5,-201.7 274.5,-223.7 447.5,-223.7 447.5,-201.7 274.5,-201.7"/>
<text text-anchor="start" x="303.5" y="-208.8" font-family="Helvetica,sans-Serif" font-size="11.00" fill="#000000">external_reference</text>
<polygon fill="none" stroke="#000000" points="274.5,-182.7 274.5,-201.7 447.5,-201.7 447.5,-182.7 274.5,-182.7"/>
<text text-anchor="start" x="277.5" y="-188.8" font-family="Helvetica,sans-Serif" font-size="11.00" fill="#000000">...</text>
<polygon fill="#ffffff" stroke="transparent" points="274.5,-163.7 274.5,-182.7 354.5,-182.7 354.5,-163.7 274.5,-163.7"/>
<polygon fill="none" stroke="#000000" points="274.5,-163.7 274.5,-182.7 354.5,-182.7 354.5,-163.7 274.5,-163.7"/>
<text text-anchor="start" x="277.5" y="-169.8" font-family="Helvetica,sans-Serif" font-size="11.00" fill="#000000">&lt; 1</text>
<polygon fill="#ffffff" stroke="transparent" points="354.5,-163.7 354.5,-182.7 396.5,-182.7 396.5,-163.7 354.5,-163.7"/>
<polygon fill="none" stroke="#000000" points="354.5,-163.7 354.5,-182.7 396.5,-182.7 396.5,-163.7 354.5,-163.7"/>
<text text-anchor="start" x="387.3862" y="-169.8" font-family="Helvetica,sans-Serif" font-size="11.00" fill="#000000"> &#160;</text>
<polygon fill="#ffffff" stroke="transparent" points="396.5,-163.7 396.5,-182.7 447.5,-182.7 447.5,-163.7 396.5,-163.7"/>
<polygon fill="none" stroke="#000000" points="396.5,-163.7 396.5,-182.7 447.5,-182.7 447.5,-163.7 396.5,-163.7"/>
<text text-anchor="start" x="428.9053" y="-169.8" font-family="Helvetica,sans-Serif" font-size="11.00" fill="#000000">2 &gt;</text>
</a>
</g>
</g>
<!-- template_variable_domain -->
<g id="node2" class="node">
<title>template_variable_domain</title>
<g id="a_node2"><a xlink:href="../../tables/template_variable_domain.html" xlink:title="template_variable_domain" target="_top">
<polygon fill="#ffffff" stroke="transparent" points="8,-133.2 8,-194.2 225,-194.2 225,-133.2 8,-133.2"/>
<polygon fill="#f5f5f5" stroke="transparent" points="8.5,-170.7 8.5,-193.7 225.5,-193.7 225.5,-170.7 8.5,-170.7"/>
<polygon fill="none" stroke="#000000" points="8.5,-170.7 8.5,-193.7 225.5,-193.7 225.5,-170.7 8.5,-170.7"/>
<text text-anchor="start" x="13.5" y="-179.3" font-family="Helvetica,sans-Serif" font-weight="bold" font-size="11.00" fill="#000000">template_variable_domain</text>
<text text-anchor="start" x="191.0219" y="-178.8" font-family="Helvetica,sans-Serif" font-size="11.00" fill="#000000">[table]</text>
<polygon fill="none" stroke="#000000" points="8.5,-151.7 8.5,-170.7 225.5,-170.7 225.5,-151.7 8.5,-151.7"/>
<text text-anchor="start" x="11.5" y="-157.8" font-family="Helvetica,sans-Serif" font-size="11.00" fill="#000000">...</text>
<polygon fill="#ffffff" stroke="transparent" points="8.5,-132.7 8.5,-151.7 106.5,-151.7 106.5,-132.7 8.5,-132.7"/>
<polygon fill="none" stroke="#000000" points="8.5,-132.7 8.5,-151.7 106.5,-151.7 106.5,-132.7 8.5,-132.7"/>
<text text-anchor="start" x="11.5" y="-138.8" font-family="Helvetica,sans-Serif" font-size="11.00" fill="#000000"> &#160;</text>
<polygon fill="#ffffff" stroke="transparent" points="106.5,-132.7 106.5,-151.7 161.5,-151.7 161.5,-132.7 106.5,-132.7"/>
<polygon fill="none" stroke="#000000" points="106.5,-132.7 106.5,-151.7 161.5,-151.7 161.5,-132.7 106.5,-132.7"/>
<text text-anchor="start" x="152.3862" y="-138.8" font-family="Helvetica,sans-Serif" font-size="11.00" fill="#000000"> &#160;</text>
<polygon fill="#ffffff" stroke="transparent" points="161.5,-132.7 161.5,-151.7 225.5,-151.7 225.5,-132.7 161.5,-132.7"/>
<polygon fill="none" stroke="#000000" points="161.5,-132.7 161.5,-151.7 225.5,-151.7 225.5,-132.7 161.5,-132.7"/>
<text text-anchor="start" x="206.9053" y="-138.8" font-family="Helvetica,sans-Serif" font-size="11.00" fill="#000000">5 &gt;</text>
</a>
</g>
</g>
<!-- document_template&#45;&gt;template_variable_domain -->
<g id="edge1" class="edge">
<title>document_template:w&#45;&gt;template_variable_domain:e</title>
<path fill="none" stroke="#000000" stroke-dasharray="5,2" d="M264.1703,-232.4042C240.5883,-219.9138 260.7853,-160.7 225.5,-160.7"/>
<polygon fill="#000000" stroke="#000000" points="274.5869,-230.6217 272.8512,-238.4311 271.2893,-238.084 273.025,-230.2746 274.5869,-230.6217"/>
<polyline fill="none" stroke="#000000" points="274.5,-234.7 270.5953,-233.8321 "/>
<ellipse fill="none" stroke="#000000" cx="267.4715" cy="-233.1378" rx="3.2" ry="3.2"/>
</g>
<!-- document_template_group -->
<g id="node3" class="node">
<title>document_template_group</title>
<g id="a_node3"><a xlink:href="../../tables/document_template_group.html" xlink:title="document_template_group" target="_top">
<polygon fill="#ffffff" stroke="transparent" points="496,-86.7 496,-198.7 795,-198.7 795,-86.7 496,-86.7"/>
<polygon fill="#f5f5f5" stroke="transparent" points="498.5,-173.7 498.5,-196.7 793.5,-196.7 793.5,-173.7 498.5,-173.7"/>
<polygon fill="none" stroke="#000000" points="498.5,-173.7 498.5,-196.7 793.5,-196.7 793.5,-173.7 498.5,-173.7"/>
<text text-anchor="start" x="503.5" y="-182.3" font-family="Helvetica,sans-Serif" font-weight="bold" font-size="11.00" fill="#000000">document_template_group</text>
<text text-anchor="start" x="758.5437" y="-181.8" font-family="Helvetica,sans-Serif" font-size="11.00" fill="#000000">[table]</text>
<polygon fill="none" stroke="#000000" points="498.5,-151.7 498.5,-173.7 699.5,-173.7 699.5,-151.7 498.5,-151.7"/>
<image xlink:href="../../images/primaryKeys.png" width="11px" height="12px" preserveAspectRatio="xMinYMin meet" x="503.5" y="-168.7"/>
<text text-anchor="start" x="518.5" y="-158.8" font-family="Helvetica,sans-Serif" font-size="11.00" fill="#000000">id</text>
<polygon fill="none" stroke="#000000" points="699.5,-151.7 699.5,-173.7 793.5,-173.7 793.5,-151.7 699.5,-151.7"/>
<text text-anchor="start" x="702.4758" y="-159.4" font-family="Helvetica,sans-Serif" font-size="11.00" fill="#000000">uuid[2147483647]</text>
<polygon fill="#ffffff" stroke="transparent" points="498.5,-129.7 498.5,-151.7 699.5,-151.7 699.5,-129.7 498.5,-129.7"/>
<polygon fill="none" stroke="#000000" points="498.5,-129.7 498.5,-151.7 699.5,-151.7 699.5,-129.7 498.5,-129.7"/>
<image xlink:href="../../images/foreignKeys.png" width="11px" height="12px" preserveAspectRatio="xMinYMin meet" x="503.5" y="-146.7"/>
<text text-anchor="start" x="518.5" y="-136.8" font-family="Helvetica,sans-Serif" font-size="11.00" fill="#000000">template_id</text>
<polygon fill="none" stroke="#000000" points="699.5,-129.7 699.5,-151.7 793.5,-151.7 793.5,-129.7 699.5,-129.7"/>
<text text-anchor="start" x="702.4758" y="-137.4" font-family="Helvetica,sans-Serif" font-size="11.00" fill="#000000">uuid[2147483647]</text>
<polygon fill="#ffffff" stroke="transparent" points="498.5,-107.7 498.5,-129.7 699.5,-129.7 699.5,-107.7 498.5,-107.7"/>
<polygon fill="none" stroke="#000000" points="498.5,-107.7 498.5,-129.7 699.5,-129.7 699.5,-107.7 498.5,-107.7"/>
<image xlink:href="../../images/foreignKeys.png" width="11px" height="12px" preserveAspectRatio="xMinYMin meet" x="503.5" y="-124.7"/>
<text text-anchor="start" x="518.5" y="-114.8" font-family="Helvetica,sans-Serif" font-size="11.00" fill="#000000">template_group_id</text>
<polygon fill="none" stroke="#000000" points="699.5,-107.7 699.5,-129.7 793.5,-129.7 793.5,-107.7 699.5,-107.7"/>
<text text-anchor="start" x="702.4758" y="-115.4" font-family="Helvetica,sans-Serif" font-size="11.00" fill="#000000">uuid[2147483647]</text>
<polygon fill="#ffffff" stroke="transparent" points="498.5,-88.7 498.5,-107.7 603.5,-107.7 603.5,-88.7 498.5,-88.7"/>
<polygon fill="none" stroke="#000000" points="498.5,-88.7 498.5,-107.7 603.5,-107.7 603.5,-88.7 498.5,-88.7"/>
<text text-anchor="start" x="501.5" y="-94.8" font-family="Helvetica,sans-Serif" font-size="11.00" fill="#000000">&lt; 2</text>
<polygon fill="#ffffff" stroke="transparent" points="603.5,-88.7 603.5,-107.7 699.5,-107.7 699.5,-88.7 603.5,-88.7"/>
<polygon fill="none" stroke="#000000" points="603.5,-88.7 603.5,-107.7 699.5,-107.7 699.5,-88.7 603.5,-88.7"/>
<text text-anchor="start" x="690.3862" y="-94.8" font-family="Helvetica,sans-Serif" font-size="11.00" fill="#000000"> &#160;</text>
<polygon fill="#ffffff" stroke="transparent" points="699.5,-88.7 699.5,-107.7 793.5,-107.7 793.5,-88.7 699.5,-88.7"/>
<polygon fill="none" stroke="#000000" points="699.5,-88.7 699.5,-107.7 793.5,-107.7 793.5,-88.7 699.5,-88.7"/>
<text text-anchor="start" x="774.9053" y="-94.8" font-family="Helvetica,sans-Serif" font-size="11.00" fill="#000000">0 &gt;</text>
<polygon fill="none" stroke="#000000" stroke-width="2" points="497,-87.7 497,-197.7 794,-197.7 794,-87.7 497,-87.7"/>
</a>
</g>
</g>
<!-- document_template_group&#45;&gt;document_template -->
<g id="edge3" class="edge">
<title>document_template_group:w&#45;&gt;document_template:e</title>
<path fill="none" stroke="#000000" d="M484.34,-144.2989C453.8711,-163.8784 497.8785,-256.7 447.5,-256.7"/>
<polygon fill="#000000" stroke="#000000" points="490.7465,-142.6706 499.3868,-144.1891 494.6233,-141.6853 498.5,-140.7 498.5,-140.7 498.5,-140.7 494.6233,-141.6853 497.6132,-137.2109 490.7465,-142.6706 490.7465,-142.6706"/>
<ellipse fill="none" stroke="#000000" cx="487.6451" cy="-143.4589" rx="3.2" ry="3.2"/>
</g>
<!-- template_group -->
<g id="node4" class="node">
<title>template_group</title>
<g id="a_node4"><a xlink:href="../../tables/template_group.html" xlink:title="template_group" target="_top">
<polygon fill="#ffffff" stroke="transparent" points="288,-38.2 288,-143.2 433,-143.2 433,-38.2 288,-38.2"/>
<polygon fill="#f5f5f5" stroke="transparent" points="288.5,-119.7 288.5,-142.7 433.5,-142.7 433.5,-119.7 288.5,-119.7"/>
<polygon fill="none" stroke="#000000" points="288.5,-119.7 288.5,-142.7 433.5,-142.7 433.5,-119.7 288.5,-119.7"/>
<text text-anchor="start" x="293.5" y="-128.3" font-family="Helvetica,sans-Serif" font-weight="bold" font-size="11.00" fill="#000000">template_group</text>
<text text-anchor="start" x="399.0219" y="-127.8" font-family="Helvetica,sans-Serif" font-size="11.00" fill="#000000">[table]</text>
<polygon fill="none" stroke="#000000" points="288.5,-97.7 288.5,-119.7 433.5,-119.7 433.5,-97.7 288.5,-97.7"/>
<image xlink:href="../../images/primaryKeys.png" width="11px" height="12px" preserveAspectRatio="xMinYMin meet" x="293.5" y="-114.7"/>
<text text-anchor="start" x="317.5" y="-104.8" font-family="Helvetica,sans-Serif" font-size="11.00" fill="#000000">id</text>
<polygon fill="#ffffff" stroke="transparent" points="288.5,-75.7 288.5,-97.7 433.5,-97.7 433.5,-75.7 288.5,-75.7"/>
<polygon fill="none" stroke="#000000" points="288.5,-75.7 288.5,-97.7 433.5,-97.7 433.5,-75.7 288.5,-75.7"/>
<image xlink:href="../../images/foreignKeys.png" width="11px" height="12px" preserveAspectRatio="xMinYMin meet" x="293.5" y="-92.7"/>
<text text-anchor="start" x="317.5" y="-82.8" font-family="Helvetica,sans-Serif" font-size="11.00" fill="#000000">code</text>
<polygon fill="none" stroke="#000000" points="288.5,-56.7 288.5,-75.7 433.5,-75.7 433.5,-56.7 288.5,-56.7"/>
<text text-anchor="start" x="291.5" y="-62.8" font-family="Helvetica,sans-Serif" font-size="11.00" fill="#000000">...</text>
<polygon fill="#ffffff" stroke="transparent" points="288.5,-37.7 288.5,-56.7 354.5,-56.7 354.5,-37.7 288.5,-37.7"/>
<polygon fill="none" stroke="#000000" points="288.5,-37.7 288.5,-56.7 354.5,-56.7 354.5,-37.7 288.5,-37.7"/>
<text text-anchor="start" x="291.5" y="-43.8" font-family="Helvetica,sans-Serif" font-size="11.00" fill="#000000">&lt; 1</text>
<polygon fill="#ffffff" stroke="transparent" points="354.5,-37.7 354.5,-56.7 389.5,-56.7 389.5,-37.7 354.5,-37.7"/>
<polygon fill="none" stroke="#000000" points="354.5,-37.7 354.5,-56.7 389.5,-56.7 389.5,-37.7 354.5,-37.7"/>
<text text-anchor="start" x="380.3862" y="-43.8" font-family="Helvetica,sans-Serif" font-size="11.00" fill="#000000"> &#160;</text>
<polygon fill="#ffffff" stroke="transparent" points="389.5,-37.7 389.5,-56.7 433.5,-56.7 433.5,-37.7 389.5,-37.7"/>
<polygon fill="none" stroke="#000000" points="389.5,-37.7 389.5,-56.7 433.5,-56.7 433.5,-37.7 389.5,-37.7"/>
<text text-anchor="start" x="414.9053" y="-43.8" font-family="Helvetica,sans-Serif" font-size="11.00" fill="#000000">1 &gt;</text>
</a>
</g>
</g>
<!-- document_template_group&#45;&gt;template_group -->
<g id="edge2" class="edge">
<title>document_template_group:w&#45;&gt;template_group:e</title>
<path fill="none" stroke="#000000" d="M483.8916,-117.7412C465.9356,-115.2382 457.1342,-108.7 433.5,-108.7"/>
<polygon fill="#000000" stroke="#000000" points="490.5172,-118.176 498.2642,-122.2923 494.5086,-118.438 498.5,-118.7 498.5,-118.7 498.5,-118.7 494.5086,-118.438 498.7358,-115.1077 490.5172,-118.176 490.5172,-118.176"/>
<ellipse fill="none" stroke="#000000" cx="487.324" cy="-117.9664" rx="3.2" ry="3.2"/>
</g>
<!-- template_group&#45;&gt;template_variable_domain -->
<g id="edge5" class="edge">
<title>template_group:w&#45;&gt;template_variable_domain:e</title>
<path fill="none" stroke="#000000" stroke-dasharray="5,2" d="M277.9976,-88.5292C249.1064,-99.9246 264.6441,-160.7 225.5,-160.7"/>
<polygon fill="#000000" stroke="#000000" points="287.0255,-82.8966 288.3983,-90.778 286.822,-91.0525 285.4492,-83.1712 287.0255,-82.8966"/>
<polyline fill="none" stroke="#000000" points="288.5,-86.7 284.5593,-87.3864 "/>
<ellipse fill="none" stroke="#000000" cx="281.4068" cy="-87.9355" rx="3.2" ry="3.2"/>
</g>
<!-- document_template_variable -->
<g id="node5" class="node">
<title>document_template_variable</title>
<g id="a_node5"><a xlink:href="../../tables/document_template_variable.html" xlink:title="document_template_variable" target="_top">
<polygon fill="#ffffff" stroke="transparent" points="528.5,-229.2 528.5,-290.2 762.5,-290.2 762.5,-229.2 528.5,-229.2"/>
<polygon fill="#f5f5f5" stroke="transparent" points="528.5,-266.7 528.5,-289.7 762.5,-289.7 762.5,-266.7 528.5,-266.7"/>
<polygon fill="none" stroke="#000000" points="528.5,-266.7 528.5,-289.7 762.5,-289.7 762.5,-266.7 528.5,-266.7"/>
<text text-anchor="start" x="533.5" y="-275.3" font-family="Helvetica,sans-Serif" font-weight="bold" font-size="11.00" fill="#000000">document_template_variable</text>
<text text-anchor="start" x="728.0219" y="-274.8" font-family="Helvetica,sans-Serif" font-size="11.00" fill="#000000">[table]</text>
<polygon fill="none" stroke="#000000" points="528.5,-247.7 528.5,-266.7 762.5,-266.7 762.5,-247.7 528.5,-247.7"/>
<text text-anchor="start" x="531.5" y="-253.8" font-family="Helvetica,sans-Serif" font-size="11.00" fill="#000000">...</text>
<polygon fill="#ffffff" stroke="transparent" points="528.5,-228.7 528.5,-247.7 643.5,-247.7 643.5,-228.7 528.5,-228.7"/>
<polygon fill="none" stroke="#000000" points="528.5,-228.7 528.5,-247.7 643.5,-247.7 643.5,-228.7 528.5,-228.7"/>
<text text-anchor="start" x="531.5" y="-234.8" font-family="Helvetica,sans-Serif" font-size="11.00" fill="#000000">&lt; 2</text>
<polygon fill="#ffffff" stroke="transparent" points="643.5,-228.7 643.5,-247.7 702.5,-247.7 702.5,-228.7 643.5,-228.7"/>
<polygon fill="none" stroke="#000000" points="643.5,-228.7 643.5,-247.7 702.5,-247.7 702.5,-228.7 643.5,-228.7"/>
<text text-anchor="start" x="693.3862" y="-234.8" font-family="Helvetica,sans-Serif" font-size="11.00" fill="#000000"> &#160;</text>
<polygon fill="#ffffff" stroke="transparent" points="702.5,-228.7 702.5,-247.7 762.5,-247.7 762.5,-228.7 702.5,-228.7"/>
<polygon fill="none" stroke="#000000" points="702.5,-228.7 702.5,-247.7 762.5,-247.7 762.5,-228.7 702.5,-228.7"/>
<text text-anchor="start" x="753.3862" y="-234.8" font-family="Helvetica,sans-Serif" font-size="11.00" fill="#000000"> &#160;</text>
</a>
</g>
</g>
<!-- document_template_variable&#45;&gt;document_template -->
<g id="edge4" class="edge">
<title>document_template_variable:w&#45;&gt;document_template:e</title>
<path fill="none" stroke="#000000" d="M514.0769,-256.7C489.2332,-256.7 478.1563,-256.7 447.5,-256.7"/>
<polygon fill="#000000" stroke="#000000" points="520.5,-256.7001 528.5,-260.3 524.5,-256.7 528.5,-256.7 528.5,-256.7 528.5,-256.7 524.5,-256.7 528.5,-253.1 520.5,-256.7001 520.5,-256.7001"/>
<ellipse fill="none" stroke="#000000" cx="517.3" cy="-256.7001" rx="3.2" ry="3.2"/>
</g>
</g>
</svg>
