<?xml version="1.0" encoding="UTF-8" standalone="no"?>
<!DOCTYPE svg PUBLIC "-//W3C//DTD SVG 1.1//EN"
 "http://www.w3.org/Graphics/SVG/1.1/DTD/svg11.dtd">
<!-- Generated by graphviz version 2.40.1 (20161225.0304)
 -->
<!-- Title: twoDegreesRelationshipsDiagram Pages: 1 -->
<svg width="501pt" height="437pt"
 viewBox="0.00 0.00 501.00 436.70" xmlns="http://www.w3.org/2000/svg" xmlns:xlink="http://www.w3.org/1999/xlink">
<g id="graph0" class="graph" transform="scale(1 1) rotate(0) translate(4 432.7)">
<title>twoDegreesRelationshipsDiagram</title>
<polygon fill="#ffffff" stroke="transparent" points="-4,4 -4,-432.7 497,-432.7 497,4 -4,4"/>
<text text-anchor="middle" x="72.4936" y="-7.3" font-family="Helvetica,sans-Serif" font-size="11.00" fill="#000000">Generated by SchemaSpy</text>
<!-- document_template_audit -->
<g id="node1" class="node">
<title>document_template_audit</title>
<g id="a_node1"><a xlink:href="../../tables/document_template_audit.html" xlink:title="document_template_audit" target="_top">
<polygon fill="#ffffff" stroke="transparent" points="191,-202.7 191,-424.7 485,-424.7 485,-202.7 191,-202.7"/>
<polygon fill="#f5f5f5" stroke="transparent" points="193,-399.7 193,-422.7 483,-422.7 483,-399.7 193,-399.7"/>
<polygon fill="none" stroke="#000000" points="193,-399.7 193,-422.7 483,-422.7 483,-399.7 193,-399.7"/>
<text text-anchor="start" x="198" y="-408.3" font-family="Helvetica,sans-Serif" font-weight="bold" font-size="11.00" fill="#000000">document_template_audit</text>
<text text-anchor="start" x="448.0437" y="-407.8" font-family="Helvetica,sans-Serif" font-size="11.00" fill="#000000">[table]</text>
<polygon fill="none" stroke="#000000" points="193,-377.7 193,-399.7 389,-399.7 389,-377.7 193,-377.7"/>
<image xlink:href="../../images/primaryKeys.png" width="11px" height="12px" preserveAspectRatio="xMinYMin meet" x="198" y="-394.7"/>
<text text-anchor="start" x="213" y="-384.8" font-family="Helvetica,sans-Serif" font-size="11.00" fill="#000000">rev_id</text>
<polygon fill="none" stroke="#000000" points="389,-377.7 389,-399.7 483,-399.7 483,-377.7 389,-377.7"/>
<text text-anchor="start" x="392" y="-385.4" font-family="Helvetica,sans-Serif" font-size="11.00" fill="#000000">int8[19]</text>
<polygon fill="none" stroke="#000000" points="193,-355.7 193,-377.7 389,-377.7 389,-355.7 193,-355.7"/>
<text text-anchor="start" x="213" y="-362.8" font-family="Helvetica,sans-Serif" font-size="11.00" fill="#000000">rev_type</text>
<polygon fill="none" stroke="#000000" points="389,-355.7 389,-377.7 483,-377.7 483,-355.7 389,-355.7"/>
<text text-anchor="start" x="392" y="-363.4" font-family="Helvetica,sans-Serif" font-size="11.00" fill="#000000">int2[5]</text>
<polygon fill="none" stroke="#000000" points="193,-333.7 193,-355.7 389,-355.7 389,-333.7 193,-333.7"/>
<image xlink:href="../../images/primaryKeys.png" width="11px" height="12px" preserveAspectRatio="xMinYMin meet" x="198" y="-350.7"/>
<text text-anchor="start" x="213" y="-340.8" font-family="Helvetica,sans-Serif" font-size="11.00" fill="#000000">id</text>
<polygon fill="none" stroke="#000000" points="389,-333.7 389,-355.7 483,-355.7 483,-333.7 389,-333.7"/>
<text text-anchor="start" x="391.9758" y="-341.4" font-family="Helvetica,sans-Serif" font-size="11.00" fill="#000000">uuid[2147483647]</text>
<polygon fill="none" stroke="#000000" points="193,-311.7 193,-333.7 389,-333.7 389,-311.7 193,-311.7"/>
<image xlink:href="../../images/foreignKeys.png" width="11px" height="12px" preserveAspectRatio="xMinYMin meet" x="198" y="-328.7"/>
<text text-anchor="start" x="213" y="-318.8" font-family="Helvetica,sans-Serif" font-size="11.00" fill="#000000">code</text>
<polygon fill="none" stroke="#000000" points="389,-311.7 389,-333.7 483,-333.7 483,-311.7 389,-311.7"/>
<text text-anchor="start" x="392" y="-319.4" font-family="Helvetica,sans-Serif" font-size="11.00" fill="#000000">text[2147483647]</text>
<polygon fill="none" stroke="#000000" points="193,-289.7 193,-311.7 389,-311.7 389,-289.7 193,-289.7"/>
<text text-anchor="start" x="213" y="-296.8" font-family="Helvetica,sans-Serif" font-size="11.00" fill="#000000">name</text>
<polygon fill="none" stroke="#000000" points="389,-289.7 389,-311.7 483,-311.7 483,-289.7 389,-289.7"/>
<text text-anchor="start" x="392" y="-297.4" font-family="Helvetica,sans-Serif" font-size="11.00" fill="#000000">text[2147483647]</text>
<polygon fill="none" stroke="#000000" points="193,-267.7 193,-289.7 389,-289.7 389,-267.7 193,-267.7"/>
<text text-anchor="start" x="213" y="-274.8" font-family="Helvetica,sans-Serif" font-size="11.00" fill="#000000">description</text>
<polygon fill="none" stroke="#000000" points="389,-267.7 389,-289.7 483,-289.7 483,-267.7 389,-267.7"/>
<text text-anchor="start" x="392" y="-275.4" font-family="Helvetica,sans-Serif" font-size="11.00" fill="#000000">text[2147483647]</text>
<polygon fill="none" stroke="#000000" points="193,-245.7 193,-267.7 389,-267.7 389,-245.7 193,-245.7"/>
<text text-anchor="start" x="213" y="-252.8" font-family="Helvetica,sans-Serif" font-size="11.00" fill="#000000">version</text>
<polygon fill="none" stroke="#000000" points="389,-245.7 389,-267.7 483,-267.7 483,-245.7 389,-245.7"/>
<text text-anchor="start" x="392" y="-253.4" font-family="Helvetica,sans-Serif" font-size="11.00" fill="#000000">int4[10]</text>
<polygon fill="#ffffff" stroke="transparent" points="193,-223.7 193,-245.7 389,-245.7 389,-223.7 193,-223.7"/>
<polygon fill="none" stroke="#000000" points="193,-223.7 193,-245.7 389,-245.7 389,-223.7 193,-223.7"/>
<text text-anchor="start" x="213" y="-230.8" font-family="Helvetica,sans-Serif" font-size="11.00" fill="#000000">external_reference</text>
<polygon fill="none" stroke="#000000" points="389,-223.7 389,-245.7 483,-245.7 483,-223.7 389,-223.7"/>
<text text-anchor="start" x="391.9758" y="-231.4" font-family="Helvetica,sans-Serif" font-size="11.00" fill="#000000">uuid[2147483647]</text>
<polygon fill="#ffffff" stroke="transparent" points="193,-204.7 193,-223.7 295,-223.7 295,-204.7 193,-204.7"/>
<polygon fill="none" stroke="#000000" points="193,-204.7 193,-223.7 295,-223.7 295,-204.7 193,-204.7"/>
<text text-anchor="start" x="196" y="-210.8" font-family="Helvetica,sans-Serif" font-size="11.00" fill="#000000">&lt; 1</text>
<polygon fill="#ffffff" stroke="transparent" points="295,-204.7 295,-223.7 389,-223.7 389,-204.7 295,-204.7"/>
<polygon fill="none" stroke="#000000" points="295,-204.7 295,-223.7 389,-223.7 389,-204.7 295,-204.7"/>
<text text-anchor="start" x="379.8862" y="-210.8" font-family="Helvetica,sans-Serif" font-size="11.00" fill="#000000"> &#160;</text>
<polygon fill="#ffffff" stroke="transparent" points="389,-204.7 389,-223.7 483,-223.7 483,-204.7 389,-204.7"/>
<polygon fill="none" stroke="#000000" points="389,-204.7 389,-223.7 483,-223.7 483,-204.7 389,-204.7"/>
<text text-anchor="start" x="464.4053" y="-210.8" font-family="Helvetica,sans-Serif" font-size="11.00" fill="#000000">0 &gt;</text>
<polygon fill="none" stroke="#000000" stroke-width="2" points="192,-203.7 192,-423.7 484,-423.7 484,-203.7 192,-203.7"/>
</a>
</g>
</g>
<!-- audit_revision -->
<g id="node2" class="node">
<title>audit_revision</title>
<g id="a_node2"><a xlink:href="../../tables/audit_revision.html" xlink:title="audit_revision" target="_top">
<polygon fill="#ffffff" stroke="transparent" points="8,-99.2 8,-182.2 142,-182.2 142,-99.2 8,-99.2"/>
<polygon fill="#f5f5f5" stroke="transparent" points="8,-158.7 8,-181.7 142,-181.7 142,-158.7 8,-158.7"/>
<polygon fill="none" stroke="#000000" points="8,-158.7 8,-181.7 142,-181.7 142,-158.7 8,-158.7"/>
<text text-anchor="start" x="13" y="-167.3" font-family="Helvetica,sans-Serif" font-weight="bold" font-size="11.00" fill="#000000">audit_revision</text>
<text text-anchor="start" x="107.5219" y="-166.8" font-family="Helvetica,sans-Serif" font-size="11.00" fill="#000000">[table]</text>
<polygon fill="none" stroke="#000000" points="8,-136.7 8,-158.7 142,-158.7 142,-136.7 8,-136.7"/>
<image xlink:href="../../images/primaryKeys.png" width="11px" height="12px" preserveAspectRatio="xMinYMin meet" x="13" y="-153.7"/>
<text text-anchor="start" x="37" y="-143.8" font-family="Helvetica,sans-Serif" font-size="11.00" fill="#000000">id</text>
<polygon fill="none" stroke="#000000" points="8,-117.7 8,-136.7 142,-136.7 142,-117.7 8,-117.7"/>
<text text-anchor="start" x="11" y="-123.8" font-family="Helvetica,sans-Serif" font-size="11.00" fill="#000000">...</text>
<polygon fill="#ffffff" stroke="transparent" points="8,-98.7 8,-117.7 64,-117.7 64,-98.7 8,-98.7"/>
<polygon fill="none" stroke="#000000" points="8,-98.7 8,-117.7 64,-117.7 64,-98.7 8,-98.7"/>
<text text-anchor="start" x="11" y="-104.8" font-family="Helvetica,sans-Serif" font-size="11.00" fill="#000000"> &#160;</text>
<polygon fill="#ffffff" stroke="transparent" points="64,-98.7 64,-117.7 98,-117.7 98,-98.7 64,-98.7"/>
<polygon fill="none" stroke="#000000" points="64,-98.7 64,-117.7 98,-117.7 98,-98.7 64,-98.7"/>
<text text-anchor="start" x="88.8862" y="-104.8" font-family="Helvetica,sans-Serif" font-size="11.00" fill="#000000"> &#160;</text>
<polygon fill="#ffffff" stroke="transparent" points="98,-98.7 98,-117.7 142,-117.7 142,-98.7 98,-98.7"/>
<polygon fill="none" stroke="#000000" points="98,-98.7 98,-117.7 142,-117.7 142,-98.7 98,-98.7"/>
<text text-anchor="start" x="123.4053" y="-104.8" font-family="Helvetica,sans-Serif" font-size="11.00" fill="#000000">3 &gt;</text>
</a>
</g>
</g>
<!-- document_template_audit&#45;&gt;audit_revision -->
<g id="edge1" class="edge">
<title>document_template_audit:w&#45;&gt;audit_revision:e</title>
<path fill="none" stroke="#000000" d="M178.3947,-386.8987C99.8604,-364.8449 245.9235,-147.7 142,-147.7"/>
<polygon fill="#000000" stroke="#000000" points="185.0602,-387.7207 192.5593,-392.2729 189.0301,-388.2104 193,-388.7 193,-388.7 193,-388.7 189.0301,-388.2104 193.4407,-385.1271 185.0602,-387.7207 185.0602,-387.7207"/>
<ellipse fill="none" stroke="#000000" cx="181.8842" cy="-387.329" rx="3.2" ry="3.2"/>
</g>
<!-- document_template_group_audit -->
<g id="node3" class="node">
<title>document_template_group_audit</title>
<g id="a_node3"><a xlink:href="../../tables/document_template_group_audit.html" xlink:title="document_template_group_audit" target="_top">
<polygon fill="#ffffff" stroke="transparent" points="208,-120.2 208,-181.2 468,-181.2 468,-120.2 208,-120.2"/>
<polygon fill="#f5f5f5" stroke="transparent" points="208,-157.7 208,-180.7 468,-180.7 468,-157.7 208,-157.7"/>
<polygon fill="none" stroke="#000000" points="208,-157.7 208,-180.7 468,-180.7 468,-157.7 208,-157.7"/>
<text text-anchor="start" x="213" y="-166.3" font-family="Helvetica,sans-Serif" font-weight="bold" font-size="11.00" fill="#000000">document_template_group_audit</text>
<text text-anchor="start" x="433.5219" y="-165.8" font-family="Helvetica,sans-Serif" font-size="11.00" fill="#000000">[table]</text>
<polygon fill="none" stroke="#000000" points="208,-138.7 208,-157.7 468,-157.7 468,-138.7 208,-138.7"/>
<text text-anchor="start" x="211" y="-144.8" font-family="Helvetica,sans-Serif" font-size="11.00" fill="#000000">...</text>
<polygon fill="#ffffff" stroke="transparent" points="208,-119.7 208,-138.7 336,-138.7 336,-119.7 208,-119.7"/>
<polygon fill="none" stroke="#000000" points="208,-119.7 208,-138.7 336,-138.7 336,-119.7 208,-119.7"/>
<text text-anchor="start" x="211" y="-125.8" font-family="Helvetica,sans-Serif" font-size="11.00" fill="#000000">&lt; 1</text>
<polygon fill="#ffffff" stroke="transparent" points="336,-119.7 336,-138.7 402,-138.7 402,-119.7 336,-119.7"/>
<polygon fill="none" stroke="#000000" points="336,-119.7 336,-138.7 402,-138.7 402,-119.7 336,-119.7"/>
<text text-anchor="start" x="392.8862" y="-125.8" font-family="Helvetica,sans-Serif" font-size="11.00" fill="#000000"> &#160;</text>
<polygon fill="#ffffff" stroke="transparent" points="402,-119.7 402,-138.7 468,-138.7 468,-119.7 402,-119.7"/>
<polygon fill="none" stroke="#000000" points="402,-119.7 402,-138.7 468,-138.7 468,-119.7 402,-119.7"/>
<text text-anchor="start" x="458.8862" y="-125.8" font-family="Helvetica,sans-Serif" font-size="11.00" fill="#000000"> &#160;</text>
</a>
</g>
</g>
<!-- document_template_group_audit&#45;&gt;audit_revision -->
<g id="edge2" class="edge">
<title>document_template_group_audit:w&#45;&gt;audit_revision:e</title>
<path fill="none" stroke="#000000" d="M193.5303,-147.7C175.1432,-147.7 165.8333,-147.7 142,-147.7"/>
<polygon fill="#000000" stroke="#000000" points="200,-147.7001 208,-151.3 204,-147.7 208,-147.7 208,-147.7 208,-147.7 204,-147.7 208,-144.1 200,-147.7001 200,-147.7001"/>
<ellipse fill="none" stroke="#000000" cx="196.8" cy="-147.7001" rx="3.2" ry="3.2"/>
</g>
<!-- document_template_variable_audit -->
<g id="node4" class="node">
<title>document_template_variable_audit</title>
<g id="a_node4"><a xlink:href="../../tables/document_template_variable_audit.html" xlink:title="document_template_variable_audit" target="_top">
<polygon fill="#ffffff" stroke="transparent" points="200.5,-38.2 200.5,-99.2 475.5,-99.2 475.5,-38.2 200.5,-38.2"/>
<polygon fill="#f5f5f5" stroke="transparent" points="201,-75.7 201,-98.7 476,-98.7 476,-75.7 201,-75.7"/>
<polygon fill="none" stroke="#000000" points="201,-75.7 201,-98.7 476,-98.7 476,-75.7 201,-75.7"/>
<text text-anchor="start" x="206" y="-84.3" font-family="Helvetica,sans-Serif" font-weight="bold" font-size="11.00" fill="#000000">document_template_variable_audit</text>
<text text-anchor="start" x="441.5219" y="-83.8" font-family="Helvetica,sans-Serif" font-size="11.00" fill="#000000">[table]</text>
<polygon fill="none" stroke="#000000" points="201,-56.7 201,-75.7 476,-75.7 476,-56.7 201,-56.7"/>
<text text-anchor="start" x="204" y="-62.8" font-family="Helvetica,sans-Serif" font-size="11.00" fill="#000000">...</text>
<polygon fill="#ffffff" stroke="transparent" points="201,-37.7 201,-56.7 337,-56.7 337,-37.7 201,-37.7"/>
<polygon fill="none" stroke="#000000" points="201,-37.7 201,-56.7 337,-56.7 337,-37.7 201,-37.7"/>
<text text-anchor="start" x="204" y="-43.8" font-family="Helvetica,sans-Serif" font-size="11.00" fill="#000000">&lt; 1</text>
<polygon fill="#ffffff" stroke="transparent" points="337,-37.7 337,-56.7 406,-56.7 406,-37.7 337,-37.7"/>
<polygon fill="none" stroke="#000000" points="337,-37.7 337,-56.7 406,-56.7 406,-37.7 337,-37.7"/>
<text text-anchor="start" x="396.8862" y="-43.8" font-family="Helvetica,sans-Serif" font-size="11.00" fill="#000000"> &#160;</text>
<polygon fill="#ffffff" stroke="transparent" points="406,-37.7 406,-56.7 476,-56.7 476,-37.7 406,-37.7"/>
<polygon fill="none" stroke="#000000" points="406,-37.7 406,-56.7 476,-56.7 476,-37.7 406,-37.7"/>
<text text-anchor="start" x="466.8862" y="-43.8" font-family="Helvetica,sans-Serif" font-size="11.00" fill="#000000"> &#160;</text>
</a>
</g>
</g>
<!-- document_template_variable_audit&#45;&gt;audit_revision -->
<g id="edge3" class="edge">
<title>document_template_variable_audit:w&#45;&gt;audit_revision:e</title>
<path fill="none" stroke="#000000" d="M187.0863,-69.4364C162.784,-85.478 181.1101,-147.7 142,-147.7"/>
<polygon fill="#000000" stroke="#000000" points="193.2737,-67.7749 201.9337,-69.1768 197.1369,-66.7374 201,-65.7 201,-65.7 201,-65.7 197.1369,-66.7374 200.0663,-62.2232 193.2737,-67.7749 193.2737,-67.7749"/>
<ellipse fill="none" stroke="#000000" cx="190.1832" cy="-68.6048" rx="3.2" ry="3.2"/>
</g>
</g>
</svg>
