<?xml version="1.0" encoding="UTF-8" standalone="no"?>
<!DOCTYPE svg PUBLIC "-//W3C//DTD SVG 1.1//EN"
 "http://www.w3.org/Graphics/SVG/1.1/DTD/svg11.dtd">
<!-- Generated by graphviz version 2.40.1 (20161225.0304)
 -->
<!-- Title: twoDegreesRelationshipsDiagram Pages: 1 -->
<svg width="570pt" height="433pt"
 viewBox="0.00 0.00 570.00 433.20" xmlns="http://www.w3.org/2000/svg" xmlns:xlink="http://www.w3.org/1999/xlink">
<g id="graph0" class="graph" transform="scale(1 1) rotate(0) translate(4 429.2)">
<title>twoDegreesRelationshipsDiagram</title>
<polygon fill="#ffffff" stroke="transparent" points="-4,4 -4,-429.2 566,-429.2 566,4 -4,4"/>
<text text-anchor="middle" x="72.4936" y="-7.3" font-family="Helvetica,sans-Serif" font-size="11.00" fill="#000000">Generated by SchemaSpy</text>
<!-- document_generation_request -->
<g id="node1" class="node">
<title>document_generation_request</title>
<g id="a_node1"><a xlink:href="../../tables/document_generation_request.html" xlink:title="document_generation_request" target="_top">
<polygon fill="#ffffff" stroke="transparent" points="310,-316.2 310,-421.2 554,-421.2 554,-316.2 310,-316.2"/>
<polygon fill="#f5f5f5" stroke="transparent" points="310,-397.7 310,-420.7 554,-420.7 554,-397.7 310,-397.7"/>
<polygon fill="none" stroke="#000000" points="310,-397.7 310,-420.7 554,-420.7 554,-397.7 310,-397.7"/>
<text text-anchor="start" x="315" y="-406.3" font-family="Helvetica,sans-Serif" font-weight="bold" font-size="11.00" fill="#000000">document_generation_request</text>
<text text-anchor="start" x="519.5219" y="-405.8" font-family="Helvetica,sans-Serif" font-size="11.00" fill="#000000">[table]</text>
<polygon fill="none" stroke="#000000" points="310,-375.7 310,-397.7 554,-397.7 554,-375.7 310,-375.7"/>
<image xlink:href="../../images/primaryKeys.png" width="11px" height="12px" preserveAspectRatio="xMinYMin meet" x="315" y="-392.7"/>
<text text-anchor="start" x="339" y="-382.8" font-family="Helvetica,sans-Serif" font-size="11.00" fill="#000000">id</text>
<polygon fill="none" stroke="#000000" points="310,-353.7 310,-375.7 554,-375.7 554,-353.7 310,-353.7"/>
<image xlink:href="../../images/foreignKeys.png" width="11px" height="12px" preserveAspectRatio="xMinYMin meet" x="315" y="-370.7"/>
<text text-anchor="start" x="339" y="-360.8" font-family="Helvetica,sans-Serif" font-size="11.00" fill="#000000">template_id</text>
<polygon fill="none" stroke="#000000" points="310,-334.7 310,-353.7 554,-353.7 554,-334.7 310,-334.7"/>
<text text-anchor="start" x="313" y="-340.8" font-family="Helvetica,sans-Serif" font-size="11.00" fill="#000000">...</text>
<polygon fill="#ffffff" stroke="transparent" points="310,-315.7 310,-334.7 430,-334.7 430,-315.7 310,-315.7"/>
<polygon fill="none" stroke="#000000" points="310,-315.7 310,-334.7 430,-334.7 430,-315.7 310,-315.7"/>
<text text-anchor="start" x="313" y="-321.8" font-family="Helvetica,sans-Serif" font-size="11.00" fill="#000000">&lt; 1</text>
<polygon fill="#ffffff" stroke="transparent" points="430,-315.7 430,-334.7 492,-334.7 492,-315.7 430,-315.7"/>
<polygon fill="none" stroke="#000000" points="430,-315.7 430,-334.7 492,-334.7 492,-315.7 430,-315.7"/>
<text text-anchor="start" x="482.8862" y="-321.8" font-family="Helvetica,sans-Serif" font-size="11.00" fill="#000000"> &#160;</text>
<polygon fill="#ffffff" stroke="transparent" points="492,-315.7 492,-334.7 554,-334.7 554,-315.7 492,-315.7"/>
<polygon fill="none" stroke="#000000" points="492,-315.7 492,-334.7 554,-334.7 554,-315.7 492,-315.7"/>
<text text-anchor="start" x="544.8862" y="-321.8" font-family="Helvetica,sans-Serif" font-size="11.00" fill="#000000"> &#160;</text>
</a>
</g>
</g>
<!-- document_template -->
<g id="node2" class="node">
<title>document_template</title>
<g id="a_node2"><a xlink:href="../../tables/document_template.html" xlink:title="document_template" target="_top">
<polygon fill="#ffffff" stroke="transparent" points="8,-222.7 8,-400.7 261,-400.7 261,-222.7 8,-222.7"/>
<polygon fill="#f5f5f5" stroke="transparent" points="10.5,-375.7 10.5,-398.7 259.5,-398.7 259.5,-375.7 10.5,-375.7"/>
<polygon fill="none" stroke="#000000" points="10.5,-375.7 10.5,-398.7 259.5,-398.7 259.5,-375.7 10.5,-375.7"/>
<text text-anchor="start" x="15.5" y="-384.3" font-family="Helvetica,sans-Serif" font-weight="bold" font-size="11.00" fill="#000000">document_template</text>
<text text-anchor="start" x="224.5437" y="-383.8" font-family="Helvetica,sans-Serif" font-size="11.00" fill="#000000">[table]</text>
<polygon fill="none" stroke="#000000" points="10.5,-353.7 10.5,-375.7 165.5,-375.7 165.5,-353.7 10.5,-353.7"/>
<image xlink:href="../../images/primaryKeys.png" width="11px" height="12px" preserveAspectRatio="xMinYMin meet" x="15.5" y="-370.7"/>
<text text-anchor="start" x="30.5" y="-360.8" font-family="Helvetica,sans-Serif" font-size="11.00" fill="#000000">id</text>
<polygon fill="none" stroke="#000000" points="165.5,-353.7 165.5,-375.7 259.5,-375.7 259.5,-353.7 165.5,-353.7"/>
<text text-anchor="start" x="168.4758" y="-361.4" font-family="Helvetica,sans-Serif" font-size="11.00" fill="#000000">uuid[2147483647]</text>
<polygon fill="#ffffff" stroke="transparent" points="10.5,-331.7 10.5,-353.7 165.5,-353.7 165.5,-331.7 10.5,-331.7"/>
<polygon fill="none" stroke="#000000" points="10.5,-331.7 10.5,-353.7 165.5,-353.7 165.5,-331.7 10.5,-331.7"/>
<image xlink:href="../../images/foreignKeys.png" width="11px" height="12px" preserveAspectRatio="xMinYMin meet" x="15.5" y="-348.7"/>
<text text-anchor="start" x="30.5" y="-338.8" font-family="Helvetica,sans-Serif" font-size="11.00" fill="#000000">code</text>
<polygon fill="none" stroke="#000000" points="165.5,-331.7 165.5,-353.7 259.5,-353.7 259.5,-331.7 165.5,-331.7"/>
<text text-anchor="start" x="168.5" y="-339.4" font-family="Helvetica,sans-Serif" font-size="11.00" fill="#000000">text[2147483647]</text>
<polygon fill="none" stroke="#000000" points="10.5,-309.7 10.5,-331.7 165.5,-331.7 165.5,-309.7 10.5,-309.7"/>
<text text-anchor="start" x="30.5" y="-316.8" font-family="Helvetica,sans-Serif" font-size="11.00" fill="#000000">name</text>
<polygon fill="none" stroke="#000000" points="165.5,-309.7 165.5,-331.7 259.5,-331.7 259.5,-309.7 165.5,-309.7"/>
<text text-anchor="start" x="168.5" y="-317.4" font-family="Helvetica,sans-Serif" font-size="11.00" fill="#000000">text[2147483647]</text>
<polygon fill="none" stroke="#000000" points="10.5,-287.7 10.5,-309.7 165.5,-309.7 165.5,-287.7 10.5,-287.7"/>
<text text-anchor="start" x="30.5" y="-294.8" font-family="Helvetica,sans-Serif" font-size="11.00" fill="#000000">description</text>
<polygon fill="none" stroke="#000000" points="165.5,-287.7 165.5,-309.7 259.5,-309.7 259.5,-287.7 165.5,-287.7"/>
<text text-anchor="start" x="168.5" y="-295.4" font-family="Helvetica,sans-Serif" font-size="11.00" fill="#000000">text[2147483647]</text>
<polygon fill="none" stroke="#000000" points="10.5,-265.7 10.5,-287.7 165.5,-287.7 165.5,-265.7 10.5,-265.7"/>
<text text-anchor="start" x="30.5" y="-272.8" font-family="Helvetica,sans-Serif" font-size="11.00" fill="#000000">version</text>
<polygon fill="none" stroke="#000000" points="165.5,-265.7 165.5,-287.7 259.5,-287.7 259.5,-265.7 165.5,-265.7"/>
<text text-anchor="start" x="168.5" y="-273.4" font-family="Helvetica,sans-Serif" font-size="11.00" fill="#000000">int4[10]</text>
<polygon fill="#ffffff" stroke="transparent" points="10.5,-243.7 10.5,-265.7 165.5,-265.7 165.5,-243.7 10.5,-243.7"/>
<polygon fill="none" stroke="#000000" points="10.5,-243.7 10.5,-265.7 165.5,-265.7 165.5,-243.7 10.5,-243.7"/>
<text text-anchor="start" x="30.5" y="-250.8" font-family="Helvetica,sans-Serif" font-size="11.00" fill="#000000">external_reference</text>
<polygon fill="none" stroke="#000000" points="165.5,-243.7 165.5,-265.7 259.5,-265.7 259.5,-243.7 165.5,-243.7"/>
<text text-anchor="start" x="168.4758" y="-251.4" font-family="Helvetica,sans-Serif" font-size="11.00" fill="#000000">uuid[2147483647]</text>
<polygon fill="#ffffff" stroke="transparent" points="10.5,-224.7 10.5,-243.7 92.5,-243.7 92.5,-224.7 10.5,-224.7"/>
<polygon fill="none" stroke="#000000" points="10.5,-224.7 10.5,-243.7 92.5,-243.7 92.5,-224.7 10.5,-224.7"/>
<text text-anchor="start" x="13.5" y="-230.8" font-family="Helvetica,sans-Serif" font-size="11.00" fill="#000000">&lt; 0</text>
<polygon fill="#ffffff" stroke="transparent" points="92.5,-224.7 92.5,-243.7 165.5,-243.7 165.5,-224.7 92.5,-224.7"/>
<polygon fill="none" stroke="#000000" points="92.5,-224.7 92.5,-243.7 165.5,-243.7 165.5,-224.7 92.5,-224.7"/>
<text text-anchor="start" x="156.3862" y="-230.8" font-family="Helvetica,sans-Serif" font-size="11.00" fill="#000000"> &#160;</text>
<polygon fill="#ffffff" stroke="transparent" points="165.5,-224.7 165.5,-243.7 259.5,-243.7 259.5,-224.7 165.5,-224.7"/>
<polygon fill="none" stroke="#000000" points="165.5,-224.7 165.5,-243.7 259.5,-243.7 259.5,-224.7 165.5,-224.7"/>
<text text-anchor="start" x="240.9053" y="-230.8" font-family="Helvetica,sans-Serif" font-size="11.00" fill="#000000">3 &gt;</text>
<polygon fill="none" stroke="#000000" stroke-width="2" points="9,-223.7 9,-399.7 260,-399.7 260,-223.7 9,-223.7"/>
</a>
</g>
</g>
<!-- document_generation_request&#45;&gt;document_template -->
<g id="edge1" class="edge">
<title>document_generation_request:w&#45;&gt;document_template:e</title>
<path fill="none" stroke="#000000" d="M295.4203,-364.7C283.5435,-364.7 276.158,-364.7 259.5,-364.7"/>
<polygon fill="#000000" stroke="#000000" points="302,-364.7001 310,-368.3 306,-364.7 310,-364.7 310,-364.7 310,-364.7 306,-364.7 310,-361.1 302,-364.7001 302,-364.7001"/>
<ellipse fill="none" stroke="#000000" cx="298.8" cy="-364.7001" rx="3.2" ry="3.2"/>
</g>
<!-- document_template_group -->
<g id="node3" class="node">
<title>document_template_group</title>
<g id="a_node3"><a xlink:href="../../tables/document_template_group.html" xlink:title="document_template_group" target="_top">
<polygon fill="#ffffff" stroke="transparent" points="322.5,-186.7 322.5,-294.7 541.5,-294.7 541.5,-186.7 322.5,-186.7"/>
<polygon fill="#f5f5f5" stroke="transparent" points="323,-271.7 323,-294.7 542,-294.7 542,-271.7 323,-271.7"/>
<polygon fill="none" stroke="#000000" points="323,-271.7 323,-294.7 542,-294.7 542,-271.7 323,-271.7"/>
<text text-anchor="start" x="328" y="-280.3" font-family="Helvetica,sans-Serif" font-weight="bold" font-size="11.00" fill="#000000">document_template_group</text>
<text text-anchor="start" x="507.5219" y="-279.8" font-family="Helvetica,sans-Serif" font-size="11.00" fill="#000000">[table]</text>
<polygon fill="none" stroke="#000000" points="323,-249.7 323,-271.7 542,-271.7 542,-249.7 323,-249.7"/>
<image xlink:href="../../images/primaryKeys.png" width="11px" height="12px" preserveAspectRatio="xMinYMin meet" x="328" y="-266.7"/>
<text text-anchor="start" x="352" y="-256.8" font-family="Helvetica,sans-Serif" font-size="11.00" fill="#000000">id</text>
<polygon fill="#ffffff" stroke="transparent" points="323,-227.7 323,-249.7 542,-249.7 542,-227.7 323,-227.7"/>
<polygon fill="none" stroke="#000000" points="323,-227.7 323,-249.7 542,-249.7 542,-227.7 323,-227.7"/>
<image xlink:href="../../images/foreignKeys.png" width="11px" height="12px" preserveAspectRatio="xMinYMin meet" x="328" y="-244.7"/>
<text text-anchor="start" x="352" y="-234.8" font-family="Helvetica,sans-Serif" font-size="11.00" fill="#000000">template_id</text>
<polygon fill="#ffffff" stroke="transparent" points="323,-205.7 323,-227.7 542,-227.7 542,-205.7 323,-205.7"/>
<polygon fill="none" stroke="#000000" points="323,-205.7 323,-227.7 542,-227.7 542,-205.7 323,-205.7"/>
<image xlink:href="../../images/foreignKeys.png" width="11px" height="12px" preserveAspectRatio="xMinYMin meet" x="328" y="-222.7"/>
<text text-anchor="start" x="352" y="-212.8" font-family="Helvetica,sans-Serif" font-size="11.00" fill="#000000">template_group_id</text>
<polygon fill="#ffffff" stroke="transparent" points="323,-186.7 323,-205.7 431,-205.7 431,-186.7 323,-186.7"/>
<polygon fill="none" stroke="#000000" points="323,-186.7 323,-205.7 431,-205.7 431,-186.7 323,-186.7"/>
<text text-anchor="start" x="326" y="-192.8" font-family="Helvetica,sans-Serif" font-size="11.00" fill="#000000">&lt; 2</text>
<polygon fill="#ffffff" stroke="transparent" points="431,-186.7 431,-205.7 486,-205.7 486,-186.7 431,-186.7"/>
<polygon fill="none" stroke="#000000" points="431,-186.7 431,-205.7 486,-205.7 486,-186.7 431,-186.7"/>
<text text-anchor="start" x="476.8862" y="-192.8" font-family="Helvetica,sans-Serif" font-size="11.00" fill="#000000"> &#160;</text>
<polygon fill="#ffffff" stroke="transparent" points="486,-186.7 486,-205.7 542,-205.7 542,-186.7 486,-186.7"/>
<polygon fill="none" stroke="#000000" points="486,-186.7 486,-205.7 542,-205.7 542,-186.7 486,-186.7"/>
<text text-anchor="start" x="532.8862" y="-192.8" font-family="Helvetica,sans-Serif" font-size="11.00" fill="#000000"> &#160;</text>
</a>
</g>
</g>
<!-- document_template_group&#45;&gt;document_template -->
<g id="edge3" class="edge">
<title>document_template_group:w&#45;&gt;document_template:e</title>
<path fill="none" stroke="#000000" d="M308.6882,-241.6903C270.6082,-260.7711 316.4531,-364.7 259.5,-364.7"/>
<polygon fill="#000000" stroke="#000000" points="315.1691,-240.3362 323.7363,-242.2239 319.0846,-239.5181 323,-238.7 323,-238.7 323,-238.7 319.0846,-239.5181 322.2637,-235.1761 315.1691,-240.3362 315.1691,-240.3362"/>
<ellipse fill="none" stroke="#000000" cx="312.0368" cy="-240.9907" rx="3.2" ry="3.2"/>
</g>
<!-- template_group -->
<g id="node4" class="node">
<title>template_group</title>
<g id="a_node4"><a xlink:href="../../tables/template_group.html" xlink:title="template_group" target="_top">
<polygon fill="#ffffff" stroke="transparent" points="62,-140.2 62,-201.2 207,-201.2 207,-140.2 62,-140.2"/>
<polygon fill="#f5f5f5" stroke="transparent" points="62.5,-177.7 62.5,-200.7 207.5,-200.7 207.5,-177.7 62.5,-177.7"/>
<polygon fill="none" stroke="#000000" points="62.5,-177.7 62.5,-200.7 207.5,-200.7 207.5,-177.7 62.5,-177.7"/>
<text text-anchor="start" x="67.5" y="-186.3" font-family="Helvetica,sans-Serif" font-weight="bold" font-size="11.00" fill="#000000">template_group</text>
<text text-anchor="start" x="173.0219" y="-185.8" font-family="Helvetica,sans-Serif" font-size="11.00" fill="#000000">[table]</text>
<polygon fill="none" stroke="#000000" points="62.5,-158.7 62.5,-177.7 207.5,-177.7 207.5,-158.7 62.5,-158.7"/>
<text text-anchor="start" x="65.5" y="-164.8" font-family="Helvetica,sans-Serif" font-size="11.00" fill="#000000">...</text>
<polygon fill="#ffffff" stroke="transparent" points="62.5,-139.7 62.5,-158.7 124.5,-158.7 124.5,-139.7 62.5,-139.7"/>
<polygon fill="none" stroke="#000000" points="62.5,-139.7 62.5,-158.7 124.5,-158.7 124.5,-139.7 62.5,-139.7"/>
<text text-anchor="start" x="65.5" y="-145.8" font-family="Helvetica,sans-Serif" font-size="11.00" fill="#000000"> &#160;</text>
<polygon fill="#ffffff" stroke="transparent" points="124.5,-139.7 124.5,-158.7 161.5,-158.7 161.5,-139.7 124.5,-139.7"/>
<polygon fill="none" stroke="#000000" points="124.5,-139.7 124.5,-158.7 161.5,-158.7 161.5,-139.7 124.5,-139.7"/>
<text text-anchor="start" x="152.3862" y="-145.8" font-family="Helvetica,sans-Serif" font-size="11.00" fill="#000000"> &#160;</text>
<polygon fill="#ffffff" stroke="transparent" points="161.5,-139.7 161.5,-158.7 207.5,-158.7 207.5,-139.7 161.5,-139.7"/>
<polygon fill="none" stroke="#000000" points="161.5,-139.7 161.5,-158.7 207.5,-158.7 207.5,-139.7 161.5,-139.7"/>
<text text-anchor="start" x="188.9053" y="-145.8" font-family="Helvetica,sans-Serif" font-size="11.00" fill="#000000">1 &gt;</text>
</a>
</g>
</g>
<!-- document_template_group&#45;&gt;template_group -->
<g id="edge2" class="edge">
<title>document_template_group:w&#45;&gt;template_group:e</title>
<path fill="none" stroke="#000000" d="M308.5971,-215.4888C266.0375,-207.9432 258.0342,-167.7 207.5,-167.7"/>
<polygon fill="#000000" stroke="#000000" points="315.0281,-216.0295 322.6983,-220.2873 319.0141,-216.3648 323,-216.7 323,-216.7 323,-216.7 319.0141,-216.3648 323.3017,-213.1127 315.0281,-216.0295 315.0281,-216.0295"/>
<ellipse fill="none" stroke="#000000" cx="311.8394" cy="-215.7614" rx="3.2" ry="3.2"/>
</g>
<!-- document_template_variable -->
<g id="node5" class="node">
<title>document_template_variable</title>
<g id="a_node5"><a xlink:href="../../tables/document_template_variable.html" xlink:title="document_template_variable" target="_top">
<polygon fill="#ffffff" stroke="transparent" points="315,-38.2 315,-165.2 549,-165.2 549,-38.2 315,-38.2"/>
<polygon fill="#f5f5f5" stroke="transparent" points="315,-141.7 315,-164.7 549,-164.7 549,-141.7 315,-141.7"/>
<polygon fill="none" stroke="#000000" points="315,-141.7 315,-164.7 549,-164.7 549,-141.7 315,-141.7"/>
<text text-anchor="start" x="320" y="-150.3" font-family="Helvetica,sans-Serif" font-weight="bold" font-size="11.00" fill="#000000">document_template_variable</text>
<text text-anchor="start" x="514.5219" y="-149.8" font-family="Helvetica,sans-Serif" font-size="11.00" fill="#000000">[table]</text>
<polygon fill="none" stroke="#000000" points="315,-119.7 315,-141.7 549,-141.7 549,-119.7 315,-119.7"/>
<image xlink:href="../../images/primaryKeys.png" width="11px" height="12px" preserveAspectRatio="xMinYMin meet" x="320" y="-136.7"/>
<text text-anchor="start" x="344" y="-126.8" font-family="Helvetica,sans-Serif" font-size="11.00" fill="#000000">id</text>
<polygon fill="#ffffff" stroke="transparent" points="315,-97.7 315,-119.7 549,-119.7 549,-97.7 315,-97.7"/>
<polygon fill="none" stroke="#000000" points="315,-97.7 315,-119.7 549,-119.7 549,-97.7 315,-97.7"/>
<image xlink:href="../../images/foreignKeys.png" width="11px" height="12px" preserveAspectRatio="xMinYMin meet" x="320" y="-114.7"/>
<text text-anchor="start" x="344" y="-104.8" font-family="Helvetica,sans-Serif" font-size="11.00" fill="#000000">template_id</text>
<polygon fill="#ffffff" stroke="transparent" points="315,-75.7 315,-97.7 549,-97.7 549,-75.7 315,-75.7"/>
<polygon fill="none" stroke="#000000" points="315,-75.7 315,-97.7 549,-97.7 549,-75.7 315,-75.7"/>
<image xlink:href="../../images/foreignKeys.png" width="11px" height="12px" preserveAspectRatio="xMinYMin meet" x="320" y="-92.7"/>
<text text-anchor="start" x="344" y="-82.8" font-family="Helvetica,sans-Serif" font-size="11.00" fill="#000000">variable_id</text>
<polygon fill="none" stroke="#000000" points="315,-56.7 315,-75.7 549,-75.7 549,-56.7 315,-56.7"/>
<text text-anchor="start" x="318" y="-62.8" font-family="Helvetica,sans-Serif" font-size="11.00" fill="#000000">...</text>
<polygon fill="#ffffff" stroke="transparent" points="315,-37.7 315,-56.7 430,-56.7 430,-37.7 315,-37.7"/>
<polygon fill="none" stroke="#000000" points="315,-37.7 315,-56.7 430,-56.7 430,-37.7 315,-37.7"/>
<text text-anchor="start" x="318" y="-43.8" font-family="Helvetica,sans-Serif" font-size="11.00" fill="#000000">&lt; 2</text>
<polygon fill="#ffffff" stroke="transparent" points="430,-37.7 430,-56.7 489,-56.7 489,-37.7 430,-37.7"/>
<polygon fill="none" stroke="#000000" points="430,-37.7 430,-56.7 489,-56.7 489,-37.7 430,-37.7"/>
<text text-anchor="start" x="479.8862" y="-43.8" font-family="Helvetica,sans-Serif" font-size="11.00" fill="#000000"> &#160;</text>
<polygon fill="#ffffff" stroke="transparent" points="489,-37.7 489,-56.7 549,-56.7 549,-37.7 489,-37.7"/>
<polygon fill="none" stroke="#000000" points="489,-37.7 489,-56.7 549,-56.7 549,-37.7 489,-37.7"/>
<text text-anchor="start" x="539.8862" y="-43.8" font-family="Helvetica,sans-Serif" font-size="11.00" fill="#000000"> &#160;</text>
</a>
</g>
</g>
<!-- document_template_variable&#45;&gt;document_template -->
<g id="edge4" class="edge">
<title>document_template_variable:w&#45;&gt;document_template:e</title>
<path fill="none" stroke="#000000" d="M300.5042,-110.3348C214.5594,-132.1375 370.4637,-364.7 259.5,-364.7"/>
<polygon fill="#000000" stroke="#000000" points="307.0504,-109.5966 315.4035,-112.2773 311.0252,-109.1483 315,-108.7 315,-108.7 315,-108.7 311.0252,-109.1483 314.5965,-105.1227 307.0504,-109.5966 307.0504,-109.5966"/>
<ellipse fill="none" stroke="#000000" cx="303.8705" cy="-109.9552" rx="3.2" ry="3.2"/>
</g>
<!-- template_variable -->
<g id="node6" class="node">
<title>template_variable</title>
<g id="a_node6"><a xlink:href="../../tables/template_variable.html" xlink:title="template_variable" target="_top">
<polygon fill="#ffffff" stroke="transparent" points="54.5,-58.2 54.5,-119.2 214.5,-119.2 214.5,-58.2 54.5,-58.2"/>
<polygon fill="#f5f5f5" stroke="transparent" points="54.5,-95.7 54.5,-118.7 214.5,-118.7 214.5,-95.7 54.5,-95.7"/>
<polygon fill="none" stroke="#000000" points="54.5,-95.7 54.5,-118.7 214.5,-118.7 214.5,-95.7 54.5,-95.7"/>
<text text-anchor="start" x="59.5" y="-104.3" font-family="Helvetica,sans-Serif" font-weight="bold" font-size="11.00" fill="#000000">template_variable</text>
<text text-anchor="start" x="180.0219" y="-103.8" font-family="Helvetica,sans-Serif" font-size="11.00" fill="#000000">[table]</text>
<polygon fill="none" stroke="#000000" points="54.5,-76.7 54.5,-95.7 214.5,-95.7 214.5,-76.7 54.5,-76.7"/>
<text text-anchor="start" x="57.5" y="-82.8" font-family="Helvetica,sans-Serif" font-size="11.00" fill="#000000">...</text>
<polygon fill="#ffffff" stroke="transparent" points="54.5,-57.7 54.5,-76.7 128.5,-76.7 128.5,-57.7 54.5,-57.7"/>
<polygon fill="none" stroke="#000000" points="54.5,-57.7 54.5,-76.7 128.5,-76.7 128.5,-57.7 54.5,-57.7"/>
<text text-anchor="start" x="57.5" y="-63.8" font-family="Helvetica,sans-Serif" font-size="11.00" fill="#000000">&lt; 1</text>
<polygon fill="#ffffff" stroke="transparent" points="128.5,-57.7 128.5,-76.7 166.5,-76.7 166.5,-57.7 128.5,-57.7"/>
<polygon fill="none" stroke="#000000" points="128.5,-57.7 128.5,-76.7 166.5,-76.7 166.5,-57.7 128.5,-57.7"/>
<text text-anchor="start" x="157.3862" y="-63.8" font-family="Helvetica,sans-Serif" font-size="11.00" fill="#000000"> &#160;</text>
<polygon fill="#ffffff" stroke="transparent" points="166.5,-57.7 166.5,-76.7 214.5,-76.7 214.5,-57.7 166.5,-57.7"/>
<polygon fill="none" stroke="#000000" points="166.5,-57.7 166.5,-76.7 214.5,-76.7 214.5,-57.7 166.5,-57.7"/>
<text text-anchor="start" x="195.9053" y="-63.8" font-family="Helvetica,sans-Serif" font-size="11.00" fill="#000000">1 &gt;</text>
</a>
</g>
</g>
<!-- document_template_variable&#45;&gt;template_variable -->
<g id="edge5" class="edge">
<title>document_template_variable:w&#45;&gt;template_variable:e</title>
<path fill="none" stroke="#000000" d="M300.5687,-86.662C267.2548,-86.4794 253.9342,-85.7 214.5,-85.7"/>
<polygon fill="#000000" stroke="#000000" points="307,-86.6789 314.9905,-90.3 311,-86.6894 315,-86.7 315,-86.7 315,-86.7 311,-86.6894 315.0095,-83.1 307,-86.6789 307,-86.6789"/>
<ellipse fill="none" stroke="#000000" cx="303.8" cy="-86.6704" rx="3.2" ry="3.2"/>
</g>
</g>
</svg>
