<?xml version="1.0" encoding="UTF-8" standalone="no"?>
<!DOCTYPE svg PUBLIC "-//W3C//DTD SVG 1.1//EN"
 "http://www.w3.org/Graphics/SVG/1.1/DTD/svg11.dtd">
<!-- Generated by graphviz version 2.40.1 (20161225.0304)
 -->
<!-- Title: oneDegreeRelationshipsDiagram Pages: 1 -->
<svg width="547pt" height="206pt"
 viewBox="0.00 0.00 547.00 206.20" xmlns="http://www.w3.org/2000/svg" xmlns:xlink="http://www.w3.org/1999/xlink">
<g id="graph0" class="graph" transform="scale(1 1) rotate(0) translate(4 202.2)">
<title>oneDegreeRelationshipsDiagram</title>
<polygon fill="#ffffff" stroke="transparent" points="-4,4 -4,-202.2 543,-202.2 543,4 -4,4"/>
<text text-anchor="middle" x="72.4936" y="-7.3" font-family="Helvetica,sans-Serif" font-size="11.00" fill="#000000">Generated by SchemaSpy</text>
<!-- document_template_group_audit -->
<g id="node1" class="node">
<title>document_template_group_audit</title>
<g id="a_node1"><a xlink:href="../../tables/document_template_group_audit.html" xlink:title="document_template_group_audit" target="_top">
<polygon fill="#ffffff" stroke="transparent" points="191,-38.2 191,-194.2 531,-194.2 531,-38.2 191,-38.2"/>
<polygon fill="#f5f5f5" stroke="transparent" points="193,-169.2 193,-192.2 529,-192.2 529,-169.2 193,-169.2"/>
<polygon fill="none" stroke="#000000" points="193,-169.2 193,-192.2 529,-192.2 529,-169.2 193,-169.2"/>
<text text-anchor="start" x="198" y="-177.8" font-family="Helvetica,sans-Serif" font-weight="bold" font-size="11.00" fill="#000000">document_template_group_audit</text>
<text text-anchor="start" x="494.0437" y="-177.3" font-family="Helvetica,sans-Serif" font-size="11.00" fill="#000000">[table]</text>
<polygon fill="none" stroke="#000000" points="193,-147.2 193,-169.2 435,-169.2 435,-147.2 193,-147.2"/>
<image xlink:href="../../images/primaryKeys.png" width="11px" height="12px" preserveAspectRatio="xMinYMin meet" x="198" y="-164.2"/>
<text text-anchor="start" x="213" y="-154.3" font-family="Helvetica,sans-Serif" font-size="11.00" fill="#000000">rev_id</text>
<polygon fill="none" stroke="#000000" points="435,-147.2 435,-169.2 529,-169.2 529,-147.2 435,-147.2"/>
<text text-anchor="start" x="438" y="-154.9" font-family="Helvetica,sans-Serif" font-size="11.00" fill="#000000">int8[19]</text>
<polygon fill="none" stroke="#000000" points="193,-125.2 193,-147.2 435,-147.2 435,-125.2 193,-125.2"/>
<text text-anchor="start" x="213" y="-132.3" font-family="Helvetica,sans-Serif" font-size="11.00" fill="#000000">rev_type</text>
<polygon fill="none" stroke="#000000" points="435,-125.2 435,-147.2 529,-147.2 529,-125.2 435,-125.2"/>
<text text-anchor="start" x="438" y="-132.9" font-family="Helvetica,sans-Serif" font-size="11.00" fill="#000000">int2[5]</text>
<polygon fill="none" stroke="#000000" points="193,-103.2 193,-125.2 435,-125.2 435,-103.2 193,-103.2"/>
<image xlink:href="../../images/primaryKeys.png" width="11px" height="12px" preserveAspectRatio="xMinYMin meet" x="198" y="-120.2"/>
<text text-anchor="start" x="213" y="-110.3" font-family="Helvetica,sans-Serif" font-size="11.00" fill="#000000">id</text>
<polygon fill="none" stroke="#000000" points="435,-103.2 435,-125.2 529,-125.2 529,-103.2 435,-103.2"/>
<text text-anchor="start" x="437.9758" y="-110.9" font-family="Helvetica,sans-Serif" font-size="11.00" fill="#000000">uuid[2147483647]</text>
<polygon fill="#ffffff" stroke="transparent" points="193,-81.2 193,-103.2 435,-103.2 435,-81.2 193,-81.2"/>
<polygon fill="none" stroke="#000000" points="193,-81.2 193,-103.2 435,-103.2 435,-81.2 193,-81.2"/>
<text text-anchor="start" x="213" y="-88.3" font-family="Helvetica,sans-Serif" font-size="11.00" fill="#000000">template_id</text>
<polygon fill="none" stroke="#000000" points="435,-81.2 435,-103.2 529,-103.2 529,-81.2 435,-81.2"/>
<text text-anchor="start" x="437.9758" y="-88.9" font-family="Helvetica,sans-Serif" font-size="11.00" fill="#000000">uuid[2147483647]</text>
<polygon fill="#ffffff" stroke="transparent" points="193,-59.2 193,-81.2 435,-81.2 435,-59.2 193,-59.2"/>
<polygon fill="none" stroke="#000000" points="193,-59.2 193,-81.2 435,-81.2 435,-59.2 193,-59.2"/>
<text text-anchor="start" x="213" y="-66.3" font-family="Helvetica,sans-Serif" font-size="11.00" fill="#000000">template_group_id</text>
<polygon fill="none" stroke="#000000" points="435,-59.2 435,-81.2 529,-81.2 529,-59.2 435,-59.2"/>
<text text-anchor="start" x="437.9758" y="-66.9" font-family="Helvetica,sans-Serif" font-size="11.00" fill="#000000">uuid[2147483647]</text>
<polygon fill="#ffffff" stroke="transparent" points="193,-40.2 193,-59.2 318,-59.2 318,-40.2 193,-40.2"/>
<polygon fill="none" stroke="#000000" points="193,-40.2 193,-59.2 318,-59.2 318,-40.2 193,-40.2"/>
<text text-anchor="start" x="196" y="-46.3" font-family="Helvetica,sans-Serif" font-size="11.00" fill="#000000">&lt; 1</text>
<polygon fill="#ffffff" stroke="transparent" points="318,-40.2 318,-59.2 435,-59.2 435,-40.2 318,-40.2"/>
<polygon fill="none" stroke="#000000" points="318,-40.2 318,-59.2 435,-59.2 435,-40.2 318,-40.2"/>
<text text-anchor="start" x="425.8862" y="-46.3" font-family="Helvetica,sans-Serif" font-size="11.00" fill="#000000"> &#160;</text>
<polygon fill="#ffffff" stroke="transparent" points="435,-40.2 435,-59.2 529,-59.2 529,-40.2 435,-40.2"/>
<polygon fill="none" stroke="#000000" points="435,-40.2 435,-59.2 529,-59.2 529,-40.2 435,-40.2"/>
<text text-anchor="start" x="510.4053" y="-46.3" font-family="Helvetica,sans-Serif" font-size="11.00" fill="#000000">0 &gt;</text>
<polygon fill="none" stroke="#000000" stroke-width="2" points="192,-39.2 192,-193.2 530,-193.2 530,-39.2 192,-39.2"/>
</a>
</g>
</g>
<!-- audit_revision -->
<g id="node2" class="node">
<title>audit_revision</title>
<g id="a_node2"><a xlink:href="../../tables/audit_revision.html" xlink:title="audit_revision" target="_top">
<polygon fill="#ffffff" stroke="transparent" points="8,-109.7 8,-192.7 142,-192.7 142,-109.7 8,-109.7"/>
<polygon fill="#f5f5f5" stroke="transparent" points="8,-169.2 8,-192.2 142,-192.2 142,-169.2 8,-169.2"/>
<polygon fill="none" stroke="#000000" points="8,-169.2 8,-192.2 142,-192.2 142,-169.2 8,-169.2"/>
<text text-anchor="start" x="13" y="-177.8" font-family="Helvetica,sans-Serif" font-weight="bold" font-size="11.00" fill="#000000">audit_revision</text>
<text text-anchor="start" x="107.5219" y="-177.3" font-family="Helvetica,sans-Serif" font-size="11.00" fill="#000000">[table]</text>
<polygon fill="none" stroke="#000000" points="8,-147.2 8,-169.2 142,-169.2 142,-147.2 8,-147.2"/>
<image xlink:href="../../images/primaryKeys.png" width="11px" height="12px" preserveAspectRatio="xMinYMin meet" x="13" y="-164.2"/>
<text text-anchor="start" x="37" y="-154.3" font-family="Helvetica,sans-Serif" font-size="11.00" fill="#000000">id</text>
<polygon fill="none" stroke="#000000" points="8,-128.2 8,-147.2 142,-147.2 142,-128.2 8,-128.2"/>
<text text-anchor="start" x="11" y="-134.3" font-family="Helvetica,sans-Serif" font-size="11.00" fill="#000000">...</text>
<polygon fill="#ffffff" stroke="transparent" points="8,-109.2 8,-128.2 64,-128.2 64,-109.2 8,-109.2"/>
<polygon fill="none" stroke="#000000" points="8,-109.2 8,-128.2 64,-128.2 64,-109.2 8,-109.2"/>
<text text-anchor="start" x="11" y="-115.3" font-family="Helvetica,sans-Serif" font-size="11.00" fill="#000000"> &#160;</text>
<polygon fill="#ffffff" stroke="transparent" points="64,-109.2 64,-128.2 98,-128.2 98,-109.2 64,-109.2"/>
<polygon fill="none" stroke="#000000" points="64,-109.2 64,-128.2 98,-128.2 98,-109.2 64,-109.2"/>
<text text-anchor="start" x="88.8862" y="-115.3" font-family="Helvetica,sans-Serif" font-size="11.00" fill="#000000"> &#160;</text>
<polygon fill="#ffffff" stroke="transparent" points="98,-109.2 98,-128.2 142,-128.2 142,-109.2 98,-109.2"/>
<polygon fill="none" stroke="#000000" points="98,-109.2 98,-128.2 142,-128.2 142,-109.2 98,-109.2"/>
<text text-anchor="start" x="123.4053" y="-115.3" font-family="Helvetica,sans-Serif" font-size="11.00" fill="#000000">3 &gt;</text>
</a>
</g>
</g>
<!-- document_template_group_audit&#45;&gt;audit_revision -->
<g id="edge1" class="edge">
<title>document_template_group_audit:w&#45;&gt;audit_revision:e</title>
<path fill="none" stroke="#000000" d="M178.276,-158.2C166.2815,-158.2 158.8229,-158.2 142,-158.2"/>
<polygon fill="#000000" stroke="#000000" points="185,-158.2001 193,-161.8 189,-158.2 193,-158.2 193,-158.2 193,-158.2 189,-158.2 193,-154.6 185,-158.2001 185,-158.2001"/>
<ellipse fill="none" stroke="#000000" cx="181.8" cy="-158.2001" rx="3.2" ry="3.2"/>
</g>
</g>
</svg>
