<?xml version="1.0" encoding="UTF-8" standalone="no"?>
<!DOCTYPE svg PUBLIC "-//W3C//DTD SVG 1.1//EN"
 "http://www.w3.org/Graphics/SVG/1.1/DTD/svg11.dtd">
<!-- Generated by graphviz version 2.40.1 (20161225.0304)
 -->
<!-- Title: oneDegreeRelationshipsDiagramImplied Pages: 1 -->
<svg width="786pt" height="248pt"
 viewBox="0.00 0.00 786.00 248.20" xmlns="http://www.w3.org/2000/svg" xmlns:xlink="http://www.w3.org/1999/xlink">
<g id="graph0" class="graph" transform="scale(1 1) rotate(0) translate(4 244.2)">
<title>oneDegreeRelationshipsDiagramImplied</title>
<polygon fill="#ffffff" stroke="transparent" points="-4,4 -4,-244.2 782,-244.2 782,4 -4,4"/>
<text text-anchor="middle" x="72.4936" y="-7.3" font-family="Helvetica,sans-Serif" font-size="11.00" fill="#000000">Generated by SchemaSpy</text>
<!-- document_template_group -->
<g id="node1" class="node">
<title>document_template_group</title>
<g id="a_node1"><a xlink:href="../../tables/document_template_group.html" xlink:title="document_template_group" target="_top">
<polygon fill="#ffffff" stroke="transparent" points="551,-128.2 551,-236.2 770,-236.2 770,-128.2 551,-128.2"/>
<polygon fill="#f5f5f5" stroke="transparent" points="551.5,-213.2 551.5,-236.2 770.5,-236.2 770.5,-213.2 551.5,-213.2"/>
<polygon fill="none" stroke="#000000" points="551.5,-213.2 551.5,-236.2 770.5,-236.2 770.5,-213.2 551.5,-213.2"/>
<text text-anchor="start" x="556.5" y="-221.8" font-family="Helvetica,sans-Serif" font-weight="bold" font-size="11.00" fill="#000000">document_template_group</text>
<text text-anchor="start" x="736.0219" y="-221.3" font-family="Helvetica,sans-Serif" font-size="11.00" fill="#000000">[table]</text>
<polygon fill="none" stroke="#000000" points="551.5,-191.2 551.5,-213.2 770.5,-213.2 770.5,-191.2 551.5,-191.2"/>
<image xlink:href="../../images/primaryKeys.png" width="11px" height="12px" preserveAspectRatio="xMinYMin meet" x="556.5" y="-208.2"/>
<text text-anchor="start" x="580.5" y="-198.3" font-family="Helvetica,sans-Serif" font-size="11.00" fill="#000000">id</text>
<polygon fill="#ffffff" stroke="transparent" points="551.5,-169.2 551.5,-191.2 770.5,-191.2 770.5,-169.2 551.5,-169.2"/>
<polygon fill="none" stroke="#000000" points="551.5,-169.2 551.5,-191.2 770.5,-191.2 770.5,-169.2 551.5,-169.2"/>
<image xlink:href="../../images/foreignKeys.png" width="11px" height="12px" preserveAspectRatio="xMinYMin meet" x="556.5" y="-186.2"/>
<text text-anchor="start" x="580.5" y="-176.3" font-family="Helvetica,sans-Serif" font-size="11.00" fill="#000000">template_id</text>
<polygon fill="#ffffff" stroke="transparent" points="551.5,-147.2 551.5,-169.2 770.5,-169.2 770.5,-147.2 551.5,-147.2"/>
<polygon fill="none" stroke="#000000" points="551.5,-147.2 551.5,-169.2 770.5,-169.2 770.5,-147.2 551.5,-147.2"/>
<image xlink:href="../../images/foreignKeys.png" width="11px" height="12px" preserveAspectRatio="xMinYMin meet" x="556.5" y="-164.2"/>
<text text-anchor="start" x="580.5" y="-154.3" font-family="Helvetica,sans-Serif" font-size="11.00" fill="#000000">template_group_id</text>
<polygon fill="#ffffff" stroke="transparent" points="551.5,-128.2 551.5,-147.2 659.5,-147.2 659.5,-128.2 551.5,-128.2"/>
<polygon fill="none" stroke="#000000" points="551.5,-128.2 551.5,-147.2 659.5,-147.2 659.5,-128.2 551.5,-128.2"/>
<text text-anchor="start" x="554.5" y="-134.3" font-family="Helvetica,sans-Serif" font-size="11.00" fill="#000000">&lt; 2</text>
<polygon fill="#ffffff" stroke="transparent" points="659.5,-128.2 659.5,-147.2 714.5,-147.2 714.5,-128.2 659.5,-128.2"/>
<polygon fill="none" stroke="#000000" points="659.5,-128.2 659.5,-147.2 714.5,-147.2 714.5,-128.2 659.5,-128.2"/>
<text text-anchor="start" x="705.3862" y="-134.3" font-family="Helvetica,sans-Serif" font-size="11.00" fill="#000000"> &#160;</text>
<polygon fill="#ffffff" stroke="transparent" points="714.5,-128.2 714.5,-147.2 770.5,-147.2 770.5,-128.2 714.5,-128.2"/>
<polygon fill="none" stroke="#000000" points="714.5,-128.2 714.5,-147.2 770.5,-147.2 770.5,-128.2 714.5,-128.2"/>
<text text-anchor="start" x="761.3862" y="-134.3" font-family="Helvetica,sans-Serif" font-size="11.00" fill="#000000"> &#160;</text>
</a>
</g>
</g>
<!-- template_group -->
<g id="node2" class="node">
<title>template_group</title>
<g id="a_node2"><a xlink:href="../../tables/template_group.html" xlink:title="template_group" target="_top">
<polygon fill="#ffffff" stroke="transparent" points="274,-38.2 274,-194.2 502,-194.2 502,-38.2 274,-38.2"/>
<polygon fill="#f5f5f5" stroke="transparent" points="276,-169.2 276,-192.2 500,-192.2 500,-169.2 276,-169.2"/>
<polygon fill="none" stroke="#000000" points="276,-169.2 276,-192.2 500,-192.2 500,-169.2 276,-169.2"/>
<text text-anchor="start" x="281" y="-177.8" font-family="Helvetica,sans-Serif" font-weight="bold" font-size="11.00" fill="#000000">template_group</text>
<text text-anchor="start" x="465.0437" y="-177.3" font-family="Helvetica,sans-Serif" font-size="11.00" fill="#000000">[table]</text>
<polygon fill="none" stroke="#000000" points="276,-147.2 276,-169.2 403,-169.2 403,-147.2 276,-147.2"/>
<image xlink:href="../../images/primaryKeys.png" width="11px" height="12px" preserveAspectRatio="xMinYMin meet" x="281" y="-164.2"/>
<text text-anchor="start" x="296" y="-154.3" font-family="Helvetica,sans-Serif" font-size="11.00" fill="#000000">id</text>
<polygon fill="none" stroke="#000000" points="403,-147.2 403,-169.2 500,-169.2 500,-147.2 403,-147.2"/>
<text text-anchor="start" x="406" y="-154.9" font-family="Helvetica,sans-Serif" font-size="11.00" fill="#000000">uuid[2147483647]</text>
<polygon fill="#ffffff" stroke="transparent" points="276,-125.2 276,-147.2 403,-147.2 403,-125.2 276,-125.2"/>
<polygon fill="none" stroke="#000000" points="276,-125.2 276,-147.2 403,-147.2 403,-125.2 276,-125.2"/>
<image xlink:href="../../images/foreignKeys.png" width="11px" height="12px" preserveAspectRatio="xMinYMin meet" x="281" y="-142.2"/>
<text text-anchor="start" x="296" y="-132.3" font-family="Helvetica,sans-Serif" font-size="11.00" fill="#000000">code</text>
<polygon fill="none" stroke="#000000" points="403,-125.2 403,-147.2 500,-147.2 500,-125.2 403,-125.2"/>
<text text-anchor="start" x="406" y="-132.9" font-family="Helvetica,sans-Serif" font-size="11.00" fill="#000000">text[2147483647]</text>
<polygon fill="none" stroke="#000000" points="276,-103.2 276,-125.2 403,-125.2 403,-103.2 276,-103.2"/>
<text text-anchor="start" x="296" y="-110.3" font-family="Helvetica,sans-Serif" font-size="11.00" fill="#000000">name</text>
<polygon fill="none" stroke="#000000" points="403,-103.2 403,-125.2 500,-125.2 500,-103.2 403,-103.2"/>
<text text-anchor="start" x="406" y="-110.9" font-family="Helvetica,sans-Serif" font-size="11.00" fill="#000000">text[2147483647]</text>
<polygon fill="none" stroke="#000000" points="276,-81.2 276,-103.2 403,-103.2 403,-81.2 276,-81.2"/>
<text text-anchor="start" x="296" y="-88.3" font-family="Helvetica,sans-Serif" font-size="11.00" fill="#000000">description</text>
<polygon fill="none" stroke="#000000" points="403,-81.2 403,-103.2 500,-103.2 500,-81.2 403,-81.2"/>
<text text-anchor="start" x="406" y="-88.9" font-family="Helvetica,sans-Serif" font-size="11.00" fill="#000000">text[2147483647]</text>
<polygon fill="none" stroke="#000000" points="276,-59.2 276,-81.2 403,-81.2 403,-59.2 276,-59.2"/>
<text text-anchor="start" x="296" y="-66.3" font-family="Helvetica,sans-Serif" font-size="11.00" fill="#000000">roles</text>
<polygon fill="none" stroke="#000000" points="403,-59.2 403,-81.2 500,-81.2 500,-59.2 403,-59.2"/>
<text text-anchor="start" x="405.9468" y="-66.9" font-family="Helvetica,sans-Serif" font-size="11.00" fill="#000000">_text[2147483647]</text>
<polygon fill="#ffffff" stroke="transparent" points="276,-40.2 276,-59.2 344,-59.2 344,-40.2 276,-40.2"/>
<polygon fill="none" stroke="#000000" points="276,-40.2 276,-59.2 344,-59.2 344,-40.2 276,-40.2"/>
<text text-anchor="start" x="279" y="-46.3" font-family="Helvetica,sans-Serif" font-size="11.00" fill="#000000">&lt; 1</text>
<polygon fill="#ffffff" stroke="transparent" points="344,-40.2 344,-59.2 403,-59.2 403,-40.2 344,-40.2"/>
<polygon fill="none" stroke="#000000" points="344,-40.2 344,-59.2 403,-59.2 403,-40.2 344,-40.2"/>
<text text-anchor="start" x="393.8862" y="-46.3" font-family="Helvetica,sans-Serif" font-size="11.00" fill="#000000"> &#160;</text>
<polygon fill="#ffffff" stroke="transparent" points="403,-40.2 403,-59.2 500,-59.2 500,-40.2 403,-40.2"/>
<polygon fill="none" stroke="#000000" points="403,-40.2 403,-59.2 500,-59.2 500,-40.2 403,-40.2"/>
<text text-anchor="start" x="481.4053" y="-46.3" font-family="Helvetica,sans-Serif" font-size="11.00" fill="#000000">1 &gt;</text>
<polygon fill="none" stroke="#000000" stroke-width="2" points="275,-39.2 275,-193.2 501,-193.2 501,-39.2 275,-39.2"/>
</a>
</g>
</g>
<!-- document_template_group&#45;&gt;template_group -->
<g id="edge1" class="edge">
<title>document_template_group:w&#45;&gt;template_group:e</title>
<path fill="none" stroke="#000000" d="M537.0156,-158.2C524.6771,-158.2 517.1667,-158.2 500,-158.2"/>
<polygon fill="#000000" stroke="#000000" points="543.5,-158.2001 551.5,-161.8 547.5,-158.2 551.5,-158.2 551.5,-158.2 551.5,-158.2 547.5,-158.2 551.5,-154.6 543.5,-158.2001 543.5,-158.2001"/>
<ellipse fill="none" stroke="#000000" cx="540.3" cy="-158.2001" rx="3.2" ry="3.2"/>
</g>
<!-- template_variable_domain -->
<g id="node3" class="node">
<title>template_variable_domain</title>
<g id="a_node3"><a xlink:href="../../tables/template_variable_domain.html" xlink:title="template_variable_domain" target="_top">
<polygon fill="#ffffff" stroke="transparent" points="8,-65.7 8,-170.7 225,-170.7 225,-65.7 8,-65.7"/>
<polygon fill="#f5f5f5" stroke="transparent" points="8.5,-147.2 8.5,-170.2 225.5,-170.2 225.5,-147.2 8.5,-147.2"/>
<polygon fill="none" stroke="#000000" points="8.5,-147.2 8.5,-170.2 225.5,-170.2 225.5,-147.2 8.5,-147.2"/>
<text text-anchor="start" x="13.5" y="-155.8" font-family="Helvetica,sans-Serif" font-weight="bold" font-size="11.00" fill="#000000">template_variable_domain</text>
<text text-anchor="start" x="191.0219" y="-155.3" font-family="Helvetica,sans-Serif" font-size="11.00" fill="#000000">[table]</text>
<polygon fill="none" stroke="#000000" points="8.5,-125.2 8.5,-147.2 225.5,-147.2 225.5,-125.2 8.5,-125.2"/>
<image xlink:href="../../images/primaryKeys.png" width="11px" height="12px" preserveAspectRatio="xMinYMin meet" x="13.5" y="-142.2"/>
<text text-anchor="start" x="37.5" y="-132.3" font-family="Helvetica,sans-Serif" font-size="11.00" fill="#000000">code</text>
<polygon fill="#ffffff" stroke="transparent" points="8.5,-103.2 8.5,-125.2 225.5,-125.2 225.5,-103.2 8.5,-103.2"/>
<polygon fill="none" stroke="#000000" points="8.5,-103.2 8.5,-125.2 225.5,-125.2 225.5,-103.2 8.5,-103.2"/>
<text text-anchor="start" x="37.5" y="-110.3" font-family="Helvetica,sans-Serif" font-size="11.00" fill="#000000">sequence_number</text>
<polygon fill="none" stroke="#000000" points="8.5,-84.2 8.5,-103.2 225.5,-103.2 225.5,-84.2 8.5,-84.2"/>
<text text-anchor="start" x="11.5" y="-90.3" font-family="Helvetica,sans-Serif" font-size="11.00" fill="#000000">...</text>
<polygon fill="#ffffff" stroke="transparent" points="8.5,-65.2 8.5,-84.2 106.5,-84.2 106.5,-65.2 8.5,-65.2"/>
<polygon fill="none" stroke="#000000" points="8.5,-65.2 8.5,-84.2 106.5,-84.2 106.5,-65.2 8.5,-65.2"/>
<text text-anchor="start" x="11.5" y="-71.3" font-family="Helvetica,sans-Serif" font-size="11.00" fill="#000000"> &#160;</text>
<polygon fill="#ffffff" stroke="transparent" points="106.5,-65.2 106.5,-84.2 161.5,-84.2 161.5,-65.2 106.5,-65.2"/>
<polygon fill="none" stroke="#000000" points="106.5,-65.2 106.5,-84.2 161.5,-84.2 161.5,-65.2 106.5,-65.2"/>
<text text-anchor="start" x="152.3862" y="-71.3" font-family="Helvetica,sans-Serif" font-size="11.00" fill="#000000"> &#160;</text>
<polygon fill="#ffffff" stroke="transparent" points="161.5,-65.2 161.5,-84.2 225.5,-84.2 225.5,-65.2 161.5,-65.2"/>
<polygon fill="none" stroke="#000000" points="161.5,-65.2 161.5,-84.2 225.5,-84.2 225.5,-65.2 161.5,-65.2"/>
<text text-anchor="start" x="206.9053" y="-71.3" font-family="Helvetica,sans-Serif" font-size="11.00" fill="#000000">4 &gt;</text>
</a>
</g>
</g>
<!-- template_group&#45;&gt;template_variable_domain -->
<g id="edge2" class="edge">
<title>template_group:w&#45;&gt;template_variable_domain:e</title>
<path fill="none" stroke="#000000" stroke-dasharray="5,2" d="M265.3362,-136.2C250.9956,-136.2 243.9115,-136.2 225.5,-136.2"/>
<polygon fill="#000000" stroke="#000000" points="275.2,-132.2 275.2,-140.2 273.6,-140.2 273.6,-132.2 275.2,-132.2"/>
<polyline fill="none" stroke="#000000" points="276,-136.2 272,-136.2 "/>
<ellipse fill="none" stroke="#000000" cx="268.8" cy="-136.2001" rx="3.2" ry="3.2"/>
</g>
</g>
</svg>
