<?xml version="1.0" encoding="UTF-8" standalone="no"?>
<!DOCTYPE svg PUBLIC "-//W3C//DTD SVG 1.1//EN"
 "http://www.w3.org/Graphics/SVG/1.1/DTD/svg11.dtd">
<!-- Generated by graphviz version 2.40.1 (20161225.0304)
 -->
<!-- Title: twoDegreesRelationshipsDiagramImplied Pages: 1 -->
<svg width="783pt" height="431pt"
 viewBox="0.00 0.00 783.00 431.20" xmlns="http://www.w3.org/2000/svg" xmlns:xlink="http://www.w3.org/1999/xlink">
<g id="graph0" class="graph" transform="scale(1 1) rotate(0) translate(4 427.2)">
<title>twoDegreesRelationshipsDiagramImplied</title>
<polygon fill="#ffffff" stroke="transparent" points="-4,4 -4,-427.2 779,-427.2 779,4 -4,4"/>
<text text-anchor="middle" x="72.4936" y="-7.3" font-family="Helvetica,sans-Serif" font-size="11.00" fill="#000000">Generated by SchemaSpy</text>
<!-- document_template -->
<g id="node1" class="node">
<title>document_template</title>
<g id="a_node1"><a xlink:href="../../tables/document_template.html" xlink:title="document_template" target="_top">
<polygon fill="#ffffff" stroke="transparent" points="300,-276.2 300,-337.2 473,-337.2 473,-276.2 300,-276.2"/>
<polygon fill="#f5f5f5" stroke="transparent" points="300.5,-313.7 300.5,-336.7 473.5,-336.7 473.5,-313.7 300.5,-313.7"/>
<polygon fill="none" stroke="#000000" points="300.5,-313.7 300.5,-336.7 473.5,-336.7 473.5,-313.7 300.5,-313.7"/>
<text text-anchor="start" x="305.5" y="-322.3" font-family="Helvetica,sans-Serif" font-weight="bold" font-size="11.00" fill="#000000">document_template</text>
<text text-anchor="start" x="439.0219" y="-321.8" font-family="Helvetica,sans-Serif" font-size="11.00" fill="#000000">[table]</text>
<polygon fill="none" stroke="#000000" points="300.5,-294.7 300.5,-313.7 473.5,-313.7 473.5,-294.7 300.5,-294.7"/>
<text text-anchor="start" x="303.5" y="-300.8" font-family="Helvetica,sans-Serif" font-size="11.00" fill="#000000">...</text>
<polygon fill="#ffffff" stroke="transparent" points="300.5,-275.7 300.5,-294.7 380.5,-294.7 380.5,-275.7 300.5,-275.7"/>
<polygon fill="none" stroke="#000000" points="300.5,-275.7 300.5,-294.7 380.5,-294.7 380.5,-275.7 300.5,-275.7"/>
<text text-anchor="start" x="303.5" y="-281.8" font-family="Helvetica,sans-Serif" font-size="11.00" fill="#000000">&lt; 1</text>
<polygon fill="#ffffff" stroke="transparent" points="380.5,-275.7 380.5,-294.7 422.5,-294.7 422.5,-275.7 380.5,-275.7"/>
<polygon fill="none" stroke="#000000" points="380.5,-275.7 380.5,-294.7 422.5,-294.7 422.5,-275.7 380.5,-275.7"/>
<text text-anchor="start" x="413.3862" y="-281.8" font-family="Helvetica,sans-Serif" font-size="11.00" fill="#000000"> &#160;</text>
<polygon fill="#ffffff" stroke="transparent" points="422.5,-275.7 422.5,-294.7 473.5,-294.7 473.5,-275.7 422.5,-275.7"/>
<polygon fill="none" stroke="#000000" points="422.5,-275.7 422.5,-294.7 473.5,-294.7 473.5,-275.7 422.5,-275.7"/>
<text text-anchor="start" x="454.9053" y="-281.8" font-family="Helvetica,sans-Serif" font-size="11.00" fill="#000000">3 &gt;</text>
</a>
</g>
</g>
<!-- template_variable_domain -->
<g id="node2" class="node">
<title>template_variable_domain</title>
<g id="a_node2"><a xlink:href="../../tables/template_variable_domain.html" xlink:title="template_variable_domain" target="_top">
<polygon fill="#ffffff" stroke="transparent" points="8,-179.2 8,-284.2 225,-284.2 225,-179.2 8,-179.2"/>
<polygon fill="#f5f5f5" stroke="transparent" points="8.5,-260.7 8.5,-283.7 225.5,-283.7 225.5,-260.7 8.5,-260.7"/>
<polygon fill="none" stroke="#000000" points="8.5,-260.7 8.5,-283.7 225.5,-283.7 225.5,-260.7 8.5,-260.7"/>
<text text-anchor="start" x="13.5" y="-269.3" font-family="Helvetica,sans-Serif" font-weight="bold" font-size="11.00" fill="#000000">template_variable_domain</text>
<text text-anchor="start" x="191.0219" y="-268.8" font-family="Helvetica,sans-Serif" font-size="11.00" fill="#000000">[table]</text>
<polygon fill="none" stroke="#000000" points="8.5,-238.7 8.5,-260.7 225.5,-260.7 225.5,-238.7 8.5,-238.7"/>
<image xlink:href="../../images/primaryKeys.png" width="11px" height="12px" preserveAspectRatio="xMinYMin meet" x="13.5" y="-255.7"/>
<text text-anchor="start" x="37.5" y="-245.8" font-family="Helvetica,sans-Serif" font-size="11.00" fill="#000000">code</text>
<polygon fill="#ffffff" stroke="transparent" points="8.5,-216.7 8.5,-238.7 225.5,-238.7 225.5,-216.7 8.5,-216.7"/>
<polygon fill="none" stroke="#000000" points="8.5,-216.7 8.5,-238.7 225.5,-238.7 225.5,-216.7 8.5,-216.7"/>
<text text-anchor="start" x="37.5" y="-223.8" font-family="Helvetica,sans-Serif" font-size="11.00" fill="#000000">sequence_number</text>
<polygon fill="none" stroke="#000000" points="8.5,-197.7 8.5,-216.7 225.5,-216.7 225.5,-197.7 8.5,-197.7"/>
<text text-anchor="start" x="11.5" y="-203.8" font-family="Helvetica,sans-Serif" font-size="11.00" fill="#000000">...</text>
<polygon fill="#ffffff" stroke="transparent" points="8.5,-178.7 8.5,-197.7 106.5,-197.7 106.5,-178.7 8.5,-178.7"/>
<polygon fill="none" stroke="#000000" points="8.5,-178.7 8.5,-197.7 106.5,-197.7 106.5,-178.7 8.5,-178.7"/>
<text text-anchor="start" x="11.5" y="-184.8" font-family="Helvetica,sans-Serif" font-size="11.00" fill="#000000"> &#160;</text>
<polygon fill="#ffffff" stroke="transparent" points="106.5,-178.7 106.5,-197.7 161.5,-197.7 161.5,-178.7 106.5,-178.7"/>
<polygon fill="none" stroke="#000000" points="106.5,-178.7 106.5,-197.7 161.5,-197.7 161.5,-178.7 106.5,-178.7"/>
<text text-anchor="start" x="152.3862" y="-184.8" font-family="Helvetica,sans-Serif" font-size="11.00" fill="#000000"> &#160;</text>
<polygon fill="#ffffff" stroke="transparent" points="161.5,-178.7 161.5,-197.7 225.5,-197.7 225.5,-178.7 161.5,-178.7"/>
<polygon fill="none" stroke="#000000" points="161.5,-178.7 161.5,-197.7 225.5,-197.7 225.5,-178.7 161.5,-178.7"/>
<text text-anchor="start" x="206.9053" y="-184.8" font-family="Helvetica,sans-Serif" font-size="11.00" fill="#000000">4 &gt;</text>
</a>
</g>
</g>
<!-- document_template&#45;&gt;template_variable_domain -->
<g id="edge1" class="edge">
<title>document_template:w&#45;&gt;template_variable_domain:e</title>
<path fill="none" stroke="#000000" stroke-dasharray="5,2" d="M290.1399,-302.3652C260.3421,-294.0496 262.7237,-249.7 225.5,-249.7"/>
<polygon fill="#000000" stroke="#000000" points="300.2177,-299.6306 299.1954,-307.565 297.6085,-307.3605 298.6309,-299.4261 300.2177,-299.6306"/>
<polyline fill="none" stroke="#000000" points="300.5,-303.7 296.5328,-303.1888 "/>
<ellipse fill="none" stroke="#000000" cx="293.359" cy="-302.7799" rx="3.2" ry="3.2"/>
</g>
<!-- document_template_audit -->
<g id="node3" class="node">
<title>document_template_audit</title>
<g id="a_node3"><a xlink:href="../../tables/document_template_audit.html" xlink:title="document_template_audit" target="_top">
<polygon fill="#ffffff" stroke="transparent" points="279.5,-358.2 279.5,-419.2 493.5,-419.2 493.5,-358.2 279.5,-358.2"/>
<polygon fill="#f5f5f5" stroke="transparent" points="279.5,-395.7 279.5,-418.7 493.5,-418.7 493.5,-395.7 279.5,-395.7"/>
<polygon fill="none" stroke="#000000" points="279.5,-395.7 279.5,-418.7 493.5,-418.7 493.5,-395.7 279.5,-395.7"/>
<text text-anchor="start" x="284.5" y="-404.3" font-family="Helvetica,sans-Serif" font-weight="bold" font-size="11.00" fill="#000000">document_template_audit</text>
<text text-anchor="start" x="459.0219" y="-403.8" font-family="Helvetica,sans-Serif" font-size="11.00" fill="#000000">[table]</text>
<polygon fill="none" stroke="#000000" points="279.5,-376.7 279.5,-395.7 493.5,-395.7 493.5,-376.7 279.5,-376.7"/>
<text text-anchor="start" x="282.5" y="-382.8" font-family="Helvetica,sans-Serif" font-size="11.00" fill="#000000">...</text>
<polygon fill="#ffffff" stroke="transparent" points="279.5,-357.7 279.5,-376.7 384.5,-376.7 384.5,-357.7 279.5,-357.7"/>
<polygon fill="none" stroke="#000000" points="279.5,-357.7 279.5,-376.7 384.5,-376.7 384.5,-357.7 279.5,-357.7"/>
<text text-anchor="start" x="282.5" y="-363.8" font-family="Helvetica,sans-Serif" font-size="11.00" fill="#000000">&lt; 2</text>
<polygon fill="#ffffff" stroke="transparent" points="384.5,-357.7 384.5,-376.7 438.5,-376.7 438.5,-357.7 384.5,-357.7"/>
<polygon fill="none" stroke="#000000" points="384.5,-357.7 384.5,-376.7 438.5,-376.7 438.5,-357.7 384.5,-357.7"/>
<text text-anchor="start" x="429.3862" y="-363.8" font-family="Helvetica,sans-Serif" font-size="11.00" fill="#000000"> &#160;</text>
<polygon fill="#ffffff" stroke="transparent" points="438.5,-357.7 438.5,-376.7 493.5,-376.7 493.5,-357.7 438.5,-357.7"/>
<polygon fill="none" stroke="#000000" points="438.5,-357.7 438.5,-376.7 493.5,-376.7 493.5,-357.7 438.5,-357.7"/>
<text text-anchor="start" x="484.3862" y="-363.8" font-family="Helvetica,sans-Serif" font-size="11.00" fill="#000000"> &#160;</text>
</a>
</g>
</g>
<!-- document_template_audit&#45;&gt;template_variable_domain -->
<g id="edge2" class="edge">
<title>document_template_audit:w&#45;&gt;template_variable_domain:e</title>
<path fill="none" stroke="#000000" stroke-dasharray="5,2" d="M265.1834,-382.6039C226.9949,-362.3603 284.6919,-249.7 225.5,-249.7"/>
<polygon fill="#000000" stroke="#000000" points="271.6808,-384.009 278.739,-389.2187 275.5904,-384.8545 279.5,-385.7 279.5,-385.7 279.5,-385.7 275.5904,-384.8545 280.261,-382.1813 271.6808,-384.009 271.6808,-384.009"/>
<ellipse fill="none" stroke="#000000" cx="268.5531" cy="-383.3326" rx="3.2" ry="3.2"/>
</g>
<!-- document_template_group -->
<g id="node4" class="node">
<title>document_template_group</title>
<g id="a_node4"><a xlink:href="../../tables/document_template_group.html" xlink:title="document_template_group" target="_top">
<polygon fill="#ffffff" stroke="transparent" points="548,-219.7 548,-327.7 767,-327.7 767,-219.7 548,-219.7"/>
<polygon fill="#f5f5f5" stroke="transparent" points="548.5,-304.7 548.5,-327.7 767.5,-327.7 767.5,-304.7 548.5,-304.7"/>
<polygon fill="none" stroke="#000000" points="548.5,-304.7 548.5,-327.7 767.5,-327.7 767.5,-304.7 548.5,-304.7"/>
<text text-anchor="start" x="553.5" y="-313.3" font-family="Helvetica,sans-Serif" font-weight="bold" font-size="11.00" fill="#000000">document_template_group</text>
<text text-anchor="start" x="733.0219" y="-312.8" font-family="Helvetica,sans-Serif" font-size="11.00" fill="#000000">[table]</text>
<polygon fill="none" stroke="#000000" points="548.5,-282.7 548.5,-304.7 767.5,-304.7 767.5,-282.7 548.5,-282.7"/>
<image xlink:href="../../images/primaryKeys.png" width="11px" height="12px" preserveAspectRatio="xMinYMin meet" x="553.5" y="-299.7"/>
<text text-anchor="start" x="577.5" y="-289.8" font-family="Helvetica,sans-Serif" font-size="11.00" fill="#000000">id</text>
<polygon fill="#ffffff" stroke="transparent" points="548.5,-260.7 548.5,-282.7 767.5,-282.7 767.5,-260.7 548.5,-260.7"/>
<polygon fill="none" stroke="#000000" points="548.5,-260.7 548.5,-282.7 767.5,-282.7 767.5,-260.7 548.5,-260.7"/>
<image xlink:href="../../images/foreignKeys.png" width="11px" height="12px" preserveAspectRatio="xMinYMin meet" x="553.5" y="-277.7"/>
<text text-anchor="start" x="577.5" y="-267.8" font-family="Helvetica,sans-Serif" font-size="11.00" fill="#000000">template_id</text>
<polygon fill="#ffffff" stroke="transparent" points="548.5,-238.7 548.5,-260.7 767.5,-260.7 767.5,-238.7 548.5,-238.7"/>
<polygon fill="none" stroke="#000000" points="548.5,-238.7 548.5,-260.7 767.5,-260.7 767.5,-238.7 548.5,-238.7"/>
<image xlink:href="../../images/foreignKeys.png" width="11px" height="12px" preserveAspectRatio="xMinYMin meet" x="553.5" y="-255.7"/>
<text text-anchor="start" x="577.5" y="-245.8" font-family="Helvetica,sans-Serif" font-size="11.00" fill="#000000">template_group_id</text>
<polygon fill="#ffffff" stroke="transparent" points="548.5,-219.7 548.5,-238.7 656.5,-238.7 656.5,-219.7 548.5,-219.7"/>
<polygon fill="none" stroke="#000000" points="548.5,-219.7 548.5,-238.7 656.5,-238.7 656.5,-219.7 548.5,-219.7"/>
<text text-anchor="start" x="551.5" y="-225.8" font-family="Helvetica,sans-Serif" font-size="11.00" fill="#000000">&lt; 2</text>
<polygon fill="#ffffff" stroke="transparent" points="656.5,-219.7 656.5,-238.7 711.5,-238.7 711.5,-219.7 656.5,-219.7"/>
<polygon fill="none" stroke="#000000" points="656.5,-219.7 656.5,-238.7 711.5,-238.7 711.5,-219.7 656.5,-219.7"/>
<text text-anchor="start" x="702.3862" y="-225.8" font-family="Helvetica,sans-Serif" font-size="11.00" fill="#000000"> &#160;</text>
<polygon fill="#ffffff" stroke="transparent" points="711.5,-219.7 711.5,-238.7 767.5,-238.7 767.5,-219.7 711.5,-219.7"/>
<polygon fill="none" stroke="#000000" points="711.5,-219.7 711.5,-238.7 767.5,-238.7 767.5,-219.7 711.5,-219.7"/>
<text text-anchor="start" x="758.3862" y="-225.8" font-family="Helvetica,sans-Serif" font-size="11.00" fill="#000000"> &#160;</text>
</a>
</g>
</g>
<!-- document_template_group&#45;&gt;document_template -->
<g id="edge4" class="edge">
<title>document_template_group:w&#45;&gt;document_template:e</title>
<path fill="none" stroke="#000000" d="M534.0464,-273.7017C510.7093,-280.7073 504.2196,-303.7 473.5,-303.7"/>
<polygon fill="#000000" stroke="#000000" points="540.5756,-272.7975 548.9939,-275.266 544.5378,-272.2488 548.5,-271.7 548.5,-271.7 548.5,-271.7 544.5378,-272.2488 548.0061,-268.134 540.5756,-272.7975 540.5756,-272.7975"/>
<ellipse fill="none" stroke="#000000" cx="537.4059" cy="-273.2365" rx="3.2" ry="3.2"/>
</g>
<!-- template_group -->
<g id="node5" class="node">
<title>template_group</title>
<g id="a_node5"><a xlink:href="../../tables/template_group.html" xlink:title="template_group" target="_top">
<polygon fill="#ffffff" stroke="transparent" points="274,-120.7 274,-254.7 499,-254.7 499,-120.7 274,-120.7"/>
<polygon fill="#f5f5f5" stroke="transparent" points="276.5,-229.7 276.5,-252.7 497.5,-252.7 497.5,-229.7 276.5,-229.7"/>
<polygon fill="none" stroke="#000000" points="276.5,-229.7 276.5,-252.7 497.5,-252.7 497.5,-229.7 276.5,-229.7"/>
<text text-anchor="start" x="281.5" y="-238.3" font-family="Helvetica,sans-Serif" font-weight="bold" font-size="11.00" fill="#000000">template_group</text>
<text text-anchor="start" x="462.5437" y="-237.8" font-family="Helvetica,sans-Serif" font-size="11.00" fill="#000000">[table]</text>
<polygon fill="none" stroke="#000000" points="276.5,-207.7 276.5,-229.7 403.5,-229.7 403.5,-207.7 276.5,-207.7"/>
<image xlink:href="../../images/primaryKeys.png" width="11px" height="12px" preserveAspectRatio="xMinYMin meet" x="281.5" y="-224.7"/>
<text text-anchor="start" x="296.5" y="-214.8" font-family="Helvetica,sans-Serif" font-size="11.00" fill="#000000">id</text>
<polygon fill="none" stroke="#000000" points="403.5,-207.7 403.5,-229.7 497.5,-229.7 497.5,-207.7 403.5,-207.7"/>
<text text-anchor="start" x="406.4758" y="-215.4" font-family="Helvetica,sans-Serif" font-size="11.00" fill="#000000">uuid[2147483647]</text>
<polygon fill="#ffffff" stroke="transparent" points="276.5,-185.7 276.5,-207.7 403.5,-207.7 403.5,-185.7 276.5,-185.7"/>
<polygon fill="none" stroke="#000000" points="276.5,-185.7 276.5,-207.7 403.5,-207.7 403.5,-185.7 276.5,-185.7"/>
<image xlink:href="../../images/foreignKeys.png" width="11px" height="12px" preserveAspectRatio="xMinYMin meet" x="281.5" y="-202.7"/>
<text text-anchor="start" x="296.5" y="-192.8" font-family="Helvetica,sans-Serif" font-size="11.00" fill="#000000">code</text>
<polygon fill="none" stroke="#000000" points="403.5,-185.7 403.5,-207.7 497.5,-207.7 497.5,-185.7 403.5,-185.7"/>
<text text-anchor="start" x="406.5" y="-193.4" font-family="Helvetica,sans-Serif" font-size="11.00" fill="#000000">text[2147483647]</text>
<polygon fill="none" stroke="#000000" points="276.5,-163.7 276.5,-185.7 403.5,-185.7 403.5,-163.7 276.5,-163.7"/>
<text text-anchor="start" x="296.5" y="-170.8" font-family="Helvetica,sans-Serif" font-size="11.00" fill="#000000">name</text>
<polygon fill="none" stroke="#000000" points="403.5,-163.7 403.5,-185.7 497.5,-185.7 497.5,-163.7 403.5,-163.7"/>
<text text-anchor="start" x="406.5" y="-171.4" font-family="Helvetica,sans-Serif" font-size="11.00" fill="#000000">text[2147483647]</text>
<polygon fill="none" stroke="#000000" points="276.5,-141.7 276.5,-163.7 403.5,-163.7 403.5,-141.7 276.5,-141.7"/>
<text text-anchor="start" x="296.5" y="-148.8" font-family="Helvetica,sans-Serif" font-size="11.00" fill="#000000">description</text>
<polygon fill="none" stroke="#000000" points="403.5,-141.7 403.5,-163.7 497.5,-163.7 497.5,-141.7 403.5,-141.7"/>
<text text-anchor="start" x="406.5" y="-149.4" font-family="Helvetica,sans-Serif" font-size="11.00" fill="#000000">text[2147483647]</text>
<polygon fill="#ffffff" stroke="transparent" points="276.5,-122.7 276.5,-141.7 344.5,-141.7 344.5,-122.7 276.5,-122.7"/>
<polygon fill="none" stroke="#000000" points="276.5,-122.7 276.5,-141.7 344.5,-141.7 344.5,-122.7 276.5,-122.7"/>
<text text-anchor="start" x="279.5" y="-128.8" font-family="Helvetica,sans-Serif" font-size="11.00" fill="#000000">&lt; 1</text>
<polygon fill="#ffffff" stroke="transparent" points="344.5,-122.7 344.5,-141.7 403.5,-141.7 403.5,-122.7 344.5,-122.7"/>
<polygon fill="none" stroke="#000000" points="344.5,-122.7 344.5,-141.7 403.5,-141.7 403.5,-122.7 344.5,-122.7"/>
<text text-anchor="start" x="394.3862" y="-128.8" font-family="Helvetica,sans-Serif" font-size="11.00" fill="#000000"> &#160;</text>
<polygon fill="#ffffff" stroke="transparent" points="403.5,-122.7 403.5,-141.7 497.5,-141.7 497.5,-122.7 403.5,-122.7"/>
<polygon fill="none" stroke="#000000" points="403.5,-122.7 403.5,-141.7 497.5,-141.7 497.5,-122.7 403.5,-122.7"/>
<text text-anchor="start" x="478.9053" y="-128.8" font-family="Helvetica,sans-Serif" font-size="11.00" fill="#000000">1 &gt;</text>
<polygon fill="none" stroke="#000000" stroke-width="2" points="275,-121.7 275,-253.7 498,-253.7 498,-121.7 275,-121.7"/>
</a>
</g>
</g>
<!-- document_template_group&#45;&gt;template_group -->
<g id="edge3" class="edge">
<title>document_template_group:w&#45;&gt;template_group:e</title>
<path fill="none" stroke="#000000" d="M534.5967,-245.8988C521.5044,-237.6209 518.2231,-218.7 497.5,-218.7"/>
<polygon fill="#000000" stroke="#000000" points="540.7832,-247.5902 547.5506,-253.1726 544.6416,-248.6451 548.5,-249.7 548.5,-249.7 548.5,-249.7 544.6416,-248.6451 549.4494,-246.2274 540.7832,-247.5902 540.7832,-247.5902"/>
<ellipse fill="none" stroke="#000000" cx="537.6965" cy="-246.7462" rx="3.2" ry="3.2"/>
</g>
<!-- template_group&#45;&gt;template_variable_domain -->
<g id="edge5" class="edge">
<title>template_group:w&#45;&gt;template_variable_domain:e</title>
<path fill="none" stroke="#000000" stroke-dasharray="5,2" d="M266.2638,-198.9773C246.6695,-209.1219 254.1038,-249.7 225.5,-249.7"/>
<polygon fill="#000000" stroke="#000000" points="274.8504,-192.9692 276.5878,-200.7783 275.026,-201.1258 273.2886,-193.3167 274.8504,-192.9692"/>
<polyline fill="none" stroke="#000000" points="276.5,-196.7 272.5955,-197.5687 "/>
<ellipse fill="none" stroke="#000000" cx="269.4718" cy="-198.2637" rx="3.2" ry="3.2"/>
</g>
<!-- template_variable -->
<g id="node6" class="node">
<title>template_variable</title>
<g id="a_node6"><a xlink:href="../../tables/template_variable.html" xlink:title="template_variable" target="_top">
<polygon fill="#ffffff" stroke="transparent" points="306.5,-38.2 306.5,-99.2 466.5,-99.2 466.5,-38.2 306.5,-38.2"/>
<polygon fill="#f5f5f5" stroke="transparent" points="306.5,-75.7 306.5,-98.7 466.5,-98.7 466.5,-75.7 306.5,-75.7"/>
<polygon fill="none" stroke="#000000" points="306.5,-75.7 306.5,-98.7 466.5,-98.7 466.5,-75.7 306.5,-75.7"/>
<text text-anchor="start" x="311.5" y="-84.3" font-family="Helvetica,sans-Serif" font-weight="bold" font-size="11.00" fill="#000000">template_variable</text>
<text text-anchor="start" x="432.0219" y="-83.8" font-family="Helvetica,sans-Serif" font-size="11.00" fill="#000000">[table]</text>
<polygon fill="none" stroke="#000000" points="306.5,-56.7 306.5,-75.7 466.5,-75.7 466.5,-56.7 306.5,-56.7"/>
<text text-anchor="start" x="309.5" y="-62.8" font-family="Helvetica,sans-Serif" font-size="11.00" fill="#000000">...</text>
<polygon fill="#ffffff" stroke="transparent" points="306.5,-37.7 306.5,-56.7 364.5,-56.7 364.5,-37.7 306.5,-37.7"/>
<polygon fill="none" stroke="#000000" points="306.5,-37.7 306.5,-56.7 364.5,-56.7 364.5,-37.7 306.5,-37.7"/>
<text text-anchor="start" x="309.5" y="-43.8" font-family="Helvetica,sans-Serif" font-size="11.00" fill="#000000">&lt; 1</text>
<polygon fill="#ffffff" stroke="transparent" points="364.5,-37.7 364.5,-56.7 426.5,-56.7 426.5,-37.7 364.5,-37.7"/>
<polygon fill="none" stroke="#000000" points="364.5,-37.7 364.5,-56.7 426.5,-56.7 426.5,-37.7 364.5,-37.7"/>
<text text-anchor="start" x="384.9956" y="-43.8" font-family="Helvetica,sans-Serif" font-size="11.00" fill="#000000">33 rows</text>
<polygon fill="#ffffff" stroke="transparent" points="426.5,-37.7 426.5,-56.7 466.5,-56.7 466.5,-37.7 426.5,-37.7"/>
<polygon fill="none" stroke="#000000" points="426.5,-37.7 426.5,-56.7 466.5,-56.7 466.5,-37.7 426.5,-37.7"/>
<text text-anchor="start" x="447.9053" y="-43.8" font-family="Helvetica,sans-Serif" font-size="11.00" fill="#000000">1 &gt;</text>
</a>
</g>
</g>
<!-- template_variable&#45;&gt;template_variable_domain -->
<g id="edge6" class="edge">
<title>template_variable:w&#45;&gt;template_variable_domain:e</title>
<path fill="none" stroke="#000000" d="M292.3505,-68.4978C278.954,-74.9286 276.1875,-91.6064 266,-109.7 234.2209,-166.1419 290.2735,-249.7 225.5,-249.7"/>
<polygon fill="#000000" stroke="#000000" points="298.652,-67.2519 307.1983,-69.2316 302.576,-66.4759 306.5,-65.7 306.5,-65.7 306.5,-65.7 302.576,-66.4759 305.8017,-62.1684 298.652,-67.2519 298.652,-67.2519"/>
<ellipse fill="none" stroke="#000000" cx="295.5127" cy="-67.8726" rx="3.2" ry="3.2"/>
</g>
</g>
</svg>
