<?xml version="1.0" encoding="UTF-8" standalone="no"?>
<!DOCTYPE svg PUBLIC "-//W3C//DTD SVG 1.1//EN"
 "http://www.w3.org/Graphics/SVG/1.1/DTD/svg11.dtd">
<!-- Generated by graphviz version 2.40.1 (20161225.0304)
 -->
<!-- Title: oneDegreeRelationshipsDiagramImplied Pages: 1 -->
<svg width="783pt" height="226pt"
 viewBox="0.00 0.00 783.00 226.20" xmlns="http://www.w3.org/2000/svg" xmlns:xlink="http://www.w3.org/1999/xlink">
<g id="graph0" class="graph" transform="scale(1 1) rotate(0) translate(4 222.2)">
<title>oneDegreeRelationshipsDiagramImplied</title>
<polygon fill="#ffffff" stroke="transparent" points="-4,4 -4,-222.2 779,-222.2 779,4 -4,4"/>
<text text-anchor="middle" x="72.4936" y="-7.3" font-family="Helvetica,sans-Serif" font-size="11.00" fill="#000000">Generated by SchemaSpy</text>
<!-- document_template_group -->
<g id="node1" class="node">
<title>document_template_group</title>
<g id="a_node1"><a xlink:href="../../tables/document_template_group.html" xlink:title="document_template_group" target="_top">
<polygon fill="#ffffff" stroke="transparent" points="548,-106.2 548,-214.2 767,-214.2 767,-106.2 548,-106.2"/>
<polygon fill="#f5f5f5" stroke="transparent" points="548.5,-191.2 548.5,-214.2 767.5,-214.2 767.5,-191.2 548.5,-191.2"/>
<polygon fill="none" stroke="#000000" points="548.5,-191.2 548.5,-214.2 767.5,-214.2 767.5,-191.2 548.5,-191.2"/>
<text text-anchor="start" x="553.5" y="-199.8" font-family="Helvetica,sans-Serif" font-weight="bold" font-size="11.00" fill="#000000">document_template_group</text>
<text text-anchor="start" x="733.0219" y="-199.3" font-family="Helvetica,sans-Serif" font-size="11.00" fill="#000000">[table]</text>
<polygon fill="none" stroke="#000000" points="548.5,-169.2 548.5,-191.2 767.5,-191.2 767.5,-169.2 548.5,-169.2"/>
<image xlink:href="../../images/primaryKeys.png" width="11px" height="12px" preserveAspectRatio="xMinYMin meet" x="553.5" y="-186.2"/>
<text text-anchor="start" x="577.5" y="-176.3" font-family="Helvetica,sans-Serif" font-size="11.00" fill="#000000">id</text>
<polygon fill="#ffffff" stroke="transparent" points="548.5,-147.2 548.5,-169.2 767.5,-169.2 767.5,-147.2 548.5,-147.2"/>
<polygon fill="none" stroke="#000000" points="548.5,-147.2 548.5,-169.2 767.5,-169.2 767.5,-147.2 548.5,-147.2"/>
<image xlink:href="../../images/foreignKeys.png" width="11px" height="12px" preserveAspectRatio="xMinYMin meet" x="553.5" y="-164.2"/>
<text text-anchor="start" x="577.5" y="-154.3" font-family="Helvetica,sans-Serif" font-size="11.00" fill="#000000">template_id</text>
<polygon fill="#ffffff" stroke="transparent" points="548.5,-125.2 548.5,-147.2 767.5,-147.2 767.5,-125.2 548.5,-125.2"/>
<polygon fill="none" stroke="#000000" points="548.5,-125.2 548.5,-147.2 767.5,-147.2 767.5,-125.2 548.5,-125.2"/>
<image xlink:href="../../images/foreignKeys.png" width="11px" height="12px" preserveAspectRatio="xMinYMin meet" x="553.5" y="-142.2"/>
<text text-anchor="start" x="577.5" y="-132.3" font-family="Helvetica,sans-Serif" font-size="11.00" fill="#000000">template_group_id</text>
<polygon fill="#ffffff" stroke="transparent" points="548.5,-106.2 548.5,-125.2 656.5,-125.2 656.5,-106.2 548.5,-106.2"/>
<polygon fill="none" stroke="#000000" points="548.5,-106.2 548.5,-125.2 656.5,-125.2 656.5,-106.2 548.5,-106.2"/>
<text text-anchor="start" x="551.5" y="-112.3" font-family="Helvetica,sans-Serif" font-size="11.00" fill="#000000">&lt; 2</text>
<polygon fill="#ffffff" stroke="transparent" points="656.5,-106.2 656.5,-125.2 711.5,-125.2 711.5,-106.2 656.5,-106.2"/>
<polygon fill="none" stroke="#000000" points="656.5,-106.2 656.5,-125.2 711.5,-125.2 711.5,-106.2 656.5,-106.2"/>
<text text-anchor="start" x="702.3862" y="-112.3" font-family="Helvetica,sans-Serif" font-size="11.00" fill="#000000"> &#160;</text>
<polygon fill="#ffffff" stroke="transparent" points="711.5,-106.2 711.5,-125.2 767.5,-125.2 767.5,-106.2 711.5,-106.2"/>
<polygon fill="none" stroke="#000000" points="711.5,-106.2 711.5,-125.2 767.5,-125.2 767.5,-106.2 711.5,-106.2"/>
<text text-anchor="start" x="758.3862" y="-112.3" font-family="Helvetica,sans-Serif" font-size="11.00" fill="#000000"> &#160;</text>
</a>
</g>
</g>
<!-- template_group -->
<g id="node2" class="node">
<title>template_group</title>
<g id="a_node2"><a xlink:href="../../tables/template_group.html" xlink:title="template_group" target="_top">
<polygon fill="#ffffff" stroke="transparent" points="274,-38.2 274,-172.2 499,-172.2 499,-38.2 274,-38.2"/>
<polygon fill="#f5f5f5" stroke="transparent" points="276.5,-147.2 276.5,-170.2 497.5,-170.2 497.5,-147.2 276.5,-147.2"/>
<polygon fill="none" stroke="#000000" points="276.5,-147.2 276.5,-170.2 497.5,-170.2 497.5,-147.2 276.5,-147.2"/>
<text text-anchor="start" x="281.5" y="-155.8" font-family="Helvetica,sans-Serif" font-weight="bold" font-size="11.00" fill="#000000">template_group</text>
<text text-anchor="start" x="462.5437" y="-155.3" font-family="Helvetica,sans-Serif" font-size="11.00" fill="#000000">[table]</text>
<polygon fill="none" stroke="#000000" points="276.5,-125.2 276.5,-147.2 403.5,-147.2 403.5,-125.2 276.5,-125.2"/>
<image xlink:href="../../images/primaryKeys.png" width="11px" height="12px" preserveAspectRatio="xMinYMin meet" x="281.5" y="-142.2"/>
<text text-anchor="start" x="296.5" y="-132.3" font-family="Helvetica,sans-Serif" font-size="11.00" fill="#000000">id</text>
<polygon fill="none" stroke="#000000" points="403.5,-125.2 403.5,-147.2 497.5,-147.2 497.5,-125.2 403.5,-125.2"/>
<text text-anchor="start" x="406.4758" y="-132.9" font-family="Helvetica,sans-Serif" font-size="11.00" fill="#000000">uuid[2147483647]</text>
<polygon fill="#ffffff" stroke="transparent" points="276.5,-103.2 276.5,-125.2 403.5,-125.2 403.5,-103.2 276.5,-103.2"/>
<polygon fill="none" stroke="#000000" points="276.5,-103.2 276.5,-125.2 403.5,-125.2 403.5,-103.2 276.5,-103.2"/>
<image xlink:href="../../images/foreignKeys.png" width="11px" height="12px" preserveAspectRatio="xMinYMin meet" x="281.5" y="-120.2"/>
<text text-anchor="start" x="296.5" y="-110.3" font-family="Helvetica,sans-Serif" font-size="11.00" fill="#000000">code</text>
<polygon fill="none" stroke="#000000" points="403.5,-103.2 403.5,-125.2 497.5,-125.2 497.5,-103.2 403.5,-103.2"/>
<text text-anchor="start" x="406.5" y="-110.9" font-family="Helvetica,sans-Serif" font-size="11.00" fill="#000000">text[2147483647]</text>
<polygon fill="none" stroke="#000000" points="276.5,-81.2 276.5,-103.2 403.5,-103.2 403.5,-81.2 276.5,-81.2"/>
<text text-anchor="start" x="296.5" y="-88.3" font-family="Helvetica,sans-Serif" font-size="11.00" fill="#000000">name</text>
<polygon fill="none" stroke="#000000" points="403.5,-81.2 403.5,-103.2 497.5,-103.2 497.5,-81.2 403.5,-81.2"/>
<text text-anchor="start" x="406.5" y="-88.9" font-family="Helvetica,sans-Serif" font-size="11.00" fill="#000000">text[2147483647]</text>
<polygon fill="none" stroke="#000000" points="276.5,-59.2 276.5,-81.2 403.5,-81.2 403.5,-59.2 276.5,-59.2"/>
<text text-anchor="start" x="296.5" y="-66.3" font-family="Helvetica,sans-Serif" font-size="11.00" fill="#000000">description</text>
<polygon fill="none" stroke="#000000" points="403.5,-59.2 403.5,-81.2 497.5,-81.2 497.5,-59.2 403.5,-59.2"/>
<text text-anchor="start" x="406.5" y="-66.9" font-family="Helvetica,sans-Serif" font-size="11.00" fill="#000000">text[2147483647]</text>
<polygon fill="#ffffff" stroke="transparent" points="276.5,-40.2 276.5,-59.2 344.5,-59.2 344.5,-40.2 276.5,-40.2"/>
<polygon fill="none" stroke="#000000" points="276.5,-40.2 276.5,-59.2 344.5,-59.2 344.5,-40.2 276.5,-40.2"/>
<text text-anchor="start" x="279.5" y="-46.3" font-family="Helvetica,sans-Serif" font-size="11.00" fill="#000000">&lt; 1</text>
<polygon fill="#ffffff" stroke="transparent" points="344.5,-40.2 344.5,-59.2 403.5,-59.2 403.5,-40.2 344.5,-40.2"/>
<polygon fill="none" stroke="#000000" points="344.5,-40.2 344.5,-59.2 403.5,-59.2 403.5,-40.2 344.5,-40.2"/>
<text text-anchor="start" x="394.3862" y="-46.3" font-family="Helvetica,sans-Serif" font-size="11.00" fill="#000000"> &#160;</text>
<polygon fill="#ffffff" stroke="transparent" points="403.5,-40.2 403.5,-59.2 497.5,-59.2 497.5,-40.2 403.5,-40.2"/>
<polygon fill="none" stroke="#000000" points="403.5,-40.2 403.5,-59.2 497.5,-59.2 497.5,-40.2 403.5,-40.2"/>
<text text-anchor="start" x="478.9053" y="-46.3" font-family="Helvetica,sans-Serif" font-size="11.00" fill="#000000">1 &gt;</text>
<polygon fill="none" stroke="#000000" stroke-width="2" points="275,-39.2 275,-171.2 498,-171.2 498,-39.2 275,-39.2"/>
</a>
</g>
</g>
<!-- document_template_group&#45;&gt;template_group -->
<g id="edge1" class="edge">
<title>document_template_group:w&#45;&gt;template_group:e</title>
<path fill="none" stroke="#000000" d="M533.776,-136.2C521.7815,-136.2 514.3229,-136.2 497.5,-136.2"/>
<polygon fill="#000000" stroke="#000000" points="540.5,-136.2001 548.5,-139.8 544.5,-136.2 548.5,-136.2 548.5,-136.2 548.5,-136.2 544.5,-136.2 548.5,-132.6 540.5,-136.2001 540.5,-136.2001"/>
<ellipse fill="none" stroke="#000000" cx="537.3" cy="-136.2001" rx="3.2" ry="3.2"/>
</g>
<!-- template_variable_domain -->
<g id="node3" class="node">
<title>template_variable_domain</title>
<g id="a_node3"><a xlink:href="../../tables/template_variable_domain.html" xlink:title="template_variable_domain" target="_top">
<polygon fill="#ffffff" stroke="transparent" points="8,-43.7 8,-148.7 225,-148.7 225,-43.7 8,-43.7"/>
<polygon fill="#f5f5f5" stroke="transparent" points="8.5,-125.2 8.5,-148.2 225.5,-148.2 225.5,-125.2 8.5,-125.2"/>
<polygon fill="none" stroke="#000000" points="8.5,-125.2 8.5,-148.2 225.5,-148.2 225.5,-125.2 8.5,-125.2"/>
<text text-anchor="start" x="13.5" y="-133.8" font-family="Helvetica,sans-Serif" font-weight="bold" font-size="11.00" fill="#000000">template_variable_domain</text>
<text text-anchor="start" x="191.0219" y="-133.3" font-family="Helvetica,sans-Serif" font-size="11.00" fill="#000000">[table]</text>
<polygon fill="none" stroke="#000000" points="8.5,-103.2 8.5,-125.2 225.5,-125.2 225.5,-103.2 8.5,-103.2"/>
<image xlink:href="../../images/primaryKeys.png" width="11px" height="12px" preserveAspectRatio="xMinYMin meet" x="13.5" y="-120.2"/>
<text text-anchor="start" x="37.5" y="-110.3" font-family="Helvetica,sans-Serif" font-size="11.00" fill="#000000">code</text>
<polygon fill="#ffffff" stroke="transparent" points="8.5,-81.2 8.5,-103.2 225.5,-103.2 225.5,-81.2 8.5,-81.2"/>
<polygon fill="none" stroke="#000000" points="8.5,-81.2 8.5,-103.2 225.5,-103.2 225.5,-81.2 8.5,-81.2"/>
<text text-anchor="start" x="37.5" y="-88.3" font-family="Helvetica,sans-Serif" font-size="11.00" fill="#000000">sequence_number</text>
<polygon fill="none" stroke="#000000" points="8.5,-62.2 8.5,-81.2 225.5,-81.2 225.5,-62.2 8.5,-62.2"/>
<text text-anchor="start" x="11.5" y="-68.3" font-family="Helvetica,sans-Serif" font-size="11.00" fill="#000000">...</text>
<polygon fill="#ffffff" stroke="transparent" points="8.5,-43.2 8.5,-62.2 106.5,-62.2 106.5,-43.2 8.5,-43.2"/>
<polygon fill="none" stroke="#000000" points="8.5,-43.2 8.5,-62.2 106.5,-62.2 106.5,-43.2 8.5,-43.2"/>
<text text-anchor="start" x="11.5" y="-49.3" font-family="Helvetica,sans-Serif" font-size="11.00" fill="#000000"> &#160;</text>
<polygon fill="#ffffff" stroke="transparent" points="106.5,-43.2 106.5,-62.2 161.5,-62.2 161.5,-43.2 106.5,-43.2"/>
<polygon fill="none" stroke="#000000" points="106.5,-43.2 106.5,-62.2 161.5,-62.2 161.5,-43.2 106.5,-43.2"/>
<text text-anchor="start" x="152.3862" y="-49.3" font-family="Helvetica,sans-Serif" font-size="11.00" fill="#000000"> &#160;</text>
<polygon fill="#ffffff" stroke="transparent" points="161.5,-43.2 161.5,-62.2 225.5,-62.2 225.5,-43.2 161.5,-43.2"/>
<polygon fill="none" stroke="#000000" points="161.5,-43.2 161.5,-62.2 225.5,-62.2 225.5,-43.2 161.5,-43.2"/>
<text text-anchor="start" x="206.9053" y="-49.3" font-family="Helvetica,sans-Serif" font-size="11.00" fill="#000000">5 &gt;</text>
</a>
</g>
</g>
<!-- template_group&#45;&gt;template_variable_domain -->
<g id="edge2" class="edge">
<title>template_group:w&#45;&gt;template_variable_domain:e</title>
<path fill="none" stroke="#000000" stroke-dasharray="5,2" d="M265.7307,-114.2C251.248,-114.2 244.0938,-114.2 225.5,-114.2"/>
<polygon fill="#000000" stroke="#000000" points="275.7,-110.2 275.7,-118.2 274.1,-118.2 274.1,-110.2 275.7,-110.2"/>
<polyline fill="none" stroke="#000000" points="276.5,-114.2 272.5,-114.2 "/>
<ellipse fill="none" stroke="#000000" cx="269.3" cy="-114.2001" rx="3.2" ry="3.2"/>
</g>
</g>
</svg>
