<?xml version="1.0" encoding="UTF-8" standalone="no"?>
<!DOCTYPE svg PUBLIC "-//W3C//DTD SVG 1.1//EN"
 "http://www.w3.org/Graphics/SVG/1.1/DTD/svg11.dtd">
<!-- Generated by graphviz version 2.40.1 (20161225.0304)
 -->
<!-- Title: oneDegreeRelationshipsDiagram Pages: 1 -->
<svg width="520pt" height="248pt"
 viewBox="0.00 0.00 520.00 248.20" xmlns="http://www.w3.org/2000/svg" xmlns:xlink="http://www.w3.org/1999/xlink">
<g id="graph0" class="graph" transform="scale(1 1) rotate(0) translate(4 244.2)">
<title>oneDegreeRelationshipsDiagram</title>
<polygon fill="#ffffff" stroke="transparent" points="-4,4 -4,-244.2 516,-244.2 516,4 -4,4"/>
<text text-anchor="middle" x="72.4936" y="-7.3" font-family="Helvetica,sans-Serif" font-size="11.00" fill="#000000">Generated by SchemaSpy</text>
<!-- document_template_group -->
<g id="node1" class="node">
<title>document_template_group</title>
<g id="a_node1"><a xlink:href="../../tables/document_template_group.html" xlink:title="document_template_group" target="_top">
<polygon fill="#ffffff" stroke="transparent" points="285,-128.2 285,-236.2 504,-236.2 504,-128.2 285,-128.2"/>
<polygon fill="#f5f5f5" stroke="transparent" points="285.5,-213.2 285.5,-236.2 504.5,-236.2 504.5,-213.2 285.5,-213.2"/>
<polygon fill="none" stroke="#000000" points="285.5,-213.2 285.5,-236.2 504.5,-236.2 504.5,-213.2 285.5,-213.2"/>
<text text-anchor="start" x="290.5" y="-221.8" font-family="Helvetica,sans-Serif" font-weight="bold" font-size="11.00" fill="#000000">document_template_group</text>
<text text-anchor="start" x="470.0219" y="-221.3" font-family="Helvetica,sans-Serif" font-size="11.00" fill="#000000">[table]</text>
<polygon fill="none" stroke="#000000" points="285.5,-191.2 285.5,-213.2 504.5,-213.2 504.5,-191.2 285.5,-191.2"/>
<image xlink:href="../../images/primaryKeys.png" width="11px" height="12px" preserveAspectRatio="xMinYMin meet" x="290.5" y="-208.2"/>
<text text-anchor="start" x="314.5" y="-198.3" font-family="Helvetica,sans-Serif" font-size="11.00" fill="#000000">id</text>
<polygon fill="#ffffff" stroke="transparent" points="285.5,-169.2 285.5,-191.2 504.5,-191.2 504.5,-169.2 285.5,-169.2"/>
<polygon fill="none" stroke="#000000" points="285.5,-169.2 285.5,-191.2 504.5,-191.2 504.5,-169.2 285.5,-169.2"/>
<image xlink:href="../../images/foreignKeys.png" width="11px" height="12px" preserveAspectRatio="xMinYMin meet" x="290.5" y="-186.2"/>
<text text-anchor="start" x="314.5" y="-176.3" font-family="Helvetica,sans-Serif" font-size="11.00" fill="#000000">template_id</text>
<polygon fill="#ffffff" stroke="transparent" points="285.5,-147.2 285.5,-169.2 504.5,-169.2 504.5,-147.2 285.5,-147.2"/>
<polygon fill="none" stroke="#000000" points="285.5,-147.2 285.5,-169.2 504.5,-169.2 504.5,-147.2 285.5,-147.2"/>
<image xlink:href="../../images/foreignKeys.png" width="11px" height="12px" preserveAspectRatio="xMinYMin meet" x="290.5" y="-164.2"/>
<text text-anchor="start" x="314.5" y="-154.3" font-family="Helvetica,sans-Serif" font-size="11.00" fill="#000000">template_group_id</text>
<polygon fill="#ffffff" stroke="transparent" points="285.5,-128.2 285.5,-147.2 393.5,-147.2 393.5,-128.2 285.5,-128.2"/>
<polygon fill="none" stroke="#000000" points="285.5,-128.2 285.5,-147.2 393.5,-147.2 393.5,-128.2 285.5,-128.2"/>
<text text-anchor="start" x="288.5" y="-134.3" font-family="Helvetica,sans-Serif" font-size="11.00" fill="#000000">&lt; 2</text>
<polygon fill="#ffffff" stroke="transparent" points="393.5,-128.2 393.5,-147.2 448.5,-147.2 448.5,-128.2 393.5,-128.2"/>
<polygon fill="none" stroke="#000000" points="393.5,-128.2 393.5,-147.2 448.5,-147.2 448.5,-128.2 393.5,-128.2"/>
<text text-anchor="start" x="439.3862" y="-134.3" font-family="Helvetica,sans-Serif" font-size="11.00" fill="#000000"> &#160;</text>
<polygon fill="#ffffff" stroke="transparent" points="448.5,-128.2 448.5,-147.2 504.5,-147.2 504.5,-128.2 448.5,-128.2"/>
<polygon fill="none" stroke="#000000" points="448.5,-128.2 448.5,-147.2 504.5,-147.2 504.5,-128.2 448.5,-128.2"/>
<text text-anchor="start" x="495.3862" y="-134.3" font-family="Helvetica,sans-Serif" font-size="11.00" fill="#000000"> &#160;</text>
</a>
</g>
</g>
<!-- template_group -->
<g id="node2" class="node">
<title>template_group</title>
<g id="a_node2"><a xlink:href="../../tables/template_group.html" xlink:title="template_group" target="_top">
<polygon fill="#ffffff" stroke="transparent" points="8,-38.2 8,-194.2 236,-194.2 236,-38.2 8,-38.2"/>
<polygon fill="#f5f5f5" stroke="transparent" points="10,-169.2 10,-192.2 234,-192.2 234,-169.2 10,-169.2"/>
<polygon fill="none" stroke="#000000" points="10,-169.2 10,-192.2 234,-192.2 234,-169.2 10,-169.2"/>
<text text-anchor="start" x="15" y="-177.8" font-family="Helvetica,sans-Serif" font-weight="bold" font-size="11.00" fill="#000000">template_group</text>
<text text-anchor="start" x="199.0437" y="-177.3" font-family="Helvetica,sans-Serif" font-size="11.00" fill="#000000">[table]</text>
<polygon fill="none" stroke="#000000" points="10,-147.2 10,-169.2 137,-169.2 137,-147.2 10,-147.2"/>
<image xlink:href="../../images/primaryKeys.png" width="11px" height="12px" preserveAspectRatio="xMinYMin meet" x="15" y="-164.2"/>
<text text-anchor="start" x="30" y="-154.3" font-family="Helvetica,sans-Serif" font-size="11.00" fill="#000000">id</text>
<polygon fill="none" stroke="#000000" points="137,-147.2 137,-169.2 234,-169.2 234,-147.2 137,-147.2"/>
<text text-anchor="start" x="140" y="-154.9" font-family="Helvetica,sans-Serif" font-size="11.00" fill="#000000">uuid[2147483647]</text>
<polygon fill="#ffffff" stroke="transparent" points="10,-125.2 10,-147.2 137,-147.2 137,-125.2 10,-125.2"/>
<polygon fill="none" stroke="#000000" points="10,-125.2 10,-147.2 137,-147.2 137,-125.2 10,-125.2"/>
<image xlink:href="../../images/foreignKeys.png" width="11px" height="12px" preserveAspectRatio="xMinYMin meet" x="15" y="-142.2"/>
<text text-anchor="start" x="30" y="-132.3" font-family="Helvetica,sans-Serif" font-size="11.00" fill="#000000">code</text>
<polygon fill="none" stroke="#000000" points="137,-125.2 137,-147.2 234,-147.2 234,-125.2 137,-125.2"/>
<text text-anchor="start" x="140" y="-132.9" font-family="Helvetica,sans-Serif" font-size="11.00" fill="#000000">text[2147483647]</text>
<polygon fill="none" stroke="#000000" points="10,-103.2 10,-125.2 137,-125.2 137,-103.2 10,-103.2"/>
<text text-anchor="start" x="30" y="-110.3" font-family="Helvetica,sans-Serif" font-size="11.00" fill="#000000">name</text>
<polygon fill="none" stroke="#000000" points="137,-103.2 137,-125.2 234,-125.2 234,-103.2 137,-103.2"/>
<text text-anchor="start" x="140" y="-110.9" font-family="Helvetica,sans-Serif" font-size="11.00" fill="#000000">text[2147483647]</text>
<polygon fill="none" stroke="#000000" points="10,-81.2 10,-103.2 137,-103.2 137,-81.2 10,-81.2"/>
<text text-anchor="start" x="30" y="-88.3" font-family="Helvetica,sans-Serif" font-size="11.00" fill="#000000">description</text>
<polygon fill="none" stroke="#000000" points="137,-81.2 137,-103.2 234,-103.2 234,-81.2 137,-81.2"/>
<text text-anchor="start" x="140" y="-88.9" font-family="Helvetica,sans-Serif" font-size="11.00" fill="#000000">text[2147483647]</text>
<polygon fill="none" stroke="#000000" points="10,-59.2 10,-81.2 137,-81.2 137,-59.2 10,-59.2"/>
<text text-anchor="start" x="30" y="-66.3" font-family="Helvetica,sans-Serif" font-size="11.00" fill="#000000">roles</text>
<polygon fill="none" stroke="#000000" points="137,-59.2 137,-81.2 234,-81.2 234,-59.2 137,-59.2"/>
<text text-anchor="start" x="139.9468" y="-66.9" font-family="Helvetica,sans-Serif" font-size="11.00" fill="#000000">_text[2147483647]</text>
<polygon fill="#ffffff" stroke="transparent" points="10,-40.2 10,-59.2 78,-59.2 78,-40.2 10,-40.2"/>
<polygon fill="none" stroke="#000000" points="10,-40.2 10,-59.2 78,-59.2 78,-40.2 10,-40.2"/>
<text text-anchor="start" x="13" y="-46.3" font-family="Helvetica,sans-Serif" font-size="11.00" fill="#000000">&lt; 0</text>
<polygon fill="#ffffff" stroke="transparent" points="78,-40.2 78,-59.2 137,-59.2 137,-40.2 78,-40.2"/>
<polygon fill="none" stroke="#000000" points="78,-40.2 78,-59.2 137,-59.2 137,-40.2 78,-40.2"/>
<text text-anchor="start" x="127.8862" y="-46.3" font-family="Helvetica,sans-Serif" font-size="11.00" fill="#000000"> &#160;</text>
<polygon fill="#ffffff" stroke="transparent" points="137,-40.2 137,-59.2 234,-59.2 234,-40.2 137,-40.2"/>
<polygon fill="none" stroke="#000000" points="137,-40.2 137,-59.2 234,-59.2 234,-40.2 137,-40.2"/>
<text text-anchor="start" x="215.4053" y="-46.3" font-family="Helvetica,sans-Serif" font-size="11.00" fill="#000000">1 &gt;</text>
<polygon fill="none" stroke="#000000" stroke-width="2" points="9,-39.2 9,-193.2 235,-193.2 235,-39.2 9,-39.2"/>
</a>
</g>
</g>
<!-- document_template_group&#45;&gt;template_group -->
<g id="edge1" class="edge">
<title>document_template_group:w&#45;&gt;template_group:e</title>
<path fill="none" stroke="#000000" d="M271.0156,-158.2C258.6771,-158.2 251.1667,-158.2 234,-158.2"/>
<polygon fill="#000000" stroke="#000000" points="277.5,-158.2001 285.5,-161.8 281.5,-158.2 285.5,-158.2 285.5,-158.2 285.5,-158.2 281.5,-158.2 285.5,-154.6 277.5,-158.2001 277.5,-158.2001"/>
<ellipse fill="none" stroke="#000000" cx="274.3" cy="-158.2001" rx="3.2" ry="3.2"/>
</g>
</g>
</svg>
