<?xml version="1.0" encoding="UTF-8" standalone="no"?>
<!DOCTYPE svg PUBLIC "-//W3C//DTD SVG 1.1//EN"
 "http://www.w3.org/Graphics/SVG/1.1/DTD/svg11.dtd">
<!-- Generated by graphviz version 2.40.1 (20161225.0304)
 -->
<!-- Title: oneDegreeRelationshipsDiagram Pages: 1 -->
<svg width="517pt" height="226pt"
 viewBox="0.00 0.00 517.00 226.20" xmlns="http://www.w3.org/2000/svg" xmlns:xlink="http://www.w3.org/1999/xlink">
<g id="graph0" class="graph" transform="scale(1 1) rotate(0) translate(4 222.2)">
<title>oneDegreeRelationshipsDiagram</title>
<polygon fill="#ffffff" stroke="transparent" points="-4,4 -4,-222.2 513,-222.2 513,4 -4,4"/>
<text text-anchor="middle" x="72.4936" y="-7.3" font-family="Helvetica,sans-Serif" font-size="11.00" fill="#000000">Generated by SchemaSpy</text>
<!-- document_template_group -->
<g id="node1" class="node">
<title>document_template_group</title>
<g id="a_node1"><a xlink:href="../../tables/document_template_group.html" xlink:title="document_template_group" target="_top">
<polygon fill="#ffffff" stroke="transparent" points="282,-106.2 282,-214.2 501,-214.2 501,-106.2 282,-106.2"/>
<polygon fill="#f5f5f5" stroke="transparent" points="282.5,-191.2 282.5,-214.2 501.5,-214.2 501.5,-191.2 282.5,-191.2"/>
<polygon fill="none" stroke="#000000" points="282.5,-191.2 282.5,-214.2 501.5,-214.2 501.5,-191.2 282.5,-191.2"/>
<text text-anchor="start" x="287.5" y="-199.8" font-family="Helvetica,sans-Serif" font-weight="bold" font-size="11.00" fill="#000000">document_template_group</text>
<text text-anchor="start" x="467.0219" y="-199.3" font-family="Helvetica,sans-Serif" font-size="11.00" fill="#000000">[table]</text>
<polygon fill="none" stroke="#000000" points="282.5,-169.2 282.5,-191.2 501.5,-191.2 501.5,-169.2 282.5,-169.2"/>
<image xlink:href="../../images/primaryKeys.png" width="11px" height="12px" preserveAspectRatio="xMinYMin meet" x="287.5" y="-186.2"/>
<text text-anchor="start" x="311.5" y="-176.3" font-family="Helvetica,sans-Serif" font-size="11.00" fill="#000000">id</text>
<polygon fill="#ffffff" stroke="transparent" points="282.5,-147.2 282.5,-169.2 501.5,-169.2 501.5,-147.2 282.5,-147.2"/>
<polygon fill="none" stroke="#000000" points="282.5,-147.2 282.5,-169.2 501.5,-169.2 501.5,-147.2 282.5,-147.2"/>
<image xlink:href="../../images/foreignKeys.png" width="11px" height="12px" preserveAspectRatio="xMinYMin meet" x="287.5" y="-164.2"/>
<text text-anchor="start" x="311.5" y="-154.3" font-family="Helvetica,sans-Serif" font-size="11.00" fill="#000000">template_id</text>
<polygon fill="#ffffff" stroke="transparent" points="282.5,-125.2 282.5,-147.2 501.5,-147.2 501.5,-125.2 282.5,-125.2"/>
<polygon fill="none" stroke="#000000" points="282.5,-125.2 282.5,-147.2 501.5,-147.2 501.5,-125.2 282.5,-125.2"/>
<image xlink:href="../../images/foreignKeys.png" width="11px" height="12px" preserveAspectRatio="xMinYMin meet" x="287.5" y="-142.2"/>
<text text-anchor="start" x="311.5" y="-132.3" font-family="Helvetica,sans-Serif" font-size="11.00" fill="#000000">template_group_id</text>
<polygon fill="#ffffff" stroke="transparent" points="282.5,-106.2 282.5,-125.2 390.5,-125.2 390.5,-106.2 282.5,-106.2"/>
<polygon fill="none" stroke="#000000" points="282.5,-106.2 282.5,-125.2 390.5,-125.2 390.5,-106.2 282.5,-106.2"/>
<text text-anchor="start" x="285.5" y="-112.3" font-family="Helvetica,sans-Serif" font-size="11.00" fill="#000000">&lt; 2</text>
<polygon fill="#ffffff" stroke="transparent" points="390.5,-106.2 390.5,-125.2 445.5,-125.2 445.5,-106.2 390.5,-106.2"/>
<polygon fill="none" stroke="#000000" points="390.5,-106.2 390.5,-125.2 445.5,-125.2 445.5,-106.2 390.5,-106.2"/>
<text text-anchor="start" x="436.3862" y="-112.3" font-family="Helvetica,sans-Serif" font-size="11.00" fill="#000000"> &#160;</text>
<polygon fill="#ffffff" stroke="transparent" points="445.5,-106.2 445.5,-125.2 501.5,-125.2 501.5,-106.2 445.5,-106.2"/>
<polygon fill="none" stroke="#000000" points="445.5,-106.2 445.5,-125.2 501.5,-125.2 501.5,-106.2 445.5,-106.2"/>
<text text-anchor="start" x="492.3862" y="-112.3" font-family="Helvetica,sans-Serif" font-size="11.00" fill="#000000"> &#160;</text>
</a>
</g>
</g>
<!-- template_group -->
<g id="node2" class="node">
<title>template_group</title>
<g id="a_node2"><a xlink:href="../../tables/template_group.html" xlink:title="template_group" target="_top">
<polygon fill="#ffffff" stroke="transparent" points="8,-38.2 8,-172.2 233,-172.2 233,-38.2 8,-38.2"/>
<polygon fill="#f5f5f5" stroke="transparent" points="10.5,-147.2 10.5,-170.2 231.5,-170.2 231.5,-147.2 10.5,-147.2"/>
<polygon fill="none" stroke="#000000" points="10.5,-147.2 10.5,-170.2 231.5,-170.2 231.5,-147.2 10.5,-147.2"/>
<text text-anchor="start" x="15.5" y="-155.8" font-family="Helvetica,sans-Serif" font-weight="bold" font-size="11.00" fill="#000000">template_group</text>
<text text-anchor="start" x="196.5437" y="-155.3" font-family="Helvetica,sans-Serif" font-size="11.00" fill="#000000">[table]</text>
<polygon fill="none" stroke="#000000" points="10.5,-125.2 10.5,-147.2 137.5,-147.2 137.5,-125.2 10.5,-125.2"/>
<image xlink:href="../../images/primaryKeys.png" width="11px" height="12px" preserveAspectRatio="xMinYMin meet" x="15.5" y="-142.2"/>
<text text-anchor="start" x="30.5" y="-132.3" font-family="Helvetica,sans-Serif" font-size="11.00" fill="#000000">id</text>
<polygon fill="none" stroke="#000000" points="137.5,-125.2 137.5,-147.2 231.5,-147.2 231.5,-125.2 137.5,-125.2"/>
<text text-anchor="start" x="140.4758" y="-132.9" font-family="Helvetica,sans-Serif" font-size="11.00" fill="#000000">uuid[2147483647]</text>
<polygon fill="#ffffff" stroke="transparent" points="10.5,-103.2 10.5,-125.2 137.5,-125.2 137.5,-103.2 10.5,-103.2"/>
<polygon fill="none" stroke="#000000" points="10.5,-103.2 10.5,-125.2 137.5,-125.2 137.5,-103.2 10.5,-103.2"/>
<image xlink:href="../../images/foreignKeys.png" width="11px" height="12px" preserveAspectRatio="xMinYMin meet" x="15.5" y="-120.2"/>
<text text-anchor="start" x="30.5" y="-110.3" font-family="Helvetica,sans-Serif" font-size="11.00" fill="#000000">code</text>
<polygon fill="none" stroke="#000000" points="137.5,-103.2 137.5,-125.2 231.5,-125.2 231.5,-103.2 137.5,-103.2"/>
<text text-anchor="start" x="140.5" y="-110.9" font-family="Helvetica,sans-Serif" font-size="11.00" fill="#000000">text[2147483647]</text>
<polygon fill="none" stroke="#000000" points="10.5,-81.2 10.5,-103.2 137.5,-103.2 137.5,-81.2 10.5,-81.2"/>
<text text-anchor="start" x="30.5" y="-88.3" font-family="Helvetica,sans-Serif" font-size="11.00" fill="#000000">name</text>
<polygon fill="none" stroke="#000000" points="137.5,-81.2 137.5,-103.2 231.5,-103.2 231.5,-81.2 137.5,-81.2"/>
<text text-anchor="start" x="140.5" y="-88.9" font-family="Helvetica,sans-Serif" font-size="11.00" fill="#000000">text[2147483647]</text>
<polygon fill="none" stroke="#000000" points="10.5,-59.2 10.5,-81.2 137.5,-81.2 137.5,-59.2 10.5,-59.2"/>
<text text-anchor="start" x="30.5" y="-66.3" font-family="Helvetica,sans-Serif" font-size="11.00" fill="#000000">description</text>
<polygon fill="none" stroke="#000000" points="137.5,-59.2 137.5,-81.2 231.5,-81.2 231.5,-59.2 137.5,-59.2"/>
<text text-anchor="start" x="140.5" y="-66.9" font-family="Helvetica,sans-Serif" font-size="11.00" fill="#000000">text[2147483647]</text>
<polygon fill="#ffffff" stroke="transparent" points="10.5,-40.2 10.5,-59.2 78.5,-59.2 78.5,-40.2 10.5,-40.2"/>
<polygon fill="none" stroke="#000000" points="10.5,-40.2 10.5,-59.2 78.5,-59.2 78.5,-40.2 10.5,-40.2"/>
<text text-anchor="start" x="13.5" y="-46.3" font-family="Helvetica,sans-Serif" font-size="11.00" fill="#000000">&lt; 0</text>
<polygon fill="#ffffff" stroke="transparent" points="78.5,-40.2 78.5,-59.2 137.5,-59.2 137.5,-40.2 78.5,-40.2"/>
<polygon fill="none" stroke="#000000" points="78.5,-40.2 78.5,-59.2 137.5,-59.2 137.5,-40.2 78.5,-40.2"/>
<text text-anchor="start" x="128.3862" y="-46.3" font-family="Helvetica,sans-Serif" font-size="11.00" fill="#000000"> &#160;</text>
<polygon fill="#ffffff" stroke="transparent" points="137.5,-40.2 137.5,-59.2 231.5,-59.2 231.5,-40.2 137.5,-40.2"/>
<polygon fill="none" stroke="#000000" points="137.5,-40.2 137.5,-59.2 231.5,-59.2 231.5,-40.2 137.5,-40.2"/>
<text text-anchor="start" x="212.9053" y="-46.3" font-family="Helvetica,sans-Serif" font-size="11.00" fill="#000000">1 &gt;</text>
<polygon fill="none" stroke="#000000" stroke-width="2" points="9,-39.2 9,-171.2 232,-171.2 232,-39.2 9,-39.2"/>
</a>
</g>
</g>
<!-- document_template_group&#45;&gt;template_group -->
<g id="edge1" class="edge">
<title>document_template_group:w&#45;&gt;template_group:e</title>
<path fill="none" stroke="#000000" d="M267.776,-136.2C255.7815,-136.2 248.3229,-136.2 231.5,-136.2"/>
<polygon fill="#000000" stroke="#000000" points="274.5,-136.2001 282.5,-139.8 278.5,-136.2 282.5,-136.2 282.5,-136.2 282.5,-136.2 278.5,-136.2 282.5,-132.6 274.5,-136.2001 274.5,-136.2001"/>
<ellipse fill="none" stroke="#000000" cx="271.3" cy="-136.2001" rx="3.2" ry="3.2"/>
</g>
</g>
</svg>
