<?xml version="1.0" encoding="UTF-8" standalone="no"?>
<!DOCTYPE svg PUBLIC "-//W3C//DTD SVG 1.1//EN"
 "http://www.w3.org/Graphics/SVG/1.1/DTD/svg11.dtd">
<!-- Generated by graphviz version 2.40.1 (20161225.0304)
 -->
<!-- Title: twoDegreesRelationshipsDiagramImplied Pages: 1 -->
<svg width="786pt" height="453pt"
 viewBox="0.00 0.00 786.00 453.20" xmlns="http://www.w3.org/2000/svg" xmlns:xlink="http://www.w3.org/1999/xlink">
<g id="graph0" class="graph" transform="scale(1 1) rotate(0) translate(4 449.2)">
<title>twoDegreesRelationshipsDiagramImplied</title>
<polygon fill="#ffffff" stroke="transparent" points="-4,4 -4,-449.2 782,-449.2 782,4 -4,4"/>
<text text-anchor="middle" x="72.4936" y="-7.3" font-family="Helvetica,sans-Serif" font-size="11.00" fill="#000000">Generated by SchemaSpy</text>
<!-- document_template -->
<g id="node1" class="node">
<title>document_template</title>
<g id="a_node1"><a xlink:href="../../tables/document_template.html" xlink:title="document_template" target="_top">
<polygon fill="#ffffff" stroke="transparent" points="301.5,-298.2 301.5,-359.2 474.5,-359.2 474.5,-298.2 301.5,-298.2"/>
<polygon fill="#f5f5f5" stroke="transparent" points="302,-335.7 302,-358.7 475,-358.7 475,-335.7 302,-335.7"/>
<polygon fill="none" stroke="#000000" points="302,-335.7 302,-358.7 475,-358.7 475,-335.7 302,-335.7"/>
<text text-anchor="start" x="307" y="-344.3" font-family="Helvetica,sans-Serif" font-weight="bold" font-size="11.00" fill="#000000">document_template</text>
<text text-anchor="start" x="440.5219" y="-343.8" font-family="Helvetica,sans-Serif" font-size="11.00" fill="#000000">[table]</text>
<polygon fill="none" stroke="#000000" points="302,-316.7 302,-335.7 475,-335.7 475,-316.7 302,-316.7"/>
<text text-anchor="start" x="305" y="-322.8" font-family="Helvetica,sans-Serif" font-size="11.00" fill="#000000">...</text>
<polygon fill="#ffffff" stroke="transparent" points="302,-297.7 302,-316.7 382,-316.7 382,-297.7 302,-297.7"/>
<polygon fill="none" stroke="#000000" points="302,-297.7 302,-316.7 382,-316.7 382,-297.7 302,-297.7"/>
<text text-anchor="start" x="305" y="-303.8" font-family="Helvetica,sans-Serif" font-size="11.00" fill="#000000">&lt; 1</text>
<polygon fill="#ffffff" stroke="transparent" points="382,-297.7 382,-316.7 424,-316.7 424,-297.7 382,-297.7"/>
<polygon fill="none" stroke="#000000" points="382,-297.7 382,-316.7 424,-316.7 424,-297.7 382,-297.7"/>
<text text-anchor="start" x="414.8862" y="-303.8" font-family="Helvetica,sans-Serif" font-size="11.00" fill="#000000"> &#160;</text>
<polygon fill="#ffffff" stroke="transparent" points="424,-297.7 424,-316.7 475,-316.7 475,-297.7 424,-297.7"/>
<polygon fill="none" stroke="#000000" points="424,-297.7 424,-316.7 475,-316.7 475,-297.7 424,-297.7"/>
<text text-anchor="start" x="456.4053" y="-303.8" font-family="Helvetica,sans-Serif" font-size="11.00" fill="#000000">3 &gt;</text>
</a>
</g>
</g>
<!-- template_variable_domain -->
<g id="node2" class="node">
<title>template_variable_domain</title>
<g id="a_node2"><a xlink:href="../../tables/template_variable_domain.html" xlink:title="template_variable_domain" target="_top">
<polygon fill="#ffffff" stroke="transparent" points="8,-201.2 8,-306.2 225,-306.2 225,-201.2 8,-201.2"/>
<polygon fill="#f5f5f5" stroke="transparent" points="8.5,-282.7 8.5,-305.7 225.5,-305.7 225.5,-282.7 8.5,-282.7"/>
<polygon fill="none" stroke="#000000" points="8.5,-282.7 8.5,-305.7 225.5,-305.7 225.5,-282.7 8.5,-282.7"/>
<text text-anchor="start" x="13.5" y="-291.3" font-family="Helvetica,sans-Serif" font-weight="bold" font-size="11.00" fill="#000000">template_variable_domain</text>
<text text-anchor="start" x="191.0219" y="-290.8" font-family="Helvetica,sans-Serif" font-size="11.00" fill="#000000">[table]</text>
<polygon fill="none" stroke="#000000" points="8.5,-260.7 8.5,-282.7 225.5,-282.7 225.5,-260.7 8.5,-260.7"/>
<image xlink:href="../../images/primaryKeys.png" width="11px" height="12px" preserveAspectRatio="xMinYMin meet" x="13.5" y="-277.7"/>
<text text-anchor="start" x="37.5" y="-267.8" font-family="Helvetica,sans-Serif" font-size="11.00" fill="#000000">code</text>
<polygon fill="#ffffff" stroke="transparent" points="8.5,-238.7 8.5,-260.7 225.5,-260.7 225.5,-238.7 8.5,-238.7"/>
<polygon fill="none" stroke="#000000" points="8.5,-238.7 8.5,-260.7 225.5,-260.7 225.5,-238.7 8.5,-238.7"/>
<text text-anchor="start" x="37.5" y="-245.8" font-family="Helvetica,sans-Serif" font-size="11.00" fill="#000000">sequence_number</text>
<polygon fill="none" stroke="#000000" points="8.5,-219.7 8.5,-238.7 225.5,-238.7 225.5,-219.7 8.5,-219.7"/>
<text text-anchor="start" x="11.5" y="-225.8" font-family="Helvetica,sans-Serif" font-size="11.00" fill="#000000">...</text>
<polygon fill="#ffffff" stroke="transparent" points="8.5,-200.7 8.5,-219.7 106.5,-219.7 106.5,-200.7 8.5,-200.7"/>
<polygon fill="none" stroke="#000000" points="8.5,-200.7 8.5,-219.7 106.5,-219.7 106.5,-200.7 8.5,-200.7"/>
<text text-anchor="start" x="11.5" y="-206.8" font-family="Helvetica,sans-Serif" font-size="11.00" fill="#000000"> &#160;</text>
<polygon fill="#ffffff" stroke="transparent" points="106.5,-200.7 106.5,-219.7 161.5,-219.7 161.5,-200.7 106.5,-200.7"/>
<polygon fill="none" stroke="#000000" points="106.5,-200.7 106.5,-219.7 161.5,-219.7 161.5,-200.7 106.5,-200.7"/>
<text text-anchor="start" x="152.3862" y="-206.8" font-family="Helvetica,sans-Serif" font-size="11.00" fill="#000000"> &#160;</text>
<polygon fill="#ffffff" stroke="transparent" points="161.5,-200.7 161.5,-219.7 225.5,-219.7 225.5,-200.7 161.5,-200.7"/>
<polygon fill="none" stroke="#000000" points="161.5,-200.7 161.5,-219.7 225.5,-219.7 225.5,-200.7 161.5,-200.7"/>
<text text-anchor="start" x="206.9053" y="-206.8" font-family="Helvetica,sans-Serif" font-size="11.00" fill="#000000">4 &gt;</text>
</a>
</g>
</g>
<!-- document_template&#45;&gt;template_variable_domain -->
<g id="edge1" class="edge">
<title>document_template:w&#45;&gt;template_variable_domain:e</title>
<path fill="none" stroke="#000000" stroke-dasharray="5,2" d="M291.4904,-324.3652C261.2205,-316.0496 263.2157,-271.7 225.5,-271.7"/>
<polygon fill="#000000" stroke="#000000" points="301.7104,-321.6311 300.7023,-329.5673 299.1151,-329.3657 300.1232,-321.4295 301.7104,-321.6311"/>
<polyline fill="none" stroke="#000000" points="302,-325.7 298.0319,-325.196 "/>
<ellipse fill="none" stroke="#000000" cx="294.8574" cy="-324.7928" rx="3.2" ry="3.2"/>
</g>
<!-- document_template_audit -->
<g id="node3" class="node">
<title>document_template_audit</title>
<g id="a_node3"><a xlink:href="../../tables/document_template_audit.html" xlink:title="document_template_audit" target="_top">
<polygon fill="#ffffff" stroke="transparent" points="281,-380.2 281,-441.2 495,-441.2 495,-380.2 281,-380.2"/>
<polygon fill="#f5f5f5" stroke="transparent" points="281,-417.7 281,-440.7 495,-440.7 495,-417.7 281,-417.7"/>
<polygon fill="none" stroke="#000000" points="281,-417.7 281,-440.7 495,-440.7 495,-417.7 281,-417.7"/>
<text text-anchor="start" x="286" y="-426.3" font-family="Helvetica,sans-Serif" font-weight="bold" font-size="11.00" fill="#000000">document_template_audit</text>
<text text-anchor="start" x="460.5219" y="-425.8" font-family="Helvetica,sans-Serif" font-size="11.00" fill="#000000">[table]</text>
<polygon fill="none" stroke="#000000" points="281,-398.7 281,-417.7 495,-417.7 495,-398.7 281,-398.7"/>
<text text-anchor="start" x="284" y="-404.8" font-family="Helvetica,sans-Serif" font-size="11.00" fill="#000000">...</text>
<polygon fill="#ffffff" stroke="transparent" points="281,-379.7 281,-398.7 386,-398.7 386,-379.7 281,-379.7"/>
<polygon fill="none" stroke="#000000" points="281,-379.7 281,-398.7 386,-398.7 386,-379.7 281,-379.7"/>
<text text-anchor="start" x="284" y="-385.8" font-family="Helvetica,sans-Serif" font-size="11.00" fill="#000000">&lt; 2</text>
<polygon fill="#ffffff" stroke="transparent" points="386,-379.7 386,-398.7 440,-398.7 440,-379.7 386,-379.7"/>
<polygon fill="none" stroke="#000000" points="386,-379.7 386,-398.7 440,-398.7 440,-379.7 386,-379.7"/>
<text text-anchor="start" x="430.8862" y="-385.8" font-family="Helvetica,sans-Serif" font-size="11.00" fill="#000000"> &#160;</text>
<polygon fill="#ffffff" stroke="transparent" points="440,-379.7 440,-398.7 495,-398.7 495,-379.7 440,-379.7"/>
<polygon fill="none" stroke="#000000" points="440,-379.7 440,-398.7 495,-398.7 495,-379.7 440,-379.7"/>
<text text-anchor="start" x="485.8862" y="-385.8" font-family="Helvetica,sans-Serif" font-size="11.00" fill="#000000"> &#160;</text>
</a>
</g>
</g>
<!-- document_template_audit&#45;&gt;template_variable_domain -->
<g id="edge2" class="edge">
<title>document_template_audit:w&#45;&gt;template_variable_domain:e</title>
<path fill="none" stroke="#000000" stroke-dasharray="5,2" d="M266.8485,-404.733C227.8275,-384.8443 285.046,-271.7 225.5,-271.7"/>
<polygon fill="#000000" stroke="#000000" points="273.1702,-406.0584 280.2613,-411.2234 277.0851,-406.8792 281,-407.7 281,-407.7 281,-407.7 277.0851,-406.8792 281.7387,-404.1766 273.1702,-406.0584 273.1702,-406.0584"/>
<ellipse fill="none" stroke="#000000" cx="270.0383" cy="-405.4017" rx="3.2" ry="3.2"/>
</g>
<!-- document_template_group -->
<g id="node4" class="node">
<title>document_template_group</title>
<g id="a_node4"><a xlink:href="../../tables/document_template_group.html" xlink:title="document_template_group" target="_top">
<polygon fill="#ffffff" stroke="transparent" points="551,-241.7 551,-349.7 770,-349.7 770,-241.7 551,-241.7"/>
<polygon fill="#f5f5f5" stroke="transparent" points="551.5,-326.7 551.5,-349.7 770.5,-349.7 770.5,-326.7 551.5,-326.7"/>
<polygon fill="none" stroke="#000000" points="551.5,-326.7 551.5,-349.7 770.5,-349.7 770.5,-326.7 551.5,-326.7"/>
<text text-anchor="start" x="556.5" y="-335.3" font-family="Helvetica,sans-Serif" font-weight="bold" font-size="11.00" fill="#000000">document_template_group</text>
<text text-anchor="start" x="736.0219" y="-334.8" font-family="Helvetica,sans-Serif" font-size="11.00" fill="#000000">[table]</text>
<polygon fill="none" stroke="#000000" points="551.5,-304.7 551.5,-326.7 770.5,-326.7 770.5,-304.7 551.5,-304.7"/>
<image xlink:href="../../images/primaryKeys.png" width="11px" height="12px" preserveAspectRatio="xMinYMin meet" x="556.5" y="-321.7"/>
<text text-anchor="start" x="580.5" y="-311.8" font-family="Helvetica,sans-Serif" font-size="11.00" fill="#000000">id</text>
<polygon fill="#ffffff" stroke="transparent" points="551.5,-282.7 551.5,-304.7 770.5,-304.7 770.5,-282.7 551.5,-282.7"/>
<polygon fill="none" stroke="#000000" points="551.5,-282.7 551.5,-304.7 770.5,-304.7 770.5,-282.7 551.5,-282.7"/>
<image xlink:href="../../images/foreignKeys.png" width="11px" height="12px" preserveAspectRatio="xMinYMin meet" x="556.5" y="-299.7"/>
<text text-anchor="start" x="580.5" y="-289.8" font-family="Helvetica,sans-Serif" font-size="11.00" fill="#000000">template_id</text>
<polygon fill="#ffffff" stroke="transparent" points="551.5,-260.7 551.5,-282.7 770.5,-282.7 770.5,-260.7 551.5,-260.7"/>
<polygon fill="none" stroke="#000000" points="551.5,-260.7 551.5,-282.7 770.5,-282.7 770.5,-260.7 551.5,-260.7"/>
<image xlink:href="../../images/foreignKeys.png" width="11px" height="12px" preserveAspectRatio="xMinYMin meet" x="556.5" y="-277.7"/>
<text text-anchor="start" x="580.5" y="-267.8" font-family="Helvetica,sans-Serif" font-size="11.00" fill="#000000">template_group_id</text>
<polygon fill="#ffffff" stroke="transparent" points="551.5,-241.7 551.5,-260.7 659.5,-260.7 659.5,-241.7 551.5,-241.7"/>
<polygon fill="none" stroke="#000000" points="551.5,-241.7 551.5,-260.7 659.5,-260.7 659.5,-241.7 551.5,-241.7"/>
<text text-anchor="start" x="554.5" y="-247.8" font-family="Helvetica,sans-Serif" font-size="11.00" fill="#000000">&lt; 2</text>
<polygon fill="#ffffff" stroke="transparent" points="659.5,-241.7 659.5,-260.7 714.5,-260.7 714.5,-241.7 659.5,-241.7"/>
<polygon fill="none" stroke="#000000" points="659.5,-241.7 659.5,-260.7 714.5,-260.7 714.5,-241.7 659.5,-241.7"/>
<text text-anchor="start" x="705.3862" y="-247.8" font-family="Helvetica,sans-Serif" font-size="11.00" fill="#000000"> &#160;</text>
<polygon fill="#ffffff" stroke="transparent" points="714.5,-241.7 714.5,-260.7 770.5,-260.7 770.5,-241.7 714.5,-241.7"/>
<polygon fill="none" stroke="#000000" points="714.5,-241.7 714.5,-260.7 770.5,-260.7 770.5,-241.7 714.5,-241.7"/>
<text text-anchor="start" x="761.3862" y="-247.8" font-family="Helvetica,sans-Serif" font-size="11.00" fill="#000000"> &#160;</text>
</a>
</g>
</g>
<!-- document_template_group&#45;&gt;document_template -->
<g id="edge4" class="edge">
<title>document_template_group:w&#45;&gt;document_template:e</title>
<path fill="none" stroke="#000000" d="M537.117,-295.6059C513.0663,-302.4949 506.3841,-325.7 475,-325.7"/>
<polygon fill="#000000" stroke="#000000" points="543.5693,-294.751 551.9729,-297.2688 547.5347,-294.2255 551.5,-293.7 551.5,-293.7 551.5,-293.7 547.5347,-294.2255 551.0271,-290.1312 543.5693,-294.751 543.5693,-294.751"/>
<ellipse fill="none" stroke="#000000" cx="540.3971" cy="-295.1713" rx="3.2" ry="3.2"/>
</g>
<!-- template_group -->
<g id="node5" class="node">
<title>template_group</title>
<g id="a_node5"><a xlink:href="../../tables/template_group.html" xlink:title="template_group" target="_top">
<polygon fill="#ffffff" stroke="transparent" points="274,-120.7 274,-276.7 502,-276.7 502,-120.7 274,-120.7"/>
<polygon fill="#f5f5f5" stroke="transparent" points="276,-251.7 276,-274.7 500,-274.7 500,-251.7 276,-251.7"/>
<polygon fill="none" stroke="#000000" points="276,-251.7 276,-274.7 500,-274.7 500,-251.7 276,-251.7"/>
<text text-anchor="start" x="281" y="-260.3" font-family="Helvetica,sans-Serif" font-weight="bold" font-size="11.00" fill="#000000">template_group</text>
<text text-anchor="start" x="465.0437" y="-259.8" font-family="Helvetica,sans-Serif" font-size="11.00" fill="#000000">[table]</text>
<polygon fill="none" stroke="#000000" points="276,-229.7 276,-251.7 403,-251.7 403,-229.7 276,-229.7"/>
<image xlink:href="../../images/primaryKeys.png" width="11px" height="12px" preserveAspectRatio="xMinYMin meet" x="281" y="-246.7"/>
<text text-anchor="start" x="296" y="-236.8" font-family="Helvetica,sans-Serif" font-size="11.00" fill="#000000">id</text>
<polygon fill="none" stroke="#000000" points="403,-229.7 403,-251.7 500,-251.7 500,-229.7 403,-229.7"/>
<text text-anchor="start" x="406" y="-237.4" font-family="Helvetica,sans-Serif" font-size="11.00" fill="#000000">uuid[2147483647]</text>
<polygon fill="#ffffff" stroke="transparent" points="276,-207.7 276,-229.7 403,-229.7 403,-207.7 276,-207.7"/>
<polygon fill="none" stroke="#000000" points="276,-207.7 276,-229.7 403,-229.7 403,-207.7 276,-207.7"/>
<image xlink:href="../../images/foreignKeys.png" width="11px" height="12px" preserveAspectRatio="xMinYMin meet" x="281" y="-224.7"/>
<text text-anchor="start" x="296" y="-214.8" font-family="Helvetica,sans-Serif" font-size="11.00" fill="#000000">code</text>
<polygon fill="none" stroke="#000000" points="403,-207.7 403,-229.7 500,-229.7 500,-207.7 403,-207.7"/>
<text text-anchor="start" x="406" y="-215.4" font-family="Helvetica,sans-Serif" font-size="11.00" fill="#000000">text[2147483647]</text>
<polygon fill="none" stroke="#000000" points="276,-185.7 276,-207.7 403,-207.7 403,-185.7 276,-185.7"/>
<text text-anchor="start" x="296" y="-192.8" font-family="Helvetica,sans-Serif" font-size="11.00" fill="#000000">name</text>
<polygon fill="none" stroke="#000000" points="403,-185.7 403,-207.7 500,-207.7 500,-185.7 403,-185.7"/>
<text text-anchor="start" x="406" y="-193.4" font-family="Helvetica,sans-Serif" font-size="11.00" fill="#000000">text[2147483647]</text>
<polygon fill="none" stroke="#000000" points="276,-163.7 276,-185.7 403,-185.7 403,-163.7 276,-163.7"/>
<text text-anchor="start" x="296" y="-170.8" font-family="Helvetica,sans-Serif" font-size="11.00" fill="#000000">description</text>
<polygon fill="none" stroke="#000000" points="403,-163.7 403,-185.7 500,-185.7 500,-163.7 403,-163.7"/>
<text text-anchor="start" x="406" y="-171.4" font-family="Helvetica,sans-Serif" font-size="11.00" fill="#000000">text[2147483647]</text>
<polygon fill="none" stroke="#000000" points="276,-141.7 276,-163.7 403,-163.7 403,-141.7 276,-141.7"/>
<text text-anchor="start" x="296" y="-148.8" font-family="Helvetica,sans-Serif" font-size="11.00" fill="#000000">roles</text>
<polygon fill="none" stroke="#000000" points="403,-141.7 403,-163.7 500,-163.7 500,-141.7 403,-141.7"/>
<text text-anchor="start" x="405.9468" y="-149.4" font-family="Helvetica,sans-Serif" font-size="11.00" fill="#000000">_text[2147483647]</text>
<polygon fill="#ffffff" stroke="transparent" points="276,-122.7 276,-141.7 344,-141.7 344,-122.7 276,-122.7"/>
<polygon fill="none" stroke="#000000" points="276,-122.7 276,-141.7 344,-141.7 344,-122.7 276,-122.7"/>
<text text-anchor="start" x="279" y="-128.8" font-family="Helvetica,sans-Serif" font-size="11.00" fill="#000000">&lt; 1</text>
<polygon fill="#ffffff" stroke="transparent" points="344,-122.7 344,-141.7 403,-141.7 403,-122.7 344,-122.7"/>
<polygon fill="none" stroke="#000000" points="344,-122.7 344,-141.7 403,-141.7 403,-122.7 344,-122.7"/>
<text text-anchor="start" x="393.8862" y="-128.8" font-family="Helvetica,sans-Serif" font-size="11.00" fill="#000000"> &#160;</text>
<polygon fill="#ffffff" stroke="transparent" points="403,-122.7 403,-141.7 500,-141.7 500,-122.7 403,-122.7"/>
<polygon fill="none" stroke="#000000" points="403,-122.7 403,-141.7 500,-141.7 500,-122.7 403,-122.7"/>
<text text-anchor="start" x="481.4053" y="-128.8" font-family="Helvetica,sans-Serif" font-size="11.00" fill="#000000">1 &gt;</text>
<polygon fill="none" stroke="#000000" stroke-width="2" points="275,-121.7 275,-275.7 501,-275.7 501,-121.7 275,-121.7"/>
</a>
</g>
</g>
<!-- document_template_group&#45;&gt;template_group -->
<g id="edge3" class="edge">
<title>document_template_group:w&#45;&gt;template_group:e</title>
<path fill="none" stroke="#000000" d="M537.4805,-267.8988C524.2585,-259.6209 520.8716,-240.7 500,-240.7"/>
<polygon fill="#000000" stroke="#000000" points="543.7788,-269.6064 550.5579,-275.1745 547.6394,-270.6532 551.5,-271.7 551.5,-271.7 551.5,-271.7 547.6394,-270.6532 552.4421,-268.2255 543.7788,-269.6064 543.7788,-269.6064"/>
<ellipse fill="none" stroke="#000000" cx="540.6903" cy="-268.769" rx="3.2" ry="3.2"/>
</g>
<!-- template_group&#45;&gt;template_variable_domain -->
<g id="edge5" class="edge">
<title>template_group:w&#45;&gt;template_variable_domain:e</title>
<path fill="none" stroke="#000000" stroke-dasharray="5,2" d="M265.8231,-220.9773C246.3707,-231.1219 253.9693,-271.7 225.5,-271.7"/>
<polygon fill="#000000" stroke="#000000" points="274.3458,-214.9712 276.0928,-222.7782 274.5315,-223.1276 272.7844,-215.3207 274.3458,-214.9712"/>
<polyline fill="none" stroke="#000000" points="276,-218.7 272.0965,-219.5735 "/>
<ellipse fill="none" stroke="#000000" cx="268.9738" cy="-220.2723" rx="3.2" ry="3.2"/>
</g>
<!-- template_variable -->
<g id="node6" class="node">
<title>template_variable</title>
<g id="a_node6"><a xlink:href="../../tables/template_variable.html" xlink:title="template_variable" target="_top">
<polygon fill="#ffffff" stroke="transparent" points="308,-38.2 308,-99.2 468,-99.2 468,-38.2 308,-38.2"/>
<polygon fill="#f5f5f5" stroke="transparent" points="308,-75.7 308,-98.7 468,-98.7 468,-75.7 308,-75.7"/>
<polygon fill="none" stroke="#000000" points="308,-75.7 308,-98.7 468,-98.7 468,-75.7 308,-75.7"/>
<text text-anchor="start" x="313" y="-84.3" font-family="Helvetica,sans-Serif" font-weight="bold" font-size="11.00" fill="#000000">template_variable</text>
<text text-anchor="start" x="433.5219" y="-83.8" font-family="Helvetica,sans-Serif" font-size="11.00" fill="#000000">[table]</text>
<polygon fill="none" stroke="#000000" points="308,-56.7 308,-75.7 468,-75.7 468,-56.7 308,-56.7"/>
<text text-anchor="start" x="311" y="-62.8" font-family="Helvetica,sans-Serif" font-size="11.00" fill="#000000">...</text>
<polygon fill="#ffffff" stroke="transparent" points="308,-37.7 308,-56.7 366,-56.7 366,-37.7 308,-37.7"/>
<polygon fill="none" stroke="#000000" points="308,-37.7 308,-56.7 366,-56.7 366,-37.7 308,-37.7"/>
<text text-anchor="start" x="311" y="-43.8" font-family="Helvetica,sans-Serif" font-size="11.00" fill="#000000">&lt; 1</text>
<polygon fill="#ffffff" stroke="transparent" points="366,-37.7 366,-56.7 428,-56.7 428,-37.7 366,-37.7"/>
<polygon fill="none" stroke="#000000" points="366,-37.7 366,-56.7 428,-56.7 428,-37.7 366,-37.7"/>
<text text-anchor="start" x="386.4956" y="-43.8" font-family="Helvetica,sans-Serif" font-size="11.00" fill="#000000">33 rows</text>
<polygon fill="#ffffff" stroke="transparent" points="428,-37.7 428,-56.7 468,-56.7 468,-37.7 428,-37.7"/>
<polygon fill="none" stroke="#000000" points="428,-37.7 428,-56.7 468,-56.7 468,-37.7 428,-37.7"/>
<text text-anchor="start" x="449.4053" y="-43.8" font-family="Helvetica,sans-Serif" font-size="11.00" fill="#000000">1 &gt;</text>
</a>
</g>
</g>
<!-- template_variable&#45;&gt;template_variable_domain -->
<g id="edge6" class="edge">
<title>template_variable:w&#45;&gt;template_variable_domain:e</title>
<path fill="none" stroke="#000000" d="M293.7812,-68.3315C279.4722,-74.6842 276.3244,-91.7421 266,-110.7 230.7109,-175.4987 299.2848,-271.7 225.5,-271.7"/>
<polygon fill="#000000" stroke="#000000" points="300.1336,-67.1559 308.6552,-69.2399 304.0668,-66.4279 308,-65.7 308,-65.7 308,-65.7 304.0668,-66.4279 307.3448,-62.1601 300.1336,-67.1559 300.1336,-67.1559"/>
<ellipse fill="none" stroke="#000000" cx="296.987" cy="-67.7383" rx="3.2" ry="3.2"/>
</g>
</g>
</svg>
