<?xml version="1.0" encoding="UTF-8" standalone="no"?>
<!DOCTYPE svg PUBLIC "-//W3C//DTD SVG 1.1//EN"
 "http://www.w3.org/Graphics/SVG/1.1/DTD/svg11.dtd">
<!-- Generated by graphviz version 2.40.1 (20161225.0304)
 -->
<!-- Title: twoDegreesRelationshipsDiagram Pages: 1 -->
<svg width="520pt" height="289pt"
 viewBox="0.00 0.00 520.00 288.70" xmlns="http://www.w3.org/2000/svg" xmlns:xlink="http://www.w3.org/1999/xlink">
<g id="graph0" class="graph" transform="scale(1 1) rotate(0) translate(4 284.7)">
<title>twoDegreesRelationshipsDiagram</title>
<polygon fill="#ffffff" stroke="transparent" points="-4,4 -4,-284.7 516,-284.7 516,4 -4,4"/>
<text text-anchor="middle" x="72.4936" y="-7.3" font-family="Helvetica,sans-Serif" font-size="11.00" fill="#000000">Generated by SchemaSpy</text>
<!-- document_template_group -->
<g id="node1" class="node">
<title>document_template_group</title>
<g id="a_node1"><a xlink:href="../../tables/document_template_group.html" xlink:title="document_template_group" target="_top">
<polygon fill="#ffffff" stroke="transparent" points="285,-159.2 285,-267.2 504,-267.2 504,-159.2 285,-159.2"/>
<polygon fill="#f5f5f5" stroke="transparent" points="285.5,-244.2 285.5,-267.2 504.5,-267.2 504.5,-244.2 285.5,-244.2"/>
<polygon fill="none" stroke="#000000" points="285.5,-244.2 285.5,-267.2 504.5,-267.2 504.5,-244.2 285.5,-244.2"/>
<text text-anchor="start" x="290.5" y="-252.8" font-family="Helvetica,sans-Serif" font-weight="bold" font-size="11.00" fill="#000000">document_template_group</text>
<text text-anchor="start" x="470.0219" y="-252.3" font-family="Helvetica,sans-Serif" font-size="11.00" fill="#000000">[table]</text>
<polygon fill="none" stroke="#000000" points="285.5,-222.2 285.5,-244.2 504.5,-244.2 504.5,-222.2 285.5,-222.2"/>
<image xlink:href="../../images/primaryKeys.png" width="11px" height="12px" preserveAspectRatio="xMinYMin meet" x="290.5" y="-239.2"/>
<text text-anchor="start" x="314.5" y="-229.3" font-family="Helvetica,sans-Serif" font-size="11.00" fill="#000000">id</text>
<polygon fill="#ffffff" stroke="transparent" points="285.5,-200.2 285.5,-222.2 504.5,-222.2 504.5,-200.2 285.5,-200.2"/>
<polygon fill="none" stroke="#000000" points="285.5,-200.2 285.5,-222.2 504.5,-222.2 504.5,-200.2 285.5,-200.2"/>
<image xlink:href="../../images/foreignKeys.png" width="11px" height="12px" preserveAspectRatio="xMinYMin meet" x="290.5" y="-217.2"/>
<text text-anchor="start" x="314.5" y="-207.3" font-family="Helvetica,sans-Serif" font-size="11.00" fill="#000000">template_id</text>
<polygon fill="#ffffff" stroke="transparent" points="285.5,-178.2 285.5,-200.2 504.5,-200.2 504.5,-178.2 285.5,-178.2"/>
<polygon fill="none" stroke="#000000" points="285.5,-178.2 285.5,-200.2 504.5,-200.2 504.5,-178.2 285.5,-178.2"/>
<image xlink:href="../../images/foreignKeys.png" width="11px" height="12px" preserveAspectRatio="xMinYMin meet" x="290.5" y="-195.2"/>
<text text-anchor="start" x="314.5" y="-185.3" font-family="Helvetica,sans-Serif" font-size="11.00" fill="#000000">template_group_id</text>
<polygon fill="#ffffff" stroke="transparent" points="285.5,-159.2 285.5,-178.2 393.5,-178.2 393.5,-159.2 285.5,-159.2"/>
<polygon fill="none" stroke="#000000" points="285.5,-159.2 285.5,-178.2 393.5,-178.2 393.5,-159.2 285.5,-159.2"/>
<text text-anchor="start" x="288.5" y="-165.3" font-family="Helvetica,sans-Serif" font-size="11.00" fill="#000000">&lt; 2</text>
<polygon fill="#ffffff" stroke="transparent" points="393.5,-159.2 393.5,-178.2 448.5,-178.2 448.5,-159.2 393.5,-159.2"/>
<polygon fill="none" stroke="#000000" points="393.5,-159.2 393.5,-178.2 448.5,-178.2 448.5,-159.2 393.5,-159.2"/>
<text text-anchor="start" x="439.3862" y="-165.3" font-family="Helvetica,sans-Serif" font-size="11.00" fill="#000000"> &#160;</text>
<polygon fill="#ffffff" stroke="transparent" points="448.5,-159.2 448.5,-178.2 504.5,-178.2 504.5,-159.2 448.5,-159.2"/>
<polygon fill="none" stroke="#000000" points="448.5,-159.2 448.5,-178.2 504.5,-178.2 504.5,-159.2 448.5,-159.2"/>
<text text-anchor="start" x="495.3862" y="-165.3" font-family="Helvetica,sans-Serif" font-size="11.00" fill="#000000"> &#160;</text>
</a>
</g>
</g>
<!-- template_group -->
<g id="node2" class="node">
<title>template_group</title>
<g id="a_node2"><a xlink:href="../../tables/template_group.html" xlink:title="template_group" target="_top">
<polygon fill="#ffffff" stroke="transparent" points="8,-38.2 8,-194.2 236,-194.2 236,-38.2 8,-38.2"/>
<polygon fill="#f5f5f5" stroke="transparent" points="10,-169.2 10,-192.2 234,-192.2 234,-169.2 10,-169.2"/>
<polygon fill="none" stroke="#000000" points="10,-169.2 10,-192.2 234,-192.2 234,-169.2 10,-169.2"/>
<text text-anchor="start" x="15" y="-177.8" font-family="Helvetica,sans-Serif" font-weight="bold" font-size="11.00" fill="#000000">template_group</text>
<text text-anchor="start" x="199.0437" y="-177.3" font-family="Helvetica,sans-Serif" font-size="11.00" fill="#000000">[table]</text>
<polygon fill="none" stroke="#000000" points="10,-147.2 10,-169.2 137,-169.2 137,-147.2 10,-147.2"/>
<image xlink:href="../../images/primaryKeys.png" width="11px" height="12px" preserveAspectRatio="xMinYMin meet" x="15" y="-164.2"/>
<text text-anchor="start" x="30" y="-154.3" font-family="Helvetica,sans-Serif" font-size="11.00" fill="#000000">id</text>
<polygon fill="none" stroke="#000000" points="137,-147.2 137,-169.2 234,-169.2 234,-147.2 137,-147.2"/>
<text text-anchor="start" x="140" y="-154.9" font-family="Helvetica,sans-Serif" font-size="11.00" fill="#000000">uuid[2147483647]</text>
<polygon fill="#ffffff" stroke="transparent" points="10,-125.2 10,-147.2 137,-147.2 137,-125.2 10,-125.2"/>
<polygon fill="none" stroke="#000000" points="10,-125.2 10,-147.2 137,-147.2 137,-125.2 10,-125.2"/>
<image xlink:href="../../images/foreignKeys.png" width="11px" height="12px" preserveAspectRatio="xMinYMin meet" x="15" y="-142.2"/>
<text text-anchor="start" x="30" y="-132.3" font-family="Helvetica,sans-Serif" font-size="11.00" fill="#000000">code</text>
<polygon fill="none" stroke="#000000" points="137,-125.2 137,-147.2 234,-147.2 234,-125.2 137,-125.2"/>
<text text-anchor="start" x="140" y="-132.9" font-family="Helvetica,sans-Serif" font-size="11.00" fill="#000000">text[2147483647]</text>
<polygon fill="none" stroke="#000000" points="10,-103.2 10,-125.2 137,-125.2 137,-103.2 10,-103.2"/>
<text text-anchor="start" x="30" y="-110.3" font-family="Helvetica,sans-Serif" font-size="11.00" fill="#000000">name</text>
<polygon fill="none" stroke="#000000" points="137,-103.2 137,-125.2 234,-125.2 234,-103.2 137,-103.2"/>
<text text-anchor="start" x="140" y="-110.9" font-family="Helvetica,sans-Serif" font-size="11.00" fill="#000000">text[2147483647]</text>
<polygon fill="none" stroke="#000000" points="10,-81.2 10,-103.2 137,-103.2 137,-81.2 10,-81.2"/>
<text text-anchor="start" x="30" y="-88.3" font-family="Helvetica,sans-Serif" font-size="11.00" fill="#000000">description</text>
<polygon fill="none" stroke="#000000" points="137,-81.2 137,-103.2 234,-103.2 234,-81.2 137,-81.2"/>
<text text-anchor="start" x="140" y="-88.9" font-family="Helvetica,sans-Serif" font-size="11.00" fill="#000000">text[2147483647]</text>
<polygon fill="none" stroke="#000000" points="10,-59.2 10,-81.2 137,-81.2 137,-59.2 10,-59.2"/>
<text text-anchor="start" x="30" y="-66.3" font-family="Helvetica,sans-Serif" font-size="11.00" fill="#000000">roles</text>
<polygon fill="none" stroke="#000000" points="137,-59.2 137,-81.2 234,-81.2 234,-59.2 137,-59.2"/>
<text text-anchor="start" x="139.9468" y="-66.9" font-family="Helvetica,sans-Serif" font-size="11.00" fill="#000000">_text[2147483647]</text>
<polygon fill="#ffffff" stroke="transparent" points="10,-40.2 10,-59.2 78,-59.2 78,-40.2 10,-40.2"/>
<polygon fill="none" stroke="#000000" points="10,-40.2 10,-59.2 78,-59.2 78,-40.2 10,-40.2"/>
<text text-anchor="start" x="13" y="-46.3" font-family="Helvetica,sans-Serif" font-size="11.00" fill="#000000">&lt; 0</text>
<polygon fill="#ffffff" stroke="transparent" points="78,-40.2 78,-59.2 137,-59.2 137,-40.2 78,-40.2"/>
<polygon fill="none" stroke="#000000" points="78,-40.2 78,-59.2 137,-59.2 137,-40.2 78,-40.2"/>
<text text-anchor="start" x="127.8862" y="-46.3" font-family="Helvetica,sans-Serif" font-size="11.00" fill="#000000"> &#160;</text>
<polygon fill="#ffffff" stroke="transparent" points="137,-40.2 137,-59.2 234,-59.2 234,-40.2 137,-40.2"/>
<polygon fill="none" stroke="#000000" points="137,-40.2 137,-59.2 234,-59.2 234,-40.2 137,-40.2"/>
<text text-anchor="start" x="215.4053" y="-46.3" font-family="Helvetica,sans-Serif" font-size="11.00" fill="#000000">1 &gt;</text>
<polygon fill="none" stroke="#000000" stroke-width="2" points="9,-39.2 9,-193.2 235,-193.2 235,-39.2 9,-39.2"/>
</a>
</g>
</g>
<!-- document_template_group&#45;&gt;template_group -->
<g id="edge1" class="edge">
<title>document_template_group:w&#45;&gt;template_group:e</title>
<path fill="none" stroke="#000000" d="M271.4805,-185.3988C258.2585,-177.1209 254.8716,-158.2 234,-158.2"/>
<polygon fill="#000000" stroke="#000000" points="277.7788,-187.1064 284.5579,-192.6745 281.6394,-188.1532 285.5,-189.2 285.5,-189.2 285.5,-189.2 281.6394,-188.1532 286.4421,-185.7255 277.7788,-187.1064 277.7788,-187.1064"/>
<ellipse fill="none" stroke="#000000" cx="274.6903" cy="-186.269" rx="3.2" ry="3.2"/>
</g>
<!-- document_template -->
<g id="node3" class="node">
<title>document_template</title>
<g id="a_node3"><a xlink:href="../../tables/document_template.html" xlink:title="document_template" target="_top">
<polygon fill="#ffffff" stroke="transparent" points="35.5,-215.7 35.5,-276.7 208.5,-276.7 208.5,-215.7 35.5,-215.7"/>
<polygon fill="#f5f5f5" stroke="transparent" points="36,-253.2 36,-276.2 209,-276.2 209,-253.2 36,-253.2"/>
<polygon fill="none" stroke="#000000" points="36,-253.2 36,-276.2 209,-276.2 209,-253.2 36,-253.2"/>
<text text-anchor="start" x="41" y="-261.8" font-family="Helvetica,sans-Serif" font-weight="bold" font-size="11.00" fill="#000000">document_template</text>
<text text-anchor="start" x="174.5219" y="-261.3" font-family="Helvetica,sans-Serif" font-size="11.00" fill="#000000">[table]</text>
<polygon fill="none" stroke="#000000" points="36,-234.2 36,-253.2 209,-253.2 209,-234.2 36,-234.2"/>
<text text-anchor="start" x="39" y="-240.3" font-family="Helvetica,sans-Serif" font-size="11.00" fill="#000000">...</text>
<polygon fill="#ffffff" stroke="transparent" points="36,-215.2 36,-234.2 112,-234.2 112,-215.2 36,-215.2"/>
<polygon fill="none" stroke="#000000" points="36,-215.2 36,-234.2 112,-234.2 112,-215.2 36,-215.2"/>
<text text-anchor="start" x="39" y="-221.3" font-family="Helvetica,sans-Serif" font-size="11.00" fill="#000000"> &#160;</text>
<polygon fill="#ffffff" stroke="transparent" points="112,-215.2 112,-234.2 156,-234.2 156,-215.2 112,-215.2"/>
<polygon fill="none" stroke="#000000" points="112,-215.2 112,-234.2 156,-234.2 156,-215.2 112,-215.2"/>
<text text-anchor="start" x="146.8862" y="-221.3" font-family="Helvetica,sans-Serif" font-size="11.00" fill="#000000"> &#160;</text>
<polygon fill="#ffffff" stroke="transparent" points="156,-215.2 156,-234.2 209,-234.2 209,-215.2 156,-215.2"/>
<polygon fill="none" stroke="#000000" points="156,-215.2 156,-234.2 209,-234.2 209,-215.2 156,-215.2"/>
<text text-anchor="start" x="190.4053" y="-221.3" font-family="Helvetica,sans-Serif" font-size="11.00" fill="#000000">3 &gt;</text>
</a>
</g>
</g>
<!-- document_template_group&#45;&gt;document_template -->
<g id="edge2" class="edge">
<title>document_template_group:w&#45;&gt;document_template:e</title>
<path fill="none" stroke="#000000" d="M271.117,-213.1059C247.0663,-219.9949 240.3841,-243.2 209,-243.2"/>
<polygon fill="#000000" stroke="#000000" points="277.5693,-212.251 285.9729,-214.7688 281.5347,-211.7255 285.5,-211.2 285.5,-211.2 285.5,-211.2 281.5347,-211.7255 285.0271,-207.6312 277.5693,-212.251 277.5693,-212.251"/>
<ellipse fill="none" stroke="#000000" cx="274.3971" cy="-212.6713" rx="3.2" ry="3.2"/>
</g>
</g>
</svg>
