<?xml version="1.0" encoding="UTF-8" standalone="no"?>
<!DOCTYPE svg PUBLIC "-//W3C//DTD SVG 1.1//EN"
 "http://www.w3.org/Graphics/SVG/1.1/DTD/svg11.dtd">
<!-- Generated by graphviz version 2.40.1 (20161225.0304)
 -->
<!-- Title: twoDegreesRelationshipsDiagramImplied Pages: 1 -->
<svg width="783pt" height="431pt"
 viewBox="0.00 0.00 783.00 431.20" xmlns="http://www.w3.org/2000/svg" xmlns:xlink="http://www.w3.org/1999/xlink">
<g id="graph0" class="graph" transform="scale(1 1) rotate(0) translate(4 427.2)">
<title>twoDegreesRelationshipsDiagramImplied</title>
<polygon fill="#ffffff" stroke="transparent" points="-4,4 -4,-427.2 779,-427.2 779,4 -4,4"/>
<text text-anchor="middle" x="72.4936" y="-7.3" font-family="Helvetica,sans-Serif" font-size="11.00" fill="#000000">Generated by SchemaSpy</text>
<!-- document_template -->
<g id="node1" class="node">
<title>document_template</title>
<g id="a_node1"><a xlink:href="../../tables/document_template.html" xlink:title="document_template" target="_top">
<polygon fill="#ffffff" stroke="transparent" points="300,-276.2 300,-337.2 473,-337.2 473,-276.2 300,-276.2"/>
<polygon fill="#f5f5f5" stroke="transparent" points="300.5,-313.7 300.5,-336.7 473.5,-336.7 473.5,-313.7 300.5,-313.7"/>
<polygon fill="none" stroke="#000000" points="300.5,-313.7 300.5,-336.7 473.5,-336.7 473.5,-313.7 300.5,-313.7"/>
<text text-anchor="start" x="305.5" y="-322.3" font-family="Helvetica,sans-Serif" font-weight="bold" font-size="11.00" fill="#000000">document_template</text>
<text text-anchor="start" x="439.0219" y="-321.8" font-family="Helvetica,sans-Serif" font-size="11.00" fill="#000000">[table]</text>
<polygon fill="none" stroke="#000000" points="300.5,-294.7 300.5,-313.7 473.5,-313.7 473.5,-294.7 300.5,-294.7"/>
<text text-anchor="start" x="303.5" y="-300.8" font-family="Helvetica,sans-Serif" font-size="11.00" fill="#000000">...</text>
<polygon fill="#ffffff" stroke="transparent" points="300.5,-275.7 300.5,-294.7 380.5,-294.7 380.5,-275.7 300.5,-275.7"/>
<polygon fill="none" stroke="#000000" points="300.5,-275.7 300.5,-294.7 380.5,-294.7 380.5,-275.7 300.5,-275.7"/>
<text text-anchor="start" x="303.5" y="-281.8" font-family="Helvetica,sans-Serif" font-size="11.00" fill="#000000">&lt; 1</text>
<polygon fill="#ffffff" stroke="transparent" points="380.5,-275.7 380.5,-294.7 422.5,-294.7 422.5,-275.7 380.5,-275.7"/>
<polygon fill="none" stroke="#000000" points="380.5,-275.7 380.5,-294.7 422.5,-294.7 422.5,-275.7 380.5,-275.7"/>
<text text-anchor="start" x="413.3862" y="-281.8" font-family="Helvetica,sans-Serif" font-size="11.00" fill="#000000"> &#160;</text>
<polygon fill="#ffffff" stroke="transparent" points="422.5,-275.7 422.5,-294.7 473.5,-294.7 473.5,-275.7 422.5,-275.7"/>
<polygon fill="none" stroke="#000000" points="422.5,-275.7 422.5,-294.7 473.5,-294.7 473.5,-275.7 422.5,-275.7"/>
<text text-anchor="start" x="454.9053" y="-281.8" font-family="Helvetica,sans-Serif" font-size="11.00" fill="#000000">2 &gt;</text>
</a>
</g>
</g>
<!-- template_variable_domain -->
<g id="node2" class="node">
<title>template_variable_domain</title>
<g id="a_node2"><a xlink:href="../../tables/template_variable_domain.html" xlink:title="template_variable_domain" target="_top">
<polygon fill="#ffffff" stroke="transparent" points="8,-126.2 8,-231.2 225,-231.2 225,-126.2 8,-126.2"/>
<polygon fill="#f5f5f5" stroke="transparent" points="8.5,-207.7 8.5,-230.7 225.5,-230.7 225.5,-207.7 8.5,-207.7"/>
<polygon fill="none" stroke="#000000" points="8.5,-207.7 8.5,-230.7 225.5,-230.7 225.5,-207.7 8.5,-207.7"/>
<text text-anchor="start" x="13.5" y="-216.3" font-family="Helvetica,sans-Serif" font-weight="bold" font-size="11.00" fill="#000000">template_variable_domain</text>
<text text-anchor="start" x="191.0219" y="-215.8" font-family="Helvetica,sans-Serif" font-size="11.00" fill="#000000">[table]</text>
<polygon fill="none" stroke="#000000" points="8.5,-185.7 8.5,-207.7 225.5,-207.7 225.5,-185.7 8.5,-185.7"/>
<image xlink:href="../../images/primaryKeys.png" width="11px" height="12px" preserveAspectRatio="xMinYMin meet" x="13.5" y="-202.7"/>
<text text-anchor="start" x="37.5" y="-192.8" font-family="Helvetica,sans-Serif" font-size="11.00" fill="#000000">code</text>
<polygon fill="#ffffff" stroke="transparent" points="8.5,-163.7 8.5,-185.7 225.5,-185.7 225.5,-163.7 8.5,-163.7"/>
<polygon fill="none" stroke="#000000" points="8.5,-163.7 8.5,-185.7 225.5,-185.7 225.5,-163.7 8.5,-163.7"/>
<text text-anchor="start" x="37.5" y="-170.8" font-family="Helvetica,sans-Serif" font-size="11.00" fill="#000000">sequence_number</text>
<polygon fill="none" stroke="#000000" points="8.5,-144.7 8.5,-163.7 225.5,-163.7 225.5,-144.7 8.5,-144.7"/>
<text text-anchor="start" x="11.5" y="-150.8" font-family="Helvetica,sans-Serif" font-size="11.00" fill="#000000">...</text>
<polygon fill="#ffffff" stroke="transparent" points="8.5,-125.7 8.5,-144.7 106.5,-144.7 106.5,-125.7 8.5,-125.7"/>
<polygon fill="none" stroke="#000000" points="8.5,-125.7 8.5,-144.7 106.5,-144.7 106.5,-125.7 8.5,-125.7"/>
<text text-anchor="start" x="11.5" y="-131.8" font-family="Helvetica,sans-Serif" font-size="11.00" fill="#000000"> &#160;</text>
<polygon fill="#ffffff" stroke="transparent" points="106.5,-125.7 106.5,-144.7 161.5,-144.7 161.5,-125.7 106.5,-125.7"/>
<polygon fill="none" stroke="#000000" points="106.5,-125.7 106.5,-144.7 161.5,-144.7 161.5,-125.7 106.5,-125.7"/>
<text text-anchor="start" x="152.3862" y="-131.8" font-family="Helvetica,sans-Serif" font-size="11.00" fill="#000000"> &#160;</text>
<polygon fill="#ffffff" stroke="transparent" points="161.5,-125.7 161.5,-144.7 225.5,-144.7 225.5,-125.7 161.5,-125.7"/>
<polygon fill="none" stroke="#000000" points="161.5,-125.7 161.5,-144.7 225.5,-144.7 225.5,-125.7 161.5,-125.7"/>
<text text-anchor="start" x="206.9053" y="-131.8" font-family="Helvetica,sans-Serif" font-size="11.00" fill="#000000">5 &gt;</text>
</a>
</g>
</g>
<!-- document_template&#45;&gt;template_variable_domain -->
<g id="edge1" class="edge">
<title>document_template:w&#45;&gt;template_variable_domain:e</title>
<path fill="none" stroke="#000000" stroke-dasharray="5,2" d="M290.185,-302.3471C247.4531,-289.9609 279.7179,-196.7 225.5,-196.7"/>
<polygon fill="#000000" stroke="#000000" points="300.227,-299.6299 299.1866,-307.562 297.6002,-307.3539 298.6406,-299.4218 300.227,-299.6299"/>
<polyline fill="none" stroke="#000000" points="300.5,-303.7 296.534,-303.1798 "/>
<ellipse fill="none" stroke="#000000" cx="293.3611" cy="-302.7636" rx="3.2" ry="3.2"/>
</g>
<!-- document_template_audit -->
<g id="node3" class="node">
<title>document_template_audit</title>
<g id="a_node3"><a xlink:href="../../tables/document_template_audit.html" xlink:title="document_template_audit" target="_top">
<polygon fill="#ffffff" stroke="transparent" points="279.5,-358.2 279.5,-419.2 493.5,-419.2 493.5,-358.2 279.5,-358.2"/>
<polygon fill="#f5f5f5" stroke="transparent" points="279.5,-395.7 279.5,-418.7 493.5,-418.7 493.5,-395.7 279.5,-395.7"/>
<polygon fill="none" stroke="#000000" points="279.5,-395.7 279.5,-418.7 493.5,-418.7 493.5,-395.7 279.5,-395.7"/>
<text text-anchor="start" x="284.5" y="-404.3" font-family="Helvetica,sans-Serif" font-weight="bold" font-size="11.00" fill="#000000">document_template_audit</text>
<text text-anchor="start" x="459.0219" y="-403.8" font-family="Helvetica,sans-Serif" font-size="11.00" fill="#000000">[table]</text>
<polygon fill="none" stroke="#000000" points="279.5,-376.7 279.5,-395.7 493.5,-395.7 493.5,-376.7 279.5,-376.7"/>
<text text-anchor="start" x="282.5" y="-382.8" font-family="Helvetica,sans-Serif" font-size="11.00" fill="#000000">...</text>
<polygon fill="#ffffff" stroke="transparent" points="279.5,-357.7 279.5,-376.7 384.5,-376.7 384.5,-357.7 279.5,-357.7"/>
<polygon fill="none" stroke="#000000" points="279.5,-357.7 279.5,-376.7 384.5,-376.7 384.5,-357.7 279.5,-357.7"/>
<text text-anchor="start" x="282.5" y="-363.8" font-family="Helvetica,sans-Serif" font-size="11.00" fill="#000000">&lt; 2</text>
<polygon fill="#ffffff" stroke="transparent" points="384.5,-357.7 384.5,-376.7 438.5,-376.7 438.5,-357.7 384.5,-357.7"/>
<polygon fill="none" stroke="#000000" points="384.5,-357.7 384.5,-376.7 438.5,-376.7 438.5,-357.7 384.5,-357.7"/>
<text text-anchor="start" x="429.3862" y="-363.8" font-family="Helvetica,sans-Serif" font-size="11.00" fill="#000000"> &#160;</text>
<polygon fill="#ffffff" stroke="transparent" points="438.5,-357.7 438.5,-376.7 493.5,-376.7 493.5,-357.7 438.5,-357.7"/>
<polygon fill="none" stroke="#000000" points="438.5,-357.7 438.5,-376.7 493.5,-376.7 493.5,-357.7 438.5,-357.7"/>
<text text-anchor="start" x="484.3862" y="-363.8" font-family="Helvetica,sans-Serif" font-size="11.00" fill="#000000"> &#160;</text>
</a>
</g>
</g>
<!-- document_template_audit&#45;&gt;template_variable_domain -->
<g id="edge2" class="edge">
<title>document_template_audit:w&#45;&gt;template_variable_domain:e</title>
<path fill="none" stroke="#000000" stroke-dasharray="5,2" d="M265.0897,-383.4458C206.8362,-362.1219 307.2306,-196.7 225.5,-196.7"/>
<polygon fill="#000000" stroke="#000000" points="271.5961,-384.4635 278.9436,-389.2567 275.5481,-385.0818 279.5,-385.7 279.5,-385.7 279.5,-385.7 275.5481,-385.0818 280.0564,-382.1433 271.5961,-384.4635 271.5961,-384.4635"/>
<ellipse fill="none" stroke="#000000" cx="268.4346" cy="-383.969" rx="3.2" ry="3.2"/>
</g>
<!-- document_template_group -->
<g id="node4" class="node">
<title>document_template_group</title>
<g id="a_node4"><a xlink:href="../../tables/document_template_group.html" xlink:title="document_template_group" target="_top">
<polygon fill="#ffffff" stroke="transparent" points="548,-219.7 548,-327.7 767,-327.7 767,-219.7 548,-219.7"/>
<polygon fill="#f5f5f5" stroke="transparent" points="548.5,-304.7 548.5,-327.7 767.5,-327.7 767.5,-304.7 548.5,-304.7"/>
<polygon fill="none" stroke="#000000" points="548.5,-304.7 548.5,-327.7 767.5,-327.7 767.5,-304.7 548.5,-304.7"/>
<text text-anchor="start" x="553.5" y="-313.3" font-family="Helvetica,sans-Serif" font-weight="bold" font-size="11.00" fill="#000000">document_template_group</text>
<text text-anchor="start" x="733.0219" y="-312.8" font-family="Helvetica,sans-Serif" font-size="11.00" fill="#000000">[table]</text>
<polygon fill="none" stroke="#000000" points="548.5,-282.7 548.5,-304.7 767.5,-304.7 767.5,-282.7 548.5,-282.7"/>
<image xlink:href="../../images/primaryKeys.png" width="11px" height="12px" preserveAspectRatio="xMinYMin meet" x="553.5" y="-299.7"/>
<text text-anchor="start" x="577.5" y="-289.8" font-family="Helvetica,sans-Serif" font-size="11.00" fill="#000000">id</text>
<polygon fill="#ffffff" stroke="transparent" points="548.5,-260.7 548.5,-282.7 767.5,-282.7 767.5,-260.7 548.5,-260.7"/>
<polygon fill="none" stroke="#000000" points="548.5,-260.7 548.5,-282.7 767.5,-282.7 767.5,-260.7 548.5,-260.7"/>
<image xlink:href="../../images/foreignKeys.png" width="11px" height="12px" preserveAspectRatio="xMinYMin meet" x="553.5" y="-277.7"/>
<text text-anchor="start" x="577.5" y="-267.8" font-family="Helvetica,sans-Serif" font-size="11.00" fill="#000000">template_id</text>
<polygon fill="#ffffff" stroke="transparent" points="548.5,-238.7 548.5,-260.7 767.5,-260.7 767.5,-238.7 548.5,-238.7"/>
<polygon fill="none" stroke="#000000" points="548.5,-238.7 548.5,-260.7 767.5,-260.7 767.5,-238.7 548.5,-238.7"/>
<image xlink:href="../../images/foreignKeys.png" width="11px" height="12px" preserveAspectRatio="xMinYMin meet" x="553.5" y="-255.7"/>
<text text-anchor="start" x="577.5" y="-245.8" font-family="Helvetica,sans-Serif" font-size="11.00" fill="#000000">template_group_id</text>
<polygon fill="#ffffff" stroke="transparent" points="548.5,-219.7 548.5,-238.7 656.5,-238.7 656.5,-219.7 548.5,-219.7"/>
<polygon fill="none" stroke="#000000" points="548.5,-219.7 548.5,-238.7 656.5,-238.7 656.5,-219.7 548.5,-219.7"/>
<text text-anchor="start" x="551.5" y="-225.8" font-family="Helvetica,sans-Serif" font-size="11.00" fill="#000000">&lt; 2</text>
<polygon fill="#ffffff" stroke="transparent" points="656.5,-219.7 656.5,-238.7 711.5,-238.7 711.5,-219.7 656.5,-219.7"/>
<polygon fill="none" stroke="#000000" points="656.5,-219.7 656.5,-238.7 711.5,-238.7 711.5,-219.7 656.5,-219.7"/>
<text text-anchor="start" x="702.3862" y="-225.8" font-family="Helvetica,sans-Serif" font-size="11.00" fill="#000000"> &#160;</text>
<polygon fill="#ffffff" stroke="transparent" points="711.5,-219.7 711.5,-238.7 767.5,-238.7 767.5,-219.7 711.5,-219.7"/>
<polygon fill="none" stroke="#000000" points="711.5,-219.7 711.5,-238.7 767.5,-238.7 767.5,-219.7 711.5,-219.7"/>
<text text-anchor="start" x="758.3862" y="-225.8" font-family="Helvetica,sans-Serif" font-size="11.00" fill="#000000"> &#160;</text>
</a>
</g>
</g>
<!-- document_template_group&#45;&gt;document_template -->
<g id="edge4" class="edge">
<title>document_template_group:w&#45;&gt;document_template:e</title>
<path fill="none" stroke="#000000" d="M534.0464,-273.7017C510.7093,-280.7073 504.2196,-303.7 473.5,-303.7"/>
<polygon fill="#000000" stroke="#000000" points="540.5756,-272.7975 548.9939,-275.266 544.5378,-272.2488 548.5,-271.7 548.5,-271.7 548.5,-271.7 544.5378,-272.2488 548.0061,-268.134 540.5756,-272.7975 540.5756,-272.7975"/>
<ellipse fill="none" stroke="#000000" cx="537.4059" cy="-273.2365" rx="3.2" ry="3.2"/>
</g>
<!-- template_group -->
<g id="node5" class="node">
<title>template_group</title>
<g id="a_node5"><a xlink:href="../../tables/template_group.html" xlink:title="template_group" target="_top">
<polygon fill="#ffffff" stroke="transparent" points="274,-120.7 274,-254.7 499,-254.7 499,-120.7 274,-120.7"/>
<polygon fill="#f5f5f5" stroke="transparent" points="276.5,-229.7 276.5,-252.7 497.5,-252.7 497.5,-229.7 276.5,-229.7"/>
<polygon fill="none" stroke="#000000" points="276.5,-229.7 276.5,-252.7 497.5,-252.7 497.5,-229.7 276.5,-229.7"/>
<text text-anchor="start" x="281.5" y="-238.3" font-family="Helvetica,sans-Serif" font-weight="bold" font-size="11.00" fill="#000000">template_group</text>
<text text-anchor="start" x="462.5437" y="-237.8" font-family="Helvetica,sans-Serif" font-size="11.00" fill="#000000">[table]</text>
<polygon fill="none" stroke="#000000" points="276.5,-207.7 276.5,-229.7 403.5,-229.7 403.5,-207.7 276.5,-207.7"/>
<image xlink:href="../../images/primaryKeys.png" width="11px" height="12px" preserveAspectRatio="xMinYMin meet" x="281.5" y="-224.7"/>
<text text-anchor="start" x="296.5" y="-214.8" font-family="Helvetica,sans-Serif" font-size="11.00" fill="#000000">id</text>
<polygon fill="none" stroke="#000000" points="403.5,-207.7 403.5,-229.7 497.5,-229.7 497.5,-207.7 403.5,-207.7"/>
<text text-anchor="start" x="406.4758" y="-215.4" font-family="Helvetica,sans-Serif" font-size="11.00" fill="#000000">uuid[2147483647]</text>
<polygon fill="#ffffff" stroke="transparent" points="276.5,-185.7 276.5,-207.7 403.5,-207.7 403.5,-185.7 276.5,-185.7"/>
<polygon fill="none" stroke="#000000" points="276.5,-185.7 276.5,-207.7 403.5,-207.7 403.5,-185.7 276.5,-185.7"/>
<image xlink:href="../../images/foreignKeys.png" width="11px" height="12px" preserveAspectRatio="xMinYMin meet" x="281.5" y="-202.7"/>
<text text-anchor="start" x="296.5" y="-192.8" font-family="Helvetica,sans-Serif" font-size="11.00" fill="#000000">code</text>
<polygon fill="none" stroke="#000000" points="403.5,-185.7 403.5,-207.7 497.5,-207.7 497.5,-185.7 403.5,-185.7"/>
<text text-anchor="start" x="406.5" y="-193.4" font-family="Helvetica,sans-Serif" font-size="11.00" fill="#000000">text[2147483647]</text>
<polygon fill="none" stroke="#000000" points="276.5,-163.7 276.5,-185.7 403.5,-185.7 403.5,-163.7 276.5,-163.7"/>
<text text-anchor="start" x="296.5" y="-170.8" font-family="Helvetica,sans-Serif" font-size="11.00" fill="#000000">name</text>
<polygon fill="none" stroke="#000000" points="403.5,-163.7 403.5,-185.7 497.5,-185.7 497.5,-163.7 403.5,-163.7"/>
<text text-anchor="start" x="406.5" y="-171.4" font-family="Helvetica,sans-Serif" font-size="11.00" fill="#000000">text[2147483647]</text>
<polygon fill="none" stroke="#000000" points="276.5,-141.7 276.5,-163.7 403.5,-163.7 403.5,-141.7 276.5,-141.7"/>
<text text-anchor="start" x="296.5" y="-148.8" font-family="Helvetica,sans-Serif" font-size="11.00" fill="#000000">description</text>
<polygon fill="none" stroke="#000000" points="403.5,-141.7 403.5,-163.7 497.5,-163.7 497.5,-141.7 403.5,-141.7"/>
<text text-anchor="start" x="406.5" y="-149.4" font-family="Helvetica,sans-Serif" font-size="11.00" fill="#000000">text[2147483647]</text>
<polygon fill="#ffffff" stroke="transparent" points="276.5,-122.7 276.5,-141.7 344.5,-141.7 344.5,-122.7 276.5,-122.7"/>
<polygon fill="none" stroke="#000000" points="276.5,-122.7 276.5,-141.7 344.5,-141.7 344.5,-122.7 276.5,-122.7"/>
<text text-anchor="start" x="279.5" y="-128.8" font-family="Helvetica,sans-Serif" font-size="11.00" fill="#000000">&lt; 1</text>
<polygon fill="#ffffff" stroke="transparent" points="344.5,-122.7 344.5,-141.7 403.5,-141.7 403.5,-122.7 344.5,-122.7"/>
<polygon fill="none" stroke="#000000" points="344.5,-122.7 344.5,-141.7 403.5,-141.7 403.5,-122.7 344.5,-122.7"/>
<text text-anchor="start" x="394.3862" y="-128.8" font-family="Helvetica,sans-Serif" font-size="11.00" fill="#000000"> &#160;</text>
<polygon fill="#ffffff" stroke="transparent" points="403.5,-122.7 403.5,-141.7 497.5,-141.7 497.5,-122.7 403.5,-122.7"/>
<polygon fill="none" stroke="#000000" points="403.5,-122.7 403.5,-141.7 497.5,-141.7 497.5,-122.7 403.5,-122.7"/>
<text text-anchor="start" x="478.9053" y="-128.8" font-family="Helvetica,sans-Serif" font-size="11.00" fill="#000000">1 &gt;</text>
<polygon fill="none" stroke="#000000" stroke-width="2" points="275,-121.7 275,-253.7 498,-253.7 498,-121.7 275,-121.7"/>
</a>
</g>
</g>
<!-- document_template_group&#45;&gt;template_group -->
<g id="edge3" class="edge">
<title>document_template_group:w&#45;&gt;template_group:e</title>
<path fill="none" stroke="#000000" d="M534.5967,-245.8988C521.5044,-237.6209 518.2231,-218.7 497.5,-218.7"/>
<polygon fill="#000000" stroke="#000000" points="540.7832,-247.5902 547.5506,-253.1726 544.6416,-248.6451 548.5,-249.7 548.5,-249.7 548.5,-249.7 544.6416,-248.6451 549.4494,-246.2274 540.7832,-247.5902 540.7832,-247.5902"/>
<ellipse fill="none" stroke="#000000" cx="537.6965" cy="-246.7462" rx="3.2" ry="3.2"/>
</g>
<!-- template_group&#45;&gt;template_variable_domain -->
<g id="edge5" class="edge">
<title>template_group:w&#45;&gt;template_variable_domain:e</title>
<path fill="none" stroke="#000000" stroke-dasharray="5,2" d="M265.7307,-196.7C251.248,-196.7 244.0938,-196.7 225.5,-196.7"/>
<polygon fill="#000000" stroke="#000000" points="275.7,-192.7 275.7,-200.7 274.1,-200.7 274.1,-192.7 275.7,-192.7"/>
<polyline fill="none" stroke="#000000" points="276.5,-196.7 272.5,-196.7 "/>
<ellipse fill="none" stroke="#000000" cx="269.3" cy="-196.7001" rx="3.2" ry="3.2"/>
</g>
<!-- template_variable -->
<g id="node6" class="node">
<title>template_variable</title>
<g id="a_node6"><a xlink:href="../../tables/template_variable.html" xlink:title="template_variable" target="_top">
<polygon fill="#ffffff" stroke="transparent" points="306.5,-38.2 306.5,-99.2 466.5,-99.2 466.5,-38.2 306.5,-38.2"/>
<polygon fill="#f5f5f5" stroke="transparent" points="306.5,-75.7 306.5,-98.7 466.5,-98.7 466.5,-75.7 306.5,-75.7"/>
<polygon fill="none" stroke="#000000" points="306.5,-75.7 306.5,-98.7 466.5,-98.7 466.5,-75.7 306.5,-75.7"/>
<text text-anchor="start" x="311.5" y="-84.3" font-family="Helvetica,sans-Serif" font-weight="bold" font-size="11.00" fill="#000000">template_variable</text>
<text text-anchor="start" x="432.0219" y="-83.8" font-family="Helvetica,sans-Serif" font-size="11.00" fill="#000000">[table]</text>
<polygon fill="none" stroke="#000000" points="306.5,-56.7 306.5,-75.7 466.5,-75.7 466.5,-56.7 306.5,-56.7"/>
<text text-anchor="start" x="309.5" y="-62.8" font-family="Helvetica,sans-Serif" font-size="11.00" fill="#000000">...</text>
<polygon fill="#ffffff" stroke="transparent" points="306.5,-37.7 306.5,-56.7 380.5,-56.7 380.5,-37.7 306.5,-37.7"/>
<polygon fill="none" stroke="#000000" points="306.5,-37.7 306.5,-56.7 380.5,-56.7 380.5,-37.7 306.5,-37.7"/>
<text text-anchor="start" x="309.5" y="-43.8" font-family="Helvetica,sans-Serif" font-size="11.00" fill="#000000">&lt; 2</text>
<polygon fill="#ffffff" stroke="transparent" points="380.5,-37.7 380.5,-56.7 418.5,-56.7 418.5,-37.7 380.5,-37.7"/>
<polygon fill="none" stroke="#000000" points="380.5,-37.7 380.5,-56.7 418.5,-56.7 418.5,-37.7 380.5,-37.7"/>
<text text-anchor="start" x="409.3862" y="-43.8" font-family="Helvetica,sans-Serif" font-size="11.00" fill="#000000"> &#160;</text>
<polygon fill="#ffffff" stroke="transparent" points="418.5,-37.7 418.5,-56.7 466.5,-56.7 466.5,-37.7 418.5,-37.7"/>
<polygon fill="none" stroke="#000000" points="418.5,-37.7 418.5,-56.7 466.5,-56.7 466.5,-37.7 418.5,-37.7"/>
<text text-anchor="start" x="447.9053" y="-43.8" font-family="Helvetica,sans-Serif" font-size="11.00" fill="#000000">1 &gt;</text>
</a>
</g>
</g>
<!-- template_variable&#45;&gt;template_variable_domain -->
<g id="edge6" class="edge">
<title>template_variable:w&#45;&gt;template_variable_domain:e</title>
<path fill="none" stroke="#000000" stroke-dasharray="5,2" d="M295.8868,-64.8261C279.8089,-66.5519 278.4738,-85.0636 266,-103.7 242.2762,-139.1442 268.151,-190.7 225.5,-196.7"/>
<polygon fill="#000000" stroke="#000000" points="306.031,-61.6478 305.3744,-69.6208 303.7798,-69.4895 304.4364,-61.5165 306.031,-61.6478"/>
<polyline fill="none" stroke="#000000" points="306.5,-65.7 302.5135,-65.3717 "/>
<ellipse fill="none" stroke="#000000" cx="299.3243" cy="-65.1091" rx="3.2" ry="3.2"/>
</g>
<!-- template_variable&#45;&gt;template_variable_domain -->
<g id="edge7" class="edge">
<title>template_variable:w&#45;&gt;template_variable_domain:e</title>
<path fill="none" stroke="#000000" d="M293.3392,-71.688C279.6262,-81.6092 277.7808,-99.099 266,-116.7 242.2762,-152.1442 268.151,-203.7 225.5,-196.7"/>
<polygon fill="#000000" stroke="#000000" points="299.2183,-69.0131 307.9909,-68.9768 302.8591,-67.3566 306.5,-65.7 306.5,-65.7 306.5,-65.7 302.8591,-67.3566 305.0091,-62.4232 299.2183,-69.0131 299.2183,-69.0131"/>
<ellipse fill="none" stroke="#000000" cx="296.3056" cy="-70.3384" rx="3.2" ry="3.2"/>
</g>
</g>
</svg>
