<?xml version="1.0" encoding="UTF-8" standalone="no"?>
<!DOCTYPE svg PUBLIC "-//W3C//DTD SVG 1.1//EN"
 "http://www.w3.org/Graphics/SVG/1.1/DTD/svg11.dtd">
<!-- Generated by graphviz version 2.40.1 (20161225.0304)
 -->
<!-- Title: oneDegreeRelationshipsDiagramImplied Pages: 1 -->
<svg width="580pt" height="643pt"
 viewBox="0.00 0.00 580.00 643.20" xmlns="http://www.w3.org/2000/svg" xmlns:xlink="http://www.w3.org/1999/xlink">
<g id="graph0" class="graph" transform="scale(1 1) rotate(0) translate(4 639.2)">
<title>oneDegreeRelationshipsDiagramImplied</title>
<polygon fill="#ffffff" stroke="transparent" points="-4,4 -4,-639.2 576,-639.2 576,4 -4,4"/>
<text text-anchor="middle" x="72.4936" y="-7.3" font-family="Helvetica,sans-Serif" font-size="11.00" fill="#000000">Generated by SchemaSpy</text>
<!-- document_template -->
<g id="node1" class="node">
<title>document_template</title>
<g id="a_node1"><a xlink:href="../../tables/document_template.html" xlink:title="document_template" target="_top">
<polygon fill="#ffffff" stroke="transparent" points="370.5,-504.2 370.5,-631.2 543.5,-631.2 543.5,-504.2 370.5,-504.2"/>
<polygon fill="#f5f5f5" stroke="transparent" points="371,-607.7 371,-630.7 544,-630.7 544,-607.7 371,-607.7"/>
<polygon fill="none" stroke="#000000" points="371,-607.7 371,-630.7 544,-630.7 544,-607.7 371,-607.7"/>
<text text-anchor="start" x="376" y="-616.3" font-family="Helvetica,sans-Serif" font-weight="bold" font-size="11.00" fill="#000000">document_template</text>
<text text-anchor="start" x="509.5219" y="-615.8" font-family="Helvetica,sans-Serif" font-size="11.00" fill="#000000">[table]</text>
<polygon fill="none" stroke="#000000" points="371,-585.7 371,-607.7 544,-607.7 544,-585.7 371,-585.7"/>
<image xlink:href="../../images/primaryKeys.png" width="11px" height="12px" preserveAspectRatio="xMinYMin meet" x="376" y="-602.7"/>
<text text-anchor="start" x="400" y="-592.8" font-family="Helvetica,sans-Serif" font-size="11.00" fill="#000000">id</text>
<polygon fill="#ffffff" stroke="transparent" points="371,-563.7 371,-585.7 544,-585.7 544,-563.7 371,-563.7"/>
<polygon fill="none" stroke="#000000" points="371,-563.7 371,-585.7 544,-585.7 544,-563.7 371,-563.7"/>
<image xlink:href="../../images/foreignKeys.png" width="11px" height="12px" preserveAspectRatio="xMinYMin meet" x="376" y="-580.7"/>
<text text-anchor="start" x="400" y="-570.8" font-family="Helvetica,sans-Serif" font-size="11.00" fill="#000000">code</text>
<polygon fill="#ffffff" stroke="transparent" points="371,-541.7 371,-563.7 544,-563.7 544,-541.7 371,-541.7"/>
<polygon fill="none" stroke="#000000" points="371,-541.7 371,-563.7 544,-563.7 544,-541.7 371,-541.7"/>
<text text-anchor="start" x="400" y="-548.8" font-family="Helvetica,sans-Serif" font-size="11.00" fill="#000000">external_reference</text>
<polygon fill="none" stroke="#000000" points="371,-522.7 371,-541.7 544,-541.7 544,-522.7 371,-522.7"/>
<text text-anchor="start" x="374" y="-528.8" font-family="Helvetica,sans-Serif" font-size="11.00" fill="#000000">...</text>
<polygon fill="#ffffff" stroke="transparent" points="371,-503.7 371,-522.7 451,-522.7 451,-503.7 371,-503.7"/>
<polygon fill="none" stroke="#000000" points="371,-503.7 371,-522.7 451,-522.7 451,-503.7 371,-503.7"/>
<text text-anchor="start" x="374" y="-509.8" font-family="Helvetica,sans-Serif" font-size="11.00" fill="#000000">&lt; 1</text>
<polygon fill="#ffffff" stroke="transparent" points="451,-503.7 451,-522.7 493,-522.7 493,-503.7 451,-503.7"/>
<polygon fill="none" stroke="#000000" points="451,-503.7 451,-522.7 493,-522.7 493,-503.7 451,-503.7"/>
<text text-anchor="start" x="483.8862" y="-509.8" font-family="Helvetica,sans-Serif" font-size="11.00" fill="#000000"> &#160;</text>
<polygon fill="#ffffff" stroke="transparent" points="493,-503.7 493,-522.7 544,-522.7 544,-503.7 493,-503.7"/>
<polygon fill="none" stroke="#000000" points="493,-503.7 493,-522.7 544,-522.7 544,-503.7 493,-503.7"/>
<text text-anchor="start" x="525.4053" y="-509.8" font-family="Helvetica,sans-Serif" font-size="11.00" fill="#000000">2 &gt;</text>
</a>
</g>
</g>
<!-- template_variable_domain -->
<g id="node2" class="node">
<title>template_variable_domain</title>
<g id="a_node2"><a xlink:href="../../tables/template_variable_domain.html" xlink:title="template_variable_domain" target="_top">
<polygon fill="#ffffff" stroke="transparent" points="8,-180.7 8,-292.7 301,-292.7 301,-180.7 8,-180.7"/>
<polygon fill="#f5f5f5" stroke="transparent" points="10.5,-267.7 10.5,-290.7 299.5,-290.7 299.5,-267.7 10.5,-267.7"/>
<polygon fill="none" stroke="#000000" points="10.5,-267.7 10.5,-290.7 299.5,-290.7 299.5,-267.7 10.5,-267.7"/>
<text text-anchor="start" x="15.5" y="-276.3" font-family="Helvetica,sans-Serif" font-weight="bold" font-size="11.00" fill="#000000">template_variable_domain</text>
<text text-anchor="start" x="264.5437" y="-275.8" font-family="Helvetica,sans-Serif" font-size="11.00" fill="#000000">[table]</text>
<polygon fill="none" stroke="#000000" points="10.5,-245.7 10.5,-267.7 209.5,-267.7 209.5,-245.7 10.5,-245.7"/>
<image xlink:href="../../images/primaryKeys.png" width="11px" height="12px" preserveAspectRatio="xMinYMin meet" x="15.5" y="-262.7"/>
<text text-anchor="start" x="30.5" y="-252.8" font-family="Helvetica,sans-Serif" font-size="11.00" fill="#000000">code</text>
<polygon fill="none" stroke="#000000" points="209.5,-245.7 209.5,-267.7 299.5,-267.7 299.5,-245.7 209.5,-245.7"/>
<text text-anchor="start" x="212.0043" y="-253.4" font-family="Helvetica,sans-Serif" font-size="11.00" fill="#000000">text[2147483647]</text>
<polygon fill="none" stroke="#000000" points="10.5,-223.7 10.5,-245.7 209.5,-245.7 209.5,-223.7 10.5,-223.7"/>
<text text-anchor="start" x="30.5" y="-230.8" font-family="Helvetica,sans-Serif" font-size="11.00" fill="#000000">description</text>
<polygon fill="none" stroke="#000000" points="209.5,-223.7 209.5,-245.7 299.5,-245.7 299.5,-223.7 209.5,-223.7"/>
<text text-anchor="start" x="212.0043" y="-231.4" font-family="Helvetica,sans-Serif" font-size="11.00" fill="#000000">text[2147483647]</text>
<polygon fill="#ffffff" stroke="transparent" points="10.5,-201.7 10.5,-223.7 209.5,-223.7 209.5,-201.7 10.5,-201.7"/>
<polygon fill="none" stroke="#000000" points="10.5,-201.7 10.5,-223.7 209.5,-223.7 209.5,-201.7 10.5,-201.7"/>
<text text-anchor="start" x="30.5" y="-208.8" font-family="Helvetica,sans-Serif" font-size="11.00" fill="#000000">sequence_number</text>
<polygon fill="none" stroke="#000000" points="209.5,-201.7 209.5,-223.7 299.5,-223.7 299.5,-201.7 209.5,-201.7"/>
<text text-anchor="start" x="212.5" y="-209.4" font-family="Helvetica,sans-Serif" font-size="11.00" fill="#000000">int4[10]</text>
<polygon fill="#ffffff" stroke="transparent" points="10.5,-182.7 10.5,-201.7 114.5,-201.7 114.5,-182.7 10.5,-182.7"/>
<polygon fill="none" stroke="#000000" points="10.5,-182.7 10.5,-201.7 114.5,-201.7 114.5,-182.7 10.5,-182.7"/>
<text text-anchor="start" x="13.5" y="-188.8" font-family="Helvetica,sans-Serif" font-size="11.00" fill="#000000">&lt; 0</text>
<polygon fill="#ffffff" stroke="transparent" points="114.5,-182.7 114.5,-201.7 209.5,-201.7 209.5,-182.7 114.5,-182.7"/>
<polygon fill="none" stroke="#000000" points="114.5,-182.7 114.5,-201.7 209.5,-201.7 209.5,-182.7 114.5,-182.7"/>
<text text-anchor="start" x="200.3862" y="-188.8" font-family="Helvetica,sans-Serif" font-size="11.00" fill="#000000"> &#160;</text>
<polygon fill="#ffffff" stroke="transparent" points="209.5,-182.7 209.5,-201.7 299.5,-201.7 299.5,-182.7 209.5,-182.7"/>
<polygon fill="none" stroke="#000000" points="209.5,-182.7 209.5,-201.7 299.5,-201.7 299.5,-182.7 209.5,-182.7"/>
<text text-anchor="start" x="280.9053" y="-188.8" font-family="Helvetica,sans-Serif" font-size="11.00" fill="#000000">5 &gt;</text>
<polygon fill="none" stroke="#000000" stroke-width="2" points="9,-181.7 9,-291.7 300,-291.7 300,-181.7 9,-181.7"/>
</a>
</g>
</g>
<!-- document_template&#45;&gt;template_variable_domain -->
<g id="edge1" class="edge">
<title>document_template:w&#45;&gt;template_variable_domain:e</title>
<path fill="none" stroke="#000000" stroke-dasharray="5,2" d="M360.7148,-572.1403C305.901,-542.0453 368.1113,-256.7 299.5,-256.7"/>
<polygon fill="#000000" stroke="#000000" points="371.1897,-570.6252 369.2576,-578.3884 367.705,-578.002 369.6371,-570.2388 371.1897,-570.6252"/>
<polyline fill="none" stroke="#000000" points="371,-574.7 367.1184,-573.7339 "/>
<ellipse fill="none" stroke="#000000" cx="364.0131" cy="-572.9611" rx="3.2" ry="3.2"/>
</g>
<!-- document_template_audit -->
<g id="node3" class="node">
<title>document_template_audit</title>
<g id="a_node3"><a xlink:href="../../tables/document_template_audit.html" xlink:title="document_template_audit" target="_top">
<polygon fill="#ffffff" stroke="transparent" points="350,-334.2 350,-483.2 564,-483.2 564,-334.2 350,-334.2"/>
<polygon fill="#f5f5f5" stroke="transparent" points="350,-459.7 350,-482.7 564,-482.7 564,-459.7 350,-459.7"/>
<polygon fill="none" stroke="#000000" points="350,-459.7 350,-482.7 564,-482.7 564,-459.7 350,-459.7"/>
<text text-anchor="start" x="355" y="-468.3" font-family="Helvetica,sans-Serif" font-weight="bold" font-size="11.00" fill="#000000">document_template_audit</text>
<text text-anchor="start" x="529.5219" y="-467.8" font-family="Helvetica,sans-Serif" font-size="11.00" fill="#000000">[table]</text>
<polygon fill="none" stroke="#000000" points="350,-437.7 350,-459.7 564,-459.7 564,-437.7 350,-437.7"/>
<image xlink:href="../../images/primaryKeys.png" width="11px" height="12px" preserveAspectRatio="xMinYMin meet" x="355" y="-454.7"/>
<text text-anchor="start" x="379" y="-444.8" font-family="Helvetica,sans-Serif" font-size="11.00" fill="#000000">rev_id</text>
<polygon fill="none" stroke="#000000" points="350,-415.7 350,-437.7 564,-437.7 564,-415.7 350,-415.7"/>
<image xlink:href="../../images/primaryKeys.png" width="11px" height="12px" preserveAspectRatio="xMinYMin meet" x="355" y="-432.7"/>
<text text-anchor="start" x="379" y="-422.8" font-family="Helvetica,sans-Serif" font-size="11.00" fill="#000000">id</text>
<polygon fill="none" stroke="#000000" points="350,-393.7 350,-415.7 564,-415.7 564,-393.7 350,-393.7"/>
<image xlink:href="../../images/foreignKeys.png" width="11px" height="12px" preserveAspectRatio="xMinYMin meet" x="355" y="-410.7"/>
<text text-anchor="start" x="379" y="-400.8" font-family="Helvetica,sans-Serif" font-size="11.00" fill="#000000">code</text>
<polygon fill="#ffffff" stroke="transparent" points="350,-371.7 350,-393.7 564,-393.7 564,-371.7 350,-371.7"/>
<polygon fill="none" stroke="#000000" points="350,-371.7 350,-393.7 564,-393.7 564,-371.7 350,-371.7"/>
<text text-anchor="start" x="379" y="-378.8" font-family="Helvetica,sans-Serif" font-size="11.00" fill="#000000">external_reference</text>
<polygon fill="none" stroke="#000000" points="350,-352.7 350,-371.7 564,-371.7 564,-352.7 350,-352.7"/>
<text text-anchor="start" x="353" y="-358.8" font-family="Helvetica,sans-Serif" font-size="11.00" fill="#000000">...</text>
<polygon fill="#ffffff" stroke="transparent" points="350,-333.7 350,-352.7 455,-352.7 455,-333.7 350,-333.7"/>
<polygon fill="none" stroke="#000000" points="350,-333.7 350,-352.7 455,-352.7 455,-333.7 350,-333.7"/>
<text text-anchor="start" x="353" y="-339.8" font-family="Helvetica,sans-Serif" font-size="11.00" fill="#000000">&lt; 2</text>
<polygon fill="#ffffff" stroke="transparent" points="455,-333.7 455,-352.7 509,-352.7 509,-333.7 455,-333.7"/>
<polygon fill="none" stroke="#000000" points="455,-333.7 455,-352.7 509,-352.7 509,-333.7 455,-333.7"/>
<text text-anchor="start" x="499.8862" y="-339.8" font-family="Helvetica,sans-Serif" font-size="11.00" fill="#000000"> &#160;</text>
<polygon fill="#ffffff" stroke="transparent" points="509,-333.7 509,-352.7 564,-352.7 564,-333.7 509,-333.7"/>
<polygon fill="none" stroke="#000000" points="509,-333.7 509,-352.7 564,-352.7 564,-333.7 509,-333.7"/>
<text text-anchor="start" x="554.8862" y="-339.8" font-family="Helvetica,sans-Serif" font-size="11.00" fill="#000000"> &#160;</text>
</a>
</g>
</g>
<!-- document_template_audit&#45;&gt;template_variable_domain -->
<g id="edge2" class="edge">
<title>document_template_audit:w&#45;&gt;template_variable_domain:e</title>
<path fill="none" stroke="#000000" stroke-dasharray="5,2" d="M335.6451,-401.7436C294.2497,-380.8845 363.1645,-256.7 299.5,-256.7"/>
<polygon fill="#000000" stroke="#000000" points="342.1644,-403.0862 349.2738,-408.226 346.0822,-403.8931 350,-404.7 350,-404.7 350,-404.7 346.0822,-403.8931 350.7262,-401.174 342.1644,-403.0862 342.1644,-403.0862"/>
<ellipse fill="none" stroke="#000000" cx="339.0302" cy="-402.4407" rx="3.2" ry="3.2"/>
</g>
<!-- template_group -->
<g id="node4" class="node">
<title>template_group</title>
<g id="a_node4"><a xlink:href="../../tables/template_group.html" xlink:title="template_group" target="_top">
<polygon fill="#ffffff" stroke="transparent" points="384.5,-208.2 384.5,-313.2 529.5,-313.2 529.5,-208.2 384.5,-208.2"/>
<polygon fill="#f5f5f5" stroke="transparent" points="385,-289.7 385,-312.7 530,-312.7 530,-289.7 385,-289.7"/>
<polygon fill="none" stroke="#000000" points="385,-289.7 385,-312.7 530,-312.7 530,-289.7 385,-289.7"/>
<text text-anchor="start" x="390" y="-298.3" font-family="Helvetica,sans-Serif" font-weight="bold" font-size="11.00" fill="#000000">template_group</text>
<text text-anchor="start" x="495.5219" y="-297.8" font-family="Helvetica,sans-Serif" font-size="11.00" fill="#000000">[table]</text>
<polygon fill="none" stroke="#000000" points="385,-267.7 385,-289.7 530,-289.7 530,-267.7 385,-267.7"/>
<image xlink:href="../../images/primaryKeys.png" width="11px" height="12px" preserveAspectRatio="xMinYMin meet" x="390" y="-284.7"/>
<text text-anchor="start" x="414" y="-274.8" font-family="Helvetica,sans-Serif" font-size="11.00" fill="#000000">id</text>
<polygon fill="#ffffff" stroke="transparent" points="385,-245.7 385,-267.7 530,-267.7 530,-245.7 385,-245.7"/>
<polygon fill="none" stroke="#000000" points="385,-245.7 385,-267.7 530,-267.7 530,-245.7 385,-245.7"/>
<image xlink:href="../../images/foreignKeys.png" width="11px" height="12px" preserveAspectRatio="xMinYMin meet" x="390" y="-262.7"/>
<text text-anchor="start" x="414" y="-252.8" font-family="Helvetica,sans-Serif" font-size="11.00" fill="#000000">code</text>
<polygon fill="none" stroke="#000000" points="385,-226.7 385,-245.7 530,-245.7 530,-226.7 385,-226.7"/>
<text text-anchor="start" x="388" y="-232.8" font-family="Helvetica,sans-Serif" font-size="11.00" fill="#000000">...</text>
<polygon fill="#ffffff" stroke="transparent" points="385,-207.7 385,-226.7 451,-226.7 451,-207.7 385,-207.7"/>
<polygon fill="none" stroke="#000000" points="385,-207.7 385,-226.7 451,-226.7 451,-207.7 385,-207.7"/>
<text text-anchor="start" x="388" y="-213.8" font-family="Helvetica,sans-Serif" font-size="11.00" fill="#000000">&lt; 1</text>
<polygon fill="#ffffff" stroke="transparent" points="451,-207.7 451,-226.7 486,-226.7 486,-207.7 451,-207.7"/>
<polygon fill="none" stroke="#000000" points="451,-207.7 451,-226.7 486,-226.7 486,-207.7 451,-207.7"/>
<text text-anchor="start" x="476.8862" y="-213.8" font-family="Helvetica,sans-Serif" font-size="11.00" fill="#000000"> &#160;</text>
<polygon fill="#ffffff" stroke="transparent" points="486,-207.7 486,-226.7 530,-226.7 530,-207.7 486,-207.7"/>
<polygon fill="none" stroke="#000000" points="486,-207.7 486,-226.7 530,-226.7 530,-207.7 486,-207.7"/>
<text text-anchor="start" x="511.4053" y="-213.8" font-family="Helvetica,sans-Serif" font-size="11.00" fill="#000000">1 &gt;</text>
</a>
</g>
</g>
<!-- template_group&#45;&gt;template_variable_domain -->
<g id="edge3" class="edge">
<title>template_group:w&#45;&gt;template_variable_domain:e</title>
<path fill="none" stroke="#000000" stroke-dasharray="5,2" d="M374.2441,-256.7C344.7763,-256.7 333.6406,-256.7 299.5,-256.7"/>
<polygon fill="#000000" stroke="#000000" points="384.2,-252.7 384.2,-260.7 382.6,-260.7 382.6,-252.7 384.2,-252.7"/>
<polyline fill="none" stroke="#000000" points="385,-256.7 381,-256.7 "/>
<ellipse fill="none" stroke="#000000" cx="377.8" cy="-256.7001" rx="3.2" ry="3.2"/>
</g>
<!-- template_variable -->
<g id="node5" class="node">
<title>template_variable</title>
<g id="a_node5"><a xlink:href="../../tables/template_variable.html" xlink:title="template_variable" target="_top">
<polygon fill="#ffffff" stroke="transparent" points="377,-38.2 377,-187.2 537,-187.2 537,-38.2 377,-38.2"/>
<polygon fill="#f5f5f5" stroke="transparent" points="377,-163.7 377,-186.7 537,-186.7 537,-163.7 377,-163.7"/>
<polygon fill="none" stroke="#000000" points="377,-163.7 377,-186.7 537,-186.7 537,-163.7 377,-163.7"/>
<text text-anchor="start" x="382" y="-172.3" font-family="Helvetica,sans-Serif" font-weight="bold" font-size="11.00" fill="#000000">template_variable</text>
<text text-anchor="start" x="502.5219" y="-171.8" font-family="Helvetica,sans-Serif" font-size="11.00" fill="#000000">[table]</text>
<polygon fill="none" stroke="#000000" points="377,-141.7 377,-163.7 537,-163.7 537,-141.7 377,-141.7"/>
<image xlink:href="../../images/primaryKeys.png" width="11px" height="12px" preserveAspectRatio="xMinYMin meet" x="382" y="-158.7"/>
<text text-anchor="start" x="406" y="-148.8" font-family="Helvetica,sans-Serif" font-size="11.00" fill="#000000">id</text>
<polygon fill="#ffffff" stroke="transparent" points="377,-119.7 377,-141.7 537,-141.7 537,-119.7 377,-119.7"/>
<polygon fill="none" stroke="#000000" points="377,-119.7 377,-141.7 537,-141.7 537,-119.7 377,-119.7"/>
<image xlink:href="../../images/foreignKeys.png" width="11px" height="12px" preserveAspectRatio="xMinYMin meet" x="382" y="-136.7"/>
<text text-anchor="start" x="406" y="-126.8" font-family="Helvetica,sans-Serif" font-size="11.00" fill="#000000">domain</text>
<polygon fill="#ffffff" stroke="transparent" points="377,-97.7 377,-119.7 537,-119.7 537,-97.7 377,-97.7"/>
<polygon fill="none" stroke="#000000" points="377,-97.7 377,-119.7 537,-119.7 537,-97.7 377,-97.7"/>
<image xlink:href="../../images/foreignKeys.png" width="11px" height="12px" preserveAspectRatio="xMinYMin meet" x="382" y="-114.7"/>
<text text-anchor="start" x="406" y="-104.8" font-family="Helvetica,sans-Serif" font-size="11.00" fill="#000000">code</text>
<polygon fill="#ffffff" stroke="transparent" points="377,-75.7 377,-97.7 537,-97.7 537,-75.7 377,-75.7"/>
<polygon fill="none" stroke="#000000" points="377,-75.7 377,-97.7 537,-97.7 537,-75.7 377,-75.7"/>
<text text-anchor="start" x="406" y="-82.8" font-family="Helvetica,sans-Serif" font-size="11.00" fill="#000000">sequence_number</text>
<polygon fill="none" stroke="#000000" points="377,-56.7 377,-75.7 537,-75.7 537,-56.7 377,-56.7"/>
<text text-anchor="start" x="380" y="-62.8" font-family="Helvetica,sans-Serif" font-size="11.00" fill="#000000">...</text>
<polygon fill="#ffffff" stroke="transparent" points="377,-37.7 377,-56.7 451,-56.7 451,-37.7 377,-37.7"/>
<polygon fill="none" stroke="#000000" points="377,-37.7 377,-56.7 451,-56.7 451,-37.7 377,-37.7"/>
<text text-anchor="start" x="380" y="-43.8" font-family="Helvetica,sans-Serif" font-size="11.00" fill="#000000">&lt; 2</text>
<polygon fill="#ffffff" stroke="transparent" points="451,-37.7 451,-56.7 489,-56.7 489,-37.7 451,-37.7"/>
<polygon fill="none" stroke="#000000" points="451,-37.7 451,-56.7 489,-56.7 489,-37.7 451,-37.7"/>
<text text-anchor="start" x="479.8862" y="-43.8" font-family="Helvetica,sans-Serif" font-size="11.00" fill="#000000"> &#160;</text>
<polygon fill="#ffffff" stroke="transparent" points="489,-37.7 489,-56.7 537,-56.7 537,-37.7 489,-37.7"/>
<polygon fill="none" stroke="#000000" points="489,-37.7 489,-56.7 537,-56.7 537,-37.7 489,-37.7"/>
<text text-anchor="start" x="518.4053" y="-43.8" font-family="Helvetica,sans-Serif" font-size="11.00" fill="#000000">1 &gt;</text>
</a>
</g>
</g>
<!-- template_variable&#45;&gt;template_variable_domain -->
<g id="edge4" class="edge">
<title>template_variable:w&#45;&gt;template_variable_domain:e</title>
<path fill="none" stroke="#000000" stroke-dasharray="5,2" d="M366.4225,-109.8913C309.834,-123.8978 369.8349,-256.7 299.5,-256.7"/>
<polygon fill="#000000" stroke="#000000" points="375.7573,-104.8147 376.6527,-112.7644 375.0628,-112.9435 374.1674,-104.9938 375.7573,-104.8147"/>
<polyline fill="none" stroke="#000000" points="377,-108.7 373.0251,-109.1477 "/>
<ellipse fill="none" stroke="#000000" cx="369.8452" cy="-109.5059" rx="3.2" ry="3.2"/>
</g>
<!-- template_variable&#45;&gt;template_variable_domain -->
<g id="edge5" class="edge">
<title>template_variable:w&#45;&gt;template_variable_domain:e</title>
<path fill="none" stroke="#000000" d="M362.5509,-133.3317C319.6502,-151.4257 359.5951,-256.7 299.5,-256.7"/>
<polygon fill="#000000" stroke="#000000" points="369.1295,-132.1335 377.6451,-134.2417 373.0647,-131.4168 377,-130.7 377,-130.7 377,-130.7 373.0647,-131.4168 376.3549,-127.1583 369.1295,-132.1335 369.1295,-132.1335"/>
<ellipse fill="none" stroke="#000000" cx="365.9813" cy="-132.707" rx="3.2" ry="3.2"/>
</g>
</g>
</svg>
