<?xml version="1.0" encoding="UTF-8" standalone="no"?>
<!DOCTYPE svg PUBLIC "-//W3C//DTD SVG 1.1//EN"
 "http://www.w3.org/Graphics/SVG/1.1/DTD/svg11.dtd">
<!-- Generated by graphviz version 2.40.1 (20161225.0304)
 -->
<!-- Title: twoDegreesRelationshipsDiagramImplied Pages: 1 -->
<svg width="873pt" height="643pt"
 viewBox="0.00 0.00 873.00 643.20" xmlns="http://www.w3.org/2000/svg" xmlns:xlink="http://www.w3.org/1999/xlink">
<g id="graph0" class="graph" transform="scale(1 1) rotate(0) translate(4 639.2)">
<title>twoDegreesRelationshipsDiagramImplied</title>
<polygon fill="#ffffff" stroke="transparent" points="-4,4 -4,-639.2 869,-639.2 869,4 -4,4"/>
<text text-anchor="middle" x="72.4936" y="-7.3" font-family="Helvetica,sans-Serif" font-size="11.00" fill="#000000">Generated by SchemaSpy</text>
<!-- document_generation_request -->
<g id="node1" class="node">
<title>document_generation_request</title>
<g id="a_node1"><a xlink:href="../../tables/document_generation_request.html" xlink:title="document_generation_request" target="_top">
<polygon fill="#ffffff" stroke="transparent" points="613,-229.2 613,-290.2 857,-290.2 857,-229.2 613,-229.2"/>
<polygon fill="#f5f5f5" stroke="transparent" points="613,-266.7 613,-289.7 857,-289.7 857,-266.7 613,-266.7"/>
<polygon fill="none" stroke="#000000" points="613,-266.7 613,-289.7 857,-289.7 857,-266.7 613,-266.7"/>
<text text-anchor="start" x="618" y="-275.3" font-family="Helvetica,sans-Serif" font-weight="bold" font-size="11.00" fill="#000000">document_generation_request</text>
<text text-anchor="start" x="822.5219" y="-274.8" font-family="Helvetica,sans-Serif" font-size="11.00" fill="#000000">[table]</text>
<polygon fill="none" stroke="#000000" points="613,-247.7 613,-266.7 857,-266.7 857,-247.7 613,-247.7"/>
<text text-anchor="start" x="616" y="-253.8" font-family="Helvetica,sans-Serif" font-size="11.00" fill="#000000">...</text>
<polygon fill="#ffffff" stroke="transparent" points="613,-228.7 613,-247.7 733,-247.7 733,-228.7 613,-228.7"/>
<polygon fill="none" stroke="#000000" points="613,-228.7 613,-247.7 733,-247.7 733,-228.7 613,-228.7"/>
<text text-anchor="start" x="616" y="-234.8" font-family="Helvetica,sans-Serif" font-size="11.00" fill="#000000">&lt; 1</text>
<polygon fill="#ffffff" stroke="transparent" points="733,-228.7 733,-247.7 795,-247.7 795,-228.7 733,-228.7"/>
<polygon fill="none" stroke="#000000" points="733,-228.7 733,-247.7 795,-247.7 795,-228.7 733,-228.7"/>
<text text-anchor="start" x="785.8862" y="-234.8" font-family="Helvetica,sans-Serif" font-size="11.00" fill="#000000"> &#160;</text>
<polygon fill="#ffffff" stroke="transparent" points="795,-228.7 795,-247.7 857,-247.7 857,-228.7 795,-228.7"/>
<polygon fill="none" stroke="#000000" points="795,-228.7 795,-247.7 857,-247.7 857,-228.7 795,-228.7"/>
<text text-anchor="start" x="847.8862" y="-234.8" font-family="Helvetica,sans-Serif" font-size="11.00" fill="#000000"> &#160;</text>
</a>
</g>
</g>
<!-- document_template -->
<g id="node2" class="node">
<title>document_template</title>
<g id="a_node2"><a xlink:href="../../tables/document_template.html" xlink:title="document_template" target="_top">
<polygon fill="#ffffff" stroke="transparent" points="370.5,-164.2 370.5,-291.2 543.5,-291.2 543.5,-164.2 370.5,-164.2"/>
<polygon fill="#f5f5f5" stroke="transparent" points="371,-267.7 371,-290.7 544,-290.7 544,-267.7 371,-267.7"/>
<polygon fill="none" stroke="#000000" points="371,-267.7 371,-290.7 544,-290.7 544,-267.7 371,-267.7"/>
<text text-anchor="start" x="376" y="-276.3" font-family="Helvetica,sans-Serif" font-weight="bold" font-size="11.00" fill="#000000">document_template</text>
<text text-anchor="start" x="509.5219" y="-275.8" font-family="Helvetica,sans-Serif" font-size="11.00" fill="#000000">[table]</text>
<polygon fill="none" stroke="#000000" points="371,-245.7 371,-267.7 544,-267.7 544,-245.7 371,-245.7"/>
<image xlink:href="../../images/primaryKeys.png" width="11px" height="12px" preserveAspectRatio="xMinYMin meet" x="376" y="-262.7"/>
<text text-anchor="start" x="400" y="-252.8" font-family="Helvetica,sans-Serif" font-size="11.00" fill="#000000">id</text>
<polygon fill="#ffffff" stroke="transparent" points="371,-223.7 371,-245.7 544,-245.7 544,-223.7 371,-223.7"/>
<polygon fill="none" stroke="#000000" points="371,-223.7 371,-245.7 544,-245.7 544,-223.7 371,-223.7"/>
<image xlink:href="../../images/foreignKeys.png" width="11px" height="12px" preserveAspectRatio="xMinYMin meet" x="376" y="-240.7"/>
<text text-anchor="start" x="400" y="-230.8" font-family="Helvetica,sans-Serif" font-size="11.00" fill="#000000">code</text>
<polygon fill="#ffffff" stroke="transparent" points="371,-201.7 371,-223.7 544,-223.7 544,-201.7 371,-201.7"/>
<polygon fill="none" stroke="#000000" points="371,-201.7 371,-223.7 544,-223.7 544,-201.7 371,-201.7"/>
<text text-anchor="start" x="400" y="-208.8" font-family="Helvetica,sans-Serif" font-size="11.00" fill="#000000">external_reference</text>
<polygon fill="none" stroke="#000000" points="371,-182.7 371,-201.7 544,-201.7 544,-182.7 371,-182.7"/>
<text text-anchor="start" x="374" y="-188.8" font-family="Helvetica,sans-Serif" font-size="11.00" fill="#000000">...</text>
<polygon fill="#ffffff" stroke="transparent" points="371,-163.7 371,-182.7 451,-182.7 451,-163.7 371,-163.7"/>
<polygon fill="none" stroke="#000000" points="371,-163.7 371,-182.7 451,-182.7 451,-163.7 371,-163.7"/>
<text text-anchor="start" x="374" y="-169.8" font-family="Helvetica,sans-Serif" font-size="11.00" fill="#000000">&lt; 1</text>
<polygon fill="#ffffff" stroke="transparent" points="451,-163.7 451,-182.7 493,-182.7 493,-163.7 451,-163.7"/>
<polygon fill="none" stroke="#000000" points="451,-163.7 451,-182.7 493,-182.7 493,-163.7 451,-163.7"/>
<text text-anchor="start" x="483.8862" y="-169.8" font-family="Helvetica,sans-Serif" font-size="11.00" fill="#000000"> &#160;</text>
<polygon fill="#ffffff" stroke="transparent" points="493,-163.7 493,-182.7 544,-182.7 544,-163.7 493,-163.7"/>
<polygon fill="none" stroke="#000000" points="493,-163.7 493,-182.7 544,-182.7 544,-163.7 493,-163.7"/>
<text text-anchor="start" x="525.4053" y="-169.8" font-family="Helvetica,sans-Serif" font-size="11.00" fill="#000000">3 &gt;</text>
</a>
</g>
</g>
<!-- document_generation_request&#45;&gt;document_template -->
<g id="edge1" class="edge">
<title>document_generation_request:w&#45;&gt;document_template:e</title>
<path fill="none" stroke="#000000" d="M598.4297,-256.7C578.8355,-256.7 569.1563,-256.7 544,-256.7"/>
<polygon fill="#000000" stroke="#000000" points="605,-256.7001 613,-260.3 609,-256.7 613,-256.7 613,-256.7 613,-256.7 609,-256.7 613,-253.1 605,-256.7001 605,-256.7001"/>
<ellipse fill="none" stroke="#000000" cx="601.8" cy="-256.7001" rx="3.2" ry="3.2"/>
</g>
<!-- template_variable_domain -->
<g id="node3" class="node">
<title>template_variable_domain</title>
<g id="a_node3"><a xlink:href="../../tables/template_variable_domain.html" xlink:title="template_variable_domain" target="_top">
<polygon fill="#ffffff" stroke="transparent" points="8,-306.7 8,-418.7 301,-418.7 301,-306.7 8,-306.7"/>
<polygon fill="#f5f5f5" stroke="transparent" points="10.5,-393.7 10.5,-416.7 299.5,-416.7 299.5,-393.7 10.5,-393.7"/>
<polygon fill="none" stroke="#000000" points="10.5,-393.7 10.5,-416.7 299.5,-416.7 299.5,-393.7 10.5,-393.7"/>
<text text-anchor="start" x="15.5" y="-402.3" font-family="Helvetica,sans-Serif" font-weight="bold" font-size="11.00" fill="#000000">template_variable_domain</text>
<text text-anchor="start" x="264.5437" y="-401.8" font-family="Helvetica,sans-Serif" font-size="11.00" fill="#000000">[table]</text>
<polygon fill="none" stroke="#000000" points="10.5,-371.7 10.5,-393.7 209.5,-393.7 209.5,-371.7 10.5,-371.7"/>
<image xlink:href="../../images/primaryKeys.png" width="11px" height="12px" preserveAspectRatio="xMinYMin meet" x="15.5" y="-388.7"/>
<text text-anchor="start" x="30.5" y="-378.8" font-family="Helvetica,sans-Serif" font-size="11.00" fill="#000000">code</text>
<polygon fill="none" stroke="#000000" points="209.5,-371.7 209.5,-393.7 299.5,-393.7 299.5,-371.7 209.5,-371.7"/>
<text text-anchor="start" x="212.0043" y="-379.4" font-family="Helvetica,sans-Serif" font-size="11.00" fill="#000000">text[2147483647]</text>
<polygon fill="none" stroke="#000000" points="10.5,-349.7 10.5,-371.7 209.5,-371.7 209.5,-349.7 10.5,-349.7"/>
<text text-anchor="start" x="30.5" y="-356.8" font-family="Helvetica,sans-Serif" font-size="11.00" fill="#000000">description</text>
<polygon fill="none" stroke="#000000" points="209.5,-349.7 209.5,-371.7 299.5,-371.7 299.5,-349.7 209.5,-349.7"/>
<text text-anchor="start" x="212.0043" y="-357.4" font-family="Helvetica,sans-Serif" font-size="11.00" fill="#000000">text[2147483647]</text>
<polygon fill="#ffffff" stroke="transparent" points="10.5,-327.7 10.5,-349.7 209.5,-349.7 209.5,-327.7 10.5,-327.7"/>
<polygon fill="none" stroke="#000000" points="10.5,-327.7 10.5,-349.7 209.5,-349.7 209.5,-327.7 10.5,-327.7"/>
<text text-anchor="start" x="30.5" y="-334.8" font-family="Helvetica,sans-Serif" font-size="11.00" fill="#000000">sequence_number</text>
<polygon fill="none" stroke="#000000" points="209.5,-327.7 209.5,-349.7 299.5,-349.7 299.5,-327.7 209.5,-327.7"/>
<text text-anchor="start" x="212.5" y="-335.4" font-family="Helvetica,sans-Serif" font-size="11.00" fill="#000000">int4[10]</text>
<polygon fill="#ffffff" stroke="transparent" points="10.5,-308.7 10.5,-327.7 114.5,-327.7 114.5,-308.7 10.5,-308.7"/>
<polygon fill="none" stroke="#000000" points="10.5,-308.7 10.5,-327.7 114.5,-327.7 114.5,-308.7 10.5,-308.7"/>
<text text-anchor="start" x="13.5" y="-314.8" font-family="Helvetica,sans-Serif" font-size="11.00" fill="#000000">&lt; 0</text>
<polygon fill="#ffffff" stroke="transparent" points="114.5,-308.7 114.5,-327.7 209.5,-327.7 209.5,-308.7 114.5,-308.7"/>
<polygon fill="none" stroke="#000000" points="114.5,-308.7 114.5,-327.7 209.5,-327.7 209.5,-308.7 114.5,-308.7"/>
<text text-anchor="start" x="200.3862" y="-314.8" font-family="Helvetica,sans-Serif" font-size="11.00" fill="#000000"> &#160;</text>
<polygon fill="#ffffff" stroke="transparent" points="209.5,-308.7 209.5,-327.7 299.5,-327.7 299.5,-308.7 209.5,-308.7"/>
<polygon fill="none" stroke="#000000" points="209.5,-308.7 209.5,-327.7 299.5,-327.7 299.5,-308.7 209.5,-308.7"/>
<text text-anchor="start" x="280.9053" y="-314.8" font-family="Helvetica,sans-Serif" font-size="11.00" fill="#000000">5 &gt;</text>
<polygon fill="none" stroke="#000000" stroke-width="2" points="9,-307.7 9,-417.7 300,-417.7 300,-307.7 9,-307.7"/>
</a>
</g>
</g>
<!-- document_template&#45;&gt;template_variable_domain -->
<g id="edge2" class="edge">
<title>document_template:w&#45;&gt;template_variable_domain:e</title>
<path fill="none" stroke="#000000" stroke-dasharray="5,2" d="M360.6315,-235.8913C305.4061,-249.8978 368.6993,-382.7 299.5,-382.7"/>
<polygon fill="#000000" stroke="#000000" points="369.7486,-230.8175 370.6619,-238.7652 369.0723,-238.9478 368.1591,-231.0001 369.7486,-230.8175"/>
<polyline fill="none" stroke="#000000" points="371,-234.7 367.0261,-235.1566 "/>
<ellipse fill="none" stroke="#000000" cx="363.8471" cy="-235.5219" rx="3.2" ry="3.2"/>
</g>
<!-- document_template_audit -->
<g id="node4" class="node">
<title>document_template_audit</title>
<g id="a_node4"><a xlink:href="../../tables/document_template_audit.html" xlink:title="document_template_audit" target="_top">
<polygon fill="#ffffff" stroke="transparent" points="350,-482.2 350,-631.2 564,-631.2 564,-482.2 350,-482.2"/>
<polygon fill="#f5f5f5" stroke="transparent" points="350,-607.7 350,-630.7 564,-630.7 564,-607.7 350,-607.7"/>
<polygon fill="none" stroke="#000000" points="350,-607.7 350,-630.7 564,-630.7 564,-607.7 350,-607.7"/>
<text text-anchor="start" x="355" y="-616.3" font-family="Helvetica,sans-Serif" font-weight="bold" font-size="11.00" fill="#000000">document_template_audit</text>
<text text-anchor="start" x="529.5219" y="-615.8" font-family="Helvetica,sans-Serif" font-size="11.00" fill="#000000">[table]</text>
<polygon fill="none" stroke="#000000" points="350,-585.7 350,-607.7 564,-607.7 564,-585.7 350,-585.7"/>
<image xlink:href="../../images/primaryKeys.png" width="11px" height="12px" preserveAspectRatio="xMinYMin meet" x="355" y="-602.7"/>
<text text-anchor="start" x="379" y="-592.8" font-family="Helvetica,sans-Serif" font-size="11.00" fill="#000000">rev_id</text>
<polygon fill="none" stroke="#000000" points="350,-563.7 350,-585.7 564,-585.7 564,-563.7 350,-563.7"/>
<image xlink:href="../../images/primaryKeys.png" width="11px" height="12px" preserveAspectRatio="xMinYMin meet" x="355" y="-580.7"/>
<text text-anchor="start" x="379" y="-570.8" font-family="Helvetica,sans-Serif" font-size="11.00" fill="#000000">id</text>
<polygon fill="none" stroke="#000000" points="350,-541.7 350,-563.7 564,-563.7 564,-541.7 350,-541.7"/>
<image xlink:href="../../images/foreignKeys.png" width="11px" height="12px" preserveAspectRatio="xMinYMin meet" x="355" y="-558.7"/>
<text text-anchor="start" x="379" y="-548.8" font-family="Helvetica,sans-Serif" font-size="11.00" fill="#000000">code</text>
<polygon fill="#ffffff" stroke="transparent" points="350,-519.7 350,-541.7 564,-541.7 564,-519.7 350,-519.7"/>
<polygon fill="none" stroke="#000000" points="350,-519.7 350,-541.7 564,-541.7 564,-519.7 350,-519.7"/>
<text text-anchor="start" x="379" y="-526.8" font-family="Helvetica,sans-Serif" font-size="11.00" fill="#000000">external_reference</text>
<polygon fill="none" stroke="#000000" points="350,-500.7 350,-519.7 564,-519.7 564,-500.7 350,-500.7"/>
<text text-anchor="start" x="353" y="-506.8" font-family="Helvetica,sans-Serif" font-size="11.00" fill="#000000">...</text>
<polygon fill="#ffffff" stroke="transparent" points="350,-481.7 350,-500.7 455,-500.7 455,-481.7 350,-481.7"/>
<polygon fill="none" stroke="#000000" points="350,-481.7 350,-500.7 455,-500.7 455,-481.7 350,-481.7"/>
<text text-anchor="start" x="353" y="-487.8" font-family="Helvetica,sans-Serif" font-size="11.00" fill="#000000">&lt; 2</text>
<polygon fill="#ffffff" stroke="transparent" points="455,-481.7 455,-500.7 509,-500.7 509,-481.7 455,-481.7"/>
<polygon fill="none" stroke="#000000" points="455,-481.7 455,-500.7 509,-500.7 509,-481.7 455,-481.7"/>
<text text-anchor="start" x="499.8862" y="-487.8" font-family="Helvetica,sans-Serif" font-size="11.00" fill="#000000"> &#160;</text>
<polygon fill="#ffffff" stroke="transparent" points="509,-481.7 509,-500.7 564,-500.7 564,-481.7 509,-481.7"/>
<polygon fill="none" stroke="#000000" points="509,-481.7 509,-500.7 564,-500.7 564,-481.7 509,-481.7"/>
<text text-anchor="start" x="554.8862" y="-487.8" font-family="Helvetica,sans-Serif" font-size="11.00" fill="#000000"> &#160;</text>
</a>
</g>
</g>
<!-- document_template_audit&#45;&gt;template_variable_domain -->
<g id="edge3" class="edge">
<title>document_template_audit:w&#45;&gt;template_variable_domain:e</title>
<path fill="none" stroke="#000000" stroke-dasharray="5,2" d="M335.6854,-550.1649C285.6948,-529.0175 372.6229,-382.7 299.5,-382.7"/>
<polygon fill="#000000" stroke="#000000" points="342.1226,-551.3049 349.3722,-556.2448 346.0613,-552.0024 350,-552.7 350,-552.7 350,-552.7 346.0613,-552.0024 350.6278,-549.1552 342.1226,-551.3049 342.1226,-551.3049"/>
<ellipse fill="none" stroke="#000000" cx="338.9716" cy="-550.7468" rx="3.2" ry="3.2"/>
</g>
<!-- audit_revision -->
<g id="node5" class="node">
<title>audit_revision</title>
<g id="a_node5"><a xlink:href="../../tables/audit_revision.html" xlink:title="audit_revision" target="_top">
<polygon fill="#ffffff" stroke="transparent" points="87.5,-569.2 87.5,-630.2 221.5,-630.2 221.5,-569.2 87.5,-569.2"/>
<polygon fill="#f5f5f5" stroke="transparent" points="87.5,-606.7 87.5,-629.7 221.5,-629.7 221.5,-606.7 87.5,-606.7"/>
<polygon fill="none" stroke="#000000" points="87.5,-606.7 87.5,-629.7 221.5,-629.7 221.5,-606.7 87.5,-606.7"/>
<text text-anchor="start" x="92.5" y="-615.3" font-family="Helvetica,sans-Serif" font-weight="bold" font-size="11.00" fill="#000000">audit_revision</text>
<text text-anchor="start" x="187.0219" y="-614.8" font-family="Helvetica,sans-Serif" font-size="11.00" fill="#000000">[table]</text>
<polygon fill="none" stroke="#000000" points="87.5,-587.7 87.5,-606.7 221.5,-606.7 221.5,-587.7 87.5,-587.7"/>
<text text-anchor="start" x="90.5" y="-593.8" font-family="Helvetica,sans-Serif" font-size="11.00" fill="#000000">...</text>
<polygon fill="#ffffff" stroke="transparent" points="87.5,-568.7 87.5,-587.7 143.5,-587.7 143.5,-568.7 87.5,-568.7"/>
<polygon fill="none" stroke="#000000" points="87.5,-568.7 87.5,-587.7 143.5,-587.7 143.5,-568.7 87.5,-568.7"/>
<text text-anchor="start" x="90.5" y="-574.8" font-family="Helvetica,sans-Serif" font-size="11.00" fill="#000000"> &#160;</text>
<polygon fill="#ffffff" stroke="transparent" points="143.5,-568.7 143.5,-587.7 177.5,-587.7 177.5,-568.7 143.5,-568.7"/>
<polygon fill="none" stroke="#000000" points="143.5,-568.7 143.5,-587.7 177.5,-587.7 177.5,-568.7 143.5,-568.7"/>
<text text-anchor="start" x="168.3862" y="-574.8" font-family="Helvetica,sans-Serif" font-size="11.00" fill="#000000"> &#160;</text>
<polygon fill="#ffffff" stroke="transparent" points="177.5,-568.7 177.5,-587.7 221.5,-587.7 221.5,-568.7 177.5,-568.7"/>
<polygon fill="none" stroke="#000000" points="177.5,-568.7 177.5,-587.7 221.5,-587.7 221.5,-568.7 177.5,-568.7"/>
<text text-anchor="start" x="202.9053" y="-574.8" font-family="Helvetica,sans-Serif" font-size="11.00" fill="#000000">4 &gt;</text>
</a>
</g>
</g>
<!-- document_template_audit&#45;&gt;audit_revision -->
<g id="edge4" class="edge">
<title>document_template_audit:w&#45;&gt;audit_revision:e</title>
<path fill="none" stroke="#000000" d="M335.5819,-596.7C289.9776,-596.7 273.48,-596.7 221.5,-596.7"/>
<polygon fill="#000000" stroke="#000000" points="342,-596.7001 350,-600.3 346,-596.7 350,-596.7 350,-596.7 350,-596.7 346,-596.7 350,-593.1 342,-596.7001 342,-596.7001"/>
<ellipse fill="none" stroke="#000000" cx="338.8" cy="-596.7001" rx="3.2" ry="3.2"/>
</g>
<!-- document_template_group -->
<g id="node6" class="node">
<title>document_template_group</title>
<g id="a_node6"><a xlink:href="../../tables/document_template_group.html" xlink:title="document_template_group" target="_top">
<polygon fill="#ffffff" stroke="transparent" points="625.5,-114.2 625.5,-175.2 844.5,-175.2 844.5,-114.2 625.5,-114.2"/>
<polygon fill="#f5f5f5" stroke="transparent" points="626,-151.7 626,-174.7 845,-174.7 845,-151.7 626,-151.7"/>
<polygon fill="none" stroke="#000000" points="626,-151.7 626,-174.7 845,-174.7 845,-151.7 626,-151.7"/>
<text text-anchor="start" x="631" y="-160.3" font-family="Helvetica,sans-Serif" font-weight="bold" font-size="11.00" fill="#000000">document_template_group</text>
<text text-anchor="start" x="810.5219" y="-159.8" font-family="Helvetica,sans-Serif" font-size="11.00" fill="#000000">[table]</text>
<polygon fill="none" stroke="#000000" points="626,-132.7 626,-151.7 845,-151.7 845,-132.7 626,-132.7"/>
<text text-anchor="start" x="629" y="-138.8" font-family="Helvetica,sans-Serif" font-size="11.00" fill="#000000">...</text>
<polygon fill="#ffffff" stroke="transparent" points="626,-113.7 626,-132.7 734,-132.7 734,-113.7 626,-113.7"/>
<polygon fill="none" stroke="#000000" points="626,-113.7 626,-132.7 734,-132.7 734,-113.7 626,-113.7"/>
<text text-anchor="start" x="629" y="-119.8" font-family="Helvetica,sans-Serif" font-size="11.00" fill="#000000">&lt; 2</text>
<polygon fill="#ffffff" stroke="transparent" points="734,-113.7 734,-132.7 789,-132.7 789,-113.7 734,-113.7"/>
<polygon fill="none" stroke="#000000" points="734,-113.7 734,-132.7 789,-132.7 789,-113.7 734,-113.7"/>
<text text-anchor="start" x="779.8862" y="-119.8" font-family="Helvetica,sans-Serif" font-size="11.00" fill="#000000"> &#160;</text>
<polygon fill="#ffffff" stroke="transparent" points="789,-113.7 789,-132.7 845,-132.7 845,-113.7 789,-113.7"/>
<polygon fill="none" stroke="#000000" points="789,-113.7 789,-132.7 845,-132.7 845,-113.7 789,-113.7"/>
<text text-anchor="start" x="835.8862" y="-119.8" font-family="Helvetica,sans-Serif" font-size="11.00" fill="#000000"> &#160;</text>
</a>
</g>
</g>
<!-- document_template_group&#45;&gt;document_template -->
<g id="edge6" class="edge">
<title>document_template_group:w&#45;&gt;document_template:e</title>
<path fill="none" stroke="#000000" d="M611.7679,-144.2089C570.0598,-161.0265 601.2565,-256.7 544,-256.7"/>
<polygon fill="#000000" stroke="#000000" points="618.1215,-143.0889 626.625,-145.2453 622.0607,-142.3944 626,-141.7 626,-141.7 626,-141.7 622.0607,-142.3944 625.375,-138.1547 618.1215,-143.0889 618.1215,-143.0889"/>
<ellipse fill="none" stroke="#000000" cx="614.9701" cy="-143.6445" rx="3.2" ry="3.2"/>
</g>
<!-- template_group -->
<g id="node7" class="node">
<title>template_group</title>
<g id="a_node7"><a xlink:href="../../tables/template_group.html" xlink:title="template_group" target="_top">
<polygon fill="#ffffff" stroke="transparent" points="384.5,-38.2 384.5,-143.2 529.5,-143.2 529.5,-38.2 384.5,-38.2"/>
<polygon fill="#f5f5f5" stroke="transparent" points="385,-119.7 385,-142.7 530,-142.7 530,-119.7 385,-119.7"/>
<polygon fill="none" stroke="#000000" points="385,-119.7 385,-142.7 530,-142.7 530,-119.7 385,-119.7"/>
<text text-anchor="start" x="390" y="-128.3" font-family="Helvetica,sans-Serif" font-weight="bold" font-size="11.00" fill="#000000">template_group</text>
<text text-anchor="start" x="495.5219" y="-127.8" font-family="Helvetica,sans-Serif" font-size="11.00" fill="#000000">[table]</text>
<polygon fill="none" stroke="#000000" points="385,-97.7 385,-119.7 530,-119.7 530,-97.7 385,-97.7"/>
<image xlink:href="../../images/primaryKeys.png" width="11px" height="12px" preserveAspectRatio="xMinYMin meet" x="390" y="-114.7"/>
<text text-anchor="start" x="414" y="-104.8" font-family="Helvetica,sans-Serif" font-size="11.00" fill="#000000">id</text>
<polygon fill="#ffffff" stroke="transparent" points="385,-75.7 385,-97.7 530,-97.7 530,-75.7 385,-75.7"/>
<polygon fill="none" stroke="#000000" points="385,-75.7 385,-97.7 530,-97.7 530,-75.7 385,-75.7"/>
<image xlink:href="../../images/foreignKeys.png" width="11px" height="12px" preserveAspectRatio="xMinYMin meet" x="390" y="-92.7"/>
<text text-anchor="start" x="414" y="-82.8" font-family="Helvetica,sans-Serif" font-size="11.00" fill="#000000">code</text>
<polygon fill="none" stroke="#000000" points="385,-56.7 385,-75.7 530,-75.7 530,-56.7 385,-56.7"/>
<text text-anchor="start" x="388" y="-62.8" font-family="Helvetica,sans-Serif" font-size="11.00" fill="#000000">...</text>
<polygon fill="#ffffff" stroke="transparent" points="385,-37.7 385,-56.7 451,-56.7 451,-37.7 385,-37.7"/>
<polygon fill="none" stroke="#000000" points="385,-37.7 385,-56.7 451,-56.7 451,-37.7 385,-37.7"/>
<text text-anchor="start" x="388" y="-43.8" font-family="Helvetica,sans-Serif" font-size="11.00" fill="#000000">&lt; 1</text>
<polygon fill="#ffffff" stroke="transparent" points="451,-37.7 451,-56.7 486,-56.7 486,-37.7 451,-37.7"/>
<polygon fill="none" stroke="#000000" points="451,-37.7 451,-56.7 486,-56.7 486,-37.7 451,-37.7"/>
<text text-anchor="start" x="476.8862" y="-43.8" font-family="Helvetica,sans-Serif" font-size="11.00" fill="#000000"> &#160;</text>
<polygon fill="#ffffff" stroke="transparent" points="486,-37.7 486,-56.7 530,-56.7 530,-37.7 486,-37.7"/>
<polygon fill="none" stroke="#000000" points="486,-37.7 486,-56.7 530,-56.7 530,-37.7 486,-37.7"/>
<text text-anchor="start" x="511.4053" y="-43.8" font-family="Helvetica,sans-Serif" font-size="11.00" fill="#000000">1 &gt;</text>
</a>
</g>
</g>
<!-- document_template_group&#45;&gt;template_group -->
<g id="edge5" class="edge">
<title>document_template_group:w&#45;&gt;template_group:e</title>
<path fill="none" stroke="#000000" d="M611.6331,-140.4467C578.9911,-134.4188 569.83,-108.7 530,-108.7"/>
<polygon fill="#000000" stroke="#000000" points="618.0303,-141.0047 625.6871,-145.2864 622.0151,-141.3523 626,-141.7 626,-141.7 626,-141.7 622.0151,-141.3523 626.3129,-138.1136 618.0303,-141.0047 618.0303,-141.0047"/>
<ellipse fill="none" stroke="#000000" cx="614.8424" cy="-140.7266" rx="3.2" ry="3.2"/>
</g>
<!-- template_group&#45;&gt;template_variable_domain -->
<g id="edge9" class="edge">
<title>template_group:w&#45;&gt;template_variable_domain:e</title>
<path fill="none" stroke="#000000" stroke-dasharray="5,2" d="M374.4597,-87.9615C350.6062,-94.4109 353.5513,-124.5291 342,-153.7 322.9442,-201.8223 351.2579,-382.7 299.5,-382.7"/>
<polygon fill="#000000" stroke="#000000" points="383.7303,-82.8234 384.6811,-90.7667 383.0924,-90.9569 382.1416,-83.0136 383.7303,-82.8234"/>
<polyline fill="none" stroke="#000000" points="385,-86.7 381.0283,-87.1754 "/>
<ellipse fill="none" stroke="#000000" cx="377.851" cy="-87.5557" rx="3.2" ry="3.2"/>
</g>
<!-- document_template_variable -->
<g id="node8" class="node">
<title>document_template_variable</title>
<g id="a_node8"><a xlink:href="../../tables/document_template_variable.html" xlink:title="document_template_variable" target="_top">
<polygon fill="#ffffff" stroke="transparent" points="618,-355.2 618,-416.2 852,-416.2 852,-355.2 618,-355.2"/>
<polygon fill="#f5f5f5" stroke="transparent" points="618,-392.7 618,-415.7 852,-415.7 852,-392.7 618,-392.7"/>
<polygon fill="none" stroke="#000000" points="618,-392.7 618,-415.7 852,-415.7 852,-392.7 618,-392.7"/>
<text text-anchor="start" x="623" y="-401.3" font-family="Helvetica,sans-Serif" font-weight="bold" font-size="11.00" fill="#000000">document_template_variable</text>
<text text-anchor="start" x="817.5219" y="-400.8" font-family="Helvetica,sans-Serif" font-size="11.00" fill="#000000">[table]</text>
<polygon fill="none" stroke="#000000" points="618,-373.7 618,-392.7 852,-392.7 852,-373.7 618,-373.7"/>
<text text-anchor="start" x="621" y="-379.8" font-family="Helvetica,sans-Serif" font-size="11.00" fill="#000000">...</text>
<polygon fill="#ffffff" stroke="transparent" points="618,-354.7 618,-373.7 733,-373.7 733,-354.7 618,-354.7"/>
<polygon fill="none" stroke="#000000" points="618,-354.7 618,-373.7 733,-373.7 733,-354.7 618,-354.7"/>
<text text-anchor="start" x="621" y="-360.8" font-family="Helvetica,sans-Serif" font-size="11.00" fill="#000000">&lt; 2</text>
<polygon fill="#ffffff" stroke="transparent" points="733,-354.7 733,-373.7 792,-373.7 792,-354.7 733,-354.7"/>
<polygon fill="none" stroke="#000000" points="733,-354.7 733,-373.7 792,-373.7 792,-354.7 733,-354.7"/>
<text text-anchor="start" x="782.8862" y="-360.8" font-family="Helvetica,sans-Serif" font-size="11.00" fill="#000000"> &#160;</text>
<polygon fill="#ffffff" stroke="transparent" points="792,-354.7 792,-373.7 852,-373.7 852,-354.7 792,-354.7"/>
<polygon fill="none" stroke="#000000" points="792,-354.7 792,-373.7 852,-373.7 852,-354.7 792,-354.7"/>
<text text-anchor="start" x="842.8862" y="-360.8" font-family="Helvetica,sans-Serif" font-size="11.00" fill="#000000"> &#160;</text>
</a>
</g>
</g>
<!-- document_template_variable&#45;&gt;document_template -->
<g id="edge7" class="edge">
<title>document_template_variable:w&#45;&gt;document_template:e</title>
<path fill="none" stroke="#000000" d="M603.7804,-380.0683C561.7696,-361.9743 603.3626,-256.7 544,-256.7"/>
<polygon fill="#000000" stroke="#000000" points="610.1336,-381.2441 617.3448,-386.2399 614.0668,-381.972 618,-382.7 618,-382.7 618,-382.7 614.0668,-381.972 618.6552,-379.1601 610.1336,-381.2441 610.1336,-381.2441"/>
<ellipse fill="none" stroke="#000000" cx="606.987" cy="-380.6617" rx="3.2" ry="3.2"/>
</g>
<!-- template_variable -->
<g id="node9" class="node">
<title>template_variable</title>
<g id="a_node9"><a xlink:href="../../tables/template_variable.html" xlink:title="template_variable" target="_top">
<polygon fill="#ffffff" stroke="transparent" points="377,-312.2 377,-461.2 537,-461.2 537,-312.2 377,-312.2"/>
<polygon fill="#f5f5f5" stroke="transparent" points="377,-437.7 377,-460.7 537,-460.7 537,-437.7 377,-437.7"/>
<polygon fill="none" stroke="#000000" points="377,-437.7 377,-460.7 537,-460.7 537,-437.7 377,-437.7"/>
<text text-anchor="start" x="382" y="-446.3" font-family="Helvetica,sans-Serif" font-weight="bold" font-size="11.00" fill="#000000">template_variable</text>
<text text-anchor="start" x="502.5219" y="-445.8" font-family="Helvetica,sans-Serif" font-size="11.00" fill="#000000">[table]</text>
<polygon fill="none" stroke="#000000" points="377,-415.7 377,-437.7 537,-437.7 537,-415.7 377,-415.7"/>
<image xlink:href="../../images/primaryKeys.png" width="11px" height="12px" preserveAspectRatio="xMinYMin meet" x="382" y="-432.7"/>
<text text-anchor="start" x="406" y="-422.8" font-family="Helvetica,sans-Serif" font-size="11.00" fill="#000000">id</text>
<polygon fill="#ffffff" stroke="transparent" points="377,-393.7 377,-415.7 537,-415.7 537,-393.7 377,-393.7"/>
<polygon fill="none" stroke="#000000" points="377,-393.7 377,-415.7 537,-415.7 537,-393.7 377,-393.7"/>
<image xlink:href="../../images/foreignKeys.png" width="11px" height="12px" preserveAspectRatio="xMinYMin meet" x="382" y="-410.7"/>
<text text-anchor="start" x="406" y="-400.8" font-family="Helvetica,sans-Serif" font-size="11.00" fill="#000000">domain</text>
<polygon fill="#ffffff" stroke="transparent" points="377,-371.7 377,-393.7 537,-393.7 537,-371.7 377,-371.7"/>
<polygon fill="none" stroke="#000000" points="377,-371.7 377,-393.7 537,-393.7 537,-371.7 377,-371.7"/>
<image xlink:href="../../images/foreignKeys.png" width="11px" height="12px" preserveAspectRatio="xMinYMin meet" x="382" y="-388.7"/>
<text text-anchor="start" x="406" y="-378.8" font-family="Helvetica,sans-Serif" font-size="11.00" fill="#000000">code</text>
<polygon fill="#ffffff" stroke="transparent" points="377,-349.7 377,-371.7 537,-371.7 537,-349.7 377,-349.7"/>
<polygon fill="none" stroke="#000000" points="377,-349.7 377,-371.7 537,-371.7 537,-349.7 377,-349.7"/>
<text text-anchor="start" x="406" y="-356.8" font-family="Helvetica,sans-Serif" font-size="11.00" fill="#000000">sequence_number</text>
<polygon fill="none" stroke="#000000" points="377,-330.7 377,-349.7 537,-349.7 537,-330.7 377,-330.7"/>
<text text-anchor="start" x="380" y="-336.8" font-family="Helvetica,sans-Serif" font-size="11.00" fill="#000000">...</text>
<polygon fill="#ffffff" stroke="transparent" points="377,-311.7 377,-330.7 451,-330.7 451,-311.7 377,-311.7"/>
<polygon fill="none" stroke="#000000" points="377,-311.7 377,-330.7 451,-330.7 451,-311.7 377,-311.7"/>
<text text-anchor="start" x="380" y="-317.8" font-family="Helvetica,sans-Serif" font-size="11.00" fill="#000000">&lt; 2</text>
<polygon fill="#ffffff" stroke="transparent" points="451,-311.7 451,-330.7 489,-330.7 489,-311.7 451,-311.7"/>
<polygon fill="none" stroke="#000000" points="451,-311.7 451,-330.7 489,-330.7 489,-311.7 451,-311.7"/>
<text text-anchor="start" x="479.8862" y="-317.8" font-family="Helvetica,sans-Serif" font-size="11.00" fill="#000000"> &#160;</text>
<polygon fill="#ffffff" stroke="transparent" points="489,-311.7 489,-330.7 537,-330.7 537,-311.7 489,-311.7"/>
<polygon fill="none" stroke="#000000" points="489,-311.7 489,-330.7 537,-330.7 537,-311.7 489,-311.7"/>
<text text-anchor="start" x="518.4053" y="-317.8" font-family="Helvetica,sans-Serif" font-size="11.00" fill="#000000">1 &gt;</text>
</a>
</g>
</g>
<!-- document_template_variable&#45;&gt;template_variable -->
<g id="edge8" class="edge">
<title>document_template_variable:w&#45;&gt;template_variable:e</title>
<path fill="none" stroke="#000000" d="M603.6978,-384.8222C576.5412,-393.6114 572.5274,-426.7 537,-426.7"/>
<polygon fill="#000000" stroke="#000000" points="610.0866,-383.8743 618.5284,-386.261 614.0433,-383.2871 618,-382.7 618,-382.7 618,-382.7 614.0433,-383.2871 617.4716,-379.139 610.0866,-383.8743 610.0866,-383.8743"/>
<ellipse fill="none" stroke="#000000" cx="606.9213" cy="-384.344" rx="3.2" ry="3.2"/>
</g>
<!-- template_variable&#45;&gt;template_variable_domain -->
<g id="edge10" class="edge">
<title>template_variable:w&#45;&gt;template_variable_domain:e</title>
<path fill="none" stroke="#000000" stroke-dasharray="5,2" d="M366.5574,-382.7C340.3628,-382.7 330.1771,-382.7 299.5,-382.7"/>
<polygon fill="#000000" stroke="#000000" points="376.2,-378.7 376.2,-386.7 374.6,-386.7 374.6,-378.7 376.2,-378.7"/>
<polyline fill="none" stroke="#000000" points="377,-382.7 373,-382.7 "/>
<ellipse fill="none" stroke="#000000" cx="369.8" cy="-382.7001" rx="3.2" ry="3.2"/>
</g>
<!-- template_variable&#45;&gt;template_variable_domain -->
<g id="edge11" class="edge">
<title>template_variable:w&#45;&gt;template_variable_domain:e</title>
<path fill="none" stroke="#000000" d="M362.5072,-403.3238C338.7059,-398.5075 329.8506,-382.7 299.5,-382.7"/>
<polygon fill="#000000" stroke="#000000" points="369.0358,-403.9437 376.6597,-408.2839 373.0179,-404.3218 377,-404.7 377,-404.7 377,-404.7 373.0179,-404.3218 377.3403,-401.1161 369.0358,-403.9437 369.0358,-403.9437"/>
<ellipse fill="none" stroke="#000000" cx="365.8502" cy="-403.6412" rx="3.2" ry="3.2"/>
</g>
</g>
</svg>
