<?xml version="1.0" encoding="UTF-8" standalone="no"?>
<!DOCTYPE svg PUBLIC "-//W3C//DTD SVG 1.1//EN"
 "http://www.w3.org/Graphics/SVG/1.1/DTD/svg11.dtd">
<!-- Generated by graphviz version 2.40.1 (20161225.0304)
 -->
<!-- Title: twoDegreesRelationshipsDiagramImplied Pages: 1 -->
<svg width="863pt" height="643pt"
 viewBox="0.00 0.00 863.00 643.20" xmlns="http://www.w3.org/2000/svg" xmlns:xlink="http://www.w3.org/1999/xlink">
<g id="graph0" class="graph" transform="scale(1 1) rotate(0) translate(4 639.2)">
<title>twoDegreesRelationshipsDiagramImplied</title>
<polygon fill="#ffffff" stroke="transparent" points="-4,4 -4,-639.2 859,-639.2 859,4 -4,4"/>
<text text-anchor="middle" x="72.4936" y="-7.3" font-family="Helvetica,sans-Serif" font-size="11.00" fill="#000000">Generated by SchemaSpy</text>
<!-- document_template -->
<g id="node1" class="node">
<title>document_template</title>
<g id="a_node1"><a xlink:href="../../tables/document_template.html" xlink:title="document_template" target="_top">
<polygon fill="#ffffff" stroke="transparent" points="370.5,-208.2 370.5,-335.2 543.5,-335.2 543.5,-208.2 370.5,-208.2"/>
<polygon fill="#f5f5f5" stroke="transparent" points="371,-311.7 371,-334.7 544,-334.7 544,-311.7 371,-311.7"/>
<polygon fill="none" stroke="#000000" points="371,-311.7 371,-334.7 544,-334.7 544,-311.7 371,-311.7"/>
<text text-anchor="start" x="376" y="-320.3" font-family="Helvetica,sans-Serif" font-weight="bold" font-size="11.00" fill="#000000">document_template</text>
<text text-anchor="start" x="509.5219" y="-319.8" font-family="Helvetica,sans-Serif" font-size="11.00" fill="#000000">[table]</text>
<polygon fill="none" stroke="#000000" points="371,-289.7 371,-311.7 544,-311.7 544,-289.7 371,-289.7"/>
<image xlink:href="../../images/primaryKeys.png" width="11px" height="12px" preserveAspectRatio="xMinYMin meet" x="376" y="-306.7"/>
<text text-anchor="start" x="400" y="-296.8" font-family="Helvetica,sans-Serif" font-size="11.00" fill="#000000">id</text>
<polygon fill="#ffffff" stroke="transparent" points="371,-267.7 371,-289.7 544,-289.7 544,-267.7 371,-267.7"/>
<polygon fill="none" stroke="#000000" points="371,-267.7 371,-289.7 544,-289.7 544,-267.7 371,-267.7"/>
<image xlink:href="../../images/foreignKeys.png" width="11px" height="12px" preserveAspectRatio="xMinYMin meet" x="376" y="-284.7"/>
<text text-anchor="start" x="400" y="-274.8" font-family="Helvetica,sans-Serif" font-size="11.00" fill="#000000">code</text>
<polygon fill="#ffffff" stroke="transparent" points="371,-245.7 371,-267.7 544,-267.7 544,-245.7 371,-245.7"/>
<polygon fill="none" stroke="#000000" points="371,-245.7 371,-267.7 544,-267.7 544,-245.7 371,-245.7"/>
<text text-anchor="start" x="400" y="-252.8" font-family="Helvetica,sans-Serif" font-size="11.00" fill="#000000">external_reference</text>
<polygon fill="none" stroke="#000000" points="371,-226.7 371,-245.7 544,-245.7 544,-226.7 371,-226.7"/>
<text text-anchor="start" x="374" y="-232.8" font-family="Helvetica,sans-Serif" font-size="11.00" fill="#000000">...</text>
<polygon fill="#ffffff" stroke="transparent" points="371,-207.7 371,-226.7 451,-226.7 451,-207.7 371,-207.7"/>
<polygon fill="none" stroke="#000000" points="371,-207.7 371,-226.7 451,-226.7 451,-207.7 371,-207.7"/>
<text text-anchor="start" x="374" y="-213.8" font-family="Helvetica,sans-Serif" font-size="11.00" fill="#000000">&lt; 1</text>
<polygon fill="#ffffff" stroke="transparent" points="451,-207.7 451,-226.7 493,-226.7 493,-207.7 451,-207.7"/>
<polygon fill="none" stroke="#000000" points="451,-207.7 451,-226.7 493,-226.7 493,-207.7 451,-207.7"/>
<text text-anchor="start" x="483.8862" y="-213.8" font-family="Helvetica,sans-Serif" font-size="11.00" fill="#000000"> &#160;</text>
<polygon fill="#ffffff" stroke="transparent" points="493,-207.7 493,-226.7 544,-226.7 544,-207.7 493,-207.7"/>
<polygon fill="none" stroke="#000000" points="493,-207.7 493,-226.7 544,-226.7 544,-207.7 493,-207.7"/>
<text text-anchor="start" x="525.4053" y="-213.8" font-family="Helvetica,sans-Serif" font-size="11.00" fill="#000000">2 &gt;</text>
</a>
</g>
</g>
<!-- template_variable_domain -->
<g id="node2" class="node">
<title>template_variable_domain</title>
<g id="a_node2"><a xlink:href="../../tables/template_variable_domain.html" xlink:title="template_variable_domain" target="_top">
<polygon fill="#ffffff" stroke="transparent" points="8,-202.7 8,-314.7 301,-314.7 301,-202.7 8,-202.7"/>
<polygon fill="#f5f5f5" stroke="transparent" points="10.5,-289.7 10.5,-312.7 299.5,-312.7 299.5,-289.7 10.5,-289.7"/>
<polygon fill="none" stroke="#000000" points="10.5,-289.7 10.5,-312.7 299.5,-312.7 299.5,-289.7 10.5,-289.7"/>
<text text-anchor="start" x="15.5" y="-298.3" font-family="Helvetica,sans-Serif" font-weight="bold" font-size="11.00" fill="#000000">template_variable_domain</text>
<text text-anchor="start" x="264.5437" y="-297.8" font-family="Helvetica,sans-Serif" font-size="11.00" fill="#000000">[table]</text>
<polygon fill="none" stroke="#000000" points="10.5,-267.7 10.5,-289.7 209.5,-289.7 209.5,-267.7 10.5,-267.7"/>
<image xlink:href="../../images/primaryKeys.png" width="11px" height="12px" preserveAspectRatio="xMinYMin meet" x="15.5" y="-284.7"/>
<text text-anchor="start" x="30.5" y="-274.8" font-family="Helvetica,sans-Serif" font-size="11.00" fill="#000000">code</text>
<polygon fill="none" stroke="#000000" points="209.5,-267.7 209.5,-289.7 299.5,-289.7 299.5,-267.7 209.5,-267.7"/>
<text text-anchor="start" x="212.0043" y="-275.4" font-family="Helvetica,sans-Serif" font-size="11.00" fill="#000000">text[2147483647]</text>
<polygon fill="none" stroke="#000000" points="10.5,-245.7 10.5,-267.7 209.5,-267.7 209.5,-245.7 10.5,-245.7"/>
<text text-anchor="start" x="30.5" y="-252.8" font-family="Helvetica,sans-Serif" font-size="11.00" fill="#000000">description</text>
<polygon fill="none" stroke="#000000" points="209.5,-245.7 209.5,-267.7 299.5,-267.7 299.5,-245.7 209.5,-245.7"/>
<text text-anchor="start" x="212.0043" y="-253.4" font-family="Helvetica,sans-Serif" font-size="11.00" fill="#000000">text[2147483647]</text>
<polygon fill="#ffffff" stroke="transparent" points="10.5,-223.7 10.5,-245.7 209.5,-245.7 209.5,-223.7 10.5,-223.7"/>
<polygon fill="none" stroke="#000000" points="10.5,-223.7 10.5,-245.7 209.5,-245.7 209.5,-223.7 10.5,-223.7"/>
<text text-anchor="start" x="30.5" y="-230.8" font-family="Helvetica,sans-Serif" font-size="11.00" fill="#000000">sequence_number</text>
<polygon fill="none" stroke="#000000" points="209.5,-223.7 209.5,-245.7 299.5,-245.7 299.5,-223.7 209.5,-223.7"/>
<text text-anchor="start" x="212.5" y="-231.4" font-family="Helvetica,sans-Serif" font-size="11.00" fill="#000000">int4[10]</text>
<polygon fill="#ffffff" stroke="transparent" points="10.5,-204.7 10.5,-223.7 114.5,-223.7 114.5,-204.7 10.5,-204.7"/>
<polygon fill="none" stroke="#000000" points="10.5,-204.7 10.5,-223.7 114.5,-223.7 114.5,-204.7 10.5,-204.7"/>
<text text-anchor="start" x="13.5" y="-210.8" font-family="Helvetica,sans-Serif" font-size="11.00" fill="#000000">&lt; 0</text>
<polygon fill="#ffffff" stroke="transparent" points="114.5,-204.7 114.5,-223.7 209.5,-223.7 209.5,-204.7 114.5,-204.7"/>
<polygon fill="none" stroke="#000000" points="114.5,-204.7 114.5,-223.7 209.5,-223.7 209.5,-204.7 114.5,-204.7"/>
<text text-anchor="start" x="200.3862" y="-210.8" font-family="Helvetica,sans-Serif" font-size="11.00" fill="#000000"> &#160;</text>
<polygon fill="#ffffff" stroke="transparent" points="209.5,-204.7 209.5,-223.7 299.5,-223.7 299.5,-204.7 209.5,-204.7"/>
<polygon fill="none" stroke="#000000" points="209.5,-204.7 209.5,-223.7 299.5,-223.7 299.5,-204.7 209.5,-204.7"/>
<text text-anchor="start" x="280.9053" y="-210.8" font-family="Helvetica,sans-Serif" font-size="11.00" fill="#000000">5 &gt;</text>
<polygon fill="none" stroke="#000000" stroke-width="2" points="9,-203.7 9,-313.7 300,-313.7 300,-203.7 9,-203.7"/>
</a>
</g>
</g>
<!-- document_template&#45;&gt;template_variable_domain -->
<g id="edge1" class="edge">
<title>document_template:w&#45;&gt;template_variable_domain:e</title>
<path fill="none" stroke="#000000" stroke-dasharray="5,2" d="M360.4195,-278.7C336.9487,-278.7 327.4297,-278.7 299.5,-278.7"/>
<polygon fill="#000000" stroke="#000000" points="370.2,-274.7 370.2,-282.7 368.6,-282.7 368.6,-274.7 370.2,-274.7"/>
<polyline fill="none" stroke="#000000" points="371,-278.7 367,-278.7 "/>
<ellipse fill="none" stroke="#000000" cx="363.8" cy="-278.7001" rx="3.2" ry="3.2"/>
</g>
<!-- document_template_audit -->
<g id="node3" class="node">
<title>document_template_audit</title>
<g id="a_node3"><a xlink:href="../../tables/document_template_audit.html" xlink:title="document_template_audit" target="_top">
<polygon fill="#ffffff" stroke="transparent" points="350,-482.2 350,-631.2 564,-631.2 564,-482.2 350,-482.2"/>
<polygon fill="#f5f5f5" stroke="transparent" points="350,-607.7 350,-630.7 564,-630.7 564,-607.7 350,-607.7"/>
<polygon fill="none" stroke="#000000" points="350,-607.7 350,-630.7 564,-630.7 564,-607.7 350,-607.7"/>
<text text-anchor="start" x="355" y="-616.3" font-family="Helvetica,sans-Serif" font-weight="bold" font-size="11.00" fill="#000000">document_template_audit</text>
<text text-anchor="start" x="529.5219" y="-615.8" font-family="Helvetica,sans-Serif" font-size="11.00" fill="#000000">[table]</text>
<polygon fill="none" stroke="#000000" points="350,-585.7 350,-607.7 564,-607.7 564,-585.7 350,-585.7"/>
<image xlink:href="../../images/primaryKeys.png" width="11px" height="12px" preserveAspectRatio="xMinYMin meet" x="355" y="-602.7"/>
<text text-anchor="start" x="379" y="-592.8" font-family="Helvetica,sans-Serif" font-size="11.00" fill="#000000">rev_id</text>
<polygon fill="none" stroke="#000000" points="350,-563.7 350,-585.7 564,-585.7 564,-563.7 350,-563.7"/>
<image xlink:href="../../images/primaryKeys.png" width="11px" height="12px" preserveAspectRatio="xMinYMin meet" x="355" y="-580.7"/>
<text text-anchor="start" x="379" y="-570.8" font-family="Helvetica,sans-Serif" font-size="11.00" fill="#000000">id</text>
<polygon fill="none" stroke="#000000" points="350,-541.7 350,-563.7 564,-563.7 564,-541.7 350,-541.7"/>
<image xlink:href="../../images/foreignKeys.png" width="11px" height="12px" preserveAspectRatio="xMinYMin meet" x="355" y="-558.7"/>
<text text-anchor="start" x="379" y="-548.8" font-family="Helvetica,sans-Serif" font-size="11.00" fill="#000000">code</text>
<polygon fill="#ffffff" stroke="transparent" points="350,-519.7 350,-541.7 564,-541.7 564,-519.7 350,-519.7"/>
<polygon fill="none" stroke="#000000" points="350,-519.7 350,-541.7 564,-541.7 564,-519.7 350,-519.7"/>
<text text-anchor="start" x="379" y="-526.8" font-family="Helvetica,sans-Serif" font-size="11.00" fill="#000000">external_reference</text>
<polygon fill="none" stroke="#000000" points="350,-500.7 350,-519.7 564,-519.7 564,-500.7 350,-500.7"/>
<text text-anchor="start" x="353" y="-506.8" font-family="Helvetica,sans-Serif" font-size="11.00" fill="#000000">...</text>
<polygon fill="#ffffff" stroke="transparent" points="350,-481.7 350,-500.7 455,-500.7 455,-481.7 350,-481.7"/>
<polygon fill="none" stroke="#000000" points="350,-481.7 350,-500.7 455,-500.7 455,-481.7 350,-481.7"/>
<text text-anchor="start" x="353" y="-487.8" font-family="Helvetica,sans-Serif" font-size="11.00" fill="#000000">&lt; 2</text>
<polygon fill="#ffffff" stroke="transparent" points="455,-481.7 455,-500.7 509,-500.7 509,-481.7 455,-481.7"/>
<polygon fill="none" stroke="#000000" points="455,-481.7 455,-500.7 509,-500.7 509,-481.7 455,-481.7"/>
<text text-anchor="start" x="499.8862" y="-487.8" font-family="Helvetica,sans-Serif" font-size="11.00" fill="#000000"> &#160;</text>
<polygon fill="#ffffff" stroke="transparent" points="509,-481.7 509,-500.7 564,-500.7 564,-481.7 509,-481.7"/>
<polygon fill="none" stroke="#000000" points="509,-481.7 509,-500.7 564,-500.7 564,-481.7 509,-481.7"/>
<text text-anchor="start" x="554.8862" y="-487.8" font-family="Helvetica,sans-Serif" font-size="11.00" fill="#000000"> &#160;</text>
</a>
</g>
</g>
<!-- document_template_audit&#45;&gt;template_variable_domain -->
<g id="edge2" class="edge">
<title>document_template_audit:w&#45;&gt;template_variable_domain:e</title>
<path fill="none" stroke="#000000" stroke-dasharray="5,2" d="M336.6254,-546.7223C299.9307,-506.6525 355.9727,-278.7 299.5,-278.7"/>
<polygon fill="#000000" stroke="#000000" points="342.6963,-549.4356 348.531,-555.9867 346.3481,-551.0678 350,-552.7 350,-552.7 350,-552.7 346.3481,-551.0678 351.469,-549.4133 342.6963,-549.4356 342.6963,-549.4356"/>
<ellipse fill="none" stroke="#000000" cx="339.7748" cy="-548.1299" rx="3.2" ry="3.2"/>
</g>
<!-- audit_revision -->
<g id="node4" class="node">
<title>audit_revision</title>
<g id="a_node4"><a xlink:href="../../tables/audit_revision.html" xlink:title="audit_revision" target="_top">
<polygon fill="#ffffff" stroke="transparent" points="87.5,-569.2 87.5,-630.2 221.5,-630.2 221.5,-569.2 87.5,-569.2"/>
<polygon fill="#f5f5f5" stroke="transparent" points="87.5,-606.7 87.5,-629.7 221.5,-629.7 221.5,-606.7 87.5,-606.7"/>
<polygon fill="none" stroke="#000000" points="87.5,-606.7 87.5,-629.7 221.5,-629.7 221.5,-606.7 87.5,-606.7"/>
<text text-anchor="start" x="92.5" y="-615.3" font-family="Helvetica,sans-Serif" font-weight="bold" font-size="11.00" fill="#000000">audit_revision</text>
<text text-anchor="start" x="187.0219" y="-614.8" font-family="Helvetica,sans-Serif" font-size="11.00" fill="#000000">[table]</text>
<polygon fill="none" stroke="#000000" points="87.5,-587.7 87.5,-606.7 221.5,-606.7 221.5,-587.7 87.5,-587.7"/>
<text text-anchor="start" x="90.5" y="-593.8" font-family="Helvetica,sans-Serif" font-size="11.00" fill="#000000">...</text>
<polygon fill="#ffffff" stroke="transparent" points="87.5,-568.7 87.5,-587.7 143.5,-587.7 143.5,-568.7 87.5,-568.7"/>
<polygon fill="none" stroke="#000000" points="87.5,-568.7 87.5,-587.7 143.5,-587.7 143.5,-568.7 87.5,-568.7"/>
<text text-anchor="start" x="90.5" y="-574.8" font-family="Helvetica,sans-Serif" font-size="11.00" fill="#000000"> &#160;</text>
<polygon fill="#ffffff" stroke="transparent" points="143.5,-568.7 143.5,-587.7 177.5,-587.7 177.5,-568.7 143.5,-568.7"/>
<polygon fill="none" stroke="#000000" points="143.5,-568.7 143.5,-587.7 177.5,-587.7 177.5,-568.7 143.5,-568.7"/>
<text text-anchor="start" x="168.3862" y="-574.8" font-family="Helvetica,sans-Serif" font-size="11.00" fill="#000000"> &#160;</text>
<polygon fill="#ffffff" stroke="transparent" points="177.5,-568.7 177.5,-587.7 221.5,-587.7 221.5,-568.7 177.5,-568.7"/>
<polygon fill="none" stroke="#000000" points="177.5,-568.7 177.5,-587.7 221.5,-587.7 221.5,-568.7 177.5,-568.7"/>
<text text-anchor="start" x="202.9053" y="-574.8" font-family="Helvetica,sans-Serif" font-size="11.00" fill="#000000">3 &gt;</text>
</a>
</g>
</g>
<!-- document_template_audit&#45;&gt;audit_revision -->
<g id="edge3" class="edge">
<title>document_template_audit:w&#45;&gt;audit_revision:e</title>
<path fill="none" stroke="#000000" d="M335.5819,-596.7C289.9776,-596.7 273.48,-596.7 221.5,-596.7"/>
<polygon fill="#000000" stroke="#000000" points="342,-596.7001 350,-600.3 346,-596.7 350,-596.7 350,-596.7 350,-596.7 346,-596.7 350,-593.1 342,-596.7001 342,-596.7001"/>
<ellipse fill="none" stroke="#000000" cx="338.8" cy="-596.7001" rx="3.2" ry="3.2"/>
</g>
<!-- document_template_group -->
<g id="node5" class="node">
<title>document_template_group</title>
<g id="a_node5"><a xlink:href="../../tables/document_template_group.html" xlink:title="document_template_group" target="_top">
<polygon fill="#ffffff" stroke="transparent" points="620.5,-330.2 620.5,-391.2 839.5,-391.2 839.5,-330.2 620.5,-330.2"/>
<polygon fill="#f5f5f5" stroke="transparent" points="621,-367.7 621,-390.7 840,-390.7 840,-367.7 621,-367.7"/>
<polygon fill="none" stroke="#000000" points="621,-367.7 621,-390.7 840,-390.7 840,-367.7 621,-367.7"/>
<text text-anchor="start" x="626" y="-376.3" font-family="Helvetica,sans-Serif" font-weight="bold" font-size="11.00" fill="#000000">document_template_group</text>
<text text-anchor="start" x="805.5219" y="-375.8" font-family="Helvetica,sans-Serif" font-size="11.00" fill="#000000">[table]</text>
<polygon fill="none" stroke="#000000" points="621,-348.7 621,-367.7 840,-367.7 840,-348.7 621,-348.7"/>
<text text-anchor="start" x="624" y="-354.8" font-family="Helvetica,sans-Serif" font-size="11.00" fill="#000000">...</text>
<polygon fill="#ffffff" stroke="transparent" points="621,-329.7 621,-348.7 729,-348.7 729,-329.7 621,-329.7"/>
<polygon fill="none" stroke="#000000" points="621,-329.7 621,-348.7 729,-348.7 729,-329.7 621,-329.7"/>
<text text-anchor="start" x="624" y="-335.8" font-family="Helvetica,sans-Serif" font-size="11.00" fill="#000000">&lt; 2</text>
<polygon fill="#ffffff" stroke="transparent" points="729,-329.7 729,-348.7 784,-348.7 784,-329.7 729,-329.7"/>
<polygon fill="none" stroke="#000000" points="729,-329.7 729,-348.7 784,-348.7 784,-329.7 729,-329.7"/>
<text text-anchor="start" x="774.8862" y="-335.8" font-family="Helvetica,sans-Serif" font-size="11.00" fill="#000000"> &#160;</text>
<polygon fill="#ffffff" stroke="transparent" points="784,-329.7 784,-348.7 840,-348.7 840,-329.7 784,-329.7"/>
<polygon fill="none" stroke="#000000" points="784,-329.7 784,-348.7 840,-348.7 840,-329.7 784,-329.7"/>
<text text-anchor="start" x="830.8862" y="-335.8" font-family="Helvetica,sans-Serif" font-size="11.00" fill="#000000"> &#160;</text>
</a>
</g>
</g>
<!-- document_template_group&#45;&gt;document_template -->
<g id="edge5" class="edge">
<title>document_template_group:w&#45;&gt;document_template:e</title>
<path fill="none" stroke="#000000" d="M606.4822,-354.9508C579.6932,-343.5648 580.9236,-300.7 544,-300.7"/>
<polygon fill="#000000" stroke="#000000" points="613.1397,-356.2115 620.3302,-361.2371 617.0698,-356.9557 621,-357.7 621,-357.7 621,-357.7 617.0698,-356.9557 621.6698,-354.1629 613.1397,-356.2115 613.1397,-356.2115"/>
<ellipse fill="none" stroke="#000000" cx="609.9956" cy="-355.616" rx="3.2" ry="3.2"/>
</g>
<!-- template_group -->
<g id="node6" class="node">
<title>template_group</title>
<g id="a_node6"><a xlink:href="../../tables/template_group.html" xlink:title="template_group" target="_top">
<polygon fill="#ffffff" stroke="transparent" points="384.5,-356.2 384.5,-461.2 529.5,-461.2 529.5,-356.2 384.5,-356.2"/>
<polygon fill="#f5f5f5" stroke="transparent" points="385,-437.7 385,-460.7 530,-460.7 530,-437.7 385,-437.7"/>
<polygon fill="none" stroke="#000000" points="385,-437.7 385,-460.7 530,-460.7 530,-437.7 385,-437.7"/>
<text text-anchor="start" x="390" y="-446.3" font-family="Helvetica,sans-Serif" font-weight="bold" font-size="11.00" fill="#000000">template_group</text>
<text text-anchor="start" x="495.5219" y="-445.8" font-family="Helvetica,sans-Serif" font-size="11.00" fill="#000000">[table]</text>
<polygon fill="none" stroke="#000000" points="385,-415.7 385,-437.7 530,-437.7 530,-415.7 385,-415.7"/>
<image xlink:href="../../images/primaryKeys.png" width="11px" height="12px" preserveAspectRatio="xMinYMin meet" x="390" y="-432.7"/>
<text text-anchor="start" x="414" y="-422.8" font-family="Helvetica,sans-Serif" font-size="11.00" fill="#000000">id</text>
<polygon fill="#ffffff" stroke="transparent" points="385,-393.7 385,-415.7 530,-415.7 530,-393.7 385,-393.7"/>
<polygon fill="none" stroke="#000000" points="385,-393.7 385,-415.7 530,-415.7 530,-393.7 385,-393.7"/>
<image xlink:href="../../images/foreignKeys.png" width="11px" height="12px" preserveAspectRatio="xMinYMin meet" x="390" y="-410.7"/>
<text text-anchor="start" x="414" y="-400.8" font-family="Helvetica,sans-Serif" font-size="11.00" fill="#000000">code</text>
<polygon fill="none" stroke="#000000" points="385,-374.7 385,-393.7 530,-393.7 530,-374.7 385,-374.7"/>
<text text-anchor="start" x="388" y="-380.8" font-family="Helvetica,sans-Serif" font-size="11.00" fill="#000000">...</text>
<polygon fill="#ffffff" stroke="transparent" points="385,-355.7 385,-374.7 451,-374.7 451,-355.7 385,-355.7"/>
<polygon fill="none" stroke="#000000" points="385,-355.7 385,-374.7 451,-374.7 451,-355.7 385,-355.7"/>
<text text-anchor="start" x="388" y="-361.8" font-family="Helvetica,sans-Serif" font-size="11.00" fill="#000000">&lt; 1</text>
<polygon fill="#ffffff" stroke="transparent" points="451,-355.7 451,-374.7 486,-374.7 486,-355.7 451,-355.7"/>
<polygon fill="none" stroke="#000000" points="451,-355.7 451,-374.7 486,-374.7 486,-355.7 451,-355.7"/>
<text text-anchor="start" x="476.8862" y="-361.8" font-family="Helvetica,sans-Serif" font-size="11.00" fill="#000000"> &#160;</text>
<polygon fill="#ffffff" stroke="transparent" points="486,-355.7 486,-374.7 530,-374.7 530,-355.7 486,-355.7"/>
<polygon fill="none" stroke="#000000" points="486,-355.7 486,-374.7 530,-374.7 530,-355.7 486,-355.7"/>
<text text-anchor="start" x="511.4053" y="-361.8" font-family="Helvetica,sans-Serif" font-size="11.00" fill="#000000">1 &gt;</text>
</a>
</g>
</g>
<!-- document_template_group&#45;&gt;template_group -->
<g id="edge4" class="edge">
<title>document_template_group:w&#45;&gt;template_group:e</title>
<path fill="none" stroke="#000000" d="M606.3841,-359.9958C571.8104,-371.9683 575.2048,-426.7 530,-426.7"/>
<polygon fill="#000000" stroke="#000000" points="613.0969,-358.9414 621.5586,-361.2564 617.0484,-358.3207 621,-357.7 621,-357.7 621,-357.7 617.0484,-358.3207 620.4414,-354.1436 613.0969,-358.9414 613.0969,-358.9414"/>
<ellipse fill="none" stroke="#000000" cx="609.9357" cy="-359.438" rx="3.2" ry="3.2"/>
</g>
<!-- template_group&#45;&gt;template_variable_domain -->
<g id="edge8" class="edge">
<title>template_group:w&#45;&gt;template_variable_domain:e</title>
<path fill="none" stroke="#000000" stroke-dasharray="5,2" d="M374.5851,-403.2651C354.0726,-396.7399 357.9734,-369.1719 342,-345.7 322.1604,-316.547 334.7634,-278.7 299.5,-278.7"/>
<polygon fill="#000000" stroke="#000000" points="384.7535,-400.6282 383.6615,-408.5534 382.0765,-408.335 383.1684,-400.4098 384.7535,-400.6282"/>
<polyline fill="none" stroke="#000000" points="385,-404.7 381.0374,-404.154 "/>
<ellipse fill="none" stroke="#000000" cx="377.8674" cy="-403.7172" rx="3.2" ry="3.2"/>
</g>
<!-- document_template_variable -->
<g id="node7" class="node">
<title>document_template_variable</title>
<g id="a_node7"><a xlink:href="../../tables/document_template_variable.html" xlink:title="document_template_variable" target="_top">
<polygon fill="#ffffff" stroke="transparent" points="613,-215.2 613,-276.2 847,-276.2 847,-215.2 613,-215.2"/>
<polygon fill="#f5f5f5" stroke="transparent" points="613,-252.7 613,-275.7 847,-275.7 847,-252.7 613,-252.7"/>
<polygon fill="none" stroke="#000000" points="613,-252.7 613,-275.7 847,-275.7 847,-252.7 613,-252.7"/>
<text text-anchor="start" x="618" y="-261.3" font-family="Helvetica,sans-Serif" font-weight="bold" font-size="11.00" fill="#000000">document_template_variable</text>
<text text-anchor="start" x="812.5219" y="-260.8" font-family="Helvetica,sans-Serif" font-size="11.00" fill="#000000">[table]</text>
<polygon fill="none" stroke="#000000" points="613,-233.7 613,-252.7 847,-252.7 847,-233.7 613,-233.7"/>
<text text-anchor="start" x="616" y="-239.8" font-family="Helvetica,sans-Serif" font-size="11.00" fill="#000000">...</text>
<polygon fill="#ffffff" stroke="transparent" points="613,-214.7 613,-233.7 728,-233.7 728,-214.7 613,-214.7"/>
<polygon fill="none" stroke="#000000" points="613,-214.7 613,-233.7 728,-233.7 728,-214.7 613,-214.7"/>
<text text-anchor="start" x="616" y="-220.8" font-family="Helvetica,sans-Serif" font-size="11.00" fill="#000000">&lt; 2</text>
<polygon fill="#ffffff" stroke="transparent" points="728,-214.7 728,-233.7 787,-233.7 787,-214.7 728,-214.7"/>
<polygon fill="none" stroke="#000000" points="728,-214.7 728,-233.7 787,-233.7 787,-214.7 728,-214.7"/>
<text text-anchor="start" x="777.8862" y="-220.8" font-family="Helvetica,sans-Serif" font-size="11.00" fill="#000000"> &#160;</text>
<polygon fill="#ffffff" stroke="transparent" points="787,-214.7 787,-233.7 847,-233.7 847,-214.7 787,-214.7"/>
<polygon fill="none" stroke="#000000" points="787,-214.7 787,-233.7 847,-233.7 847,-214.7 787,-214.7"/>
<text text-anchor="start" x="837.8862" y="-220.8" font-family="Helvetica,sans-Serif" font-size="11.00" fill="#000000"> &#160;</text>
</a>
</g>
</g>
<!-- document_template_variable&#45;&gt;document_template -->
<g id="edge6" class="edge">
<title>document_template_variable:w&#45;&gt;document_template:e</title>
<path fill="none" stroke="#000000" d="M598.8509,-245.8183C575.0546,-257.8655 578.428,-300.7 544,-300.7"/>
<polygon fill="#000000" stroke="#000000" points="605.1875,-244.4219 613.7748,-246.2156 609.0937,-243.5609 613,-242.7 613,-242.7 613,-242.7 609.0937,-243.5609 612.2252,-239.1844 605.1875,-244.4219 605.1875,-244.4219"/>
<ellipse fill="none" stroke="#000000" cx="602.0625" cy="-245.1106" rx="3.2" ry="3.2"/>
</g>
<!-- template_variable -->
<g id="node8" class="node">
<title>template_variable</title>
<g id="a_node8"><a xlink:href="../../tables/template_variable.html" xlink:title="template_variable" target="_top">
<polygon fill="#ffffff" stroke="transparent" points="377,-38.2 377,-187.2 537,-187.2 537,-38.2 377,-38.2"/>
<polygon fill="#f5f5f5" stroke="transparent" points="377,-163.7 377,-186.7 537,-186.7 537,-163.7 377,-163.7"/>
<polygon fill="none" stroke="#000000" points="377,-163.7 377,-186.7 537,-186.7 537,-163.7 377,-163.7"/>
<text text-anchor="start" x="382" y="-172.3" font-family="Helvetica,sans-Serif" font-weight="bold" font-size="11.00" fill="#000000">template_variable</text>
<text text-anchor="start" x="502.5219" y="-171.8" font-family="Helvetica,sans-Serif" font-size="11.00" fill="#000000">[table]</text>
<polygon fill="none" stroke="#000000" points="377,-141.7 377,-163.7 537,-163.7 537,-141.7 377,-141.7"/>
<image xlink:href="../../images/primaryKeys.png" width="11px" height="12px" preserveAspectRatio="xMinYMin meet" x="382" y="-158.7"/>
<text text-anchor="start" x="406" y="-148.8" font-family="Helvetica,sans-Serif" font-size="11.00" fill="#000000">id</text>
<polygon fill="#ffffff" stroke="transparent" points="377,-119.7 377,-141.7 537,-141.7 537,-119.7 377,-119.7"/>
<polygon fill="none" stroke="#000000" points="377,-119.7 377,-141.7 537,-141.7 537,-119.7 377,-119.7"/>
<image xlink:href="../../images/foreignKeys.png" width="11px" height="12px" preserveAspectRatio="xMinYMin meet" x="382" y="-136.7"/>
<text text-anchor="start" x="406" y="-126.8" font-family="Helvetica,sans-Serif" font-size="11.00" fill="#000000">domain</text>
<polygon fill="#ffffff" stroke="transparent" points="377,-97.7 377,-119.7 537,-119.7 537,-97.7 377,-97.7"/>
<polygon fill="none" stroke="#000000" points="377,-97.7 377,-119.7 537,-119.7 537,-97.7 377,-97.7"/>
<image xlink:href="../../images/foreignKeys.png" width="11px" height="12px" preserveAspectRatio="xMinYMin meet" x="382" y="-114.7"/>
<text text-anchor="start" x="406" y="-104.8" font-family="Helvetica,sans-Serif" font-size="11.00" fill="#000000">code</text>
<polygon fill="#ffffff" stroke="transparent" points="377,-75.7 377,-97.7 537,-97.7 537,-75.7 377,-75.7"/>
<polygon fill="none" stroke="#000000" points="377,-75.7 377,-97.7 537,-97.7 537,-75.7 377,-75.7"/>
<text text-anchor="start" x="406" y="-82.8" font-family="Helvetica,sans-Serif" font-size="11.00" fill="#000000">sequence_number</text>
<polygon fill="none" stroke="#000000" points="377,-56.7 377,-75.7 537,-75.7 537,-56.7 377,-56.7"/>
<text text-anchor="start" x="380" y="-62.8" font-family="Helvetica,sans-Serif" font-size="11.00" fill="#000000">...</text>
<polygon fill="#ffffff" stroke="transparent" points="377,-37.7 377,-56.7 451,-56.7 451,-37.7 377,-37.7"/>
<polygon fill="none" stroke="#000000" points="377,-37.7 377,-56.7 451,-56.7 451,-37.7 377,-37.7"/>
<text text-anchor="start" x="380" y="-43.8" font-family="Helvetica,sans-Serif" font-size="11.00" fill="#000000">&lt; 2</text>
<polygon fill="#ffffff" stroke="transparent" points="451,-37.7 451,-56.7 489,-56.7 489,-37.7 451,-37.7"/>
<polygon fill="none" stroke="#000000" points="451,-37.7 451,-56.7 489,-56.7 489,-37.7 451,-37.7"/>
<text text-anchor="start" x="479.8862" y="-43.8" font-family="Helvetica,sans-Serif" font-size="11.00" fill="#000000"> &#160;</text>
<polygon fill="#ffffff" stroke="transparent" points="489,-37.7 489,-56.7 537,-56.7 537,-37.7 489,-37.7"/>
<polygon fill="none" stroke="#000000" points="489,-37.7 489,-56.7 537,-56.7 537,-37.7 489,-37.7"/>
<text text-anchor="start" x="518.4053" y="-43.8" font-family="Helvetica,sans-Serif" font-size="11.00" fill="#000000">1 &gt;</text>
</a>
</g>
</g>
<!-- document_template_variable&#45;&gt;template_variable -->
<g id="edge7" class="edge">
<title>document_template_variable:w&#45;&gt;template_variable:e</title>
<path fill="none" stroke="#000000" d="M598.5184,-239.7055C565.9562,-224.0892 583.6278,-152.7 537,-152.7"/>
<polygon fill="#000000" stroke="#000000" points="605.1657,-241.08 612.271,-246.2254 609.0829,-241.89 613,-242.7 613,-242.7 613,-242.7 609.0829,-241.89 613.729,-239.1746 605.1657,-241.08 605.1657,-241.08"/>
<ellipse fill="none" stroke="#000000" cx="602.032" cy="-240.432" rx="3.2" ry="3.2"/>
</g>
<!-- template_variable&#45;&gt;template_variable_domain -->
<g id="edge9" class="edge">
<title>template_variable:w&#45;&gt;template_variable_domain:e</title>
<path fill="none" stroke="#000000" stroke-dasharray="5,2" d="M366.4189,-109.7856C301.8901,-124.264 378.6442,-278.7 299.5,-278.7"/>
<polygon fill="#000000" stroke="#000000" points="375.7959,-104.8025 376.6125,-112.7608 375.0208,-112.9241 374.2043,-104.9659 375.7959,-104.8025"/>
<polyline fill="none" stroke="#000000" points="377,-108.7 373.0209,-109.1083 "/>
<ellipse fill="none" stroke="#000000" cx="369.8376" cy="-109.4349" rx="3.2" ry="3.2"/>
</g>
<!-- template_variable&#45;&gt;template_variable_domain -->
<g id="edge10" class="edge">
<title>template_variable:w&#45;&gt;template_variable_domain:e</title>
<path fill="none" stroke="#000000" d="M362.7492,-133.0247C312.4886,-151.8535 368.2397,-278.7 299.5,-278.7"/>
<polygon fill="#000000" stroke="#000000" points="369.1044,-131.9881 377.5796,-134.253 373.0522,-131.344 377,-130.7 377,-130.7 377,-130.7 373.0522,-131.344 376.4204,-127.147 369.1044,-131.9881 369.1044,-131.9881"/>
<ellipse fill="none" stroke="#000000" cx="365.9461" cy="-132.5033" rx="3.2" ry="3.2"/>
</g>
</g>
</svg>
