<?xml version="1.0" encoding="UTF-8" standalone="no"?>
<!DOCTYPE svg PUBLIC "-//W3C//DTD SVG 1.1//EN"
 "http://www.w3.org/Graphics/SVG/1.1/DTD/svg11.dtd">
<!-- Generated by graphviz version 2.40.1 (20161225.0304)
 -->
<!-- Title: twoDegreesRelationshipsDiagram Pages: 1 -->
<svg width="517pt" height="267pt"
 viewBox="0.00 0.00 517.00 266.70" xmlns="http://www.w3.org/2000/svg" xmlns:xlink="http://www.w3.org/1999/xlink">
<g id="graph0" class="graph" transform="scale(1 1) rotate(0) translate(4 262.7)">
<title>twoDegreesRelationshipsDiagram</title>
<polygon fill="#ffffff" stroke="transparent" points="-4,4 -4,-262.7 513,-262.7 513,4 -4,4"/>
<text text-anchor="middle" x="72.4936" y="-7.3" font-family="Helvetica,sans-Serif" font-size="11.00" fill="#000000">Generated by SchemaSpy</text>
<!-- document_template_group -->
<g id="node1" class="node">
<title>document_template_group</title>
<g id="a_node1"><a xlink:href="../../tables/document_template_group.html" xlink:title="document_template_group" target="_top">
<polygon fill="#ffffff" stroke="transparent" points="282,-137.2 282,-245.2 501,-245.2 501,-137.2 282,-137.2"/>
<polygon fill="#f5f5f5" stroke="transparent" points="282.5,-222.2 282.5,-245.2 501.5,-245.2 501.5,-222.2 282.5,-222.2"/>
<polygon fill="none" stroke="#000000" points="282.5,-222.2 282.5,-245.2 501.5,-245.2 501.5,-222.2 282.5,-222.2"/>
<text text-anchor="start" x="287.5" y="-230.8" font-family="Helvetica,sans-Serif" font-weight="bold" font-size="11.00" fill="#000000">document_template_group</text>
<text text-anchor="start" x="467.0219" y="-230.3" font-family="Helvetica,sans-Serif" font-size="11.00" fill="#000000">[table]</text>
<polygon fill="none" stroke="#000000" points="282.5,-200.2 282.5,-222.2 501.5,-222.2 501.5,-200.2 282.5,-200.2"/>
<image xlink:href="../../images/primaryKeys.png" width="11px" height="12px" preserveAspectRatio="xMinYMin meet" x="287.5" y="-217.2"/>
<text text-anchor="start" x="311.5" y="-207.3" font-family="Helvetica,sans-Serif" font-size="11.00" fill="#000000">id</text>
<polygon fill="#ffffff" stroke="transparent" points="282.5,-178.2 282.5,-200.2 501.5,-200.2 501.5,-178.2 282.5,-178.2"/>
<polygon fill="none" stroke="#000000" points="282.5,-178.2 282.5,-200.2 501.5,-200.2 501.5,-178.2 282.5,-178.2"/>
<image xlink:href="../../images/foreignKeys.png" width="11px" height="12px" preserveAspectRatio="xMinYMin meet" x="287.5" y="-195.2"/>
<text text-anchor="start" x="311.5" y="-185.3" font-family="Helvetica,sans-Serif" font-size="11.00" fill="#000000">template_id</text>
<polygon fill="#ffffff" stroke="transparent" points="282.5,-156.2 282.5,-178.2 501.5,-178.2 501.5,-156.2 282.5,-156.2"/>
<polygon fill="none" stroke="#000000" points="282.5,-156.2 282.5,-178.2 501.5,-178.2 501.5,-156.2 282.5,-156.2"/>
<image xlink:href="../../images/foreignKeys.png" width="11px" height="12px" preserveAspectRatio="xMinYMin meet" x="287.5" y="-173.2"/>
<text text-anchor="start" x="311.5" y="-163.3" font-family="Helvetica,sans-Serif" font-size="11.00" fill="#000000">template_group_id</text>
<polygon fill="#ffffff" stroke="transparent" points="282.5,-137.2 282.5,-156.2 390.5,-156.2 390.5,-137.2 282.5,-137.2"/>
<polygon fill="none" stroke="#000000" points="282.5,-137.2 282.5,-156.2 390.5,-156.2 390.5,-137.2 282.5,-137.2"/>
<text text-anchor="start" x="285.5" y="-143.3" font-family="Helvetica,sans-Serif" font-size="11.00" fill="#000000">&lt; 2</text>
<polygon fill="#ffffff" stroke="transparent" points="390.5,-137.2 390.5,-156.2 445.5,-156.2 445.5,-137.2 390.5,-137.2"/>
<polygon fill="none" stroke="#000000" points="390.5,-137.2 390.5,-156.2 445.5,-156.2 445.5,-137.2 390.5,-137.2"/>
<text text-anchor="start" x="436.3862" y="-143.3" font-family="Helvetica,sans-Serif" font-size="11.00" fill="#000000"> &#160;</text>
<polygon fill="#ffffff" stroke="transparent" points="445.5,-137.2 445.5,-156.2 501.5,-156.2 501.5,-137.2 445.5,-137.2"/>
<polygon fill="none" stroke="#000000" points="445.5,-137.2 445.5,-156.2 501.5,-156.2 501.5,-137.2 445.5,-137.2"/>
<text text-anchor="start" x="492.3862" y="-143.3" font-family="Helvetica,sans-Serif" font-size="11.00" fill="#000000"> &#160;</text>
</a>
</g>
</g>
<!-- template_group -->
<g id="node2" class="node">
<title>template_group</title>
<g id="a_node2"><a xlink:href="../../tables/template_group.html" xlink:title="template_group" target="_top">
<polygon fill="#ffffff" stroke="transparent" points="8,-38.2 8,-172.2 233,-172.2 233,-38.2 8,-38.2"/>
<polygon fill="#f5f5f5" stroke="transparent" points="10.5,-147.2 10.5,-170.2 231.5,-170.2 231.5,-147.2 10.5,-147.2"/>
<polygon fill="none" stroke="#000000" points="10.5,-147.2 10.5,-170.2 231.5,-170.2 231.5,-147.2 10.5,-147.2"/>
<text text-anchor="start" x="15.5" y="-155.8" font-family="Helvetica,sans-Serif" font-weight="bold" font-size="11.00" fill="#000000">template_group</text>
<text text-anchor="start" x="196.5437" y="-155.3" font-family="Helvetica,sans-Serif" font-size="11.00" fill="#000000">[table]</text>
<polygon fill="none" stroke="#000000" points="10.5,-125.2 10.5,-147.2 137.5,-147.2 137.5,-125.2 10.5,-125.2"/>
<image xlink:href="../../images/primaryKeys.png" width="11px" height="12px" preserveAspectRatio="xMinYMin meet" x="15.5" y="-142.2"/>
<text text-anchor="start" x="30.5" y="-132.3" font-family="Helvetica,sans-Serif" font-size="11.00" fill="#000000">id</text>
<polygon fill="none" stroke="#000000" points="137.5,-125.2 137.5,-147.2 231.5,-147.2 231.5,-125.2 137.5,-125.2"/>
<text text-anchor="start" x="140.4758" y="-132.9" font-family="Helvetica,sans-Serif" font-size="11.00" fill="#000000">uuid[2147483647]</text>
<polygon fill="#ffffff" stroke="transparent" points="10.5,-103.2 10.5,-125.2 137.5,-125.2 137.5,-103.2 10.5,-103.2"/>
<polygon fill="none" stroke="#000000" points="10.5,-103.2 10.5,-125.2 137.5,-125.2 137.5,-103.2 10.5,-103.2"/>
<image xlink:href="../../images/foreignKeys.png" width="11px" height="12px" preserveAspectRatio="xMinYMin meet" x="15.5" y="-120.2"/>
<text text-anchor="start" x="30.5" y="-110.3" font-family="Helvetica,sans-Serif" font-size="11.00" fill="#000000">code</text>
<polygon fill="none" stroke="#000000" points="137.5,-103.2 137.5,-125.2 231.5,-125.2 231.5,-103.2 137.5,-103.2"/>
<text text-anchor="start" x="140.5" y="-110.9" font-family="Helvetica,sans-Serif" font-size="11.00" fill="#000000">text[2147483647]</text>
<polygon fill="none" stroke="#000000" points="10.5,-81.2 10.5,-103.2 137.5,-103.2 137.5,-81.2 10.5,-81.2"/>
<text text-anchor="start" x="30.5" y="-88.3" font-family="Helvetica,sans-Serif" font-size="11.00" fill="#000000">name</text>
<polygon fill="none" stroke="#000000" points="137.5,-81.2 137.5,-103.2 231.5,-103.2 231.5,-81.2 137.5,-81.2"/>
<text text-anchor="start" x="140.5" y="-88.9" font-family="Helvetica,sans-Serif" font-size="11.00" fill="#000000">text[2147483647]</text>
<polygon fill="none" stroke="#000000" points="10.5,-59.2 10.5,-81.2 137.5,-81.2 137.5,-59.2 10.5,-59.2"/>
<text text-anchor="start" x="30.5" y="-66.3" font-family="Helvetica,sans-Serif" font-size="11.00" fill="#000000">description</text>
<polygon fill="none" stroke="#000000" points="137.5,-59.2 137.5,-81.2 231.5,-81.2 231.5,-59.2 137.5,-59.2"/>
<text text-anchor="start" x="140.5" y="-66.9" font-family="Helvetica,sans-Serif" font-size="11.00" fill="#000000">text[2147483647]</text>
<polygon fill="#ffffff" stroke="transparent" points="10.5,-40.2 10.5,-59.2 78.5,-59.2 78.5,-40.2 10.5,-40.2"/>
<polygon fill="none" stroke="#000000" points="10.5,-40.2 10.5,-59.2 78.5,-59.2 78.5,-40.2 10.5,-40.2"/>
<text text-anchor="start" x="13.5" y="-46.3" font-family="Helvetica,sans-Serif" font-size="11.00" fill="#000000">&lt; 0</text>
<polygon fill="#ffffff" stroke="transparent" points="78.5,-40.2 78.5,-59.2 137.5,-59.2 137.5,-40.2 78.5,-40.2"/>
<polygon fill="none" stroke="#000000" points="78.5,-40.2 78.5,-59.2 137.5,-59.2 137.5,-40.2 78.5,-40.2"/>
<text text-anchor="start" x="128.3862" y="-46.3" font-family="Helvetica,sans-Serif" font-size="11.00" fill="#000000"> &#160;</text>
<polygon fill="#ffffff" stroke="transparent" points="137.5,-40.2 137.5,-59.2 231.5,-59.2 231.5,-40.2 137.5,-40.2"/>
<polygon fill="none" stroke="#000000" points="137.5,-40.2 137.5,-59.2 231.5,-59.2 231.5,-40.2 137.5,-40.2"/>
<text text-anchor="start" x="212.9053" y="-46.3" font-family="Helvetica,sans-Serif" font-size="11.00" fill="#000000">1 &gt;</text>
<polygon fill="none" stroke="#000000" stroke-width="2" points="9,-39.2 9,-171.2 232,-171.2 232,-39.2 9,-39.2"/>
</a>
</g>
</g>
<!-- document_template_group&#45;&gt;template_group -->
<g id="edge1" class="edge">
<title>document_template_group:w&#45;&gt;template_group:e</title>
<path fill="none" stroke="#000000" d="M268.5967,-163.3988C255.5044,-155.1209 252.2231,-136.2 231.5,-136.2"/>
<polygon fill="#000000" stroke="#000000" points="274.7832,-165.0902 281.5506,-170.6726 278.6416,-166.1451 282.5,-167.2 282.5,-167.2 282.5,-167.2 278.6416,-166.1451 283.4494,-163.7274 274.7832,-165.0902 274.7832,-165.0902"/>
<ellipse fill="none" stroke="#000000" cx="271.6965" cy="-164.2462" rx="3.2" ry="3.2"/>
</g>
<!-- document_template -->
<g id="node3" class="node">
<title>document_template</title>
<g id="a_node3"><a xlink:href="../../tables/document_template.html" xlink:title="document_template" target="_top">
<polygon fill="#ffffff" stroke="transparent" points="34,-193.7 34,-254.7 207,-254.7 207,-193.7 34,-193.7"/>
<polygon fill="#f5f5f5" stroke="transparent" points="34.5,-231.2 34.5,-254.2 207.5,-254.2 207.5,-231.2 34.5,-231.2"/>
<polygon fill="none" stroke="#000000" points="34.5,-231.2 34.5,-254.2 207.5,-254.2 207.5,-231.2 34.5,-231.2"/>
<text text-anchor="start" x="39.5" y="-239.8" font-family="Helvetica,sans-Serif" font-weight="bold" font-size="11.00" fill="#000000">document_template</text>
<text text-anchor="start" x="173.0219" y="-239.3" font-family="Helvetica,sans-Serif" font-size="11.00" fill="#000000">[table]</text>
<polygon fill="none" stroke="#000000" points="34.5,-212.2 34.5,-231.2 207.5,-231.2 207.5,-212.2 34.5,-212.2"/>
<text text-anchor="start" x="37.5" y="-218.3" font-family="Helvetica,sans-Serif" font-size="11.00" fill="#000000">...</text>
<polygon fill="#ffffff" stroke="transparent" points="34.5,-193.2 34.5,-212.2 110.5,-212.2 110.5,-193.2 34.5,-193.2"/>
<polygon fill="none" stroke="#000000" points="34.5,-193.2 34.5,-212.2 110.5,-212.2 110.5,-193.2 34.5,-193.2"/>
<text text-anchor="start" x="37.5" y="-199.3" font-family="Helvetica,sans-Serif" font-size="11.00" fill="#000000"> &#160;</text>
<polygon fill="#ffffff" stroke="transparent" points="110.5,-193.2 110.5,-212.2 154.5,-212.2 154.5,-193.2 110.5,-193.2"/>
<polygon fill="none" stroke="#000000" points="110.5,-193.2 110.5,-212.2 154.5,-212.2 154.5,-193.2 110.5,-193.2"/>
<text text-anchor="start" x="145.3862" y="-199.3" font-family="Helvetica,sans-Serif" font-size="11.00" fill="#000000"> &#160;</text>
<polygon fill="#ffffff" stroke="transparent" points="154.5,-193.2 154.5,-212.2 207.5,-212.2 207.5,-193.2 154.5,-193.2"/>
<polygon fill="none" stroke="#000000" points="154.5,-193.2 154.5,-212.2 207.5,-212.2 207.5,-193.2 154.5,-193.2"/>
<text text-anchor="start" x="188.9053" y="-199.3" font-family="Helvetica,sans-Serif" font-size="11.00" fill="#000000">2 &gt;</text>
</a>
</g>
</g>
<!-- document_template_group&#45;&gt;document_template -->
<g id="edge2" class="edge">
<title>document_template_group:w&#45;&gt;document_template:e</title>
<path fill="none" stroke="#000000" d="M268.0464,-191.2017C244.7093,-198.2073 238.2196,-221.2 207.5,-221.2"/>
<polygon fill="#000000" stroke="#000000" points="274.5756,-190.2975 282.9939,-192.766 278.5378,-189.7488 282.5,-189.2 282.5,-189.2 282.5,-189.2 278.5378,-189.7488 282.0061,-185.634 274.5756,-190.2975 274.5756,-190.2975"/>
<ellipse fill="none" stroke="#000000" cx="271.4059" cy="-190.7365" rx="3.2" ry="3.2"/>
</g>
</g>
</svg>
