<?xml version="1.0" encoding="UTF-8" standalone="no"?>
<!DOCTYPE svg PUBLIC "-//W3C//DTD SVG 1.1//EN"
 "http://www.w3.org/Graphics/SVG/1.1/DTD/svg11.dtd">
<!-- Generated by graphviz version 2.40.1 (20161225.0304)
 -->
<!-- Title: largeImpliedRelationshipsDiagram Pages: 1 -->
<svg width="848pt" height="1177pt"
 viewBox="0.00 0.00 848.00 1177.20" xmlns="http://www.w3.org/2000/svg" xmlns:xlink="http://www.w3.org/1999/xlink">
<g id="graph0" class="graph" transform="scale(1 1) rotate(0) translate(4 1173.2)">
<title>largeImpliedRelationshipsDiagram</title>
<polygon fill="#ffffff" stroke="transparent" points="-4,4 -4,-1173.2 844,-1173.2 844,4 -4,4"/>
<text text-anchor="middle" x="72.4936" y="-7.3" font-family="Helvetica,sans-Serif" font-size="11.00" fill="#000000">Generated by SchemaSpy</text>
<!-- document_template_variable_audit -->
<g id="node1" class="node">
<title>document_template_variable_audit</title>
<g id="a_node1"><a xlink:href="../../tables/document_template_variable_audit.html" xlink:title="document_template_variable_audit" target="_top">
<polygon fill="#ffffff" stroke="transparent" points="274,-991.2 274,-1165.2 549,-1165.2 549,-991.2 274,-991.2"/>
<polygon fill="#f5f5f5" stroke="transparent" points="274.5,-1142.2 274.5,-1165.2 549.5,-1165.2 549.5,-1142.2 274.5,-1142.2"/>
<polygon fill="none" stroke="#000000" points="274.5,-1142.2 274.5,-1165.2 549.5,-1165.2 549.5,-1142.2 274.5,-1142.2"/>
<text text-anchor="start" x="279.5" y="-1150.8" font-family="Helvetica,sans-Serif" font-weight="bold" font-size="11.00" fill="#000000">document_template_variable_audit</text>
<text text-anchor="start" x="515.0219" y="-1150.3" font-family="Helvetica,sans-Serif" font-size="11.00" fill="#000000">[table]</text>
<polygon fill="none" stroke="#000000" points="274.5,-1120.2 274.5,-1142.2 549.5,-1142.2 549.5,-1120.2 274.5,-1120.2"/>
<image xlink:href="../../images/primaryKeys.png" width="11px" height="12px" preserveAspectRatio="xMinYMin meet" x="279.5" y="-1137.2"/>
<text text-anchor="start" x="303.5" y="-1127.3" font-family="Helvetica,sans-Serif" font-size="11.00" fill="#000000">rev_id</text>
<polygon fill="none" stroke="#000000" points="274.5,-1098.2 274.5,-1120.2 549.5,-1120.2 549.5,-1098.2 274.5,-1098.2"/>
<text text-anchor="start" x="303.5" y="-1105.3" font-family="Helvetica,sans-Serif" font-size="11.00" fill="#000000">rev_type</text>
<polygon fill="none" stroke="#000000" points="274.5,-1076.2 274.5,-1098.2 549.5,-1098.2 549.5,-1076.2 274.5,-1076.2"/>
<image xlink:href="../../images/primaryKeys.png" width="11px" height="12px" preserveAspectRatio="xMinYMin meet" x="279.5" y="-1093.2"/>
<text text-anchor="start" x="303.5" y="-1083.3" font-family="Helvetica,sans-Serif" font-size="11.00" fill="#000000">id</text>
<polygon fill="#ffffff" stroke="transparent" points="274.5,-1054.2 274.5,-1076.2 549.5,-1076.2 549.5,-1054.2 274.5,-1054.2"/>
<polygon fill="none" stroke="#000000" points="274.5,-1054.2 274.5,-1076.2 549.5,-1076.2 549.5,-1054.2 274.5,-1054.2"/>
<text text-anchor="start" x="303.5" y="-1061.3" font-family="Helvetica,sans-Serif" font-size="11.00" fill="#000000">template_id</text>
<polygon fill="#ffffff" stroke="transparent" points="274.5,-1032.2 274.5,-1054.2 549.5,-1054.2 549.5,-1032.2 274.5,-1032.2"/>
<polygon fill="none" stroke="#000000" points="274.5,-1032.2 274.5,-1054.2 549.5,-1054.2 549.5,-1032.2 274.5,-1032.2"/>
<text text-anchor="start" x="303.5" y="-1039.3" font-family="Helvetica,sans-Serif" font-size="11.00" fill="#000000">variable_id</text>
<polygon fill="none" stroke="#000000" points="274.5,-1010.2 274.5,-1032.2 549.5,-1032.2 549.5,-1010.2 274.5,-1010.2"/>
<text text-anchor="start" x="303.5" y="-1017.3" font-family="Helvetica,sans-Serif" font-size="11.00" fill="#000000">mandatory</text>
<polygon fill="#ffffff" stroke="transparent" points="274.5,-991.2 274.5,-1010.2 410.5,-1010.2 410.5,-991.2 274.5,-991.2"/>
<polygon fill="none" stroke="#000000" points="274.5,-991.2 274.5,-1010.2 410.5,-1010.2 410.5,-991.2 274.5,-991.2"/>
<text text-anchor="start" x="277.5" y="-997.3" font-family="Helvetica,sans-Serif" font-size="11.00" fill="#000000">&lt; 1</text>
<polygon fill="#ffffff" stroke="transparent" points="410.5,-991.2 410.5,-1010.2 479.5,-1010.2 479.5,-991.2 410.5,-991.2"/>
<polygon fill="none" stroke="#000000" points="410.5,-991.2 410.5,-1010.2 479.5,-1010.2 479.5,-991.2 410.5,-991.2"/>
<text text-anchor="start" x="470.3862" y="-997.3" font-family="Helvetica,sans-Serif" font-size="11.00" fill="#000000"> &#160;</text>
<polygon fill="#ffffff" stroke="transparent" points="479.5,-991.2 479.5,-1010.2 549.5,-1010.2 549.5,-991.2 479.5,-991.2"/>
<polygon fill="none" stroke="#000000" points="479.5,-991.2 479.5,-1010.2 549.5,-1010.2 549.5,-991.2 479.5,-991.2"/>
<text text-anchor="start" x="540.3862" y="-997.3" font-family="Helvetica,sans-Serif" font-size="11.00" fill="#000000"> &#160;</text>
</a>
</g>
</g>
<!-- audit_revision -->
<g id="node7" class="node">
<title>audit_revision</title>
<g id="a_node7"><a xlink:href="../../tables/audit_revision.html" xlink:title="audit_revision" target="_top">
<polygon fill="#ffffff" stroke="transparent" points="49.5,-862.2 49.5,-970.2 183.5,-970.2 183.5,-862.2 49.5,-862.2"/>
<polygon fill="#f5f5f5" stroke="transparent" points="49.5,-947.2 49.5,-970.2 183.5,-970.2 183.5,-947.2 49.5,-947.2"/>
<polygon fill="none" stroke="#000000" points="49.5,-947.2 49.5,-970.2 183.5,-970.2 183.5,-947.2 49.5,-947.2"/>
<text text-anchor="start" x="54.5" y="-955.8" font-family="Helvetica,sans-Serif" font-weight="bold" font-size="11.00" fill="#000000">audit_revision</text>
<text text-anchor="start" x="149.0219" y="-955.3" font-family="Helvetica,sans-Serif" font-size="11.00" fill="#000000">[table]</text>
<polygon fill="none" stroke="#000000" points="49.5,-925.2 49.5,-947.2 183.5,-947.2 183.5,-925.2 49.5,-925.2"/>
<image xlink:href="../../images/primaryKeys.png" width="11px" height="12px" preserveAspectRatio="xMinYMin meet" x="54.5" y="-942.2"/>
<text text-anchor="start" x="78.5" y="-932.3" font-family="Helvetica,sans-Serif" font-size="11.00" fill="#000000">id</text>
<polygon fill="none" stroke="#000000" points="49.5,-903.2 49.5,-925.2 183.5,-925.2 183.5,-903.2 49.5,-903.2"/>
<text text-anchor="start" x="78.5" y="-910.3" font-family="Helvetica,sans-Serif" font-size="11.00" fill="#000000">timestamp</text>
<polygon fill="none" stroke="#000000" points="49.5,-881.2 49.5,-903.2 183.5,-903.2 183.5,-881.2 49.5,-881.2"/>
<text text-anchor="start" x="78.5" y="-888.3" font-family="Helvetica,sans-Serif" font-size="11.00" fill="#000000">username</text>
<polygon fill="#ffffff" stroke="transparent" points="49.5,-862.2 49.5,-881.2 105.5,-881.2 105.5,-862.2 49.5,-862.2"/>
<polygon fill="none" stroke="#000000" points="49.5,-862.2 49.5,-881.2 105.5,-881.2 105.5,-862.2 49.5,-862.2"/>
<text text-anchor="start" x="52.5" y="-868.3" font-family="Helvetica,sans-Serif" font-size="11.00" fill="#000000"> &#160;</text>
<polygon fill="#ffffff" stroke="transparent" points="105.5,-862.2 105.5,-881.2 139.5,-881.2 139.5,-862.2 105.5,-862.2"/>
<polygon fill="none" stroke="#000000" points="105.5,-862.2 105.5,-881.2 139.5,-881.2 139.5,-862.2 105.5,-862.2"/>
<text text-anchor="start" x="130.3862" y="-868.3" font-family="Helvetica,sans-Serif" font-size="11.00" fill="#000000"> &#160;</text>
<polygon fill="#ffffff" stroke="transparent" points="139.5,-862.2 139.5,-881.2 183.5,-881.2 183.5,-862.2 139.5,-862.2"/>
<polygon fill="none" stroke="#000000" points="139.5,-862.2 139.5,-881.2 183.5,-881.2 183.5,-862.2 139.5,-862.2"/>
<text text-anchor="start" x="164.9053" y="-868.3" font-family="Helvetica,sans-Serif" font-size="11.00" fill="#000000">3 &gt;</text>
</a>
</g>
</g>
<!-- document_template_variable_audit&#45;&gt;audit_revision -->
<g id="edge9" class="edge">
<title>document_template_variable_audit:w&#45;&gt;audit_revision:e</title>
<path fill="none" stroke="#000000" d="M260.0632,-1129.3941C189.5919,-1109.7357 273.7222,-936.2 183.5,-936.2"/>
<polygon fill="#000000" stroke="#000000" points="266.5619,-1130.207 274.0531,-1134.7722 270.5309,-1130.7035 274.5,-1131.2 274.5,-1131.2 274.5,-1131.2 270.5309,-1130.7035 274.9469,-1127.6278 266.5619,-1130.207 266.5619,-1130.207"/>
<ellipse fill="none" stroke="#000000" cx="263.3866" cy="-1129.8098" rx="3.2" ry="3.2"/>
</g>
<!-- template_variable -->
<g id="node2" class="node">
<title>template_variable</title>
<g id="a_node2"><a xlink:href="../../tables/template_variable.html" xlink:title="template_variable" target="_top">
<polygon fill="#ffffff" stroke="transparent" points="331.5,-384.2 331.5,-558.2 491.5,-558.2 491.5,-384.2 331.5,-384.2"/>
<polygon fill="#f5f5f5" stroke="transparent" points="331.5,-535.2 331.5,-558.2 491.5,-558.2 491.5,-535.2 331.5,-535.2"/>
<polygon fill="none" stroke="#000000" points="331.5,-535.2 331.5,-558.2 491.5,-558.2 491.5,-535.2 331.5,-535.2"/>
<text text-anchor="start" x="336.5" y="-543.8" font-family="Helvetica,sans-Serif" font-weight="bold" font-size="11.00" fill="#000000">template_variable</text>
<text text-anchor="start" x="457.0219" y="-543.3" font-family="Helvetica,sans-Serif" font-size="11.00" fill="#000000">[table]</text>
<polygon fill="none" stroke="#000000" points="331.5,-513.2 331.5,-535.2 491.5,-535.2 491.5,-513.2 331.5,-513.2"/>
<image xlink:href="../../images/primaryKeys.png" width="11px" height="12px" preserveAspectRatio="xMinYMin meet" x="336.5" y="-530.2"/>
<text text-anchor="start" x="360.5" y="-520.3" font-family="Helvetica,sans-Serif" font-size="11.00" fill="#000000">id</text>
<polygon fill="#ffffff" stroke="transparent" points="331.5,-491.2 331.5,-513.2 491.5,-513.2 491.5,-491.2 331.5,-491.2"/>
<polygon fill="none" stroke="#000000" points="331.5,-491.2 331.5,-513.2 491.5,-513.2 491.5,-491.2 331.5,-491.2"/>
<image xlink:href="../../images/foreignKeys.png" width="11px" height="12px" preserveAspectRatio="xMinYMin meet" x="336.5" y="-508.2"/>
<text text-anchor="start" x="360.5" y="-498.3" font-family="Helvetica,sans-Serif" font-size="11.00" fill="#000000">domain</text>
<polygon fill="#ffffff" stroke="transparent" points="331.5,-469.2 331.5,-491.2 491.5,-491.2 491.5,-469.2 331.5,-469.2"/>
<polygon fill="none" stroke="#000000" points="331.5,-469.2 331.5,-491.2 491.5,-491.2 491.5,-469.2 331.5,-469.2"/>
<image xlink:href="../../images/foreignKeys.png" width="11px" height="12px" preserveAspectRatio="xMinYMin meet" x="336.5" y="-486.2"/>
<text text-anchor="start" x="360.5" y="-476.3" font-family="Helvetica,sans-Serif" font-size="11.00" fill="#000000">code</text>
<polygon fill="none" stroke="#000000" points="331.5,-447.2 331.5,-469.2 491.5,-469.2 491.5,-447.2 331.5,-447.2"/>
<text text-anchor="start" x="360.5" y="-454.3" font-family="Helvetica,sans-Serif" font-size="11.00" fill="#000000">description</text>
<polygon fill="#ffffff" stroke="transparent" points="331.5,-425.2 331.5,-447.2 491.5,-447.2 491.5,-425.2 331.5,-425.2"/>
<polygon fill="none" stroke="#000000" points="331.5,-425.2 331.5,-447.2 491.5,-447.2 491.5,-425.2 331.5,-425.2"/>
<text text-anchor="start" x="360.5" y="-432.3" font-family="Helvetica,sans-Serif" font-size="11.00" fill="#000000">sequence_number</text>
<polygon fill="none" stroke="#000000" points="331.5,-403.2 331.5,-425.2 491.5,-425.2 491.5,-403.2 331.5,-403.2"/>
<text text-anchor="start" x="360.5" y="-410.3" font-family="Helvetica,sans-Serif" font-size="11.00" fill="#000000">type</text>
<polygon fill="#ffffff" stroke="transparent" points="331.5,-384.2 331.5,-403.2 405.5,-403.2 405.5,-384.2 331.5,-384.2"/>
<polygon fill="none" stroke="#000000" points="331.5,-384.2 331.5,-403.2 405.5,-403.2 405.5,-384.2 331.5,-384.2"/>
<text text-anchor="start" x="334.5" y="-390.3" font-family="Helvetica,sans-Serif" font-size="11.00" fill="#000000">&lt; 1</text>
<polygon fill="#ffffff" stroke="transparent" points="405.5,-384.2 405.5,-403.2 443.5,-403.2 443.5,-384.2 405.5,-384.2"/>
<polygon fill="none" stroke="#000000" points="405.5,-384.2 405.5,-403.2 443.5,-403.2 443.5,-384.2 405.5,-384.2"/>
<text text-anchor="start" x="434.3862" y="-390.3" font-family="Helvetica,sans-Serif" font-size="11.00" fill="#000000"> &#160;</text>
<polygon fill="#ffffff" stroke="transparent" points="443.5,-384.2 443.5,-403.2 491.5,-403.2 491.5,-384.2 443.5,-384.2"/>
<polygon fill="none" stroke="#000000" points="443.5,-384.2 443.5,-403.2 491.5,-403.2 491.5,-384.2 443.5,-384.2"/>
<text text-anchor="start" x="472.9053" y="-390.3" font-family="Helvetica,sans-Serif" font-size="11.00" fill="#000000">1 &gt;</text>
</a>
</g>
</g>
<!-- template_variable_domain -->
<g id="node10" class="node">
<title>template_variable_domain</title>
<g id="a_node10"><a xlink:href="../../tables/template_variable_domain.html" xlink:title="template_variable_domain" target="_top">
<polygon fill="#ffffff" stroke="transparent" points="8,-406.2 8,-514.2 225,-514.2 225,-406.2 8,-406.2"/>
<polygon fill="#f5f5f5" stroke="transparent" points="8.5,-491.2 8.5,-514.2 225.5,-514.2 225.5,-491.2 8.5,-491.2"/>
<polygon fill="none" stroke="#000000" points="8.5,-491.2 8.5,-514.2 225.5,-514.2 225.5,-491.2 8.5,-491.2"/>
<text text-anchor="start" x="13.5" y="-499.8" font-family="Helvetica,sans-Serif" font-weight="bold" font-size="11.00" fill="#000000">template_variable_domain</text>
<text text-anchor="start" x="191.0219" y="-499.3" font-family="Helvetica,sans-Serif" font-size="11.00" fill="#000000">[table]</text>
<polygon fill="none" stroke="#000000" points="8.5,-469.2 8.5,-491.2 225.5,-491.2 225.5,-469.2 8.5,-469.2"/>
<image xlink:href="../../images/primaryKeys.png" width="11px" height="12px" preserveAspectRatio="xMinYMin meet" x="13.5" y="-486.2"/>
<text text-anchor="start" x="37.5" y="-476.3" font-family="Helvetica,sans-Serif" font-size="11.00" fill="#000000">code</text>
<polygon fill="none" stroke="#000000" points="8.5,-447.2 8.5,-469.2 225.5,-469.2 225.5,-447.2 8.5,-447.2"/>
<text text-anchor="start" x="37.5" y="-454.3" font-family="Helvetica,sans-Serif" font-size="11.00" fill="#000000">description</text>
<polygon fill="#ffffff" stroke="transparent" points="8.5,-425.2 8.5,-447.2 225.5,-447.2 225.5,-425.2 8.5,-425.2"/>
<polygon fill="none" stroke="#000000" points="8.5,-425.2 8.5,-447.2 225.5,-447.2 225.5,-425.2 8.5,-425.2"/>
<text text-anchor="start" x="37.5" y="-432.3" font-family="Helvetica,sans-Serif" font-size="11.00" fill="#000000">sequence_number</text>
<polygon fill="#ffffff" stroke="transparent" points="8.5,-406.2 8.5,-425.2 106.5,-425.2 106.5,-406.2 8.5,-406.2"/>
<polygon fill="none" stroke="#000000" points="8.5,-406.2 8.5,-425.2 106.5,-425.2 106.5,-406.2 8.5,-406.2"/>
<text text-anchor="start" x="11.5" y="-412.3" font-family="Helvetica,sans-Serif" font-size="11.00" fill="#000000"> &#160;</text>
<polygon fill="#ffffff" stroke="transparent" points="106.5,-406.2 106.5,-425.2 161.5,-425.2 161.5,-406.2 106.5,-406.2"/>
<polygon fill="none" stroke="#000000" points="106.5,-406.2 106.5,-425.2 161.5,-425.2 161.5,-406.2 106.5,-406.2"/>
<text text-anchor="start" x="152.3862" y="-412.3" font-family="Helvetica,sans-Serif" font-size="11.00" fill="#000000"> &#160;</text>
<polygon fill="#ffffff" stroke="transparent" points="161.5,-406.2 161.5,-425.2 225.5,-425.2 225.5,-406.2 161.5,-406.2"/>
<polygon fill="none" stroke="#000000" points="161.5,-406.2 161.5,-425.2 225.5,-425.2 225.5,-406.2 161.5,-406.2"/>
<text text-anchor="start" x="206.9053" y="-412.3" font-family="Helvetica,sans-Serif" font-size="11.00" fill="#000000">1 &gt;</text>
</a>
</g>
</g>
<!-- template_variable&#45;&gt;template_variable_domain -->
<g id="edge11" class="edge">
<title>template_variable:w&#45;&gt;template_variable_domain:e</title>
<path fill="none" stroke="#000000" stroke-dasharray="5,2" d="M321.0716,-480.2C282.333,-480.2 268.9306,-480.2 225.5,-480.2"/>
<polygon fill="#000000" stroke="#000000" points="330.7,-476.2 330.7,-484.2 329.1,-484.2 329.1,-476.2 330.7,-476.2"/>
<polyline fill="none" stroke="#000000" points="331.5,-480.2 327.5,-480.2 "/>
<ellipse fill="none" stroke="#000000" cx="324.3" cy="-480.2001" rx="3.2" ry="3.2"/>
</g>
<!-- template_variable&#45;&gt;template_variable_domain -->
<g id="edge12" class="edge">
<title>template_variable:w&#45;&gt;template_variable_domain:e</title>
<path fill="none" stroke="#000000" d="M316.9881,-501.468C280.789,-497.6507 268.3525,-480.2 225.5,-480.2"/>
<polygon fill="#000000" stroke="#000000" points="323.5102,-501.7969 331.3186,-505.7954 327.5051,-501.9985 331.5,-502.2 331.5,-502.2 331.5,-502.2 327.5051,-501.9985 331.6814,-498.6046 323.5102,-501.7969 323.5102,-501.7969"/>
<ellipse fill="none" stroke="#000000" cx="320.3142" cy="-501.6357" rx="3.2" ry="3.2"/>
</g>
<!-- document_template -->
<g id="node3" class="node">
<title>document_template</title>
<g id="a_node3"><a xlink:href="../../tables/document_template.html" xlink:title="document_template" target="_top">
<polygon fill="#ffffff" stroke="transparent" points="325,-189.2 325,-363.2 498,-363.2 498,-189.2 325,-189.2"/>
<polygon fill="#f5f5f5" stroke="transparent" points="325.5,-340.2 325.5,-363.2 498.5,-363.2 498.5,-340.2 325.5,-340.2"/>
<polygon fill="none" stroke="#000000" points="325.5,-340.2 325.5,-363.2 498.5,-363.2 498.5,-340.2 325.5,-340.2"/>
<text text-anchor="start" x="330.5" y="-348.8" font-family="Helvetica,sans-Serif" font-weight="bold" font-size="11.00" fill="#000000">document_template</text>
<text text-anchor="start" x="464.0219" y="-348.3" font-family="Helvetica,sans-Serif" font-size="11.00" fill="#000000">[table]</text>
<polygon fill="none" stroke="#000000" points="325.5,-318.2 325.5,-340.2 498.5,-340.2 498.5,-318.2 325.5,-318.2"/>
<image xlink:href="../../images/primaryKeys.png" width="11px" height="12px" preserveAspectRatio="xMinYMin meet" x="330.5" y="-335.2"/>
<text text-anchor="start" x="354.5" y="-325.3" font-family="Helvetica,sans-Serif" font-size="11.00" fill="#000000">id</text>
<polygon fill="#ffffff" stroke="transparent" points="325.5,-296.2 325.5,-318.2 498.5,-318.2 498.5,-296.2 325.5,-296.2"/>
<polygon fill="none" stroke="#000000" points="325.5,-296.2 325.5,-318.2 498.5,-318.2 498.5,-296.2 325.5,-296.2"/>
<image xlink:href="../../images/foreignKeys.png" width="11px" height="12px" preserveAspectRatio="xMinYMin meet" x="330.5" y="-313.2"/>
<text text-anchor="start" x="354.5" y="-303.3" font-family="Helvetica,sans-Serif" font-size="11.00" fill="#000000">code</text>
<polygon fill="none" stroke="#000000" points="325.5,-274.2 325.5,-296.2 498.5,-296.2 498.5,-274.2 325.5,-274.2"/>
<text text-anchor="start" x="354.5" y="-281.3" font-family="Helvetica,sans-Serif" font-size="11.00" fill="#000000">name</text>
<polygon fill="none" stroke="#000000" points="325.5,-252.2 325.5,-274.2 498.5,-274.2 498.5,-252.2 325.5,-252.2"/>
<text text-anchor="start" x="354.5" y="-259.3" font-family="Helvetica,sans-Serif" font-size="11.00" fill="#000000">description</text>
<polygon fill="none" stroke="#000000" points="325.5,-230.2 325.5,-252.2 498.5,-252.2 498.5,-230.2 325.5,-230.2"/>
<text text-anchor="start" x="354.5" y="-237.3" font-family="Helvetica,sans-Serif" font-size="11.00" fill="#000000">version</text>
<polygon fill="#ffffff" stroke="transparent" points="325.5,-208.2 325.5,-230.2 498.5,-230.2 498.5,-208.2 325.5,-208.2"/>
<polygon fill="none" stroke="#000000" points="325.5,-208.2 325.5,-230.2 498.5,-230.2 498.5,-208.2 325.5,-208.2"/>
<text text-anchor="start" x="354.5" y="-215.3" font-family="Helvetica,sans-Serif" font-size="11.00" fill="#000000">external_reference</text>
<polygon fill="#ffffff" stroke="transparent" points="325.5,-189.2 325.5,-208.2 401.5,-208.2 401.5,-189.2 325.5,-189.2"/>
<polygon fill="none" stroke="#000000" points="325.5,-189.2 325.5,-208.2 401.5,-208.2 401.5,-189.2 325.5,-189.2"/>
<text text-anchor="start" x="328.5" y="-195.3" font-family="Helvetica,sans-Serif" font-size="11.00" fill="#000000"> &#160;</text>
<polygon fill="#ffffff" stroke="transparent" points="401.5,-189.2 401.5,-208.2 445.5,-208.2 445.5,-189.2 401.5,-189.2"/>
<polygon fill="none" stroke="#000000" points="401.5,-189.2 401.5,-208.2 445.5,-208.2 445.5,-189.2 401.5,-189.2"/>
<text text-anchor="start" x="436.3862" y="-195.3" font-family="Helvetica,sans-Serif" font-size="11.00" fill="#000000"> &#160;</text>
<polygon fill="#ffffff" stroke="transparent" points="445.5,-189.2 445.5,-208.2 498.5,-208.2 498.5,-189.2 445.5,-189.2"/>
<polygon fill="none" stroke="#000000" points="445.5,-189.2 445.5,-208.2 498.5,-208.2 498.5,-189.2 445.5,-189.2"/>
<text text-anchor="start" x="479.9053" y="-195.3" font-family="Helvetica,sans-Serif" font-size="11.00" fill="#000000">2 &gt;</text>
</a>
</g>
</g>
<!-- document_template&#45;&gt;template_variable_domain -->
<g id="edge1" class="edge">
<title>document_template:w&#45;&gt;template_variable_domain:e</title>
<path fill="none" stroke="#000000" stroke-dasharray="5,2" d="M314.9421,-308.1132C285.662,-313.6472 284.6472,-343.4809 266,-374.2 239.8302,-417.3115 275.9327,-480.2 225.5,-480.2"/>
<polygon fill="#000000" stroke="#000000" points="324.3582,-303.2838 325.0477,-311.2541 323.4537,-311.392 322.7642,-303.4217 324.3582,-303.2838"/>
<polyline fill="none" stroke="#000000" points="325.5,-307.2 321.5149,-307.5447 "/>
<ellipse fill="none" stroke="#000000" cx="318.3268" cy="-307.8205" rx="3.2" ry="3.2"/>
</g>
<!-- document_template_group -->
<g id="node4" class="node">
<title>document_template_group</title>
<g id="a_node4"><a xlink:href="../../tables/document_template_group.html" xlink:title="document_template_group" target="_top">
<polygon fill="#ffffff" stroke="transparent" points="605.5,-196.2 605.5,-304.2 824.5,-304.2 824.5,-196.2 605.5,-196.2"/>
<polygon fill="#f5f5f5" stroke="transparent" points="606,-281.2 606,-304.2 825,-304.2 825,-281.2 606,-281.2"/>
<polygon fill="none" stroke="#000000" points="606,-281.2 606,-304.2 825,-304.2 825,-281.2 606,-281.2"/>
<text text-anchor="start" x="611" y="-289.8" font-family="Helvetica,sans-Serif" font-weight="bold" font-size="11.00" fill="#000000">document_template_group</text>
<text text-anchor="start" x="790.5219" y="-289.3" font-family="Helvetica,sans-Serif" font-size="11.00" fill="#000000">[table]</text>
<polygon fill="none" stroke="#000000" points="606,-259.2 606,-281.2 825,-281.2 825,-259.2 606,-259.2"/>
<image xlink:href="../../images/primaryKeys.png" width="11px" height="12px" preserveAspectRatio="xMinYMin meet" x="611" y="-276.2"/>
<text text-anchor="start" x="635" y="-266.3" font-family="Helvetica,sans-Serif" font-size="11.00" fill="#000000">id</text>
<polygon fill="#ffffff" stroke="transparent" points="606,-237.2 606,-259.2 825,-259.2 825,-237.2 606,-237.2"/>
<polygon fill="none" stroke="#000000" points="606,-237.2 606,-259.2 825,-259.2 825,-237.2 606,-237.2"/>
<image xlink:href="../../images/foreignKeys.png" width="11px" height="12px" preserveAspectRatio="xMinYMin meet" x="611" y="-254.2"/>
<text text-anchor="start" x="635" y="-244.3" font-family="Helvetica,sans-Serif" font-size="11.00" fill="#000000">template_id</text>
<polygon fill="#ffffff" stroke="transparent" points="606,-215.2 606,-237.2 825,-237.2 825,-215.2 606,-215.2"/>
<polygon fill="none" stroke="#000000" points="606,-215.2 606,-237.2 825,-237.2 825,-215.2 606,-215.2"/>
<image xlink:href="../../images/foreignKeys.png" width="11px" height="12px" preserveAspectRatio="xMinYMin meet" x="611" y="-232.2"/>
<text text-anchor="start" x="635" y="-222.3" font-family="Helvetica,sans-Serif" font-size="11.00" fill="#000000">template_group_id</text>
<polygon fill="#ffffff" stroke="transparent" points="606,-196.2 606,-215.2 714,-215.2 714,-196.2 606,-196.2"/>
<polygon fill="none" stroke="#000000" points="606,-196.2 606,-215.2 714,-215.2 714,-196.2 606,-196.2"/>
<text text-anchor="start" x="609" y="-202.3" font-family="Helvetica,sans-Serif" font-size="11.00" fill="#000000">&lt; 2</text>
<polygon fill="#ffffff" stroke="transparent" points="714,-196.2 714,-215.2 769,-215.2 769,-196.2 714,-196.2"/>
<polygon fill="none" stroke="#000000" points="714,-196.2 714,-215.2 769,-215.2 769,-196.2 714,-196.2"/>
<text text-anchor="start" x="759.8862" y="-202.3" font-family="Helvetica,sans-Serif" font-size="11.00" fill="#000000"> &#160;</text>
<polygon fill="#ffffff" stroke="transparent" points="769,-196.2 769,-215.2 825,-215.2 825,-196.2 769,-196.2"/>
<polygon fill="none" stroke="#000000" points="769,-196.2 769,-215.2 825,-215.2 825,-196.2 769,-196.2"/>
<text text-anchor="start" x="815.8862" y="-202.3" font-family="Helvetica,sans-Serif" font-size="11.00" fill="#000000"> &#160;</text>
</a>
</g>
</g>
<!-- document_template_group&#45;&gt;document_template -->
<g id="edge5" class="edge">
<title>document_template_group:w&#45;&gt;document_template:e</title>
<path fill="none" stroke="#000000" d="M591.5144,-250.044C547.779,-262.1009 552.9477,-329.2 498.5,-329.2"/>
<polygon fill="#000000" stroke="#000000" points="598.064,-249.2103 606.4546,-251.7712 602.032,-248.7051 606,-248.2 606,-248.2 606,-248.2 602.032,-248.7051 605.5454,-244.6288 598.064,-249.2103 598.064,-249.2103"/>
<ellipse fill="none" stroke="#000000" cx="594.8897" cy="-249.6144" rx="3.2" ry="3.2"/>
</g>
<!-- template_group -->
<g id="node6" class="node">
<title>template_group</title>
<g id="a_node6"><a xlink:href="../../tables/template_group.html" xlink:title="template_group" target="_top">
<polygon fill="#ffffff" stroke="transparent" points="339,-38.2 339,-168.2 484,-168.2 484,-38.2 339,-38.2"/>
<polygon fill="#f5f5f5" stroke="transparent" points="339.5,-145.2 339.5,-168.2 484.5,-168.2 484.5,-145.2 339.5,-145.2"/>
<polygon fill="none" stroke="#000000" points="339.5,-145.2 339.5,-168.2 484.5,-168.2 484.5,-145.2 339.5,-145.2"/>
<text text-anchor="start" x="344.5" y="-153.8" font-family="Helvetica,sans-Serif" font-weight="bold" font-size="11.00" fill="#000000">template_group</text>
<text text-anchor="start" x="450.0219" y="-153.3" font-family="Helvetica,sans-Serif" font-size="11.00" fill="#000000">[table]</text>
<polygon fill="none" stroke="#000000" points="339.5,-123.2 339.5,-145.2 484.5,-145.2 484.5,-123.2 339.5,-123.2"/>
<image xlink:href="../../images/primaryKeys.png" width="11px" height="12px" preserveAspectRatio="xMinYMin meet" x="344.5" y="-140.2"/>
<text text-anchor="start" x="368.5" y="-130.3" font-family="Helvetica,sans-Serif" font-size="11.00" fill="#000000">id</text>
<polygon fill="#ffffff" stroke="transparent" points="339.5,-101.2 339.5,-123.2 484.5,-123.2 484.5,-101.2 339.5,-101.2"/>
<polygon fill="none" stroke="#000000" points="339.5,-101.2 339.5,-123.2 484.5,-123.2 484.5,-101.2 339.5,-101.2"/>
<image xlink:href="../../images/foreignKeys.png" width="11px" height="12px" preserveAspectRatio="xMinYMin meet" x="344.5" y="-118.2"/>
<text text-anchor="start" x="368.5" y="-108.3" font-family="Helvetica,sans-Serif" font-size="11.00" fill="#000000">code</text>
<polygon fill="none" stroke="#000000" points="339.5,-79.2 339.5,-101.2 484.5,-101.2 484.5,-79.2 339.5,-79.2"/>
<text text-anchor="start" x="368.5" y="-86.3" font-family="Helvetica,sans-Serif" font-size="11.00" fill="#000000">name</text>
<polygon fill="none" stroke="#000000" points="339.5,-57.2 339.5,-79.2 484.5,-79.2 484.5,-57.2 339.5,-57.2"/>
<text text-anchor="start" x="368.5" y="-64.3" font-family="Helvetica,sans-Serif" font-size="11.00" fill="#000000">description</text>
<polygon fill="#ffffff" stroke="transparent" points="339.5,-38.2 339.5,-57.2 401.5,-57.2 401.5,-38.2 339.5,-38.2"/>
<polygon fill="none" stroke="#000000" points="339.5,-38.2 339.5,-57.2 401.5,-57.2 401.5,-38.2 339.5,-38.2"/>
<text text-anchor="start" x="342.5" y="-44.3" font-family="Helvetica,sans-Serif" font-size="11.00" fill="#000000"> &#160;</text>
<polygon fill="#ffffff" stroke="transparent" points="401.5,-38.2 401.5,-57.2 438.5,-57.2 438.5,-38.2 401.5,-38.2"/>
<polygon fill="none" stroke="#000000" points="401.5,-38.2 401.5,-57.2 438.5,-57.2 438.5,-38.2 401.5,-38.2"/>
<text text-anchor="start" x="429.3862" y="-44.3" font-family="Helvetica,sans-Serif" font-size="11.00" fill="#000000"> &#160;</text>
<polygon fill="#ffffff" stroke="transparent" points="438.5,-38.2 438.5,-57.2 484.5,-57.2 484.5,-38.2 438.5,-38.2"/>
<polygon fill="none" stroke="#000000" points="438.5,-38.2 438.5,-57.2 484.5,-57.2 484.5,-38.2 438.5,-38.2"/>
<text text-anchor="start" x="465.9053" y="-44.3" font-family="Helvetica,sans-Serif" font-size="11.00" fill="#000000">1 &gt;</text>
</a>
</g>
</g>
<!-- document_template_group&#45;&gt;template_group -->
<g id="edge4" class="edge">
<title>document_template_group:w&#45;&gt;template_group:e</title>
<path fill="none" stroke="#000000" d="M591.8687,-223.2255C576.6819,-215.4494 576.1826,-194.0887 557,-179.2 527.0406,-155.9469 522.4246,-134.2 484.5,-134.2"/>
<polygon fill="#000000" stroke="#000000" points="598.1715,-224.5521 605.2585,-229.7228 602.0858,-225.3761 606,-226.2 606,-226.2 606,-226.2 602.0858,-225.3761 606.7415,-222.6772 598.1715,-224.5521 598.1715,-224.5521"/>
<ellipse fill="none" stroke="#000000" cx="595.0402" cy="-223.893" rx="3.2" ry="3.2"/>
</g>
<!-- document_template_group_audit -->
<g id="node5" class="node">
<title>document_template_group_audit</title>
<g id="a_node5"><a xlink:href="../../tables/document_template_group_audit.html" xlink:title="document_template_group_audit" target="_top">
<polygon fill="#ffffff" stroke="transparent" points="281.5,-818.2 281.5,-970.2 541.5,-970.2 541.5,-818.2 281.5,-818.2"/>
<polygon fill="#f5f5f5" stroke="transparent" points="281.5,-947.2 281.5,-970.2 541.5,-970.2 541.5,-947.2 281.5,-947.2"/>
<polygon fill="none" stroke="#000000" points="281.5,-947.2 281.5,-970.2 541.5,-970.2 541.5,-947.2 281.5,-947.2"/>
<text text-anchor="start" x="286.5" y="-955.8" font-family="Helvetica,sans-Serif" font-weight="bold" font-size="11.00" fill="#000000">document_template_group_audit</text>
<text text-anchor="start" x="507.0219" y="-955.3" font-family="Helvetica,sans-Serif" font-size="11.00" fill="#000000">[table]</text>
<polygon fill="none" stroke="#000000" points="281.5,-925.2 281.5,-947.2 541.5,-947.2 541.5,-925.2 281.5,-925.2"/>
<image xlink:href="../../images/primaryKeys.png" width="11px" height="12px" preserveAspectRatio="xMinYMin meet" x="286.5" y="-942.2"/>
<text text-anchor="start" x="310.5" y="-932.3" font-family="Helvetica,sans-Serif" font-size="11.00" fill="#000000">rev_id</text>
<polygon fill="none" stroke="#000000" points="281.5,-903.2 281.5,-925.2 541.5,-925.2 541.5,-903.2 281.5,-903.2"/>
<text text-anchor="start" x="310.5" y="-910.3" font-family="Helvetica,sans-Serif" font-size="11.00" fill="#000000">rev_type</text>
<polygon fill="none" stroke="#000000" points="281.5,-881.2 281.5,-903.2 541.5,-903.2 541.5,-881.2 281.5,-881.2"/>
<image xlink:href="../../images/primaryKeys.png" width="11px" height="12px" preserveAspectRatio="xMinYMin meet" x="286.5" y="-898.2"/>
<text text-anchor="start" x="310.5" y="-888.3" font-family="Helvetica,sans-Serif" font-size="11.00" fill="#000000">id</text>
<polygon fill="#ffffff" stroke="transparent" points="281.5,-859.2 281.5,-881.2 541.5,-881.2 541.5,-859.2 281.5,-859.2"/>
<polygon fill="none" stroke="#000000" points="281.5,-859.2 281.5,-881.2 541.5,-881.2 541.5,-859.2 281.5,-859.2"/>
<text text-anchor="start" x="310.5" y="-866.3" font-family="Helvetica,sans-Serif" font-size="11.00" fill="#000000">template_id</text>
<polygon fill="#ffffff" stroke="transparent" points="281.5,-837.2 281.5,-859.2 541.5,-859.2 541.5,-837.2 281.5,-837.2"/>
<polygon fill="none" stroke="#000000" points="281.5,-837.2 281.5,-859.2 541.5,-859.2 541.5,-837.2 281.5,-837.2"/>
<text text-anchor="start" x="310.5" y="-844.3" font-family="Helvetica,sans-Serif" font-size="11.00" fill="#000000">template_group_id</text>
<polygon fill="#ffffff" stroke="transparent" points="281.5,-818.2 281.5,-837.2 409.5,-837.2 409.5,-818.2 281.5,-818.2"/>
<polygon fill="none" stroke="#000000" points="281.5,-818.2 281.5,-837.2 409.5,-837.2 409.5,-818.2 281.5,-818.2"/>
<text text-anchor="start" x="284.5" y="-824.3" font-family="Helvetica,sans-Serif" font-size="11.00" fill="#000000">&lt; 1</text>
<polygon fill="#ffffff" stroke="transparent" points="409.5,-818.2 409.5,-837.2 475.5,-837.2 475.5,-818.2 409.5,-818.2"/>
<polygon fill="none" stroke="#000000" points="409.5,-818.2 409.5,-837.2 475.5,-837.2 475.5,-818.2 409.5,-818.2"/>
<text text-anchor="start" x="466.3862" y="-824.3" font-family="Helvetica,sans-Serif" font-size="11.00" fill="#000000"> &#160;</text>
<polygon fill="#ffffff" stroke="transparent" points="475.5,-818.2 475.5,-837.2 541.5,-837.2 541.5,-818.2 475.5,-818.2"/>
<polygon fill="none" stroke="#000000" points="475.5,-818.2 475.5,-837.2 541.5,-837.2 541.5,-818.2 475.5,-818.2"/>
<text text-anchor="start" x="532.3862" y="-824.3" font-family="Helvetica,sans-Serif" font-size="11.00" fill="#000000"> &#160;</text>
</a>
</g>
</g>
<!-- document_template_group_audit&#45;&gt;audit_revision -->
<g id="edge6" class="edge">
<title>document_template_group_audit:w&#45;&gt;audit_revision:e</title>
<path fill="none" stroke="#000000" d="M266.9981,-936.2C234.8283,-936.2 221.7813,-936.2 183.5,-936.2"/>
<polygon fill="#000000" stroke="#000000" points="273.5,-936.2001 281.5,-939.8 277.5,-936.2 281.5,-936.2 281.5,-936.2 281.5,-936.2 277.5,-936.2 281.5,-932.6 273.5,-936.2001 273.5,-936.2001"/>
<ellipse fill="none" stroke="#000000" cx="270.3" cy="-936.2001" rx="3.2" ry="3.2"/>
</g>
<!-- template_group&#45;&gt;template_variable_domain -->
<g id="edge10" class="edge">
<title>template_group:w&#45;&gt;template_variable_domain:e</title>
<path fill="none" stroke="#000000" stroke-dasharray="5,2" d="M328.859,-112.8065C293.702,-117.0699 284.7538,-143.4126 266,-179.2 234.6729,-238.9808 292.9917,-480.2 225.5,-480.2"/>
<polygon fill="#000000" stroke="#000000" points="338.4736,-108.252 338.9289,-116.239 337.3315,-116.3301 336.8762,-108.3431 338.4736,-108.252"/>
<polyline fill="none" stroke="#000000" points="339.5,-112.2 335.5065,-112.4276 "/>
<ellipse fill="none" stroke="#000000" cx="332.3117" cy="-112.6098" rx="3.2" ry="3.2"/>
</g>
<!-- document_template_audit -->
<g id="node8" class="node">
<title>document_template_audit</title>
<g id="a_node8"><a xlink:href="../../tables/document_template_audit.html" xlink:title="document_template_audit" target="_top">
<polygon fill="#ffffff" stroke="transparent" points="304.5,-579.2 304.5,-797.2 518.5,-797.2 518.5,-579.2 304.5,-579.2"/>
<polygon fill="#f5f5f5" stroke="transparent" points="304.5,-774.2 304.5,-797.2 518.5,-797.2 518.5,-774.2 304.5,-774.2"/>
<polygon fill="none" stroke="#000000" points="304.5,-774.2 304.5,-797.2 518.5,-797.2 518.5,-774.2 304.5,-774.2"/>
<text text-anchor="start" x="309.5" y="-782.8" font-family="Helvetica,sans-Serif" font-weight="bold" font-size="11.00" fill="#000000">document_template_audit</text>
<text text-anchor="start" x="484.0219" y="-782.3" font-family="Helvetica,sans-Serif" font-size="11.00" fill="#000000">[table]</text>
<polygon fill="none" stroke="#000000" points="304.5,-752.2 304.5,-774.2 518.5,-774.2 518.5,-752.2 304.5,-752.2"/>
<image xlink:href="../../images/primaryKeys.png" width="11px" height="12px" preserveAspectRatio="xMinYMin meet" x="309.5" y="-769.2"/>
<text text-anchor="start" x="333.5" y="-759.3" font-family="Helvetica,sans-Serif" font-size="11.00" fill="#000000">rev_id</text>
<polygon fill="none" stroke="#000000" points="304.5,-730.2 304.5,-752.2 518.5,-752.2 518.5,-730.2 304.5,-730.2"/>
<text text-anchor="start" x="333.5" y="-737.3" font-family="Helvetica,sans-Serif" font-size="11.00" fill="#000000">rev_type</text>
<polygon fill="none" stroke="#000000" points="304.5,-708.2 304.5,-730.2 518.5,-730.2 518.5,-708.2 304.5,-708.2"/>
<image xlink:href="../../images/primaryKeys.png" width="11px" height="12px" preserveAspectRatio="xMinYMin meet" x="309.5" y="-725.2"/>
<text text-anchor="start" x="333.5" y="-715.3" font-family="Helvetica,sans-Serif" font-size="11.00" fill="#000000">id</text>
<polygon fill="none" stroke="#000000" points="304.5,-686.2 304.5,-708.2 518.5,-708.2 518.5,-686.2 304.5,-686.2"/>
<image xlink:href="../../images/foreignKeys.png" width="11px" height="12px" preserveAspectRatio="xMinYMin meet" x="309.5" y="-703.2"/>
<text text-anchor="start" x="333.5" y="-693.3" font-family="Helvetica,sans-Serif" font-size="11.00" fill="#000000">code</text>
<polygon fill="none" stroke="#000000" points="304.5,-664.2 304.5,-686.2 518.5,-686.2 518.5,-664.2 304.5,-664.2"/>
<text text-anchor="start" x="333.5" y="-671.3" font-family="Helvetica,sans-Serif" font-size="11.00" fill="#000000">name</text>
<polygon fill="none" stroke="#000000" points="304.5,-642.2 304.5,-664.2 518.5,-664.2 518.5,-642.2 304.5,-642.2"/>
<text text-anchor="start" x="333.5" y="-649.3" font-family="Helvetica,sans-Serif" font-size="11.00" fill="#000000">description</text>
<polygon fill="none" stroke="#000000" points="304.5,-620.2 304.5,-642.2 518.5,-642.2 518.5,-620.2 304.5,-620.2"/>
<text text-anchor="start" x="333.5" y="-627.3" font-family="Helvetica,sans-Serif" font-size="11.00" fill="#000000">version</text>
<polygon fill="#ffffff" stroke="transparent" points="304.5,-598.2 304.5,-620.2 518.5,-620.2 518.5,-598.2 304.5,-598.2"/>
<polygon fill="none" stroke="#000000" points="304.5,-598.2 304.5,-620.2 518.5,-620.2 518.5,-598.2 304.5,-598.2"/>
<text text-anchor="start" x="333.5" y="-605.3" font-family="Helvetica,sans-Serif" font-size="11.00" fill="#000000">external_reference</text>
<polygon fill="#ffffff" stroke="transparent" points="304.5,-579.2 304.5,-598.2 409.5,-598.2 409.5,-579.2 304.5,-579.2"/>
<polygon fill="none" stroke="#000000" points="304.5,-579.2 304.5,-598.2 409.5,-598.2 409.5,-579.2 304.5,-579.2"/>
<text text-anchor="start" x="307.5" y="-585.3" font-family="Helvetica,sans-Serif" font-size="11.00" fill="#000000">&lt; 1</text>
<polygon fill="#ffffff" stroke="transparent" points="409.5,-579.2 409.5,-598.2 463.5,-598.2 463.5,-579.2 409.5,-579.2"/>
<polygon fill="none" stroke="#000000" points="409.5,-579.2 409.5,-598.2 463.5,-598.2 463.5,-579.2 409.5,-579.2"/>
<text text-anchor="start" x="454.3862" y="-585.3" font-family="Helvetica,sans-Serif" font-size="11.00" fill="#000000"> &#160;</text>
<polygon fill="#ffffff" stroke="transparent" points="463.5,-579.2 463.5,-598.2 518.5,-598.2 518.5,-579.2 463.5,-579.2"/>
<polygon fill="none" stroke="#000000" points="463.5,-579.2 463.5,-598.2 518.5,-598.2 518.5,-579.2 463.5,-579.2"/>
<text text-anchor="start" x="509.3862" y="-585.3" font-family="Helvetica,sans-Serif" font-size="11.00" fill="#000000"> &#160;</text>
</a>
</g>
</g>
<!-- document_template_audit&#45;&gt;audit_revision -->
<g id="edge3" class="edge">
<title>document_template_audit:w&#45;&gt;audit_revision:e</title>
<path fill="none" stroke="#000000" d="M290.0426,-764.8022C217.7069,-782.2426 272.0148,-936.2 183.5,-936.2"/>
<polygon fill="#000000" stroke="#000000" points="296.5487,-764.0812 304.8965,-766.7781 300.5243,-763.6406 304.5,-763.2 304.5,-763.2 304.5,-763.2 300.5243,-763.6406 304.1035,-759.6219 296.5487,-764.0812 296.5487,-764.0812"/>
<ellipse fill="none" stroke="#000000" cx="293.3681" cy="-764.4337" rx="3.2" ry="3.2"/>
</g>
<!-- document_template_audit&#45;&gt;template_variable_domain -->
<g id="edge2" class="edge">
<title>document_template_audit:w&#45;&gt;template_variable_domain:e</title>
<path fill="none" stroke="#000000" stroke-dasharray="5,2" d="M291.0263,-690.9396C257.2097,-655.3602 271.6064,-480.2 225.5,-480.2"/>
<polygon fill="#000000" stroke="#000000" points="297.2449,-693.829 302.983,-700.4648 300.8724,-695.5145 304.5,-697.2 304.5,-697.2 304.5,-697.2 300.8724,-695.5145 306.017,-693.9352 297.2449,-693.829 297.2449,-693.829"/>
<ellipse fill="none" stroke="#000000" cx="294.3429" cy="-692.4806" rx="3.2" ry="3.2"/>
</g>
<!-- document_template_variable -->
<g id="node9" class="node">
<title>document_template_variable</title>
<g id="a_node9"><a xlink:href="../../tables/document_template_variable.html" xlink:title="document_template_variable" target="_top">
<polygon fill="#ffffff" stroke="transparent" points="598,-336.2 598,-466.2 832,-466.2 832,-336.2 598,-336.2"/>
<polygon fill="#f5f5f5" stroke="transparent" points="598,-443.2 598,-466.2 832,-466.2 832,-443.2 598,-443.2"/>
<polygon fill="none" stroke="#000000" points="598,-443.2 598,-466.2 832,-466.2 832,-443.2 598,-443.2"/>
<text text-anchor="start" x="603" y="-451.8" font-family="Helvetica,sans-Serif" font-weight="bold" font-size="11.00" fill="#000000">document_template_variable</text>
<text text-anchor="start" x="797.5219" y="-451.3" font-family="Helvetica,sans-Serif" font-size="11.00" fill="#000000">[table]</text>
<polygon fill="none" stroke="#000000" points="598,-421.2 598,-443.2 832,-443.2 832,-421.2 598,-421.2"/>
<image xlink:href="../../images/primaryKeys.png" width="11px" height="12px" preserveAspectRatio="xMinYMin meet" x="603" y="-438.2"/>
<text text-anchor="start" x="627" y="-428.3" font-family="Helvetica,sans-Serif" font-size="11.00" fill="#000000">id</text>
<polygon fill="#ffffff" stroke="transparent" points="598,-399.2 598,-421.2 832,-421.2 832,-399.2 598,-399.2"/>
<polygon fill="none" stroke="#000000" points="598,-399.2 598,-421.2 832,-421.2 832,-399.2 598,-399.2"/>
<image xlink:href="../../images/foreignKeys.png" width="11px" height="12px" preserveAspectRatio="xMinYMin meet" x="603" y="-416.2"/>
<text text-anchor="start" x="627" y="-406.3" font-family="Helvetica,sans-Serif" font-size="11.00" fill="#000000">template_id</text>
<polygon fill="#ffffff" stroke="transparent" points="598,-377.2 598,-399.2 832,-399.2 832,-377.2 598,-377.2"/>
<polygon fill="none" stroke="#000000" points="598,-377.2 598,-399.2 832,-399.2 832,-377.2 598,-377.2"/>
<image xlink:href="../../images/foreignKeys.png" width="11px" height="12px" preserveAspectRatio="xMinYMin meet" x="603" y="-394.2"/>
<text text-anchor="start" x="627" y="-384.3" font-family="Helvetica,sans-Serif" font-size="11.00" fill="#000000">variable_id</text>
<polygon fill="none" stroke="#000000" points="598,-355.2 598,-377.2 832,-377.2 832,-355.2 598,-355.2"/>
<text text-anchor="start" x="627" y="-362.3" font-family="Helvetica,sans-Serif" font-size="11.00" fill="#000000">mandatory</text>
<polygon fill="#ffffff" stroke="transparent" points="598,-336.2 598,-355.2 713,-355.2 713,-336.2 598,-336.2"/>
<polygon fill="none" stroke="#000000" points="598,-336.2 598,-355.2 713,-355.2 713,-336.2 598,-336.2"/>
<text text-anchor="start" x="601" y="-342.3" font-family="Helvetica,sans-Serif" font-size="11.00" fill="#000000">&lt; 2</text>
<polygon fill="#ffffff" stroke="transparent" points="713,-336.2 713,-355.2 772,-355.2 772,-336.2 713,-336.2"/>
<polygon fill="none" stroke="#000000" points="713,-336.2 713,-355.2 772,-355.2 772,-336.2 713,-336.2"/>
<text text-anchor="start" x="762.8862" y="-342.3" font-family="Helvetica,sans-Serif" font-size="11.00" fill="#000000"> &#160;</text>
<polygon fill="#ffffff" stroke="transparent" points="772,-336.2 772,-355.2 832,-355.2 832,-336.2 772,-336.2"/>
<polygon fill="none" stroke="#000000" points="772,-336.2 772,-355.2 832,-355.2 832,-336.2 772,-336.2"/>
<text text-anchor="start" x="822.8862" y="-342.3" font-family="Helvetica,sans-Serif" font-size="11.00" fill="#000000"> &#160;</text>
</a>
</g>
</g>
<!-- document_template_variable&#45;&gt;template_variable -->
<g id="edge8" class="edge">
<title>document_template_variable:w&#45;&gt;template_variable:e</title>
<path fill="none" stroke="#000000" d="M583.5562,-390.1225C527.2313,-406.6526 562.8742,-524.2 491.5,-524.2"/>
<polygon fill="#000000" stroke="#000000" points="590.0699,-389.2556 598.475,-391.7685 594.035,-388.7278 598,-388.2 598,-388.2 598,-388.2 594.035,-388.7278 597.525,-384.6315 590.0699,-389.2556 590.0699,-389.2556"/>
<ellipse fill="none" stroke="#000000" cx="586.8979" cy="-389.6778" rx="3.2" ry="3.2"/>
</g>
<!-- document_template_variable&#45;&gt;document_template -->
<g id="edge7" class="edge">
<title>document_template_variable:w&#45;&gt;document_template:e</title>
<path fill="none" stroke="#000000" d="M583.9975,-406.7407C573.4463,-400.2253 571.0486,-385.7506 557,-374.2 531.6621,-353.3675 531.3024,-329.2 498.5,-329.2"/>
<polygon fill="#000000" stroke="#000000" points="590.2335,-408.2813 597.1366,-413.6949 594.1167,-409.2406 598,-410.2 598,-410.2 598,-410.2 594.1167,-409.2406 598.8634,-406.7051 590.2335,-408.2813 590.2335,-408.2813"/>
<ellipse fill="none" stroke="#000000" cx="587.1269" cy="-407.5138" rx="3.2" ry="3.2"/>
</g>
</g>
</svg>
