<?xml version="1.0" encoding="UTF-8" standalone="no"?>
<!DOCTYPE svg PUBLIC "-//W3C//DTD SVG 1.1//EN"
 "http://www.w3.org/Graphics/SVG/1.1/DTD/svg11.dtd">
<!-- Generated by graphviz version 2.40.1 (20161225.0304)
 -->
<!-- Title: largeRelationshipsDiagram Pages: 1 -->
<svg width="787pt" height="1035pt"
 viewBox="0.00 0.00 787.00 1035.20" xmlns="http://www.w3.org/2000/svg" xmlns:xlink="http://www.w3.org/1999/xlink">
<g id="graph0" class="graph" transform="scale(1 1) rotate(0) translate(4 1031.2)">
<title>largeRelationshipsDiagram</title>
<polygon fill="#ffffff" stroke="transparent" points="-4,4 -4,-1031.2 783,-1031.2 783,4 -4,4"/>
<text text-anchor="middle" x="72.4936" y="-7.3" font-family="Helvetica,sans-Serif" font-size="11.00" fill="#000000">Generated by SchemaSpy</text>
<!-- document_template_variable_audit -->
<g id="node1" class="node">
<title>document_template_variable_audit</title>
<g id="a_node1"><a xlink:href="../../tables/document_template_variable_audit.html" xlink:title="document_template_variable_audit" target="_top">
<polygon fill="#ffffff" stroke="transparent" points="496,-450.2 496,-624.2 771,-624.2 771,-450.2 496,-450.2"/>
<polygon fill="#f5f5f5" stroke="transparent" points="496.5,-601.2 496.5,-624.2 771.5,-624.2 771.5,-601.2 496.5,-601.2"/>
<polygon fill="none" stroke="#000000" points="496.5,-601.2 496.5,-624.2 771.5,-624.2 771.5,-601.2 496.5,-601.2"/>
<text text-anchor="start" x="501.5" y="-609.8" font-family="Helvetica,sans-Serif" font-weight="bold" font-size="11.00" fill="#000000">document_template_variable_audit</text>
<text text-anchor="start" x="737.0219" y="-609.3" font-family="Helvetica,sans-Serif" font-size="11.00" fill="#000000">[table]</text>
<polygon fill="none" stroke="#000000" points="496.5,-579.2 496.5,-601.2 771.5,-601.2 771.5,-579.2 496.5,-579.2"/>
<image xlink:href="../../images/primaryKeys.png" width="11px" height="12px" preserveAspectRatio="xMinYMin meet" x="501.5" y="-596.2"/>
<text text-anchor="start" x="525.5" y="-586.3" font-family="Helvetica,sans-Serif" font-size="11.00" fill="#000000">rev_id</text>
<polygon fill="none" stroke="#000000" points="496.5,-557.2 496.5,-579.2 771.5,-579.2 771.5,-557.2 496.5,-557.2"/>
<text text-anchor="start" x="525.5" y="-564.3" font-family="Helvetica,sans-Serif" font-size="11.00" fill="#000000">rev_type</text>
<polygon fill="none" stroke="#000000" points="496.5,-535.2 496.5,-557.2 771.5,-557.2 771.5,-535.2 496.5,-535.2"/>
<image xlink:href="../../images/primaryKeys.png" width="11px" height="12px" preserveAspectRatio="xMinYMin meet" x="501.5" y="-552.2"/>
<text text-anchor="start" x="525.5" y="-542.3" font-family="Helvetica,sans-Serif" font-size="11.00" fill="#000000">id</text>
<polygon fill="#ffffff" stroke="transparent" points="496.5,-513.2 496.5,-535.2 771.5,-535.2 771.5,-513.2 496.5,-513.2"/>
<polygon fill="none" stroke="#000000" points="496.5,-513.2 496.5,-535.2 771.5,-535.2 771.5,-513.2 496.5,-513.2"/>
<text text-anchor="start" x="525.5" y="-520.3" font-family="Helvetica,sans-Serif" font-size="11.00" fill="#000000">template_id</text>
<polygon fill="#ffffff" stroke="transparent" points="496.5,-491.2 496.5,-513.2 771.5,-513.2 771.5,-491.2 496.5,-491.2"/>
<polygon fill="none" stroke="#000000" points="496.5,-491.2 496.5,-513.2 771.5,-513.2 771.5,-491.2 496.5,-491.2"/>
<text text-anchor="start" x="525.5" y="-498.3" font-family="Helvetica,sans-Serif" font-size="11.00" fill="#000000">variable_id</text>
<polygon fill="none" stroke="#000000" points="496.5,-469.2 496.5,-491.2 771.5,-491.2 771.5,-469.2 496.5,-469.2"/>
<text text-anchor="start" x="525.5" y="-476.3" font-family="Helvetica,sans-Serif" font-size="11.00" fill="#000000">mandatory</text>
<polygon fill="#ffffff" stroke="transparent" points="496.5,-450.2 496.5,-469.2 632.5,-469.2 632.5,-450.2 496.5,-450.2"/>
<polygon fill="none" stroke="#000000" points="496.5,-450.2 496.5,-469.2 632.5,-469.2 632.5,-450.2 496.5,-450.2"/>
<text text-anchor="start" x="499.5" y="-456.3" font-family="Helvetica,sans-Serif" font-size="11.00" fill="#000000">&lt; 1</text>
<polygon fill="#ffffff" stroke="transparent" points="632.5,-450.2 632.5,-469.2 701.5,-469.2 701.5,-450.2 632.5,-450.2"/>
<polygon fill="none" stroke="#000000" points="632.5,-450.2 632.5,-469.2 701.5,-469.2 701.5,-450.2 632.5,-450.2"/>
<text text-anchor="start" x="692.3862" y="-456.3" font-family="Helvetica,sans-Serif" font-size="11.00" fill="#000000"> &#160;</text>
<polygon fill="#ffffff" stroke="transparent" points="701.5,-450.2 701.5,-469.2 771.5,-469.2 771.5,-450.2 701.5,-450.2"/>
<polygon fill="none" stroke="#000000" points="701.5,-450.2 701.5,-469.2 771.5,-469.2 771.5,-450.2 701.5,-450.2"/>
<text text-anchor="start" x="762.3862" y="-456.3" font-family="Helvetica,sans-Serif" font-size="11.00" fill="#000000"> &#160;</text>
</a>
</g>
</g>
<!-- audit_revision -->
<g id="node7" class="node">
<title>audit_revision</title>
<g id="a_node7"><a xlink:href="../../tables/audit_revision.html" xlink:title="audit_revision" target="_top">
<polygon fill="#ffffff" stroke="transparent" points="293.5,-321.2 293.5,-429.2 427.5,-429.2 427.5,-321.2 293.5,-321.2"/>
<polygon fill="#f5f5f5" stroke="transparent" points="293.5,-406.2 293.5,-429.2 427.5,-429.2 427.5,-406.2 293.5,-406.2"/>
<polygon fill="none" stroke="#000000" points="293.5,-406.2 293.5,-429.2 427.5,-429.2 427.5,-406.2 293.5,-406.2"/>
<text text-anchor="start" x="298.5" y="-414.8" font-family="Helvetica,sans-Serif" font-weight="bold" font-size="11.00" fill="#000000">audit_revision</text>
<text text-anchor="start" x="393.0219" y="-414.3" font-family="Helvetica,sans-Serif" font-size="11.00" fill="#000000">[table]</text>
<polygon fill="none" stroke="#000000" points="293.5,-384.2 293.5,-406.2 427.5,-406.2 427.5,-384.2 293.5,-384.2"/>
<image xlink:href="../../images/primaryKeys.png" width="11px" height="12px" preserveAspectRatio="xMinYMin meet" x="298.5" y="-401.2"/>
<text text-anchor="start" x="322.5" y="-391.3" font-family="Helvetica,sans-Serif" font-size="11.00" fill="#000000">id</text>
<polygon fill="none" stroke="#000000" points="293.5,-362.2 293.5,-384.2 427.5,-384.2 427.5,-362.2 293.5,-362.2"/>
<text text-anchor="start" x="322.5" y="-369.3" font-family="Helvetica,sans-Serif" font-size="11.00" fill="#000000">timestamp</text>
<polygon fill="none" stroke="#000000" points="293.5,-340.2 293.5,-362.2 427.5,-362.2 427.5,-340.2 293.5,-340.2"/>
<text text-anchor="start" x="322.5" y="-347.3" font-family="Helvetica,sans-Serif" font-size="11.00" fill="#000000">username</text>
<polygon fill="#ffffff" stroke="transparent" points="293.5,-321.2 293.5,-340.2 349.5,-340.2 349.5,-321.2 293.5,-321.2"/>
<polygon fill="none" stroke="#000000" points="293.5,-321.2 293.5,-340.2 349.5,-340.2 349.5,-321.2 293.5,-321.2"/>
<text text-anchor="start" x="296.5" y="-327.3" font-family="Helvetica,sans-Serif" font-size="11.00" fill="#000000"> &#160;</text>
<polygon fill="#ffffff" stroke="transparent" points="349.5,-321.2 349.5,-340.2 383.5,-340.2 383.5,-321.2 349.5,-321.2"/>
<polygon fill="none" stroke="#000000" points="349.5,-321.2 349.5,-340.2 383.5,-340.2 383.5,-321.2 349.5,-321.2"/>
<text text-anchor="start" x="374.3862" y="-327.3" font-family="Helvetica,sans-Serif" font-size="11.00" fill="#000000"> &#160;</text>
<polygon fill="#ffffff" stroke="transparent" points="383.5,-321.2 383.5,-340.2 427.5,-340.2 427.5,-321.2 383.5,-321.2"/>
<polygon fill="none" stroke="#000000" points="383.5,-321.2 383.5,-340.2 427.5,-340.2 427.5,-321.2 383.5,-321.2"/>
<text text-anchor="start" x="408.9053" y="-327.3" font-family="Helvetica,sans-Serif" font-size="11.00" fill="#000000">3 &gt;</text>
</a>
</g>
</g>
<!-- document_template_variable_audit&#45;&gt;audit_revision -->
<g id="edge7" class="edge">
<title>document_template_variable_audit:w&#45;&gt;audit_revision:e</title>
<path fill="none" stroke="#000000" d="M481.9839,-588.142C417.719,-567.3016 513.8661,-395.2 427.5,-395.2"/>
<polygon fill="#000000" stroke="#000000" points="488.5792,-589.077 495.9946,-593.7644 492.5396,-589.6385 496.5,-590.2 496.5,-590.2 496.5,-590.2 492.5396,-589.6385 497.0054,-586.6356 488.5792,-589.077 488.5792,-589.077"/>
<ellipse fill="none" stroke="#000000" cx="485.4109" cy="-588.6278" rx="3.2" ry="3.2"/>
</g>
<!-- template_variable -->
<g id="node2" class="node">
<title>template_variable</title>
<g id="a_node2"><a xlink:href="../../tables/template_variable.html" xlink:title="template_variable" target="_top">
<polygon fill="#ffffff" stroke="transparent" points="280.5,-849.2 280.5,-1023.2 440.5,-1023.2 440.5,-849.2 280.5,-849.2"/>
<polygon fill="#f5f5f5" stroke="transparent" points="280.5,-1000.2 280.5,-1023.2 440.5,-1023.2 440.5,-1000.2 280.5,-1000.2"/>
<polygon fill="none" stroke="#000000" points="280.5,-1000.2 280.5,-1023.2 440.5,-1023.2 440.5,-1000.2 280.5,-1000.2"/>
<text text-anchor="start" x="285.5" y="-1008.8" font-family="Helvetica,sans-Serif" font-weight="bold" font-size="11.00" fill="#000000">template_variable</text>
<text text-anchor="start" x="406.0219" y="-1008.3" font-family="Helvetica,sans-Serif" font-size="11.00" fill="#000000">[table]</text>
<polygon fill="none" stroke="#000000" points="280.5,-978.2 280.5,-1000.2 440.5,-1000.2 440.5,-978.2 280.5,-978.2"/>
<image xlink:href="../../images/primaryKeys.png" width="11px" height="12px" preserveAspectRatio="xMinYMin meet" x="285.5" y="-995.2"/>
<text text-anchor="start" x="309.5" y="-985.3" font-family="Helvetica,sans-Serif" font-size="11.00" fill="#000000">id</text>
<polygon fill="#ffffff" stroke="transparent" points="280.5,-956.2 280.5,-978.2 440.5,-978.2 440.5,-956.2 280.5,-956.2"/>
<polygon fill="none" stroke="#000000" points="280.5,-956.2 280.5,-978.2 440.5,-978.2 440.5,-956.2 280.5,-956.2"/>
<image xlink:href="../../images/foreignKeys.png" width="11px" height="12px" preserveAspectRatio="xMinYMin meet" x="285.5" y="-973.2"/>
<text text-anchor="start" x="309.5" y="-963.3" font-family="Helvetica,sans-Serif" font-size="11.00" fill="#000000">domain</text>
<polygon fill="#ffffff" stroke="transparent" points="280.5,-934.2 280.5,-956.2 440.5,-956.2 440.5,-934.2 280.5,-934.2"/>
<polygon fill="none" stroke="#000000" points="280.5,-934.2 280.5,-956.2 440.5,-956.2 440.5,-934.2 280.5,-934.2"/>
<image xlink:href="../../images/foreignKeys.png" width="11px" height="12px" preserveAspectRatio="xMinYMin meet" x="285.5" y="-951.2"/>
<text text-anchor="start" x="309.5" y="-941.3" font-family="Helvetica,sans-Serif" font-size="11.00" fill="#000000">code</text>
<polygon fill="none" stroke="#000000" points="280.5,-912.2 280.5,-934.2 440.5,-934.2 440.5,-912.2 280.5,-912.2"/>
<text text-anchor="start" x="309.5" y="-919.3" font-family="Helvetica,sans-Serif" font-size="11.00" fill="#000000">description</text>
<polygon fill="#ffffff" stroke="transparent" points="280.5,-890.2 280.5,-912.2 440.5,-912.2 440.5,-890.2 280.5,-890.2"/>
<polygon fill="none" stroke="#000000" points="280.5,-890.2 280.5,-912.2 440.5,-912.2 440.5,-890.2 280.5,-890.2"/>
<text text-anchor="start" x="309.5" y="-897.3" font-family="Helvetica,sans-Serif" font-size="11.00" fill="#000000">sequence_number</text>
<polygon fill="none" stroke="#000000" points="280.5,-868.2 280.5,-890.2 440.5,-890.2 440.5,-868.2 280.5,-868.2"/>
<text text-anchor="start" x="309.5" y="-875.3" font-family="Helvetica,sans-Serif" font-size="11.00" fill="#000000">type</text>
<polygon fill="#ffffff" stroke="transparent" points="280.5,-849.2 280.5,-868.2 354.5,-868.2 354.5,-849.2 280.5,-849.2"/>
<polygon fill="none" stroke="#000000" points="280.5,-849.2 280.5,-868.2 354.5,-868.2 354.5,-849.2 280.5,-849.2"/>
<text text-anchor="start" x="283.5" y="-855.3" font-family="Helvetica,sans-Serif" font-size="11.00" fill="#000000">&lt; 1</text>
<polygon fill="#ffffff" stroke="transparent" points="354.5,-849.2 354.5,-868.2 392.5,-868.2 392.5,-849.2 354.5,-849.2"/>
<polygon fill="none" stroke="#000000" points="354.5,-849.2 354.5,-868.2 392.5,-868.2 392.5,-849.2 354.5,-849.2"/>
<text text-anchor="start" x="383.3862" y="-855.3" font-family="Helvetica,sans-Serif" font-size="11.00" fill="#000000"> &#160;</text>
<polygon fill="#ffffff" stroke="transparent" points="392.5,-849.2 392.5,-868.2 440.5,-868.2 440.5,-849.2 392.5,-849.2"/>
<polygon fill="none" stroke="#000000" points="392.5,-849.2 392.5,-868.2 440.5,-868.2 440.5,-849.2 392.5,-849.2"/>
<text text-anchor="start" x="421.9053" y="-855.3" font-family="Helvetica,sans-Serif" font-size="11.00" fill="#000000">1 &gt;</text>
</a>
</g>
</g>
<!-- template_variable_domain -->
<g id="node10" class="node">
<title>template_variable_domain</title>
<g id="a_node10"><a xlink:href="../../tables/template_variable_domain.html" xlink:title="template_variable_domain" target="_top">
<polygon fill="#ffffff" stroke="transparent" points="8,-893.2 8,-1001.2 225,-1001.2 225,-893.2 8,-893.2"/>
<polygon fill="#f5f5f5" stroke="transparent" points="8.5,-978.2 8.5,-1001.2 225.5,-1001.2 225.5,-978.2 8.5,-978.2"/>
<polygon fill="none" stroke="#000000" points="8.5,-978.2 8.5,-1001.2 225.5,-1001.2 225.5,-978.2 8.5,-978.2"/>
<text text-anchor="start" x="13.5" y="-986.8" font-family="Helvetica,sans-Serif" font-weight="bold" font-size="11.00" fill="#000000">template_variable_domain</text>
<text text-anchor="start" x="191.0219" y="-986.3" font-family="Helvetica,sans-Serif" font-size="11.00" fill="#000000">[table]</text>
<polygon fill="none" stroke="#000000" points="8.5,-956.2 8.5,-978.2 225.5,-978.2 225.5,-956.2 8.5,-956.2"/>
<image xlink:href="../../images/primaryKeys.png" width="11px" height="12px" preserveAspectRatio="xMinYMin meet" x="13.5" y="-973.2"/>
<text text-anchor="start" x="37.5" y="-963.3" font-family="Helvetica,sans-Serif" font-size="11.00" fill="#000000">code</text>
<polygon fill="none" stroke="#000000" points="8.5,-934.2 8.5,-956.2 225.5,-956.2 225.5,-934.2 8.5,-934.2"/>
<text text-anchor="start" x="37.5" y="-941.3" font-family="Helvetica,sans-Serif" font-size="11.00" fill="#000000">description</text>
<polygon fill="#ffffff" stroke="transparent" points="8.5,-912.2 8.5,-934.2 225.5,-934.2 225.5,-912.2 8.5,-912.2"/>
<polygon fill="none" stroke="#000000" points="8.5,-912.2 8.5,-934.2 225.5,-934.2 225.5,-912.2 8.5,-912.2"/>
<text text-anchor="start" x="37.5" y="-919.3" font-family="Helvetica,sans-Serif" font-size="11.00" fill="#000000">sequence_number</text>
<polygon fill="#ffffff" stroke="transparent" points="8.5,-893.2 8.5,-912.2 106.5,-912.2 106.5,-893.2 8.5,-893.2"/>
<polygon fill="none" stroke="#000000" points="8.5,-893.2 8.5,-912.2 106.5,-912.2 106.5,-893.2 8.5,-893.2"/>
<text text-anchor="start" x="11.5" y="-899.3" font-family="Helvetica,sans-Serif" font-size="11.00" fill="#000000"> &#160;</text>
<polygon fill="#ffffff" stroke="transparent" points="106.5,-893.2 106.5,-912.2 161.5,-912.2 161.5,-893.2 106.5,-893.2"/>
<polygon fill="none" stroke="#000000" points="106.5,-893.2 106.5,-912.2 161.5,-912.2 161.5,-893.2 106.5,-893.2"/>
<text text-anchor="start" x="152.3862" y="-899.3" font-family="Helvetica,sans-Serif" font-size="11.00" fill="#000000"> &#160;</text>
<polygon fill="#ffffff" stroke="transparent" points="161.5,-893.2 161.5,-912.2 225.5,-912.2 225.5,-893.2 161.5,-893.2"/>
<polygon fill="none" stroke="#000000" points="161.5,-893.2 161.5,-912.2 225.5,-912.2 225.5,-893.2 161.5,-893.2"/>
<text text-anchor="start" x="206.9053" y="-899.3" font-family="Helvetica,sans-Serif" font-size="11.00" fill="#000000">1 &gt;</text>
</a>
</g>
</g>
<!-- template_variable&#45;&gt;template_variable_domain -->
<g id="edge8" class="edge">
<title>template_variable:w&#45;&gt;template_variable_domain:e</title>
<path fill="none" stroke="#000000" d="M265.8617,-967.2C252.1839,-967.2 244.2153,-967.2 225.5,-967.2"/>
<polygon fill="#000000" stroke="#000000" points="272.5,-967.2001 280.5,-970.8 276.5,-967.2 280.5,-967.2 280.5,-967.2 280.5,-967.2 276.5,-967.2 280.5,-963.6 272.5,-967.2001 272.5,-967.2001"/>
<ellipse fill="none" stroke="#000000" cx="269.3" cy="-967.2001" rx="3.2" ry="3.2"/>
</g>
<!-- document_template -->
<g id="node3" class="node">
<title>document_template</title>
<g id="a_node3"><a xlink:href="../../tables/document_template.html" xlink:title="document_template" target="_top">
<polygon fill="#ffffff" stroke="transparent" points="274,-654.2 274,-828.2 447,-828.2 447,-654.2 274,-654.2"/>
<polygon fill="#f5f5f5" stroke="transparent" points="274.5,-805.2 274.5,-828.2 447.5,-828.2 447.5,-805.2 274.5,-805.2"/>
<polygon fill="none" stroke="#000000" points="274.5,-805.2 274.5,-828.2 447.5,-828.2 447.5,-805.2 274.5,-805.2"/>
<text text-anchor="start" x="279.5" y="-813.8" font-family="Helvetica,sans-Serif" font-weight="bold" font-size="11.00" fill="#000000">document_template</text>
<text text-anchor="start" x="413.0219" y="-813.3" font-family="Helvetica,sans-Serif" font-size="11.00" fill="#000000">[table]</text>
<polygon fill="none" stroke="#000000" points="274.5,-783.2 274.5,-805.2 447.5,-805.2 447.5,-783.2 274.5,-783.2"/>
<image xlink:href="../../images/primaryKeys.png" width="11px" height="12px" preserveAspectRatio="xMinYMin meet" x="279.5" y="-800.2"/>
<text text-anchor="start" x="303.5" y="-790.3" font-family="Helvetica,sans-Serif" font-size="11.00" fill="#000000">id</text>
<polygon fill="#ffffff" stroke="transparent" points="274.5,-761.2 274.5,-783.2 447.5,-783.2 447.5,-761.2 274.5,-761.2"/>
<polygon fill="none" stroke="#000000" points="274.5,-761.2 274.5,-783.2 447.5,-783.2 447.5,-761.2 274.5,-761.2"/>
<image xlink:href="../../images/foreignKeys.png" width="11px" height="12px" preserveAspectRatio="xMinYMin meet" x="279.5" y="-778.2"/>
<text text-anchor="start" x="303.5" y="-768.3" font-family="Helvetica,sans-Serif" font-size="11.00" fill="#000000">code</text>
<polygon fill="none" stroke="#000000" points="274.5,-739.2 274.5,-761.2 447.5,-761.2 447.5,-739.2 274.5,-739.2"/>
<text text-anchor="start" x="303.5" y="-746.3" font-family="Helvetica,sans-Serif" font-size="11.00" fill="#000000">name</text>
<polygon fill="none" stroke="#000000" points="274.5,-717.2 274.5,-739.2 447.5,-739.2 447.5,-717.2 274.5,-717.2"/>
<text text-anchor="start" x="303.5" y="-724.3" font-family="Helvetica,sans-Serif" font-size="11.00" fill="#000000">description</text>
<polygon fill="none" stroke="#000000" points="274.5,-695.2 274.5,-717.2 447.5,-717.2 447.5,-695.2 274.5,-695.2"/>
<text text-anchor="start" x="303.5" y="-702.3" font-family="Helvetica,sans-Serif" font-size="11.00" fill="#000000">version</text>
<polygon fill="#ffffff" stroke="transparent" points="274.5,-673.2 274.5,-695.2 447.5,-695.2 447.5,-673.2 274.5,-673.2"/>
<polygon fill="none" stroke="#000000" points="274.5,-673.2 274.5,-695.2 447.5,-695.2 447.5,-673.2 274.5,-673.2"/>
<text text-anchor="start" x="303.5" y="-680.3" font-family="Helvetica,sans-Serif" font-size="11.00" fill="#000000">external_reference</text>
<polygon fill="#ffffff" stroke="transparent" points="274.5,-654.2 274.5,-673.2 350.5,-673.2 350.5,-654.2 274.5,-654.2"/>
<polygon fill="none" stroke="#000000" points="274.5,-654.2 274.5,-673.2 350.5,-673.2 350.5,-654.2 274.5,-654.2"/>
<text text-anchor="start" x="277.5" y="-660.3" font-family="Helvetica,sans-Serif" font-size="11.00" fill="#000000"> &#160;</text>
<polygon fill="#ffffff" stroke="transparent" points="350.5,-654.2 350.5,-673.2 394.5,-673.2 394.5,-654.2 350.5,-654.2"/>
<polygon fill="none" stroke="#000000" points="350.5,-654.2 350.5,-673.2 394.5,-673.2 394.5,-654.2 350.5,-654.2"/>
<text text-anchor="start" x="385.3862" y="-660.3" font-family="Helvetica,sans-Serif" font-size="11.00" fill="#000000"> &#160;</text>
<polygon fill="#ffffff" stroke="transparent" points="394.5,-654.2 394.5,-673.2 447.5,-673.2 447.5,-654.2 394.5,-654.2"/>
<polygon fill="none" stroke="#000000" points="394.5,-654.2 394.5,-673.2 447.5,-673.2 447.5,-654.2 394.5,-654.2"/>
<text text-anchor="start" x="428.9053" y="-660.3" font-family="Helvetica,sans-Serif" font-size="11.00" fill="#000000">2 &gt;</text>
</a>
</g>
</g>
<!-- document_template_group -->
<g id="node4" class="node">
<title>document_template_group</title>
<g id="a_node4"><a xlink:href="../../tables/document_template_group.html" xlink:title="document_template_group" target="_top">
<polygon fill="#ffffff" stroke="transparent" points="524,-693.2 524,-801.2 743,-801.2 743,-693.2 524,-693.2"/>
<polygon fill="#f5f5f5" stroke="transparent" points="524.5,-778.2 524.5,-801.2 743.5,-801.2 743.5,-778.2 524.5,-778.2"/>
<polygon fill="none" stroke="#000000" points="524.5,-778.2 524.5,-801.2 743.5,-801.2 743.5,-778.2 524.5,-778.2"/>
<text text-anchor="start" x="529.5" y="-786.8" font-family="Helvetica,sans-Serif" font-weight="bold" font-size="11.00" fill="#000000">document_template_group</text>
<text text-anchor="start" x="709.0219" y="-786.3" font-family="Helvetica,sans-Serif" font-size="11.00" fill="#000000">[table]</text>
<polygon fill="none" stroke="#000000" points="524.5,-756.2 524.5,-778.2 743.5,-778.2 743.5,-756.2 524.5,-756.2"/>
<image xlink:href="../../images/primaryKeys.png" width="11px" height="12px" preserveAspectRatio="xMinYMin meet" x="529.5" y="-773.2"/>
<text text-anchor="start" x="553.5" y="-763.3" font-family="Helvetica,sans-Serif" font-size="11.00" fill="#000000">id</text>
<polygon fill="#ffffff" stroke="transparent" points="524.5,-734.2 524.5,-756.2 743.5,-756.2 743.5,-734.2 524.5,-734.2"/>
<polygon fill="none" stroke="#000000" points="524.5,-734.2 524.5,-756.2 743.5,-756.2 743.5,-734.2 524.5,-734.2"/>
<image xlink:href="../../images/foreignKeys.png" width="11px" height="12px" preserveAspectRatio="xMinYMin meet" x="529.5" y="-751.2"/>
<text text-anchor="start" x="553.5" y="-741.3" font-family="Helvetica,sans-Serif" font-size="11.00" fill="#000000">template_id</text>
<polygon fill="#ffffff" stroke="transparent" points="524.5,-712.2 524.5,-734.2 743.5,-734.2 743.5,-712.2 524.5,-712.2"/>
<polygon fill="none" stroke="#000000" points="524.5,-712.2 524.5,-734.2 743.5,-734.2 743.5,-712.2 524.5,-712.2"/>
<image xlink:href="../../images/foreignKeys.png" width="11px" height="12px" preserveAspectRatio="xMinYMin meet" x="529.5" y="-729.2"/>
<text text-anchor="start" x="553.5" y="-719.3" font-family="Helvetica,sans-Serif" font-size="11.00" fill="#000000">template_group_id</text>
<polygon fill="#ffffff" stroke="transparent" points="524.5,-693.2 524.5,-712.2 632.5,-712.2 632.5,-693.2 524.5,-693.2"/>
<polygon fill="none" stroke="#000000" points="524.5,-693.2 524.5,-712.2 632.5,-712.2 632.5,-693.2 524.5,-693.2"/>
<text text-anchor="start" x="527.5" y="-699.3" font-family="Helvetica,sans-Serif" font-size="11.00" fill="#000000">&lt; 2</text>
<polygon fill="#ffffff" stroke="transparent" points="632.5,-693.2 632.5,-712.2 687.5,-712.2 687.5,-693.2 632.5,-693.2"/>
<polygon fill="none" stroke="#000000" points="632.5,-693.2 632.5,-712.2 687.5,-712.2 687.5,-693.2 632.5,-693.2"/>
<text text-anchor="start" x="678.3862" y="-699.3" font-family="Helvetica,sans-Serif" font-size="11.00" fill="#000000"> &#160;</text>
<polygon fill="#ffffff" stroke="transparent" points="687.5,-693.2 687.5,-712.2 743.5,-712.2 743.5,-693.2 687.5,-693.2"/>
<polygon fill="none" stroke="#000000" points="687.5,-693.2 687.5,-712.2 743.5,-712.2 743.5,-693.2 687.5,-693.2"/>
<text text-anchor="start" x="734.3862" y="-699.3" font-family="Helvetica,sans-Serif" font-size="11.00" fill="#000000"> &#160;</text>
</a>
</g>
</g>
<!-- document_template_group&#45;&gt;document_template -->
<g id="edge3" class="edge">
<title>document_template_group:w&#45;&gt;document_template:e</title>
<path fill="none" stroke="#000000" d="M510.1402,-747.6973C484.2294,-757.6825 482.5181,-794.2 447.5,-794.2"/>
<polygon fill="#000000" stroke="#000000" points="516.6183,-746.5707 525.1168,-748.7468 520.5591,-745.8854 524.5,-745.2 524.5,-745.2 524.5,-745.2 520.5591,-745.8854 523.8832,-741.6532 516.6183,-746.5707 516.6183,-746.5707"/>
<ellipse fill="none" stroke="#000000" cx="513.4656" cy="-747.119" rx="3.2" ry="3.2"/>
</g>
<!-- template_group -->
<g id="node6" class="node">
<title>template_group</title>
<g id="a_node6"><a xlink:href="../../tables/template_group.html" xlink:title="template_group" target="_top">
<polygon fill="#ffffff" stroke="transparent" points="288,-503.2 288,-633.2 433,-633.2 433,-503.2 288,-503.2"/>
<polygon fill="#f5f5f5" stroke="transparent" points="288.5,-610.2 288.5,-633.2 433.5,-633.2 433.5,-610.2 288.5,-610.2"/>
<polygon fill="none" stroke="#000000" points="288.5,-610.2 288.5,-633.2 433.5,-633.2 433.5,-610.2 288.5,-610.2"/>
<text text-anchor="start" x="293.5" y="-618.8" font-family="Helvetica,sans-Serif" font-weight="bold" font-size="11.00" fill="#000000">template_group</text>
<text text-anchor="start" x="399.0219" y="-618.3" font-family="Helvetica,sans-Serif" font-size="11.00" fill="#000000">[table]</text>
<polygon fill="none" stroke="#000000" points="288.5,-588.2 288.5,-610.2 433.5,-610.2 433.5,-588.2 288.5,-588.2"/>
<image xlink:href="../../images/primaryKeys.png" width="11px" height="12px" preserveAspectRatio="xMinYMin meet" x="293.5" y="-605.2"/>
<text text-anchor="start" x="317.5" y="-595.3" font-family="Helvetica,sans-Serif" font-size="11.00" fill="#000000">id</text>
<polygon fill="#ffffff" stroke="transparent" points="288.5,-566.2 288.5,-588.2 433.5,-588.2 433.5,-566.2 288.5,-566.2"/>
<polygon fill="none" stroke="#000000" points="288.5,-566.2 288.5,-588.2 433.5,-588.2 433.5,-566.2 288.5,-566.2"/>
<image xlink:href="../../images/foreignKeys.png" width="11px" height="12px" preserveAspectRatio="xMinYMin meet" x="293.5" y="-583.2"/>
<text text-anchor="start" x="317.5" y="-573.3" font-family="Helvetica,sans-Serif" font-size="11.00" fill="#000000">code</text>
<polygon fill="none" stroke="#000000" points="288.5,-544.2 288.5,-566.2 433.5,-566.2 433.5,-544.2 288.5,-544.2"/>
<text text-anchor="start" x="317.5" y="-551.3" font-family="Helvetica,sans-Serif" font-size="11.00" fill="#000000">name</text>
<polygon fill="none" stroke="#000000" points="288.5,-522.2 288.5,-544.2 433.5,-544.2 433.5,-522.2 288.5,-522.2"/>
<text text-anchor="start" x="317.5" y="-529.3" font-family="Helvetica,sans-Serif" font-size="11.00" fill="#000000">description</text>
<polygon fill="#ffffff" stroke="transparent" points="288.5,-503.2 288.5,-522.2 350.5,-522.2 350.5,-503.2 288.5,-503.2"/>
<polygon fill="none" stroke="#000000" points="288.5,-503.2 288.5,-522.2 350.5,-522.2 350.5,-503.2 288.5,-503.2"/>
<text text-anchor="start" x="291.5" y="-509.3" font-family="Helvetica,sans-Serif" font-size="11.00" fill="#000000"> &#160;</text>
<polygon fill="#ffffff" stroke="transparent" points="350.5,-503.2 350.5,-522.2 387.5,-522.2 387.5,-503.2 350.5,-503.2"/>
<polygon fill="none" stroke="#000000" points="350.5,-503.2 350.5,-522.2 387.5,-522.2 387.5,-503.2 350.5,-503.2"/>
<text text-anchor="start" x="378.3862" y="-509.3" font-family="Helvetica,sans-Serif" font-size="11.00" fill="#000000"> &#160;</text>
<polygon fill="#ffffff" stroke="transparent" points="387.5,-503.2 387.5,-522.2 433.5,-522.2 433.5,-503.2 387.5,-503.2"/>
<polygon fill="none" stroke="#000000" points="387.5,-503.2 387.5,-522.2 433.5,-522.2 433.5,-503.2 387.5,-503.2"/>
<text text-anchor="start" x="414.9053" y="-509.3" font-family="Helvetica,sans-Serif" font-size="11.00" fill="#000000">1 &gt;</text>
</a>
</g>
</g>
<!-- document_template_group&#45;&gt;template_group -->
<g id="edge2" class="edge">
<title>document_template_group:w&#45;&gt;template_group:e</title>
<path fill="none" stroke="#000000" d="M510.1552,-720.9419C462.7313,-704.1358 496.3852,-599.2 433.5,-599.2"/>
<polygon fill="#000000" stroke="#000000" points="516.5973,-721.9559 523.9402,-726.7562 520.5487,-722.578 524.5,-723.2 524.5,-723.2 524.5,-723.2 520.5487,-722.578 525.0598,-719.6438 516.5973,-721.9559 516.5973,-721.9559"/>
<ellipse fill="none" stroke="#000000" cx="513.4362" cy="-721.4583" rx="3.2" ry="3.2"/>
</g>
<!-- document_template_group_audit -->
<g id="node5" class="node">
<title>document_template_group_audit</title>
<g id="a_node5"><a xlink:href="../../tables/document_template_group_audit.html" xlink:title="document_template_group_audit" target="_top">
<polygon fill="#ffffff" stroke="transparent" points="503.5,-277.2 503.5,-429.2 763.5,-429.2 763.5,-277.2 503.5,-277.2"/>
<polygon fill="#f5f5f5" stroke="transparent" points="503.5,-406.2 503.5,-429.2 763.5,-429.2 763.5,-406.2 503.5,-406.2"/>
<polygon fill="none" stroke="#000000" points="503.5,-406.2 503.5,-429.2 763.5,-429.2 763.5,-406.2 503.5,-406.2"/>
<text text-anchor="start" x="508.5" y="-414.8" font-family="Helvetica,sans-Serif" font-weight="bold" font-size="11.00" fill="#000000">document_template_group_audit</text>
<text text-anchor="start" x="729.0219" y="-414.3" font-family="Helvetica,sans-Serif" font-size="11.00" fill="#000000">[table]</text>
<polygon fill="none" stroke="#000000" points="503.5,-384.2 503.5,-406.2 763.5,-406.2 763.5,-384.2 503.5,-384.2"/>
<image xlink:href="../../images/primaryKeys.png" width="11px" height="12px" preserveAspectRatio="xMinYMin meet" x="508.5" y="-401.2"/>
<text text-anchor="start" x="532.5" y="-391.3" font-family="Helvetica,sans-Serif" font-size="11.00" fill="#000000">rev_id</text>
<polygon fill="none" stroke="#000000" points="503.5,-362.2 503.5,-384.2 763.5,-384.2 763.5,-362.2 503.5,-362.2"/>
<text text-anchor="start" x="532.5" y="-369.3" font-family="Helvetica,sans-Serif" font-size="11.00" fill="#000000">rev_type</text>
<polygon fill="none" stroke="#000000" points="503.5,-340.2 503.5,-362.2 763.5,-362.2 763.5,-340.2 503.5,-340.2"/>
<image xlink:href="../../images/primaryKeys.png" width="11px" height="12px" preserveAspectRatio="xMinYMin meet" x="508.5" y="-357.2"/>
<text text-anchor="start" x="532.5" y="-347.3" font-family="Helvetica,sans-Serif" font-size="11.00" fill="#000000">id</text>
<polygon fill="#ffffff" stroke="transparent" points="503.5,-318.2 503.5,-340.2 763.5,-340.2 763.5,-318.2 503.5,-318.2"/>
<polygon fill="none" stroke="#000000" points="503.5,-318.2 503.5,-340.2 763.5,-340.2 763.5,-318.2 503.5,-318.2"/>
<text text-anchor="start" x="532.5" y="-325.3" font-family="Helvetica,sans-Serif" font-size="11.00" fill="#000000">template_id</text>
<polygon fill="#ffffff" stroke="transparent" points="503.5,-296.2 503.5,-318.2 763.5,-318.2 763.5,-296.2 503.5,-296.2"/>
<polygon fill="none" stroke="#000000" points="503.5,-296.2 503.5,-318.2 763.5,-318.2 763.5,-296.2 503.5,-296.2"/>
<text text-anchor="start" x="532.5" y="-303.3" font-family="Helvetica,sans-Serif" font-size="11.00" fill="#000000">template_group_id</text>
<polygon fill="#ffffff" stroke="transparent" points="503.5,-277.2 503.5,-296.2 631.5,-296.2 631.5,-277.2 503.5,-277.2"/>
<polygon fill="none" stroke="#000000" points="503.5,-277.2 503.5,-296.2 631.5,-296.2 631.5,-277.2 503.5,-277.2"/>
<text text-anchor="start" x="506.5" y="-283.3" font-family="Helvetica,sans-Serif" font-size="11.00" fill="#000000">&lt; 1</text>
<polygon fill="#ffffff" stroke="transparent" points="631.5,-277.2 631.5,-296.2 697.5,-296.2 697.5,-277.2 631.5,-277.2"/>
<polygon fill="none" stroke="#000000" points="631.5,-277.2 631.5,-296.2 697.5,-296.2 697.5,-277.2 631.5,-277.2"/>
<text text-anchor="start" x="688.3862" y="-283.3" font-family="Helvetica,sans-Serif" font-size="11.00" fill="#000000"> &#160;</text>
<polygon fill="#ffffff" stroke="transparent" points="697.5,-277.2 697.5,-296.2 763.5,-296.2 763.5,-277.2 697.5,-277.2"/>
<polygon fill="none" stroke="#000000" points="697.5,-277.2 697.5,-296.2 763.5,-296.2 763.5,-277.2 697.5,-277.2"/>
<text text-anchor="start" x="754.3862" y="-283.3" font-family="Helvetica,sans-Serif" font-size="11.00" fill="#000000"> &#160;</text>
</a>
</g>
</g>
<!-- document_template_group_audit&#45;&gt;audit_revision -->
<g id="edge4" class="edge">
<title>document_template_group_audit:w&#45;&gt;audit_revision:e</title>
<path fill="none" stroke="#000000" d="M489.0121,-395.2C466.3676,-395.2 455.8681,-395.2 427.5,-395.2"/>
<polygon fill="#000000" stroke="#000000" points="495.5,-395.2001 503.5,-398.8 499.5,-395.2 503.5,-395.2 503.5,-395.2 503.5,-395.2 499.5,-395.2 503.5,-391.6 495.5,-395.2001 495.5,-395.2001"/>
<ellipse fill="none" stroke="#000000" cx="492.3" cy="-395.2001" rx="3.2" ry="3.2"/>
</g>
<!-- document_template_audit -->
<g id="node8" class="node">
<title>document_template_audit</title>
<g id="a_node8"><a xlink:href="../../tables/document_template_audit.html" xlink:title="document_template_audit" target="_top">
<polygon fill="#ffffff" stroke="transparent" points="526.5,-38.2 526.5,-256.2 740.5,-256.2 740.5,-38.2 526.5,-38.2"/>
<polygon fill="#f5f5f5" stroke="transparent" points="526.5,-233.2 526.5,-256.2 740.5,-256.2 740.5,-233.2 526.5,-233.2"/>
<polygon fill="none" stroke="#000000" points="526.5,-233.2 526.5,-256.2 740.5,-256.2 740.5,-233.2 526.5,-233.2"/>
<text text-anchor="start" x="531.5" y="-241.8" font-family="Helvetica,sans-Serif" font-weight="bold" font-size="11.00" fill="#000000">document_template_audit</text>
<text text-anchor="start" x="706.0219" y="-241.3" font-family="Helvetica,sans-Serif" font-size="11.00" fill="#000000">[table]</text>
<polygon fill="none" stroke="#000000" points="526.5,-211.2 526.5,-233.2 740.5,-233.2 740.5,-211.2 526.5,-211.2"/>
<image xlink:href="../../images/primaryKeys.png" width="11px" height="12px" preserveAspectRatio="xMinYMin meet" x="531.5" y="-228.2"/>
<text text-anchor="start" x="555.5" y="-218.3" font-family="Helvetica,sans-Serif" font-size="11.00" fill="#000000">rev_id</text>
<polygon fill="none" stroke="#000000" points="526.5,-189.2 526.5,-211.2 740.5,-211.2 740.5,-189.2 526.5,-189.2"/>
<text text-anchor="start" x="555.5" y="-196.3" font-family="Helvetica,sans-Serif" font-size="11.00" fill="#000000">rev_type</text>
<polygon fill="none" stroke="#000000" points="526.5,-167.2 526.5,-189.2 740.5,-189.2 740.5,-167.2 526.5,-167.2"/>
<image xlink:href="../../images/primaryKeys.png" width="11px" height="12px" preserveAspectRatio="xMinYMin meet" x="531.5" y="-184.2"/>
<text text-anchor="start" x="555.5" y="-174.3" font-family="Helvetica,sans-Serif" font-size="11.00" fill="#000000">id</text>
<polygon fill="none" stroke="#000000" points="526.5,-145.2 526.5,-167.2 740.5,-167.2 740.5,-145.2 526.5,-145.2"/>
<image xlink:href="../../images/foreignKeys.png" width="11px" height="12px" preserveAspectRatio="xMinYMin meet" x="531.5" y="-162.2"/>
<text text-anchor="start" x="555.5" y="-152.3" font-family="Helvetica,sans-Serif" font-size="11.00" fill="#000000">code</text>
<polygon fill="none" stroke="#000000" points="526.5,-123.2 526.5,-145.2 740.5,-145.2 740.5,-123.2 526.5,-123.2"/>
<text text-anchor="start" x="555.5" y="-130.3" font-family="Helvetica,sans-Serif" font-size="11.00" fill="#000000">name</text>
<polygon fill="none" stroke="#000000" points="526.5,-101.2 526.5,-123.2 740.5,-123.2 740.5,-101.2 526.5,-101.2"/>
<text text-anchor="start" x="555.5" y="-108.3" font-family="Helvetica,sans-Serif" font-size="11.00" fill="#000000">description</text>
<polygon fill="none" stroke="#000000" points="526.5,-79.2 526.5,-101.2 740.5,-101.2 740.5,-79.2 526.5,-79.2"/>
<text text-anchor="start" x="555.5" y="-86.3" font-family="Helvetica,sans-Serif" font-size="11.00" fill="#000000">version</text>
<polygon fill="#ffffff" stroke="transparent" points="526.5,-57.2 526.5,-79.2 740.5,-79.2 740.5,-57.2 526.5,-57.2"/>
<polygon fill="none" stroke="#000000" points="526.5,-57.2 526.5,-79.2 740.5,-79.2 740.5,-57.2 526.5,-57.2"/>
<text text-anchor="start" x="555.5" y="-64.3" font-family="Helvetica,sans-Serif" font-size="11.00" fill="#000000">external_reference</text>
<polygon fill="#ffffff" stroke="transparent" points="526.5,-38.2 526.5,-57.2 631.5,-57.2 631.5,-38.2 526.5,-38.2"/>
<polygon fill="none" stroke="#000000" points="526.5,-38.2 526.5,-57.2 631.5,-57.2 631.5,-38.2 526.5,-38.2"/>
<text text-anchor="start" x="529.5" y="-44.3" font-family="Helvetica,sans-Serif" font-size="11.00" fill="#000000">&lt; 1</text>
<polygon fill="#ffffff" stroke="transparent" points="631.5,-38.2 631.5,-57.2 685.5,-57.2 685.5,-38.2 631.5,-38.2"/>
<polygon fill="none" stroke="#000000" points="631.5,-38.2 631.5,-57.2 685.5,-57.2 685.5,-38.2 631.5,-38.2"/>
<text text-anchor="start" x="676.3862" y="-44.3" font-family="Helvetica,sans-Serif" font-size="11.00" fill="#000000"> &#160;</text>
<polygon fill="#ffffff" stroke="transparent" points="685.5,-38.2 685.5,-57.2 740.5,-57.2 740.5,-38.2 685.5,-38.2"/>
<polygon fill="none" stroke="#000000" points="685.5,-38.2 685.5,-57.2 740.5,-57.2 740.5,-38.2 685.5,-38.2"/>
<text text-anchor="start" x="731.3862" y="-44.3" font-family="Helvetica,sans-Serif" font-size="11.00" fill="#000000"> &#160;</text>
</a>
</g>
</g>
<!-- document_template_audit&#45;&gt;audit_revision -->
<g id="edge1" class="edge">
<title>document_template_audit:w&#45;&gt;audit_revision:e</title>
<path fill="none" stroke="#000000" d="M512.1688,-224.0258C446.767,-242.515 510.7246,-395.2 427.5,-395.2"/>
<polygon fill="#000000" stroke="#000000" points="518.5641,-223.2111 526.955,-225.7711 522.5321,-222.7055 526.5,-222.2 526.5,-222.2 526.5,-222.2 522.5321,-222.7055 526.045,-218.6289 518.5641,-223.2111 518.5641,-223.2111"/>
<ellipse fill="none" stroke="#000000" cx="515.3898" cy="-223.6155" rx="3.2" ry="3.2"/>
</g>
<!-- document_template_variable -->
<g id="node9" class="node">
<title>document_template_variable</title>
<g id="a_node9"><a xlink:href="../../tables/document_template_variable.html" xlink:title="document_template_variable" target="_top">
<polygon fill="#ffffff" stroke="transparent" points="516.5,-879.2 516.5,-1009.2 750.5,-1009.2 750.5,-879.2 516.5,-879.2"/>
<polygon fill="#f5f5f5" stroke="transparent" points="516.5,-986.2 516.5,-1009.2 750.5,-1009.2 750.5,-986.2 516.5,-986.2"/>
<polygon fill="none" stroke="#000000" points="516.5,-986.2 516.5,-1009.2 750.5,-1009.2 750.5,-986.2 516.5,-986.2"/>
<text text-anchor="start" x="521.5" y="-994.8" font-family="Helvetica,sans-Serif" font-weight="bold" font-size="11.00" fill="#000000">document_template_variable</text>
<text text-anchor="start" x="716.0219" y="-994.3" font-family="Helvetica,sans-Serif" font-size="11.00" fill="#000000">[table]</text>
<polygon fill="none" stroke="#000000" points="516.5,-964.2 516.5,-986.2 750.5,-986.2 750.5,-964.2 516.5,-964.2"/>
<image xlink:href="../../images/primaryKeys.png" width="11px" height="12px" preserveAspectRatio="xMinYMin meet" x="521.5" y="-981.2"/>
<text text-anchor="start" x="545.5" y="-971.3" font-family="Helvetica,sans-Serif" font-size="11.00" fill="#000000">id</text>
<polygon fill="#ffffff" stroke="transparent" points="516.5,-942.2 516.5,-964.2 750.5,-964.2 750.5,-942.2 516.5,-942.2"/>
<polygon fill="none" stroke="#000000" points="516.5,-942.2 516.5,-964.2 750.5,-964.2 750.5,-942.2 516.5,-942.2"/>
<image xlink:href="../../images/foreignKeys.png" width="11px" height="12px" preserveAspectRatio="xMinYMin meet" x="521.5" y="-959.2"/>
<text text-anchor="start" x="545.5" y="-949.3" font-family="Helvetica,sans-Serif" font-size="11.00" fill="#000000">template_id</text>
<polygon fill="#ffffff" stroke="transparent" points="516.5,-920.2 516.5,-942.2 750.5,-942.2 750.5,-920.2 516.5,-920.2"/>
<polygon fill="none" stroke="#000000" points="516.5,-920.2 516.5,-942.2 750.5,-942.2 750.5,-920.2 516.5,-920.2"/>
<image xlink:href="../../images/foreignKeys.png" width="11px" height="12px" preserveAspectRatio="xMinYMin meet" x="521.5" y="-937.2"/>
<text text-anchor="start" x="545.5" y="-927.3" font-family="Helvetica,sans-Serif" font-size="11.00" fill="#000000">variable_id</text>
<polygon fill="none" stroke="#000000" points="516.5,-898.2 516.5,-920.2 750.5,-920.2 750.5,-898.2 516.5,-898.2"/>
<text text-anchor="start" x="545.5" y="-905.3" font-family="Helvetica,sans-Serif" font-size="11.00" fill="#000000">mandatory</text>
<polygon fill="#ffffff" stroke="transparent" points="516.5,-879.2 516.5,-898.2 631.5,-898.2 631.5,-879.2 516.5,-879.2"/>
<polygon fill="none" stroke="#000000" points="516.5,-879.2 516.5,-898.2 631.5,-898.2 631.5,-879.2 516.5,-879.2"/>
<text text-anchor="start" x="519.5" y="-885.3" font-family="Helvetica,sans-Serif" font-size="11.00" fill="#000000">&lt; 2</text>
<polygon fill="#ffffff" stroke="transparent" points="631.5,-879.2 631.5,-898.2 690.5,-898.2 690.5,-879.2 631.5,-879.2"/>
<polygon fill="none" stroke="#000000" points="631.5,-879.2 631.5,-898.2 690.5,-898.2 690.5,-879.2 631.5,-879.2"/>
<text text-anchor="start" x="681.3862" y="-885.3" font-family="Helvetica,sans-Serif" font-size="11.00" fill="#000000"> &#160;</text>
<polygon fill="#ffffff" stroke="transparent" points="690.5,-879.2 690.5,-898.2 750.5,-898.2 750.5,-879.2 690.5,-879.2"/>
<polygon fill="none" stroke="#000000" points="690.5,-879.2 690.5,-898.2 750.5,-898.2 750.5,-879.2 690.5,-879.2"/>
<text text-anchor="start" x="741.3862" y="-885.3" font-family="Helvetica,sans-Serif" font-size="11.00" fill="#000000"> &#160;</text>
</a>
</g>
</g>
<!-- document_template_variable&#45;&gt;template_variable -->
<g id="edge6" class="edge">
<title>document_template_variable:w&#45;&gt;template_variable:e</title>
<path fill="none" stroke="#000000" d="M502.0528,-933.9975C475.4872,-945.5832 477.3471,-989.2 440.5,-989.2"/>
<polygon fill="#000000" stroke="#000000" points="508.6459,-932.7209 517.1844,-934.7344 512.5729,-931.9604 516.5,-931.2 516.5,-931.2 516.5,-931.2 512.5729,-931.9604 515.8156,-927.6656 508.6459,-932.7209 508.6459,-932.7209"/>
<ellipse fill="none" stroke="#000000" cx="505.5042" cy="-933.3292" rx="3.2" ry="3.2"/>
</g>
<!-- document_template_variable&#45;&gt;document_template -->
<g id="edge5" class="edge">
<title>document_template_variable:w&#45;&gt;document_template:e</title>
<path fill="none" stroke="#000000" d="M502.2166,-950.829C450.9145,-931.0499 518.967,-794.2 447.5,-794.2"/>
<polygon fill="#000000" stroke="#000000" points="508.608,-951.8899 515.9104,-956.7514 512.554,-952.5449 516.5,-953.2 516.5,-953.2 516.5,-953.2 512.554,-952.5449 517.0896,-949.6486 508.608,-951.8899 508.608,-951.8899"/>
<ellipse fill="none" stroke="#000000" cx="505.4512" cy="-951.3658" rx="3.2" ry="3.2"/>
</g>
</g>
</svg>
