<?xml version="1.0" encoding="UTF-8" standalone="no"?>
<!DOCTYPE svg PUBLIC "-//W3C//DTD SVG 1.1//EN"
 "http://www.w3.org/Graphics/SVG/1.1/DTD/svg11.dtd">
<!-- Generated by graphviz version 2.40.1 (20161225.0304)
 -->
<!-- Title: compactImpliedRelationshipsDiagram Pages: 1 -->
<svg width="848pt" height="983pt"
 viewBox="0.00 0.00 848.00 983.20" xmlns="http://www.w3.org/2000/svg" xmlns:xlink="http://www.w3.org/1999/xlink">
<g id="graph0" class="graph" transform="scale(1 1) rotate(0) translate(4 979.2)">
<title>compactImpliedRelationshipsDiagram</title>
<polygon fill="#ffffff" stroke="transparent" points="-4,4 -4,-979.2 844,-979.2 844,4 -4,4"/>
<text text-anchor="middle" x="72.4936" y="-7.3" font-family="Helvetica,sans-Serif" font-size="11.00" fill="#000000">Generated by SchemaSpy</text>
<!-- document_template_variable_audit -->
<g id="node1" class="node">
<title>document_template_variable_audit</title>
<g id="a_node1"><a xlink:href="../../tables/document_template_variable_audit.html" xlink:title="document_template_variable_audit" target="_top">
<polygon fill="#ffffff" stroke="transparent" points="274,-822.2 274,-971.2 549,-971.2 549,-822.2 274,-822.2"/>
<polygon fill="#f5f5f5" stroke="transparent" points="274.5,-947.7 274.5,-970.7 549.5,-970.7 549.5,-947.7 274.5,-947.7"/>
<polygon fill="none" stroke="#000000" points="274.5,-947.7 274.5,-970.7 549.5,-970.7 549.5,-947.7 274.5,-947.7"/>
<text text-anchor="start" x="279.5" y="-956.3" font-family="Helvetica,sans-Serif" font-weight="bold" font-size="11.00" fill="#000000">document_template_variable_audit</text>
<text text-anchor="start" x="515.0219" y="-955.8" font-family="Helvetica,sans-Serif" font-size="11.00" fill="#000000">[table]</text>
<polygon fill="none" stroke="#000000" points="274.5,-925.7 274.5,-947.7 549.5,-947.7 549.5,-925.7 274.5,-925.7"/>
<image xlink:href="../../images/primaryKeys.png" width="11px" height="12px" preserveAspectRatio="xMinYMin meet" x="279.5" y="-942.7"/>
<text text-anchor="start" x="303.5" y="-932.8" font-family="Helvetica,sans-Serif" font-size="11.00" fill="#000000">rev_id</text>
<polygon fill="none" stroke="#000000" points="274.5,-903.7 274.5,-925.7 549.5,-925.7 549.5,-903.7 274.5,-903.7"/>
<image xlink:href="../../images/primaryKeys.png" width="11px" height="12px" preserveAspectRatio="xMinYMin meet" x="279.5" y="-920.7"/>
<text text-anchor="start" x="303.5" y="-910.8" font-family="Helvetica,sans-Serif" font-size="11.00" fill="#000000">id</text>
<polygon fill="#ffffff" stroke="transparent" points="274.5,-881.7 274.5,-903.7 549.5,-903.7 549.5,-881.7 274.5,-881.7"/>
<polygon fill="none" stroke="#000000" points="274.5,-881.7 274.5,-903.7 549.5,-903.7 549.5,-881.7 274.5,-881.7"/>
<text text-anchor="start" x="303.5" y="-888.8" font-family="Helvetica,sans-Serif" font-size="11.00" fill="#000000">template_id</text>
<polygon fill="#ffffff" stroke="transparent" points="274.5,-859.7 274.5,-881.7 549.5,-881.7 549.5,-859.7 274.5,-859.7"/>
<polygon fill="none" stroke="#000000" points="274.5,-859.7 274.5,-881.7 549.5,-881.7 549.5,-859.7 274.5,-859.7"/>
<text text-anchor="start" x="303.5" y="-866.8" font-family="Helvetica,sans-Serif" font-size="11.00" fill="#000000">variable_id</text>
<polygon fill="none" stroke="#000000" points="274.5,-840.7 274.5,-859.7 549.5,-859.7 549.5,-840.7 274.5,-840.7"/>
<text text-anchor="start" x="277.5" y="-846.8" font-family="Helvetica,sans-Serif" font-size="11.00" fill="#000000">...</text>
<polygon fill="#ffffff" stroke="transparent" points="274.5,-821.7 274.5,-840.7 410.5,-840.7 410.5,-821.7 274.5,-821.7"/>
<polygon fill="none" stroke="#000000" points="274.5,-821.7 274.5,-840.7 410.5,-840.7 410.5,-821.7 274.5,-821.7"/>
<text text-anchor="start" x="277.5" y="-827.8" font-family="Helvetica,sans-Serif" font-size="11.00" fill="#000000">&lt; 1</text>
<polygon fill="#ffffff" stroke="transparent" points="410.5,-821.7 410.5,-840.7 479.5,-840.7 479.5,-821.7 410.5,-821.7"/>
<polygon fill="none" stroke="#000000" points="410.5,-821.7 410.5,-840.7 479.5,-840.7 479.5,-821.7 410.5,-821.7"/>
<text text-anchor="start" x="470.3862" y="-827.8" font-family="Helvetica,sans-Serif" font-size="11.00" fill="#000000"> &#160;</text>
<polygon fill="#ffffff" stroke="transparent" points="479.5,-821.7 479.5,-840.7 549.5,-840.7 549.5,-821.7 479.5,-821.7"/>
<polygon fill="none" stroke="#000000" points="479.5,-821.7 479.5,-840.7 549.5,-840.7 549.5,-821.7 479.5,-821.7"/>
<text text-anchor="start" x="540.3862" y="-827.8" font-family="Helvetica,sans-Serif" font-size="11.00" fill="#000000"> &#160;</text>
</a>
</g>
</g>
<!-- audit_revision -->
<g id="node7" class="node">
<title>audit_revision</title>
<g id="a_node7"><a xlink:href="../../tables/audit_revision.html" xlink:title="audit_revision" target="_top">
<polygon fill="#ffffff" stroke="transparent" points="49.5,-718.2 49.5,-801.2 183.5,-801.2 183.5,-718.2 49.5,-718.2"/>
<polygon fill="#f5f5f5" stroke="transparent" points="49.5,-777.7 49.5,-800.7 183.5,-800.7 183.5,-777.7 49.5,-777.7"/>
<polygon fill="none" stroke="#000000" points="49.5,-777.7 49.5,-800.7 183.5,-800.7 183.5,-777.7 49.5,-777.7"/>
<text text-anchor="start" x="54.5" y="-786.3" font-family="Helvetica,sans-Serif" font-weight="bold" font-size="11.00" fill="#000000">audit_revision</text>
<text text-anchor="start" x="149.0219" y="-785.8" font-family="Helvetica,sans-Serif" font-size="11.00" fill="#000000">[table]</text>
<polygon fill="none" stroke="#000000" points="49.5,-755.7 49.5,-777.7 183.5,-777.7 183.5,-755.7 49.5,-755.7"/>
<image xlink:href="../../images/primaryKeys.png" width="11px" height="12px" preserveAspectRatio="xMinYMin meet" x="54.5" y="-772.7"/>
<text text-anchor="start" x="78.5" y="-762.8" font-family="Helvetica,sans-Serif" font-size="11.00" fill="#000000">id</text>
<polygon fill="none" stroke="#000000" points="49.5,-736.7 49.5,-755.7 183.5,-755.7 183.5,-736.7 49.5,-736.7"/>
<text text-anchor="start" x="52.5" y="-742.8" font-family="Helvetica,sans-Serif" font-size="11.00" fill="#000000">...</text>
<polygon fill="#ffffff" stroke="transparent" points="49.5,-717.7 49.5,-736.7 105.5,-736.7 105.5,-717.7 49.5,-717.7"/>
<polygon fill="none" stroke="#000000" points="49.5,-717.7 49.5,-736.7 105.5,-736.7 105.5,-717.7 49.5,-717.7"/>
<text text-anchor="start" x="52.5" y="-723.8" font-family="Helvetica,sans-Serif" font-size="11.00" fill="#000000"> &#160;</text>
<polygon fill="#ffffff" stroke="transparent" points="105.5,-717.7 105.5,-736.7 139.5,-736.7 139.5,-717.7 105.5,-717.7"/>
<polygon fill="none" stroke="#000000" points="105.5,-717.7 105.5,-736.7 139.5,-736.7 139.5,-717.7 105.5,-717.7"/>
<text text-anchor="start" x="130.3862" y="-723.8" font-family="Helvetica,sans-Serif" font-size="11.00" fill="#000000"> &#160;</text>
<polygon fill="#ffffff" stroke="transparent" points="139.5,-717.7 139.5,-736.7 183.5,-736.7 183.5,-717.7 139.5,-717.7"/>
<polygon fill="none" stroke="#000000" points="139.5,-717.7 139.5,-736.7 183.5,-736.7 183.5,-717.7 139.5,-717.7"/>
<text text-anchor="start" x="164.9053" y="-723.8" font-family="Helvetica,sans-Serif" font-size="11.00" fill="#000000">3 &gt;</text>
</a>
</g>
</g>
<!-- document_template_variable_audit&#45;&gt;audit_revision -->
<g id="edge9" class="edge">
<title>document_template_variable_audit:w&#45;&gt;audit_revision:e</title>
<path fill="none" stroke="#000000" d="M259.9103,-934.6724C198.4745,-915.4922 263.6758,-766.7 183.5,-766.7"/>
<polygon fill="#000000" stroke="#000000" points="266.5762,-935.5987 274.0044,-940.2657 270.5381,-936.1494 274.5,-936.7 274.5,-936.7 274.5,-936.7 270.5381,-936.1494 274.9956,-933.1343 266.5762,-935.5987 266.5762,-935.5987"/>
<ellipse fill="none" stroke="#000000" cx="263.4066" cy="-935.1582" rx="3.2" ry="3.2"/>
</g>
<!-- template_variable -->
<g id="node2" class="node">
<title>template_variable</title>
<g id="a_node2"><a xlink:href="../../tables/template_variable.html" xlink:title="template_variable" target="_top">
<polygon fill="#ffffff" stroke="transparent" points="331.5,-312.2 331.5,-461.2 491.5,-461.2 491.5,-312.2 331.5,-312.2"/>
<polygon fill="#f5f5f5" stroke="transparent" points="331.5,-437.7 331.5,-460.7 491.5,-460.7 491.5,-437.7 331.5,-437.7"/>
<polygon fill="none" stroke="#000000" points="331.5,-437.7 331.5,-460.7 491.5,-460.7 491.5,-437.7 331.5,-437.7"/>
<text text-anchor="start" x="336.5" y="-446.3" font-family="Helvetica,sans-Serif" font-weight="bold" font-size="11.00" fill="#000000">template_variable</text>
<text text-anchor="start" x="457.0219" y="-445.8" font-family="Helvetica,sans-Serif" font-size="11.00" fill="#000000">[table]</text>
<polygon fill="none" stroke="#000000" points="331.5,-415.7 331.5,-437.7 491.5,-437.7 491.5,-415.7 331.5,-415.7"/>
<image xlink:href="../../images/primaryKeys.png" width="11px" height="12px" preserveAspectRatio="xMinYMin meet" x="336.5" y="-432.7"/>
<text text-anchor="start" x="360.5" y="-422.8" font-family="Helvetica,sans-Serif" font-size="11.00" fill="#000000">id</text>
<polygon fill="#ffffff" stroke="transparent" points="331.5,-393.7 331.5,-415.7 491.5,-415.7 491.5,-393.7 331.5,-393.7"/>
<polygon fill="none" stroke="#000000" points="331.5,-393.7 331.5,-415.7 491.5,-415.7 491.5,-393.7 331.5,-393.7"/>
<image xlink:href="../../images/foreignKeys.png" width="11px" height="12px" preserveAspectRatio="xMinYMin meet" x="336.5" y="-410.7"/>
<text text-anchor="start" x="360.5" y="-400.8" font-family="Helvetica,sans-Serif" font-size="11.00" fill="#000000">domain</text>
<polygon fill="#ffffff" stroke="transparent" points="331.5,-371.7 331.5,-393.7 491.5,-393.7 491.5,-371.7 331.5,-371.7"/>
<polygon fill="none" stroke="#000000" points="331.5,-371.7 331.5,-393.7 491.5,-393.7 491.5,-371.7 331.5,-371.7"/>
<image xlink:href="../../images/foreignKeys.png" width="11px" height="12px" preserveAspectRatio="xMinYMin meet" x="336.5" y="-388.7"/>
<text text-anchor="start" x="360.5" y="-378.8" font-family="Helvetica,sans-Serif" font-size="11.00" fill="#000000">code</text>
<polygon fill="#ffffff" stroke="transparent" points="331.5,-349.7 331.5,-371.7 491.5,-371.7 491.5,-349.7 331.5,-349.7"/>
<polygon fill="none" stroke="#000000" points="331.5,-349.7 331.5,-371.7 491.5,-371.7 491.5,-349.7 331.5,-349.7"/>
<text text-anchor="start" x="360.5" y="-356.8" font-family="Helvetica,sans-Serif" font-size="11.00" fill="#000000">sequence_number</text>
<polygon fill="none" stroke="#000000" points="331.5,-330.7 331.5,-349.7 491.5,-349.7 491.5,-330.7 331.5,-330.7"/>
<text text-anchor="start" x="334.5" y="-336.8" font-family="Helvetica,sans-Serif" font-size="11.00" fill="#000000">...</text>
<polygon fill="#ffffff" stroke="transparent" points="331.5,-311.7 331.5,-330.7 405.5,-330.7 405.5,-311.7 331.5,-311.7"/>
<polygon fill="none" stroke="#000000" points="331.5,-311.7 331.5,-330.7 405.5,-330.7 405.5,-311.7 331.5,-311.7"/>
<text text-anchor="start" x="334.5" y="-317.8" font-family="Helvetica,sans-Serif" font-size="11.00" fill="#000000">&lt; 1</text>
<polygon fill="#ffffff" stroke="transparent" points="405.5,-311.7 405.5,-330.7 443.5,-330.7 443.5,-311.7 405.5,-311.7"/>
<polygon fill="none" stroke="#000000" points="405.5,-311.7 405.5,-330.7 443.5,-330.7 443.5,-311.7 405.5,-311.7"/>
<text text-anchor="start" x="434.3862" y="-317.8" font-family="Helvetica,sans-Serif" font-size="11.00" fill="#000000"> &#160;</text>
<polygon fill="#ffffff" stroke="transparent" points="443.5,-311.7 443.5,-330.7 491.5,-330.7 491.5,-311.7 443.5,-311.7"/>
<polygon fill="none" stroke="#000000" points="443.5,-311.7 443.5,-330.7 491.5,-330.7 491.5,-311.7 443.5,-311.7"/>
<text text-anchor="start" x="472.9053" y="-317.8" font-family="Helvetica,sans-Serif" font-size="11.00" fill="#000000">1 &gt;</text>
</a>
</g>
</g>
<!-- template_variable_domain -->
<g id="node10" class="node">
<title>template_variable_domain</title>
<g id="a_node10"><a xlink:href="../../tables/template_variable_domain.html" xlink:title="template_variable_domain" target="_top">
<polygon fill="#ffffff" stroke="transparent" points="8,-312.2 8,-417.2 225,-417.2 225,-312.2 8,-312.2"/>
<polygon fill="#f5f5f5" stroke="transparent" points="8.5,-393.7 8.5,-416.7 225.5,-416.7 225.5,-393.7 8.5,-393.7"/>
<polygon fill="none" stroke="#000000" points="8.5,-393.7 8.5,-416.7 225.5,-416.7 225.5,-393.7 8.5,-393.7"/>
<text text-anchor="start" x="13.5" y="-402.3" font-family="Helvetica,sans-Serif" font-weight="bold" font-size="11.00" fill="#000000">template_variable_domain</text>
<text text-anchor="start" x="191.0219" y="-401.8" font-family="Helvetica,sans-Serif" font-size="11.00" fill="#000000">[table]</text>
<polygon fill="none" stroke="#000000" points="8.5,-371.7 8.5,-393.7 225.5,-393.7 225.5,-371.7 8.5,-371.7"/>
<image xlink:href="../../images/primaryKeys.png" width="11px" height="12px" preserveAspectRatio="xMinYMin meet" x="13.5" y="-388.7"/>
<text text-anchor="start" x="37.5" y="-378.8" font-family="Helvetica,sans-Serif" font-size="11.00" fill="#000000">code</text>
<polygon fill="#ffffff" stroke="transparent" points="8.5,-349.7 8.5,-371.7 225.5,-371.7 225.5,-349.7 8.5,-349.7"/>
<polygon fill="none" stroke="#000000" points="8.5,-349.7 8.5,-371.7 225.5,-371.7 225.5,-349.7 8.5,-349.7"/>
<text text-anchor="start" x="37.5" y="-356.8" font-family="Helvetica,sans-Serif" font-size="11.00" fill="#000000">sequence_number</text>
<polygon fill="none" stroke="#000000" points="8.5,-330.7 8.5,-349.7 225.5,-349.7 225.5,-330.7 8.5,-330.7"/>
<text text-anchor="start" x="11.5" y="-336.8" font-family="Helvetica,sans-Serif" font-size="11.00" fill="#000000">...</text>
<polygon fill="#ffffff" stroke="transparent" points="8.5,-311.7 8.5,-330.7 106.5,-330.7 106.5,-311.7 8.5,-311.7"/>
<polygon fill="none" stroke="#000000" points="8.5,-311.7 8.5,-330.7 106.5,-330.7 106.5,-311.7 8.5,-311.7"/>
<text text-anchor="start" x="11.5" y="-317.8" font-family="Helvetica,sans-Serif" font-size="11.00" fill="#000000"> &#160;</text>
<polygon fill="#ffffff" stroke="transparent" points="106.5,-311.7 106.5,-330.7 161.5,-330.7 161.5,-311.7 106.5,-311.7"/>
<polygon fill="none" stroke="#000000" points="106.5,-311.7 106.5,-330.7 161.5,-330.7 161.5,-311.7 106.5,-311.7"/>
<text text-anchor="start" x="152.3862" y="-317.8" font-family="Helvetica,sans-Serif" font-size="11.00" fill="#000000"> &#160;</text>
<polygon fill="#ffffff" stroke="transparent" points="161.5,-311.7 161.5,-330.7 225.5,-330.7 225.5,-311.7 161.5,-311.7"/>
<polygon fill="none" stroke="#000000" points="161.5,-311.7 161.5,-330.7 225.5,-330.7 225.5,-311.7 161.5,-311.7"/>
<text text-anchor="start" x="206.9053" y="-317.8" font-family="Helvetica,sans-Serif" font-size="11.00" fill="#000000">1 &gt;</text>
</a>
</g>
</g>
<!-- template_variable&#45;&gt;template_variable_domain -->
<g id="edge11" class="edge">
<title>template_variable:w&#45;&gt;template_variable_domain:e</title>
<path fill="none" stroke="#000000" stroke-dasharray="5,2" d="M321.0716,-382.7C282.333,-382.7 268.9306,-382.7 225.5,-382.7"/>
<polygon fill="#000000" stroke="#000000" points="330.7,-378.7 330.7,-386.7 329.1,-386.7 329.1,-378.7 330.7,-378.7"/>
<polyline fill="none" stroke="#000000" points="331.5,-382.7 327.5,-382.7 "/>
<ellipse fill="none" stroke="#000000" cx="324.3" cy="-382.7001" rx="3.2" ry="3.2"/>
</g>
<!-- template_variable&#45;&gt;template_variable_domain -->
<g id="edge12" class="edge">
<title>template_variable:w&#45;&gt;template_variable_domain:e</title>
<path fill="none" stroke="#000000" d="M316.9881,-403.968C280.789,-400.1507 268.3525,-382.7 225.5,-382.7"/>
<polygon fill="#000000" stroke="#000000" points="323.5102,-404.2969 331.3186,-408.2954 327.5051,-404.4985 331.5,-404.7 331.5,-404.7 331.5,-404.7 327.5051,-404.4985 331.6814,-401.1046 323.5102,-404.2969 323.5102,-404.2969"/>
<ellipse fill="none" stroke="#000000" cx="320.3142" cy="-404.1357" rx="3.2" ry="3.2"/>
</g>
<!-- document_template -->
<g id="node3" class="node">
<title>document_template</title>
<g id="a_node3"><a xlink:href="../../tables/document_template.html" xlink:title="document_template" target="_top">
<polygon fill="#ffffff" stroke="transparent" points="325,-164.2 325,-291.2 498,-291.2 498,-164.2 325,-164.2"/>
<polygon fill="#f5f5f5" stroke="transparent" points="325.5,-267.7 325.5,-290.7 498.5,-290.7 498.5,-267.7 325.5,-267.7"/>
<polygon fill="none" stroke="#000000" points="325.5,-267.7 325.5,-290.7 498.5,-290.7 498.5,-267.7 325.5,-267.7"/>
<text text-anchor="start" x="330.5" y="-276.3" font-family="Helvetica,sans-Serif" font-weight="bold" font-size="11.00" fill="#000000">document_template</text>
<text text-anchor="start" x="464.0219" y="-275.8" font-family="Helvetica,sans-Serif" font-size="11.00" fill="#000000">[table]</text>
<polygon fill="none" stroke="#000000" points="325.5,-245.7 325.5,-267.7 498.5,-267.7 498.5,-245.7 325.5,-245.7"/>
<image xlink:href="../../images/primaryKeys.png" width="11px" height="12px" preserveAspectRatio="xMinYMin meet" x="330.5" y="-262.7"/>
<text text-anchor="start" x="354.5" y="-252.8" font-family="Helvetica,sans-Serif" font-size="11.00" fill="#000000">id</text>
<polygon fill="#ffffff" stroke="transparent" points="325.5,-223.7 325.5,-245.7 498.5,-245.7 498.5,-223.7 325.5,-223.7"/>
<polygon fill="none" stroke="#000000" points="325.5,-223.7 325.5,-245.7 498.5,-245.7 498.5,-223.7 325.5,-223.7"/>
<image xlink:href="../../images/foreignKeys.png" width="11px" height="12px" preserveAspectRatio="xMinYMin meet" x="330.5" y="-240.7"/>
<text text-anchor="start" x="354.5" y="-230.8" font-family="Helvetica,sans-Serif" font-size="11.00" fill="#000000">code</text>
<polygon fill="#ffffff" stroke="transparent" points="325.5,-201.7 325.5,-223.7 498.5,-223.7 498.5,-201.7 325.5,-201.7"/>
<polygon fill="none" stroke="#000000" points="325.5,-201.7 325.5,-223.7 498.5,-223.7 498.5,-201.7 325.5,-201.7"/>
<text text-anchor="start" x="354.5" y="-208.8" font-family="Helvetica,sans-Serif" font-size="11.00" fill="#000000">external_reference</text>
<polygon fill="none" stroke="#000000" points="325.5,-182.7 325.5,-201.7 498.5,-201.7 498.5,-182.7 325.5,-182.7"/>
<text text-anchor="start" x="328.5" y="-188.8" font-family="Helvetica,sans-Serif" font-size="11.00" fill="#000000">...</text>
<polygon fill="#ffffff" stroke="transparent" points="325.5,-163.7 325.5,-182.7 401.5,-182.7 401.5,-163.7 325.5,-163.7"/>
<polygon fill="none" stroke="#000000" points="325.5,-163.7 325.5,-182.7 401.5,-182.7 401.5,-163.7 325.5,-163.7"/>
<text text-anchor="start" x="328.5" y="-169.8" font-family="Helvetica,sans-Serif" font-size="11.00" fill="#000000"> &#160;</text>
<polygon fill="#ffffff" stroke="transparent" points="401.5,-163.7 401.5,-182.7 445.5,-182.7 445.5,-163.7 401.5,-163.7"/>
<polygon fill="none" stroke="#000000" points="401.5,-163.7 401.5,-182.7 445.5,-182.7 445.5,-163.7 401.5,-163.7"/>
<text text-anchor="start" x="436.3862" y="-169.8" font-family="Helvetica,sans-Serif" font-size="11.00" fill="#000000"> &#160;</text>
<polygon fill="#ffffff" stroke="transparent" points="445.5,-163.7 445.5,-182.7 498.5,-182.7 498.5,-163.7 445.5,-163.7"/>
<polygon fill="none" stroke="#000000" points="445.5,-163.7 445.5,-182.7 498.5,-182.7 498.5,-163.7 445.5,-163.7"/>
<text text-anchor="start" x="479.9053" y="-169.8" font-family="Helvetica,sans-Serif" font-size="11.00" fill="#000000">2 &gt;</text>
</a>
</g>
</g>
<!-- document_template&#45;&gt;template_variable_domain -->
<g id="edge1" class="edge">
<title>document_template:w&#45;&gt;template_variable_domain:e</title>
<path fill="none" stroke="#000000" stroke-dasharray="5,2" d="M314.9848,-235.6406C285.9535,-241.3341 286.1397,-271.9381 266,-301.7 243.4428,-335.0343 265.7492,-382.7 225.5,-382.7"/>
<polygon fill="#000000" stroke="#000000" points="324.3468,-230.7872 325.0596,-238.7554 323.466,-238.8979 322.7531,-230.9298 324.3468,-230.7872"/>
<polyline fill="none" stroke="#000000" points="325.5,-234.7 321.5159,-235.0564 "/>
<ellipse fill="none" stroke="#000000" cx="318.3286" cy="-235.3415" rx="3.2" ry="3.2"/>
</g>
<!-- document_template_group -->
<g id="node4" class="node">
<title>document_template_group</title>
<g id="a_node4"><a xlink:href="../../tables/document_template_group.html" xlink:title="document_template_group" target="_top">
<polygon fill="#ffffff" stroke="transparent" points="605.5,-141.7 605.5,-249.7 824.5,-249.7 824.5,-141.7 605.5,-141.7"/>
<polygon fill="#f5f5f5" stroke="transparent" points="606,-226.7 606,-249.7 825,-249.7 825,-226.7 606,-226.7"/>
<polygon fill="none" stroke="#000000" points="606,-226.7 606,-249.7 825,-249.7 825,-226.7 606,-226.7"/>
<text text-anchor="start" x="611" y="-235.3" font-family="Helvetica,sans-Serif" font-weight="bold" font-size="11.00" fill="#000000">document_template_group</text>
<text text-anchor="start" x="790.5219" y="-234.8" font-family="Helvetica,sans-Serif" font-size="11.00" fill="#000000">[table]</text>
<polygon fill="none" stroke="#000000" points="606,-204.7 606,-226.7 825,-226.7 825,-204.7 606,-204.7"/>
<image xlink:href="../../images/primaryKeys.png" width="11px" height="12px" preserveAspectRatio="xMinYMin meet" x="611" y="-221.7"/>
<text text-anchor="start" x="635" y="-211.8" font-family="Helvetica,sans-Serif" font-size="11.00" fill="#000000">id</text>
<polygon fill="#ffffff" stroke="transparent" points="606,-182.7 606,-204.7 825,-204.7 825,-182.7 606,-182.7"/>
<polygon fill="none" stroke="#000000" points="606,-182.7 606,-204.7 825,-204.7 825,-182.7 606,-182.7"/>
<image xlink:href="../../images/foreignKeys.png" width="11px" height="12px" preserveAspectRatio="xMinYMin meet" x="611" y="-199.7"/>
<text text-anchor="start" x="635" y="-189.8" font-family="Helvetica,sans-Serif" font-size="11.00" fill="#000000">template_id</text>
<polygon fill="#ffffff" stroke="transparent" points="606,-160.7 606,-182.7 825,-182.7 825,-160.7 606,-160.7"/>
<polygon fill="none" stroke="#000000" points="606,-160.7 606,-182.7 825,-182.7 825,-160.7 606,-160.7"/>
<image xlink:href="../../images/foreignKeys.png" width="11px" height="12px" preserveAspectRatio="xMinYMin meet" x="611" y="-177.7"/>
<text text-anchor="start" x="635" y="-167.8" font-family="Helvetica,sans-Serif" font-size="11.00" fill="#000000">template_group_id</text>
<polygon fill="#ffffff" stroke="transparent" points="606,-141.7 606,-160.7 714,-160.7 714,-141.7 606,-141.7"/>
<polygon fill="none" stroke="#000000" points="606,-141.7 606,-160.7 714,-160.7 714,-141.7 606,-141.7"/>
<text text-anchor="start" x="609" y="-147.8" font-family="Helvetica,sans-Serif" font-size="11.00" fill="#000000">&lt; 2</text>
<polygon fill="#ffffff" stroke="transparent" points="714,-141.7 714,-160.7 769,-160.7 769,-141.7 714,-141.7"/>
<polygon fill="none" stroke="#000000" points="714,-141.7 714,-160.7 769,-160.7 769,-141.7 714,-141.7"/>
<text text-anchor="start" x="759.8862" y="-147.8" font-family="Helvetica,sans-Serif" font-size="11.00" fill="#000000"> &#160;</text>
<polygon fill="#ffffff" stroke="transparent" points="769,-141.7 769,-160.7 825,-160.7 825,-141.7 769,-141.7"/>
<polygon fill="none" stroke="#000000" points="769,-141.7 769,-160.7 825,-160.7 825,-141.7 769,-141.7"/>
<text text-anchor="start" x="815.8862" y="-147.8" font-family="Helvetica,sans-Serif" font-size="11.00" fill="#000000"> &#160;</text>
</a>
</g>
</g>
<!-- document_template_group&#45;&gt;document_template -->
<g id="edge5" class="edge">
<title>document_template_group:w&#45;&gt;document_template:e</title>
<path fill="none" stroke="#000000" d="M591.6088,-195.3206C550.7082,-205.1816 548.5781,-256.7 498.5,-256.7"/>
<polygon fill="#000000" stroke="#000000" points="598.0502,-194.5953 606.4029,-197.2774 602.0251,-194.1476 606,-193.7 606,-193.7 606,-193.7 602.0251,-194.1476 605.5971,-190.1226 598.0502,-194.5953 598.0502,-194.5953"/>
<ellipse fill="none" stroke="#000000" cx="594.8703" cy="-194.9534" rx="3.2" ry="3.2"/>
</g>
<!-- template_group -->
<g id="node6" class="node">
<title>template_group</title>
<g id="a_node6"><a xlink:href="../../tables/template_group.html" xlink:title="template_group" target="_top">
<polygon fill="#ffffff" stroke="transparent" points="339,-38.2 339,-143.2 484,-143.2 484,-38.2 339,-38.2"/>
<polygon fill="#f5f5f5" stroke="transparent" points="339.5,-119.7 339.5,-142.7 484.5,-142.7 484.5,-119.7 339.5,-119.7"/>
<polygon fill="none" stroke="#000000" points="339.5,-119.7 339.5,-142.7 484.5,-142.7 484.5,-119.7 339.5,-119.7"/>
<text text-anchor="start" x="344.5" y="-128.3" font-family="Helvetica,sans-Serif" font-weight="bold" font-size="11.00" fill="#000000">template_group</text>
<text text-anchor="start" x="450.0219" y="-127.8" font-family="Helvetica,sans-Serif" font-size="11.00" fill="#000000">[table]</text>
<polygon fill="none" stroke="#000000" points="339.5,-97.7 339.5,-119.7 484.5,-119.7 484.5,-97.7 339.5,-97.7"/>
<image xlink:href="../../images/primaryKeys.png" width="11px" height="12px" preserveAspectRatio="xMinYMin meet" x="344.5" y="-114.7"/>
<text text-anchor="start" x="368.5" y="-104.8" font-family="Helvetica,sans-Serif" font-size="11.00" fill="#000000">id</text>
<polygon fill="#ffffff" stroke="transparent" points="339.5,-75.7 339.5,-97.7 484.5,-97.7 484.5,-75.7 339.5,-75.7"/>
<polygon fill="none" stroke="#000000" points="339.5,-75.7 339.5,-97.7 484.5,-97.7 484.5,-75.7 339.5,-75.7"/>
<image xlink:href="../../images/foreignKeys.png" width="11px" height="12px" preserveAspectRatio="xMinYMin meet" x="344.5" y="-92.7"/>
<text text-anchor="start" x="368.5" y="-82.8" font-family="Helvetica,sans-Serif" font-size="11.00" fill="#000000">code</text>
<polygon fill="none" stroke="#000000" points="339.5,-56.7 339.5,-75.7 484.5,-75.7 484.5,-56.7 339.5,-56.7"/>
<text text-anchor="start" x="342.5" y="-62.8" font-family="Helvetica,sans-Serif" font-size="11.00" fill="#000000">...</text>
<polygon fill="#ffffff" stroke="transparent" points="339.5,-37.7 339.5,-56.7 401.5,-56.7 401.5,-37.7 339.5,-37.7"/>
<polygon fill="none" stroke="#000000" points="339.5,-37.7 339.5,-56.7 401.5,-56.7 401.5,-37.7 339.5,-37.7"/>
<text text-anchor="start" x="342.5" y="-43.8" font-family="Helvetica,sans-Serif" font-size="11.00" fill="#000000"> &#160;</text>
<polygon fill="#ffffff" stroke="transparent" points="401.5,-37.7 401.5,-56.7 438.5,-56.7 438.5,-37.7 401.5,-37.7"/>
<polygon fill="none" stroke="#000000" points="401.5,-37.7 401.5,-56.7 438.5,-56.7 438.5,-37.7 401.5,-37.7"/>
<text text-anchor="start" x="429.3862" y="-43.8" font-family="Helvetica,sans-Serif" font-size="11.00" fill="#000000"> &#160;</text>
<polygon fill="#ffffff" stroke="transparent" points="438.5,-37.7 438.5,-56.7 484.5,-56.7 484.5,-37.7 438.5,-37.7"/>
<polygon fill="none" stroke="#000000" points="438.5,-37.7 438.5,-56.7 484.5,-56.7 484.5,-37.7 438.5,-37.7"/>
<text text-anchor="start" x="465.9053" y="-43.8" font-family="Helvetica,sans-Serif" font-size="11.00" fill="#000000">1 &gt;</text>
</a>
</g>
</g>
<!-- document_template_group&#45;&gt;template_group -->
<g id="edge4" class="edge">
<title>document_template_group:w&#45;&gt;template_group:e</title>
<path fill="none" stroke="#000000" d="M591.5916,-170.3842C544.7487,-161.3371 540.1003,-108.7 484.5,-108.7"/>
<polygon fill="#000000" stroke="#000000" points="598.0332,-170.9724 605.6726,-175.2851 602.0166,-171.3362 606,-171.7 606,-171.7 606,-171.7 602.0166,-171.3362 606.3274,-168.1149 598.0332,-170.9724 598.0332,-170.9724"/>
<ellipse fill="none" stroke="#000000" cx="594.8464" cy="-170.6813" rx="3.2" ry="3.2"/>
</g>
<!-- document_template_group_audit -->
<g id="node5" class="node">
<title>document_template_group_audit</title>
<g id="a_node5"><a xlink:href="../../tables/document_template_group_audit.html" xlink:title="document_template_group_audit" target="_top">
<polygon fill="#ffffff" stroke="transparent" points="281.5,-652.2 281.5,-801.2 541.5,-801.2 541.5,-652.2 281.5,-652.2"/>
<polygon fill="#f5f5f5" stroke="transparent" points="281.5,-777.7 281.5,-800.7 541.5,-800.7 541.5,-777.7 281.5,-777.7"/>
<polygon fill="none" stroke="#000000" points="281.5,-777.7 281.5,-800.7 541.5,-800.7 541.5,-777.7 281.5,-777.7"/>
<text text-anchor="start" x="286.5" y="-786.3" font-family="Helvetica,sans-Serif" font-weight="bold" font-size="11.00" fill="#000000">document_template_group_audit</text>
<text text-anchor="start" x="507.0219" y="-785.8" font-family="Helvetica,sans-Serif" font-size="11.00" fill="#000000">[table]</text>
<polygon fill="none" stroke="#000000" points="281.5,-755.7 281.5,-777.7 541.5,-777.7 541.5,-755.7 281.5,-755.7"/>
<image xlink:href="../../images/primaryKeys.png" width="11px" height="12px" preserveAspectRatio="xMinYMin meet" x="286.5" y="-772.7"/>
<text text-anchor="start" x="310.5" y="-762.8" font-family="Helvetica,sans-Serif" font-size="11.00" fill="#000000">rev_id</text>
<polygon fill="none" stroke="#000000" points="281.5,-733.7 281.5,-755.7 541.5,-755.7 541.5,-733.7 281.5,-733.7"/>
<image xlink:href="../../images/primaryKeys.png" width="11px" height="12px" preserveAspectRatio="xMinYMin meet" x="286.5" y="-750.7"/>
<text text-anchor="start" x="310.5" y="-740.8" font-family="Helvetica,sans-Serif" font-size="11.00" fill="#000000">id</text>
<polygon fill="#ffffff" stroke="transparent" points="281.5,-711.7 281.5,-733.7 541.5,-733.7 541.5,-711.7 281.5,-711.7"/>
<polygon fill="none" stroke="#000000" points="281.5,-711.7 281.5,-733.7 541.5,-733.7 541.5,-711.7 281.5,-711.7"/>
<text text-anchor="start" x="310.5" y="-718.8" font-family="Helvetica,sans-Serif" font-size="11.00" fill="#000000">template_id</text>
<polygon fill="#ffffff" stroke="transparent" points="281.5,-689.7 281.5,-711.7 541.5,-711.7 541.5,-689.7 281.5,-689.7"/>
<polygon fill="none" stroke="#000000" points="281.5,-689.7 281.5,-711.7 541.5,-711.7 541.5,-689.7 281.5,-689.7"/>
<text text-anchor="start" x="310.5" y="-696.8" font-family="Helvetica,sans-Serif" font-size="11.00" fill="#000000">template_group_id</text>
<polygon fill="none" stroke="#000000" points="281.5,-670.7 281.5,-689.7 541.5,-689.7 541.5,-670.7 281.5,-670.7"/>
<text text-anchor="start" x="284.5" y="-676.8" font-family="Helvetica,sans-Serif" font-size="11.00" fill="#000000">...</text>
<polygon fill="#ffffff" stroke="transparent" points="281.5,-651.7 281.5,-670.7 409.5,-670.7 409.5,-651.7 281.5,-651.7"/>
<polygon fill="none" stroke="#000000" points="281.5,-651.7 281.5,-670.7 409.5,-670.7 409.5,-651.7 281.5,-651.7"/>
<text text-anchor="start" x="284.5" y="-657.8" font-family="Helvetica,sans-Serif" font-size="11.00" fill="#000000">&lt; 1</text>
<polygon fill="#ffffff" stroke="transparent" points="409.5,-651.7 409.5,-670.7 475.5,-670.7 475.5,-651.7 409.5,-651.7"/>
<polygon fill="none" stroke="#000000" points="409.5,-651.7 409.5,-670.7 475.5,-670.7 475.5,-651.7 409.5,-651.7"/>
<text text-anchor="start" x="466.3862" y="-657.8" font-family="Helvetica,sans-Serif" font-size="11.00" fill="#000000"> &#160;</text>
<polygon fill="#ffffff" stroke="transparent" points="475.5,-651.7 475.5,-670.7 541.5,-670.7 541.5,-651.7 475.5,-651.7"/>
<polygon fill="none" stroke="#000000" points="475.5,-651.7 475.5,-670.7 541.5,-670.7 541.5,-651.7 475.5,-651.7"/>
<text text-anchor="start" x="532.3862" y="-657.8" font-family="Helvetica,sans-Serif" font-size="11.00" fill="#000000"> &#160;</text>
</a>
</g>
</g>
<!-- document_template_group_audit&#45;&gt;audit_revision -->
<g id="edge6" class="edge">
<title>document_template_group_audit:w&#45;&gt;audit_revision:e</title>
<path fill="none" stroke="#000000" d="M266.9981,-766.7C234.8283,-766.7 221.7813,-766.7 183.5,-766.7"/>
<polygon fill="#000000" stroke="#000000" points="273.5,-766.7001 281.5,-770.3 277.5,-766.7 281.5,-766.7 281.5,-766.7 281.5,-766.7 277.5,-766.7 281.5,-763.1 273.5,-766.7001 273.5,-766.7001"/>
<ellipse fill="none" stroke="#000000" cx="270.3" cy="-766.7001" rx="3.2" ry="3.2"/>
</g>
<!-- template_group&#45;&gt;template_variable_domain -->
<g id="edge10" class="edge">
<title>template_group:w&#45;&gt;template_variable_domain:e</title>
<path fill="none" stroke="#000000" stroke-dasharray="5,2" d="M328.8753,-87.3152C293.8283,-91.6377 285.4887,-118.3074 266,-153.7 241.0727,-198.9693 277.1786,-382.7 225.5,-382.7"/>
<polygon fill="#000000" stroke="#000000" points="338.4701,-82.7529 338.9326,-90.7396 337.3353,-90.8321 336.8727,-82.8455 338.4701,-82.7529"/>
<polyline fill="none" stroke="#000000" points="339.5,-86.7 335.5067,-86.9313 "/>
<ellipse fill="none" stroke="#000000" cx="332.312" cy="-87.1163" rx="3.2" ry="3.2"/>
</g>
<!-- document_template_audit -->
<g id="node8" class="node">
<title>document_template_audit</title>
<g id="a_node8"><a xlink:href="../../tables/document_template_audit.html" xlink:title="document_template_audit" target="_top">
<polygon fill="#ffffff" stroke="transparent" points="304.5,-482.2 304.5,-631.2 518.5,-631.2 518.5,-482.2 304.5,-482.2"/>
<polygon fill="#f5f5f5" stroke="transparent" points="304.5,-607.7 304.5,-630.7 518.5,-630.7 518.5,-607.7 304.5,-607.7"/>
<polygon fill="none" stroke="#000000" points="304.5,-607.7 304.5,-630.7 518.5,-630.7 518.5,-607.7 304.5,-607.7"/>
<text text-anchor="start" x="309.5" y="-616.3" font-family="Helvetica,sans-Serif" font-weight="bold" font-size="11.00" fill="#000000">document_template_audit</text>
<text text-anchor="start" x="484.0219" y="-615.8" font-family="Helvetica,sans-Serif" font-size="11.00" fill="#000000">[table]</text>
<polygon fill="none" stroke="#000000" points="304.5,-585.7 304.5,-607.7 518.5,-607.7 518.5,-585.7 304.5,-585.7"/>
<image xlink:href="../../images/primaryKeys.png" width="11px" height="12px" preserveAspectRatio="xMinYMin meet" x="309.5" y="-602.7"/>
<text text-anchor="start" x="333.5" y="-592.8" font-family="Helvetica,sans-Serif" font-size="11.00" fill="#000000">rev_id</text>
<polygon fill="none" stroke="#000000" points="304.5,-563.7 304.5,-585.7 518.5,-585.7 518.5,-563.7 304.5,-563.7"/>
<image xlink:href="../../images/primaryKeys.png" width="11px" height="12px" preserveAspectRatio="xMinYMin meet" x="309.5" y="-580.7"/>
<text text-anchor="start" x="333.5" y="-570.8" font-family="Helvetica,sans-Serif" font-size="11.00" fill="#000000">id</text>
<polygon fill="none" stroke="#000000" points="304.5,-541.7 304.5,-563.7 518.5,-563.7 518.5,-541.7 304.5,-541.7"/>
<image xlink:href="../../images/foreignKeys.png" width="11px" height="12px" preserveAspectRatio="xMinYMin meet" x="309.5" y="-558.7"/>
<text text-anchor="start" x="333.5" y="-548.8" font-family="Helvetica,sans-Serif" font-size="11.00" fill="#000000">code</text>
<polygon fill="#ffffff" stroke="transparent" points="304.5,-519.7 304.5,-541.7 518.5,-541.7 518.5,-519.7 304.5,-519.7"/>
<polygon fill="none" stroke="#000000" points="304.5,-519.7 304.5,-541.7 518.5,-541.7 518.5,-519.7 304.5,-519.7"/>
<text text-anchor="start" x="333.5" y="-526.8" font-family="Helvetica,sans-Serif" font-size="11.00" fill="#000000">external_reference</text>
<polygon fill="none" stroke="#000000" points="304.5,-500.7 304.5,-519.7 518.5,-519.7 518.5,-500.7 304.5,-500.7"/>
<text text-anchor="start" x="307.5" y="-506.8" font-family="Helvetica,sans-Serif" font-size="11.00" fill="#000000">...</text>
<polygon fill="#ffffff" stroke="transparent" points="304.5,-481.7 304.5,-500.7 409.5,-500.7 409.5,-481.7 304.5,-481.7"/>
<polygon fill="none" stroke="#000000" points="304.5,-481.7 304.5,-500.7 409.5,-500.7 409.5,-481.7 304.5,-481.7"/>
<text text-anchor="start" x="307.5" y="-487.8" font-family="Helvetica,sans-Serif" font-size="11.00" fill="#000000">&lt; 1</text>
<polygon fill="#ffffff" stroke="transparent" points="409.5,-481.7 409.5,-500.7 463.5,-500.7 463.5,-481.7 409.5,-481.7"/>
<polygon fill="none" stroke="#000000" points="409.5,-481.7 409.5,-500.7 463.5,-500.7 463.5,-481.7 409.5,-481.7"/>
<text text-anchor="start" x="454.3862" y="-487.8" font-family="Helvetica,sans-Serif" font-size="11.00" fill="#000000"> &#160;</text>
<polygon fill="#ffffff" stroke="transparent" points="463.5,-481.7 463.5,-500.7 518.5,-500.7 518.5,-481.7 463.5,-481.7"/>
<polygon fill="none" stroke="#000000" points="463.5,-481.7 463.5,-500.7 518.5,-500.7 518.5,-481.7 463.5,-481.7"/>
<text text-anchor="start" x="509.3862" y="-487.8" font-family="Helvetica,sans-Serif" font-size="11.00" fill="#000000"> &#160;</text>
</a>
</g>
</g>
<!-- document_template_audit&#45;&gt;audit_revision -->
<g id="edge3" class="edge">
<title>document_template_audit:w&#45;&gt;audit_revision:e</title>
<path fill="none" stroke="#000000" d="M289.7541,-598.3825C218.7765,-616.0382 270.8059,-766.7 183.5,-766.7"/>
<polygon fill="#000000" stroke="#000000" points="296.5516,-597.607 304.9081,-600.2768 300.5258,-597.1535 304.5,-596.7 304.5,-596.7 304.5,-596.7 300.5258,-597.1535 304.0919,-593.1232 296.5516,-597.607 296.5516,-597.607"/>
<ellipse fill="none" stroke="#000000" cx="293.3722" cy="-597.9698" rx="3.2" ry="3.2"/>
</g>
<!-- document_template_audit&#45;&gt;template_variable_domain -->
<g id="edge2" class="edge">
<title>document_template_audit:w&#45;&gt;template_variable_domain:e</title>
<path fill="none" stroke="#000000" stroke-dasharray="5,2" d="M290.0634,-550.5506C232.0693,-530.8715 303.2826,-382.7 225.5,-382.7"/>
<polygon fill="#000000" stroke="#000000" points="296.5872,-551.5218 303.9698,-556.2608 300.5436,-552.1109 304.5,-552.7 304.5,-552.7 304.5,-552.7 300.5436,-552.1109 305.0302,-549.1392 296.5872,-551.5218 296.5872,-551.5218"/>
<ellipse fill="none" stroke="#000000" cx="293.4221" cy="-551.0506" rx="3.2" ry="3.2"/>
</g>
<!-- document_template_variable -->
<g id="node9" class="node">
<title>document_template_variable</title>
<g id="a_node9"><a xlink:href="../../tables/document_template_variable.html" xlink:title="document_template_variable" target="_top">
<polygon fill="#ffffff" stroke="transparent" points="598,-324.2 598,-451.2 832,-451.2 832,-324.2 598,-324.2"/>
<polygon fill="#f5f5f5" stroke="transparent" points="598,-427.7 598,-450.7 832,-450.7 832,-427.7 598,-427.7"/>
<polygon fill="none" stroke="#000000" points="598,-427.7 598,-450.7 832,-450.7 832,-427.7 598,-427.7"/>
<text text-anchor="start" x="603" y="-436.3" font-family="Helvetica,sans-Serif" font-weight="bold" font-size="11.00" fill="#000000">document_template_variable</text>
<text text-anchor="start" x="797.5219" y="-435.8" font-family="Helvetica,sans-Serif" font-size="11.00" fill="#000000">[table]</text>
<polygon fill="none" stroke="#000000" points="598,-405.7 598,-427.7 832,-427.7 832,-405.7 598,-405.7"/>
<image xlink:href="../../images/primaryKeys.png" width="11px" height="12px" preserveAspectRatio="xMinYMin meet" x="603" y="-422.7"/>
<text text-anchor="start" x="627" y="-412.8" font-family="Helvetica,sans-Serif" font-size="11.00" fill="#000000">id</text>
<polygon fill="#ffffff" stroke="transparent" points="598,-383.7 598,-405.7 832,-405.7 832,-383.7 598,-383.7"/>
<polygon fill="none" stroke="#000000" points="598,-383.7 598,-405.7 832,-405.7 832,-383.7 598,-383.7"/>
<image xlink:href="../../images/foreignKeys.png" width="11px" height="12px" preserveAspectRatio="xMinYMin meet" x="603" y="-400.7"/>
<text text-anchor="start" x="627" y="-390.8" font-family="Helvetica,sans-Serif" font-size="11.00" fill="#000000">template_id</text>
<polygon fill="#ffffff" stroke="transparent" points="598,-361.7 598,-383.7 832,-383.7 832,-361.7 598,-361.7"/>
<polygon fill="none" stroke="#000000" points="598,-361.7 598,-383.7 832,-383.7 832,-361.7 598,-361.7"/>
<image xlink:href="../../images/foreignKeys.png" width="11px" height="12px" preserveAspectRatio="xMinYMin meet" x="603" y="-378.7"/>
<text text-anchor="start" x="627" y="-368.8" font-family="Helvetica,sans-Serif" font-size="11.00" fill="#000000">variable_id</text>
<polygon fill="none" stroke="#000000" points="598,-342.7 598,-361.7 832,-361.7 832,-342.7 598,-342.7"/>
<text text-anchor="start" x="601" y="-348.8" font-family="Helvetica,sans-Serif" font-size="11.00" fill="#000000">...</text>
<polygon fill="#ffffff" stroke="transparent" points="598,-323.7 598,-342.7 713,-342.7 713,-323.7 598,-323.7"/>
<polygon fill="none" stroke="#000000" points="598,-323.7 598,-342.7 713,-342.7 713,-323.7 598,-323.7"/>
<text text-anchor="start" x="601" y="-329.8" font-family="Helvetica,sans-Serif" font-size="11.00" fill="#000000">&lt; 2</text>
<polygon fill="#ffffff" stroke="transparent" points="713,-323.7 713,-342.7 772,-342.7 772,-323.7 713,-323.7"/>
<polygon fill="none" stroke="#000000" points="713,-323.7 713,-342.7 772,-342.7 772,-323.7 713,-323.7"/>
<text text-anchor="start" x="762.8862" y="-329.8" font-family="Helvetica,sans-Serif" font-size="11.00" fill="#000000"> &#160;</text>
<polygon fill="#ffffff" stroke="transparent" points="772,-323.7 772,-342.7 832,-342.7 832,-323.7 772,-323.7"/>
<polygon fill="none" stroke="#000000" points="772,-323.7 772,-342.7 832,-342.7 832,-323.7 772,-323.7"/>
<text text-anchor="start" x="822.8862" y="-329.8" font-family="Helvetica,sans-Serif" font-size="11.00" fill="#000000"> &#160;</text>
</a>
</g>
</g>
<!-- document_template_variable&#45;&gt;template_variable -->
<g id="edge8" class="edge">
<title>document_template_variable:w&#45;&gt;template_variable:e</title>
<path fill="none" stroke="#000000" d="M583.6059,-374.2006C544.3352,-382.922 539.2839,-426.7 491.5,-426.7"/>
<polygon fill="#000000" stroke="#000000" points="590.0431,-373.5296 598.3733,-376.2806 594.0216,-373.1148 598,-372.7 598,-372.7 598,-372.7 594.0216,-373.1148 597.6267,-369.1194 590.0431,-373.5296 590.0431,-373.5296"/>
<ellipse fill="none" stroke="#000000" cx="586.8604" cy="-373.8614" rx="3.2" ry="3.2"/>
</g>
<!-- document_template_variable&#45;&gt;document_template -->
<g id="edge7" class="edge">
<title>document_template_variable:w&#45;&gt;document_template:e</title>
<path fill="none" stroke="#000000" d="M583.767,-391.8454C560.2847,-379.8243 581.1768,-332.5215 557,-301.7 536.7547,-275.8905 531.3024,-256.7 498.5,-256.7"/>
<polygon fill="#000000" stroke="#000000" points="590.1562,-393.1268 597.2921,-398.2297 594.0781,-393.9134 598,-394.7 598,-394.7 598,-394.7 594.0781,-393.9134 598.7079,-391.1703 590.1562,-393.1268 590.1562,-393.1268"/>
<ellipse fill="none" stroke="#000000" cx="587.0187" cy="-392.4975" rx="3.2" ry="3.2"/>
</g>
</g>
</svg>
