<?xml version="1.0" encoding="UTF-8" standalone="no"?>
<!DOCTYPE svg PUBLIC "-//W3C//DTD SVG 1.1//EN"
 "http://www.w3.org/Graphics/SVG/1.1/DTD/svg11.dtd">
<!-- Generated by graphviz version 2.40.1 (20161225.0304)
 -->
<!-- Title: compactRelationshipsDiagram Pages: 1 -->
<svg width="787pt" height="902pt"
 viewBox="0.00 0.00 787.00 902.20" xmlns="http://www.w3.org/2000/svg" xmlns:xlink="http://www.w3.org/1999/xlink">
<g id="graph0" class="graph" transform="scale(1 1) rotate(0) translate(4 898.2)">
<title>compactRelationshipsDiagram</title>
<polygon fill="#ffffff" stroke="transparent" points="-4,4 -4,-898.2 783,-898.2 783,4 -4,4"/>
<text text-anchor="middle" x="72.4936" y="-7.3" font-family="Helvetica,sans-Serif" font-size="11.00" fill="#000000">Generated by SchemaSpy</text>
<!-- document_template_variable_audit -->
<g id="node1" class="node">
<title>document_template_variable_audit</title>
<g id="a_node1"><a xlink:href="../../tables/document_template_variable_audit.html" xlink:title="document_template_variable_audit" target="_top">
<polygon fill="#ffffff" stroke="transparent" points="496,-378.2 496,-527.2 771,-527.2 771,-378.2 496,-378.2"/>
<polygon fill="#f5f5f5" stroke="transparent" points="496.5,-503.7 496.5,-526.7 771.5,-526.7 771.5,-503.7 496.5,-503.7"/>
<polygon fill="none" stroke="#000000" points="496.5,-503.7 496.5,-526.7 771.5,-526.7 771.5,-503.7 496.5,-503.7"/>
<text text-anchor="start" x="501.5" y="-512.3" font-family="Helvetica,sans-Serif" font-weight="bold" font-size="11.00" fill="#000000">document_template_variable_audit</text>
<text text-anchor="start" x="737.0219" y="-511.8" font-family="Helvetica,sans-Serif" font-size="11.00" fill="#000000">[table]</text>
<polygon fill="none" stroke="#000000" points="496.5,-481.7 496.5,-503.7 771.5,-503.7 771.5,-481.7 496.5,-481.7"/>
<image xlink:href="../../images/primaryKeys.png" width="11px" height="12px" preserveAspectRatio="xMinYMin meet" x="501.5" y="-498.7"/>
<text text-anchor="start" x="525.5" y="-488.8" font-family="Helvetica,sans-Serif" font-size="11.00" fill="#000000">rev_id</text>
<polygon fill="none" stroke="#000000" points="496.5,-459.7 496.5,-481.7 771.5,-481.7 771.5,-459.7 496.5,-459.7"/>
<image xlink:href="../../images/primaryKeys.png" width="11px" height="12px" preserveAspectRatio="xMinYMin meet" x="501.5" y="-476.7"/>
<text text-anchor="start" x="525.5" y="-466.8" font-family="Helvetica,sans-Serif" font-size="11.00" fill="#000000">id</text>
<polygon fill="#ffffff" stroke="transparent" points="496.5,-437.7 496.5,-459.7 771.5,-459.7 771.5,-437.7 496.5,-437.7"/>
<polygon fill="none" stroke="#000000" points="496.5,-437.7 496.5,-459.7 771.5,-459.7 771.5,-437.7 496.5,-437.7"/>
<text text-anchor="start" x="525.5" y="-444.8" font-family="Helvetica,sans-Serif" font-size="11.00" fill="#000000">template_id</text>
<polygon fill="#ffffff" stroke="transparent" points="496.5,-415.7 496.5,-437.7 771.5,-437.7 771.5,-415.7 496.5,-415.7"/>
<polygon fill="none" stroke="#000000" points="496.5,-415.7 496.5,-437.7 771.5,-437.7 771.5,-415.7 496.5,-415.7"/>
<text text-anchor="start" x="525.5" y="-422.8" font-family="Helvetica,sans-Serif" font-size="11.00" fill="#000000">variable_id</text>
<polygon fill="none" stroke="#000000" points="496.5,-396.7 496.5,-415.7 771.5,-415.7 771.5,-396.7 496.5,-396.7"/>
<text text-anchor="start" x="499.5" y="-402.8" font-family="Helvetica,sans-Serif" font-size="11.00" fill="#000000">...</text>
<polygon fill="#ffffff" stroke="transparent" points="496.5,-377.7 496.5,-396.7 632.5,-396.7 632.5,-377.7 496.5,-377.7"/>
<polygon fill="none" stroke="#000000" points="496.5,-377.7 496.5,-396.7 632.5,-396.7 632.5,-377.7 496.5,-377.7"/>
<text text-anchor="start" x="499.5" y="-383.8" font-family="Helvetica,sans-Serif" font-size="11.00" fill="#000000">&lt; 1</text>
<polygon fill="#ffffff" stroke="transparent" points="632.5,-377.7 632.5,-396.7 701.5,-396.7 701.5,-377.7 632.5,-377.7"/>
<polygon fill="none" stroke="#000000" points="632.5,-377.7 632.5,-396.7 701.5,-396.7 701.5,-377.7 632.5,-377.7"/>
<text text-anchor="start" x="692.3862" y="-383.8" font-family="Helvetica,sans-Serif" font-size="11.00" fill="#000000"> &#160;</text>
<polygon fill="#ffffff" stroke="transparent" points="701.5,-377.7 701.5,-396.7 771.5,-396.7 771.5,-377.7 701.5,-377.7"/>
<polygon fill="none" stroke="#000000" points="701.5,-377.7 701.5,-396.7 771.5,-396.7 771.5,-377.7 701.5,-377.7"/>
<text text-anchor="start" x="762.3862" y="-383.8" font-family="Helvetica,sans-Serif" font-size="11.00" fill="#000000"> &#160;</text>
</a>
</g>
</g>
<!-- audit_revision -->
<g id="node7" class="node">
<title>audit_revision</title>
<g id="a_node7"><a xlink:href="../../tables/audit_revision.html" xlink:title="audit_revision" target="_top">
<polygon fill="#ffffff" stroke="transparent" points="293.5,-274.2 293.5,-357.2 427.5,-357.2 427.5,-274.2 293.5,-274.2"/>
<polygon fill="#f5f5f5" stroke="transparent" points="293.5,-333.7 293.5,-356.7 427.5,-356.7 427.5,-333.7 293.5,-333.7"/>
<polygon fill="none" stroke="#000000" points="293.5,-333.7 293.5,-356.7 427.5,-356.7 427.5,-333.7 293.5,-333.7"/>
<text text-anchor="start" x="298.5" y="-342.3" font-family="Helvetica,sans-Serif" font-weight="bold" font-size="11.00" fill="#000000">audit_revision</text>
<text text-anchor="start" x="393.0219" y="-341.8" font-family="Helvetica,sans-Serif" font-size="11.00" fill="#000000">[table]</text>
<polygon fill="none" stroke="#000000" points="293.5,-311.7 293.5,-333.7 427.5,-333.7 427.5,-311.7 293.5,-311.7"/>
<image xlink:href="../../images/primaryKeys.png" width="11px" height="12px" preserveAspectRatio="xMinYMin meet" x="298.5" y="-328.7"/>
<text text-anchor="start" x="322.5" y="-318.8" font-family="Helvetica,sans-Serif" font-size="11.00" fill="#000000">id</text>
<polygon fill="none" stroke="#000000" points="293.5,-292.7 293.5,-311.7 427.5,-311.7 427.5,-292.7 293.5,-292.7"/>
<text text-anchor="start" x="296.5" y="-298.8" font-family="Helvetica,sans-Serif" font-size="11.00" fill="#000000">...</text>
<polygon fill="#ffffff" stroke="transparent" points="293.5,-273.7 293.5,-292.7 349.5,-292.7 349.5,-273.7 293.5,-273.7"/>
<polygon fill="none" stroke="#000000" points="293.5,-273.7 293.5,-292.7 349.5,-292.7 349.5,-273.7 293.5,-273.7"/>
<text text-anchor="start" x="296.5" y="-279.8" font-family="Helvetica,sans-Serif" font-size="11.00" fill="#000000"> &#160;</text>
<polygon fill="#ffffff" stroke="transparent" points="349.5,-273.7 349.5,-292.7 383.5,-292.7 383.5,-273.7 349.5,-273.7"/>
<polygon fill="none" stroke="#000000" points="349.5,-273.7 349.5,-292.7 383.5,-292.7 383.5,-273.7 349.5,-273.7"/>
<text text-anchor="start" x="374.3862" y="-279.8" font-family="Helvetica,sans-Serif" font-size="11.00" fill="#000000"> &#160;</text>
<polygon fill="#ffffff" stroke="transparent" points="383.5,-273.7 383.5,-292.7 427.5,-292.7 427.5,-273.7 383.5,-273.7"/>
<polygon fill="none" stroke="#000000" points="383.5,-273.7 383.5,-292.7 427.5,-292.7 427.5,-273.7 383.5,-273.7"/>
<text text-anchor="start" x="408.9053" y="-279.8" font-family="Helvetica,sans-Serif" font-size="11.00" fill="#000000">3 &gt;</text>
</a>
</g>
</g>
<!-- document_template_variable_audit&#45;&gt;audit_revision -->
<g id="edge7" class="edge">
<title>document_template_variable_audit:w&#45;&gt;audit_revision:e</title>
<path fill="none" stroke="#000000" d="M482.1274,-490.4254C427.0004,-470.2522 503.4678,-322.7 427.5,-322.7"/>
<polygon fill="#000000" stroke="#000000" points="488.5983,-491.4494 495.9372,-496.2557 492.5492,-492.0747 496.5,-492.7 496.5,-492.7 496.5,-492.7 492.5492,-492.0747 497.0628,-489.1443 488.5983,-491.4494 488.5983,-491.4494"/>
<ellipse fill="none" stroke="#000000" cx="485.4377" cy="-490.9492" rx="3.2" ry="3.2"/>
</g>
<!-- template_variable -->
<g id="node2" class="node">
<title>template_variable</title>
<g id="a_node2"><a xlink:href="../../tables/template_variable.html" xlink:title="template_variable" target="_top">
<polygon fill="#ffffff" stroke="transparent" points="280.5,-719.2 280.5,-868.2 440.5,-868.2 440.5,-719.2 280.5,-719.2"/>
<polygon fill="#f5f5f5" stroke="transparent" points="280.5,-844.7 280.5,-867.7 440.5,-867.7 440.5,-844.7 280.5,-844.7"/>
<polygon fill="none" stroke="#000000" points="280.5,-844.7 280.5,-867.7 440.5,-867.7 440.5,-844.7 280.5,-844.7"/>
<text text-anchor="start" x="285.5" y="-853.3" font-family="Helvetica,sans-Serif" font-weight="bold" font-size="11.00" fill="#000000">template_variable</text>
<text text-anchor="start" x="406.0219" y="-852.8" font-family="Helvetica,sans-Serif" font-size="11.00" fill="#000000">[table]</text>
<polygon fill="none" stroke="#000000" points="280.5,-822.7 280.5,-844.7 440.5,-844.7 440.5,-822.7 280.5,-822.7"/>
<image xlink:href="../../images/primaryKeys.png" width="11px" height="12px" preserveAspectRatio="xMinYMin meet" x="285.5" y="-839.7"/>
<text text-anchor="start" x="309.5" y="-829.8" font-family="Helvetica,sans-Serif" font-size="11.00" fill="#000000">id</text>
<polygon fill="#ffffff" stroke="transparent" points="280.5,-800.7 280.5,-822.7 440.5,-822.7 440.5,-800.7 280.5,-800.7"/>
<polygon fill="none" stroke="#000000" points="280.5,-800.7 280.5,-822.7 440.5,-822.7 440.5,-800.7 280.5,-800.7"/>
<image xlink:href="../../images/foreignKeys.png" width="11px" height="12px" preserveAspectRatio="xMinYMin meet" x="285.5" y="-817.7"/>
<text text-anchor="start" x="309.5" y="-807.8" font-family="Helvetica,sans-Serif" font-size="11.00" fill="#000000">domain</text>
<polygon fill="#ffffff" stroke="transparent" points="280.5,-778.7 280.5,-800.7 440.5,-800.7 440.5,-778.7 280.5,-778.7"/>
<polygon fill="none" stroke="#000000" points="280.5,-778.7 280.5,-800.7 440.5,-800.7 440.5,-778.7 280.5,-778.7"/>
<image xlink:href="../../images/foreignKeys.png" width="11px" height="12px" preserveAspectRatio="xMinYMin meet" x="285.5" y="-795.7"/>
<text text-anchor="start" x="309.5" y="-785.8" font-family="Helvetica,sans-Serif" font-size="11.00" fill="#000000">code</text>
<polygon fill="#ffffff" stroke="transparent" points="280.5,-756.7 280.5,-778.7 440.5,-778.7 440.5,-756.7 280.5,-756.7"/>
<polygon fill="none" stroke="#000000" points="280.5,-756.7 280.5,-778.7 440.5,-778.7 440.5,-756.7 280.5,-756.7"/>
<text text-anchor="start" x="309.5" y="-763.8" font-family="Helvetica,sans-Serif" font-size="11.00" fill="#000000">sequence_number</text>
<polygon fill="none" stroke="#000000" points="280.5,-737.7 280.5,-756.7 440.5,-756.7 440.5,-737.7 280.5,-737.7"/>
<text text-anchor="start" x="283.5" y="-743.8" font-family="Helvetica,sans-Serif" font-size="11.00" fill="#000000">...</text>
<polygon fill="#ffffff" stroke="transparent" points="280.5,-718.7 280.5,-737.7 354.5,-737.7 354.5,-718.7 280.5,-718.7"/>
<polygon fill="none" stroke="#000000" points="280.5,-718.7 280.5,-737.7 354.5,-737.7 354.5,-718.7 280.5,-718.7"/>
<text text-anchor="start" x="283.5" y="-724.8" font-family="Helvetica,sans-Serif" font-size="11.00" fill="#000000">&lt; 1</text>
<polygon fill="#ffffff" stroke="transparent" points="354.5,-718.7 354.5,-737.7 392.5,-737.7 392.5,-718.7 354.5,-718.7"/>
<polygon fill="none" stroke="#000000" points="354.5,-718.7 354.5,-737.7 392.5,-737.7 392.5,-718.7 354.5,-718.7"/>
<text text-anchor="start" x="383.3862" y="-724.8" font-family="Helvetica,sans-Serif" font-size="11.00" fill="#000000"> &#160;</text>
<polygon fill="#ffffff" stroke="transparent" points="392.5,-718.7 392.5,-737.7 440.5,-737.7 440.5,-718.7 392.5,-718.7"/>
<polygon fill="none" stroke="#000000" points="392.5,-718.7 392.5,-737.7 440.5,-737.7 440.5,-718.7 392.5,-718.7"/>
<text text-anchor="start" x="421.9053" y="-724.8" font-family="Helvetica,sans-Serif" font-size="11.00" fill="#000000">1 &gt;</text>
</a>
</g>
</g>
<!-- template_variable_domain -->
<g id="node10" class="node">
<title>template_variable_domain</title>
<g id="a_node10"><a xlink:href="../../tables/template_variable_domain.html" xlink:title="template_variable_domain" target="_top">
<polygon fill="#ffffff" stroke="transparent" points="8,-741.2 8,-846.2 225,-846.2 225,-741.2 8,-741.2"/>
<polygon fill="#f5f5f5" stroke="transparent" points="8.5,-822.7 8.5,-845.7 225.5,-845.7 225.5,-822.7 8.5,-822.7"/>
<polygon fill="none" stroke="#000000" points="8.5,-822.7 8.5,-845.7 225.5,-845.7 225.5,-822.7 8.5,-822.7"/>
<text text-anchor="start" x="13.5" y="-831.3" font-family="Helvetica,sans-Serif" font-weight="bold" font-size="11.00" fill="#000000">template_variable_domain</text>
<text text-anchor="start" x="191.0219" y="-830.8" font-family="Helvetica,sans-Serif" font-size="11.00" fill="#000000">[table]</text>
<polygon fill="none" stroke="#000000" points="8.5,-800.7 8.5,-822.7 225.5,-822.7 225.5,-800.7 8.5,-800.7"/>
<image xlink:href="../../images/primaryKeys.png" width="11px" height="12px" preserveAspectRatio="xMinYMin meet" x="13.5" y="-817.7"/>
<text text-anchor="start" x="37.5" y="-807.8" font-family="Helvetica,sans-Serif" font-size="11.00" fill="#000000">code</text>
<polygon fill="#ffffff" stroke="transparent" points="8.5,-778.7 8.5,-800.7 225.5,-800.7 225.5,-778.7 8.5,-778.7"/>
<polygon fill="none" stroke="#000000" points="8.5,-778.7 8.5,-800.7 225.5,-800.7 225.5,-778.7 8.5,-778.7"/>
<text text-anchor="start" x="37.5" y="-785.8" font-family="Helvetica,sans-Serif" font-size="11.00" fill="#000000">sequence_number</text>
<polygon fill="none" stroke="#000000" points="8.5,-759.7 8.5,-778.7 225.5,-778.7 225.5,-759.7 8.5,-759.7"/>
<text text-anchor="start" x="11.5" y="-765.8" font-family="Helvetica,sans-Serif" font-size="11.00" fill="#000000">...</text>
<polygon fill="#ffffff" stroke="transparent" points="8.5,-740.7 8.5,-759.7 106.5,-759.7 106.5,-740.7 8.5,-740.7"/>
<polygon fill="none" stroke="#000000" points="8.5,-740.7 8.5,-759.7 106.5,-759.7 106.5,-740.7 8.5,-740.7"/>
<text text-anchor="start" x="11.5" y="-746.8" font-family="Helvetica,sans-Serif" font-size="11.00" fill="#000000"> &#160;</text>
<polygon fill="#ffffff" stroke="transparent" points="106.5,-740.7 106.5,-759.7 161.5,-759.7 161.5,-740.7 106.5,-740.7"/>
<polygon fill="none" stroke="#000000" points="106.5,-740.7 106.5,-759.7 161.5,-759.7 161.5,-740.7 106.5,-740.7"/>
<text text-anchor="start" x="152.3862" y="-746.8" font-family="Helvetica,sans-Serif" font-size="11.00" fill="#000000"> &#160;</text>
<polygon fill="#ffffff" stroke="transparent" points="161.5,-740.7 161.5,-759.7 225.5,-759.7 225.5,-740.7 161.5,-740.7"/>
<polygon fill="none" stroke="#000000" points="161.5,-740.7 161.5,-759.7 225.5,-759.7 225.5,-740.7 161.5,-740.7"/>
<text text-anchor="start" x="206.9053" y="-746.8" font-family="Helvetica,sans-Serif" font-size="11.00" fill="#000000">1 &gt;</text>
</a>
</g>
</g>
<!-- template_variable&#45;&gt;template_variable_domain -->
<g id="edge8" class="edge">
<title>template_variable:w&#45;&gt;template_variable_domain:e</title>
<path fill="none" stroke="#000000" d="M265.8617,-811.7C252.1839,-811.7 244.2153,-811.7 225.5,-811.7"/>
<polygon fill="#000000" stroke="#000000" points="272.5,-811.7001 280.5,-815.3 276.5,-811.7 280.5,-811.7 280.5,-811.7 280.5,-811.7 276.5,-811.7 280.5,-808.1 272.5,-811.7001 272.5,-811.7001"/>
<ellipse fill="none" stroke="#000000" cx="269.3" cy="-811.7001" rx="3.2" ry="3.2"/>
</g>
<!-- document_template -->
<g id="node3" class="node">
<title>document_template</title>
<g id="a_node3"><a xlink:href="../../tables/document_template.html" xlink:title="document_template" target="_top">
<polygon fill="#ffffff" stroke="transparent" points="274,-571.2 274,-698.2 447,-698.2 447,-571.2 274,-571.2"/>
<polygon fill="#f5f5f5" stroke="transparent" points="274.5,-674.7 274.5,-697.7 447.5,-697.7 447.5,-674.7 274.5,-674.7"/>
<polygon fill="none" stroke="#000000" points="274.5,-674.7 274.5,-697.7 447.5,-697.7 447.5,-674.7 274.5,-674.7"/>
<text text-anchor="start" x="279.5" y="-683.3" font-family="Helvetica,sans-Serif" font-weight="bold" font-size="11.00" fill="#000000">document_template</text>
<text text-anchor="start" x="413.0219" y="-682.8" font-family="Helvetica,sans-Serif" font-size="11.00" fill="#000000">[table]</text>
<polygon fill="none" stroke="#000000" points="274.5,-652.7 274.5,-674.7 447.5,-674.7 447.5,-652.7 274.5,-652.7"/>
<image xlink:href="../../images/primaryKeys.png" width="11px" height="12px" preserveAspectRatio="xMinYMin meet" x="279.5" y="-669.7"/>
<text text-anchor="start" x="303.5" y="-659.8" font-family="Helvetica,sans-Serif" font-size="11.00" fill="#000000">id</text>
<polygon fill="#ffffff" stroke="transparent" points="274.5,-630.7 274.5,-652.7 447.5,-652.7 447.5,-630.7 274.5,-630.7"/>
<polygon fill="none" stroke="#000000" points="274.5,-630.7 274.5,-652.7 447.5,-652.7 447.5,-630.7 274.5,-630.7"/>
<image xlink:href="../../images/foreignKeys.png" width="11px" height="12px" preserveAspectRatio="xMinYMin meet" x="279.5" y="-647.7"/>
<text text-anchor="start" x="303.5" y="-637.8" font-family="Helvetica,sans-Serif" font-size="11.00" fill="#000000">code</text>
<polygon fill="#ffffff" stroke="transparent" points="274.5,-608.7 274.5,-630.7 447.5,-630.7 447.5,-608.7 274.5,-608.7"/>
<polygon fill="none" stroke="#000000" points="274.5,-608.7 274.5,-630.7 447.5,-630.7 447.5,-608.7 274.5,-608.7"/>
<text text-anchor="start" x="303.5" y="-615.8" font-family="Helvetica,sans-Serif" font-size="11.00" fill="#000000">external_reference</text>
<polygon fill="none" stroke="#000000" points="274.5,-589.7 274.5,-608.7 447.5,-608.7 447.5,-589.7 274.5,-589.7"/>
<text text-anchor="start" x="277.5" y="-595.8" font-family="Helvetica,sans-Serif" font-size="11.00" fill="#000000">...</text>
<polygon fill="#ffffff" stroke="transparent" points="274.5,-570.7 274.5,-589.7 350.5,-589.7 350.5,-570.7 274.5,-570.7"/>
<polygon fill="none" stroke="#000000" points="274.5,-570.7 274.5,-589.7 350.5,-589.7 350.5,-570.7 274.5,-570.7"/>
<text text-anchor="start" x="277.5" y="-576.8" font-family="Helvetica,sans-Serif" font-size="11.00" fill="#000000"> &#160;</text>
<polygon fill="#ffffff" stroke="transparent" points="350.5,-570.7 350.5,-589.7 394.5,-589.7 394.5,-570.7 350.5,-570.7"/>
<polygon fill="none" stroke="#000000" points="350.5,-570.7 350.5,-589.7 394.5,-589.7 394.5,-570.7 350.5,-570.7"/>
<text text-anchor="start" x="385.3862" y="-576.8" font-family="Helvetica,sans-Serif" font-size="11.00" fill="#000000"> &#160;</text>
<polygon fill="#ffffff" stroke="transparent" points="394.5,-570.7 394.5,-589.7 447.5,-589.7 447.5,-570.7 394.5,-570.7"/>
<polygon fill="none" stroke="#000000" points="394.5,-570.7 394.5,-589.7 447.5,-589.7 447.5,-570.7 394.5,-570.7"/>
<text text-anchor="start" x="428.9053" y="-576.8" font-family="Helvetica,sans-Serif" font-size="11.00" fill="#000000">2 &gt;</text>
</a>
</g>
</g>
<!-- document_template_group -->
<g id="node4" class="node">
<title>document_template_group</title>
<g id="a_node4"><a xlink:href="../../tables/document_template_group.html" xlink:title="document_template_group" target="_top">
<polygon fill="#ffffff" stroke="transparent" points="524,-548.7 524,-656.7 743,-656.7 743,-548.7 524,-548.7"/>
<polygon fill="#f5f5f5" stroke="transparent" points="524.5,-633.7 524.5,-656.7 743.5,-656.7 743.5,-633.7 524.5,-633.7"/>
<polygon fill="none" stroke="#000000" points="524.5,-633.7 524.5,-656.7 743.5,-656.7 743.5,-633.7 524.5,-633.7"/>
<text text-anchor="start" x="529.5" y="-642.3" font-family="Helvetica,sans-Serif" font-weight="bold" font-size="11.00" fill="#000000">document_template_group</text>
<text text-anchor="start" x="709.0219" y="-641.8" font-family="Helvetica,sans-Serif" font-size="11.00" fill="#000000">[table]</text>
<polygon fill="none" stroke="#000000" points="524.5,-611.7 524.5,-633.7 743.5,-633.7 743.5,-611.7 524.5,-611.7"/>
<image xlink:href="../../images/primaryKeys.png" width="11px" height="12px" preserveAspectRatio="xMinYMin meet" x="529.5" y="-628.7"/>
<text text-anchor="start" x="553.5" y="-618.8" font-family="Helvetica,sans-Serif" font-size="11.00" fill="#000000">id</text>
<polygon fill="#ffffff" stroke="transparent" points="524.5,-589.7 524.5,-611.7 743.5,-611.7 743.5,-589.7 524.5,-589.7"/>
<polygon fill="none" stroke="#000000" points="524.5,-589.7 524.5,-611.7 743.5,-611.7 743.5,-589.7 524.5,-589.7"/>
<image xlink:href="../../images/foreignKeys.png" width="11px" height="12px" preserveAspectRatio="xMinYMin meet" x="529.5" y="-606.7"/>
<text text-anchor="start" x="553.5" y="-596.8" font-family="Helvetica,sans-Serif" font-size="11.00" fill="#000000">template_id</text>
<polygon fill="#ffffff" stroke="transparent" points="524.5,-567.7 524.5,-589.7 743.5,-589.7 743.5,-567.7 524.5,-567.7"/>
<polygon fill="none" stroke="#000000" points="524.5,-567.7 524.5,-589.7 743.5,-589.7 743.5,-567.7 524.5,-567.7"/>
<image xlink:href="../../images/foreignKeys.png" width="11px" height="12px" preserveAspectRatio="xMinYMin meet" x="529.5" y="-584.7"/>
<text text-anchor="start" x="553.5" y="-574.8" font-family="Helvetica,sans-Serif" font-size="11.00" fill="#000000">template_group_id</text>
<polygon fill="#ffffff" stroke="transparent" points="524.5,-548.7 524.5,-567.7 632.5,-567.7 632.5,-548.7 524.5,-548.7"/>
<polygon fill="none" stroke="#000000" points="524.5,-548.7 524.5,-567.7 632.5,-567.7 632.5,-548.7 524.5,-548.7"/>
<text text-anchor="start" x="527.5" y="-554.8" font-family="Helvetica,sans-Serif" font-size="11.00" fill="#000000">&lt; 2</text>
<polygon fill="#ffffff" stroke="transparent" points="632.5,-548.7 632.5,-567.7 687.5,-567.7 687.5,-548.7 632.5,-548.7"/>
<polygon fill="none" stroke="#000000" points="632.5,-548.7 632.5,-567.7 687.5,-567.7 687.5,-548.7 632.5,-548.7"/>
<text text-anchor="start" x="678.3862" y="-554.8" font-family="Helvetica,sans-Serif" font-size="11.00" fill="#000000"> &#160;</text>
<polygon fill="#ffffff" stroke="transparent" points="687.5,-548.7 687.5,-567.7 743.5,-567.7 743.5,-548.7 687.5,-548.7"/>
<polygon fill="none" stroke="#000000" points="687.5,-548.7 687.5,-567.7 743.5,-567.7 743.5,-548.7 687.5,-548.7"/>
<text text-anchor="start" x="734.3862" y="-554.8" font-family="Helvetica,sans-Serif" font-size="11.00" fill="#000000"> &#160;</text>
</a>
</g>
</g>
<!-- document_template_group&#45;&gt;document_template -->
<g id="edge3" class="edge">
<title>document_template_group:w&#45;&gt;document_template:e</title>
<path fill="none" stroke="#000000" d="M510.3098,-603.407C482.2718,-615.4656 486.19,-663.7 447.5,-663.7"/>
<polygon fill="#000000" stroke="#000000" points="516.6417,-602.1992 525.1746,-604.2362 520.5709,-601.4496 524.5,-600.7 524.5,-600.7 524.5,-600.7 520.5709,-601.4496 523.8254,-597.1638 516.6417,-602.1992 516.6417,-602.1992"/>
<ellipse fill="none" stroke="#000000" cx="513.4984" cy="-602.7988" rx="3.2" ry="3.2"/>
</g>
<!-- template_group -->
<g id="node6" class="node">
<title>template_group</title>
<g id="a_node6"><a xlink:href="../../tables/template_group.html" xlink:title="template_group" target="_top">
<polygon fill="#ffffff" stroke="transparent" points="288,-445.2 288,-550.2 433,-550.2 433,-445.2 288,-445.2"/>
<polygon fill="#f5f5f5" stroke="transparent" points="288.5,-526.7 288.5,-549.7 433.5,-549.7 433.5,-526.7 288.5,-526.7"/>
<polygon fill="none" stroke="#000000" points="288.5,-526.7 288.5,-549.7 433.5,-549.7 433.5,-526.7 288.5,-526.7"/>
<text text-anchor="start" x="293.5" y="-535.3" font-family="Helvetica,sans-Serif" font-weight="bold" font-size="11.00" fill="#000000">template_group</text>
<text text-anchor="start" x="399.0219" y="-534.8" font-family="Helvetica,sans-Serif" font-size="11.00" fill="#000000">[table]</text>
<polygon fill="none" stroke="#000000" points="288.5,-504.7 288.5,-526.7 433.5,-526.7 433.5,-504.7 288.5,-504.7"/>
<image xlink:href="../../images/primaryKeys.png" width="11px" height="12px" preserveAspectRatio="xMinYMin meet" x="293.5" y="-521.7"/>
<text text-anchor="start" x="317.5" y="-511.8" font-family="Helvetica,sans-Serif" font-size="11.00" fill="#000000">id</text>
<polygon fill="#ffffff" stroke="transparent" points="288.5,-482.7 288.5,-504.7 433.5,-504.7 433.5,-482.7 288.5,-482.7"/>
<polygon fill="none" stroke="#000000" points="288.5,-482.7 288.5,-504.7 433.5,-504.7 433.5,-482.7 288.5,-482.7"/>
<image xlink:href="../../images/foreignKeys.png" width="11px" height="12px" preserveAspectRatio="xMinYMin meet" x="293.5" y="-499.7"/>
<text text-anchor="start" x="317.5" y="-489.8" font-family="Helvetica,sans-Serif" font-size="11.00" fill="#000000">code</text>
<polygon fill="none" stroke="#000000" points="288.5,-463.7 288.5,-482.7 433.5,-482.7 433.5,-463.7 288.5,-463.7"/>
<text text-anchor="start" x="291.5" y="-469.8" font-family="Helvetica,sans-Serif" font-size="11.00" fill="#000000">...</text>
<polygon fill="#ffffff" stroke="transparent" points="288.5,-444.7 288.5,-463.7 350.5,-463.7 350.5,-444.7 288.5,-444.7"/>
<polygon fill="none" stroke="#000000" points="288.5,-444.7 288.5,-463.7 350.5,-463.7 350.5,-444.7 288.5,-444.7"/>
<text text-anchor="start" x="291.5" y="-450.8" font-family="Helvetica,sans-Serif" font-size="11.00" fill="#000000"> &#160;</text>
<polygon fill="#ffffff" stroke="transparent" points="350.5,-444.7 350.5,-463.7 387.5,-463.7 387.5,-444.7 350.5,-444.7"/>
<polygon fill="none" stroke="#000000" points="350.5,-444.7 350.5,-463.7 387.5,-463.7 387.5,-444.7 350.5,-444.7"/>
<text text-anchor="start" x="378.3862" y="-450.8" font-family="Helvetica,sans-Serif" font-size="11.00" fill="#000000"> &#160;</text>
<polygon fill="#ffffff" stroke="transparent" points="387.5,-444.7 387.5,-463.7 433.5,-463.7 433.5,-444.7 387.5,-444.7"/>
<polygon fill="none" stroke="#000000" points="387.5,-444.7 387.5,-463.7 433.5,-463.7 433.5,-444.7 387.5,-444.7"/>
<text text-anchor="start" x="414.9053" y="-450.8" font-family="Helvetica,sans-Serif" font-size="11.00" fill="#000000">1 &gt;</text>
</a>
</g>
</g>
<!-- document_template_group&#45;&gt;template_group -->
<g id="edge2" class="edge">
<title>document_template_group:w&#45;&gt;template_group:e</title>
<path fill="none" stroke="#000000" d="M510.2415,-576.6039C476.247,-565.6724 477.3107,-515.7 433.5,-515.7"/>
<polygon fill="#000000" stroke="#000000" points="516.5851,-577.5364 523.9764,-582.2617 520.5425,-578.1182 524.5,-578.7 524.5,-578.7 524.5,-578.7 520.5425,-578.1182 525.0236,-575.1383 516.5851,-577.5364 516.5851,-577.5364"/>
<ellipse fill="none" stroke="#000000" cx="513.4191" cy="-577.0709" rx="3.2" ry="3.2"/>
</g>
<!-- document_template_group_audit -->
<g id="node5" class="node">
<title>document_template_group_audit</title>
<g id="a_node5"><a xlink:href="../../tables/document_template_group_audit.html" xlink:title="document_template_group_audit" target="_top">
<polygon fill="#ffffff" stroke="transparent" points="503.5,-208.2 503.5,-357.2 763.5,-357.2 763.5,-208.2 503.5,-208.2"/>
<polygon fill="#f5f5f5" stroke="transparent" points="503.5,-333.7 503.5,-356.7 763.5,-356.7 763.5,-333.7 503.5,-333.7"/>
<polygon fill="none" stroke="#000000" points="503.5,-333.7 503.5,-356.7 763.5,-356.7 763.5,-333.7 503.5,-333.7"/>
<text text-anchor="start" x="508.5" y="-342.3" font-family="Helvetica,sans-Serif" font-weight="bold" font-size="11.00" fill="#000000">document_template_group_audit</text>
<text text-anchor="start" x="729.0219" y="-341.8" font-family="Helvetica,sans-Serif" font-size="11.00" fill="#000000">[table]</text>
<polygon fill="none" stroke="#000000" points="503.5,-311.7 503.5,-333.7 763.5,-333.7 763.5,-311.7 503.5,-311.7"/>
<image xlink:href="../../images/primaryKeys.png" width="11px" height="12px" preserveAspectRatio="xMinYMin meet" x="508.5" y="-328.7"/>
<text text-anchor="start" x="532.5" y="-318.8" font-family="Helvetica,sans-Serif" font-size="11.00" fill="#000000">rev_id</text>
<polygon fill="none" stroke="#000000" points="503.5,-289.7 503.5,-311.7 763.5,-311.7 763.5,-289.7 503.5,-289.7"/>
<image xlink:href="../../images/primaryKeys.png" width="11px" height="12px" preserveAspectRatio="xMinYMin meet" x="508.5" y="-306.7"/>
<text text-anchor="start" x="532.5" y="-296.8" font-family="Helvetica,sans-Serif" font-size="11.00" fill="#000000">id</text>
<polygon fill="#ffffff" stroke="transparent" points="503.5,-267.7 503.5,-289.7 763.5,-289.7 763.5,-267.7 503.5,-267.7"/>
<polygon fill="none" stroke="#000000" points="503.5,-267.7 503.5,-289.7 763.5,-289.7 763.5,-267.7 503.5,-267.7"/>
<text text-anchor="start" x="532.5" y="-274.8" font-family="Helvetica,sans-Serif" font-size="11.00" fill="#000000">template_id</text>
<polygon fill="#ffffff" stroke="transparent" points="503.5,-245.7 503.5,-267.7 763.5,-267.7 763.5,-245.7 503.5,-245.7"/>
<polygon fill="none" stroke="#000000" points="503.5,-245.7 503.5,-267.7 763.5,-267.7 763.5,-245.7 503.5,-245.7"/>
<text text-anchor="start" x="532.5" y="-252.8" font-family="Helvetica,sans-Serif" font-size="11.00" fill="#000000">template_group_id</text>
<polygon fill="none" stroke="#000000" points="503.5,-226.7 503.5,-245.7 763.5,-245.7 763.5,-226.7 503.5,-226.7"/>
<text text-anchor="start" x="506.5" y="-232.8" font-family="Helvetica,sans-Serif" font-size="11.00" fill="#000000">...</text>
<polygon fill="#ffffff" stroke="transparent" points="503.5,-207.7 503.5,-226.7 631.5,-226.7 631.5,-207.7 503.5,-207.7"/>
<polygon fill="none" stroke="#000000" points="503.5,-207.7 503.5,-226.7 631.5,-226.7 631.5,-207.7 503.5,-207.7"/>
<text text-anchor="start" x="506.5" y="-213.8" font-family="Helvetica,sans-Serif" font-size="11.00" fill="#000000">&lt; 1</text>
<polygon fill="#ffffff" stroke="transparent" points="631.5,-207.7 631.5,-226.7 697.5,-226.7 697.5,-207.7 631.5,-207.7"/>
<polygon fill="none" stroke="#000000" points="631.5,-207.7 631.5,-226.7 697.5,-226.7 697.5,-207.7 631.5,-207.7"/>
<text text-anchor="start" x="688.3862" y="-213.8" font-family="Helvetica,sans-Serif" font-size="11.00" fill="#000000"> &#160;</text>
<polygon fill="#ffffff" stroke="transparent" points="697.5,-207.7 697.5,-226.7 763.5,-226.7 763.5,-207.7 697.5,-207.7"/>
<polygon fill="none" stroke="#000000" points="697.5,-207.7 697.5,-226.7 763.5,-226.7 763.5,-207.7 697.5,-207.7"/>
<text text-anchor="start" x="754.3862" y="-213.8" font-family="Helvetica,sans-Serif" font-size="11.00" fill="#000000"> &#160;</text>
</a>
</g>
</g>
<!-- document_template_group_audit&#45;&gt;audit_revision -->
<g id="edge4" class="edge">
<title>document_template_group_audit:w&#45;&gt;audit_revision:e</title>
<path fill="none" stroke="#000000" d="M489.0121,-322.7C466.3676,-322.7 455.8681,-322.7 427.5,-322.7"/>
<polygon fill="#000000" stroke="#000000" points="495.5,-322.7001 503.5,-326.3 499.5,-322.7 503.5,-322.7 503.5,-322.7 503.5,-322.7 499.5,-322.7 503.5,-319.1 495.5,-322.7001 495.5,-322.7001"/>
<ellipse fill="none" stroke="#000000" cx="492.3" cy="-322.7001" rx="3.2" ry="3.2"/>
</g>
<!-- document_template_audit -->
<g id="node8" class="node">
<title>document_template_audit</title>
<g id="a_node8"><a xlink:href="../../tables/document_template_audit.html" xlink:title="document_template_audit" target="_top">
<polygon fill="#ffffff" stroke="transparent" points="526.5,-38.2 526.5,-187.2 740.5,-187.2 740.5,-38.2 526.5,-38.2"/>
<polygon fill="#f5f5f5" stroke="transparent" points="526.5,-163.7 526.5,-186.7 740.5,-186.7 740.5,-163.7 526.5,-163.7"/>
<polygon fill="none" stroke="#000000" points="526.5,-163.7 526.5,-186.7 740.5,-186.7 740.5,-163.7 526.5,-163.7"/>
<text text-anchor="start" x="531.5" y="-172.3" font-family="Helvetica,sans-Serif" font-weight="bold" font-size="11.00" fill="#000000">document_template_audit</text>
<text text-anchor="start" x="706.0219" y="-171.8" font-family="Helvetica,sans-Serif" font-size="11.00" fill="#000000">[table]</text>
<polygon fill="none" stroke="#000000" points="526.5,-141.7 526.5,-163.7 740.5,-163.7 740.5,-141.7 526.5,-141.7"/>
<image xlink:href="../../images/primaryKeys.png" width="11px" height="12px" preserveAspectRatio="xMinYMin meet" x="531.5" y="-158.7"/>
<text text-anchor="start" x="555.5" y="-148.8" font-family="Helvetica,sans-Serif" font-size="11.00" fill="#000000">rev_id</text>
<polygon fill="none" stroke="#000000" points="526.5,-119.7 526.5,-141.7 740.5,-141.7 740.5,-119.7 526.5,-119.7"/>
<image xlink:href="../../images/primaryKeys.png" width="11px" height="12px" preserveAspectRatio="xMinYMin meet" x="531.5" y="-136.7"/>
<text text-anchor="start" x="555.5" y="-126.8" font-family="Helvetica,sans-Serif" font-size="11.00" fill="#000000">id</text>
<polygon fill="none" stroke="#000000" points="526.5,-97.7 526.5,-119.7 740.5,-119.7 740.5,-97.7 526.5,-97.7"/>
<image xlink:href="../../images/foreignKeys.png" width="11px" height="12px" preserveAspectRatio="xMinYMin meet" x="531.5" y="-114.7"/>
<text text-anchor="start" x="555.5" y="-104.8" font-family="Helvetica,sans-Serif" font-size="11.00" fill="#000000">code</text>
<polygon fill="#ffffff" stroke="transparent" points="526.5,-75.7 526.5,-97.7 740.5,-97.7 740.5,-75.7 526.5,-75.7"/>
<polygon fill="none" stroke="#000000" points="526.5,-75.7 526.5,-97.7 740.5,-97.7 740.5,-75.7 526.5,-75.7"/>
<text text-anchor="start" x="555.5" y="-82.8" font-family="Helvetica,sans-Serif" font-size="11.00" fill="#000000">external_reference</text>
<polygon fill="none" stroke="#000000" points="526.5,-56.7 526.5,-75.7 740.5,-75.7 740.5,-56.7 526.5,-56.7"/>
<text text-anchor="start" x="529.5" y="-62.8" font-family="Helvetica,sans-Serif" font-size="11.00" fill="#000000">...</text>
<polygon fill="#ffffff" stroke="transparent" points="526.5,-37.7 526.5,-56.7 631.5,-56.7 631.5,-37.7 526.5,-37.7"/>
<polygon fill="none" stroke="#000000" points="526.5,-37.7 526.5,-56.7 631.5,-56.7 631.5,-37.7 526.5,-37.7"/>
<text text-anchor="start" x="529.5" y="-43.8" font-family="Helvetica,sans-Serif" font-size="11.00" fill="#000000">&lt; 1</text>
<polygon fill="#ffffff" stroke="transparent" points="631.5,-37.7 631.5,-56.7 685.5,-56.7 685.5,-37.7 631.5,-37.7"/>
<polygon fill="none" stroke="#000000" points="631.5,-37.7 631.5,-56.7 685.5,-56.7 685.5,-37.7 631.5,-37.7"/>
<text text-anchor="start" x="676.3862" y="-43.8" font-family="Helvetica,sans-Serif" font-size="11.00" fill="#000000"> &#160;</text>
<polygon fill="#ffffff" stroke="transparent" points="685.5,-37.7 685.5,-56.7 740.5,-56.7 740.5,-37.7 685.5,-37.7"/>
<polygon fill="none" stroke="#000000" points="685.5,-37.7 685.5,-56.7 740.5,-56.7 740.5,-37.7 685.5,-37.7"/>
<text text-anchor="start" x="731.3862" y="-43.8" font-family="Helvetica,sans-Serif" font-size="11.00" fill="#000000"> &#160;</text>
</a>
</g>
</g>
<!-- document_template_audit&#45;&gt;audit_revision -->
<g id="edge1" class="edge">
<title>document_template_audit:w&#45;&gt;audit_revision:e</title>
<path fill="none" stroke="#000000" d="M511.9401,-154.6092C447.9119,-173.2859 509.469,-322.7 427.5,-322.7"/>
<polygon fill="#000000" stroke="#000000" points="518.5679,-153.7402 526.9681,-156.2694 522.534,-153.2201 526.5,-152.7 526.5,-152.7 526.5,-152.7 522.534,-153.2201 526.0319,-149.1306 518.5679,-153.7402 518.5679,-153.7402"/>
<ellipse fill="none" stroke="#000000" cx="515.3951" cy="-154.1562" rx="3.2" ry="3.2"/>
</g>
<!-- document_template_variable -->
<g id="node9" class="node">
<title>document_template_variable</title>
<g id="a_node9"><a xlink:href="../../tables/document_template_variable.html" xlink:title="document_template_variable" target="_top">
<polygon fill="#ffffff" stroke="transparent" points="516.5,-763.2 516.5,-890.2 750.5,-890.2 750.5,-763.2 516.5,-763.2"/>
<polygon fill="#f5f5f5" stroke="transparent" points="516.5,-866.7 516.5,-889.7 750.5,-889.7 750.5,-866.7 516.5,-866.7"/>
<polygon fill="none" stroke="#000000" points="516.5,-866.7 516.5,-889.7 750.5,-889.7 750.5,-866.7 516.5,-866.7"/>
<text text-anchor="start" x="521.5" y="-875.3" font-family="Helvetica,sans-Serif" font-weight="bold" font-size="11.00" fill="#000000">document_template_variable</text>
<text text-anchor="start" x="716.0219" y="-874.8" font-family="Helvetica,sans-Serif" font-size="11.00" fill="#000000">[table]</text>
<polygon fill="none" stroke="#000000" points="516.5,-844.7 516.5,-866.7 750.5,-866.7 750.5,-844.7 516.5,-844.7"/>
<image xlink:href="../../images/primaryKeys.png" width="11px" height="12px" preserveAspectRatio="xMinYMin meet" x="521.5" y="-861.7"/>
<text text-anchor="start" x="545.5" y="-851.8" font-family="Helvetica,sans-Serif" font-size="11.00" fill="#000000">id</text>
<polygon fill="#ffffff" stroke="transparent" points="516.5,-822.7 516.5,-844.7 750.5,-844.7 750.5,-822.7 516.5,-822.7"/>
<polygon fill="none" stroke="#000000" points="516.5,-822.7 516.5,-844.7 750.5,-844.7 750.5,-822.7 516.5,-822.7"/>
<image xlink:href="../../images/foreignKeys.png" width="11px" height="12px" preserveAspectRatio="xMinYMin meet" x="521.5" y="-839.7"/>
<text text-anchor="start" x="545.5" y="-829.8" font-family="Helvetica,sans-Serif" font-size="11.00" fill="#000000">template_id</text>
<polygon fill="#ffffff" stroke="transparent" points="516.5,-800.7 516.5,-822.7 750.5,-822.7 750.5,-800.7 516.5,-800.7"/>
<polygon fill="none" stroke="#000000" points="516.5,-800.7 516.5,-822.7 750.5,-822.7 750.5,-800.7 516.5,-800.7"/>
<image xlink:href="../../images/foreignKeys.png" width="11px" height="12px" preserveAspectRatio="xMinYMin meet" x="521.5" y="-817.7"/>
<text text-anchor="start" x="545.5" y="-807.8" font-family="Helvetica,sans-Serif" font-size="11.00" fill="#000000">variable_id</text>
<polygon fill="none" stroke="#000000" points="516.5,-781.7 516.5,-800.7 750.5,-800.7 750.5,-781.7 516.5,-781.7"/>
<text text-anchor="start" x="519.5" y="-787.8" font-family="Helvetica,sans-Serif" font-size="11.00" fill="#000000">...</text>
<polygon fill="#ffffff" stroke="transparent" points="516.5,-762.7 516.5,-781.7 631.5,-781.7 631.5,-762.7 516.5,-762.7"/>
<polygon fill="none" stroke="#000000" points="516.5,-762.7 516.5,-781.7 631.5,-781.7 631.5,-762.7 516.5,-762.7"/>
<text text-anchor="start" x="519.5" y="-768.8" font-family="Helvetica,sans-Serif" font-size="11.00" fill="#000000">&lt; 2</text>
<polygon fill="#ffffff" stroke="transparent" points="631.5,-762.7 631.5,-781.7 690.5,-781.7 690.5,-762.7 631.5,-762.7"/>
<polygon fill="none" stroke="#000000" points="631.5,-762.7 631.5,-781.7 690.5,-781.7 690.5,-762.7 631.5,-762.7"/>
<text text-anchor="start" x="681.3862" y="-768.8" font-family="Helvetica,sans-Serif" font-size="11.00" fill="#000000"> &#160;</text>
<polygon fill="#ffffff" stroke="transparent" points="690.5,-762.7 690.5,-781.7 750.5,-781.7 750.5,-762.7 690.5,-762.7"/>
<polygon fill="none" stroke="#000000" points="690.5,-762.7 690.5,-781.7 750.5,-781.7 750.5,-762.7 690.5,-762.7"/>
<text text-anchor="start" x="741.3862" y="-768.8" font-family="Helvetica,sans-Serif" font-size="11.00" fill="#000000"> &#160;</text>
</a>
</g>
</g>
<!-- document_template_variable&#45;&gt;template_variable -->
<g id="edge6" class="edge">
<title>document_template_variable:w&#45;&gt;template_variable:e</title>
<path fill="none" stroke="#000000" d="M501.9518,-813.1435C478.8432,-818.0379 470.1701,-833.7 440.5,-833.7"/>
<polygon fill="#000000" stroke="#000000" points="508.5391,-812.4899 516.8555,-815.2824 512.5195,-812.095 516.5,-811.7 516.5,-811.7 516.5,-811.7 512.5195,-812.095 516.1445,-808.1176 508.5391,-812.4899 508.5391,-812.4899"/>
<ellipse fill="none" stroke="#000000" cx="505.3547" cy="-812.8059" rx="3.2" ry="3.2"/>
</g>
<!-- document_template_variable&#45;&gt;document_template -->
<g id="edge5" class="edge">
<title>document_template_variable:w&#45;&gt;document_template:e</title>
<path fill="none" stroke="#000000" d="M502.1274,-831.4254C447.0004,-811.2522 523.4678,-663.7 447.5,-663.7"/>
<polygon fill="#000000" stroke="#000000" points="508.5983,-832.4494 515.9372,-837.2557 512.5492,-833.0747 516.5,-833.7 516.5,-833.7 516.5,-833.7 512.5492,-833.0747 517.0628,-830.1443 508.5983,-832.4494 508.5983,-832.4494"/>
<ellipse fill="none" stroke="#000000" cx="505.4377" cy="-831.9492" rx="3.2" ry="3.2"/>
</g>
</g>
</svg>
